%TF.GenerationSoftware,KiCad,Pcbnew,8.0.5*%
%TF.CreationDate,2024-10-07T09:32:21+08:00*%
%TF.ProjectId,draft-board,64726166-742d-4626-9f61-72642e6b6963,rev?*%
%TF.SameCoordinates,Original*%
%TF.FileFunction,Soldermask,Top*%
%TF.FilePolarity,Negative*%
%FSLAX46Y46*%
G04 Gerber Fmt 4.6, Leading zero omitted, Abs format (unit mm)*
G04 Created by KiCad (PCBNEW 8.0.5) date 2024-10-07 09:32:21*
%MOMM*%
%LPD*%
G01*
G04 APERTURE LIST*
G04 Aperture macros list*
%AMRoundRect*
0 Rectangle with rounded corners*
0 $1 Rounding radius*
0 $2 $3 $4 $5 $6 $7 $8 $9 X,Y pos of 4 corners*
0 Add a 4 corners polygon primitive as box body*
4,1,4,$2,$3,$4,$5,$6,$7,$8,$9,$2,$3,0*
0 Add four circle primitives for the rounded corners*
1,1,$1+$1,$2,$3*
1,1,$1+$1,$4,$5*
1,1,$1+$1,$6,$7*
1,1,$1+$1,$8,$9*
0 Add four rect primitives between the rounded corners*
20,1,$1+$1,$2,$3,$4,$5,0*
20,1,$1+$1,$4,$5,$6,$7,0*
20,1,$1+$1,$6,$7,$8,$9,0*
20,1,$1+$1,$8,$9,$2,$3,0*%
G04 Aperture macros list end*
%ADD10C,0.010000*%
%ADD11C,5.600000*%
%ADD12RoundRect,0.218750X0.256250X-0.218750X0.256250X0.218750X-0.256250X0.218750X-0.256250X-0.218750X0*%
%ADD13RoundRect,0.250000X-0.550000X1.500000X-0.550000X-1.500000X0.550000X-1.500000X0.550000X1.500000X0*%
%ADD14R,3.800000X3.800000*%
%ADD15C,4.000000*%
%ADD16RoundRect,0.225000X-0.250000X0.225000X-0.250000X-0.225000X0.250000X-0.225000X0.250000X0.225000X0*%
%ADD17RoundRect,0.200000X-0.200000X-0.275000X0.200000X-0.275000X0.200000X0.275000X-0.200000X0.275000X0*%
%ADD18C,3.000000*%
%ADD19RoundRect,0.250000X1.000000X0.650000X-1.000000X0.650000X-1.000000X-0.650000X1.000000X-0.650000X0*%
%ADD20RoundRect,0.250000X0.550000X-1.500000X0.550000X1.500000X-0.550000X1.500000X-0.550000X-1.500000X0*%
%ADD21RoundRect,0.225000X0.225000X0.250000X-0.225000X0.250000X-0.225000X-0.250000X0.225000X-0.250000X0*%
%ADD22RoundRect,0.218750X-0.218750X-0.256250X0.218750X-0.256250X0.218750X0.256250X-0.218750X0.256250X0*%
%ADD23O,1.000000X1.800000*%
%ADD24O,1.000000X2.100000*%
%ADD25RoundRect,0.150000X-0.150000X-0.425000X0.150000X-0.425000X0.150000X0.425000X-0.150000X0.425000X0*%
%ADD26RoundRect,0.075000X-0.075000X-0.500000X0.075000X-0.500000X0.075000X0.500000X-0.075000X0.500000X0*%
%ADD27C,0.650000*%
%ADD28RoundRect,0.500000X-0.500000X-0.500000X0.500000X-0.500000X0.500000X0.500000X-0.500000X0.500000X0*%
%ADD29C,2.000000*%
%ADD30RoundRect,0.250000X-0.325000X-0.650000X0.325000X-0.650000X0.325000X0.650000X-0.325000X0.650000X0*%
%ADD31RoundRect,1.500000X-1.500000X-1.500000X1.500000X-1.500000X1.500000X1.500000X-1.500000X1.500000X0*%
%ADD32C,6.000000*%
%ADD33RoundRect,0.200000X0.275000X-0.200000X0.275000X0.200000X-0.275000X0.200000X-0.275000X-0.200000X0*%
%ADD34R,3.500000X2.350000*%
%ADD35RoundRect,0.200000X-0.275000X0.200000X-0.275000X-0.200000X0.275000X-0.200000X0.275000X0.200000X0*%
%ADD36R,1.600000X1.600000*%
%ADD37O,1.600000X1.600000*%
G04 APERTURE END LIST*
D10*
%TO.C,U1*%
X141329000Y-95058000D02*
X141335000Y-95058000D01*
X141340000Y-95059000D01*
X141345000Y-95060000D01*
X141350000Y-95062000D01*
X141355000Y-95064000D01*
X141360000Y-95066000D01*
X141364000Y-95068000D01*
X141369000Y-95070000D01*
X141373000Y-95073000D01*
X141378000Y-95076000D01*
X141382000Y-95079000D01*
X141386000Y-95083000D01*
X141390000Y-95086000D01*
X141393000Y-95090000D01*
X141397000Y-95094000D01*
X141400000Y-95098000D01*
X141403000Y-95103000D01*
X141406000Y-95107000D01*
X141408000Y-95112000D01*
X141410000Y-95116000D01*
X141412000Y-95121000D01*
X141414000Y-95126000D01*
X141416000Y-95131000D01*
X141417000Y-95136000D01*
X141418000Y-95141000D01*
X141418000Y-95147000D01*
X141419000Y-95152000D01*
X141419000Y-95157000D01*
X141419000Y-95657000D01*
X141419000Y-95662000D01*
X141418000Y-95667000D01*
X141418000Y-95673000D01*
X141417000Y-95678000D01*
X141416000Y-95683000D01*
X141414000Y-95688000D01*
X141412000Y-95693000D01*
X141410000Y-95698000D01*
X141408000Y-95702000D01*
X141406000Y-95707000D01*
X141403000Y-95711000D01*
X141400000Y-95716000D01*
X141397000Y-95720000D01*
X141393000Y-95724000D01*
X141390000Y-95728000D01*
X141386000Y-95731000D01*
X141382000Y-95735000D01*
X141378000Y-95738000D01*
X141373000Y-95741000D01*
X141369000Y-95744000D01*
X141364000Y-95746000D01*
X141360000Y-95748000D01*
X141355000Y-95750000D01*
X141350000Y-95752000D01*
X141345000Y-95754000D01*
X141340000Y-95755000D01*
X141335000Y-95756000D01*
X141329000Y-95756000D01*
X141324000Y-95757000D01*
X141319000Y-95757000D01*
X141169000Y-95757000D01*
X141164000Y-95757000D01*
X141159000Y-95756000D01*
X141153000Y-95756000D01*
X141148000Y-95755000D01*
X141143000Y-95754000D01*
X141138000Y-95752000D01*
X141133000Y-95750000D01*
X141128000Y-95748000D01*
X141124000Y-95746000D01*
X141119000Y-95744000D01*
X141115000Y-95741000D01*
X141110000Y-95738000D01*
X141106000Y-95735000D01*
X141102000Y-95731000D01*
X141098000Y-95728000D01*
X141095000Y-95724000D01*
X141091000Y-95720000D01*
X141088000Y-95716000D01*
X141085000Y-95711000D01*
X141082000Y-95707000D01*
X141080000Y-95702000D01*
X141078000Y-95698000D01*
X141076000Y-95693000D01*
X141074000Y-95688000D01*
X141072000Y-95683000D01*
X141071000Y-95678000D01*
X141070000Y-95673000D01*
X141070000Y-95667000D01*
X141069000Y-95662000D01*
X141069000Y-95657000D01*
X141069000Y-95157000D01*
X141069000Y-95152000D01*
X141070000Y-95147000D01*
X141070000Y-95141000D01*
X141071000Y-95136000D01*
X141072000Y-95131000D01*
X141074000Y-95126000D01*
X141076000Y-95121000D01*
X141078000Y-95116000D01*
X141080000Y-95112000D01*
X141082000Y-95107000D01*
X141085000Y-95103000D01*
X141088000Y-95098000D01*
X141091000Y-95094000D01*
X141095000Y-95090000D01*
X141098000Y-95086000D01*
X141102000Y-95083000D01*
X141106000Y-95079000D01*
X141110000Y-95076000D01*
X141115000Y-95073000D01*
X141119000Y-95070000D01*
X141124000Y-95068000D01*
X141128000Y-95066000D01*
X141133000Y-95064000D01*
X141138000Y-95062000D01*
X141143000Y-95060000D01*
X141148000Y-95059000D01*
X141153000Y-95058000D01*
X141159000Y-95058000D01*
X141164000Y-95057000D01*
X141169000Y-95057000D01*
X141319000Y-95057000D01*
X141324000Y-95057000D01*
X141329000Y-95058000D01*
G36*
X141329000Y-95058000D02*
G01*
X141335000Y-95058000D01*
X141340000Y-95059000D01*
X141345000Y-95060000D01*
X141350000Y-95062000D01*
X141355000Y-95064000D01*
X141360000Y-95066000D01*
X141364000Y-95068000D01*
X141369000Y-95070000D01*
X141373000Y-95073000D01*
X141378000Y-95076000D01*
X141382000Y-95079000D01*
X141386000Y-95083000D01*
X141390000Y-95086000D01*
X141393000Y-95090000D01*
X141397000Y-95094000D01*
X141400000Y-95098000D01*
X141403000Y-95103000D01*
X141406000Y-95107000D01*
X141408000Y-95112000D01*
X141410000Y-95116000D01*
X141412000Y-95121000D01*
X141414000Y-95126000D01*
X141416000Y-95131000D01*
X141417000Y-95136000D01*
X141418000Y-95141000D01*
X141418000Y-95147000D01*
X141419000Y-95152000D01*
X141419000Y-95157000D01*
X141419000Y-95657000D01*
X141419000Y-95662000D01*
X141418000Y-95667000D01*
X141418000Y-95673000D01*
X141417000Y-95678000D01*
X141416000Y-95683000D01*
X141414000Y-95688000D01*
X141412000Y-95693000D01*
X141410000Y-95698000D01*
X141408000Y-95702000D01*
X141406000Y-95707000D01*
X141403000Y-95711000D01*
X141400000Y-95716000D01*
X141397000Y-95720000D01*
X141393000Y-95724000D01*
X141390000Y-95728000D01*
X141386000Y-95731000D01*
X141382000Y-95735000D01*
X141378000Y-95738000D01*
X141373000Y-95741000D01*
X141369000Y-95744000D01*
X141364000Y-95746000D01*
X141360000Y-95748000D01*
X141355000Y-95750000D01*
X141350000Y-95752000D01*
X141345000Y-95754000D01*
X141340000Y-95755000D01*
X141335000Y-95756000D01*
X141329000Y-95756000D01*
X141324000Y-95757000D01*
X141319000Y-95757000D01*
X141169000Y-95757000D01*
X141164000Y-95757000D01*
X141159000Y-95756000D01*
X141153000Y-95756000D01*
X141148000Y-95755000D01*
X141143000Y-95754000D01*
X141138000Y-95752000D01*
X141133000Y-95750000D01*
X141128000Y-95748000D01*
X141124000Y-95746000D01*
X141119000Y-95744000D01*
X141115000Y-95741000D01*
X141110000Y-95738000D01*
X141106000Y-95735000D01*
X141102000Y-95731000D01*
X141098000Y-95728000D01*
X141095000Y-95724000D01*
X141091000Y-95720000D01*
X141088000Y-95716000D01*
X141085000Y-95711000D01*
X141082000Y-95707000D01*
X141080000Y-95702000D01*
X141078000Y-95698000D01*
X141076000Y-95693000D01*
X141074000Y-95688000D01*
X141072000Y-95683000D01*
X141071000Y-95678000D01*
X141070000Y-95673000D01*
X141070000Y-95667000D01*
X141069000Y-95662000D01*
X141069000Y-95657000D01*
X141069000Y-95157000D01*
X141069000Y-95152000D01*
X141070000Y-95147000D01*
X141070000Y-95141000D01*
X141071000Y-95136000D01*
X141072000Y-95131000D01*
X141074000Y-95126000D01*
X141076000Y-95121000D01*
X141078000Y-95116000D01*
X141080000Y-95112000D01*
X141082000Y-95107000D01*
X141085000Y-95103000D01*
X141088000Y-95098000D01*
X141091000Y-95094000D01*
X141095000Y-95090000D01*
X141098000Y-95086000D01*
X141102000Y-95083000D01*
X141106000Y-95079000D01*
X141110000Y-95076000D01*
X141115000Y-95073000D01*
X141119000Y-95070000D01*
X141124000Y-95068000D01*
X141128000Y-95066000D01*
X141133000Y-95064000D01*
X141138000Y-95062000D01*
X141143000Y-95060000D01*
X141148000Y-95059000D01*
X141153000Y-95058000D01*
X141159000Y-95058000D01*
X141164000Y-95057000D01*
X141169000Y-95057000D01*
X141319000Y-95057000D01*
X141324000Y-95057000D01*
X141329000Y-95058000D01*
G37*
X141329000Y-97858000D02*
X141335000Y-97858000D01*
X141340000Y-97859000D01*
X141345000Y-97860000D01*
X141350000Y-97862000D01*
X141355000Y-97864000D01*
X141360000Y-97866000D01*
X141364000Y-97868000D01*
X141369000Y-97870000D01*
X141373000Y-97873000D01*
X141378000Y-97876000D01*
X141382000Y-97879000D01*
X141386000Y-97883000D01*
X141390000Y-97886000D01*
X141393000Y-97890000D01*
X141397000Y-97894000D01*
X141400000Y-97898000D01*
X141403000Y-97903000D01*
X141406000Y-97907000D01*
X141408000Y-97912000D01*
X141410000Y-97916000D01*
X141412000Y-97921000D01*
X141414000Y-97926000D01*
X141416000Y-97931000D01*
X141417000Y-97936000D01*
X141418000Y-97941000D01*
X141418000Y-97947000D01*
X141419000Y-97952000D01*
X141419000Y-97957000D01*
X141419000Y-98457000D01*
X141419000Y-98462000D01*
X141418000Y-98467000D01*
X141418000Y-98473000D01*
X141417000Y-98478000D01*
X141416000Y-98483000D01*
X141414000Y-98488000D01*
X141412000Y-98493000D01*
X141410000Y-98498000D01*
X141408000Y-98502000D01*
X141406000Y-98507000D01*
X141403000Y-98511000D01*
X141400000Y-98516000D01*
X141397000Y-98520000D01*
X141393000Y-98524000D01*
X141390000Y-98528000D01*
X141386000Y-98531000D01*
X141382000Y-98535000D01*
X141378000Y-98538000D01*
X141373000Y-98541000D01*
X141369000Y-98544000D01*
X141364000Y-98546000D01*
X141360000Y-98548000D01*
X141355000Y-98550000D01*
X141350000Y-98552000D01*
X141345000Y-98554000D01*
X141340000Y-98555000D01*
X141335000Y-98556000D01*
X141329000Y-98556000D01*
X141324000Y-98557000D01*
X141319000Y-98557000D01*
X141169000Y-98557000D01*
X141164000Y-98557000D01*
X141159000Y-98556000D01*
X141153000Y-98556000D01*
X141148000Y-98555000D01*
X141143000Y-98554000D01*
X141138000Y-98552000D01*
X141133000Y-98550000D01*
X141128000Y-98548000D01*
X141124000Y-98546000D01*
X141119000Y-98544000D01*
X141115000Y-98541000D01*
X141110000Y-98538000D01*
X141106000Y-98535000D01*
X141102000Y-98531000D01*
X141098000Y-98528000D01*
X141095000Y-98524000D01*
X141091000Y-98520000D01*
X141088000Y-98516000D01*
X141085000Y-98511000D01*
X141082000Y-98507000D01*
X141080000Y-98502000D01*
X141078000Y-98498000D01*
X141076000Y-98493000D01*
X141074000Y-98488000D01*
X141072000Y-98483000D01*
X141071000Y-98478000D01*
X141070000Y-98473000D01*
X141070000Y-98467000D01*
X141069000Y-98462000D01*
X141069000Y-98457000D01*
X141069000Y-97957000D01*
X141069000Y-97952000D01*
X141070000Y-97947000D01*
X141070000Y-97941000D01*
X141071000Y-97936000D01*
X141072000Y-97931000D01*
X141074000Y-97926000D01*
X141076000Y-97921000D01*
X141078000Y-97916000D01*
X141080000Y-97912000D01*
X141082000Y-97907000D01*
X141085000Y-97903000D01*
X141088000Y-97898000D01*
X141091000Y-97894000D01*
X141095000Y-97890000D01*
X141098000Y-97886000D01*
X141102000Y-97883000D01*
X141106000Y-97879000D01*
X141110000Y-97876000D01*
X141115000Y-97873000D01*
X141119000Y-97870000D01*
X141124000Y-97868000D01*
X141128000Y-97866000D01*
X141133000Y-97864000D01*
X141138000Y-97862000D01*
X141143000Y-97860000D01*
X141148000Y-97859000D01*
X141153000Y-97858000D01*
X141159000Y-97858000D01*
X141164000Y-97857000D01*
X141169000Y-97857000D01*
X141319000Y-97857000D01*
X141324000Y-97857000D01*
X141329000Y-97858000D01*
G36*
X141329000Y-97858000D02*
G01*
X141335000Y-97858000D01*
X141340000Y-97859000D01*
X141345000Y-97860000D01*
X141350000Y-97862000D01*
X141355000Y-97864000D01*
X141360000Y-97866000D01*
X141364000Y-97868000D01*
X141369000Y-97870000D01*
X141373000Y-97873000D01*
X141378000Y-97876000D01*
X141382000Y-97879000D01*
X141386000Y-97883000D01*
X141390000Y-97886000D01*
X141393000Y-97890000D01*
X141397000Y-97894000D01*
X141400000Y-97898000D01*
X141403000Y-97903000D01*
X141406000Y-97907000D01*
X141408000Y-97912000D01*
X141410000Y-97916000D01*
X141412000Y-97921000D01*
X141414000Y-97926000D01*
X141416000Y-97931000D01*
X141417000Y-97936000D01*
X141418000Y-97941000D01*
X141418000Y-97947000D01*
X141419000Y-97952000D01*
X141419000Y-97957000D01*
X141419000Y-98457000D01*
X141419000Y-98462000D01*
X141418000Y-98467000D01*
X141418000Y-98473000D01*
X141417000Y-98478000D01*
X141416000Y-98483000D01*
X141414000Y-98488000D01*
X141412000Y-98493000D01*
X141410000Y-98498000D01*
X141408000Y-98502000D01*
X141406000Y-98507000D01*
X141403000Y-98511000D01*
X141400000Y-98516000D01*
X141397000Y-98520000D01*
X141393000Y-98524000D01*
X141390000Y-98528000D01*
X141386000Y-98531000D01*
X141382000Y-98535000D01*
X141378000Y-98538000D01*
X141373000Y-98541000D01*
X141369000Y-98544000D01*
X141364000Y-98546000D01*
X141360000Y-98548000D01*
X141355000Y-98550000D01*
X141350000Y-98552000D01*
X141345000Y-98554000D01*
X141340000Y-98555000D01*
X141335000Y-98556000D01*
X141329000Y-98556000D01*
X141324000Y-98557000D01*
X141319000Y-98557000D01*
X141169000Y-98557000D01*
X141164000Y-98557000D01*
X141159000Y-98556000D01*
X141153000Y-98556000D01*
X141148000Y-98555000D01*
X141143000Y-98554000D01*
X141138000Y-98552000D01*
X141133000Y-98550000D01*
X141128000Y-98548000D01*
X141124000Y-98546000D01*
X141119000Y-98544000D01*
X141115000Y-98541000D01*
X141110000Y-98538000D01*
X141106000Y-98535000D01*
X141102000Y-98531000D01*
X141098000Y-98528000D01*
X141095000Y-98524000D01*
X141091000Y-98520000D01*
X141088000Y-98516000D01*
X141085000Y-98511000D01*
X141082000Y-98507000D01*
X141080000Y-98502000D01*
X141078000Y-98498000D01*
X141076000Y-98493000D01*
X141074000Y-98488000D01*
X141072000Y-98483000D01*
X141071000Y-98478000D01*
X141070000Y-98473000D01*
X141070000Y-98467000D01*
X141069000Y-98462000D01*
X141069000Y-98457000D01*
X141069000Y-97957000D01*
X141069000Y-97952000D01*
X141070000Y-97947000D01*
X141070000Y-97941000D01*
X141071000Y-97936000D01*
X141072000Y-97931000D01*
X141074000Y-97926000D01*
X141076000Y-97921000D01*
X141078000Y-97916000D01*
X141080000Y-97912000D01*
X141082000Y-97907000D01*
X141085000Y-97903000D01*
X141088000Y-97898000D01*
X141091000Y-97894000D01*
X141095000Y-97890000D01*
X141098000Y-97886000D01*
X141102000Y-97883000D01*
X141106000Y-97879000D01*
X141110000Y-97876000D01*
X141115000Y-97873000D01*
X141119000Y-97870000D01*
X141124000Y-97868000D01*
X141128000Y-97866000D01*
X141133000Y-97864000D01*
X141138000Y-97862000D01*
X141143000Y-97860000D01*
X141148000Y-97859000D01*
X141153000Y-97858000D01*
X141159000Y-97858000D01*
X141164000Y-97857000D01*
X141169000Y-97857000D01*
X141319000Y-97857000D01*
X141324000Y-97857000D01*
X141329000Y-97858000D01*
G37*
X141829000Y-95058000D02*
X141835000Y-95058000D01*
X141840000Y-95059000D01*
X141845000Y-95060000D01*
X141850000Y-95062000D01*
X141855000Y-95064000D01*
X141860000Y-95066000D01*
X141864000Y-95068000D01*
X141869000Y-95070000D01*
X141873000Y-95073000D01*
X141878000Y-95076000D01*
X141882000Y-95079000D01*
X141886000Y-95083000D01*
X141890000Y-95086000D01*
X141893000Y-95090000D01*
X141897000Y-95094000D01*
X141900000Y-95098000D01*
X141903000Y-95103000D01*
X141906000Y-95107000D01*
X141908000Y-95112000D01*
X141910000Y-95116000D01*
X141912000Y-95121000D01*
X141914000Y-95126000D01*
X141916000Y-95131000D01*
X141917000Y-95136000D01*
X141918000Y-95141000D01*
X141918000Y-95147000D01*
X141919000Y-95152000D01*
X141919000Y-95157000D01*
X141919000Y-95657000D01*
X141919000Y-95662000D01*
X141918000Y-95667000D01*
X141918000Y-95673000D01*
X141917000Y-95678000D01*
X141916000Y-95683000D01*
X141914000Y-95688000D01*
X141912000Y-95693000D01*
X141910000Y-95698000D01*
X141908000Y-95702000D01*
X141906000Y-95707000D01*
X141903000Y-95711000D01*
X141900000Y-95716000D01*
X141897000Y-95720000D01*
X141893000Y-95724000D01*
X141890000Y-95728000D01*
X141886000Y-95731000D01*
X141882000Y-95735000D01*
X141878000Y-95738000D01*
X141873000Y-95741000D01*
X141869000Y-95744000D01*
X141864000Y-95746000D01*
X141860000Y-95748000D01*
X141855000Y-95750000D01*
X141850000Y-95752000D01*
X141845000Y-95754000D01*
X141840000Y-95755000D01*
X141835000Y-95756000D01*
X141829000Y-95756000D01*
X141824000Y-95757000D01*
X141819000Y-95757000D01*
X141669000Y-95757000D01*
X141664000Y-95757000D01*
X141659000Y-95756000D01*
X141653000Y-95756000D01*
X141648000Y-95755000D01*
X141643000Y-95754000D01*
X141638000Y-95752000D01*
X141633000Y-95750000D01*
X141628000Y-95748000D01*
X141624000Y-95746000D01*
X141619000Y-95744000D01*
X141615000Y-95741000D01*
X141610000Y-95738000D01*
X141606000Y-95735000D01*
X141602000Y-95731000D01*
X141598000Y-95728000D01*
X141595000Y-95724000D01*
X141591000Y-95720000D01*
X141588000Y-95716000D01*
X141585000Y-95711000D01*
X141582000Y-95707000D01*
X141580000Y-95702000D01*
X141578000Y-95698000D01*
X141576000Y-95693000D01*
X141574000Y-95688000D01*
X141572000Y-95683000D01*
X141571000Y-95678000D01*
X141570000Y-95673000D01*
X141570000Y-95667000D01*
X141569000Y-95662000D01*
X141569000Y-95657000D01*
X141569000Y-95157000D01*
X141569000Y-95152000D01*
X141570000Y-95147000D01*
X141570000Y-95141000D01*
X141571000Y-95136000D01*
X141572000Y-95131000D01*
X141574000Y-95126000D01*
X141576000Y-95121000D01*
X141578000Y-95116000D01*
X141580000Y-95112000D01*
X141582000Y-95107000D01*
X141585000Y-95103000D01*
X141588000Y-95098000D01*
X141591000Y-95094000D01*
X141595000Y-95090000D01*
X141598000Y-95086000D01*
X141602000Y-95083000D01*
X141606000Y-95079000D01*
X141610000Y-95076000D01*
X141615000Y-95073000D01*
X141619000Y-95070000D01*
X141624000Y-95068000D01*
X141628000Y-95066000D01*
X141633000Y-95064000D01*
X141638000Y-95062000D01*
X141643000Y-95060000D01*
X141648000Y-95059000D01*
X141653000Y-95058000D01*
X141659000Y-95058000D01*
X141664000Y-95057000D01*
X141669000Y-95057000D01*
X141819000Y-95057000D01*
X141824000Y-95057000D01*
X141829000Y-95058000D01*
G36*
X141829000Y-95058000D02*
G01*
X141835000Y-95058000D01*
X141840000Y-95059000D01*
X141845000Y-95060000D01*
X141850000Y-95062000D01*
X141855000Y-95064000D01*
X141860000Y-95066000D01*
X141864000Y-95068000D01*
X141869000Y-95070000D01*
X141873000Y-95073000D01*
X141878000Y-95076000D01*
X141882000Y-95079000D01*
X141886000Y-95083000D01*
X141890000Y-95086000D01*
X141893000Y-95090000D01*
X141897000Y-95094000D01*
X141900000Y-95098000D01*
X141903000Y-95103000D01*
X141906000Y-95107000D01*
X141908000Y-95112000D01*
X141910000Y-95116000D01*
X141912000Y-95121000D01*
X141914000Y-95126000D01*
X141916000Y-95131000D01*
X141917000Y-95136000D01*
X141918000Y-95141000D01*
X141918000Y-95147000D01*
X141919000Y-95152000D01*
X141919000Y-95157000D01*
X141919000Y-95657000D01*
X141919000Y-95662000D01*
X141918000Y-95667000D01*
X141918000Y-95673000D01*
X141917000Y-95678000D01*
X141916000Y-95683000D01*
X141914000Y-95688000D01*
X141912000Y-95693000D01*
X141910000Y-95698000D01*
X141908000Y-95702000D01*
X141906000Y-95707000D01*
X141903000Y-95711000D01*
X141900000Y-95716000D01*
X141897000Y-95720000D01*
X141893000Y-95724000D01*
X141890000Y-95728000D01*
X141886000Y-95731000D01*
X141882000Y-95735000D01*
X141878000Y-95738000D01*
X141873000Y-95741000D01*
X141869000Y-95744000D01*
X141864000Y-95746000D01*
X141860000Y-95748000D01*
X141855000Y-95750000D01*
X141850000Y-95752000D01*
X141845000Y-95754000D01*
X141840000Y-95755000D01*
X141835000Y-95756000D01*
X141829000Y-95756000D01*
X141824000Y-95757000D01*
X141819000Y-95757000D01*
X141669000Y-95757000D01*
X141664000Y-95757000D01*
X141659000Y-95756000D01*
X141653000Y-95756000D01*
X141648000Y-95755000D01*
X141643000Y-95754000D01*
X141638000Y-95752000D01*
X141633000Y-95750000D01*
X141628000Y-95748000D01*
X141624000Y-95746000D01*
X141619000Y-95744000D01*
X141615000Y-95741000D01*
X141610000Y-95738000D01*
X141606000Y-95735000D01*
X141602000Y-95731000D01*
X141598000Y-95728000D01*
X141595000Y-95724000D01*
X141591000Y-95720000D01*
X141588000Y-95716000D01*
X141585000Y-95711000D01*
X141582000Y-95707000D01*
X141580000Y-95702000D01*
X141578000Y-95698000D01*
X141576000Y-95693000D01*
X141574000Y-95688000D01*
X141572000Y-95683000D01*
X141571000Y-95678000D01*
X141570000Y-95673000D01*
X141570000Y-95667000D01*
X141569000Y-95662000D01*
X141569000Y-95657000D01*
X141569000Y-95157000D01*
X141569000Y-95152000D01*
X141570000Y-95147000D01*
X141570000Y-95141000D01*
X141571000Y-95136000D01*
X141572000Y-95131000D01*
X141574000Y-95126000D01*
X141576000Y-95121000D01*
X141578000Y-95116000D01*
X141580000Y-95112000D01*
X141582000Y-95107000D01*
X141585000Y-95103000D01*
X141588000Y-95098000D01*
X141591000Y-95094000D01*
X141595000Y-95090000D01*
X141598000Y-95086000D01*
X141602000Y-95083000D01*
X141606000Y-95079000D01*
X141610000Y-95076000D01*
X141615000Y-95073000D01*
X141619000Y-95070000D01*
X141624000Y-95068000D01*
X141628000Y-95066000D01*
X141633000Y-95064000D01*
X141638000Y-95062000D01*
X141643000Y-95060000D01*
X141648000Y-95059000D01*
X141653000Y-95058000D01*
X141659000Y-95058000D01*
X141664000Y-95057000D01*
X141669000Y-95057000D01*
X141819000Y-95057000D01*
X141824000Y-95057000D01*
X141829000Y-95058000D01*
G37*
X141829000Y-97858000D02*
X141835000Y-97858000D01*
X141840000Y-97859000D01*
X141845000Y-97860000D01*
X141850000Y-97862000D01*
X141855000Y-97864000D01*
X141860000Y-97866000D01*
X141864000Y-97868000D01*
X141869000Y-97870000D01*
X141873000Y-97873000D01*
X141878000Y-97876000D01*
X141882000Y-97879000D01*
X141886000Y-97883000D01*
X141890000Y-97886000D01*
X141893000Y-97890000D01*
X141897000Y-97894000D01*
X141900000Y-97898000D01*
X141903000Y-97903000D01*
X141906000Y-97907000D01*
X141908000Y-97912000D01*
X141910000Y-97916000D01*
X141912000Y-97921000D01*
X141914000Y-97926000D01*
X141916000Y-97931000D01*
X141917000Y-97936000D01*
X141918000Y-97941000D01*
X141918000Y-97947000D01*
X141919000Y-97952000D01*
X141919000Y-97957000D01*
X141919000Y-98457000D01*
X141919000Y-98462000D01*
X141918000Y-98467000D01*
X141918000Y-98473000D01*
X141917000Y-98478000D01*
X141916000Y-98483000D01*
X141914000Y-98488000D01*
X141912000Y-98493000D01*
X141910000Y-98498000D01*
X141908000Y-98502000D01*
X141906000Y-98507000D01*
X141903000Y-98511000D01*
X141900000Y-98516000D01*
X141897000Y-98520000D01*
X141893000Y-98524000D01*
X141890000Y-98528000D01*
X141886000Y-98531000D01*
X141882000Y-98535000D01*
X141878000Y-98538000D01*
X141873000Y-98541000D01*
X141869000Y-98544000D01*
X141864000Y-98546000D01*
X141860000Y-98548000D01*
X141855000Y-98550000D01*
X141850000Y-98552000D01*
X141845000Y-98554000D01*
X141840000Y-98555000D01*
X141835000Y-98556000D01*
X141829000Y-98556000D01*
X141824000Y-98557000D01*
X141819000Y-98557000D01*
X141669000Y-98557000D01*
X141664000Y-98557000D01*
X141659000Y-98556000D01*
X141653000Y-98556000D01*
X141648000Y-98555000D01*
X141643000Y-98554000D01*
X141638000Y-98552000D01*
X141633000Y-98550000D01*
X141628000Y-98548000D01*
X141624000Y-98546000D01*
X141619000Y-98544000D01*
X141615000Y-98541000D01*
X141610000Y-98538000D01*
X141606000Y-98535000D01*
X141602000Y-98531000D01*
X141598000Y-98528000D01*
X141595000Y-98524000D01*
X141591000Y-98520000D01*
X141588000Y-98516000D01*
X141585000Y-98511000D01*
X141582000Y-98507000D01*
X141580000Y-98502000D01*
X141578000Y-98498000D01*
X141576000Y-98493000D01*
X141574000Y-98488000D01*
X141572000Y-98483000D01*
X141571000Y-98478000D01*
X141570000Y-98473000D01*
X141570000Y-98467000D01*
X141569000Y-98462000D01*
X141569000Y-98457000D01*
X141569000Y-97957000D01*
X141569000Y-97952000D01*
X141570000Y-97947000D01*
X141570000Y-97941000D01*
X141571000Y-97936000D01*
X141572000Y-97931000D01*
X141574000Y-97926000D01*
X141576000Y-97921000D01*
X141578000Y-97916000D01*
X141580000Y-97912000D01*
X141582000Y-97907000D01*
X141585000Y-97903000D01*
X141588000Y-97898000D01*
X141591000Y-97894000D01*
X141595000Y-97890000D01*
X141598000Y-97886000D01*
X141602000Y-97883000D01*
X141606000Y-97879000D01*
X141610000Y-97876000D01*
X141615000Y-97873000D01*
X141619000Y-97870000D01*
X141624000Y-97868000D01*
X141628000Y-97866000D01*
X141633000Y-97864000D01*
X141638000Y-97862000D01*
X141643000Y-97860000D01*
X141648000Y-97859000D01*
X141653000Y-97858000D01*
X141659000Y-97858000D01*
X141664000Y-97857000D01*
X141669000Y-97857000D01*
X141819000Y-97857000D01*
X141824000Y-97857000D01*
X141829000Y-97858000D01*
G36*
X141829000Y-97858000D02*
G01*
X141835000Y-97858000D01*
X141840000Y-97859000D01*
X141845000Y-97860000D01*
X141850000Y-97862000D01*
X141855000Y-97864000D01*
X141860000Y-97866000D01*
X141864000Y-97868000D01*
X141869000Y-97870000D01*
X141873000Y-97873000D01*
X141878000Y-97876000D01*
X141882000Y-97879000D01*
X141886000Y-97883000D01*
X141890000Y-97886000D01*
X141893000Y-97890000D01*
X141897000Y-97894000D01*
X141900000Y-97898000D01*
X141903000Y-97903000D01*
X141906000Y-97907000D01*
X141908000Y-97912000D01*
X141910000Y-97916000D01*
X141912000Y-97921000D01*
X141914000Y-97926000D01*
X141916000Y-97931000D01*
X141917000Y-97936000D01*
X141918000Y-97941000D01*
X141918000Y-97947000D01*
X141919000Y-97952000D01*
X141919000Y-97957000D01*
X141919000Y-98457000D01*
X141919000Y-98462000D01*
X141918000Y-98467000D01*
X141918000Y-98473000D01*
X141917000Y-98478000D01*
X141916000Y-98483000D01*
X141914000Y-98488000D01*
X141912000Y-98493000D01*
X141910000Y-98498000D01*
X141908000Y-98502000D01*
X141906000Y-98507000D01*
X141903000Y-98511000D01*
X141900000Y-98516000D01*
X141897000Y-98520000D01*
X141893000Y-98524000D01*
X141890000Y-98528000D01*
X141886000Y-98531000D01*
X141882000Y-98535000D01*
X141878000Y-98538000D01*
X141873000Y-98541000D01*
X141869000Y-98544000D01*
X141864000Y-98546000D01*
X141860000Y-98548000D01*
X141855000Y-98550000D01*
X141850000Y-98552000D01*
X141845000Y-98554000D01*
X141840000Y-98555000D01*
X141835000Y-98556000D01*
X141829000Y-98556000D01*
X141824000Y-98557000D01*
X141819000Y-98557000D01*
X141669000Y-98557000D01*
X141664000Y-98557000D01*
X141659000Y-98556000D01*
X141653000Y-98556000D01*
X141648000Y-98555000D01*
X141643000Y-98554000D01*
X141638000Y-98552000D01*
X141633000Y-98550000D01*
X141628000Y-98548000D01*
X141624000Y-98546000D01*
X141619000Y-98544000D01*
X141615000Y-98541000D01*
X141610000Y-98538000D01*
X141606000Y-98535000D01*
X141602000Y-98531000D01*
X141598000Y-98528000D01*
X141595000Y-98524000D01*
X141591000Y-98520000D01*
X141588000Y-98516000D01*
X141585000Y-98511000D01*
X141582000Y-98507000D01*
X141580000Y-98502000D01*
X141578000Y-98498000D01*
X141576000Y-98493000D01*
X141574000Y-98488000D01*
X141572000Y-98483000D01*
X141571000Y-98478000D01*
X141570000Y-98473000D01*
X141570000Y-98467000D01*
X141569000Y-98462000D01*
X141569000Y-98457000D01*
X141569000Y-97957000D01*
X141569000Y-97952000D01*
X141570000Y-97947000D01*
X141570000Y-97941000D01*
X141571000Y-97936000D01*
X141572000Y-97931000D01*
X141574000Y-97926000D01*
X141576000Y-97921000D01*
X141578000Y-97916000D01*
X141580000Y-97912000D01*
X141582000Y-97907000D01*
X141585000Y-97903000D01*
X141588000Y-97898000D01*
X141591000Y-97894000D01*
X141595000Y-97890000D01*
X141598000Y-97886000D01*
X141602000Y-97883000D01*
X141606000Y-97879000D01*
X141610000Y-97876000D01*
X141615000Y-97873000D01*
X141619000Y-97870000D01*
X141624000Y-97868000D01*
X141628000Y-97866000D01*
X141633000Y-97864000D01*
X141638000Y-97862000D01*
X141643000Y-97860000D01*
X141648000Y-97859000D01*
X141653000Y-97858000D01*
X141659000Y-97858000D01*
X141664000Y-97857000D01*
X141669000Y-97857000D01*
X141819000Y-97857000D01*
X141824000Y-97857000D01*
X141829000Y-97858000D01*
G37*
X142329000Y-95058000D02*
X142335000Y-95058000D01*
X142340000Y-95059000D01*
X142345000Y-95060000D01*
X142350000Y-95062000D01*
X142355000Y-95064000D01*
X142360000Y-95066000D01*
X142364000Y-95068000D01*
X142369000Y-95070000D01*
X142373000Y-95073000D01*
X142378000Y-95076000D01*
X142382000Y-95079000D01*
X142386000Y-95083000D01*
X142390000Y-95086000D01*
X142393000Y-95090000D01*
X142397000Y-95094000D01*
X142400000Y-95098000D01*
X142403000Y-95103000D01*
X142406000Y-95107000D01*
X142408000Y-95112000D01*
X142410000Y-95116000D01*
X142412000Y-95121000D01*
X142414000Y-95126000D01*
X142416000Y-95131000D01*
X142417000Y-95136000D01*
X142418000Y-95141000D01*
X142418000Y-95147000D01*
X142419000Y-95152000D01*
X142419000Y-95157000D01*
X142419000Y-95657000D01*
X142419000Y-95662000D01*
X142418000Y-95667000D01*
X142418000Y-95673000D01*
X142417000Y-95678000D01*
X142416000Y-95683000D01*
X142414000Y-95688000D01*
X142412000Y-95693000D01*
X142410000Y-95698000D01*
X142408000Y-95702000D01*
X142406000Y-95707000D01*
X142403000Y-95711000D01*
X142400000Y-95716000D01*
X142397000Y-95720000D01*
X142393000Y-95724000D01*
X142390000Y-95728000D01*
X142386000Y-95731000D01*
X142382000Y-95735000D01*
X142378000Y-95738000D01*
X142373000Y-95741000D01*
X142369000Y-95744000D01*
X142364000Y-95746000D01*
X142360000Y-95748000D01*
X142355000Y-95750000D01*
X142350000Y-95752000D01*
X142345000Y-95754000D01*
X142340000Y-95755000D01*
X142335000Y-95756000D01*
X142329000Y-95756000D01*
X142324000Y-95757000D01*
X142319000Y-95757000D01*
X142169000Y-95757000D01*
X142164000Y-95757000D01*
X142159000Y-95756000D01*
X142153000Y-95756000D01*
X142148000Y-95755000D01*
X142143000Y-95754000D01*
X142138000Y-95752000D01*
X142133000Y-95750000D01*
X142128000Y-95748000D01*
X142124000Y-95746000D01*
X142119000Y-95744000D01*
X142115000Y-95741000D01*
X142110000Y-95738000D01*
X142106000Y-95735000D01*
X142102000Y-95731000D01*
X142098000Y-95728000D01*
X142095000Y-95724000D01*
X142091000Y-95720000D01*
X142088000Y-95716000D01*
X142085000Y-95711000D01*
X142082000Y-95707000D01*
X142080000Y-95702000D01*
X142078000Y-95698000D01*
X142076000Y-95693000D01*
X142074000Y-95688000D01*
X142072000Y-95683000D01*
X142071000Y-95678000D01*
X142070000Y-95673000D01*
X142070000Y-95667000D01*
X142069000Y-95662000D01*
X142069000Y-95657000D01*
X142069000Y-95157000D01*
X142069000Y-95152000D01*
X142070000Y-95147000D01*
X142070000Y-95141000D01*
X142071000Y-95136000D01*
X142072000Y-95131000D01*
X142074000Y-95126000D01*
X142076000Y-95121000D01*
X142078000Y-95116000D01*
X142080000Y-95112000D01*
X142082000Y-95107000D01*
X142085000Y-95103000D01*
X142088000Y-95098000D01*
X142091000Y-95094000D01*
X142095000Y-95090000D01*
X142098000Y-95086000D01*
X142102000Y-95083000D01*
X142106000Y-95079000D01*
X142110000Y-95076000D01*
X142115000Y-95073000D01*
X142119000Y-95070000D01*
X142124000Y-95068000D01*
X142128000Y-95066000D01*
X142133000Y-95064000D01*
X142138000Y-95062000D01*
X142143000Y-95060000D01*
X142148000Y-95059000D01*
X142153000Y-95058000D01*
X142159000Y-95058000D01*
X142164000Y-95057000D01*
X142169000Y-95057000D01*
X142319000Y-95057000D01*
X142324000Y-95057000D01*
X142329000Y-95058000D01*
G36*
X142329000Y-95058000D02*
G01*
X142335000Y-95058000D01*
X142340000Y-95059000D01*
X142345000Y-95060000D01*
X142350000Y-95062000D01*
X142355000Y-95064000D01*
X142360000Y-95066000D01*
X142364000Y-95068000D01*
X142369000Y-95070000D01*
X142373000Y-95073000D01*
X142378000Y-95076000D01*
X142382000Y-95079000D01*
X142386000Y-95083000D01*
X142390000Y-95086000D01*
X142393000Y-95090000D01*
X142397000Y-95094000D01*
X142400000Y-95098000D01*
X142403000Y-95103000D01*
X142406000Y-95107000D01*
X142408000Y-95112000D01*
X142410000Y-95116000D01*
X142412000Y-95121000D01*
X142414000Y-95126000D01*
X142416000Y-95131000D01*
X142417000Y-95136000D01*
X142418000Y-95141000D01*
X142418000Y-95147000D01*
X142419000Y-95152000D01*
X142419000Y-95157000D01*
X142419000Y-95657000D01*
X142419000Y-95662000D01*
X142418000Y-95667000D01*
X142418000Y-95673000D01*
X142417000Y-95678000D01*
X142416000Y-95683000D01*
X142414000Y-95688000D01*
X142412000Y-95693000D01*
X142410000Y-95698000D01*
X142408000Y-95702000D01*
X142406000Y-95707000D01*
X142403000Y-95711000D01*
X142400000Y-95716000D01*
X142397000Y-95720000D01*
X142393000Y-95724000D01*
X142390000Y-95728000D01*
X142386000Y-95731000D01*
X142382000Y-95735000D01*
X142378000Y-95738000D01*
X142373000Y-95741000D01*
X142369000Y-95744000D01*
X142364000Y-95746000D01*
X142360000Y-95748000D01*
X142355000Y-95750000D01*
X142350000Y-95752000D01*
X142345000Y-95754000D01*
X142340000Y-95755000D01*
X142335000Y-95756000D01*
X142329000Y-95756000D01*
X142324000Y-95757000D01*
X142319000Y-95757000D01*
X142169000Y-95757000D01*
X142164000Y-95757000D01*
X142159000Y-95756000D01*
X142153000Y-95756000D01*
X142148000Y-95755000D01*
X142143000Y-95754000D01*
X142138000Y-95752000D01*
X142133000Y-95750000D01*
X142128000Y-95748000D01*
X142124000Y-95746000D01*
X142119000Y-95744000D01*
X142115000Y-95741000D01*
X142110000Y-95738000D01*
X142106000Y-95735000D01*
X142102000Y-95731000D01*
X142098000Y-95728000D01*
X142095000Y-95724000D01*
X142091000Y-95720000D01*
X142088000Y-95716000D01*
X142085000Y-95711000D01*
X142082000Y-95707000D01*
X142080000Y-95702000D01*
X142078000Y-95698000D01*
X142076000Y-95693000D01*
X142074000Y-95688000D01*
X142072000Y-95683000D01*
X142071000Y-95678000D01*
X142070000Y-95673000D01*
X142070000Y-95667000D01*
X142069000Y-95662000D01*
X142069000Y-95657000D01*
X142069000Y-95157000D01*
X142069000Y-95152000D01*
X142070000Y-95147000D01*
X142070000Y-95141000D01*
X142071000Y-95136000D01*
X142072000Y-95131000D01*
X142074000Y-95126000D01*
X142076000Y-95121000D01*
X142078000Y-95116000D01*
X142080000Y-95112000D01*
X142082000Y-95107000D01*
X142085000Y-95103000D01*
X142088000Y-95098000D01*
X142091000Y-95094000D01*
X142095000Y-95090000D01*
X142098000Y-95086000D01*
X142102000Y-95083000D01*
X142106000Y-95079000D01*
X142110000Y-95076000D01*
X142115000Y-95073000D01*
X142119000Y-95070000D01*
X142124000Y-95068000D01*
X142128000Y-95066000D01*
X142133000Y-95064000D01*
X142138000Y-95062000D01*
X142143000Y-95060000D01*
X142148000Y-95059000D01*
X142153000Y-95058000D01*
X142159000Y-95058000D01*
X142164000Y-95057000D01*
X142169000Y-95057000D01*
X142319000Y-95057000D01*
X142324000Y-95057000D01*
X142329000Y-95058000D01*
G37*
X142329000Y-97858000D02*
X142335000Y-97858000D01*
X142340000Y-97859000D01*
X142345000Y-97860000D01*
X142350000Y-97862000D01*
X142355000Y-97864000D01*
X142360000Y-97866000D01*
X142364000Y-97868000D01*
X142369000Y-97870000D01*
X142373000Y-97873000D01*
X142378000Y-97876000D01*
X142382000Y-97879000D01*
X142386000Y-97883000D01*
X142390000Y-97886000D01*
X142393000Y-97890000D01*
X142397000Y-97894000D01*
X142400000Y-97898000D01*
X142403000Y-97903000D01*
X142406000Y-97907000D01*
X142408000Y-97912000D01*
X142410000Y-97916000D01*
X142412000Y-97921000D01*
X142414000Y-97926000D01*
X142416000Y-97931000D01*
X142417000Y-97936000D01*
X142418000Y-97941000D01*
X142418000Y-97947000D01*
X142419000Y-97952000D01*
X142419000Y-97957000D01*
X142419000Y-98457000D01*
X142419000Y-98462000D01*
X142418000Y-98467000D01*
X142418000Y-98473000D01*
X142417000Y-98478000D01*
X142416000Y-98483000D01*
X142414000Y-98488000D01*
X142412000Y-98493000D01*
X142410000Y-98498000D01*
X142408000Y-98502000D01*
X142406000Y-98507000D01*
X142403000Y-98511000D01*
X142400000Y-98516000D01*
X142397000Y-98520000D01*
X142393000Y-98524000D01*
X142390000Y-98528000D01*
X142386000Y-98531000D01*
X142382000Y-98535000D01*
X142378000Y-98538000D01*
X142373000Y-98541000D01*
X142369000Y-98544000D01*
X142364000Y-98546000D01*
X142360000Y-98548000D01*
X142355000Y-98550000D01*
X142350000Y-98552000D01*
X142345000Y-98554000D01*
X142340000Y-98555000D01*
X142335000Y-98556000D01*
X142329000Y-98556000D01*
X142324000Y-98557000D01*
X142319000Y-98557000D01*
X142169000Y-98557000D01*
X142164000Y-98557000D01*
X142159000Y-98556000D01*
X142153000Y-98556000D01*
X142148000Y-98555000D01*
X142143000Y-98554000D01*
X142138000Y-98552000D01*
X142133000Y-98550000D01*
X142128000Y-98548000D01*
X142124000Y-98546000D01*
X142119000Y-98544000D01*
X142115000Y-98541000D01*
X142110000Y-98538000D01*
X142106000Y-98535000D01*
X142102000Y-98531000D01*
X142098000Y-98528000D01*
X142095000Y-98524000D01*
X142091000Y-98520000D01*
X142088000Y-98516000D01*
X142085000Y-98511000D01*
X142082000Y-98507000D01*
X142080000Y-98502000D01*
X142078000Y-98498000D01*
X142076000Y-98493000D01*
X142074000Y-98488000D01*
X142072000Y-98483000D01*
X142071000Y-98478000D01*
X142070000Y-98473000D01*
X142070000Y-98467000D01*
X142069000Y-98462000D01*
X142069000Y-98457000D01*
X142069000Y-97957000D01*
X142069000Y-97952000D01*
X142070000Y-97947000D01*
X142070000Y-97941000D01*
X142071000Y-97936000D01*
X142072000Y-97931000D01*
X142074000Y-97926000D01*
X142076000Y-97921000D01*
X142078000Y-97916000D01*
X142080000Y-97912000D01*
X142082000Y-97907000D01*
X142085000Y-97903000D01*
X142088000Y-97898000D01*
X142091000Y-97894000D01*
X142095000Y-97890000D01*
X142098000Y-97886000D01*
X142102000Y-97883000D01*
X142106000Y-97879000D01*
X142110000Y-97876000D01*
X142115000Y-97873000D01*
X142119000Y-97870000D01*
X142124000Y-97868000D01*
X142128000Y-97866000D01*
X142133000Y-97864000D01*
X142138000Y-97862000D01*
X142143000Y-97860000D01*
X142148000Y-97859000D01*
X142153000Y-97858000D01*
X142159000Y-97858000D01*
X142164000Y-97857000D01*
X142169000Y-97857000D01*
X142319000Y-97857000D01*
X142324000Y-97857000D01*
X142329000Y-97858000D01*
G36*
X142329000Y-97858000D02*
G01*
X142335000Y-97858000D01*
X142340000Y-97859000D01*
X142345000Y-97860000D01*
X142350000Y-97862000D01*
X142355000Y-97864000D01*
X142360000Y-97866000D01*
X142364000Y-97868000D01*
X142369000Y-97870000D01*
X142373000Y-97873000D01*
X142378000Y-97876000D01*
X142382000Y-97879000D01*
X142386000Y-97883000D01*
X142390000Y-97886000D01*
X142393000Y-97890000D01*
X142397000Y-97894000D01*
X142400000Y-97898000D01*
X142403000Y-97903000D01*
X142406000Y-97907000D01*
X142408000Y-97912000D01*
X142410000Y-97916000D01*
X142412000Y-97921000D01*
X142414000Y-97926000D01*
X142416000Y-97931000D01*
X142417000Y-97936000D01*
X142418000Y-97941000D01*
X142418000Y-97947000D01*
X142419000Y-97952000D01*
X142419000Y-97957000D01*
X142419000Y-98457000D01*
X142419000Y-98462000D01*
X142418000Y-98467000D01*
X142418000Y-98473000D01*
X142417000Y-98478000D01*
X142416000Y-98483000D01*
X142414000Y-98488000D01*
X142412000Y-98493000D01*
X142410000Y-98498000D01*
X142408000Y-98502000D01*
X142406000Y-98507000D01*
X142403000Y-98511000D01*
X142400000Y-98516000D01*
X142397000Y-98520000D01*
X142393000Y-98524000D01*
X142390000Y-98528000D01*
X142386000Y-98531000D01*
X142382000Y-98535000D01*
X142378000Y-98538000D01*
X142373000Y-98541000D01*
X142369000Y-98544000D01*
X142364000Y-98546000D01*
X142360000Y-98548000D01*
X142355000Y-98550000D01*
X142350000Y-98552000D01*
X142345000Y-98554000D01*
X142340000Y-98555000D01*
X142335000Y-98556000D01*
X142329000Y-98556000D01*
X142324000Y-98557000D01*
X142319000Y-98557000D01*
X142169000Y-98557000D01*
X142164000Y-98557000D01*
X142159000Y-98556000D01*
X142153000Y-98556000D01*
X142148000Y-98555000D01*
X142143000Y-98554000D01*
X142138000Y-98552000D01*
X142133000Y-98550000D01*
X142128000Y-98548000D01*
X142124000Y-98546000D01*
X142119000Y-98544000D01*
X142115000Y-98541000D01*
X142110000Y-98538000D01*
X142106000Y-98535000D01*
X142102000Y-98531000D01*
X142098000Y-98528000D01*
X142095000Y-98524000D01*
X142091000Y-98520000D01*
X142088000Y-98516000D01*
X142085000Y-98511000D01*
X142082000Y-98507000D01*
X142080000Y-98502000D01*
X142078000Y-98498000D01*
X142076000Y-98493000D01*
X142074000Y-98488000D01*
X142072000Y-98483000D01*
X142071000Y-98478000D01*
X142070000Y-98473000D01*
X142070000Y-98467000D01*
X142069000Y-98462000D01*
X142069000Y-98457000D01*
X142069000Y-97957000D01*
X142069000Y-97952000D01*
X142070000Y-97947000D01*
X142070000Y-97941000D01*
X142071000Y-97936000D01*
X142072000Y-97931000D01*
X142074000Y-97926000D01*
X142076000Y-97921000D01*
X142078000Y-97916000D01*
X142080000Y-97912000D01*
X142082000Y-97907000D01*
X142085000Y-97903000D01*
X142088000Y-97898000D01*
X142091000Y-97894000D01*
X142095000Y-97890000D01*
X142098000Y-97886000D01*
X142102000Y-97883000D01*
X142106000Y-97879000D01*
X142110000Y-97876000D01*
X142115000Y-97873000D01*
X142119000Y-97870000D01*
X142124000Y-97868000D01*
X142128000Y-97866000D01*
X142133000Y-97864000D01*
X142138000Y-97862000D01*
X142143000Y-97860000D01*
X142148000Y-97859000D01*
X142153000Y-97858000D01*
X142159000Y-97858000D01*
X142164000Y-97857000D01*
X142169000Y-97857000D01*
X142319000Y-97857000D01*
X142324000Y-97857000D01*
X142329000Y-97858000D01*
G37*
X142154000Y-96133000D02*
X142160000Y-96133000D01*
X142165000Y-96134000D01*
X142170000Y-96135000D01*
X142175000Y-96137000D01*
X142180000Y-96139000D01*
X142185000Y-96141000D01*
X142189000Y-96143000D01*
X142194000Y-96145000D01*
X142198000Y-96148000D01*
X142203000Y-96151000D01*
X142207000Y-96154000D01*
X142211000Y-96158000D01*
X142215000Y-96161000D01*
X142218000Y-96165000D01*
X142222000Y-96169000D01*
X142225000Y-96173000D01*
X142228000Y-96178000D01*
X142231000Y-96182000D01*
X142233000Y-96187000D01*
X142235000Y-96191000D01*
X142237000Y-96196000D01*
X142239000Y-96201000D01*
X142241000Y-96206000D01*
X142242000Y-96211000D01*
X142243000Y-96216000D01*
X142243000Y-96222000D01*
X142244000Y-96227000D01*
X142244000Y-96232000D01*
X142244000Y-96382000D01*
X142244000Y-96387000D01*
X142243000Y-96392000D01*
X142243000Y-96398000D01*
X142242000Y-96403000D01*
X142241000Y-96408000D01*
X142239000Y-96413000D01*
X142237000Y-96418000D01*
X142235000Y-96423000D01*
X142233000Y-96427000D01*
X142231000Y-96432000D01*
X142228000Y-96436000D01*
X142225000Y-96441000D01*
X142222000Y-96445000D01*
X142218000Y-96449000D01*
X142215000Y-96453000D01*
X142211000Y-96456000D01*
X142207000Y-96460000D01*
X142203000Y-96463000D01*
X142198000Y-96466000D01*
X142194000Y-96469000D01*
X142189000Y-96471000D01*
X142185000Y-96473000D01*
X142180000Y-96475000D01*
X142175000Y-96477000D01*
X142170000Y-96479000D01*
X142165000Y-96480000D01*
X142160000Y-96481000D01*
X142154000Y-96481000D01*
X142149000Y-96482000D01*
X142144000Y-96482000D01*
X140844000Y-96482000D01*
X140839000Y-96482000D01*
X140834000Y-96481000D01*
X140828000Y-96481000D01*
X140823000Y-96480000D01*
X140818000Y-96479000D01*
X140813000Y-96477000D01*
X140808000Y-96475000D01*
X140803000Y-96473000D01*
X140799000Y-96471000D01*
X140794000Y-96469000D01*
X140790000Y-96466000D01*
X140785000Y-96463000D01*
X140781000Y-96460000D01*
X140777000Y-96456000D01*
X140773000Y-96453000D01*
X140770000Y-96449000D01*
X140766000Y-96445000D01*
X140763000Y-96441000D01*
X140760000Y-96436000D01*
X140757000Y-96432000D01*
X140755000Y-96427000D01*
X140753000Y-96423000D01*
X140751000Y-96418000D01*
X140749000Y-96413000D01*
X140747000Y-96408000D01*
X140746000Y-96403000D01*
X140745000Y-96398000D01*
X140745000Y-96392000D01*
X140744000Y-96387000D01*
X140744000Y-96382000D01*
X140744000Y-96232000D01*
X140744000Y-96227000D01*
X140745000Y-96222000D01*
X140745000Y-96216000D01*
X140746000Y-96211000D01*
X140747000Y-96206000D01*
X140749000Y-96201000D01*
X140751000Y-96196000D01*
X140753000Y-96191000D01*
X140755000Y-96187000D01*
X140757000Y-96182000D01*
X140760000Y-96178000D01*
X140763000Y-96173000D01*
X140766000Y-96169000D01*
X140770000Y-96165000D01*
X140773000Y-96161000D01*
X140777000Y-96158000D01*
X140781000Y-96154000D01*
X140785000Y-96151000D01*
X140790000Y-96148000D01*
X140794000Y-96145000D01*
X140799000Y-96143000D01*
X140803000Y-96141000D01*
X140808000Y-96139000D01*
X140813000Y-96137000D01*
X140818000Y-96135000D01*
X140823000Y-96134000D01*
X140828000Y-96133000D01*
X140834000Y-96133000D01*
X140839000Y-96132000D01*
X140844000Y-96132000D01*
X142144000Y-96132000D01*
X142149000Y-96132000D01*
X142154000Y-96133000D01*
G36*
X142154000Y-96133000D02*
G01*
X142160000Y-96133000D01*
X142165000Y-96134000D01*
X142170000Y-96135000D01*
X142175000Y-96137000D01*
X142180000Y-96139000D01*
X142185000Y-96141000D01*
X142189000Y-96143000D01*
X142194000Y-96145000D01*
X142198000Y-96148000D01*
X142203000Y-96151000D01*
X142207000Y-96154000D01*
X142211000Y-96158000D01*
X142215000Y-96161000D01*
X142218000Y-96165000D01*
X142222000Y-96169000D01*
X142225000Y-96173000D01*
X142228000Y-96178000D01*
X142231000Y-96182000D01*
X142233000Y-96187000D01*
X142235000Y-96191000D01*
X142237000Y-96196000D01*
X142239000Y-96201000D01*
X142241000Y-96206000D01*
X142242000Y-96211000D01*
X142243000Y-96216000D01*
X142243000Y-96222000D01*
X142244000Y-96227000D01*
X142244000Y-96232000D01*
X142244000Y-96382000D01*
X142244000Y-96387000D01*
X142243000Y-96392000D01*
X142243000Y-96398000D01*
X142242000Y-96403000D01*
X142241000Y-96408000D01*
X142239000Y-96413000D01*
X142237000Y-96418000D01*
X142235000Y-96423000D01*
X142233000Y-96427000D01*
X142231000Y-96432000D01*
X142228000Y-96436000D01*
X142225000Y-96441000D01*
X142222000Y-96445000D01*
X142218000Y-96449000D01*
X142215000Y-96453000D01*
X142211000Y-96456000D01*
X142207000Y-96460000D01*
X142203000Y-96463000D01*
X142198000Y-96466000D01*
X142194000Y-96469000D01*
X142189000Y-96471000D01*
X142185000Y-96473000D01*
X142180000Y-96475000D01*
X142175000Y-96477000D01*
X142170000Y-96479000D01*
X142165000Y-96480000D01*
X142160000Y-96481000D01*
X142154000Y-96481000D01*
X142149000Y-96482000D01*
X142144000Y-96482000D01*
X140844000Y-96482000D01*
X140839000Y-96482000D01*
X140834000Y-96481000D01*
X140828000Y-96481000D01*
X140823000Y-96480000D01*
X140818000Y-96479000D01*
X140813000Y-96477000D01*
X140808000Y-96475000D01*
X140803000Y-96473000D01*
X140799000Y-96471000D01*
X140794000Y-96469000D01*
X140790000Y-96466000D01*
X140785000Y-96463000D01*
X140781000Y-96460000D01*
X140777000Y-96456000D01*
X140773000Y-96453000D01*
X140770000Y-96449000D01*
X140766000Y-96445000D01*
X140763000Y-96441000D01*
X140760000Y-96436000D01*
X140757000Y-96432000D01*
X140755000Y-96427000D01*
X140753000Y-96423000D01*
X140751000Y-96418000D01*
X140749000Y-96413000D01*
X140747000Y-96408000D01*
X140746000Y-96403000D01*
X140745000Y-96398000D01*
X140745000Y-96392000D01*
X140744000Y-96387000D01*
X140744000Y-96382000D01*
X140744000Y-96232000D01*
X140744000Y-96227000D01*
X140745000Y-96222000D01*
X140745000Y-96216000D01*
X140746000Y-96211000D01*
X140747000Y-96206000D01*
X140749000Y-96201000D01*
X140751000Y-96196000D01*
X140753000Y-96191000D01*
X140755000Y-96187000D01*
X140757000Y-96182000D01*
X140760000Y-96178000D01*
X140763000Y-96173000D01*
X140766000Y-96169000D01*
X140770000Y-96165000D01*
X140773000Y-96161000D01*
X140777000Y-96158000D01*
X140781000Y-96154000D01*
X140785000Y-96151000D01*
X140790000Y-96148000D01*
X140794000Y-96145000D01*
X140799000Y-96143000D01*
X140803000Y-96141000D01*
X140808000Y-96139000D01*
X140813000Y-96137000D01*
X140818000Y-96135000D01*
X140823000Y-96134000D01*
X140828000Y-96133000D01*
X140834000Y-96133000D01*
X140839000Y-96132000D01*
X140844000Y-96132000D01*
X142144000Y-96132000D01*
X142149000Y-96132000D01*
X142154000Y-96133000D01*
G37*
X142154000Y-97133000D02*
X142160000Y-97133000D01*
X142165000Y-97134000D01*
X142170000Y-97135000D01*
X142175000Y-97137000D01*
X142180000Y-97139000D01*
X142185000Y-97141000D01*
X142189000Y-97143000D01*
X142194000Y-97145000D01*
X142198000Y-97148000D01*
X142203000Y-97151000D01*
X142207000Y-97154000D01*
X142211000Y-97158000D01*
X142215000Y-97161000D01*
X142218000Y-97165000D01*
X142222000Y-97169000D01*
X142225000Y-97173000D01*
X142228000Y-97178000D01*
X142231000Y-97182000D01*
X142233000Y-97187000D01*
X142235000Y-97191000D01*
X142237000Y-97196000D01*
X142239000Y-97201000D01*
X142241000Y-97206000D01*
X142242000Y-97211000D01*
X142243000Y-97216000D01*
X142243000Y-97222000D01*
X142244000Y-97227000D01*
X142244000Y-97232000D01*
X142244000Y-97382000D01*
X142244000Y-97387000D01*
X142243000Y-97392000D01*
X142243000Y-97398000D01*
X142242000Y-97403000D01*
X142241000Y-97408000D01*
X142239000Y-97413000D01*
X142237000Y-97418000D01*
X142235000Y-97423000D01*
X142233000Y-97427000D01*
X142231000Y-97432000D01*
X142228000Y-97436000D01*
X142225000Y-97441000D01*
X142222000Y-97445000D01*
X142218000Y-97449000D01*
X142215000Y-97453000D01*
X142211000Y-97456000D01*
X142207000Y-97460000D01*
X142203000Y-97463000D01*
X142198000Y-97466000D01*
X142194000Y-97469000D01*
X142189000Y-97471000D01*
X142185000Y-97473000D01*
X142180000Y-97475000D01*
X142175000Y-97477000D01*
X142170000Y-97479000D01*
X142165000Y-97480000D01*
X142160000Y-97481000D01*
X142154000Y-97481000D01*
X142149000Y-97482000D01*
X142144000Y-97482000D01*
X140844000Y-97482000D01*
X140839000Y-97482000D01*
X140834000Y-97481000D01*
X140828000Y-97481000D01*
X140823000Y-97480000D01*
X140818000Y-97479000D01*
X140813000Y-97477000D01*
X140808000Y-97475000D01*
X140803000Y-97473000D01*
X140799000Y-97471000D01*
X140794000Y-97469000D01*
X140790000Y-97466000D01*
X140785000Y-97463000D01*
X140781000Y-97460000D01*
X140777000Y-97456000D01*
X140773000Y-97453000D01*
X140770000Y-97449000D01*
X140766000Y-97445000D01*
X140763000Y-97441000D01*
X140760000Y-97436000D01*
X140757000Y-97432000D01*
X140755000Y-97427000D01*
X140753000Y-97423000D01*
X140751000Y-97418000D01*
X140749000Y-97413000D01*
X140747000Y-97408000D01*
X140746000Y-97403000D01*
X140745000Y-97398000D01*
X140745000Y-97392000D01*
X140744000Y-97387000D01*
X140744000Y-97382000D01*
X140744000Y-97232000D01*
X140744000Y-97227000D01*
X140745000Y-97222000D01*
X140745000Y-97216000D01*
X140746000Y-97211000D01*
X140747000Y-97206000D01*
X140749000Y-97201000D01*
X140751000Y-97196000D01*
X140753000Y-97191000D01*
X140755000Y-97187000D01*
X140757000Y-97182000D01*
X140760000Y-97178000D01*
X140763000Y-97173000D01*
X140766000Y-97169000D01*
X140770000Y-97165000D01*
X140773000Y-97161000D01*
X140777000Y-97158000D01*
X140781000Y-97154000D01*
X140785000Y-97151000D01*
X140790000Y-97148000D01*
X140794000Y-97145000D01*
X140799000Y-97143000D01*
X140803000Y-97141000D01*
X140808000Y-97139000D01*
X140813000Y-97137000D01*
X140818000Y-97135000D01*
X140823000Y-97134000D01*
X140828000Y-97133000D01*
X140834000Y-97133000D01*
X140839000Y-97132000D01*
X140844000Y-97132000D01*
X142144000Y-97132000D01*
X142149000Y-97132000D01*
X142154000Y-97133000D01*
G36*
X142154000Y-97133000D02*
G01*
X142160000Y-97133000D01*
X142165000Y-97134000D01*
X142170000Y-97135000D01*
X142175000Y-97137000D01*
X142180000Y-97139000D01*
X142185000Y-97141000D01*
X142189000Y-97143000D01*
X142194000Y-97145000D01*
X142198000Y-97148000D01*
X142203000Y-97151000D01*
X142207000Y-97154000D01*
X142211000Y-97158000D01*
X142215000Y-97161000D01*
X142218000Y-97165000D01*
X142222000Y-97169000D01*
X142225000Y-97173000D01*
X142228000Y-97178000D01*
X142231000Y-97182000D01*
X142233000Y-97187000D01*
X142235000Y-97191000D01*
X142237000Y-97196000D01*
X142239000Y-97201000D01*
X142241000Y-97206000D01*
X142242000Y-97211000D01*
X142243000Y-97216000D01*
X142243000Y-97222000D01*
X142244000Y-97227000D01*
X142244000Y-97232000D01*
X142244000Y-97382000D01*
X142244000Y-97387000D01*
X142243000Y-97392000D01*
X142243000Y-97398000D01*
X142242000Y-97403000D01*
X142241000Y-97408000D01*
X142239000Y-97413000D01*
X142237000Y-97418000D01*
X142235000Y-97423000D01*
X142233000Y-97427000D01*
X142231000Y-97432000D01*
X142228000Y-97436000D01*
X142225000Y-97441000D01*
X142222000Y-97445000D01*
X142218000Y-97449000D01*
X142215000Y-97453000D01*
X142211000Y-97456000D01*
X142207000Y-97460000D01*
X142203000Y-97463000D01*
X142198000Y-97466000D01*
X142194000Y-97469000D01*
X142189000Y-97471000D01*
X142185000Y-97473000D01*
X142180000Y-97475000D01*
X142175000Y-97477000D01*
X142170000Y-97479000D01*
X142165000Y-97480000D01*
X142160000Y-97481000D01*
X142154000Y-97481000D01*
X142149000Y-97482000D01*
X142144000Y-97482000D01*
X140844000Y-97482000D01*
X140839000Y-97482000D01*
X140834000Y-97481000D01*
X140828000Y-97481000D01*
X140823000Y-97480000D01*
X140818000Y-97479000D01*
X140813000Y-97477000D01*
X140808000Y-97475000D01*
X140803000Y-97473000D01*
X140799000Y-97471000D01*
X140794000Y-97469000D01*
X140790000Y-97466000D01*
X140785000Y-97463000D01*
X140781000Y-97460000D01*
X140777000Y-97456000D01*
X140773000Y-97453000D01*
X140770000Y-97449000D01*
X140766000Y-97445000D01*
X140763000Y-97441000D01*
X140760000Y-97436000D01*
X140757000Y-97432000D01*
X140755000Y-97427000D01*
X140753000Y-97423000D01*
X140751000Y-97418000D01*
X140749000Y-97413000D01*
X140747000Y-97408000D01*
X140746000Y-97403000D01*
X140745000Y-97398000D01*
X140745000Y-97392000D01*
X140744000Y-97387000D01*
X140744000Y-97382000D01*
X140744000Y-97232000D01*
X140744000Y-97227000D01*
X140745000Y-97222000D01*
X140745000Y-97216000D01*
X140746000Y-97211000D01*
X140747000Y-97206000D01*
X140749000Y-97201000D01*
X140751000Y-97196000D01*
X140753000Y-97191000D01*
X140755000Y-97187000D01*
X140757000Y-97182000D01*
X140760000Y-97178000D01*
X140763000Y-97173000D01*
X140766000Y-97169000D01*
X140770000Y-97165000D01*
X140773000Y-97161000D01*
X140777000Y-97158000D01*
X140781000Y-97154000D01*
X140785000Y-97151000D01*
X140790000Y-97148000D01*
X140794000Y-97145000D01*
X140799000Y-97143000D01*
X140803000Y-97141000D01*
X140808000Y-97139000D01*
X140813000Y-97137000D01*
X140818000Y-97135000D01*
X140823000Y-97134000D01*
X140828000Y-97133000D01*
X140834000Y-97133000D01*
X140839000Y-97132000D01*
X140844000Y-97132000D01*
X142144000Y-97132000D01*
X142149000Y-97132000D01*
X142154000Y-97133000D01*
G37*
X143154000Y-96133000D02*
X143160000Y-96133000D01*
X143165000Y-96134000D01*
X143170000Y-96135000D01*
X143175000Y-96137000D01*
X143180000Y-96139000D01*
X143185000Y-96141000D01*
X143189000Y-96143000D01*
X143194000Y-96145000D01*
X143198000Y-96148000D01*
X143203000Y-96151000D01*
X143207000Y-96154000D01*
X143211000Y-96158000D01*
X143215000Y-96161000D01*
X143218000Y-96165000D01*
X143222000Y-96169000D01*
X143225000Y-96173000D01*
X143228000Y-96178000D01*
X143231000Y-96182000D01*
X143233000Y-96187000D01*
X143235000Y-96191000D01*
X143237000Y-96196000D01*
X143239000Y-96201000D01*
X143241000Y-96206000D01*
X143242000Y-96211000D01*
X143243000Y-96216000D01*
X143243000Y-96222000D01*
X143244000Y-96227000D01*
X143244000Y-96232000D01*
X143244000Y-96382000D01*
X143244000Y-96387000D01*
X143243000Y-96392000D01*
X143243000Y-96398000D01*
X143242000Y-96403000D01*
X143241000Y-96408000D01*
X143239000Y-96413000D01*
X143237000Y-96418000D01*
X143235000Y-96423000D01*
X143233000Y-96427000D01*
X143231000Y-96432000D01*
X143228000Y-96436000D01*
X143225000Y-96441000D01*
X143222000Y-96445000D01*
X143218000Y-96449000D01*
X143215000Y-96453000D01*
X143211000Y-96456000D01*
X143207000Y-96460000D01*
X143203000Y-96463000D01*
X143198000Y-96466000D01*
X143194000Y-96469000D01*
X143189000Y-96471000D01*
X143185000Y-96473000D01*
X143180000Y-96475000D01*
X143175000Y-96477000D01*
X143170000Y-96479000D01*
X143165000Y-96480000D01*
X143160000Y-96481000D01*
X143154000Y-96481000D01*
X143149000Y-96482000D01*
X143144000Y-96482000D01*
X142644000Y-96482000D01*
X142639000Y-96482000D01*
X142634000Y-96481000D01*
X142628000Y-96481000D01*
X142623000Y-96480000D01*
X142618000Y-96479000D01*
X142613000Y-96477000D01*
X142608000Y-96475000D01*
X142603000Y-96473000D01*
X142599000Y-96471000D01*
X142594000Y-96469000D01*
X142590000Y-96466000D01*
X142585000Y-96463000D01*
X142581000Y-96460000D01*
X142577000Y-96456000D01*
X142573000Y-96453000D01*
X142570000Y-96449000D01*
X142566000Y-96445000D01*
X142563000Y-96441000D01*
X142560000Y-96436000D01*
X142557000Y-96432000D01*
X142555000Y-96427000D01*
X142553000Y-96423000D01*
X142551000Y-96418000D01*
X142549000Y-96413000D01*
X142547000Y-96408000D01*
X142546000Y-96403000D01*
X142545000Y-96398000D01*
X142545000Y-96392000D01*
X142544000Y-96387000D01*
X142544000Y-96382000D01*
X142544000Y-96232000D01*
X142544000Y-96227000D01*
X142545000Y-96222000D01*
X142545000Y-96216000D01*
X142546000Y-96211000D01*
X142547000Y-96206000D01*
X142549000Y-96201000D01*
X142551000Y-96196000D01*
X142553000Y-96191000D01*
X142555000Y-96187000D01*
X142557000Y-96182000D01*
X142560000Y-96178000D01*
X142563000Y-96173000D01*
X142566000Y-96169000D01*
X142570000Y-96165000D01*
X142573000Y-96161000D01*
X142577000Y-96158000D01*
X142581000Y-96154000D01*
X142585000Y-96151000D01*
X142590000Y-96148000D01*
X142594000Y-96145000D01*
X142599000Y-96143000D01*
X142603000Y-96141000D01*
X142608000Y-96139000D01*
X142613000Y-96137000D01*
X142618000Y-96135000D01*
X142623000Y-96134000D01*
X142628000Y-96133000D01*
X142634000Y-96133000D01*
X142639000Y-96132000D01*
X142644000Y-96132000D01*
X143144000Y-96132000D01*
X143149000Y-96132000D01*
X143154000Y-96133000D01*
G36*
X143154000Y-96133000D02*
G01*
X143160000Y-96133000D01*
X143165000Y-96134000D01*
X143170000Y-96135000D01*
X143175000Y-96137000D01*
X143180000Y-96139000D01*
X143185000Y-96141000D01*
X143189000Y-96143000D01*
X143194000Y-96145000D01*
X143198000Y-96148000D01*
X143203000Y-96151000D01*
X143207000Y-96154000D01*
X143211000Y-96158000D01*
X143215000Y-96161000D01*
X143218000Y-96165000D01*
X143222000Y-96169000D01*
X143225000Y-96173000D01*
X143228000Y-96178000D01*
X143231000Y-96182000D01*
X143233000Y-96187000D01*
X143235000Y-96191000D01*
X143237000Y-96196000D01*
X143239000Y-96201000D01*
X143241000Y-96206000D01*
X143242000Y-96211000D01*
X143243000Y-96216000D01*
X143243000Y-96222000D01*
X143244000Y-96227000D01*
X143244000Y-96232000D01*
X143244000Y-96382000D01*
X143244000Y-96387000D01*
X143243000Y-96392000D01*
X143243000Y-96398000D01*
X143242000Y-96403000D01*
X143241000Y-96408000D01*
X143239000Y-96413000D01*
X143237000Y-96418000D01*
X143235000Y-96423000D01*
X143233000Y-96427000D01*
X143231000Y-96432000D01*
X143228000Y-96436000D01*
X143225000Y-96441000D01*
X143222000Y-96445000D01*
X143218000Y-96449000D01*
X143215000Y-96453000D01*
X143211000Y-96456000D01*
X143207000Y-96460000D01*
X143203000Y-96463000D01*
X143198000Y-96466000D01*
X143194000Y-96469000D01*
X143189000Y-96471000D01*
X143185000Y-96473000D01*
X143180000Y-96475000D01*
X143175000Y-96477000D01*
X143170000Y-96479000D01*
X143165000Y-96480000D01*
X143160000Y-96481000D01*
X143154000Y-96481000D01*
X143149000Y-96482000D01*
X143144000Y-96482000D01*
X142644000Y-96482000D01*
X142639000Y-96482000D01*
X142634000Y-96481000D01*
X142628000Y-96481000D01*
X142623000Y-96480000D01*
X142618000Y-96479000D01*
X142613000Y-96477000D01*
X142608000Y-96475000D01*
X142603000Y-96473000D01*
X142599000Y-96471000D01*
X142594000Y-96469000D01*
X142590000Y-96466000D01*
X142585000Y-96463000D01*
X142581000Y-96460000D01*
X142577000Y-96456000D01*
X142573000Y-96453000D01*
X142570000Y-96449000D01*
X142566000Y-96445000D01*
X142563000Y-96441000D01*
X142560000Y-96436000D01*
X142557000Y-96432000D01*
X142555000Y-96427000D01*
X142553000Y-96423000D01*
X142551000Y-96418000D01*
X142549000Y-96413000D01*
X142547000Y-96408000D01*
X142546000Y-96403000D01*
X142545000Y-96398000D01*
X142545000Y-96392000D01*
X142544000Y-96387000D01*
X142544000Y-96382000D01*
X142544000Y-96232000D01*
X142544000Y-96227000D01*
X142545000Y-96222000D01*
X142545000Y-96216000D01*
X142546000Y-96211000D01*
X142547000Y-96206000D01*
X142549000Y-96201000D01*
X142551000Y-96196000D01*
X142553000Y-96191000D01*
X142555000Y-96187000D01*
X142557000Y-96182000D01*
X142560000Y-96178000D01*
X142563000Y-96173000D01*
X142566000Y-96169000D01*
X142570000Y-96165000D01*
X142573000Y-96161000D01*
X142577000Y-96158000D01*
X142581000Y-96154000D01*
X142585000Y-96151000D01*
X142590000Y-96148000D01*
X142594000Y-96145000D01*
X142599000Y-96143000D01*
X142603000Y-96141000D01*
X142608000Y-96139000D01*
X142613000Y-96137000D01*
X142618000Y-96135000D01*
X142623000Y-96134000D01*
X142628000Y-96133000D01*
X142634000Y-96133000D01*
X142639000Y-96132000D01*
X142644000Y-96132000D01*
X143144000Y-96132000D01*
X143149000Y-96132000D01*
X143154000Y-96133000D01*
G37*
X142829000Y-95058000D02*
X142835000Y-95058000D01*
X142840000Y-95059000D01*
X142845000Y-95060000D01*
X142850000Y-95062000D01*
X142855000Y-95064000D01*
X142860000Y-95066000D01*
X142864000Y-95068000D01*
X142869000Y-95070000D01*
X142873000Y-95073000D01*
X142878000Y-95076000D01*
X142882000Y-95079000D01*
X142886000Y-95083000D01*
X142890000Y-95086000D01*
X142893000Y-95090000D01*
X142897000Y-95094000D01*
X142900000Y-95098000D01*
X142903000Y-95103000D01*
X142906000Y-95107000D01*
X142908000Y-95112000D01*
X142910000Y-95116000D01*
X142912000Y-95121000D01*
X142914000Y-95126000D01*
X142916000Y-95131000D01*
X142917000Y-95136000D01*
X142918000Y-95141000D01*
X142918000Y-95147000D01*
X142919000Y-95152000D01*
X142919000Y-95157000D01*
X142919000Y-95657000D01*
X142919000Y-95662000D01*
X142918000Y-95667000D01*
X142918000Y-95673000D01*
X142917000Y-95678000D01*
X142916000Y-95683000D01*
X142914000Y-95688000D01*
X142912000Y-95693000D01*
X142910000Y-95698000D01*
X142908000Y-95702000D01*
X142906000Y-95707000D01*
X142903000Y-95711000D01*
X142900000Y-95716000D01*
X142897000Y-95720000D01*
X142893000Y-95724000D01*
X142890000Y-95728000D01*
X142886000Y-95731000D01*
X142882000Y-95735000D01*
X142878000Y-95738000D01*
X142873000Y-95741000D01*
X142869000Y-95744000D01*
X142864000Y-95746000D01*
X142860000Y-95748000D01*
X142855000Y-95750000D01*
X142850000Y-95752000D01*
X142845000Y-95754000D01*
X142840000Y-95755000D01*
X142835000Y-95756000D01*
X142829000Y-95756000D01*
X142824000Y-95757000D01*
X142819000Y-95757000D01*
X142669000Y-95757000D01*
X142664000Y-95757000D01*
X142659000Y-95756000D01*
X142653000Y-95756000D01*
X142648000Y-95755000D01*
X142643000Y-95754000D01*
X142638000Y-95752000D01*
X142633000Y-95750000D01*
X142628000Y-95748000D01*
X142624000Y-95746000D01*
X142619000Y-95744000D01*
X142615000Y-95741000D01*
X142610000Y-95738000D01*
X142606000Y-95735000D01*
X142602000Y-95731000D01*
X142598000Y-95728000D01*
X142595000Y-95724000D01*
X142591000Y-95720000D01*
X142588000Y-95716000D01*
X142585000Y-95711000D01*
X142582000Y-95707000D01*
X142580000Y-95702000D01*
X142578000Y-95698000D01*
X142576000Y-95693000D01*
X142574000Y-95688000D01*
X142572000Y-95683000D01*
X142571000Y-95678000D01*
X142570000Y-95673000D01*
X142570000Y-95667000D01*
X142569000Y-95662000D01*
X142569000Y-95657000D01*
X142569000Y-95157000D01*
X142569000Y-95152000D01*
X142570000Y-95147000D01*
X142570000Y-95141000D01*
X142571000Y-95136000D01*
X142572000Y-95131000D01*
X142574000Y-95126000D01*
X142576000Y-95121000D01*
X142578000Y-95116000D01*
X142580000Y-95112000D01*
X142582000Y-95107000D01*
X142585000Y-95103000D01*
X142588000Y-95098000D01*
X142591000Y-95094000D01*
X142595000Y-95090000D01*
X142598000Y-95086000D01*
X142602000Y-95083000D01*
X142606000Y-95079000D01*
X142610000Y-95076000D01*
X142615000Y-95073000D01*
X142619000Y-95070000D01*
X142624000Y-95068000D01*
X142628000Y-95066000D01*
X142633000Y-95064000D01*
X142638000Y-95062000D01*
X142643000Y-95060000D01*
X142648000Y-95059000D01*
X142653000Y-95058000D01*
X142659000Y-95058000D01*
X142664000Y-95057000D01*
X142669000Y-95057000D01*
X142819000Y-95057000D01*
X142824000Y-95057000D01*
X142829000Y-95058000D01*
G36*
X142829000Y-95058000D02*
G01*
X142835000Y-95058000D01*
X142840000Y-95059000D01*
X142845000Y-95060000D01*
X142850000Y-95062000D01*
X142855000Y-95064000D01*
X142860000Y-95066000D01*
X142864000Y-95068000D01*
X142869000Y-95070000D01*
X142873000Y-95073000D01*
X142878000Y-95076000D01*
X142882000Y-95079000D01*
X142886000Y-95083000D01*
X142890000Y-95086000D01*
X142893000Y-95090000D01*
X142897000Y-95094000D01*
X142900000Y-95098000D01*
X142903000Y-95103000D01*
X142906000Y-95107000D01*
X142908000Y-95112000D01*
X142910000Y-95116000D01*
X142912000Y-95121000D01*
X142914000Y-95126000D01*
X142916000Y-95131000D01*
X142917000Y-95136000D01*
X142918000Y-95141000D01*
X142918000Y-95147000D01*
X142919000Y-95152000D01*
X142919000Y-95157000D01*
X142919000Y-95657000D01*
X142919000Y-95662000D01*
X142918000Y-95667000D01*
X142918000Y-95673000D01*
X142917000Y-95678000D01*
X142916000Y-95683000D01*
X142914000Y-95688000D01*
X142912000Y-95693000D01*
X142910000Y-95698000D01*
X142908000Y-95702000D01*
X142906000Y-95707000D01*
X142903000Y-95711000D01*
X142900000Y-95716000D01*
X142897000Y-95720000D01*
X142893000Y-95724000D01*
X142890000Y-95728000D01*
X142886000Y-95731000D01*
X142882000Y-95735000D01*
X142878000Y-95738000D01*
X142873000Y-95741000D01*
X142869000Y-95744000D01*
X142864000Y-95746000D01*
X142860000Y-95748000D01*
X142855000Y-95750000D01*
X142850000Y-95752000D01*
X142845000Y-95754000D01*
X142840000Y-95755000D01*
X142835000Y-95756000D01*
X142829000Y-95756000D01*
X142824000Y-95757000D01*
X142819000Y-95757000D01*
X142669000Y-95757000D01*
X142664000Y-95757000D01*
X142659000Y-95756000D01*
X142653000Y-95756000D01*
X142648000Y-95755000D01*
X142643000Y-95754000D01*
X142638000Y-95752000D01*
X142633000Y-95750000D01*
X142628000Y-95748000D01*
X142624000Y-95746000D01*
X142619000Y-95744000D01*
X142615000Y-95741000D01*
X142610000Y-95738000D01*
X142606000Y-95735000D01*
X142602000Y-95731000D01*
X142598000Y-95728000D01*
X142595000Y-95724000D01*
X142591000Y-95720000D01*
X142588000Y-95716000D01*
X142585000Y-95711000D01*
X142582000Y-95707000D01*
X142580000Y-95702000D01*
X142578000Y-95698000D01*
X142576000Y-95693000D01*
X142574000Y-95688000D01*
X142572000Y-95683000D01*
X142571000Y-95678000D01*
X142570000Y-95673000D01*
X142570000Y-95667000D01*
X142569000Y-95662000D01*
X142569000Y-95657000D01*
X142569000Y-95157000D01*
X142569000Y-95152000D01*
X142570000Y-95147000D01*
X142570000Y-95141000D01*
X142571000Y-95136000D01*
X142572000Y-95131000D01*
X142574000Y-95126000D01*
X142576000Y-95121000D01*
X142578000Y-95116000D01*
X142580000Y-95112000D01*
X142582000Y-95107000D01*
X142585000Y-95103000D01*
X142588000Y-95098000D01*
X142591000Y-95094000D01*
X142595000Y-95090000D01*
X142598000Y-95086000D01*
X142602000Y-95083000D01*
X142606000Y-95079000D01*
X142610000Y-95076000D01*
X142615000Y-95073000D01*
X142619000Y-95070000D01*
X142624000Y-95068000D01*
X142628000Y-95066000D01*
X142633000Y-95064000D01*
X142638000Y-95062000D01*
X142643000Y-95060000D01*
X142648000Y-95059000D01*
X142653000Y-95058000D01*
X142659000Y-95058000D01*
X142664000Y-95057000D01*
X142669000Y-95057000D01*
X142819000Y-95057000D01*
X142824000Y-95057000D01*
X142829000Y-95058000D01*
G37*
X142829000Y-97858000D02*
X142835000Y-97858000D01*
X142840000Y-97859000D01*
X142845000Y-97860000D01*
X142850000Y-97862000D01*
X142855000Y-97864000D01*
X142860000Y-97866000D01*
X142864000Y-97868000D01*
X142869000Y-97870000D01*
X142873000Y-97873000D01*
X142878000Y-97876000D01*
X142882000Y-97879000D01*
X142886000Y-97883000D01*
X142890000Y-97886000D01*
X142893000Y-97890000D01*
X142897000Y-97894000D01*
X142900000Y-97898000D01*
X142903000Y-97903000D01*
X142906000Y-97907000D01*
X142908000Y-97912000D01*
X142910000Y-97916000D01*
X142912000Y-97921000D01*
X142914000Y-97926000D01*
X142916000Y-97931000D01*
X142917000Y-97936000D01*
X142918000Y-97941000D01*
X142918000Y-97947000D01*
X142919000Y-97952000D01*
X142919000Y-97957000D01*
X142919000Y-98457000D01*
X142919000Y-98462000D01*
X142918000Y-98467000D01*
X142918000Y-98473000D01*
X142917000Y-98478000D01*
X142916000Y-98483000D01*
X142914000Y-98488000D01*
X142912000Y-98493000D01*
X142910000Y-98498000D01*
X142908000Y-98502000D01*
X142906000Y-98507000D01*
X142903000Y-98511000D01*
X142900000Y-98516000D01*
X142897000Y-98520000D01*
X142893000Y-98524000D01*
X142890000Y-98528000D01*
X142886000Y-98531000D01*
X142882000Y-98535000D01*
X142878000Y-98538000D01*
X142873000Y-98541000D01*
X142869000Y-98544000D01*
X142864000Y-98546000D01*
X142860000Y-98548000D01*
X142855000Y-98550000D01*
X142850000Y-98552000D01*
X142845000Y-98554000D01*
X142840000Y-98555000D01*
X142835000Y-98556000D01*
X142829000Y-98556000D01*
X142824000Y-98557000D01*
X142819000Y-98557000D01*
X142669000Y-98557000D01*
X142664000Y-98557000D01*
X142659000Y-98556000D01*
X142653000Y-98556000D01*
X142648000Y-98555000D01*
X142643000Y-98554000D01*
X142638000Y-98552000D01*
X142633000Y-98550000D01*
X142628000Y-98548000D01*
X142624000Y-98546000D01*
X142619000Y-98544000D01*
X142615000Y-98541000D01*
X142610000Y-98538000D01*
X142606000Y-98535000D01*
X142602000Y-98531000D01*
X142598000Y-98528000D01*
X142595000Y-98524000D01*
X142591000Y-98520000D01*
X142588000Y-98516000D01*
X142585000Y-98511000D01*
X142582000Y-98507000D01*
X142580000Y-98502000D01*
X142578000Y-98498000D01*
X142576000Y-98493000D01*
X142574000Y-98488000D01*
X142572000Y-98483000D01*
X142571000Y-98478000D01*
X142570000Y-98473000D01*
X142570000Y-98467000D01*
X142569000Y-98462000D01*
X142569000Y-98457000D01*
X142569000Y-97957000D01*
X142569000Y-97952000D01*
X142570000Y-97947000D01*
X142570000Y-97941000D01*
X142571000Y-97936000D01*
X142572000Y-97931000D01*
X142574000Y-97926000D01*
X142576000Y-97921000D01*
X142578000Y-97916000D01*
X142580000Y-97912000D01*
X142582000Y-97907000D01*
X142585000Y-97903000D01*
X142588000Y-97898000D01*
X142591000Y-97894000D01*
X142595000Y-97890000D01*
X142598000Y-97886000D01*
X142602000Y-97883000D01*
X142606000Y-97879000D01*
X142610000Y-97876000D01*
X142615000Y-97873000D01*
X142619000Y-97870000D01*
X142624000Y-97868000D01*
X142628000Y-97866000D01*
X142633000Y-97864000D01*
X142638000Y-97862000D01*
X142643000Y-97860000D01*
X142648000Y-97859000D01*
X142653000Y-97858000D01*
X142659000Y-97858000D01*
X142664000Y-97857000D01*
X142669000Y-97857000D01*
X142819000Y-97857000D01*
X142824000Y-97857000D01*
X142829000Y-97858000D01*
G36*
X142829000Y-97858000D02*
G01*
X142835000Y-97858000D01*
X142840000Y-97859000D01*
X142845000Y-97860000D01*
X142850000Y-97862000D01*
X142855000Y-97864000D01*
X142860000Y-97866000D01*
X142864000Y-97868000D01*
X142869000Y-97870000D01*
X142873000Y-97873000D01*
X142878000Y-97876000D01*
X142882000Y-97879000D01*
X142886000Y-97883000D01*
X142890000Y-97886000D01*
X142893000Y-97890000D01*
X142897000Y-97894000D01*
X142900000Y-97898000D01*
X142903000Y-97903000D01*
X142906000Y-97907000D01*
X142908000Y-97912000D01*
X142910000Y-97916000D01*
X142912000Y-97921000D01*
X142914000Y-97926000D01*
X142916000Y-97931000D01*
X142917000Y-97936000D01*
X142918000Y-97941000D01*
X142918000Y-97947000D01*
X142919000Y-97952000D01*
X142919000Y-97957000D01*
X142919000Y-98457000D01*
X142919000Y-98462000D01*
X142918000Y-98467000D01*
X142918000Y-98473000D01*
X142917000Y-98478000D01*
X142916000Y-98483000D01*
X142914000Y-98488000D01*
X142912000Y-98493000D01*
X142910000Y-98498000D01*
X142908000Y-98502000D01*
X142906000Y-98507000D01*
X142903000Y-98511000D01*
X142900000Y-98516000D01*
X142897000Y-98520000D01*
X142893000Y-98524000D01*
X142890000Y-98528000D01*
X142886000Y-98531000D01*
X142882000Y-98535000D01*
X142878000Y-98538000D01*
X142873000Y-98541000D01*
X142869000Y-98544000D01*
X142864000Y-98546000D01*
X142860000Y-98548000D01*
X142855000Y-98550000D01*
X142850000Y-98552000D01*
X142845000Y-98554000D01*
X142840000Y-98555000D01*
X142835000Y-98556000D01*
X142829000Y-98556000D01*
X142824000Y-98557000D01*
X142819000Y-98557000D01*
X142669000Y-98557000D01*
X142664000Y-98557000D01*
X142659000Y-98556000D01*
X142653000Y-98556000D01*
X142648000Y-98555000D01*
X142643000Y-98554000D01*
X142638000Y-98552000D01*
X142633000Y-98550000D01*
X142628000Y-98548000D01*
X142624000Y-98546000D01*
X142619000Y-98544000D01*
X142615000Y-98541000D01*
X142610000Y-98538000D01*
X142606000Y-98535000D01*
X142602000Y-98531000D01*
X142598000Y-98528000D01*
X142595000Y-98524000D01*
X142591000Y-98520000D01*
X142588000Y-98516000D01*
X142585000Y-98511000D01*
X142582000Y-98507000D01*
X142580000Y-98502000D01*
X142578000Y-98498000D01*
X142576000Y-98493000D01*
X142574000Y-98488000D01*
X142572000Y-98483000D01*
X142571000Y-98478000D01*
X142570000Y-98473000D01*
X142570000Y-98467000D01*
X142569000Y-98462000D01*
X142569000Y-98457000D01*
X142569000Y-97957000D01*
X142569000Y-97952000D01*
X142570000Y-97947000D01*
X142570000Y-97941000D01*
X142571000Y-97936000D01*
X142572000Y-97931000D01*
X142574000Y-97926000D01*
X142576000Y-97921000D01*
X142578000Y-97916000D01*
X142580000Y-97912000D01*
X142582000Y-97907000D01*
X142585000Y-97903000D01*
X142588000Y-97898000D01*
X142591000Y-97894000D01*
X142595000Y-97890000D01*
X142598000Y-97886000D01*
X142602000Y-97883000D01*
X142606000Y-97879000D01*
X142610000Y-97876000D01*
X142615000Y-97873000D01*
X142619000Y-97870000D01*
X142624000Y-97868000D01*
X142628000Y-97866000D01*
X142633000Y-97864000D01*
X142638000Y-97862000D01*
X142643000Y-97860000D01*
X142648000Y-97859000D01*
X142653000Y-97858000D01*
X142659000Y-97858000D01*
X142664000Y-97857000D01*
X142669000Y-97857000D01*
X142819000Y-97857000D01*
X142824000Y-97857000D01*
X142829000Y-97858000D01*
G37*
X143154000Y-96633000D02*
X143160000Y-96633000D01*
X143165000Y-96634000D01*
X143170000Y-96635000D01*
X143175000Y-96637000D01*
X143180000Y-96639000D01*
X143185000Y-96641000D01*
X143189000Y-96643000D01*
X143194000Y-96645000D01*
X143198000Y-96648000D01*
X143203000Y-96651000D01*
X143207000Y-96654000D01*
X143211000Y-96658000D01*
X143215000Y-96661000D01*
X143218000Y-96665000D01*
X143222000Y-96669000D01*
X143225000Y-96673000D01*
X143228000Y-96678000D01*
X143231000Y-96682000D01*
X143233000Y-96687000D01*
X143235000Y-96691000D01*
X143237000Y-96696000D01*
X143239000Y-96701000D01*
X143241000Y-96706000D01*
X143242000Y-96711000D01*
X143243000Y-96716000D01*
X143243000Y-96722000D01*
X143244000Y-96727000D01*
X143244000Y-96732000D01*
X143244000Y-96882000D01*
X143244000Y-96887000D01*
X143243000Y-96892000D01*
X143243000Y-96898000D01*
X143242000Y-96903000D01*
X143241000Y-96908000D01*
X143239000Y-96913000D01*
X143237000Y-96918000D01*
X143235000Y-96923000D01*
X143233000Y-96927000D01*
X143231000Y-96932000D01*
X143228000Y-96936000D01*
X143225000Y-96941000D01*
X143222000Y-96945000D01*
X143218000Y-96949000D01*
X143215000Y-96953000D01*
X143211000Y-96956000D01*
X143207000Y-96960000D01*
X143203000Y-96963000D01*
X143198000Y-96966000D01*
X143194000Y-96969000D01*
X143189000Y-96971000D01*
X143185000Y-96973000D01*
X143180000Y-96975000D01*
X143175000Y-96977000D01*
X143170000Y-96979000D01*
X143165000Y-96980000D01*
X143160000Y-96981000D01*
X143154000Y-96981000D01*
X143149000Y-96982000D01*
X143144000Y-96982000D01*
X141844000Y-96982000D01*
X141839000Y-96982000D01*
X141834000Y-96981000D01*
X141828000Y-96981000D01*
X141823000Y-96980000D01*
X141818000Y-96979000D01*
X141813000Y-96977000D01*
X141808000Y-96975000D01*
X141803000Y-96973000D01*
X141799000Y-96971000D01*
X141794000Y-96969000D01*
X141790000Y-96966000D01*
X141785000Y-96963000D01*
X141781000Y-96960000D01*
X141777000Y-96956000D01*
X141773000Y-96953000D01*
X141770000Y-96949000D01*
X141766000Y-96945000D01*
X141763000Y-96941000D01*
X141760000Y-96936000D01*
X141757000Y-96932000D01*
X141755000Y-96927000D01*
X141753000Y-96923000D01*
X141751000Y-96918000D01*
X141749000Y-96913000D01*
X141747000Y-96908000D01*
X141746000Y-96903000D01*
X141745000Y-96898000D01*
X141745000Y-96892000D01*
X141744000Y-96887000D01*
X141744000Y-96882000D01*
X141744000Y-96732000D01*
X141744000Y-96727000D01*
X141745000Y-96722000D01*
X141745000Y-96716000D01*
X141746000Y-96711000D01*
X141747000Y-96706000D01*
X141749000Y-96701000D01*
X141751000Y-96696000D01*
X141753000Y-96691000D01*
X141755000Y-96687000D01*
X141757000Y-96682000D01*
X141760000Y-96678000D01*
X141763000Y-96673000D01*
X141766000Y-96669000D01*
X141770000Y-96665000D01*
X141773000Y-96661000D01*
X141777000Y-96658000D01*
X141781000Y-96654000D01*
X141785000Y-96651000D01*
X141790000Y-96648000D01*
X141794000Y-96645000D01*
X141799000Y-96643000D01*
X141803000Y-96641000D01*
X141808000Y-96639000D01*
X141813000Y-96637000D01*
X141818000Y-96635000D01*
X141823000Y-96634000D01*
X141828000Y-96633000D01*
X141834000Y-96633000D01*
X141839000Y-96632000D01*
X141844000Y-96632000D01*
X143144000Y-96632000D01*
X143149000Y-96632000D01*
X143154000Y-96633000D01*
G36*
X143154000Y-96633000D02*
G01*
X143160000Y-96633000D01*
X143165000Y-96634000D01*
X143170000Y-96635000D01*
X143175000Y-96637000D01*
X143180000Y-96639000D01*
X143185000Y-96641000D01*
X143189000Y-96643000D01*
X143194000Y-96645000D01*
X143198000Y-96648000D01*
X143203000Y-96651000D01*
X143207000Y-96654000D01*
X143211000Y-96658000D01*
X143215000Y-96661000D01*
X143218000Y-96665000D01*
X143222000Y-96669000D01*
X143225000Y-96673000D01*
X143228000Y-96678000D01*
X143231000Y-96682000D01*
X143233000Y-96687000D01*
X143235000Y-96691000D01*
X143237000Y-96696000D01*
X143239000Y-96701000D01*
X143241000Y-96706000D01*
X143242000Y-96711000D01*
X143243000Y-96716000D01*
X143243000Y-96722000D01*
X143244000Y-96727000D01*
X143244000Y-96732000D01*
X143244000Y-96882000D01*
X143244000Y-96887000D01*
X143243000Y-96892000D01*
X143243000Y-96898000D01*
X143242000Y-96903000D01*
X143241000Y-96908000D01*
X143239000Y-96913000D01*
X143237000Y-96918000D01*
X143235000Y-96923000D01*
X143233000Y-96927000D01*
X143231000Y-96932000D01*
X143228000Y-96936000D01*
X143225000Y-96941000D01*
X143222000Y-96945000D01*
X143218000Y-96949000D01*
X143215000Y-96953000D01*
X143211000Y-96956000D01*
X143207000Y-96960000D01*
X143203000Y-96963000D01*
X143198000Y-96966000D01*
X143194000Y-96969000D01*
X143189000Y-96971000D01*
X143185000Y-96973000D01*
X143180000Y-96975000D01*
X143175000Y-96977000D01*
X143170000Y-96979000D01*
X143165000Y-96980000D01*
X143160000Y-96981000D01*
X143154000Y-96981000D01*
X143149000Y-96982000D01*
X143144000Y-96982000D01*
X141844000Y-96982000D01*
X141839000Y-96982000D01*
X141834000Y-96981000D01*
X141828000Y-96981000D01*
X141823000Y-96980000D01*
X141818000Y-96979000D01*
X141813000Y-96977000D01*
X141808000Y-96975000D01*
X141803000Y-96973000D01*
X141799000Y-96971000D01*
X141794000Y-96969000D01*
X141790000Y-96966000D01*
X141785000Y-96963000D01*
X141781000Y-96960000D01*
X141777000Y-96956000D01*
X141773000Y-96953000D01*
X141770000Y-96949000D01*
X141766000Y-96945000D01*
X141763000Y-96941000D01*
X141760000Y-96936000D01*
X141757000Y-96932000D01*
X141755000Y-96927000D01*
X141753000Y-96923000D01*
X141751000Y-96918000D01*
X141749000Y-96913000D01*
X141747000Y-96908000D01*
X141746000Y-96903000D01*
X141745000Y-96898000D01*
X141745000Y-96892000D01*
X141744000Y-96887000D01*
X141744000Y-96882000D01*
X141744000Y-96732000D01*
X141744000Y-96727000D01*
X141745000Y-96722000D01*
X141745000Y-96716000D01*
X141746000Y-96711000D01*
X141747000Y-96706000D01*
X141749000Y-96701000D01*
X141751000Y-96696000D01*
X141753000Y-96691000D01*
X141755000Y-96687000D01*
X141757000Y-96682000D01*
X141760000Y-96678000D01*
X141763000Y-96673000D01*
X141766000Y-96669000D01*
X141770000Y-96665000D01*
X141773000Y-96661000D01*
X141777000Y-96658000D01*
X141781000Y-96654000D01*
X141785000Y-96651000D01*
X141790000Y-96648000D01*
X141794000Y-96645000D01*
X141799000Y-96643000D01*
X141803000Y-96641000D01*
X141808000Y-96639000D01*
X141813000Y-96637000D01*
X141818000Y-96635000D01*
X141823000Y-96634000D01*
X141828000Y-96633000D01*
X141834000Y-96633000D01*
X141839000Y-96632000D01*
X141844000Y-96632000D01*
X143144000Y-96632000D01*
X143149000Y-96632000D01*
X143154000Y-96633000D01*
G37*
%TD*%
D11*
%TO.C,H1*%
X150000000Y-109000000D03*
%TD*%
D12*
%TO.C,D6*%
X103124000Y-118643600D03*
X103124000Y-117068600D03*
%TD*%
%TO.C,D5*%
X151130000Y-118389600D03*
X151130000Y-116814600D03*
%TD*%
D13*
%TO.C,C9*%
X143129000Y-104902000D03*
X143129000Y-110302000D03*
%TD*%
D14*
%TO.C,J2*%
X124369200Y-118364000D03*
D15*
X119369200Y-118364000D03*
%TD*%
D16*
%TO.C,C3*%
X146608800Y-92519200D03*
X146608800Y-94069200D03*
%TD*%
D17*
%TO.C,R6*%
X128878100Y-59969400D03*
X130528100Y-59969400D03*
%TD*%
D18*
%TO.C,F1*%
X111734600Y-92633800D03*
X111734600Y-70033800D03*
%TD*%
D11*
%TO.C,H2*%
X149500000Y-55000000D03*
%TD*%
D19*
%TO.C,D2*%
X115408000Y-103428800D03*
X111408000Y-103428800D03*
%TD*%
D20*
%TO.C,C10*%
X128397000Y-110429000D03*
X128397000Y-105029000D03*
%TD*%
D21*
%TO.C,C5*%
X143524400Y-94056200D03*
X141974400Y-94056200D03*
%TD*%
D22*
%TO.C,D3*%
X128930400Y-56870600D03*
X130505400Y-56870600D03*
%TD*%
D23*
%TO.C,J6*%
X149252400Y-118880200D03*
D24*
X149252400Y-114700200D03*
D23*
X140612400Y-118880200D03*
D24*
X140612400Y-114700200D03*
D25*
X141732400Y-114125200D03*
X142532400Y-114125200D03*
D26*
X143182400Y-114125200D03*
X144182400Y-114125200D03*
X145682400Y-114125200D03*
X146682400Y-114125200D03*
D25*
X147332400Y-114125200D03*
X148132400Y-114125200D03*
X148132400Y-114125200D03*
X147332400Y-114125200D03*
D26*
X146182400Y-114125200D03*
X145182400Y-114125200D03*
X144682400Y-114125200D03*
X143682400Y-114125200D03*
D25*
X142532400Y-114125200D03*
X141732400Y-114125200D03*
D27*
X147822400Y-115200200D03*
X142042400Y-115200200D03*
%TD*%
D20*
%TO.C,C11*%
X135763000Y-110335000D03*
X135763000Y-104935000D03*
%TD*%
D18*
%TO.C,K1*%
X130683000Y-84582000D03*
X120543000Y-66782000D03*
X128143000Y-66782000D03*
D28*
X143343000Y-80782000D03*
D29*
X143343000Y-70582000D03*
%TD*%
D13*
%TO.C,C1*%
X135763000Y-95344000D03*
X135763000Y-100744000D03*
%TD*%
D17*
%TO.C,R4*%
X141910800Y-92506800D03*
X143560800Y-92506800D03*
%TD*%
D11*
%TO.C,H4*%
X104500000Y-55000000D03*
%TD*%
D21*
%TO.C,C2*%
X142761000Y-99618800D03*
X141211000Y-99618800D03*
%TD*%
D30*
%TO.C,C4*%
X113157000Y-98018600D03*
X116107000Y-98018600D03*
%TD*%
D14*
%TO.C,J3*%
X112522000Y-118364000D03*
D15*
X107522000Y-118364000D03*
%TD*%
D31*
%TO.C,J1*%
X113106200Y-54864000D03*
D32*
X120306200Y-54864000D03*
%TD*%
D19*
%TO.C,D1*%
X115408000Y-107010200D03*
X111408000Y-107010200D03*
%TD*%
D33*
%TO.C,R1*%
X138836400Y-94131400D03*
X138836400Y-92481400D03*
%TD*%
D34*
%TO.C,L1*%
X148209000Y-96426000D03*
X148209000Y-102476000D03*
%TD*%
D11*
%TO.C,H3*%
X105000000Y-109000000D03*
%TD*%
D35*
%TO.C,R9*%
X103124600Y-113980000D03*
X103124600Y-115630000D03*
%TD*%
D14*
%TO.C,J5*%
X136104000Y-118364000D03*
D15*
X131104000Y-118364000D03*
%TD*%
D36*
%TO.C,SW1*%
X136775000Y-58521600D03*
D37*
X144395000Y-58521600D03*
%TD*%
D35*
%TO.C,R7*%
X103911400Y-71145400D03*
X103911400Y-72795400D03*
%TD*%
D13*
%TO.C,C6*%
X128397000Y-95344000D03*
X128397000Y-100744000D03*
%TD*%
D30*
%TO.C,C12*%
X113131600Y-100431600D03*
X116081600Y-100431600D03*
%TD*%
D20*
%TO.C,C8*%
X121158000Y-110429000D03*
X121158000Y-105029000D03*
%TD*%
D33*
%TO.C,R3*%
X145059400Y-94119200D03*
X145059400Y-92469200D03*
%TD*%
D35*
%TO.C,R8*%
X151130000Y-113716800D03*
X151130000Y-115366800D03*
%TD*%
D12*
%TO.C,D4*%
X103911400Y-75806000D03*
X103911400Y-74231000D03*
%TD*%
D17*
%TO.C,R5*%
X128880600Y-58420000D03*
X130530600Y-58420000D03*
%TD*%
D13*
%TO.C,C7*%
X121158000Y-95344000D03*
X121158000Y-100744000D03*
%TD*%
D33*
%TO.C,R2*%
X140411200Y-94131400D03*
X140411200Y-92481400D03*
%TD*%
M02*
