%TF.GenerationSoftware,KiCad,Pcbnew,8.0.5*%
%TF.CreationDate,2024-10-07T09:32:21+08:00*%
%TF.ProjectId,draft-board,64726166-742d-4626-9f61-72642e6b6963,rev?*%
%TF.SameCoordinates,Original*%
%TF.FileFunction,Copper,L3,Inr*%
%TF.FilePolarity,Positive*%
%FSLAX46Y46*%
G04 Gerber Fmt 4.6, Leading zero omitted, Abs format (unit mm)*
G04 Created by KiCad (PCBNEW 8.0.5) date 2024-10-07 09:32:21*
%MOMM*%
%LPD*%
G01*
G04 APERTURE LIST*
G04 Aperture macros list*
%AMRoundRect*
0 Rectangle with rounded corners*
0 $1 Rounding radius*
0 $2 $3 $4 $5 $6 $7 $8 $9 X,Y pos of 4 corners*
0 Add a 4 corners polygon primitive as box body*
4,1,4,$2,$3,$4,$5,$6,$7,$8,$9,$2,$3,0*
0 Add four circle primitives for the rounded corners*
1,1,$1+$1,$2,$3*
1,1,$1+$1,$4,$5*
1,1,$1+$1,$6,$7*
1,1,$1+$1,$8,$9*
0 Add four rect primitives between the rounded corners*
20,1,$1+$1,$2,$3,$4,$5,0*
20,1,$1+$1,$4,$5,$6,$7,0*
20,1,$1+$1,$6,$7,$8,$9,0*
20,1,$1+$1,$8,$9,$2,$3,0*%
G04 Aperture macros list end*
%TA.AperFunction,ComponentPad*%
%ADD10C,5.600000*%
%TD*%
%TA.AperFunction,ComponentPad*%
%ADD11R,3.800000X3.800000*%
%TD*%
%TA.AperFunction,ComponentPad*%
%ADD12C,4.000000*%
%TD*%
%TA.AperFunction,ComponentPad*%
%ADD13C,3.000000*%
%TD*%
%TA.AperFunction,ComponentPad*%
%ADD14O,1.000000X1.800000*%
%TD*%
%TA.AperFunction,ComponentPad*%
%ADD15O,1.000000X2.100000*%
%TD*%
%TA.AperFunction,ComponentPad*%
%ADD16RoundRect,0.500000X-0.500000X-0.500000X0.500000X-0.500000X0.500000X0.500000X-0.500000X0.500000X0*%
%TD*%
%TA.AperFunction,ComponentPad*%
%ADD17C,2.000000*%
%TD*%
%TA.AperFunction,ComponentPad*%
%ADD18RoundRect,1.500000X-1.500000X-1.500000X1.500000X-1.500000X1.500000X1.500000X-1.500000X1.500000X0*%
%TD*%
%TA.AperFunction,ComponentPad*%
%ADD19C,6.000000*%
%TD*%
%TA.AperFunction,ComponentPad*%
%ADD20R,1.600000X1.600000*%
%TD*%
%TA.AperFunction,ComponentPad*%
%ADD21O,1.600000X1.600000*%
%TD*%
%TA.AperFunction,ViaPad*%
%ADD22C,0.450000*%
%TD*%
%TA.AperFunction,ViaPad*%
%ADD23C,0.762000*%
%TD*%
G04 APERTURE END LIST*
D10*
%TO.N,N/C*%
%TO.C,H1*%
X150000000Y-109000000D03*
%TD*%
D11*
%TO.N,GND*%
%TO.C,J2*%
X124369200Y-118364000D03*
D12*
%TO.N,24VOUT*%
X119369200Y-118364000D03*
%TD*%
D13*
%TO.N,24VOUT*%
%TO.C,F1*%
X111734600Y-92633800D03*
%TO.N,+24V*%
X111734600Y-70033800D03*
%TD*%
D10*
%TO.N,N/C*%
%TO.C,H2*%
X149500000Y-55000000D03*
%TD*%
D14*
%TO.N,GND*%
%TO.C,J6*%
X149252400Y-118880200D03*
D15*
X149252400Y-114700200D03*
D14*
X140612400Y-118880200D03*
D15*
X140612400Y-114700200D03*
%TD*%
D13*
%TO.N,+24V*%
%TO.C,K1*%
X130683000Y-84582000D03*
%TO.N,unconnected-(K1-Pad12)*%
X120543000Y-66782000D03*
%TO.N,24VDC*%
X128143000Y-66782000D03*
D16*
%TO.N,GND*%
X143343000Y-80782000D03*
D17*
%TO.N,Net-(SW1-B)*%
X143343000Y-70582000D03*
%TD*%
D10*
%TO.N,N/C*%
%TO.C,H4*%
X104500000Y-55000000D03*
%TD*%
D11*
%TO.N,GND*%
%TO.C,J3*%
X112522000Y-118364000D03*
D12*
%TO.N,24VOUT*%
X107522000Y-118364000D03*
%TD*%
D18*
%TO.N,GND*%
%TO.C,J1*%
X113106200Y-54864000D03*
D19*
%TO.N,24VDC*%
X120306200Y-54864000D03*
%TD*%
D10*
%TO.N,N/C*%
%TO.C,H3*%
X105000000Y-109000000D03*
%TD*%
D11*
%TO.N,GND*%
%TO.C,J5*%
X136104000Y-118364000D03*
D12*
%TO.N,+5V*%
X131104000Y-118364000D03*
%TD*%
D20*
%TO.N,Net-(SW1-A)*%
%TO.C,SW1*%
X136775000Y-58521600D03*
D21*
%TO.N,Net-(SW1-B)*%
X144395000Y-58521600D03*
%TD*%
D22*
%TO.N,+24V*%
X131318000Y-74676000D03*
X111963200Y-80822800D03*
X129895600Y-78638400D03*
X111455200Y-78435200D03*
X121056400Y-78079600D03*
X121564400Y-78841600D03*
X129438400Y-73152000D03*
X120599200Y-81991200D03*
X112420400Y-78435200D03*
X111506000Y-81584800D03*
X112877600Y-76149200D03*
X111861600Y-74574400D03*
X120142000Y-73355200D03*
X121564400Y-77317600D03*
X121564400Y-80467200D03*
X121564400Y-75641200D03*
X125323600Y-94030800D03*
X121056400Y-74879200D03*
X120954800Y-91694000D03*
X121869200Y-91694000D03*
X131673600Y-93980000D03*
X121869200Y-90170000D03*
X131318000Y-76352400D03*
X122834400Y-88646000D03*
X129895600Y-73914000D03*
X110947200Y-73050400D03*
X111963200Y-79298800D03*
X120142000Y-78079600D03*
X120954800Y-88646000D03*
X125780800Y-94792800D03*
X111404400Y-75336400D03*
X128397000Y-95344000D03*
X120142000Y-79705200D03*
X122021600Y-73355200D03*
X110998000Y-76149200D03*
X110998000Y-77673200D03*
X122377200Y-92456000D03*
X135763000Y-95344000D03*
X122834400Y-91694000D03*
X111048800Y-80822800D03*
X120954800Y-90170000D03*
X121056400Y-81229200D03*
X122834400Y-90170000D03*
X124815600Y-94792800D03*
X129438400Y-74676000D03*
X130352800Y-73152000D03*
X130860800Y-75438000D03*
X120599200Y-74117200D03*
X121056400Y-79705200D03*
X122834400Y-87122000D03*
X112369600Y-75336400D03*
X112826800Y-74574400D03*
X129895600Y-77114400D03*
X121412000Y-87884000D03*
X120142000Y-74879200D03*
X124358400Y-95554800D03*
X130860800Y-78638400D03*
X122377200Y-90932000D03*
X129438400Y-76352400D03*
X120954800Y-87122000D03*
X121564400Y-81991200D03*
X131318000Y-73152000D03*
X121869200Y-88646000D03*
X112826800Y-73050400D03*
X110947200Y-74574400D03*
X111455200Y-76911200D03*
X122021600Y-81229200D03*
X130352800Y-77876400D03*
X138836400Y-94131400D03*
X111861600Y-73050400D03*
X122021600Y-74879200D03*
X111048800Y-79298800D03*
X124358400Y-94030800D03*
X111912400Y-77673200D03*
X112928400Y-79298800D03*
X121412000Y-92456000D03*
X125323600Y-95554800D03*
X121412000Y-90932000D03*
X123901200Y-94792800D03*
X131216400Y-94742000D03*
X121564400Y-74117200D03*
X112420400Y-76911200D03*
X120599200Y-78841600D03*
X129895600Y-75438000D03*
X122377200Y-89408000D03*
X133096000Y-94742000D03*
X122021600Y-76555600D03*
X120599200Y-77317600D03*
X121158000Y-95344000D03*
X112928400Y-80822800D03*
X130860800Y-73914000D03*
X112471200Y-81584800D03*
X120599200Y-80467200D03*
X120142000Y-76555600D03*
X121869200Y-87122000D03*
X122021600Y-79705200D03*
X112877600Y-77673200D03*
X130352800Y-76352400D03*
X111912400Y-76149200D03*
X132638800Y-93980000D03*
X131673600Y-95504000D03*
X122021600Y-78079600D03*
X130860800Y-77114400D03*
X112369600Y-73812400D03*
X132638800Y-95504000D03*
X111506000Y-80060800D03*
X132130800Y-94742000D03*
X120599200Y-75641200D03*
X122377200Y-87884000D03*
X121056400Y-76555600D03*
X129438400Y-77876400D03*
X112471200Y-80060800D03*
X131318000Y-77876400D03*
X111404400Y-73812400D03*
X121412000Y-89408000D03*
X120142000Y-81229200D03*
X130352800Y-74676000D03*
X121056400Y-73355200D03*
%TO.N,GND*%
X148742400Y-72948800D03*
X105105200Y-96723200D03*
X145389600Y-109321600D03*
X104241600Y-88798400D03*
X135585200Y-75793600D03*
X139039600Y-65125600D03*
X112166400Y-61468000D03*
X110794800Y-62179200D03*
X125069600Y-101904800D03*
X151130000Y-118389600D03*
X136499600Y-79705200D03*
X146100800Y-111658400D03*
D23*
X142000000Y-116500000D03*
D22*
X116992400Y-87477600D03*
X149707600Y-86106000D03*
X104597200Y-64516000D03*
X104648000Y-81330800D03*
X103733600Y-82753200D03*
X103225600Y-96723200D03*
X151028400Y-80416400D03*
X150571200Y-66954400D03*
X103225600Y-95300800D03*
X133553200Y-89408000D03*
X116636800Y-94894400D03*
X129489200Y-88950800D03*
X137922000Y-75082400D03*
X131978400Y-103987600D03*
X131521200Y-101854000D03*
X131521200Y-103276400D03*
X102819200Y-82753200D03*
X103276400Y-80619600D03*
X125526800Y-101193600D03*
X139039600Y-63703200D03*
X150164800Y-75082400D03*
X133553200Y-53644800D03*
X153263600Y-99415600D03*
X136499600Y-72948800D03*
X149656800Y-81127600D03*
X104089200Y-65227200D03*
X149199600Y-66243200D03*
X148793200Y-87528400D03*
X148793200Y-88950800D03*
X151028400Y-66243200D03*
X137464800Y-82550000D03*
X117144800Y-94183200D03*
X146100800Y-109778800D03*
X149656800Y-75793600D03*
X149656800Y-68376800D03*
X149199600Y-67665600D03*
X137007600Y-81838800D03*
X134010400Y-52933600D03*
X153263600Y-100380800D03*
X123698000Y-101193600D03*
X117602000Y-94894400D03*
X125526800Y-102616000D03*
X126034800Y-103327200D03*
X102819200Y-81330800D03*
X123698000Y-102616000D03*
X104597200Y-96012000D03*
X103733600Y-88087200D03*
X103911400Y-75806000D03*
X134010400Y-88696800D03*
X141211000Y-99618800D03*
X149250400Y-88239600D03*
X139547600Y-65836800D03*
X111252000Y-62890400D03*
X139496800Y-64414400D03*
X134924800Y-52933600D03*
X137464800Y-75793600D03*
X103733600Y-81330800D03*
X103124000Y-118643600D03*
X104648000Y-97434400D03*
X105054400Y-65227200D03*
X133350000Y-101854000D03*
X121818400Y-113995200D03*
X132943600Y-103987600D03*
X105003600Y-62382400D03*
X137414000Y-72948800D03*
X102819200Y-88087200D03*
X136042400Y-81838800D03*
X103276400Y-82042000D03*
X136956800Y-73660000D03*
X102819200Y-79908400D03*
X103174800Y-63804800D03*
X103632000Y-63093600D03*
X105156000Y-82042000D03*
X148793200Y-86106000D03*
X134518400Y-55067200D03*
X116179600Y-94183200D03*
X148742400Y-79705200D03*
X150571200Y-79705200D03*
X148742400Y-68376800D03*
X104140000Y-95300800D03*
X112623600Y-62179200D03*
X104648000Y-88087200D03*
X149656800Y-72948800D03*
X137414000Y-74371200D03*
X102768400Y-94589600D03*
X103174800Y-62382400D03*
X149656800Y-65532000D03*
X104648000Y-79908400D03*
X136499600Y-74371200D03*
X116535200Y-86766400D03*
X103276400Y-88798400D03*
X115112800Y-87477600D03*
X127609600Y-88950800D03*
X104190800Y-96723200D03*
X111709200Y-63601600D03*
X149656800Y-79705200D03*
X137210800Y-65125600D03*
X150164800Y-81838800D03*
X131064000Y-102565200D03*
X137007600Y-75082400D03*
X150215600Y-88239600D03*
X116027200Y-87477600D03*
X132892800Y-102565200D03*
X151079200Y-81838800D03*
X102819200Y-86664800D03*
X133096000Y-54356000D03*
X125984000Y-101904800D03*
X105511600Y-64516000D03*
X104089200Y-62382400D03*
X103682800Y-94589600D03*
X135585200Y-82550000D03*
X123240800Y-114706400D03*
X124612400Y-102616000D03*
X135432800Y-89408000D03*
X150622000Y-82550000D03*
X150622000Y-68376800D03*
X148742400Y-82550000D03*
X103632000Y-64516000D03*
X135585200Y-79705200D03*
X136042400Y-73660000D03*
X132638800Y-55067200D03*
X133553200Y-52222400D03*
X127152400Y-89662000D03*
X148742400Y-75793600D03*
X149250400Y-86817200D03*
X103733600Y-89509600D03*
X115570000Y-86766400D03*
X125577600Y-104038400D03*
X151130000Y-88239600D03*
X151079200Y-67665600D03*
X132638800Y-52222400D03*
X149199600Y-73660000D03*
X150114000Y-66243200D03*
X111252000Y-61468000D03*
X150114000Y-73660000D03*
X128066800Y-89662000D03*
X137414000Y-79705200D03*
X150164800Y-86817200D03*
X111709200Y-60756800D03*
X141915600Y-94037200D03*
X134467600Y-52222400D03*
X103276400Y-87376000D03*
X150571200Y-81127600D03*
X104089200Y-63804800D03*
X149707600Y-87528400D03*
X138633200Y-65836800D03*
X137871200Y-73660000D03*
X136042400Y-75082400D03*
X134975600Y-88696800D03*
X131978400Y-101142800D03*
X129032000Y-89662000D03*
X103733600Y-79908400D03*
X104698800Y-89509600D03*
X102768400Y-97434400D03*
X136499600Y-82550000D03*
X136499600Y-75793600D03*
X135585200Y-81127600D03*
X131978400Y-102565200D03*
X102819200Y-89509600D03*
X143129000Y-110302000D03*
X115722400Y-94894400D03*
X111709200Y-62179200D03*
X151079200Y-75082400D03*
X104190800Y-80619600D03*
X149656800Y-66954400D03*
X151028400Y-73660000D03*
X135890000Y-88696800D03*
X137871200Y-80416400D03*
X121361200Y-114706400D03*
D23*
X148000000Y-116500000D03*
D22*
X149199600Y-80416400D03*
X133553200Y-55067200D03*
X137210800Y-66548000D03*
X134467600Y-53644800D03*
X105156000Y-88798400D03*
X133096000Y-52933600D03*
X150672800Y-88950800D03*
X123698000Y-104038400D03*
X112623600Y-60756800D03*
X150622000Y-86106000D03*
X131064000Y-103987600D03*
X151079200Y-86817200D03*
X124612400Y-101193600D03*
X148742400Y-65532000D03*
X149707600Y-88950800D03*
X149199600Y-81838800D03*
X125120400Y-103327200D03*
X139090400Y-66548000D03*
X128930400Y-56870600D03*
X110794800Y-63601600D03*
X104190800Y-87376000D03*
X122275600Y-114706400D03*
X103174800Y-65227200D03*
X124612400Y-104038400D03*
X104698800Y-82753200D03*
X137210800Y-63703200D03*
X136042400Y-80416400D03*
X105460800Y-63093600D03*
X102768400Y-96012000D03*
X104241600Y-82042000D03*
X150114000Y-80416400D03*
X148742400Y-74371200D03*
X132892800Y-101142800D03*
X149656800Y-74371200D03*
X105105200Y-80619600D03*
X103682800Y-97434400D03*
X134467600Y-89408000D03*
X149199600Y-75082400D03*
X138125200Y-66548000D03*
X132486400Y-103276400D03*
X135585200Y-74371200D03*
X103733600Y-86664800D03*
X134975600Y-54356000D03*
X124155200Y-103327200D03*
X148742400Y-66954400D03*
X134061200Y-54356000D03*
X140411200Y-92481400D03*
X123698000Y-113995200D03*
X138125200Y-65125600D03*
X105003600Y-63804800D03*
X149656800Y-82550000D03*
X150164800Y-67665600D03*
X112674400Y-63601600D03*
X137668000Y-65836800D03*
X104546400Y-63093600D03*
X137414000Y-81127600D03*
X132638800Y-53644800D03*
X137922000Y-81838800D03*
X122783600Y-113995200D03*
X133400800Y-103276400D03*
X138125200Y-63703200D03*
X110794800Y-60756800D03*
X118059200Y-94183200D03*
X138582400Y-64414400D03*
X152552400Y-100838000D03*
X128574800Y-88950800D03*
X104597200Y-94589600D03*
X103682800Y-96012000D03*
X136956800Y-80416400D03*
X153263600Y-101295200D03*
X124155200Y-101904800D03*
X150571200Y-65532000D03*
X136499600Y-81127600D03*
X135585200Y-72948800D03*
X113080800Y-61468000D03*
X131064000Y-101142800D03*
X150622000Y-87528400D03*
X145389600Y-110236000D03*
X146100800Y-110744000D03*
X137668000Y-64414400D03*
X132435600Y-101854000D03*
X150622000Y-75793600D03*
X150571200Y-74371200D03*
X152552400Y-98958400D03*
X113131600Y-62890400D03*
X105105200Y-87376000D03*
X150571200Y-72948800D03*
X148742400Y-81127600D03*
X145389600Y-111201200D03*
X117449600Y-86766400D03*
X105054400Y-95300800D03*
X112217200Y-62890400D03*
X104648000Y-86664800D03*
X152552400Y-99872800D03*
%TO.N,+5V*%
X123698000Y-109220000D03*
X140208000Y-102006400D03*
X119380000Y-111506000D03*
X144576800Y-116128800D03*
X119380000Y-108458000D03*
X139319000Y-110744000D03*
X139827000Y-109982000D03*
X118364000Y-109982000D03*
X140716000Y-102768400D03*
X140716000Y-104292400D03*
X141224000Y-102006400D03*
X145592800Y-119176800D03*
X131064000Y-109220000D03*
X140335000Y-109220000D03*
X118364000Y-111506000D03*
X140208000Y-103530400D03*
X138811000Y-108458000D03*
X132588000Y-108458000D03*
X144068800Y-118414800D03*
X118364000Y-108458000D03*
X145084800Y-118414800D03*
X125222000Y-111506000D03*
X140335000Y-110744000D03*
X131572000Y-109982000D03*
X143129000Y-104902000D03*
X125222000Y-109982000D03*
X124206000Y-109982000D03*
X144576800Y-117652800D03*
X131572000Y-111506000D03*
X144068800Y-116890800D03*
X151130000Y-113716800D03*
X124206000Y-111506000D03*
X131572000Y-108458000D03*
X118872000Y-109220000D03*
X144576800Y-119176800D03*
X139192000Y-103530400D03*
X138303000Y-109220000D03*
X146100800Y-118414800D03*
X139700000Y-102768400D03*
X132080000Y-109220000D03*
X133096000Y-110744000D03*
X138811000Y-111506000D03*
X139827000Y-111506000D03*
X138303000Y-110744000D03*
X125222000Y-108458000D03*
X145592800Y-117652800D03*
X123698000Y-110744000D03*
X142007233Y-98894173D03*
X132588000Y-111506000D03*
X139700000Y-101244400D03*
X131064000Y-110744000D03*
X141224000Y-103530400D03*
X118872000Y-110744000D03*
X125730000Y-110744000D03*
X140716000Y-101244400D03*
X133096000Y-109220000D03*
X124206000Y-108458000D03*
X135763000Y-110335000D03*
X139700000Y-104292400D03*
X139192000Y-102006400D03*
X128397000Y-110429000D03*
X139319000Y-109220000D03*
X132080000Y-110744000D03*
X125730000Y-109220000D03*
X139827000Y-108458000D03*
X138811000Y-109982000D03*
X124714000Y-109220000D03*
X132588000Y-109982000D03*
X145592800Y-116128800D03*
X145084800Y-116890800D03*
X148209000Y-102489000D03*
X124714000Y-110744000D03*
X146100800Y-116890800D03*
X119380000Y-109982000D03*
X121031000Y-110363000D03*
%TO.N,24VOUT*%
X113157000Y-98018600D03*
X111408000Y-103428800D03*
X112547400Y-109601000D03*
X110490000Y-99771200D03*
X110998000Y-100634800D03*
X113538000Y-110591600D03*
X111408000Y-107010200D03*
X111408000Y-108051600D03*
X111408000Y-111404400D03*
X111408000Y-110236000D03*
X110998000Y-97078800D03*
X114528600Y-111582200D03*
X110998000Y-98907600D03*
X109620400Y-113379600D03*
X115519200Y-112572800D03*
X110509400Y-112490600D03*
X103124600Y-113980000D03*
X111506000Y-96215200D03*
X110490000Y-96215200D03*
X116484400Y-113538000D03*
X111506000Y-99771200D03*
X111408000Y-109067600D03*
X110490000Y-98044000D03*
X113131600Y-100431600D03*
X111506000Y-98044000D03*
%TO.N,Net-(U1-PG)*%
X140797400Y-98653600D03*
X140157200Y-91033600D03*
%TD*%
%TA.AperFunction,Conductor*%
%TO.N,GND*%
G36*
X153001748Y-50508625D02*
G01*
X153208767Y-50523431D01*
X153215687Y-50524426D01*
X153274138Y-50537141D01*
X153416785Y-50568172D01*
X153423485Y-50570140D01*
X153616307Y-50642059D01*
X153622665Y-50644962D01*
X153803297Y-50743594D01*
X153809163Y-50747364D01*
X153973920Y-50870700D01*
X153979203Y-50875278D01*
X154124721Y-51020796D01*
X154129299Y-51026079D01*
X154252633Y-51190833D01*
X154256410Y-51196710D01*
X154355036Y-51377333D01*
X154357940Y-51383692D01*
X154429858Y-51576510D01*
X154431828Y-51583218D01*
X154475573Y-51784312D01*
X154476568Y-51791232D01*
X154491375Y-51998252D01*
X154491500Y-52001748D01*
X154491500Y-119498251D01*
X154491375Y-119501747D01*
X154476568Y-119708767D01*
X154475573Y-119715687D01*
X154431828Y-119916781D01*
X154429858Y-119923489D01*
X154357940Y-120116307D01*
X154355036Y-120122666D01*
X154256410Y-120303289D01*
X154252630Y-120309171D01*
X154129299Y-120473920D01*
X154124721Y-120479203D01*
X153979203Y-120624721D01*
X153973920Y-120629299D01*
X153809171Y-120752630D01*
X153803289Y-120756410D01*
X153622666Y-120855036D01*
X153616307Y-120857940D01*
X153423489Y-120929858D01*
X153416781Y-120931828D01*
X153215687Y-120975573D01*
X153208767Y-120976568D01*
X153001748Y-120991375D01*
X152998252Y-120991500D01*
X102001748Y-120991500D01*
X101998252Y-120991375D01*
X101791232Y-120976568D01*
X101784312Y-120975573D01*
X101583218Y-120931828D01*
X101576510Y-120929858D01*
X101383692Y-120857940D01*
X101377333Y-120855036D01*
X101276749Y-120800114D01*
X101196705Y-120756407D01*
X101190833Y-120752633D01*
X101026079Y-120629299D01*
X101020796Y-120624721D01*
X100875278Y-120479203D01*
X100870700Y-120473920D01*
X100747364Y-120309163D01*
X100743594Y-120303297D01*
X100644962Y-120122665D01*
X100642059Y-120116307D01*
X100570141Y-119923489D01*
X100568171Y-119916781D01*
X100524426Y-119715687D01*
X100523431Y-119708767D01*
X100508625Y-119501747D01*
X100508500Y-119498251D01*
X100508500Y-118363998D01*
X105216564Y-118363998D01*
X105216564Y-118364001D01*
X105236287Y-118664921D01*
X105295116Y-118960678D01*
X105295116Y-118960679D01*
X105392054Y-119246250D01*
X105525434Y-119516718D01*
X105692974Y-119767461D01*
X105798908Y-119888254D01*
X105891811Y-119994189D01*
X106012604Y-120100122D01*
X106118538Y-120193025D01*
X106200291Y-120247650D01*
X106369282Y-120360566D01*
X106639748Y-120493945D01*
X106925309Y-120590880D01*
X106925316Y-120590881D01*
X106925321Y-120590883D01*
X107074521Y-120620560D01*
X107221080Y-120649713D01*
X107499300Y-120667948D01*
X107521999Y-120669436D01*
X107522000Y-120669436D01*
X107522001Y-120669436D01*
X107541724Y-120668143D01*
X107822920Y-120649713D01*
X108017889Y-120610930D01*
X108118678Y-120590883D01*
X108118679Y-120590883D01*
X108118683Y-120590881D01*
X108118691Y-120590880D01*
X108404252Y-120493945D01*
X108674718Y-120360566D01*
X108925461Y-120193025D01*
X109152189Y-119994189D01*
X109351025Y-119767461D01*
X109518566Y-119516718D01*
X109651945Y-119246252D01*
X109748880Y-118960691D01*
X109748881Y-118960683D01*
X109748883Y-118960679D01*
X109748883Y-118960678D01*
X109782914Y-118789590D01*
X109807713Y-118664920D01*
X109827436Y-118364000D01*
X109827436Y-118363998D01*
X117063764Y-118363998D01*
X117063764Y-118364001D01*
X117083487Y-118664921D01*
X117142316Y-118960678D01*
X117142316Y-118960679D01*
X117239254Y-119246250D01*
X117372634Y-119516718D01*
X117540174Y-119767461D01*
X117646108Y-119888254D01*
X117739011Y-119994189D01*
X117859804Y-120100122D01*
X117965738Y-120193025D01*
X118047491Y-120247650D01*
X118216482Y-120360566D01*
X118486948Y-120493945D01*
X118772509Y-120590880D01*
X118772516Y-120590881D01*
X118772521Y-120590883D01*
X118921721Y-120620560D01*
X119068280Y-120649713D01*
X119346500Y-120667948D01*
X119369199Y-120669436D01*
X119369200Y-120669436D01*
X119369201Y-120669436D01*
X119388924Y-120668143D01*
X119670120Y-120649713D01*
X119865089Y-120610930D01*
X119965878Y-120590883D01*
X119965879Y-120590883D01*
X119965883Y-120590881D01*
X119965891Y-120590880D01*
X120251452Y-120493945D01*
X120521918Y-120360566D01*
X120772661Y-120193025D01*
X120999389Y-119994189D01*
X121198225Y-119767461D01*
X121365766Y-119516718D01*
X121499145Y-119246252D01*
X121596080Y-118960691D01*
X121596081Y-118960683D01*
X121596083Y-118960679D01*
X121596083Y-118960678D01*
X121630114Y-118789590D01*
X121654913Y-118664920D01*
X121674636Y-118364000D01*
X121674636Y-118363998D01*
X128798564Y-118363998D01*
X128798564Y-118364001D01*
X128818287Y-118664921D01*
X128877116Y-118960678D01*
X128877116Y-118960679D01*
X128974054Y-119246250D01*
X129107434Y-119516718D01*
X129274974Y-119767461D01*
X129380908Y-119888254D01*
X129473811Y-119994189D01*
X129594604Y-120100122D01*
X129700538Y-120193025D01*
X129782291Y-120247650D01*
X129951282Y-120360566D01*
X130221748Y-120493945D01*
X130507309Y-120590880D01*
X130507316Y-120590881D01*
X130507321Y-120590883D01*
X130656521Y-120620560D01*
X130803080Y-120649713D01*
X131081300Y-120667948D01*
X131103999Y-120669436D01*
X131104000Y-120669436D01*
X131104001Y-120669436D01*
X131123724Y-120668143D01*
X131404920Y-120649713D01*
X131599889Y-120610930D01*
X131700678Y-120590883D01*
X131700679Y-120590883D01*
X131700683Y-120590881D01*
X131700691Y-120590880D01*
X131986252Y-120493945D01*
X132256718Y-120360566D01*
X132507461Y-120193025D01*
X132734189Y-119994189D01*
X132933025Y-119767461D01*
X133100566Y-119516718D01*
X133233945Y-119246252D01*
X133330880Y-118960691D01*
X133330881Y-118960683D01*
X133330883Y-118960679D01*
X133330883Y-118960678D01*
X133364914Y-118789590D01*
X133389713Y-118664920D01*
X133409436Y-118364000D01*
X133389713Y-118063080D01*
X133354244Y-117884765D01*
X133330883Y-117767321D01*
X133330883Y-117767320D01*
X133330881Y-117767314D01*
X133330880Y-117767309D01*
X133233945Y-117481748D01*
X133100566Y-117211282D01*
X132978089Y-117027982D01*
X132933025Y-116960538D01*
X132871866Y-116890800D01*
X143538765Y-116890800D01*
X143556825Y-117027982D01*
X143596085Y-117122765D01*
X143609776Y-117155818D01*
X143694009Y-117265591D01*
X143803782Y-117349824D01*
X143931617Y-117402774D01*
X144038949Y-117416905D01*
X144071427Y-117435655D01*
X144081134Y-117471880D01*
X144077824Y-117484235D01*
X144064825Y-117515619D01*
X144046765Y-117652800D01*
X144064825Y-117789980D01*
X144077824Y-117821364D01*
X144077823Y-117858867D01*
X144051303Y-117885385D01*
X144038949Y-117888695D01*
X143931617Y-117902825D01*
X143803787Y-117955773D01*
X143803782Y-117955776D01*
X143694009Y-118040008D01*
X143694008Y-118040009D01*
X143609776Y-118149782D01*
X143609773Y-118149787D01*
X143556825Y-118277617D01*
X143538765Y-118414800D01*
X143556825Y-118551982D01*
X143609774Y-118679814D01*
X143609776Y-118679818D01*
X143694009Y-118789591D01*
X143803782Y-118873824D01*
X143931617Y-118926774D01*
X144038949Y-118940905D01*
X144071427Y-118959655D01*
X144081134Y-118995880D01*
X144077824Y-119008235D01*
X144064825Y-119039619D01*
X144046765Y-119176800D01*
X144064825Y-119313982D01*
X144114070Y-119432871D01*
X144117776Y-119441818D01*
X144202009Y-119551591D01*
X144311782Y-119635824D01*
X144439617Y-119688774D01*
X144576800Y-119706835D01*
X144713983Y-119688774D01*
X144841818Y-119635824D01*
X144951591Y-119551591D01*
X145035824Y-119441818D01*
X145039530Y-119432869D01*
X145066047Y-119406351D01*
X145103550Y-119406350D01*
X145130068Y-119432866D01*
X145133776Y-119441818D01*
X145218009Y-119551591D01*
X145327782Y-119635824D01*
X145455617Y-119688774D01*
X145592800Y-119706835D01*
X145729983Y-119688774D01*
X145857818Y-119635824D01*
X145967591Y-119551591D01*
X146051824Y-119441818D01*
X146104774Y-119313983D01*
X146122835Y-119176800D01*
X146104774Y-119039617D01*
X146091776Y-119008236D01*
X146091776Y-118970733D01*
X146118295Y-118944215D01*
X146130644Y-118940905D01*
X146237983Y-118926774D01*
X146365818Y-118873824D01*
X146475591Y-118789591D01*
X146559824Y-118679818D01*
X146612774Y-118551983D01*
X146630835Y-118414800D01*
X146612774Y-118277617D01*
X146608800Y-118268022D01*
X146559826Y-118149787D01*
X146559823Y-118149782D01*
X146475592Y-118040010D01*
X146475589Y-118040008D01*
X146365818Y-117955776D01*
X146365814Y-117955774D01*
X146237982Y-117902825D01*
X146150121Y-117891258D01*
X146130648Y-117888694D01*
X146098171Y-117869943D01*
X146088464Y-117833718D01*
X146091771Y-117821373D01*
X146104774Y-117789983D01*
X146122835Y-117652800D01*
X146104774Y-117515617D01*
X146091776Y-117484236D01*
X146091776Y-117446733D01*
X146118295Y-117420215D01*
X146130644Y-117416905D01*
X146237983Y-117402774D01*
X146365818Y-117349824D01*
X146475591Y-117265591D01*
X146559824Y-117155818D01*
X146612774Y-117027983D01*
X146630835Y-116890800D01*
X146612774Y-116753617D01*
X146604570Y-116733811D01*
X146559826Y-116625787D01*
X146559823Y-116625782D01*
X146475592Y-116516010D01*
X146475589Y-116516008D01*
X146365818Y-116431776D01*
X146365814Y-116431774D01*
X146237982Y-116378825D01*
X146150121Y-116367258D01*
X146130648Y-116364694D01*
X146098171Y-116345943D01*
X146088464Y-116309718D01*
X146091771Y-116297373D01*
X146104774Y-116265983D01*
X146122835Y-116128800D01*
X146104774Y-115991617D01*
X146051824Y-115863783D01*
X145967591Y-115754009D01*
X145857818Y-115669776D01*
X145857814Y-115669774D01*
X145729982Y-115616825D01*
X145592800Y-115598765D01*
X145455617Y-115616825D01*
X145327787Y-115669773D01*
X145327782Y-115669776D01*
X145218009Y-115754008D01*
X145218008Y-115754009D01*
X145133776Y-115863782D01*
X145133775Y-115863784D01*
X145130070Y-115872730D01*
X145103551Y-115899248D01*
X145066048Y-115899248D01*
X145039530Y-115872730D01*
X145039158Y-115871832D01*
X145035824Y-115863783D01*
X144951591Y-115754009D01*
X144841818Y-115669776D01*
X144841814Y-115669774D01*
X144713982Y-115616825D01*
X144576800Y-115598765D01*
X144439617Y-115616825D01*
X144311787Y-115669773D01*
X144311782Y-115669776D01*
X144202009Y-115754008D01*
X144202008Y-115754009D01*
X144117776Y-115863782D01*
X144117773Y-115863787D01*
X144064825Y-115991617D01*
X144046765Y-116128800D01*
X144064825Y-116265980D01*
X144077824Y-116297364D01*
X144077823Y-116334867D01*
X144051303Y-116361385D01*
X144038949Y-116364695D01*
X143931617Y-116378825D01*
X143803787Y-116431773D01*
X143803782Y-116431776D01*
X143694009Y-116516008D01*
X143694008Y-116516009D01*
X143609776Y-116625782D01*
X143609773Y-116625787D01*
X143556825Y-116753617D01*
X143538765Y-116890800D01*
X132871866Y-116890800D01*
X132751558Y-116753617D01*
X132734189Y-116733811D01*
X132611006Y-116625782D01*
X132507461Y-116534974D01*
X132256718Y-116367434D01*
X131986250Y-116234054D01*
X131861325Y-116191648D01*
X131700691Y-116137120D01*
X131700688Y-116137119D01*
X131700678Y-116137116D01*
X131404921Y-116078287D01*
X131404922Y-116078287D01*
X131104001Y-116058564D01*
X131103999Y-116058564D01*
X130803078Y-116078287D01*
X130507321Y-116137116D01*
X130507320Y-116137116D01*
X130221749Y-116234054D01*
X129951281Y-116367434D01*
X129700538Y-116534974D01*
X129473811Y-116733811D01*
X129274974Y-116960538D01*
X129107434Y-117211281D01*
X128974054Y-117481749D01*
X128877116Y-117767320D01*
X128877116Y-117767321D01*
X128818287Y-118063078D01*
X128798564Y-118363998D01*
X121674636Y-118363998D01*
X121654913Y-118063080D01*
X121619444Y-117884765D01*
X121596083Y-117767321D01*
X121596083Y-117767320D01*
X121596081Y-117767314D01*
X121596080Y-117767309D01*
X121499145Y-117481748D01*
X121365766Y-117211282D01*
X121243289Y-117027982D01*
X121198225Y-116960538D01*
X121016758Y-116753617D01*
X120999389Y-116733811D01*
X120876206Y-116625782D01*
X120772661Y-116534974D01*
X120521918Y-116367434D01*
X120251450Y-116234054D01*
X120126525Y-116191648D01*
X119965891Y-116137120D01*
X119965888Y-116137119D01*
X119965878Y-116137116D01*
X119670121Y-116078287D01*
X119670122Y-116078287D01*
X119369201Y-116058564D01*
X119369199Y-116058564D01*
X119068278Y-116078287D01*
X118772521Y-116137116D01*
X118772520Y-116137116D01*
X118486949Y-116234054D01*
X118216481Y-116367434D01*
X117965738Y-116534974D01*
X117739011Y-116733811D01*
X117540174Y-116960538D01*
X117372634Y-117211281D01*
X117239254Y-117481749D01*
X117142316Y-117767320D01*
X117142316Y-117767321D01*
X117083487Y-118063078D01*
X117063764Y-118363998D01*
X109827436Y-118363998D01*
X109807713Y-118063080D01*
X109772244Y-117884765D01*
X109748883Y-117767321D01*
X109748883Y-117767320D01*
X109748881Y-117767314D01*
X109748880Y-117767309D01*
X109651945Y-117481748D01*
X109518566Y-117211282D01*
X109396089Y-117027982D01*
X109351025Y-116960538D01*
X109169558Y-116753617D01*
X109152189Y-116733811D01*
X109029006Y-116625782D01*
X108925461Y-116534974D01*
X108674718Y-116367434D01*
X108404250Y-116234054D01*
X108279325Y-116191648D01*
X108118691Y-116137120D01*
X108118688Y-116137119D01*
X108118678Y-116137116D01*
X107822921Y-116078287D01*
X107822922Y-116078287D01*
X107522001Y-116058564D01*
X107521999Y-116058564D01*
X107221078Y-116078287D01*
X106925321Y-116137116D01*
X106925320Y-116137116D01*
X106639749Y-116234054D01*
X106369281Y-116367434D01*
X106118538Y-116534974D01*
X105891811Y-116733811D01*
X105692974Y-116960538D01*
X105525434Y-117211281D01*
X105392054Y-117481749D01*
X105295116Y-117767320D01*
X105295116Y-117767321D01*
X105236287Y-118063078D01*
X105216564Y-118363998D01*
X100508500Y-118363998D01*
X100508500Y-115137597D01*
X141566900Y-115137597D01*
X141566900Y-115137599D01*
X141566900Y-115262801D01*
X141599305Y-115383736D01*
X141661905Y-115492164D01*
X141750436Y-115580695D01*
X141858864Y-115643295D01*
X141931425Y-115662738D01*
X141979797Y-115675700D01*
X141979799Y-115675700D01*
X142105003Y-115675700D01*
X142145312Y-115664898D01*
X142225936Y-115643295D01*
X142334364Y-115580695D01*
X142422895Y-115492164D01*
X142485495Y-115383736D01*
X142517900Y-115262801D01*
X142517900Y-115137599D01*
X142517900Y-115137597D01*
X147346900Y-115137597D01*
X147346900Y-115137599D01*
X147346900Y-115262801D01*
X147379305Y-115383736D01*
X147441905Y-115492164D01*
X147530436Y-115580695D01*
X147638864Y-115643295D01*
X147711425Y-115662738D01*
X147759797Y-115675700D01*
X147759799Y-115675700D01*
X147885003Y-115675700D01*
X147925312Y-115664898D01*
X148005936Y-115643295D01*
X148114364Y-115580695D01*
X148202895Y-115492164D01*
X148265495Y-115383736D01*
X148297900Y-115262801D01*
X148297900Y-115137599D01*
X148297900Y-115137597D01*
X148284938Y-115089225D01*
X148265495Y-115016664D01*
X148202895Y-114908236D01*
X148114364Y-114819705D01*
X148005936Y-114757105D01*
X147991641Y-114753274D01*
X147885003Y-114724700D01*
X147885001Y-114724700D01*
X147759799Y-114724700D01*
X147759797Y-114724700D01*
X147638867Y-114757104D01*
X147638866Y-114757104D01*
X147638864Y-114757105D01*
X147530436Y-114819705D01*
X147530433Y-114819707D01*
X147441907Y-114908233D01*
X147441905Y-114908236D01*
X147379305Y-115016664D01*
X147379304Y-115016666D01*
X147379304Y-115016667D01*
X147346900Y-115137597D01*
X142517900Y-115137597D01*
X142504938Y-115089225D01*
X142485495Y-115016664D01*
X142422895Y-114908236D01*
X142334364Y-114819705D01*
X142225936Y-114757105D01*
X142211641Y-114753274D01*
X142105003Y-114724700D01*
X142105001Y-114724700D01*
X141979799Y-114724700D01*
X141979797Y-114724700D01*
X141858867Y-114757104D01*
X141858866Y-114757104D01*
X141858864Y-114757105D01*
X141750436Y-114819705D01*
X141750433Y-114819707D01*
X141661907Y-114908233D01*
X141661905Y-114908236D01*
X141599305Y-115016664D01*
X141599304Y-115016666D01*
X141599304Y-115016667D01*
X141566900Y-115137597D01*
X100508500Y-115137597D01*
X100508500Y-113980000D01*
X102594565Y-113980000D01*
X102612625Y-114117182D01*
X102665574Y-114245014D01*
X102665576Y-114245018D01*
X102749809Y-114354791D01*
X102859582Y-114439024D01*
X102987417Y-114491974D01*
X103124600Y-114510035D01*
X103261783Y-114491974D01*
X103389618Y-114439024D01*
X103499391Y-114354791D01*
X103583624Y-114245018D01*
X103636574Y-114117183D01*
X103654635Y-113980000D01*
X103636574Y-113842817D01*
X103583624Y-113714983D01*
X103499391Y-113605209D01*
X103389618Y-113520976D01*
X103389614Y-113520974D01*
X103261782Y-113468025D01*
X103124600Y-113449965D01*
X102987417Y-113468025D01*
X102859587Y-113520973D01*
X102859582Y-113520976D01*
X102749809Y-113605208D01*
X102749808Y-113605209D01*
X102665576Y-113714982D01*
X102665573Y-113714987D01*
X102612625Y-113842817D01*
X102594565Y-113980000D01*
X100508500Y-113980000D01*
X100508500Y-113379600D01*
X109090365Y-113379600D01*
X109108425Y-113516782D01*
X109145053Y-113605210D01*
X109161376Y-113644618D01*
X109245609Y-113754391D01*
X109355382Y-113838624D01*
X109483217Y-113891574D01*
X109620400Y-113909635D01*
X109757583Y-113891574D01*
X109885418Y-113838624D01*
X109995191Y-113754391D01*
X110079424Y-113644618D01*
X110123586Y-113538000D01*
X115954365Y-113538000D01*
X115972425Y-113675182D01*
X116005234Y-113754390D01*
X116025376Y-113803018D01*
X116109609Y-113912791D01*
X116219382Y-113997024D01*
X116347217Y-114049974D01*
X116484400Y-114068035D01*
X116621583Y-114049974D01*
X116749418Y-113997024D01*
X116859191Y-113912791D01*
X116943424Y-113803018D01*
X116979136Y-113716800D01*
X150599965Y-113716800D01*
X150618025Y-113853982D01*
X150670223Y-113980000D01*
X150670976Y-113981818D01*
X150755209Y-114091591D01*
X150864982Y-114175824D01*
X150992817Y-114228774D01*
X151130000Y-114246835D01*
X151267183Y-114228774D01*
X151395018Y-114175824D01*
X151504791Y-114091591D01*
X151589024Y-113981818D01*
X151641974Y-113853983D01*
X151660035Y-113716800D01*
X151641974Y-113579617D01*
X151624736Y-113538000D01*
X151589026Y-113451787D01*
X151589023Y-113451782D01*
X151504792Y-113342010D01*
X151504789Y-113342008D01*
X151395018Y-113257776D01*
X151395014Y-113257774D01*
X151267182Y-113204825D01*
X151130000Y-113186765D01*
X150992817Y-113204825D01*
X150864987Y-113257773D01*
X150864982Y-113257776D01*
X150755209Y-113342008D01*
X150755208Y-113342009D01*
X150670976Y-113451782D01*
X150670973Y-113451787D01*
X150618025Y-113579617D01*
X150599965Y-113716800D01*
X116979136Y-113716800D01*
X116996374Y-113675183D01*
X117014435Y-113538000D01*
X116996374Y-113400817D01*
X116943424Y-113272983D01*
X116859191Y-113163209D01*
X116749418Y-113078976D01*
X116749414Y-113078974D01*
X116621582Y-113026025D01*
X116484400Y-113007965D01*
X116347217Y-113026025D01*
X116219387Y-113078973D01*
X116219382Y-113078976D01*
X116109609Y-113163208D01*
X116109608Y-113163209D01*
X116025376Y-113272982D01*
X116025373Y-113272987D01*
X115972425Y-113400817D01*
X115954365Y-113538000D01*
X110123586Y-113538000D01*
X110132374Y-113516783D01*
X110150435Y-113379600D01*
X110132374Y-113242417D01*
X110079426Y-113114587D01*
X110079423Y-113114582D01*
X110070408Y-113102834D01*
X110015921Y-113031825D01*
X109995192Y-113004810D01*
X109995189Y-113004808D01*
X109885418Y-112920576D01*
X109885414Y-112920574D01*
X109757582Y-112867625D01*
X109620400Y-112849565D01*
X109483217Y-112867625D01*
X109355387Y-112920573D01*
X109355382Y-112920576D01*
X109245609Y-113004808D01*
X109245608Y-113004809D01*
X109161376Y-113114582D01*
X109161373Y-113114587D01*
X109108425Y-113242417D01*
X109090365Y-113379600D01*
X100508500Y-113379600D01*
X100508500Y-112490600D01*
X109979365Y-112490600D01*
X109997425Y-112627782D01*
X110050374Y-112755614D01*
X110050376Y-112755618D01*
X110134609Y-112865391D01*
X110244382Y-112949624D01*
X110372217Y-113002574D01*
X110509400Y-113020635D01*
X110646583Y-113002574D01*
X110774418Y-112949624D01*
X110884191Y-112865391D01*
X110968424Y-112755618D01*
X111021374Y-112627783D01*
X111028613Y-112572800D01*
X114989165Y-112572800D01*
X115007225Y-112709982D01*
X115026128Y-112755618D01*
X115060176Y-112837818D01*
X115144409Y-112947591D01*
X115254182Y-113031824D01*
X115382017Y-113084774D01*
X115519200Y-113102835D01*
X115656383Y-113084774D01*
X115784218Y-113031824D01*
X115893991Y-112947591D01*
X115978224Y-112837818D01*
X116031174Y-112709983D01*
X116049235Y-112572800D01*
X116031174Y-112435617D01*
X115978224Y-112307783D01*
X115936107Y-112252896D01*
X115893992Y-112198010D01*
X115893989Y-112198008D01*
X115784218Y-112113776D01*
X115784214Y-112113774D01*
X115656382Y-112060825D01*
X115519200Y-112042765D01*
X115382017Y-112060825D01*
X115254187Y-112113773D01*
X115254182Y-112113776D01*
X115144409Y-112198008D01*
X115144408Y-112198009D01*
X115060176Y-112307782D01*
X115060173Y-112307787D01*
X115007225Y-112435617D01*
X114989165Y-112572800D01*
X111028613Y-112572800D01*
X111039435Y-112490600D01*
X111021374Y-112353417D01*
X110968424Y-112225583D01*
X110884191Y-112115809D01*
X110774418Y-112031576D01*
X110774414Y-112031574D01*
X110646582Y-111978625D01*
X110509400Y-111960565D01*
X110372217Y-111978625D01*
X110244387Y-112031573D01*
X110244382Y-112031576D01*
X110134609Y-112115808D01*
X110134608Y-112115809D01*
X110050376Y-112225582D01*
X110050373Y-112225587D01*
X109997425Y-112353417D01*
X109979365Y-112490600D01*
X100508500Y-112490600D01*
X100508500Y-109000000D01*
X101894615Y-109000000D01*
X101914140Y-109347685D01*
X101914140Y-109347691D01*
X101914141Y-109347693D01*
X101958234Y-109607210D01*
X101972475Y-109691023D01*
X102025760Y-109875976D01*
X102068879Y-110025644D01*
X102087245Y-110069983D01*
X102202140Y-110347365D01*
X102202147Y-110347380D01*
X102370595Y-110652165D01*
X102370600Y-110652172D01*
X102572106Y-110936169D01*
X102572122Y-110936188D01*
X102655608Y-111029608D01*
X102804161Y-111195839D01*
X102939944Y-111317182D01*
X103063811Y-111427877D01*
X103063830Y-111427893D01*
X103347827Y-111629399D01*
X103347834Y-111629404D01*
X103420227Y-111669414D01*
X103652624Y-111797855D01*
X103974356Y-111931121D01*
X104265618Y-112015032D01*
X104308976Y-112027524D01*
X104308977Y-112027524D01*
X104308987Y-112027527D01*
X104652307Y-112085859D01*
X105000000Y-112105385D01*
X105347693Y-112085859D01*
X105691013Y-112027527D01*
X106025644Y-111931121D01*
X106347376Y-111797855D01*
X106652164Y-111629405D01*
X106936176Y-111427888D01*
X106962459Y-111404400D01*
X110877965Y-111404400D01*
X110896025Y-111541582D01*
X110932402Y-111629404D01*
X110948976Y-111669418D01*
X111033209Y-111779191D01*
X111142982Y-111863424D01*
X111270817Y-111916374D01*
X111408000Y-111934435D01*
X111545183Y-111916374D01*
X111673018Y-111863424D01*
X111782791Y-111779191D01*
X111867024Y-111669418D01*
X111903150Y-111582200D01*
X113998565Y-111582200D01*
X114016625Y-111719382D01*
X114049131Y-111797859D01*
X114069576Y-111847218D01*
X114153809Y-111956991D01*
X114263582Y-112041224D01*
X114391417Y-112094174D01*
X114528600Y-112112235D01*
X114665783Y-112094174D01*
X114793618Y-112041224D01*
X114903391Y-111956991D01*
X114987624Y-111847218D01*
X115040574Y-111719383D01*
X115058635Y-111582200D01*
X115040574Y-111445017D01*
X115033479Y-111427888D01*
X114987626Y-111317187D01*
X114987623Y-111317182D01*
X114974387Y-111299933D01*
X114940656Y-111255974D01*
X114903392Y-111207410D01*
X114903389Y-111207408D01*
X114793618Y-111123176D01*
X114793614Y-111123174D01*
X114665782Y-111070225D01*
X114528600Y-111052165D01*
X114391417Y-111070225D01*
X114263587Y-111123173D01*
X114263582Y-111123176D01*
X114153809Y-111207408D01*
X114153808Y-111207409D01*
X114069576Y-111317182D01*
X114069573Y-111317187D01*
X114016625Y-111445017D01*
X113998565Y-111582200D01*
X111903150Y-111582200D01*
X111919974Y-111541583D01*
X111938035Y-111404400D01*
X111919974Y-111267217D01*
X111909107Y-111240982D01*
X111867026Y-111139387D01*
X111867023Y-111139382D01*
X111860752Y-111131210D01*
X111798917Y-111050625D01*
X111782792Y-111029610D01*
X111782789Y-111029608D01*
X111673018Y-110945376D01*
X111673014Y-110945374D01*
X111545182Y-110892425D01*
X111408000Y-110874365D01*
X111270817Y-110892425D01*
X111142987Y-110945373D01*
X111142982Y-110945376D01*
X111033209Y-111029608D01*
X111033208Y-111029609D01*
X110948976Y-111139382D01*
X110948973Y-111139387D01*
X110896025Y-111267217D01*
X110877965Y-111404400D01*
X106962459Y-111404400D01*
X107195839Y-111195839D01*
X107427888Y-110936176D01*
X107629405Y-110652164D01*
X107797855Y-110347376D01*
X107843989Y-110236000D01*
X110877965Y-110236000D01*
X110896025Y-110373182D01*
X110948630Y-110500183D01*
X110948976Y-110501018D01*
X111033209Y-110610791D01*
X111142982Y-110695024D01*
X111270817Y-110747974D01*
X111408000Y-110766035D01*
X111545183Y-110747974D01*
X111673018Y-110695024D01*
X111782791Y-110610791D01*
X111797517Y-110591600D01*
X113007965Y-110591600D01*
X113026025Y-110728782D01*
X113064647Y-110822024D01*
X113078976Y-110856618D01*
X113163209Y-110966391D01*
X113272982Y-111050624D01*
X113400817Y-111103574D01*
X113538000Y-111121635D01*
X113675183Y-111103574D01*
X113803018Y-111050624D01*
X113912791Y-110966391D01*
X113997024Y-110856618D01*
X114049974Y-110728783D01*
X114068035Y-110591600D01*
X114049974Y-110454417D01*
X114044427Y-110441025D01*
X113997026Y-110326587D01*
X113997023Y-110326582D01*
X113912792Y-110216810D01*
X113912789Y-110216808D01*
X113803018Y-110132576D01*
X113803014Y-110132574D01*
X113675182Y-110079625D01*
X113538000Y-110061565D01*
X113400817Y-110079625D01*
X113272987Y-110132573D01*
X113272982Y-110132576D01*
X113163209Y-110216808D01*
X113163208Y-110216809D01*
X113078976Y-110326582D01*
X113078973Y-110326587D01*
X113026025Y-110454417D01*
X113007965Y-110591600D01*
X111797517Y-110591600D01*
X111867024Y-110501018D01*
X111919974Y-110373183D01*
X111938035Y-110236000D01*
X111919974Y-110098817D01*
X111912025Y-110079626D01*
X111867026Y-109970987D01*
X111867023Y-109970982D01*
X111858757Y-109960210D01*
X111782791Y-109861209D01*
X111673018Y-109776976D01*
X111673014Y-109776974D01*
X111545182Y-109724025D01*
X111408000Y-109705965D01*
X111270817Y-109724025D01*
X111142987Y-109776973D01*
X111142982Y-109776976D01*
X111033209Y-109861208D01*
X111033208Y-109861209D01*
X110948976Y-109970982D01*
X110948973Y-109970987D01*
X110896025Y-110098817D01*
X110877965Y-110236000D01*
X107843989Y-110236000D01*
X107931121Y-110025644D01*
X108027527Y-109691013D01*
X108042821Y-109601000D01*
X112017365Y-109601000D01*
X112035425Y-109738182D01*
X112086384Y-109861209D01*
X112088376Y-109866018D01*
X112172609Y-109975791D01*
X112282382Y-110060024D01*
X112410217Y-110112974D01*
X112547400Y-110131035D01*
X112684583Y-110112974D01*
X112812418Y-110060024D01*
X112922191Y-109975791D01*
X113006424Y-109866018D01*
X113059374Y-109738183D01*
X113077435Y-109601000D01*
X113059374Y-109463817D01*
X113019179Y-109366777D01*
X113006426Y-109335987D01*
X113006423Y-109335982D01*
X112922192Y-109226210D01*
X112922189Y-109226208D01*
X112812418Y-109141976D01*
X112812414Y-109141974D01*
X112684582Y-109089025D01*
X112547400Y-109070965D01*
X112410217Y-109089025D01*
X112282387Y-109141973D01*
X112282382Y-109141976D01*
X112172609Y-109226208D01*
X112172608Y-109226209D01*
X112088376Y-109335982D01*
X112088373Y-109335987D01*
X112035425Y-109463817D01*
X112017365Y-109601000D01*
X108042821Y-109601000D01*
X108085859Y-109347693D01*
X108105385Y-109000000D01*
X108085859Y-108652307D01*
X108027527Y-108308987D01*
X107931121Y-107974356D01*
X107797855Y-107652624D01*
X107629405Y-107347836D01*
X107577877Y-107275214D01*
X107427893Y-107063830D01*
X107427877Y-107063811D01*
X107379967Y-107010200D01*
X110877965Y-107010200D01*
X110896025Y-107147382D01*
X110948974Y-107275214D01*
X110948976Y-107275218D01*
X111033209Y-107384991D01*
X111142982Y-107469224D01*
X111168351Y-107479731D01*
X111182590Y-107485630D01*
X111209109Y-107512148D01*
X111209109Y-107549651D01*
X111182591Y-107576170D01*
X111182590Y-107576170D01*
X111142987Y-107592573D01*
X111142982Y-107592576D01*
X111033209Y-107676808D01*
X111033208Y-107676809D01*
X110948976Y-107786582D01*
X110948973Y-107786587D01*
X110896025Y-107914417D01*
X110877965Y-108051600D01*
X110896025Y-108188782D01*
X110945815Y-108308987D01*
X110948976Y-108316618D01*
X111033209Y-108426391D01*
X111142982Y-108510624D01*
X111150518Y-108513745D01*
X111151929Y-108514330D01*
X111178447Y-108540849D01*
X111178447Y-108578352D01*
X111151930Y-108604869D01*
X111142989Y-108608572D01*
X111142982Y-108608576D01*
X111033209Y-108692808D01*
X111033208Y-108692809D01*
X110948976Y-108802582D01*
X110948973Y-108802587D01*
X110896025Y-108930417D01*
X110877965Y-109067600D01*
X110896025Y-109204782D01*
X110904901Y-109226210D01*
X110948976Y-109332618D01*
X111033209Y-109442391D01*
X111142982Y-109526624D01*
X111270817Y-109579574D01*
X111408000Y-109597635D01*
X111545183Y-109579574D01*
X111673018Y-109526624D01*
X111782791Y-109442391D01*
X111867024Y-109332618D01*
X111919974Y-109204783D01*
X111938035Y-109067600D01*
X111919974Y-108930417D01*
X111914427Y-108917025D01*
X111867026Y-108802587D01*
X111867023Y-108802582D01*
X111782792Y-108692810D01*
X111782791Y-108692809D01*
X111673018Y-108608576D01*
X111664069Y-108604869D01*
X111637551Y-108578353D01*
X111637550Y-108540850D01*
X111664066Y-108514331D01*
X111673018Y-108510624D01*
X111741598Y-108458000D01*
X117833965Y-108458000D01*
X117852025Y-108595182D01*
X117898766Y-108708026D01*
X117904976Y-108723018D01*
X117989209Y-108832791D01*
X118098982Y-108917024D01*
X118226817Y-108969974D01*
X118334149Y-108984105D01*
X118366627Y-109002855D01*
X118376334Y-109039080D01*
X118373024Y-109051435D01*
X118360025Y-109082819D01*
X118341965Y-109220000D01*
X118360025Y-109357180D01*
X118373024Y-109388564D01*
X118373023Y-109426067D01*
X118346503Y-109452585D01*
X118334149Y-109455895D01*
X118226817Y-109470025D01*
X118098987Y-109522973D01*
X118098982Y-109522976D01*
X117989209Y-109607208D01*
X117989208Y-109607209D01*
X117904976Y-109716982D01*
X117904973Y-109716987D01*
X117852025Y-109844817D01*
X117833965Y-109982000D01*
X117852025Y-110119182D01*
X117898766Y-110232026D01*
X117904976Y-110247018D01*
X117989209Y-110356791D01*
X118098982Y-110441024D01*
X118226817Y-110493974D01*
X118334149Y-110508105D01*
X118366627Y-110526855D01*
X118376334Y-110563080D01*
X118373024Y-110575435D01*
X118360025Y-110606819D01*
X118341965Y-110744000D01*
X118360025Y-110881180D01*
X118360025Y-110881182D01*
X118360026Y-110881183D01*
X118364683Y-110892426D01*
X118373024Y-110912564D01*
X118373023Y-110950067D01*
X118346503Y-110976585D01*
X118334149Y-110979895D01*
X118226817Y-110994025D01*
X118098987Y-111046973D01*
X118098982Y-111046976D01*
X117989209Y-111131208D01*
X117989208Y-111131209D01*
X117904976Y-111240982D01*
X117904973Y-111240987D01*
X117852025Y-111368817D01*
X117833965Y-111506000D01*
X117852025Y-111643182D01*
X117901270Y-111762071D01*
X117904976Y-111771018D01*
X117989209Y-111880791D01*
X118098982Y-111965024D01*
X118226817Y-112017974D01*
X118364000Y-112036035D01*
X118501183Y-112017974D01*
X118629018Y-111965024D01*
X118738791Y-111880791D01*
X118823024Y-111771018D01*
X118826730Y-111762069D01*
X118853247Y-111735551D01*
X118890750Y-111735550D01*
X118917268Y-111762066D01*
X118920976Y-111771018D01*
X119005209Y-111880791D01*
X119114982Y-111965024D01*
X119242817Y-112017974D01*
X119380000Y-112036035D01*
X119517183Y-112017974D01*
X119645018Y-111965024D01*
X119754791Y-111880791D01*
X119839024Y-111771018D01*
X119891974Y-111643183D01*
X119910035Y-111506000D01*
X119891974Y-111368817D01*
X119873858Y-111325080D01*
X119839026Y-111240987D01*
X119839023Y-111240982D01*
X119754792Y-111131210D01*
X119754789Y-111131208D01*
X119645018Y-111046976D01*
X119645014Y-111046974D01*
X119517182Y-110994025D01*
X119429321Y-110982458D01*
X119409848Y-110979894D01*
X119377371Y-110961143D01*
X119367664Y-110924918D01*
X119370971Y-110912573D01*
X119383974Y-110881183D01*
X119402035Y-110744000D01*
X119383974Y-110606817D01*
X119370976Y-110575436D01*
X119370976Y-110537933D01*
X119397495Y-110511415D01*
X119409844Y-110508105D01*
X119517183Y-110493974D01*
X119645018Y-110441024D01*
X119746699Y-110363000D01*
X120500965Y-110363000D01*
X120519025Y-110500182D01*
X120560378Y-110600018D01*
X120571976Y-110628018D01*
X120656209Y-110737791D01*
X120765982Y-110822024D01*
X120893817Y-110874974D01*
X121031000Y-110893035D01*
X121168183Y-110874974D01*
X121296018Y-110822024D01*
X121405791Y-110737791D01*
X121490024Y-110628018D01*
X121542974Y-110500183D01*
X121561035Y-110363000D01*
X121542974Y-110225817D01*
X121527338Y-110188067D01*
X121490026Y-110097987D01*
X121490023Y-110097982D01*
X121405792Y-109988210D01*
X121405789Y-109988208D01*
X121296018Y-109903976D01*
X121296014Y-109903974D01*
X121168182Y-109851025D01*
X121031000Y-109832965D01*
X120893817Y-109851025D01*
X120765987Y-109903973D01*
X120765982Y-109903976D01*
X120656209Y-109988208D01*
X120656208Y-109988209D01*
X120571976Y-110097982D01*
X120571973Y-110097987D01*
X120519025Y-110225817D01*
X120500965Y-110363000D01*
X119746699Y-110363000D01*
X119754791Y-110356791D01*
X119839024Y-110247018D01*
X119891974Y-110119183D01*
X119910035Y-109982000D01*
X119891974Y-109844817D01*
X119863873Y-109776974D01*
X119839026Y-109716987D01*
X119839023Y-109716982D01*
X119830569Y-109705965D01*
X119754791Y-109607209D01*
X119645018Y-109522976D01*
X119645014Y-109522974D01*
X119517182Y-109470025D01*
X119429321Y-109458458D01*
X119409848Y-109455894D01*
X119377371Y-109437143D01*
X119367664Y-109400918D01*
X119370971Y-109388573D01*
X119383974Y-109357183D01*
X119402035Y-109220000D01*
X123167965Y-109220000D01*
X123186025Y-109357182D01*
X123232766Y-109470026D01*
X123238976Y-109485018D01*
X123323209Y-109594791D01*
X123432982Y-109679024D01*
X123560817Y-109731974D01*
X123668149Y-109746105D01*
X123700627Y-109764855D01*
X123710334Y-109801080D01*
X123707024Y-109813435D01*
X123694025Y-109844819D01*
X123675965Y-109982000D01*
X123694025Y-110119180D01*
X123694025Y-110119182D01*
X123694026Y-110119183D01*
X123702858Y-110140507D01*
X123707024Y-110150564D01*
X123707023Y-110188067D01*
X123680503Y-110214585D01*
X123668149Y-110217895D01*
X123560817Y-110232025D01*
X123432987Y-110284973D01*
X123432982Y-110284976D01*
X123323209Y-110369208D01*
X123323208Y-110369209D01*
X123238976Y-110478982D01*
X123238973Y-110478987D01*
X123186025Y-110606817D01*
X123167965Y-110744000D01*
X123186025Y-110881182D01*
X123232766Y-110994026D01*
X123238976Y-111009018D01*
X123323209Y-111118791D01*
X123432982Y-111203024D01*
X123560817Y-111255974D01*
X123668149Y-111270105D01*
X123700627Y-111288855D01*
X123710334Y-111325080D01*
X123707024Y-111337435D01*
X123694025Y-111368819D01*
X123675965Y-111506000D01*
X123694025Y-111643182D01*
X123743270Y-111762071D01*
X123746976Y-111771018D01*
X123831209Y-111880791D01*
X123940982Y-111965024D01*
X124068817Y-112017974D01*
X124206000Y-112036035D01*
X124343183Y-112017974D01*
X124471018Y-111965024D01*
X124580791Y-111880791D01*
X124665024Y-111771018D01*
X124668730Y-111762069D01*
X124695247Y-111735551D01*
X124732750Y-111735550D01*
X124759268Y-111762066D01*
X124762976Y-111771018D01*
X124847209Y-111880791D01*
X124956982Y-111965024D01*
X125084817Y-112017974D01*
X125222000Y-112036035D01*
X125359183Y-112017974D01*
X125487018Y-111965024D01*
X125596791Y-111880791D01*
X125681024Y-111771018D01*
X125733974Y-111643183D01*
X125752035Y-111506000D01*
X125733974Y-111368817D01*
X125720976Y-111337436D01*
X125720976Y-111299933D01*
X125747495Y-111273415D01*
X125759844Y-111270105D01*
X125867183Y-111255974D01*
X125995018Y-111203024D01*
X126104791Y-111118791D01*
X126189024Y-111009018D01*
X126241974Y-110881183D01*
X126260035Y-110744000D01*
X126241974Y-110606817D01*
X126208853Y-110526855D01*
X126189026Y-110478987D01*
X126189023Y-110478982D01*
X126150670Y-110429000D01*
X127866965Y-110429000D01*
X127885025Y-110566182D01*
X127920640Y-110652165D01*
X127937976Y-110694018D01*
X128022209Y-110803791D01*
X128131982Y-110888024D01*
X128259817Y-110940974D01*
X128397000Y-110959035D01*
X128534183Y-110940974D01*
X128662018Y-110888024D01*
X128771791Y-110803791D01*
X128856024Y-110694018D01*
X128908974Y-110566183D01*
X128927035Y-110429000D01*
X128908974Y-110291817D01*
X128878355Y-110217895D01*
X128856026Y-110163987D01*
X128856023Y-110163982D01*
X128771792Y-110054210D01*
X128771789Y-110054208D01*
X128662018Y-109969976D01*
X128662014Y-109969974D01*
X128534182Y-109917025D01*
X128397000Y-109898965D01*
X128259817Y-109917025D01*
X128131987Y-109969973D01*
X128131982Y-109969976D01*
X128022209Y-110054208D01*
X128022208Y-110054209D01*
X127937976Y-110163982D01*
X127937973Y-110163987D01*
X127885025Y-110291817D01*
X127866965Y-110429000D01*
X126150670Y-110429000D01*
X126104792Y-110369210D01*
X126104789Y-110369208D01*
X125995018Y-110284976D01*
X125995014Y-110284974D01*
X125867182Y-110232025D01*
X125779321Y-110220458D01*
X125759848Y-110217894D01*
X125727371Y-110199143D01*
X125717664Y-110162918D01*
X125720971Y-110150573D01*
X125733974Y-110119183D01*
X125752035Y-109982000D01*
X125733974Y-109844817D01*
X125720976Y-109813436D01*
X125720976Y-109775933D01*
X125747495Y-109749415D01*
X125759844Y-109746105D01*
X125867183Y-109731974D01*
X125995018Y-109679024D01*
X126104791Y-109594791D01*
X126189024Y-109485018D01*
X126241974Y-109357183D01*
X126260035Y-109220000D01*
X130533965Y-109220000D01*
X130552025Y-109357182D01*
X130598766Y-109470026D01*
X130604976Y-109485018D01*
X130689209Y-109594791D01*
X130798982Y-109679024D01*
X130926817Y-109731974D01*
X131034149Y-109746105D01*
X131066627Y-109764855D01*
X131076334Y-109801080D01*
X131073024Y-109813435D01*
X131060025Y-109844819D01*
X131041965Y-109982000D01*
X131060025Y-110119180D01*
X131060025Y-110119182D01*
X131060026Y-110119183D01*
X131068858Y-110140507D01*
X131073024Y-110150564D01*
X131073023Y-110188067D01*
X131046503Y-110214585D01*
X131034149Y-110217895D01*
X130926817Y-110232025D01*
X130798987Y-110284973D01*
X130798982Y-110284976D01*
X130689209Y-110369208D01*
X130689208Y-110369209D01*
X130604976Y-110478982D01*
X130604973Y-110478987D01*
X130552025Y-110606817D01*
X130533965Y-110744000D01*
X130552025Y-110881182D01*
X130598766Y-110994026D01*
X130604976Y-111009018D01*
X130689209Y-111118791D01*
X130798982Y-111203024D01*
X130926817Y-111255974D01*
X131034149Y-111270105D01*
X131066627Y-111288855D01*
X131076334Y-111325080D01*
X131073024Y-111337435D01*
X131060025Y-111368819D01*
X131041965Y-111506000D01*
X131060025Y-111643182D01*
X131109270Y-111762071D01*
X131112976Y-111771018D01*
X131197209Y-111880791D01*
X131306982Y-111965024D01*
X131434817Y-112017974D01*
X131572000Y-112036035D01*
X131709183Y-112017974D01*
X131837018Y-111965024D01*
X131946791Y-111880791D01*
X132031024Y-111771018D01*
X132034730Y-111762069D01*
X132061247Y-111735551D01*
X132098750Y-111735550D01*
X132125268Y-111762066D01*
X132128976Y-111771018D01*
X132213209Y-111880791D01*
X132322982Y-111965024D01*
X132450817Y-112017974D01*
X132588000Y-112036035D01*
X132725183Y-112017974D01*
X132853018Y-111965024D01*
X132962791Y-111880791D01*
X133047024Y-111771018D01*
X133099974Y-111643183D01*
X133118035Y-111506000D01*
X133099974Y-111368817D01*
X133086976Y-111337436D01*
X133086976Y-111299933D01*
X133113495Y-111273415D01*
X133125844Y-111270105D01*
X133233183Y-111255974D01*
X133361018Y-111203024D01*
X133470791Y-111118791D01*
X133555024Y-111009018D01*
X133607974Y-110881183D01*
X133626035Y-110744000D01*
X133607974Y-110606817D01*
X133574853Y-110526855D01*
X133555026Y-110478987D01*
X133555023Y-110478982D01*
X133470792Y-110369210D01*
X133470789Y-110369208D01*
X133426209Y-110335000D01*
X135232965Y-110335000D01*
X135251025Y-110472182D01*
X135293794Y-110575436D01*
X135303976Y-110600018D01*
X135388209Y-110709791D01*
X135497982Y-110794024D01*
X135625817Y-110846974D01*
X135763000Y-110865035D01*
X135900183Y-110846974D01*
X136028018Y-110794024D01*
X136137791Y-110709791D01*
X136222024Y-110600018D01*
X136274974Y-110472183D01*
X136293035Y-110335000D01*
X136274974Y-110197817D01*
X136260519Y-110162918D01*
X136222026Y-110069987D01*
X136222023Y-110069982D01*
X136215564Y-110061565D01*
X136146058Y-109970983D01*
X136137792Y-109960210D01*
X136137789Y-109960208D01*
X136028018Y-109875976D01*
X136028014Y-109875974D01*
X135900182Y-109823025D01*
X135763000Y-109804965D01*
X135625817Y-109823025D01*
X135497987Y-109875973D01*
X135497982Y-109875976D01*
X135388209Y-109960208D01*
X135388208Y-109960209D01*
X135303976Y-110069982D01*
X135303973Y-110069987D01*
X135251025Y-110197817D01*
X135232965Y-110335000D01*
X133426209Y-110335000D01*
X133361018Y-110284976D01*
X133361014Y-110284974D01*
X133233182Y-110232025D01*
X133145321Y-110220458D01*
X133125848Y-110217894D01*
X133093371Y-110199143D01*
X133083664Y-110162918D01*
X133086971Y-110150573D01*
X133099974Y-110119183D01*
X133118035Y-109982000D01*
X133099974Y-109844817D01*
X133086976Y-109813436D01*
X133086976Y-109775933D01*
X133113495Y-109749415D01*
X133125844Y-109746105D01*
X133233183Y-109731974D01*
X133361018Y-109679024D01*
X133470791Y-109594791D01*
X133555024Y-109485018D01*
X133607974Y-109357183D01*
X133626035Y-109220000D01*
X137772965Y-109220000D01*
X137791025Y-109357182D01*
X137837766Y-109470026D01*
X137843976Y-109485018D01*
X137928209Y-109594791D01*
X138037982Y-109679024D01*
X138165817Y-109731974D01*
X138273149Y-109746105D01*
X138305627Y-109764855D01*
X138315334Y-109801080D01*
X138312024Y-109813435D01*
X138299025Y-109844819D01*
X138280965Y-109982000D01*
X138299025Y-110119180D01*
X138299025Y-110119182D01*
X138299026Y-110119183D01*
X138307858Y-110140507D01*
X138312024Y-110150564D01*
X138312023Y-110188067D01*
X138285503Y-110214585D01*
X138273149Y-110217895D01*
X138165817Y-110232025D01*
X138037987Y-110284973D01*
X138037982Y-110284976D01*
X137928209Y-110369208D01*
X137928208Y-110369209D01*
X137843976Y-110478982D01*
X137843973Y-110478987D01*
X137791025Y-110606817D01*
X137772965Y-110744000D01*
X137791025Y-110881182D01*
X137837766Y-110994026D01*
X137843976Y-111009018D01*
X137928209Y-111118791D01*
X138037982Y-111203024D01*
X138165817Y-111255974D01*
X138273149Y-111270105D01*
X138305627Y-111288855D01*
X138315334Y-111325080D01*
X138312024Y-111337435D01*
X138299025Y-111368819D01*
X138280965Y-111506000D01*
X138299025Y-111643182D01*
X138348270Y-111762071D01*
X138351976Y-111771018D01*
X138436209Y-111880791D01*
X138545982Y-111965024D01*
X138673817Y-112017974D01*
X138811000Y-112036035D01*
X138948183Y-112017974D01*
X139076018Y-111965024D01*
X139185791Y-111880791D01*
X139270024Y-111771018D01*
X139273730Y-111762069D01*
X139300247Y-111735551D01*
X139337750Y-111735550D01*
X139364268Y-111762066D01*
X139367976Y-111771018D01*
X139452209Y-111880791D01*
X139561982Y-111965024D01*
X139689817Y-112017974D01*
X139827000Y-112036035D01*
X139964183Y-112017974D01*
X140092018Y-111965024D01*
X140201791Y-111880791D01*
X140286024Y-111771018D01*
X140338974Y-111643183D01*
X140357035Y-111506000D01*
X140338974Y-111368817D01*
X140325976Y-111337436D01*
X140325976Y-111299933D01*
X140352495Y-111273415D01*
X140364844Y-111270105D01*
X140472183Y-111255974D01*
X140600018Y-111203024D01*
X140709791Y-111118791D01*
X140794024Y-111009018D01*
X140846974Y-110881183D01*
X140865035Y-110744000D01*
X140846974Y-110606817D01*
X140813853Y-110526855D01*
X140794026Y-110478987D01*
X140794023Y-110478982D01*
X140709792Y-110369210D01*
X140709789Y-110369208D01*
X140600018Y-110284976D01*
X140600014Y-110284974D01*
X140472182Y-110232025D01*
X140384321Y-110220458D01*
X140364848Y-110217894D01*
X140332371Y-110199143D01*
X140322664Y-110162918D01*
X140325971Y-110150573D01*
X140338974Y-110119183D01*
X140357035Y-109982000D01*
X140338974Y-109844817D01*
X140325976Y-109813436D01*
X140325976Y-109775933D01*
X140352495Y-109749415D01*
X140364844Y-109746105D01*
X140472183Y-109731974D01*
X140600018Y-109679024D01*
X140709791Y-109594791D01*
X140794024Y-109485018D01*
X140846974Y-109357183D01*
X140865035Y-109220000D01*
X140846974Y-109082817D01*
X140813853Y-109002855D01*
X140812670Y-109000000D01*
X146894615Y-109000000D01*
X146914140Y-109347685D01*
X146914140Y-109347691D01*
X146914141Y-109347693D01*
X146958234Y-109607210D01*
X146972475Y-109691023D01*
X147025760Y-109875976D01*
X147068879Y-110025644D01*
X147087245Y-110069983D01*
X147202140Y-110347365D01*
X147202147Y-110347380D01*
X147370595Y-110652165D01*
X147370600Y-110652172D01*
X147572106Y-110936169D01*
X147572122Y-110936188D01*
X147655608Y-111029608D01*
X147804161Y-111195839D01*
X147939944Y-111317182D01*
X148063811Y-111427877D01*
X148063830Y-111427893D01*
X148347827Y-111629399D01*
X148347834Y-111629404D01*
X148420227Y-111669414D01*
X148652624Y-111797855D01*
X148974356Y-111931121D01*
X149265618Y-112015032D01*
X149308976Y-112027524D01*
X149308977Y-112027524D01*
X149308987Y-112027527D01*
X149652307Y-112085859D01*
X150000000Y-112105385D01*
X150347693Y-112085859D01*
X150691013Y-112027527D01*
X151025644Y-111931121D01*
X151347376Y-111797855D01*
X151652164Y-111629405D01*
X151936176Y-111427888D01*
X152195839Y-111195839D01*
X152427888Y-110936176D01*
X152629405Y-110652164D01*
X152797855Y-110347376D01*
X152931121Y-110025644D01*
X153027527Y-109691013D01*
X153085859Y-109347693D01*
X153105385Y-109000000D01*
X153085859Y-108652307D01*
X153027527Y-108308987D01*
X152931121Y-107974356D01*
X152797855Y-107652624D01*
X152629405Y-107347836D01*
X152577877Y-107275214D01*
X152427893Y-107063830D01*
X152427877Y-107063811D01*
X152257372Y-106873017D01*
X152195839Y-106804161D01*
X152007007Y-106635410D01*
X151936188Y-106572122D01*
X151936169Y-106572106D01*
X151652172Y-106370600D01*
X151652165Y-106370595D01*
X151347380Y-106202147D01*
X151347365Y-106202140D01*
X151025646Y-106068880D01*
X151025647Y-106068880D01*
X151025644Y-106068879D01*
X150916956Y-106037566D01*
X150691023Y-105972475D01*
X150691015Y-105972473D01*
X150691013Y-105972473D01*
X150347693Y-105914141D01*
X150347691Y-105914140D01*
X150347685Y-105914140D01*
X150000000Y-105894615D01*
X149652314Y-105914140D01*
X149652307Y-105914141D01*
X149308987Y-105972473D01*
X149308985Y-105972473D01*
X149308976Y-105972475D01*
X148974353Y-106068880D01*
X148652634Y-106202140D01*
X148652619Y-106202147D01*
X148347834Y-106370595D01*
X148347827Y-106370600D01*
X148063830Y-106572106D01*
X148063811Y-106572122D01*
X147804161Y-106804161D01*
X147572122Y-107063811D01*
X147572106Y-107063830D01*
X147370600Y-107347827D01*
X147370595Y-107347834D01*
X147202147Y-107652619D01*
X147202140Y-107652634D01*
X147068880Y-107974353D01*
X146972475Y-108308976D01*
X146972473Y-108308985D01*
X146972473Y-108308987D01*
X146970463Y-108320817D01*
X146914141Y-108652307D01*
X146914140Y-108652314D01*
X146894615Y-109000000D01*
X140812670Y-109000000D01*
X140794026Y-108954987D01*
X140794023Y-108954982D01*
X140709792Y-108845210D01*
X140709789Y-108845208D01*
X140600018Y-108760976D01*
X140600014Y-108760974D01*
X140472182Y-108708025D01*
X140384321Y-108696458D01*
X140364848Y-108693894D01*
X140332371Y-108675143D01*
X140322664Y-108638918D01*
X140325971Y-108626573D01*
X140338974Y-108595183D01*
X140357035Y-108458000D01*
X140338974Y-108320817D01*
X140286024Y-108192983D01*
X140201791Y-108083209D01*
X140092018Y-107998976D01*
X140092014Y-107998974D01*
X139964182Y-107946025D01*
X139827000Y-107927965D01*
X139689817Y-107946025D01*
X139561987Y-107998973D01*
X139561982Y-107998976D01*
X139452209Y-108083208D01*
X139452208Y-108083209D01*
X139367976Y-108192982D01*
X139367975Y-108192984D01*
X139364270Y-108201930D01*
X139337751Y-108228448D01*
X139300248Y-108228448D01*
X139273730Y-108201930D01*
X139273358Y-108201032D01*
X139270024Y-108192983D01*
X139185791Y-108083209D01*
X139076018Y-107998976D01*
X139076014Y-107998974D01*
X138948182Y-107946025D01*
X138811000Y-107927965D01*
X138673817Y-107946025D01*
X138545987Y-107998973D01*
X138545982Y-107998976D01*
X138436209Y-108083208D01*
X138436208Y-108083209D01*
X138351976Y-108192982D01*
X138351973Y-108192987D01*
X138299025Y-108320817D01*
X138280965Y-108458000D01*
X138299025Y-108595180D01*
X138299025Y-108595182D01*
X138299026Y-108595183D01*
X138307858Y-108616507D01*
X138312024Y-108626564D01*
X138312023Y-108664067D01*
X138285503Y-108690585D01*
X138273149Y-108693895D01*
X138165817Y-108708025D01*
X138037987Y-108760973D01*
X138037982Y-108760976D01*
X137928209Y-108845208D01*
X137928208Y-108845209D01*
X137843976Y-108954982D01*
X137843973Y-108954987D01*
X137791025Y-109082817D01*
X137772965Y-109220000D01*
X133626035Y-109220000D01*
X133607974Y-109082817D01*
X133574853Y-109002855D01*
X133555026Y-108954987D01*
X133555023Y-108954982D01*
X133470792Y-108845210D01*
X133470789Y-108845208D01*
X133361018Y-108760976D01*
X133361014Y-108760974D01*
X133233182Y-108708025D01*
X133145321Y-108696458D01*
X133125848Y-108693894D01*
X133093371Y-108675143D01*
X133083664Y-108638918D01*
X133086971Y-108626573D01*
X133099974Y-108595183D01*
X133118035Y-108458000D01*
X133099974Y-108320817D01*
X133047024Y-108192983D01*
X132962791Y-108083209D01*
X132853018Y-107998976D01*
X132853014Y-107998974D01*
X132725182Y-107946025D01*
X132588000Y-107927965D01*
X132450817Y-107946025D01*
X132322987Y-107998973D01*
X132322982Y-107998976D01*
X132213209Y-108083208D01*
X132213208Y-108083209D01*
X132128976Y-108192982D01*
X132128975Y-108192984D01*
X132125270Y-108201930D01*
X132098751Y-108228448D01*
X132061248Y-108228448D01*
X132034730Y-108201930D01*
X132034358Y-108201032D01*
X132031024Y-108192983D01*
X131946791Y-108083209D01*
X131837018Y-107998976D01*
X131837014Y-107998974D01*
X131709182Y-107946025D01*
X131572000Y-107927965D01*
X131434817Y-107946025D01*
X131306987Y-107998973D01*
X131306982Y-107998976D01*
X131197209Y-108083208D01*
X131197208Y-108083209D01*
X131112976Y-108192982D01*
X131112973Y-108192987D01*
X131060025Y-108320817D01*
X131041965Y-108458000D01*
X131060025Y-108595180D01*
X131060025Y-108595182D01*
X131060026Y-108595183D01*
X131068858Y-108616507D01*
X131073024Y-108626564D01*
X131073023Y-108664067D01*
X131046503Y-108690585D01*
X131034149Y-108693895D01*
X130926817Y-108708025D01*
X130798987Y-108760973D01*
X130798982Y-108760976D01*
X130689209Y-108845208D01*
X130689208Y-108845209D01*
X130604976Y-108954982D01*
X130604973Y-108954987D01*
X130552025Y-109082817D01*
X130533965Y-109220000D01*
X126260035Y-109220000D01*
X126241974Y-109082817D01*
X126208853Y-109002855D01*
X126189026Y-108954987D01*
X126189023Y-108954982D01*
X126104792Y-108845210D01*
X126104789Y-108845208D01*
X125995018Y-108760976D01*
X125995014Y-108760974D01*
X125867182Y-108708025D01*
X125779321Y-108696458D01*
X125759848Y-108693894D01*
X125727371Y-108675143D01*
X125717664Y-108638918D01*
X125720971Y-108626573D01*
X125733974Y-108595183D01*
X125752035Y-108458000D01*
X125733974Y-108320817D01*
X125681024Y-108192983D01*
X125596791Y-108083209D01*
X125487018Y-107998976D01*
X125487014Y-107998974D01*
X125359182Y-107946025D01*
X125222000Y-107927965D01*
X125084817Y-107946025D01*
X124956987Y-107998973D01*
X124956982Y-107998976D01*
X124847209Y-108083208D01*
X124847208Y-108083209D01*
X124762976Y-108192982D01*
X124762975Y-108192984D01*
X124759270Y-108201930D01*
X124732751Y-108228448D01*
X124695248Y-108228448D01*
X124668730Y-108201930D01*
X124668358Y-108201032D01*
X124665024Y-108192983D01*
X124580791Y-108083209D01*
X124471018Y-107998976D01*
X124471014Y-107998974D01*
X124343182Y-107946025D01*
X124206000Y-107927965D01*
X124068817Y-107946025D01*
X123940987Y-107998973D01*
X123940982Y-107998976D01*
X123831209Y-108083208D01*
X123831208Y-108083209D01*
X123746976Y-108192982D01*
X123746973Y-108192987D01*
X123694025Y-108320817D01*
X123675965Y-108458000D01*
X123694025Y-108595180D01*
X123694025Y-108595182D01*
X123694026Y-108595183D01*
X123702858Y-108616507D01*
X123707024Y-108626564D01*
X123707023Y-108664067D01*
X123680503Y-108690585D01*
X123668149Y-108693895D01*
X123560817Y-108708025D01*
X123432987Y-108760973D01*
X123432982Y-108760976D01*
X123323209Y-108845208D01*
X123323208Y-108845209D01*
X123238976Y-108954982D01*
X123238973Y-108954987D01*
X123186025Y-109082817D01*
X123167965Y-109220000D01*
X119402035Y-109220000D01*
X119383974Y-109082817D01*
X119370976Y-109051436D01*
X119370976Y-109013933D01*
X119397495Y-108987415D01*
X119409844Y-108984105D01*
X119517183Y-108969974D01*
X119645018Y-108917024D01*
X119754791Y-108832791D01*
X119839024Y-108723018D01*
X119891974Y-108595183D01*
X119910035Y-108458000D01*
X119891974Y-108320817D01*
X119839024Y-108192983D01*
X119754791Y-108083209D01*
X119645018Y-107998976D01*
X119645014Y-107998974D01*
X119517182Y-107946025D01*
X119380000Y-107927965D01*
X119242817Y-107946025D01*
X119114987Y-107998973D01*
X119114982Y-107998976D01*
X119005209Y-108083208D01*
X119005208Y-108083209D01*
X118920976Y-108192982D01*
X118920975Y-108192984D01*
X118917270Y-108201930D01*
X118890751Y-108228448D01*
X118853248Y-108228448D01*
X118826730Y-108201930D01*
X118826358Y-108201032D01*
X118823024Y-108192983D01*
X118738791Y-108083209D01*
X118629018Y-107998976D01*
X118629014Y-107998974D01*
X118501182Y-107946025D01*
X118364000Y-107927965D01*
X118226817Y-107946025D01*
X118098987Y-107998973D01*
X118098982Y-107998976D01*
X117989209Y-108083208D01*
X117989208Y-108083209D01*
X117904976Y-108192982D01*
X117904973Y-108192987D01*
X117852025Y-108320817D01*
X117833965Y-108458000D01*
X111741598Y-108458000D01*
X111782791Y-108426391D01*
X111867024Y-108316618D01*
X111919974Y-108188783D01*
X111938035Y-108051600D01*
X111919974Y-107914417D01*
X111867024Y-107786583D01*
X111782791Y-107676809D01*
X111673018Y-107592576D01*
X111673014Y-107592574D01*
X111633410Y-107576170D01*
X111606891Y-107549652D01*
X111606891Y-107512149D01*
X111633408Y-107485630D01*
X111673018Y-107469224D01*
X111782791Y-107384991D01*
X111867024Y-107275218D01*
X111919974Y-107147383D01*
X111938035Y-107010200D01*
X111919974Y-106873017D01*
X111867024Y-106745183D01*
X111782791Y-106635409D01*
X111673018Y-106551176D01*
X111673014Y-106551174D01*
X111545182Y-106498225D01*
X111408000Y-106480165D01*
X111270817Y-106498225D01*
X111142987Y-106551173D01*
X111142982Y-106551176D01*
X111033209Y-106635408D01*
X111033208Y-106635409D01*
X110948976Y-106745182D01*
X110948973Y-106745187D01*
X110896025Y-106873017D01*
X110877965Y-107010200D01*
X107379967Y-107010200D01*
X107257372Y-106873017D01*
X107195839Y-106804161D01*
X107007007Y-106635410D01*
X106936188Y-106572122D01*
X106936169Y-106572106D01*
X106652172Y-106370600D01*
X106652165Y-106370595D01*
X106347380Y-106202147D01*
X106347365Y-106202140D01*
X106025646Y-106068880D01*
X106025647Y-106068880D01*
X106025644Y-106068879D01*
X105916956Y-106037566D01*
X105691023Y-105972475D01*
X105691015Y-105972473D01*
X105691013Y-105972473D01*
X105347693Y-105914141D01*
X105347691Y-105914140D01*
X105347685Y-105914140D01*
X105000000Y-105894615D01*
X104652314Y-105914140D01*
X104652307Y-105914141D01*
X104308987Y-105972473D01*
X104308985Y-105972473D01*
X104308976Y-105972475D01*
X103974353Y-106068880D01*
X103652634Y-106202140D01*
X103652619Y-106202147D01*
X103347834Y-106370595D01*
X103347827Y-106370600D01*
X103063830Y-106572106D01*
X103063811Y-106572122D01*
X102804161Y-106804161D01*
X102572122Y-107063811D01*
X102572106Y-107063830D01*
X102370600Y-107347827D01*
X102370595Y-107347834D01*
X102202147Y-107652619D01*
X102202140Y-107652634D01*
X102068880Y-107974353D01*
X101972475Y-108308976D01*
X101972473Y-108308985D01*
X101972473Y-108308987D01*
X101970463Y-108320817D01*
X101914141Y-108652307D01*
X101914140Y-108652314D01*
X101894615Y-109000000D01*
X100508500Y-109000000D01*
X100508500Y-104902000D01*
X142598965Y-104902000D01*
X142617025Y-105039182D01*
X142669974Y-105167014D01*
X142669976Y-105167018D01*
X142754209Y-105276791D01*
X142863982Y-105361024D01*
X142991817Y-105413974D01*
X143129000Y-105432035D01*
X143266183Y-105413974D01*
X143394018Y-105361024D01*
X143503791Y-105276791D01*
X143588024Y-105167018D01*
X143640974Y-105039183D01*
X143659035Y-104902000D01*
X143640974Y-104764817D01*
X143635427Y-104751425D01*
X143588026Y-104636987D01*
X143588023Y-104636982D01*
X143503792Y-104527210D01*
X143503789Y-104527208D01*
X143394018Y-104442976D01*
X143394014Y-104442974D01*
X143266182Y-104390025D01*
X143129000Y-104371965D01*
X142991817Y-104390025D01*
X142863987Y-104442973D01*
X142863982Y-104442976D01*
X142754209Y-104527208D01*
X142754208Y-104527209D01*
X142669976Y-104636982D01*
X142669973Y-104636987D01*
X142617025Y-104764817D01*
X142598965Y-104902000D01*
X100508500Y-104902000D01*
X100508500Y-103428800D01*
X110877965Y-103428800D01*
X110896025Y-103565982D01*
X110938109Y-103667582D01*
X110948976Y-103693818D01*
X111033209Y-103803591D01*
X111142982Y-103887824D01*
X111270817Y-103940774D01*
X111408000Y-103958835D01*
X111545183Y-103940774D01*
X111673018Y-103887824D01*
X111782791Y-103803591D01*
X111867024Y-103693818D01*
X111919974Y-103565983D01*
X111938035Y-103428800D01*
X111919974Y-103291617D01*
X111867024Y-103163783D01*
X111782791Y-103054009D01*
X111673018Y-102969776D01*
X111673014Y-102969774D01*
X111545182Y-102916825D01*
X111408000Y-102898765D01*
X111270817Y-102916825D01*
X111142987Y-102969773D01*
X111142982Y-102969776D01*
X111033209Y-103054008D01*
X111033208Y-103054009D01*
X110948976Y-103163782D01*
X110948973Y-103163787D01*
X110896025Y-103291617D01*
X110877965Y-103428800D01*
X100508500Y-103428800D01*
X100508500Y-102006400D01*
X138661965Y-102006400D01*
X138680025Y-102143582D01*
X138719285Y-102238365D01*
X138732976Y-102271418D01*
X138817209Y-102381191D01*
X138926982Y-102465424D01*
X139054817Y-102518374D01*
X139162149Y-102532505D01*
X139194627Y-102551255D01*
X139204334Y-102587480D01*
X139201024Y-102599835D01*
X139188025Y-102631219D01*
X139169965Y-102768400D01*
X139188025Y-102905580D01*
X139188025Y-102905582D01*
X139188026Y-102905583D01*
X139192683Y-102916826D01*
X139201024Y-102936964D01*
X139201023Y-102974467D01*
X139174503Y-103000985D01*
X139162149Y-103004295D01*
X139054817Y-103018425D01*
X138926987Y-103071373D01*
X138926982Y-103071376D01*
X138817209Y-103155608D01*
X138817208Y-103155609D01*
X138732976Y-103265382D01*
X138732973Y-103265387D01*
X138680025Y-103393217D01*
X138661965Y-103530400D01*
X138680025Y-103667582D01*
X138719285Y-103762365D01*
X138732976Y-103795418D01*
X138817209Y-103905191D01*
X138926982Y-103989424D01*
X139054817Y-104042374D01*
X139162149Y-104056505D01*
X139194627Y-104075255D01*
X139204334Y-104111480D01*
X139201024Y-104123835D01*
X139188025Y-104155219D01*
X139169965Y-104292400D01*
X139188025Y-104429582D01*
X139237270Y-104548471D01*
X139240976Y-104557418D01*
X139325209Y-104667191D01*
X139434982Y-104751424D01*
X139562817Y-104804374D01*
X139700000Y-104822435D01*
X139837183Y-104804374D01*
X139965018Y-104751424D01*
X140074791Y-104667191D01*
X140159024Y-104557418D01*
X140162730Y-104548469D01*
X140189247Y-104521951D01*
X140226750Y-104521950D01*
X140253268Y-104548466D01*
X140256976Y-104557418D01*
X140341209Y-104667191D01*
X140450982Y-104751424D01*
X140578817Y-104804374D01*
X140716000Y-104822435D01*
X140853183Y-104804374D01*
X140981018Y-104751424D01*
X141090791Y-104667191D01*
X141175024Y-104557418D01*
X141227974Y-104429583D01*
X141246035Y-104292400D01*
X141227974Y-104155217D01*
X141214976Y-104123836D01*
X141214976Y-104086333D01*
X141241495Y-104059815D01*
X141253844Y-104056505D01*
X141361183Y-104042374D01*
X141489018Y-103989424D01*
X141598791Y-103905191D01*
X141683024Y-103795418D01*
X141735974Y-103667583D01*
X141754035Y-103530400D01*
X141735974Y-103393217D01*
X141732000Y-103383622D01*
X141683026Y-103265387D01*
X141683023Y-103265382D01*
X141598792Y-103155610D01*
X141598789Y-103155608D01*
X141489018Y-103071376D01*
X141489014Y-103071374D01*
X141361182Y-103018425D01*
X141273321Y-103006858D01*
X141253848Y-103004294D01*
X141221371Y-102985543D01*
X141211664Y-102949318D01*
X141214971Y-102936973D01*
X141227974Y-102905583D01*
X141246035Y-102768400D01*
X141227974Y-102631217D01*
X141225889Y-102626183D01*
X141214976Y-102599836D01*
X141214976Y-102562333D01*
X141241495Y-102535815D01*
X141253844Y-102532505D01*
X141361183Y-102518374D01*
X141432099Y-102489000D01*
X147678965Y-102489000D01*
X147697025Y-102626182D01*
X147749974Y-102754014D01*
X147749976Y-102754018D01*
X147834209Y-102863791D01*
X147943982Y-102948024D01*
X148071817Y-103000974D01*
X148209000Y-103019035D01*
X148346183Y-103000974D01*
X148474018Y-102948024D01*
X148583791Y-102863791D01*
X148668024Y-102754018D01*
X148720974Y-102626183D01*
X148739035Y-102489000D01*
X148720974Y-102351817D01*
X148687672Y-102271418D01*
X148668026Y-102223987D01*
X148668023Y-102223982D01*
X148583792Y-102114210D01*
X148583789Y-102114208D01*
X148474018Y-102029976D01*
X148474014Y-102029974D01*
X148346182Y-101977025D01*
X148209000Y-101958965D01*
X148071817Y-101977025D01*
X147943987Y-102029973D01*
X147943982Y-102029976D01*
X147834209Y-102114208D01*
X147834208Y-102114209D01*
X147749976Y-102223982D01*
X147749973Y-102223987D01*
X147697025Y-102351817D01*
X147678965Y-102489000D01*
X141432099Y-102489000D01*
X141489018Y-102465424D01*
X141598791Y-102381191D01*
X141683024Y-102271418D01*
X141735974Y-102143583D01*
X141754035Y-102006400D01*
X141735974Y-101869217D01*
X141732000Y-101859622D01*
X141683026Y-101741387D01*
X141683023Y-101741382D01*
X141598792Y-101631610D01*
X141598789Y-101631608D01*
X141489018Y-101547376D01*
X141489014Y-101547374D01*
X141361182Y-101494425D01*
X141273321Y-101482858D01*
X141253848Y-101480294D01*
X141221371Y-101461543D01*
X141211664Y-101425318D01*
X141214971Y-101412973D01*
X141227974Y-101381583D01*
X141246035Y-101244400D01*
X141227974Y-101107217D01*
X141222427Y-101093825D01*
X141175026Y-100979387D01*
X141175023Y-100979382D01*
X141161404Y-100961634D01*
X141106917Y-100890625D01*
X141090792Y-100869610D01*
X141090789Y-100869608D01*
X140981018Y-100785376D01*
X140981014Y-100785374D01*
X140853182Y-100732425D01*
X140716000Y-100714365D01*
X140578817Y-100732425D01*
X140450987Y-100785373D01*
X140450982Y-100785376D01*
X140341209Y-100869608D01*
X140341208Y-100869609D01*
X140256976Y-100979382D01*
X140256975Y-100979384D01*
X140253270Y-100988330D01*
X140226751Y-101014848D01*
X140189248Y-101014848D01*
X140162730Y-100988330D01*
X140162358Y-100987432D01*
X140159024Y-100979383D01*
X140090917Y-100890625D01*
X140074792Y-100869610D01*
X140074789Y-100869608D01*
X139965018Y-100785376D01*
X139965014Y-100785374D01*
X139837182Y-100732425D01*
X139700000Y-100714365D01*
X139562817Y-100732425D01*
X139434987Y-100785373D01*
X139434982Y-100785376D01*
X139325209Y-100869608D01*
X139325208Y-100869609D01*
X139240976Y-100979382D01*
X139240973Y-100979387D01*
X139188025Y-101107217D01*
X139169965Y-101244400D01*
X139188025Y-101381580D01*
X139201024Y-101412964D01*
X139201023Y-101450467D01*
X139174503Y-101476985D01*
X139162149Y-101480295D01*
X139054817Y-101494425D01*
X138926987Y-101547373D01*
X138926982Y-101547376D01*
X138817209Y-101631608D01*
X138817208Y-101631609D01*
X138732976Y-101741382D01*
X138732973Y-101741387D01*
X138680025Y-101869217D01*
X138661965Y-102006400D01*
X100508500Y-102006400D01*
X100508500Y-96215200D01*
X109959965Y-96215200D01*
X109978025Y-96352382D01*
X110030974Y-96480214D01*
X110030976Y-96480218D01*
X110115209Y-96589991D01*
X110224982Y-96674224D01*
X110352817Y-96727174D01*
X110490000Y-96745235D01*
X110490000Y-96745234D01*
X110490001Y-96745235D01*
X110493212Y-96745235D01*
X110493212Y-96747025D01*
X110523898Y-96755235D01*
X110542661Y-96787706D01*
X110539353Y-96812871D01*
X110486025Y-96941617D01*
X110467965Y-97078800D01*
X110486025Y-97215982D01*
X110538974Y-97343814D01*
X110538976Y-97343818D01*
X110617696Y-97446407D01*
X110627403Y-97482630D01*
X110608652Y-97515109D01*
X110572427Y-97524816D01*
X110490000Y-97513965D01*
X110352817Y-97532025D01*
X110224987Y-97584973D01*
X110224982Y-97584976D01*
X110115209Y-97669208D01*
X110115208Y-97669209D01*
X110030976Y-97778982D01*
X110030973Y-97778987D01*
X109978025Y-97906817D01*
X109959965Y-98044000D01*
X109978025Y-98181182D01*
X110020455Y-98283618D01*
X110030976Y-98309018D01*
X110115209Y-98418791D01*
X110224982Y-98503024D01*
X110352817Y-98555974D01*
X110490000Y-98574035D01*
X110490000Y-98574034D01*
X110490001Y-98574035D01*
X110493212Y-98574035D01*
X110493212Y-98575825D01*
X110523898Y-98584035D01*
X110542661Y-98616506D01*
X110539353Y-98641671D01*
X110486025Y-98770417D01*
X110467965Y-98907600D01*
X110486025Y-99044782D01*
X110539352Y-99173528D01*
X110539352Y-99211031D01*
X110512833Y-99237549D01*
X110493211Y-99240140D01*
X110493211Y-99241165D01*
X110490001Y-99241165D01*
X110490000Y-99241165D01*
X110474041Y-99243266D01*
X110352817Y-99259225D01*
X110224987Y-99312173D01*
X110224982Y-99312176D01*
X110115209Y-99396408D01*
X110115208Y-99396409D01*
X110030976Y-99506182D01*
X110030973Y-99506187D01*
X109978025Y-99634017D01*
X109959965Y-99771200D01*
X109978025Y-99908382D01*
X110004614Y-99972574D01*
X110030976Y-100036218D01*
X110115209Y-100145991D01*
X110224982Y-100230224D01*
X110352817Y-100283174D01*
X110490000Y-100301235D01*
X110490000Y-100301234D01*
X110490001Y-100301235D01*
X110493212Y-100301235D01*
X110493212Y-100303025D01*
X110523898Y-100311235D01*
X110542661Y-100343706D01*
X110539353Y-100368871D01*
X110486025Y-100497617D01*
X110467965Y-100634800D01*
X110486025Y-100771982D01*
X110535168Y-100890625D01*
X110538976Y-100899818D01*
X110623209Y-101009591D01*
X110732982Y-101093824D01*
X110860817Y-101146774D01*
X110998000Y-101164835D01*
X111135183Y-101146774D01*
X111263018Y-101093824D01*
X111372791Y-101009591D01*
X111457024Y-100899818D01*
X111509974Y-100771983D01*
X111528035Y-100634800D01*
X111509974Y-100497617D01*
X111482629Y-100431600D01*
X112601565Y-100431600D01*
X112619625Y-100568782D01*
X112672574Y-100696614D01*
X112672576Y-100696618D01*
X112756809Y-100806391D01*
X112866582Y-100890624D01*
X112994417Y-100943574D01*
X113131600Y-100961635D01*
X113268783Y-100943574D01*
X113396618Y-100890624D01*
X113506391Y-100806391D01*
X113590624Y-100696618D01*
X113643574Y-100568783D01*
X113661635Y-100431600D01*
X113643574Y-100294417D01*
X113590624Y-100166583D01*
X113506391Y-100056809D01*
X113396618Y-99972576D01*
X113396614Y-99972574D01*
X113268782Y-99919625D01*
X113131600Y-99901565D01*
X112994417Y-99919625D01*
X112866587Y-99972573D01*
X112866582Y-99972576D01*
X112756809Y-100056808D01*
X112756808Y-100056809D01*
X112672576Y-100166582D01*
X112672573Y-100166587D01*
X112619625Y-100294417D01*
X112601565Y-100431600D01*
X111482629Y-100431600D01*
X111457024Y-100369783D01*
X111457023Y-100369782D01*
X111456646Y-100368871D01*
X111456646Y-100331368D01*
X111483165Y-100304850D01*
X111502788Y-100302269D01*
X111502788Y-100301235D01*
X111505999Y-100301235D01*
X111505999Y-100301234D01*
X111506000Y-100301235D01*
X111643183Y-100283174D01*
X111771018Y-100230224D01*
X111880791Y-100145991D01*
X111965024Y-100036218D01*
X112017974Y-99908383D01*
X112036035Y-99771200D01*
X112017974Y-99634017D01*
X111965024Y-99506183D01*
X111880791Y-99396409D01*
X111771018Y-99312176D01*
X111771014Y-99312174D01*
X111643182Y-99259225D01*
X111524060Y-99243542D01*
X111506000Y-99241165D01*
X111505999Y-99241165D01*
X111502789Y-99241165D01*
X111502789Y-99239392D01*
X111472053Y-99231126D01*
X111453330Y-99198631D01*
X111456647Y-99173528D01*
X111459942Y-99165574D01*
X111509974Y-99044783D01*
X111528035Y-98907600D01*
X111509974Y-98770417D01*
X111461587Y-98653600D01*
X140267365Y-98653600D01*
X140285425Y-98790782D01*
X140333812Y-98907600D01*
X140338376Y-98918618D01*
X140422609Y-99028391D01*
X140532382Y-99112624D01*
X140660217Y-99165574D01*
X140797400Y-99183635D01*
X140934583Y-99165574D01*
X141062418Y-99112624D01*
X141172191Y-99028391D01*
X141256424Y-98918618D01*
X141266549Y-98894173D01*
X141477198Y-98894173D01*
X141495258Y-99031355D01*
X141528921Y-99112625D01*
X141548209Y-99159191D01*
X141632442Y-99268964D01*
X141742215Y-99353197D01*
X141870050Y-99406147D01*
X142007233Y-99424208D01*
X142144416Y-99406147D01*
X142272251Y-99353197D01*
X142382024Y-99268964D01*
X142466257Y-99159191D01*
X142519207Y-99031356D01*
X142537268Y-98894173D01*
X142519207Y-98756990D01*
X142466257Y-98629156D01*
X142382024Y-98519382D01*
X142272251Y-98435149D01*
X142272247Y-98435147D01*
X142144415Y-98382198D01*
X142007233Y-98364138D01*
X141870050Y-98382198D01*
X141742220Y-98435146D01*
X141742215Y-98435149D01*
X141632442Y-98519381D01*
X141632441Y-98519382D01*
X141548209Y-98629155D01*
X141548206Y-98629160D01*
X141495258Y-98756990D01*
X141477198Y-98894173D01*
X141266549Y-98894173D01*
X141309374Y-98790783D01*
X141327435Y-98653600D01*
X141309374Y-98516417D01*
X141303827Y-98503025D01*
X141256426Y-98388587D01*
X141256423Y-98388582D01*
X141251524Y-98382198D01*
X141172191Y-98278809D01*
X141062418Y-98194576D01*
X141062414Y-98194574D01*
X140934582Y-98141625D01*
X140797400Y-98123565D01*
X140660217Y-98141625D01*
X140532387Y-98194573D01*
X140532382Y-98194576D01*
X140422609Y-98278808D01*
X140422608Y-98278809D01*
X140338376Y-98388582D01*
X140338373Y-98388587D01*
X140285425Y-98516417D01*
X140267365Y-98653600D01*
X111461587Y-98653600D01*
X111457024Y-98642583D01*
X111457023Y-98642582D01*
X111456646Y-98641671D01*
X111456646Y-98604168D01*
X111483165Y-98577650D01*
X111502788Y-98575069D01*
X111502788Y-98574035D01*
X111505999Y-98574035D01*
X111505999Y-98574034D01*
X111506000Y-98574035D01*
X111643183Y-98555974D01*
X111771018Y-98503024D01*
X111880791Y-98418791D01*
X111965024Y-98309018D01*
X112017974Y-98181183D01*
X112036035Y-98044000D01*
X112032691Y-98018600D01*
X112626965Y-98018600D01*
X112645025Y-98155782D01*
X112695984Y-98278809D01*
X112697976Y-98283618D01*
X112782209Y-98393391D01*
X112891982Y-98477624D01*
X113019817Y-98530574D01*
X113157000Y-98548635D01*
X113294183Y-98530574D01*
X113422018Y-98477624D01*
X113531791Y-98393391D01*
X113616024Y-98283618D01*
X113668974Y-98155783D01*
X113687035Y-98018600D01*
X113668974Y-97881417D01*
X113626547Y-97778987D01*
X113616026Y-97753587D01*
X113616023Y-97753582D01*
X113531792Y-97643810D01*
X113531789Y-97643808D01*
X113422018Y-97559576D01*
X113422014Y-97559574D01*
X113294182Y-97506625D01*
X113157000Y-97488565D01*
X113019817Y-97506625D01*
X112891987Y-97559573D01*
X112891982Y-97559576D01*
X112782209Y-97643808D01*
X112782208Y-97643809D01*
X112697976Y-97753582D01*
X112697973Y-97753587D01*
X112645025Y-97881417D01*
X112626965Y-98018600D01*
X112032691Y-98018600D01*
X112017974Y-97906817D01*
X111965024Y-97778983D01*
X111880791Y-97669209D01*
X111771018Y-97584976D01*
X111771014Y-97584974D01*
X111643182Y-97532025D01*
X111514689Y-97515109D01*
X111506000Y-97513965D01*
X111505999Y-97513965D01*
X111423572Y-97524816D01*
X111387347Y-97515109D01*
X111368596Y-97482630D01*
X111378301Y-97446409D01*
X111457024Y-97343818D01*
X111509974Y-97215983D01*
X111528035Y-97078800D01*
X111509974Y-96941617D01*
X111457024Y-96813783D01*
X111457023Y-96813782D01*
X111456646Y-96812871D01*
X111456646Y-96775368D01*
X111483165Y-96748850D01*
X111502788Y-96746269D01*
X111502788Y-96745235D01*
X111505999Y-96745235D01*
X111505999Y-96745234D01*
X111506000Y-96745235D01*
X111643183Y-96727174D01*
X111771018Y-96674224D01*
X111880791Y-96589991D01*
X111965024Y-96480218D01*
X112017974Y-96352383D01*
X112036035Y-96215200D01*
X112017974Y-96078017D01*
X111979714Y-95985648D01*
X111965026Y-95950187D01*
X111965023Y-95950182D01*
X111949221Y-95929589D01*
X111880791Y-95840409D01*
X111771018Y-95756176D01*
X111771014Y-95756174D01*
X111643182Y-95703225D01*
X111506000Y-95685165D01*
X111368817Y-95703225D01*
X111240987Y-95756173D01*
X111240982Y-95756176D01*
X111131209Y-95840408D01*
X111131208Y-95840409D01*
X111046976Y-95950182D01*
X111046975Y-95950184D01*
X111043270Y-95959130D01*
X111016751Y-95985648D01*
X110979248Y-95985648D01*
X110952730Y-95959130D01*
X110952358Y-95958232D01*
X110949024Y-95950183D01*
X110864791Y-95840409D01*
X110755018Y-95756176D01*
X110755014Y-95756174D01*
X110627182Y-95703225D01*
X110490000Y-95685165D01*
X110352817Y-95703225D01*
X110224987Y-95756173D01*
X110224982Y-95756176D01*
X110115209Y-95840408D01*
X110115208Y-95840409D01*
X110030976Y-95950182D01*
X110030973Y-95950187D01*
X109978025Y-96078017D01*
X109959965Y-96215200D01*
X100508500Y-96215200D01*
X100508500Y-95344000D01*
X120627965Y-95344000D01*
X120646025Y-95481182D01*
X120698974Y-95609014D01*
X120698976Y-95609018D01*
X120783209Y-95718791D01*
X120892982Y-95803024D01*
X121020817Y-95855974D01*
X121158000Y-95874035D01*
X121295183Y-95855974D01*
X121423018Y-95803024D01*
X121532791Y-95718791D01*
X121617024Y-95609018D01*
X121669974Y-95481183D01*
X121688035Y-95344000D01*
X121669974Y-95206817D01*
X121667575Y-95201025D01*
X121617026Y-95078987D01*
X121617023Y-95078982D01*
X121532792Y-94969210D01*
X121532789Y-94969208D01*
X121423018Y-94884976D01*
X121423014Y-94884974D01*
X121295182Y-94832025D01*
X121158000Y-94813965D01*
X121020817Y-94832025D01*
X120892987Y-94884973D01*
X120892982Y-94884976D01*
X120783209Y-94969208D01*
X120783208Y-94969209D01*
X120698976Y-95078982D01*
X120698973Y-95078987D01*
X120646025Y-95206817D01*
X120627965Y-95344000D01*
X100508500Y-95344000D01*
X100508500Y-94792800D01*
X123371165Y-94792800D01*
X123389225Y-94929982D01*
X123421134Y-95007018D01*
X123442176Y-95057818D01*
X123526409Y-95167591D01*
X123636182Y-95251824D01*
X123764017Y-95304774D01*
X123823176Y-95312562D01*
X123855654Y-95331313D01*
X123865361Y-95367538D01*
X123862051Y-95379893D01*
X123846425Y-95417619D01*
X123828365Y-95554800D01*
X123846425Y-95691982D01*
X123892420Y-95803025D01*
X123899376Y-95819818D01*
X123983609Y-95929591D01*
X124093382Y-96013824D01*
X124221217Y-96066774D01*
X124358400Y-96084835D01*
X124495583Y-96066774D01*
X124623418Y-96013824D01*
X124733191Y-95929591D01*
X124802126Y-95839753D01*
X124834604Y-95821002D01*
X124870829Y-95830709D01*
X124879872Y-95839752D01*
X124948809Y-95929591D01*
X125058582Y-96013824D01*
X125186417Y-96066774D01*
X125323600Y-96084835D01*
X125460783Y-96066774D01*
X125588618Y-96013824D01*
X125698391Y-95929591D01*
X125782624Y-95819818D01*
X125835574Y-95691983D01*
X125853635Y-95554800D01*
X125835574Y-95417617D01*
X125819949Y-95379894D01*
X125819949Y-95344000D01*
X127866965Y-95344000D01*
X127885025Y-95481182D01*
X127937974Y-95609014D01*
X127937976Y-95609018D01*
X128022209Y-95718791D01*
X128131982Y-95803024D01*
X128259817Y-95855974D01*
X128397000Y-95874035D01*
X128534183Y-95855974D01*
X128662018Y-95803024D01*
X128771791Y-95718791D01*
X128856024Y-95609018D01*
X128908974Y-95481183D01*
X128927035Y-95344000D01*
X128908974Y-95206817D01*
X128906575Y-95201025D01*
X128856026Y-95078987D01*
X128856023Y-95078982D01*
X128771792Y-94969210D01*
X128771789Y-94969208D01*
X128662018Y-94884976D01*
X128662014Y-94884974D01*
X128534182Y-94832025D01*
X128397000Y-94813965D01*
X128259817Y-94832025D01*
X128131987Y-94884973D01*
X128131982Y-94884976D01*
X128022209Y-94969208D01*
X128022208Y-94969209D01*
X127937976Y-95078982D01*
X127937973Y-95078987D01*
X127885025Y-95206817D01*
X127866965Y-95344000D01*
X125819949Y-95344000D01*
X125819949Y-95342391D01*
X125846468Y-95315873D01*
X125858819Y-95312563D01*
X125917983Y-95304774D01*
X126045818Y-95251824D01*
X126155591Y-95167591D01*
X126239824Y-95057818D01*
X126292774Y-94929983D01*
X126310835Y-94792800D01*
X126304147Y-94742000D01*
X130686365Y-94742000D01*
X130704425Y-94879182D01*
X130744487Y-94975901D01*
X130757376Y-95007018D01*
X130841609Y-95116791D01*
X130951382Y-95201024D01*
X131079217Y-95253974D01*
X131138376Y-95261762D01*
X131170854Y-95280513D01*
X131180561Y-95316738D01*
X131177251Y-95329093D01*
X131161625Y-95366819D01*
X131143565Y-95504000D01*
X131161625Y-95641182D01*
X131212041Y-95762899D01*
X131214576Y-95769018D01*
X131298809Y-95878791D01*
X131408582Y-95963024D01*
X131536417Y-96015974D01*
X131673600Y-96034035D01*
X131810783Y-96015974D01*
X131938618Y-95963024D01*
X132048391Y-95878791D01*
X132117326Y-95788953D01*
X132149804Y-95770202D01*
X132186029Y-95779909D01*
X132195072Y-95788952D01*
X132205870Y-95803024D01*
X132260359Y-95874035D01*
X132264009Y-95878791D01*
X132373782Y-95963024D01*
X132501617Y-96015974D01*
X132638800Y-96034035D01*
X132775983Y-96015974D01*
X132903818Y-95963024D01*
X133013591Y-95878791D01*
X133097824Y-95769018D01*
X133150774Y-95641183D01*
X133168835Y-95504000D01*
X133150774Y-95366817D01*
X133141323Y-95344000D01*
X135232965Y-95344000D01*
X135251025Y-95481182D01*
X135303974Y-95609014D01*
X135303976Y-95609018D01*
X135388209Y-95718791D01*
X135497982Y-95803024D01*
X135625817Y-95855974D01*
X135763000Y-95874035D01*
X135900183Y-95855974D01*
X136028018Y-95803024D01*
X136137791Y-95718791D01*
X136222024Y-95609018D01*
X136274974Y-95481183D01*
X136293035Y-95344000D01*
X136274974Y-95206817D01*
X136272575Y-95201025D01*
X136222026Y-95078987D01*
X136222023Y-95078982D01*
X136137792Y-94969210D01*
X136137789Y-94969208D01*
X136028018Y-94884976D01*
X136028014Y-94884974D01*
X135900182Y-94832025D01*
X135763000Y-94813965D01*
X135625817Y-94832025D01*
X135497987Y-94884973D01*
X135497982Y-94884976D01*
X135388209Y-94969208D01*
X135388208Y-94969209D01*
X135303976Y-95078982D01*
X135303973Y-95078987D01*
X135251025Y-95206817D01*
X135232965Y-95344000D01*
X133141323Y-95344000D01*
X133135149Y-95329094D01*
X133135149Y-95291591D01*
X133161668Y-95265073D01*
X133174019Y-95261763D01*
X133233183Y-95253974D01*
X133361018Y-95201024D01*
X133470791Y-95116791D01*
X133555024Y-95007018D01*
X133607974Y-94879183D01*
X133626035Y-94742000D01*
X133607974Y-94604817D01*
X133578600Y-94533901D01*
X133555026Y-94476987D01*
X133555023Y-94476982D01*
X133470792Y-94367210D01*
X133470789Y-94367208D01*
X133361018Y-94282976D01*
X133361014Y-94282974D01*
X133233182Y-94230025D01*
X133233183Y-94230025D01*
X133174022Y-94222236D01*
X133141544Y-94203484D01*
X133131838Y-94167258D01*
X133135149Y-94154904D01*
X133144885Y-94131400D01*
X138306365Y-94131400D01*
X138324425Y-94268582D01*
X138377374Y-94396414D01*
X138377376Y-94396418D01*
X138461609Y-94506191D01*
X138571382Y-94590424D01*
X138699217Y-94643374D01*
X138836400Y-94661435D01*
X138973583Y-94643374D01*
X139101418Y-94590424D01*
X139211191Y-94506191D01*
X139295424Y-94396418D01*
X139348374Y-94268583D01*
X139366435Y-94131400D01*
X139348374Y-93994217D01*
X139295424Y-93866383D01*
X139218234Y-93765787D01*
X139211192Y-93756610D01*
X139211189Y-93756608D01*
X139101418Y-93672376D01*
X139101414Y-93672374D01*
X138973582Y-93619425D01*
X138836400Y-93601365D01*
X138699217Y-93619425D01*
X138571387Y-93672373D01*
X138571382Y-93672376D01*
X138461609Y-93756608D01*
X138461608Y-93756609D01*
X138377376Y-93866382D01*
X138377373Y-93866387D01*
X138324425Y-93994217D01*
X138306365Y-94131400D01*
X133144885Y-94131400D01*
X133150774Y-94117183D01*
X133168835Y-93980000D01*
X133150774Y-93842817D01*
X133121400Y-93771901D01*
X133097826Y-93714987D01*
X133097823Y-93714982D01*
X133096914Y-93713798D01*
X133024500Y-93619426D01*
X133013592Y-93605210D01*
X133013589Y-93605208D01*
X132903818Y-93520976D01*
X132903814Y-93520974D01*
X132775982Y-93468025D01*
X132638800Y-93449965D01*
X132501617Y-93468025D01*
X132373787Y-93520973D01*
X132373782Y-93520976D01*
X132264009Y-93605208D01*
X132264008Y-93605209D01*
X132195074Y-93695046D01*
X132162596Y-93713798D01*
X132126371Y-93704091D01*
X132117326Y-93695046D01*
X132048392Y-93605210D01*
X132048389Y-93605208D01*
X131938618Y-93520976D01*
X131938614Y-93520974D01*
X131810782Y-93468025D01*
X131673600Y-93449965D01*
X131536417Y-93468025D01*
X131408587Y-93520973D01*
X131408582Y-93520976D01*
X131298809Y-93605208D01*
X131298808Y-93605209D01*
X131214576Y-93714982D01*
X131214573Y-93714987D01*
X131161625Y-93842817D01*
X131143565Y-93980000D01*
X131161625Y-94117182D01*
X131177250Y-94154904D01*
X131177250Y-94192407D01*
X131150731Y-94218925D01*
X131138377Y-94222236D01*
X131079217Y-94230025D01*
X130951387Y-94282973D01*
X130951382Y-94282976D01*
X130841609Y-94367208D01*
X130841608Y-94367209D01*
X130757376Y-94476982D01*
X130757373Y-94476987D01*
X130704425Y-94604817D01*
X130686365Y-94742000D01*
X126304147Y-94742000D01*
X126292774Y-94655617D01*
X126265771Y-94590425D01*
X126239826Y-94527787D01*
X126239823Y-94527782D01*
X126155592Y-94418010D01*
X126155589Y-94418008D01*
X126045818Y-94333776D01*
X126045814Y-94333774D01*
X125917982Y-94280825D01*
X125917983Y-94280825D01*
X125858822Y-94273036D01*
X125826344Y-94254284D01*
X125816638Y-94218058D01*
X125819949Y-94205704D01*
X125835574Y-94167983D01*
X125853635Y-94030800D01*
X125835574Y-93893617D01*
X125824295Y-93866387D01*
X125782626Y-93765787D01*
X125782623Y-93765782D01*
X125781714Y-93764598D01*
X125710950Y-93672376D01*
X125698392Y-93656010D01*
X125698389Y-93656008D01*
X125588618Y-93571776D01*
X125588614Y-93571774D01*
X125460782Y-93518825D01*
X125323600Y-93500765D01*
X125186417Y-93518825D01*
X125058587Y-93571773D01*
X125058582Y-93571776D01*
X124948809Y-93656008D01*
X124948808Y-93656009D01*
X124879874Y-93745846D01*
X124847396Y-93764598D01*
X124811171Y-93754891D01*
X124802126Y-93745846D01*
X124733192Y-93656010D01*
X124733189Y-93656008D01*
X124623418Y-93571776D01*
X124623414Y-93571774D01*
X124495582Y-93518825D01*
X124358400Y-93500765D01*
X124221217Y-93518825D01*
X124093387Y-93571773D01*
X124093382Y-93571776D01*
X123983609Y-93656008D01*
X123983608Y-93656009D01*
X123899376Y-93765782D01*
X123899373Y-93765787D01*
X123846425Y-93893617D01*
X123828365Y-94030800D01*
X123846425Y-94167982D01*
X123862050Y-94205704D01*
X123862050Y-94243207D01*
X123835531Y-94269725D01*
X123823177Y-94273036D01*
X123764017Y-94280825D01*
X123636187Y-94333773D01*
X123636182Y-94333776D01*
X123526409Y-94418008D01*
X123526408Y-94418009D01*
X123442176Y-94527782D01*
X123442173Y-94527787D01*
X123389225Y-94655617D01*
X123371165Y-94792800D01*
X100508500Y-94792800D01*
X100508500Y-92633800D01*
X109929051Y-92633800D01*
X109949216Y-92902897D01*
X109949216Y-92902900D01*
X109949217Y-92902903D01*
X109951984Y-92915024D01*
X110009266Y-93165996D01*
X110107856Y-93417196D01*
X110107859Y-93417201D01*
X110242781Y-93650897D01*
X110242784Y-93650901D01*
X110411034Y-93861880D01*
X110411039Y-93861885D01*
X110608859Y-94045435D01*
X110831826Y-94197451D01*
X110831827Y-94197451D01*
X110831828Y-94197452D01*
X111074952Y-94314535D01*
X111074955Y-94314536D01*
X111074959Y-94314538D01*
X111332828Y-94394080D01*
X111599671Y-94434300D01*
X111599673Y-94434300D01*
X111869527Y-94434300D01*
X111869529Y-94434300D01*
X112136372Y-94394080D01*
X112394241Y-94314538D01*
X112637375Y-94197451D01*
X112860341Y-94045435D01*
X113058161Y-93861885D01*
X113226415Y-93650902D01*
X113361343Y-93417198D01*
X113459934Y-93165995D01*
X113519983Y-92902903D01*
X113540149Y-92633800D01*
X113519983Y-92364697D01*
X113459934Y-92101605D01*
X113361343Y-91850402D01*
X113271045Y-91694000D01*
X113226418Y-91616702D01*
X113226415Y-91616698D01*
X113058165Y-91405719D01*
X113058160Y-91405714D01*
X112860342Y-91222166D01*
X112860340Y-91222164D01*
X112637372Y-91070147D01*
X112394247Y-90953064D01*
X112394234Y-90953059D01*
X112210602Y-90896417D01*
X112136372Y-90873520D01*
X111869529Y-90833300D01*
X111599671Y-90833300D01*
X111332828Y-90873520D01*
X111332825Y-90873521D01*
X111074965Y-90953059D01*
X111074952Y-90953064D01*
X110831828Y-91070147D01*
X110608859Y-91222164D01*
X110608857Y-91222166D01*
X110411039Y-91405714D01*
X110411034Y-91405719D01*
X110242784Y-91616698D01*
X110242781Y-91616702D01*
X110107859Y-91850398D01*
X110107856Y-91850403D01*
X110009266Y-92101603D01*
X109949218Y-92364693D01*
X109949216Y-92364702D01*
X109929051Y-92633800D01*
X100508500Y-92633800D01*
X100508500Y-87122000D01*
X120424765Y-87122000D01*
X120442825Y-87259182D01*
X120482887Y-87355901D01*
X120495776Y-87387018D01*
X120580009Y-87496791D01*
X120689782Y-87581024D01*
X120817617Y-87633974D01*
X120876776Y-87641762D01*
X120909254Y-87660513D01*
X120918961Y-87696738D01*
X120915651Y-87709093D01*
X120900025Y-87746819D01*
X120881965Y-87884000D01*
X120900025Y-88021182D01*
X120915650Y-88058904D01*
X120915650Y-88096407D01*
X120889131Y-88122925D01*
X120876777Y-88126236D01*
X120817617Y-88134025D01*
X120689787Y-88186973D01*
X120689782Y-88186976D01*
X120580009Y-88271208D01*
X120580008Y-88271209D01*
X120495776Y-88380982D01*
X120495773Y-88380987D01*
X120442825Y-88508817D01*
X120424765Y-88646000D01*
X120442825Y-88783182D01*
X120482887Y-88879901D01*
X120495776Y-88911018D01*
X120580009Y-89020791D01*
X120689782Y-89105024D01*
X120817617Y-89157974D01*
X120876776Y-89165762D01*
X120909254Y-89184513D01*
X120918961Y-89220738D01*
X120915651Y-89233093D01*
X120900025Y-89270819D01*
X120881965Y-89408000D01*
X120900025Y-89545182D01*
X120915650Y-89582904D01*
X120915650Y-89620407D01*
X120889131Y-89646925D01*
X120876777Y-89650236D01*
X120817617Y-89658025D01*
X120689787Y-89710973D01*
X120689782Y-89710976D01*
X120580009Y-89795208D01*
X120580008Y-89795209D01*
X120495776Y-89904982D01*
X120495773Y-89904987D01*
X120442825Y-90032817D01*
X120424765Y-90170000D01*
X120442825Y-90307182D01*
X120482887Y-90403901D01*
X120495776Y-90435018D01*
X120580009Y-90544791D01*
X120689782Y-90629024D01*
X120817617Y-90681974D01*
X120876776Y-90689762D01*
X120909254Y-90708513D01*
X120918961Y-90744738D01*
X120915651Y-90757093D01*
X120900025Y-90794819D01*
X120881965Y-90932000D01*
X120900025Y-91069182D01*
X120915650Y-91106904D01*
X120915650Y-91144407D01*
X120889131Y-91170925D01*
X120876777Y-91174236D01*
X120817617Y-91182025D01*
X120689787Y-91234973D01*
X120689782Y-91234976D01*
X120580009Y-91319208D01*
X120580008Y-91319209D01*
X120495776Y-91428982D01*
X120495773Y-91428987D01*
X120442825Y-91556817D01*
X120424765Y-91694000D01*
X120442825Y-91831182D01*
X120482887Y-91927901D01*
X120495776Y-91959018D01*
X120580009Y-92068791D01*
X120689782Y-92153024D01*
X120817617Y-92205974D01*
X120876776Y-92213762D01*
X120909254Y-92232513D01*
X120918961Y-92268738D01*
X120915651Y-92281093D01*
X120900025Y-92318819D01*
X120881965Y-92456000D01*
X120900025Y-92593182D01*
X120952974Y-92721014D01*
X120952976Y-92721018D01*
X121037209Y-92830791D01*
X121146982Y-92915024D01*
X121274817Y-92967974D01*
X121412000Y-92986035D01*
X121549183Y-92967974D01*
X121677018Y-92915024D01*
X121786791Y-92830791D01*
X121855726Y-92740953D01*
X121888204Y-92722202D01*
X121924429Y-92731909D01*
X121933472Y-92740952D01*
X122002409Y-92830791D01*
X122112182Y-92915024D01*
X122240017Y-92967974D01*
X122377200Y-92986035D01*
X122514383Y-92967974D01*
X122642218Y-92915024D01*
X122751991Y-92830791D01*
X122836224Y-92721018D01*
X122889174Y-92593183D01*
X122907235Y-92456000D01*
X122889174Y-92318817D01*
X122873549Y-92281094D01*
X122873549Y-92243591D01*
X122900068Y-92217073D01*
X122912419Y-92213763D01*
X122971583Y-92205974D01*
X123099418Y-92153024D01*
X123209191Y-92068791D01*
X123293424Y-91959018D01*
X123346374Y-91831183D01*
X123364435Y-91694000D01*
X123346374Y-91556817D01*
X123293424Y-91428983D01*
X123209191Y-91319209D01*
X123099418Y-91234976D01*
X123099414Y-91234974D01*
X122971582Y-91182025D01*
X122971583Y-91182025D01*
X122912422Y-91174236D01*
X122879944Y-91155484D01*
X122870238Y-91119258D01*
X122873549Y-91106904D01*
X122889174Y-91069183D01*
X122893859Y-91033600D01*
X139627165Y-91033600D01*
X139645225Y-91170782D01*
X139671814Y-91234974D01*
X139698176Y-91298618D01*
X139782409Y-91408391D01*
X139892182Y-91492624D01*
X140020017Y-91545574D01*
X140157200Y-91563635D01*
X140294383Y-91545574D01*
X140422218Y-91492624D01*
X140531991Y-91408391D01*
X140616224Y-91298618D01*
X140669174Y-91170783D01*
X140687235Y-91033600D01*
X140669174Y-90896417D01*
X140659690Y-90873520D01*
X140616226Y-90768587D01*
X140616223Y-90768582D01*
X140531992Y-90658810D01*
X140531989Y-90658808D01*
X140422218Y-90574576D01*
X140422214Y-90574574D01*
X140294382Y-90521625D01*
X140157200Y-90503565D01*
X140020017Y-90521625D01*
X139892187Y-90574573D01*
X139892182Y-90574576D01*
X139782409Y-90658808D01*
X139782408Y-90658809D01*
X139698176Y-90768582D01*
X139698173Y-90768587D01*
X139645225Y-90896417D01*
X139627165Y-91033600D01*
X122893859Y-91033600D01*
X122907235Y-90932000D01*
X122889174Y-90794817D01*
X122873549Y-90757094D01*
X122873549Y-90719591D01*
X122900068Y-90693073D01*
X122912419Y-90689763D01*
X122971583Y-90681974D01*
X123099418Y-90629024D01*
X123209191Y-90544791D01*
X123293424Y-90435018D01*
X123346374Y-90307183D01*
X123364435Y-90170000D01*
X123346374Y-90032817D01*
X123293424Y-89904983D01*
X123209191Y-89795209D01*
X123099418Y-89710976D01*
X123099414Y-89710974D01*
X122971582Y-89658025D01*
X122971583Y-89658025D01*
X122912422Y-89650236D01*
X122879944Y-89631484D01*
X122870238Y-89595258D01*
X122873549Y-89582904D01*
X122889174Y-89545183D01*
X122907235Y-89408000D01*
X122889174Y-89270817D01*
X122873549Y-89233094D01*
X122873549Y-89195591D01*
X122900068Y-89169073D01*
X122912419Y-89165763D01*
X122971583Y-89157974D01*
X123099418Y-89105024D01*
X123209191Y-89020791D01*
X123293424Y-88911018D01*
X123346374Y-88783183D01*
X123364435Y-88646000D01*
X123346374Y-88508817D01*
X123293424Y-88380983D01*
X123209191Y-88271209D01*
X123099418Y-88186976D01*
X123099414Y-88186974D01*
X122971582Y-88134025D01*
X122971583Y-88134025D01*
X122912422Y-88126236D01*
X122879944Y-88107484D01*
X122870238Y-88071258D01*
X122873549Y-88058904D01*
X122889174Y-88021183D01*
X122907235Y-87884000D01*
X122889174Y-87746817D01*
X122873549Y-87709094D01*
X122873549Y-87671591D01*
X122900068Y-87645073D01*
X122912419Y-87641763D01*
X122971583Y-87633974D01*
X123099418Y-87581024D01*
X123209191Y-87496791D01*
X123293424Y-87387018D01*
X123346374Y-87259183D01*
X123364435Y-87122000D01*
X123346374Y-86984817D01*
X123293424Y-86856983D01*
X123209191Y-86747209D01*
X123099418Y-86662976D01*
X123099414Y-86662974D01*
X122971582Y-86610025D01*
X122834400Y-86591965D01*
X122697217Y-86610025D01*
X122569387Y-86662973D01*
X122569382Y-86662976D01*
X122459609Y-86747208D01*
X122459608Y-86747209D01*
X122390674Y-86837046D01*
X122358196Y-86855798D01*
X122321971Y-86846091D01*
X122312926Y-86837046D01*
X122243992Y-86747210D01*
X122243989Y-86747208D01*
X122134218Y-86662976D01*
X122134214Y-86662974D01*
X122006382Y-86610025D01*
X121869200Y-86591965D01*
X121732017Y-86610025D01*
X121604187Y-86662973D01*
X121604182Y-86662976D01*
X121494410Y-86747207D01*
X121450874Y-86803944D01*
X121418395Y-86822695D01*
X121382170Y-86812988D01*
X121373126Y-86803944D01*
X121369334Y-86799003D01*
X121329591Y-86747209D01*
X121219818Y-86662976D01*
X121219814Y-86662974D01*
X121091982Y-86610025D01*
X120954800Y-86591965D01*
X120817617Y-86610025D01*
X120689787Y-86662973D01*
X120689782Y-86662976D01*
X120580009Y-86747208D01*
X120580008Y-86747209D01*
X120495776Y-86856982D01*
X120495773Y-86856987D01*
X120442825Y-86984817D01*
X120424765Y-87122000D01*
X100508500Y-87122000D01*
X100508500Y-84582000D01*
X128877451Y-84582000D01*
X128897616Y-84851097D01*
X128897618Y-84851106D01*
X128957666Y-85114196D01*
X129056256Y-85365396D01*
X129056259Y-85365401D01*
X129191181Y-85599097D01*
X129191184Y-85599101D01*
X129359434Y-85810080D01*
X129359439Y-85810085D01*
X129557259Y-85993635D01*
X129780226Y-86145651D01*
X129780227Y-86145651D01*
X129780228Y-86145652D01*
X130023352Y-86262735D01*
X130023355Y-86262736D01*
X130023359Y-86262738D01*
X130281228Y-86342280D01*
X130548071Y-86382500D01*
X130548073Y-86382500D01*
X130817927Y-86382500D01*
X130817929Y-86382500D01*
X131084772Y-86342280D01*
X131342641Y-86262738D01*
X131585775Y-86145651D01*
X131808741Y-85993635D01*
X132006561Y-85810085D01*
X132174815Y-85599102D01*
X132309743Y-85365398D01*
X132408334Y-85114195D01*
X132468383Y-84851103D01*
X132488549Y-84582000D01*
X132468383Y-84312897D01*
X132408334Y-84049805D01*
X132309743Y-83798602D01*
X132242279Y-83681750D01*
X132174818Y-83564902D01*
X132174815Y-83564898D01*
X132006565Y-83353919D01*
X132006560Y-83353914D01*
X131808742Y-83170366D01*
X131808740Y-83170364D01*
X131585772Y-83018347D01*
X131342647Y-82901264D01*
X131342634Y-82901259D01*
X131165486Y-82846617D01*
X131084772Y-82821720D01*
X130817929Y-82781500D01*
X130548071Y-82781500D01*
X130281228Y-82821720D01*
X130281225Y-82821721D01*
X130023365Y-82901259D01*
X130023352Y-82901264D01*
X129780228Y-83018347D01*
X129557259Y-83170364D01*
X129557257Y-83170366D01*
X129359439Y-83353914D01*
X129359434Y-83353919D01*
X129191184Y-83564898D01*
X129191181Y-83564902D01*
X129056259Y-83798598D01*
X129056256Y-83798603D01*
X128957666Y-84049803D01*
X128897618Y-84312893D01*
X128897616Y-84312902D01*
X128877451Y-84582000D01*
X100508500Y-84582000D01*
X100508500Y-73050400D01*
X110417165Y-73050400D01*
X110435225Y-73187582D01*
X110475287Y-73284301D01*
X110488176Y-73315418D01*
X110572409Y-73425191D01*
X110682182Y-73509424D01*
X110810017Y-73562374D01*
X110869176Y-73570162D01*
X110901654Y-73588913D01*
X110911361Y-73625138D01*
X110908051Y-73637493D01*
X110892425Y-73675219D01*
X110874365Y-73812400D01*
X110892425Y-73949582D01*
X110908050Y-73987304D01*
X110908050Y-74024807D01*
X110881531Y-74051325D01*
X110869177Y-74054636D01*
X110810017Y-74062425D01*
X110682187Y-74115373D01*
X110682182Y-74115376D01*
X110572409Y-74199608D01*
X110572408Y-74199609D01*
X110488176Y-74309382D01*
X110488173Y-74309387D01*
X110435225Y-74437217D01*
X110417165Y-74574400D01*
X110435225Y-74711582D01*
X110475287Y-74808301D01*
X110488176Y-74839418D01*
X110572409Y-74949191D01*
X110682182Y-75033424D01*
X110810017Y-75086374D01*
X110869176Y-75094162D01*
X110901654Y-75112913D01*
X110911361Y-75149138D01*
X110908051Y-75161493D01*
X110892425Y-75199219D01*
X110874365Y-75336400D01*
X110892425Y-75473582D01*
X110930631Y-75565820D01*
X110930631Y-75603323D01*
X110904112Y-75629841D01*
X110891757Y-75633152D01*
X110860817Y-75637225D01*
X110732987Y-75690173D01*
X110732982Y-75690176D01*
X110623209Y-75774408D01*
X110623208Y-75774409D01*
X110538976Y-75884182D01*
X110538973Y-75884187D01*
X110486025Y-76012017D01*
X110467965Y-76149200D01*
X110486025Y-76286382D01*
X110526087Y-76383101D01*
X110538976Y-76414218D01*
X110623209Y-76523991D01*
X110732982Y-76608224D01*
X110860817Y-76661174D01*
X110919976Y-76668962D01*
X110952454Y-76687713D01*
X110962161Y-76723938D01*
X110958851Y-76736293D01*
X110943225Y-76774019D01*
X110925165Y-76911200D01*
X110943225Y-77048382D01*
X110958850Y-77086104D01*
X110958850Y-77123607D01*
X110932331Y-77150125D01*
X110919977Y-77153436D01*
X110860817Y-77161225D01*
X110732987Y-77214173D01*
X110732982Y-77214176D01*
X110623209Y-77298408D01*
X110623208Y-77298409D01*
X110538976Y-77408182D01*
X110538973Y-77408187D01*
X110486025Y-77536017D01*
X110467965Y-77673200D01*
X110486025Y-77810382D01*
X110526087Y-77907101D01*
X110538976Y-77938218D01*
X110623209Y-78047991D01*
X110732982Y-78132224D01*
X110860817Y-78185174D01*
X110919976Y-78192962D01*
X110952454Y-78211713D01*
X110962161Y-78247938D01*
X110958851Y-78260293D01*
X110943225Y-78298019D01*
X110925165Y-78435200D01*
X110943225Y-78572382D01*
X110996173Y-78700213D01*
X110996177Y-78700220D01*
X110997114Y-78701441D01*
X110997314Y-78702188D01*
X110997780Y-78702995D01*
X110997563Y-78703119D01*
X111006816Y-78737667D01*
X110988060Y-78770143D01*
X110964632Y-78779846D01*
X110911617Y-78786825D01*
X110783787Y-78839773D01*
X110783782Y-78839776D01*
X110674009Y-78924008D01*
X110674008Y-78924009D01*
X110589776Y-79033782D01*
X110589773Y-79033787D01*
X110536825Y-79161617D01*
X110518765Y-79298800D01*
X110536825Y-79435982D01*
X110576887Y-79532701D01*
X110589776Y-79563818D01*
X110674009Y-79673591D01*
X110783782Y-79757824D01*
X110911617Y-79810774D01*
X110970776Y-79818562D01*
X111003254Y-79837313D01*
X111012961Y-79873538D01*
X111009651Y-79885893D01*
X110994025Y-79923619D01*
X110975965Y-80060800D01*
X110994025Y-80197982D01*
X111009650Y-80235704D01*
X111009650Y-80273207D01*
X110983131Y-80299725D01*
X110970777Y-80303036D01*
X110911617Y-80310825D01*
X110783787Y-80363773D01*
X110783782Y-80363776D01*
X110674009Y-80448008D01*
X110674008Y-80448009D01*
X110589776Y-80557782D01*
X110589773Y-80557787D01*
X110536825Y-80685617D01*
X110518765Y-80822800D01*
X110536825Y-80959982D01*
X110576887Y-81056701D01*
X110589776Y-81087818D01*
X110674009Y-81197591D01*
X110783782Y-81281824D01*
X110911617Y-81334774D01*
X110970776Y-81342562D01*
X111003254Y-81361313D01*
X111012961Y-81397538D01*
X111009651Y-81409893D01*
X110994025Y-81447619D01*
X110975965Y-81584800D01*
X110994025Y-81721982D01*
X111033090Y-81816294D01*
X111046976Y-81849818D01*
X111131209Y-81959591D01*
X111240982Y-82043824D01*
X111368817Y-82096774D01*
X111506000Y-82114835D01*
X111643183Y-82096774D01*
X111771018Y-82043824D01*
X111880791Y-81959591D01*
X111949726Y-81869753D01*
X111982204Y-81851002D01*
X112018429Y-81860709D01*
X112027472Y-81869752D01*
X112096409Y-81959591D01*
X112206182Y-82043824D01*
X112334017Y-82096774D01*
X112471200Y-82114835D01*
X112608383Y-82096774D01*
X112736218Y-82043824D01*
X112845991Y-81959591D01*
X112930224Y-81849818D01*
X112983174Y-81721983D01*
X113001235Y-81584800D01*
X112983174Y-81447617D01*
X112967549Y-81409894D01*
X112967549Y-81372391D01*
X112994068Y-81345873D01*
X113006419Y-81342563D01*
X113065583Y-81334774D01*
X113193418Y-81281824D01*
X113303191Y-81197591D01*
X113387424Y-81087818D01*
X113440374Y-80959983D01*
X113458435Y-80822800D01*
X113440374Y-80685617D01*
X113387424Y-80557783D01*
X113303191Y-80448009D01*
X113193418Y-80363776D01*
X113193414Y-80363774D01*
X113065582Y-80310825D01*
X113065583Y-80310825D01*
X113006422Y-80303036D01*
X112973944Y-80284284D01*
X112964238Y-80248058D01*
X112967549Y-80235704D01*
X112983174Y-80197983D01*
X113001235Y-80060800D01*
X112983174Y-79923617D01*
X112967549Y-79885894D01*
X112967549Y-79848391D01*
X112994068Y-79821873D01*
X113006419Y-79818563D01*
X113065583Y-79810774D01*
X113193418Y-79757824D01*
X113303191Y-79673591D01*
X113387424Y-79563818D01*
X113440374Y-79435983D01*
X113458435Y-79298800D01*
X113440374Y-79161617D01*
X113425265Y-79125141D01*
X113387426Y-79033787D01*
X113387423Y-79033782D01*
X113371621Y-79013189D01*
X113303191Y-78924009D01*
X113193418Y-78839776D01*
X113193414Y-78839774D01*
X113065582Y-78786825D01*
X112946460Y-78771142D01*
X112928400Y-78768765D01*
X112928399Y-78768765D01*
X112925189Y-78768765D01*
X112925189Y-78766992D01*
X112894453Y-78758726D01*
X112875730Y-78726231D01*
X112879047Y-78701128D01*
X112905029Y-78638400D01*
X112932374Y-78572383D01*
X112950435Y-78435200D01*
X112932374Y-78298017D01*
X112916749Y-78260294D01*
X112916749Y-78222791D01*
X112943268Y-78196273D01*
X112955619Y-78192963D01*
X113014783Y-78185174D01*
X113142618Y-78132224D01*
X113252391Y-78047991D01*
X113336624Y-77938218D01*
X113389574Y-77810383D01*
X113407635Y-77673200D01*
X113389574Y-77536017D01*
X113375322Y-77501609D01*
X113336626Y-77408187D01*
X113336623Y-77408182D01*
X113252392Y-77298410D01*
X113252389Y-77298408D01*
X113142618Y-77214176D01*
X113142614Y-77214174D01*
X113014782Y-77161225D01*
X113014783Y-77161225D01*
X112955622Y-77153436D01*
X112923144Y-77134684D01*
X112913438Y-77098458D01*
X112916749Y-77086104D01*
X112932374Y-77048383D01*
X112950435Y-76911200D01*
X112932374Y-76774017D01*
X112916749Y-76736294D01*
X112916749Y-76698791D01*
X112943268Y-76672273D01*
X112955619Y-76668963D01*
X113014783Y-76661174D01*
X113142618Y-76608224D01*
X113252391Y-76523991D01*
X113336624Y-76414218D01*
X113389574Y-76286383D01*
X113407635Y-76149200D01*
X113389574Y-76012017D01*
X113375322Y-75977609D01*
X113336626Y-75884187D01*
X113336623Y-75884182D01*
X113315970Y-75857267D01*
X113257083Y-75780524D01*
X113252392Y-75774410D01*
X113252389Y-75774408D01*
X113142618Y-75690176D01*
X113142614Y-75690174D01*
X113014782Y-75637225D01*
X112890717Y-75620892D01*
X112887495Y-75620467D01*
X112855018Y-75601716D01*
X112845311Y-75565491D01*
X112848619Y-75553142D01*
X112881574Y-75473583D01*
X112899635Y-75336400D01*
X112881574Y-75199217D01*
X112865949Y-75161494D01*
X112865949Y-75123991D01*
X112892468Y-75097473D01*
X112904819Y-75094163D01*
X112963983Y-75086374D01*
X113091818Y-75033424D01*
X113201591Y-74949191D01*
X113285824Y-74839418D01*
X113338774Y-74711583D01*
X113356835Y-74574400D01*
X113338774Y-74437217D01*
X113285826Y-74309387D01*
X113285823Y-74309382D01*
X113279552Y-74301210D01*
X113201591Y-74199609D01*
X113091818Y-74115376D01*
X113091814Y-74115374D01*
X112963982Y-74062425D01*
X112963983Y-74062425D01*
X112904822Y-74054636D01*
X112872344Y-74035884D01*
X112862638Y-73999658D01*
X112865949Y-73987304D01*
X112881574Y-73949583D01*
X112899635Y-73812400D01*
X112881574Y-73675217D01*
X112865949Y-73637494D01*
X112865949Y-73599991D01*
X112892468Y-73573473D01*
X112904819Y-73570163D01*
X112963983Y-73562374D01*
X113091818Y-73509424D01*
X113201591Y-73425191D01*
X113255298Y-73355200D01*
X119611965Y-73355200D01*
X119630025Y-73492382D01*
X119679168Y-73611025D01*
X119682976Y-73620218D01*
X119767209Y-73729991D01*
X119876982Y-73814224D01*
X120004817Y-73867174D01*
X120063976Y-73874962D01*
X120096454Y-73893713D01*
X120106161Y-73929938D01*
X120102851Y-73942293D01*
X120087225Y-73980019D01*
X120069165Y-74117200D01*
X120087225Y-74254382D01*
X120102850Y-74292104D01*
X120102850Y-74329607D01*
X120076331Y-74356125D01*
X120063977Y-74359436D01*
X120004817Y-74367225D01*
X119876987Y-74420173D01*
X119876982Y-74420176D01*
X119767209Y-74504408D01*
X119767208Y-74504409D01*
X119682976Y-74614182D01*
X119682973Y-74614187D01*
X119630025Y-74742017D01*
X119611965Y-74879200D01*
X119630025Y-75016382D01*
X119679168Y-75135025D01*
X119682976Y-75144218D01*
X119767209Y-75253991D01*
X119876982Y-75338224D01*
X120004817Y-75391174D01*
X120063976Y-75398962D01*
X120096454Y-75417713D01*
X120106161Y-75453938D01*
X120102851Y-75466293D01*
X120087225Y-75504019D01*
X120069165Y-75641200D01*
X120087225Y-75778382D01*
X120140174Y-75906214D01*
X120140176Y-75906218D01*
X120171853Y-75947500D01*
X120181560Y-75983724D01*
X120162809Y-76016203D01*
X120139375Y-76025910D01*
X120004817Y-76043625D01*
X119876987Y-76096573D01*
X119876982Y-76096576D01*
X119767209Y-76180808D01*
X119767208Y-76180809D01*
X119682976Y-76290582D01*
X119682973Y-76290587D01*
X119630025Y-76418417D01*
X119611965Y-76555600D01*
X119630025Y-76692782D01*
X119679168Y-76811425D01*
X119682976Y-76820618D01*
X119767209Y-76930391D01*
X119876982Y-77014624D01*
X120004817Y-77067574D01*
X120063976Y-77075362D01*
X120096454Y-77094113D01*
X120106161Y-77130338D01*
X120102851Y-77142693D01*
X120087225Y-77180419D01*
X120069165Y-77317600D01*
X120087225Y-77454782D01*
X120102850Y-77492504D01*
X120102850Y-77530007D01*
X120076331Y-77556525D01*
X120063977Y-77559836D01*
X120004817Y-77567625D01*
X119876987Y-77620573D01*
X119876982Y-77620576D01*
X119767209Y-77704808D01*
X119767208Y-77704809D01*
X119682976Y-77814582D01*
X119682973Y-77814587D01*
X119630025Y-77942417D01*
X119611965Y-78079600D01*
X119630025Y-78216782D01*
X119679168Y-78335425D01*
X119682976Y-78344618D01*
X119767209Y-78454391D01*
X119876982Y-78538624D01*
X120004817Y-78591574D01*
X120063976Y-78599362D01*
X120096454Y-78618113D01*
X120106161Y-78654338D01*
X120102851Y-78666693D01*
X120087225Y-78704419D01*
X120069165Y-78841600D01*
X120087225Y-78978782D01*
X120140174Y-79106615D01*
X120140419Y-79107038D01*
X120140451Y-79107282D01*
X120141405Y-79109585D01*
X120140787Y-79109840D01*
X120145313Y-79144220D01*
X120122482Y-79173973D01*
X120104379Y-79180118D01*
X120004817Y-79193225D01*
X119876987Y-79246173D01*
X119876982Y-79246176D01*
X119767209Y-79330408D01*
X119767208Y-79330409D01*
X119682976Y-79440182D01*
X119682973Y-79440187D01*
X119630025Y-79568017D01*
X119611965Y-79705200D01*
X119630025Y-79842382D01*
X119663674Y-79923619D01*
X119682976Y-79970218D01*
X119767209Y-80079991D01*
X119876982Y-80164224D01*
X120004817Y-80217174D01*
X120063976Y-80224962D01*
X120096454Y-80243713D01*
X120106161Y-80279938D01*
X120102851Y-80292293D01*
X120087225Y-80330019D01*
X120069165Y-80467200D01*
X120087225Y-80604382D01*
X120102850Y-80642104D01*
X120102850Y-80679607D01*
X120076331Y-80706125D01*
X120063977Y-80709436D01*
X120004817Y-80717225D01*
X119876987Y-80770173D01*
X119876982Y-80770176D01*
X119767209Y-80854408D01*
X119767208Y-80854409D01*
X119682976Y-80964182D01*
X119682973Y-80964187D01*
X119630025Y-81092017D01*
X119611965Y-81229200D01*
X119630025Y-81366382D01*
X119663674Y-81447619D01*
X119682976Y-81494218D01*
X119767209Y-81603991D01*
X119876982Y-81688224D01*
X120004817Y-81741174D01*
X120063976Y-81748962D01*
X120096454Y-81767713D01*
X120106161Y-81803938D01*
X120102851Y-81816293D01*
X120087225Y-81854019D01*
X120069165Y-81991200D01*
X120087225Y-82128382D01*
X120140174Y-82256214D01*
X120140176Y-82256218D01*
X120224409Y-82365991D01*
X120334182Y-82450224D01*
X120462017Y-82503174D01*
X120599200Y-82521235D01*
X120736383Y-82503174D01*
X120864218Y-82450224D01*
X120973991Y-82365991D01*
X121042926Y-82276153D01*
X121075404Y-82257402D01*
X121111629Y-82267109D01*
X121120672Y-82276152D01*
X121189609Y-82365991D01*
X121299382Y-82450224D01*
X121427217Y-82503174D01*
X121564400Y-82521235D01*
X121701583Y-82503174D01*
X121829418Y-82450224D01*
X121939191Y-82365991D01*
X122023424Y-82256218D01*
X122076374Y-82128383D01*
X122094435Y-81991200D01*
X122076374Y-81854017D01*
X122060749Y-81816294D01*
X122060749Y-81778791D01*
X122087268Y-81752273D01*
X122099619Y-81748963D01*
X122158783Y-81741174D01*
X122286618Y-81688224D01*
X122396391Y-81603991D01*
X122480624Y-81494218D01*
X122533574Y-81366383D01*
X122551635Y-81229200D01*
X122533574Y-81092017D01*
X122518946Y-81056701D01*
X122480626Y-80964187D01*
X122480623Y-80964182D01*
X122396392Y-80854410D01*
X122396389Y-80854408D01*
X122286618Y-80770176D01*
X122286614Y-80770174D01*
X122158782Y-80717225D01*
X122158783Y-80717225D01*
X122099622Y-80709436D01*
X122067144Y-80690684D01*
X122057438Y-80654458D01*
X122060749Y-80642104D01*
X122076374Y-80604383D01*
X122094435Y-80467200D01*
X122076374Y-80330017D01*
X122068425Y-80310826D01*
X122060749Y-80292294D01*
X122060749Y-80254791D01*
X122087268Y-80228273D01*
X122099619Y-80224963D01*
X122158783Y-80217174D01*
X122286618Y-80164224D01*
X122396391Y-80079991D01*
X122480624Y-79970218D01*
X122533574Y-79842383D01*
X122551635Y-79705200D01*
X122533574Y-79568017D01*
X122518946Y-79532701D01*
X122480626Y-79440187D01*
X122480623Y-79440182D01*
X122396392Y-79330410D01*
X122396389Y-79330408D01*
X122286618Y-79246176D01*
X122286614Y-79246174D01*
X122158782Y-79193225D01*
X122059221Y-79180118D01*
X122026743Y-79161366D01*
X122017036Y-79125141D01*
X122022302Y-79109630D01*
X122022195Y-79109586D01*
X122022876Y-79107941D01*
X122023185Y-79107032D01*
X122023425Y-79106616D01*
X122053593Y-79033782D01*
X122076374Y-78978783D01*
X122094435Y-78841600D01*
X122076374Y-78704417D01*
X122060749Y-78666694D01*
X122060749Y-78629191D01*
X122087268Y-78602673D01*
X122099619Y-78599363D01*
X122158783Y-78591574D01*
X122286618Y-78538624D01*
X122396391Y-78454391D01*
X122480624Y-78344618D01*
X122533574Y-78216783D01*
X122551635Y-78079600D01*
X122533574Y-77942417D01*
X122518946Y-77907101D01*
X122480626Y-77814587D01*
X122480623Y-77814582D01*
X122396392Y-77704810D01*
X122396389Y-77704808D01*
X122286618Y-77620576D01*
X122286614Y-77620574D01*
X122158782Y-77567625D01*
X122158783Y-77567625D01*
X122099622Y-77559836D01*
X122067144Y-77541084D01*
X122057438Y-77504858D01*
X122060749Y-77492504D01*
X122076374Y-77454783D01*
X122094435Y-77317600D01*
X122076374Y-77180417D01*
X122068425Y-77161226D01*
X122060749Y-77142694D01*
X122060749Y-77105191D01*
X122087268Y-77078673D01*
X122099619Y-77075363D01*
X122158783Y-77067574D01*
X122286618Y-77014624D01*
X122396391Y-76930391D01*
X122480624Y-76820618D01*
X122533574Y-76692783D01*
X122551635Y-76555600D01*
X122533574Y-76418417D01*
X122518946Y-76383101D01*
X122480626Y-76290587D01*
X122480623Y-76290582D01*
X122396392Y-76180810D01*
X122396389Y-76180808D01*
X122286618Y-76096576D01*
X122286614Y-76096574D01*
X122158782Y-76043625D01*
X122024224Y-76025910D01*
X121991746Y-76007158D01*
X121982039Y-75970933D01*
X121991744Y-75947503D01*
X122023424Y-75906218D01*
X122076374Y-75778383D01*
X122094435Y-75641200D01*
X122076374Y-75504017D01*
X122060749Y-75466294D01*
X122060749Y-75428791D01*
X122087268Y-75402273D01*
X122099619Y-75398963D01*
X122158783Y-75391174D01*
X122286618Y-75338224D01*
X122396391Y-75253991D01*
X122480624Y-75144218D01*
X122533574Y-75016383D01*
X122551635Y-74879200D01*
X122533574Y-74742017D01*
X122480624Y-74614183D01*
X122396391Y-74504409D01*
X122286618Y-74420176D01*
X122286614Y-74420174D01*
X122158782Y-74367225D01*
X122158783Y-74367225D01*
X122099622Y-74359436D01*
X122067144Y-74340684D01*
X122057438Y-74304458D01*
X122060749Y-74292104D01*
X122076374Y-74254383D01*
X122094435Y-74117200D01*
X122076374Y-73980017D01*
X122060749Y-73942294D01*
X122060749Y-73904791D01*
X122087268Y-73878273D01*
X122099619Y-73874963D01*
X122158783Y-73867174D01*
X122286618Y-73814224D01*
X122396391Y-73729991D01*
X122480624Y-73620218D01*
X122533574Y-73492383D01*
X122551635Y-73355200D01*
X122533574Y-73218017D01*
X122506229Y-73152000D01*
X128908365Y-73152000D01*
X128926425Y-73289182D01*
X128966487Y-73385901D01*
X128979376Y-73417018D01*
X129063609Y-73526791D01*
X129173382Y-73611024D01*
X129301217Y-73663974D01*
X129360376Y-73671762D01*
X129392854Y-73690513D01*
X129402561Y-73726738D01*
X129399251Y-73739093D01*
X129383625Y-73776819D01*
X129365565Y-73914000D01*
X129383625Y-74051182D01*
X129399250Y-74088904D01*
X129399250Y-74126407D01*
X129372731Y-74152925D01*
X129360377Y-74156236D01*
X129301217Y-74164025D01*
X129173387Y-74216973D01*
X129173382Y-74216976D01*
X129063609Y-74301208D01*
X129063608Y-74301209D01*
X128979376Y-74410982D01*
X128979373Y-74410987D01*
X128926425Y-74538817D01*
X128908365Y-74676000D01*
X128926425Y-74813182D01*
X128966487Y-74909901D01*
X128979376Y-74941018D01*
X129063609Y-75050791D01*
X129173382Y-75135024D01*
X129301217Y-75187974D01*
X129360376Y-75195762D01*
X129392854Y-75214513D01*
X129402561Y-75250738D01*
X129399251Y-75263093D01*
X129383625Y-75300819D01*
X129365565Y-75438000D01*
X129383625Y-75575182D01*
X129436574Y-75703014D01*
X129436576Y-75703018D01*
X129468253Y-75744300D01*
X129477960Y-75780524D01*
X129459209Y-75813003D01*
X129435775Y-75822710D01*
X129301217Y-75840425D01*
X129173387Y-75893373D01*
X129173382Y-75893376D01*
X129063609Y-75977608D01*
X129063608Y-75977609D01*
X128979376Y-76087382D01*
X128979373Y-76087387D01*
X128926425Y-76215217D01*
X128908365Y-76352400D01*
X128926425Y-76489582D01*
X128975568Y-76608225D01*
X128979376Y-76617418D01*
X129063609Y-76727191D01*
X129173382Y-76811424D01*
X129301217Y-76864374D01*
X129360376Y-76872162D01*
X129392854Y-76890913D01*
X129402561Y-76927138D01*
X129399251Y-76939493D01*
X129383625Y-76977219D01*
X129365565Y-77114400D01*
X129383625Y-77251582D01*
X129399250Y-77289304D01*
X129399250Y-77326807D01*
X129372731Y-77353325D01*
X129360377Y-77356636D01*
X129301217Y-77364425D01*
X129173387Y-77417373D01*
X129173382Y-77417376D01*
X129063609Y-77501608D01*
X129063608Y-77501609D01*
X128979376Y-77611382D01*
X128979373Y-77611387D01*
X128926425Y-77739217D01*
X128908365Y-77876400D01*
X128926425Y-78013582D01*
X128975568Y-78132225D01*
X128979376Y-78141418D01*
X129063609Y-78251191D01*
X129173382Y-78335424D01*
X129301217Y-78388374D01*
X129360376Y-78396162D01*
X129392854Y-78414913D01*
X129402561Y-78451138D01*
X129399251Y-78463493D01*
X129383625Y-78501219D01*
X129365565Y-78638400D01*
X129383625Y-78775582D01*
X129436574Y-78903414D01*
X129436576Y-78903418D01*
X129520809Y-79013191D01*
X129630582Y-79097424D01*
X129758417Y-79150374D01*
X129895600Y-79168435D01*
X130032783Y-79150374D01*
X130160618Y-79097424D01*
X130270391Y-79013191D01*
X130339326Y-78923353D01*
X130371804Y-78904602D01*
X130408029Y-78914309D01*
X130417072Y-78923352D01*
X130486009Y-79013191D01*
X130595782Y-79097424D01*
X130723617Y-79150374D01*
X130860800Y-79168435D01*
X130997983Y-79150374D01*
X131125818Y-79097424D01*
X131235591Y-79013191D01*
X131319824Y-78903418D01*
X131372774Y-78775583D01*
X131390835Y-78638400D01*
X131372774Y-78501217D01*
X131357149Y-78463494D01*
X131357149Y-78425991D01*
X131383668Y-78399473D01*
X131396019Y-78396163D01*
X131455183Y-78388374D01*
X131583018Y-78335424D01*
X131692791Y-78251191D01*
X131777024Y-78141418D01*
X131829974Y-78013583D01*
X131848035Y-77876400D01*
X131829974Y-77739217D01*
X131815722Y-77704809D01*
X131777026Y-77611387D01*
X131777023Y-77611382D01*
X131692792Y-77501610D01*
X131692789Y-77501608D01*
X131583018Y-77417376D01*
X131583014Y-77417374D01*
X131455182Y-77364425D01*
X131455183Y-77364425D01*
X131396022Y-77356636D01*
X131363544Y-77337884D01*
X131353838Y-77301658D01*
X131357149Y-77289304D01*
X131372774Y-77251583D01*
X131390835Y-77114400D01*
X131372774Y-76977217D01*
X131357149Y-76939494D01*
X131357149Y-76901991D01*
X131383668Y-76875473D01*
X131396019Y-76872163D01*
X131455183Y-76864374D01*
X131583018Y-76811424D01*
X131692791Y-76727191D01*
X131777024Y-76617418D01*
X131829974Y-76489583D01*
X131848035Y-76352400D01*
X131829974Y-76215217D01*
X131815722Y-76180809D01*
X131777026Y-76087387D01*
X131777023Y-76087382D01*
X131692792Y-75977610D01*
X131692789Y-75977608D01*
X131583018Y-75893376D01*
X131583014Y-75893374D01*
X131455182Y-75840425D01*
X131320624Y-75822710D01*
X131288146Y-75803958D01*
X131278439Y-75767733D01*
X131288144Y-75744303D01*
X131319824Y-75703018D01*
X131372774Y-75575183D01*
X131390835Y-75438000D01*
X131372774Y-75300817D01*
X131357149Y-75263094D01*
X131357149Y-75225591D01*
X131383668Y-75199073D01*
X131396019Y-75195763D01*
X131455183Y-75187974D01*
X131583018Y-75135024D01*
X131692791Y-75050791D01*
X131777024Y-74941018D01*
X131829974Y-74813183D01*
X131848035Y-74676000D01*
X131829974Y-74538817D01*
X131815722Y-74504409D01*
X131777026Y-74410987D01*
X131777023Y-74410982D01*
X131692792Y-74301210D01*
X131692789Y-74301208D01*
X131583018Y-74216976D01*
X131583014Y-74216974D01*
X131455182Y-74164025D01*
X131455183Y-74164025D01*
X131396022Y-74156236D01*
X131363544Y-74137484D01*
X131353838Y-74101258D01*
X131357149Y-74088904D01*
X131372774Y-74051183D01*
X131390835Y-73914000D01*
X131372774Y-73776817D01*
X131357149Y-73739094D01*
X131357149Y-73701591D01*
X131383668Y-73675073D01*
X131396019Y-73671763D01*
X131455183Y-73663974D01*
X131583018Y-73611024D01*
X131692791Y-73526791D01*
X131777024Y-73417018D01*
X131829974Y-73289183D01*
X131848035Y-73152000D01*
X131829974Y-73014817D01*
X131815722Y-72980409D01*
X131777026Y-72886987D01*
X131777023Y-72886982D01*
X131776114Y-72885798D01*
X131699063Y-72785383D01*
X131692792Y-72777210D01*
X131692789Y-72777208D01*
X131583018Y-72692976D01*
X131583014Y-72692974D01*
X131455182Y-72640025D01*
X131318000Y-72621965D01*
X131180817Y-72640025D01*
X131052987Y-72692973D01*
X131052982Y-72692976D01*
X130943209Y-72777208D01*
X130943208Y-72777209D01*
X130874274Y-72867046D01*
X130841796Y-72885798D01*
X130805571Y-72876091D01*
X130796526Y-72867046D01*
X130727592Y-72777210D01*
X130727589Y-72777208D01*
X130617818Y-72692976D01*
X130617814Y-72692974D01*
X130489982Y-72640025D01*
X130352800Y-72621965D01*
X130215617Y-72640025D01*
X130087787Y-72692973D01*
X130087782Y-72692976D01*
X129978010Y-72777207D01*
X129934474Y-72833944D01*
X129901995Y-72852695D01*
X129865770Y-72842988D01*
X129856726Y-72833944D01*
X129849989Y-72825165D01*
X129813191Y-72777209D01*
X129703418Y-72692976D01*
X129703414Y-72692974D01*
X129575582Y-72640025D01*
X129438400Y-72621965D01*
X129301217Y-72640025D01*
X129173387Y-72692973D01*
X129173382Y-72692976D01*
X129063609Y-72777208D01*
X129063608Y-72777209D01*
X128979376Y-72886982D01*
X128979373Y-72886987D01*
X128926425Y-73014817D01*
X128908365Y-73152000D01*
X122506229Y-73152000D01*
X122480624Y-73090183D01*
X122396391Y-72980409D01*
X122286618Y-72896176D01*
X122286614Y-72896174D01*
X122158782Y-72843225D01*
X122021600Y-72825165D01*
X121884417Y-72843225D01*
X121756587Y-72896173D01*
X121756582Y-72896176D01*
X121646809Y-72980408D01*
X121646808Y-72980409D01*
X121577874Y-73070246D01*
X121545396Y-73088998D01*
X121509171Y-73079291D01*
X121500126Y-73070246D01*
X121431192Y-72980410D01*
X121431189Y-72980408D01*
X121321418Y-72896176D01*
X121321414Y-72896174D01*
X121193582Y-72843225D01*
X121056400Y-72825165D01*
X120919217Y-72843225D01*
X120791387Y-72896173D01*
X120791382Y-72896176D01*
X120681610Y-72980407D01*
X120638074Y-73037144D01*
X120605595Y-73055895D01*
X120569370Y-73046188D01*
X120560326Y-73037144D01*
X120556534Y-73032203D01*
X120516791Y-72980409D01*
X120407018Y-72896176D01*
X120407014Y-72896174D01*
X120279182Y-72843225D01*
X120142000Y-72825165D01*
X120004817Y-72843225D01*
X119876987Y-72896173D01*
X119876982Y-72896176D01*
X119767209Y-72980408D01*
X119767208Y-72980409D01*
X119682976Y-73090182D01*
X119682973Y-73090187D01*
X119630025Y-73218017D01*
X119611965Y-73355200D01*
X113255298Y-73355200D01*
X113285824Y-73315418D01*
X113338774Y-73187583D01*
X113356835Y-73050400D01*
X113338774Y-72913217D01*
X113285826Y-72785387D01*
X113285823Y-72785382D01*
X113284914Y-72784198D01*
X113201591Y-72675609D01*
X113091818Y-72591376D01*
X113091814Y-72591374D01*
X112963982Y-72538425D01*
X112826800Y-72520365D01*
X112689617Y-72538425D01*
X112561787Y-72591373D01*
X112561782Y-72591376D01*
X112452009Y-72675608D01*
X112452008Y-72675609D01*
X112383074Y-72765446D01*
X112350596Y-72784198D01*
X112314371Y-72774491D01*
X112305326Y-72765446D01*
X112236392Y-72675610D01*
X112236389Y-72675608D01*
X112126618Y-72591376D01*
X112126614Y-72591374D01*
X111998782Y-72538425D01*
X111861600Y-72520365D01*
X111724417Y-72538425D01*
X111596587Y-72591373D01*
X111596582Y-72591376D01*
X111486810Y-72675607D01*
X111443274Y-72732344D01*
X111410795Y-72751095D01*
X111374570Y-72741388D01*
X111365526Y-72732344D01*
X111335317Y-72692976D01*
X111321991Y-72675609D01*
X111212218Y-72591376D01*
X111212214Y-72591374D01*
X111084382Y-72538425D01*
X110947200Y-72520365D01*
X110810017Y-72538425D01*
X110682187Y-72591373D01*
X110682182Y-72591376D01*
X110572409Y-72675608D01*
X110572408Y-72675609D01*
X110488176Y-72785382D01*
X110488173Y-72785387D01*
X110435225Y-72913217D01*
X110417165Y-73050400D01*
X100508500Y-73050400D01*
X100508500Y-70033800D01*
X109929051Y-70033800D01*
X109949216Y-70302897D01*
X109949216Y-70302900D01*
X109949217Y-70302903D01*
X109961178Y-70355308D01*
X110009266Y-70565996D01*
X110107856Y-70817196D01*
X110107859Y-70817201D01*
X110242781Y-71050897D01*
X110242784Y-71050901D01*
X110411034Y-71261880D01*
X110411039Y-71261885D01*
X110608859Y-71445435D01*
X110831826Y-71597451D01*
X110831827Y-71597451D01*
X110831828Y-71597452D01*
X111074952Y-71714535D01*
X111074955Y-71714536D01*
X111074959Y-71714538D01*
X111332828Y-71794080D01*
X111599671Y-71834300D01*
X111599673Y-71834300D01*
X111869527Y-71834300D01*
X111869529Y-71834300D01*
X112136372Y-71794080D01*
X112394241Y-71714538D01*
X112637375Y-71597451D01*
X112860341Y-71445435D01*
X113058161Y-71261885D01*
X113226415Y-71050902D01*
X113361343Y-70817198D01*
X113453652Y-70582000D01*
X142037532Y-70582000D01*
X142057365Y-70808694D01*
X142057366Y-70808700D01*
X142116258Y-71028488D01*
X142116259Y-71028493D01*
X142212430Y-71234732D01*
X142212438Y-71234744D01*
X142342948Y-71421133D01*
X142342954Y-71421140D01*
X142503859Y-71582045D01*
X142503866Y-71582051D01*
X142690255Y-71712561D01*
X142690267Y-71712569D01*
X142896506Y-71808740D01*
X142896511Y-71808741D01*
X143116299Y-71867633D01*
X143116303Y-71867633D01*
X143116308Y-71867635D01*
X143343000Y-71887468D01*
X143569692Y-71867635D01*
X143569698Y-71867633D01*
X143569700Y-71867633D01*
X143679594Y-71838187D01*
X143789490Y-71808740D01*
X143789493Y-71808740D01*
X143789493Y-71808739D01*
X143789496Y-71808739D01*
X143995734Y-71712568D01*
X144182139Y-71582047D01*
X144343047Y-71421139D01*
X144473568Y-71234734D01*
X144569739Y-71028496D01*
X144626356Y-70817198D01*
X144628633Y-70808700D01*
X144628634Y-70808694D01*
X144628635Y-70808692D01*
X144648468Y-70582000D01*
X144628635Y-70355308D01*
X144614593Y-70302903D01*
X144569741Y-70135511D01*
X144569740Y-70135506D01*
X144473569Y-69929267D01*
X144473561Y-69929255D01*
X144343051Y-69742866D01*
X144343045Y-69742859D01*
X144182140Y-69581954D01*
X144182133Y-69581948D01*
X143995744Y-69451438D01*
X143995732Y-69451430D01*
X143789493Y-69355259D01*
X143789488Y-69355258D01*
X143569700Y-69296366D01*
X143569694Y-69296365D01*
X143343000Y-69276532D01*
X143116305Y-69296365D01*
X143116299Y-69296366D01*
X142896511Y-69355258D01*
X142896506Y-69355259D01*
X142690267Y-69451430D01*
X142690255Y-69451438D01*
X142503866Y-69581948D01*
X142503859Y-69581954D01*
X142342954Y-69742859D01*
X142342948Y-69742866D01*
X142212438Y-69929255D01*
X142212430Y-69929267D01*
X142116259Y-70135506D01*
X142116258Y-70135511D01*
X142057366Y-70355299D01*
X142057365Y-70355305D01*
X142037532Y-70582000D01*
X113453652Y-70582000D01*
X113459934Y-70565995D01*
X113519983Y-70302903D01*
X113540149Y-70033800D01*
X113519983Y-69764697D01*
X113459934Y-69501605D01*
X113361343Y-69250402D01*
X113293879Y-69133550D01*
X113226418Y-69016702D01*
X113226415Y-69016698D01*
X113058165Y-68805719D01*
X113058160Y-68805714D01*
X112860342Y-68622166D01*
X112860340Y-68622164D01*
X112637372Y-68470147D01*
X112394247Y-68353064D01*
X112394234Y-68353059D01*
X112217086Y-68298417D01*
X112136372Y-68273520D01*
X111869529Y-68233300D01*
X111599671Y-68233300D01*
X111332828Y-68273520D01*
X111332825Y-68273521D01*
X111074965Y-68353059D01*
X111074952Y-68353064D01*
X110831828Y-68470147D01*
X110608859Y-68622164D01*
X110608857Y-68622166D01*
X110411039Y-68805714D01*
X110411034Y-68805719D01*
X110242784Y-69016698D01*
X110242781Y-69016702D01*
X110107859Y-69250398D01*
X110107856Y-69250403D01*
X110009266Y-69501603D01*
X109949218Y-69764693D01*
X109949216Y-69764702D01*
X109929051Y-70033800D01*
X100508500Y-70033800D01*
X100508500Y-66782000D01*
X118737451Y-66782000D01*
X118757616Y-67051097D01*
X118757618Y-67051106D01*
X118817666Y-67314196D01*
X118916256Y-67565396D01*
X118916259Y-67565401D01*
X119051181Y-67799097D01*
X119051184Y-67799101D01*
X119219434Y-68010080D01*
X119219439Y-68010085D01*
X119417259Y-68193635D01*
X119640226Y-68345651D01*
X119640227Y-68345651D01*
X119640228Y-68345652D01*
X119883352Y-68462735D01*
X119883355Y-68462736D01*
X119883359Y-68462738D01*
X120141228Y-68542280D01*
X120408071Y-68582500D01*
X120408073Y-68582500D01*
X120677927Y-68582500D01*
X120677929Y-68582500D01*
X120944772Y-68542280D01*
X121202641Y-68462738D01*
X121445775Y-68345651D01*
X121668741Y-68193635D01*
X121866561Y-68010085D01*
X122034815Y-67799102D01*
X122169743Y-67565398D01*
X122268334Y-67314195D01*
X122328383Y-67051103D01*
X122348549Y-66782000D01*
X126337451Y-66782000D01*
X126357616Y-67051097D01*
X126357618Y-67051106D01*
X126417666Y-67314196D01*
X126516256Y-67565396D01*
X126516259Y-67565401D01*
X126651181Y-67799097D01*
X126651184Y-67799101D01*
X126819434Y-68010080D01*
X126819439Y-68010085D01*
X127017259Y-68193635D01*
X127240226Y-68345651D01*
X127240227Y-68345651D01*
X127240228Y-68345652D01*
X127483352Y-68462735D01*
X127483355Y-68462736D01*
X127483359Y-68462738D01*
X127741228Y-68542280D01*
X128008071Y-68582500D01*
X128008073Y-68582500D01*
X128277927Y-68582500D01*
X128277929Y-68582500D01*
X128544772Y-68542280D01*
X128802641Y-68462738D01*
X129045775Y-68345651D01*
X129268741Y-68193635D01*
X129466561Y-68010085D01*
X129634815Y-67799102D01*
X129769743Y-67565398D01*
X129868334Y-67314195D01*
X129928383Y-67051103D01*
X129948549Y-66782000D01*
X129928383Y-66512897D01*
X129868334Y-66249805D01*
X129769743Y-65998602D01*
X129702279Y-65881750D01*
X129634818Y-65764902D01*
X129634815Y-65764898D01*
X129466565Y-65553919D01*
X129466560Y-65553914D01*
X129268742Y-65370366D01*
X129268740Y-65370364D01*
X129045772Y-65218347D01*
X128802647Y-65101264D01*
X128802634Y-65101259D01*
X128625486Y-65046617D01*
X128544772Y-65021720D01*
X128277929Y-64981500D01*
X128008071Y-64981500D01*
X127741228Y-65021720D01*
X127741225Y-65021721D01*
X127483365Y-65101259D01*
X127483352Y-65101264D01*
X127240228Y-65218347D01*
X127017259Y-65370364D01*
X127017257Y-65370366D01*
X126819439Y-65553914D01*
X126819434Y-65553919D01*
X126651184Y-65764898D01*
X126651181Y-65764902D01*
X126516259Y-65998598D01*
X126516256Y-65998603D01*
X126417666Y-66249803D01*
X126357618Y-66512893D01*
X126357616Y-66512902D01*
X126337451Y-66782000D01*
X122348549Y-66782000D01*
X122328383Y-66512897D01*
X122268334Y-66249805D01*
X122169743Y-65998602D01*
X122102279Y-65881750D01*
X122034818Y-65764902D01*
X122034815Y-65764898D01*
X121866565Y-65553919D01*
X121866560Y-65553914D01*
X121668742Y-65370366D01*
X121668740Y-65370364D01*
X121445772Y-65218347D01*
X121202647Y-65101264D01*
X121202634Y-65101259D01*
X121025486Y-65046617D01*
X120944772Y-65021720D01*
X120677929Y-64981500D01*
X120408071Y-64981500D01*
X120141228Y-65021720D01*
X120141225Y-65021721D01*
X119883365Y-65101259D01*
X119883352Y-65101264D01*
X119640228Y-65218347D01*
X119417259Y-65370364D01*
X119417257Y-65370366D01*
X119219439Y-65553914D01*
X119219434Y-65553919D01*
X119051184Y-65764898D01*
X119051181Y-65764902D01*
X118916259Y-65998598D01*
X118916256Y-65998603D01*
X118817666Y-66249803D01*
X118757618Y-66512893D01*
X118757616Y-66512902D01*
X118737451Y-66782000D01*
X100508500Y-66782000D01*
X100508500Y-55000000D01*
X101394615Y-55000000D01*
X101414140Y-55347685D01*
X101414141Y-55347692D01*
X101472475Y-55691023D01*
X101568880Y-56025646D01*
X101702140Y-56347365D01*
X101702147Y-56347380D01*
X101870595Y-56652165D01*
X101870600Y-56652172D01*
X102072106Y-56936169D01*
X102072122Y-56936188D01*
X102175962Y-57052384D01*
X102304161Y-57195839D01*
X102464685Y-57339292D01*
X102563811Y-57427877D01*
X102563830Y-57427893D01*
X102847827Y-57629399D01*
X102847834Y-57629404D01*
X102888011Y-57651609D01*
X103152624Y-57797855D01*
X103474356Y-57931121D01*
X103765618Y-58015032D01*
X103808976Y-58027524D01*
X103808977Y-58027524D01*
X103808987Y-58027527D01*
X104152307Y-58085859D01*
X104500000Y-58105385D01*
X104847693Y-58085859D01*
X105191013Y-58027527D01*
X105525644Y-57931121D01*
X105847376Y-57797855D01*
X106152164Y-57629405D01*
X106436176Y-57427888D01*
X106695839Y-57195839D01*
X106927888Y-56936176D01*
X107129405Y-56652164D01*
X107297855Y-56347376D01*
X107431121Y-56025644D01*
X107527527Y-55691013D01*
X107585859Y-55347693D01*
X107605385Y-55000000D01*
X107597747Y-54863998D01*
X117000852Y-54863998D01*
X117000852Y-54864001D01*
X117020227Y-55221363D01*
X117020227Y-55221365D01*
X117020228Y-55221371D01*
X117066548Y-55503915D01*
X117078129Y-55574553D01*
X117173873Y-55919395D01*
X117173876Y-55919404D01*
X117306345Y-56251876D01*
X117306347Y-56251881D01*
X117473989Y-56568085D01*
X117473993Y-56568093D01*
X117674831Y-56864306D01*
X117906524Y-57137078D01*
X117906532Y-57137086D01*
X118166363Y-57383211D01*
X118451281Y-57599800D01*
X118451288Y-57599805D01*
X118757947Y-57784315D01*
X119082759Y-57934589D01*
X119082765Y-57934591D01*
X119421926Y-58048868D01*
X119589973Y-58085858D01*
X119771444Y-58125803D01*
X119771445Y-58125803D01*
X119771454Y-58125805D01*
X120127252Y-58164500D01*
X120127257Y-58164500D01*
X120485143Y-58164500D01*
X120485148Y-58164500D01*
X120840946Y-58125805D01*
X121190474Y-58048868D01*
X121529635Y-57934591D01*
X121529637Y-57934589D01*
X121529640Y-57934589D01*
X121660771Y-57873921D01*
X121854453Y-57784315D01*
X122033254Y-57676734D01*
X135674500Y-57676734D01*
X135674500Y-59366458D01*
X135674501Y-59366468D01*
X135677415Y-59391592D01*
X135722794Y-59494366D01*
X135802233Y-59573805D01*
X135905006Y-59619184D01*
X135905009Y-59619185D01*
X135930135Y-59622100D01*
X137619864Y-59622099D01*
X137644991Y-59619185D01*
X137747765Y-59573806D01*
X137827206Y-59494365D01*
X137872585Y-59391591D01*
X137875500Y-59366465D01*
X137875499Y-58521600D01*
X143289785Y-58521600D01*
X143308602Y-58724679D01*
X143308603Y-58724685D01*
X143364417Y-58920848D01*
X143364420Y-58920855D01*
X143455325Y-59103418D01*
X143455328Y-59103422D01*
X143578233Y-59266176D01*
X143578236Y-59266179D01*
X143728954Y-59403577D01*
X143728955Y-59403578D01*
X143728959Y-59403581D01*
X143902363Y-59510948D01*
X144092544Y-59584624D01*
X144293024Y-59622100D01*
X144293026Y-59622100D01*
X144496974Y-59622100D01*
X144496976Y-59622100D01*
X144697456Y-59584624D01*
X144887637Y-59510948D01*
X145061041Y-59403581D01*
X145211764Y-59266179D01*
X145334673Y-59103421D01*
X145425582Y-58920850D01*
X145481397Y-58724683D01*
X145500215Y-58521600D01*
X145481397Y-58318517D01*
X145425582Y-58122350D01*
X145334673Y-57939779D01*
X145227495Y-57797852D01*
X145211766Y-57777023D01*
X145211763Y-57777020D01*
X145061045Y-57639622D01*
X145061042Y-57639620D01*
X145061041Y-57639619D01*
X144887637Y-57532252D01*
X144887634Y-57532251D01*
X144887633Y-57532250D01*
X144697462Y-57458578D01*
X144697460Y-57458577D01*
X144697456Y-57458576D01*
X144496976Y-57421100D01*
X144293024Y-57421100D01*
X144092544Y-57458576D01*
X144092540Y-57458577D01*
X144092537Y-57458578D01*
X143902366Y-57532250D01*
X143728954Y-57639622D01*
X143578236Y-57777020D01*
X143578233Y-57777023D01*
X143455328Y-57939777D01*
X143455325Y-57939781D01*
X143364420Y-58122344D01*
X143364417Y-58122351D01*
X143308603Y-58318514D01*
X143308602Y-58318520D01*
X143289785Y-58521600D01*
X137875499Y-58521600D01*
X137875499Y-57676736D01*
X137872585Y-57651609D01*
X137827206Y-57548835D01*
X137827205Y-57548834D01*
X137827205Y-57548833D01*
X137747766Y-57469394D01*
X137747767Y-57469394D01*
X137644993Y-57424015D01*
X137632428Y-57422557D01*
X137619865Y-57421100D01*
X137619863Y-57421100D01*
X135930141Y-57421100D01*
X135930131Y-57421101D01*
X135905007Y-57424015D01*
X135802233Y-57469394D01*
X135722794Y-57548833D01*
X135677415Y-57651606D01*
X135674500Y-57676734D01*
X122033254Y-57676734D01*
X122161119Y-57599800D01*
X122446037Y-57383211D01*
X122705868Y-57137086D01*
X122937565Y-56864311D01*
X123081399Y-56652172D01*
X123138406Y-56568093D01*
X123138407Y-56568090D01*
X123138411Y-56568085D01*
X123306053Y-56251880D01*
X123438524Y-55919403D01*
X123534271Y-55574552D01*
X123592172Y-55221371D01*
X123604174Y-55000000D01*
X146394615Y-55000000D01*
X146414140Y-55347685D01*
X146414141Y-55347692D01*
X146472475Y-55691023D01*
X146568880Y-56025646D01*
X146702140Y-56347365D01*
X146702147Y-56347380D01*
X146870595Y-56652165D01*
X146870600Y-56652172D01*
X147072106Y-56936169D01*
X147072122Y-56936188D01*
X147175962Y-57052384D01*
X147304161Y-57195839D01*
X147464685Y-57339292D01*
X147563811Y-57427877D01*
X147563830Y-57427893D01*
X147847827Y-57629399D01*
X147847834Y-57629404D01*
X147888011Y-57651609D01*
X148152624Y-57797855D01*
X148474356Y-57931121D01*
X148765618Y-58015032D01*
X148808976Y-58027524D01*
X148808977Y-58027524D01*
X148808987Y-58027527D01*
X149152307Y-58085859D01*
X149500000Y-58105385D01*
X149847693Y-58085859D01*
X150191013Y-58027527D01*
X150525644Y-57931121D01*
X150847376Y-57797855D01*
X151152164Y-57629405D01*
X151436176Y-57427888D01*
X151695839Y-57195839D01*
X151927888Y-56936176D01*
X152129405Y-56652164D01*
X152297855Y-56347376D01*
X152431121Y-56025644D01*
X152527527Y-55691013D01*
X152585859Y-55347693D01*
X152605385Y-55000000D01*
X152585859Y-54652307D01*
X152527527Y-54308987D01*
X152431121Y-53974356D01*
X152297855Y-53652624D01*
X152129405Y-53347836D01*
X152129399Y-53347827D01*
X151927893Y-53063830D01*
X151927877Y-53063811D01*
X151839292Y-52964685D01*
X151695839Y-52804161D01*
X151552384Y-52675962D01*
X151436188Y-52572122D01*
X151436169Y-52572106D01*
X151152172Y-52370600D01*
X151152165Y-52370595D01*
X150847380Y-52202147D01*
X150847365Y-52202140D01*
X150525646Y-52068880D01*
X150525647Y-52068880D01*
X150525644Y-52068879D01*
X150416956Y-52037566D01*
X150191023Y-51972475D01*
X150191015Y-51972473D01*
X150191013Y-51972473D01*
X149847693Y-51914141D01*
X149847691Y-51914140D01*
X149847685Y-51914140D01*
X149500000Y-51894615D01*
X149152314Y-51914140D01*
X149152307Y-51914141D01*
X148808987Y-51972473D01*
X148808985Y-51972473D01*
X148808976Y-51972475D01*
X148474353Y-52068880D01*
X148152634Y-52202140D01*
X148152619Y-52202147D01*
X147847834Y-52370595D01*
X147847827Y-52370600D01*
X147563830Y-52572106D01*
X147563811Y-52572122D01*
X147304161Y-52804161D01*
X147072122Y-53063811D01*
X147072106Y-53063830D01*
X146870600Y-53347827D01*
X146870595Y-53347834D01*
X146702147Y-53652619D01*
X146702140Y-53652634D01*
X146568880Y-53974353D01*
X146472475Y-54308976D01*
X146414141Y-54652307D01*
X146414140Y-54652314D01*
X146394615Y-55000000D01*
X123604174Y-55000000D01*
X123611548Y-54864000D01*
X123592172Y-54506629D01*
X123534271Y-54153448D01*
X123438524Y-53808597D01*
X123306053Y-53476120D01*
X123138411Y-53159915D01*
X123138409Y-53159912D01*
X123138406Y-53159906D01*
X122937568Y-52863693D01*
X122705875Y-52590921D01*
X122705865Y-52590911D01*
X122446047Y-52344798D01*
X122446044Y-52344796D01*
X122446037Y-52344789D01*
X122161119Y-52128200D01*
X122161118Y-52128199D01*
X122161111Y-52128194D01*
X121854452Y-51943684D01*
X121529640Y-51793410D01*
X121190472Y-51679131D01*
X120840955Y-51602196D01*
X120840946Y-51602195D01*
X120485148Y-51563500D01*
X120127252Y-51563500D01*
X119831058Y-51595712D01*
X119771444Y-51602196D01*
X119421928Y-51679131D01*
X119421925Y-51679131D01*
X119082759Y-51793410D01*
X118757947Y-51943684D01*
X118451288Y-52128194D01*
X118354008Y-52202145D01*
X118166363Y-52344789D01*
X118166359Y-52344792D01*
X118166352Y-52344798D01*
X117906534Y-52590911D01*
X117906524Y-52590921D01*
X117674831Y-52863693D01*
X117473993Y-53159906D01*
X117473989Y-53159914D01*
X117306347Y-53476118D01*
X117306345Y-53476123D01*
X117173876Y-53808595D01*
X117173873Y-53808604D01*
X117078129Y-54153446D01*
X117020228Y-54506632D01*
X117020227Y-54506636D01*
X117000852Y-54863998D01*
X107597747Y-54863998D01*
X107585859Y-54652307D01*
X107527527Y-54308987D01*
X107431121Y-53974356D01*
X107297855Y-53652624D01*
X107129405Y-53347836D01*
X107129399Y-53347827D01*
X106927893Y-53063830D01*
X106927877Y-53063811D01*
X106839292Y-52964685D01*
X106695839Y-52804161D01*
X106552384Y-52675962D01*
X106436188Y-52572122D01*
X106436169Y-52572106D01*
X106152172Y-52370600D01*
X106152165Y-52370595D01*
X105847380Y-52202147D01*
X105847365Y-52202140D01*
X105525646Y-52068880D01*
X105525647Y-52068880D01*
X105525644Y-52068879D01*
X105416956Y-52037566D01*
X105191023Y-51972475D01*
X105191015Y-51972473D01*
X105191013Y-51972473D01*
X104847693Y-51914141D01*
X104847691Y-51914140D01*
X104847685Y-51914140D01*
X104500000Y-51894615D01*
X104152314Y-51914140D01*
X104152307Y-51914141D01*
X103808987Y-51972473D01*
X103808985Y-51972473D01*
X103808976Y-51972475D01*
X103474353Y-52068880D01*
X103152634Y-52202140D01*
X103152619Y-52202147D01*
X102847834Y-52370595D01*
X102847827Y-52370600D01*
X102563830Y-52572106D01*
X102563811Y-52572122D01*
X102304161Y-52804161D01*
X102072122Y-53063811D01*
X102072106Y-53063830D01*
X101870600Y-53347827D01*
X101870595Y-53347834D01*
X101702147Y-53652619D01*
X101702140Y-53652634D01*
X101568880Y-53974353D01*
X101472475Y-54308976D01*
X101414141Y-54652307D01*
X101414140Y-54652314D01*
X101394615Y-55000000D01*
X100508500Y-55000000D01*
X100508500Y-52001748D01*
X100508625Y-51998252D01*
X100523431Y-51791232D01*
X100524426Y-51784312D01*
X100568173Y-51583210D01*
X100570138Y-51576517D01*
X100642061Y-51383686D01*
X100644959Y-51377339D01*
X100743598Y-51196695D01*
X100747359Y-51190842D01*
X100870706Y-51026071D01*
X100875271Y-51020803D01*
X101020803Y-50875271D01*
X101026071Y-50870706D01*
X101190842Y-50747359D01*
X101196695Y-50743598D01*
X101377339Y-50644959D01*
X101383686Y-50642061D01*
X101576517Y-50570138D01*
X101583210Y-50568173D01*
X101784312Y-50524425D01*
X101791231Y-50523431D01*
X101998252Y-50508624D01*
X102001748Y-50508500D01*
X102066945Y-50508500D01*
X152933055Y-50508500D01*
X152998252Y-50508500D01*
X153001748Y-50508625D01*
G37*
%TD.AperFunction*%
%TD*%
M02*
