%TF.GenerationSoftware,KiCad,Pcbnew,8.0.5*%
%TF.CreationDate,2024-10-07T09:32:30+08:00*%
%TF.ProjectId,draft-board,64726166-742d-4626-9f61-72642e6b6963,rev?*%
%TF.SameCoordinates,Original*%
%TF.FileFunction,Drillmap*%
%TF.FilePolarity,Positive*%
%FSLAX45Y45*%
G04 Gerber Fmt 4.5, Leading zero omitted, Abs format (unit mm)*
G04 Created by KiCad (PCBNEW 8.0.5) date 2024-10-07 09:32:30*
%MOMM*%
%LPD*%
G01*
G04 APERTURE LIST*
%ADD10C,0.050000*%
%ADD11C,0.200000*%
%ADD12C,0.100000*%
G04 APERTURE END LIST*
D10*
X15500000Y-11950000D02*
G75*
G02*
X15300000Y-12150000I-200000J0D01*
G01*
X15300000Y-12150000D02*
X10200000Y-12150000D01*
X10000000Y-5200000D02*
G75*
G02*
X10200000Y-5000000I200000J0D01*
G01*
X15300000Y-5000000D02*
G75*
G02*
X15500000Y-5200000I0J-200000D01*
G01*
X10000000Y-11950000D02*
X10000000Y-5200000D01*
X10200000Y-5000000D02*
X15300000Y-5000000D01*
X10200000Y-12150000D02*
G75*
G02*
X10000000Y-11950000I0J200000D01*
G01*
X15500000Y-5200000D02*
X15500000Y-11950000D01*
D11*
D12*
X14171740Y-11487520D02*
X14236740Y-11552520D01*
X14236740Y-11487520D02*
X14171740Y-11552520D01*
X14749740Y-11487520D02*
X14814740Y-11552520D01*
X14814740Y-11487520D02*
X14749740Y-11552520D01*
D11*
X10258277Y-12463984D02*
X10258277Y-12263984D01*
X10258277Y-12263984D02*
X10305896Y-12263984D01*
X10305896Y-12263984D02*
X10334467Y-12273508D01*
X10334467Y-12273508D02*
X10353515Y-12292555D01*
X10353515Y-12292555D02*
X10363039Y-12311603D01*
X10363039Y-12311603D02*
X10372563Y-12349698D01*
X10372563Y-12349698D02*
X10372563Y-12378269D01*
X10372563Y-12378269D02*
X10363039Y-12416365D01*
X10363039Y-12416365D02*
X10353515Y-12435412D01*
X10353515Y-12435412D02*
X10334467Y-12454460D01*
X10334467Y-12454460D02*
X10305896Y-12463984D01*
X10305896Y-12463984D02*
X10258277Y-12463984D01*
X10458277Y-12463984D02*
X10458277Y-12330650D01*
X10458277Y-12368746D02*
X10467801Y-12349698D01*
X10467801Y-12349698D02*
X10477324Y-12340174D01*
X10477324Y-12340174D02*
X10496372Y-12330650D01*
X10496372Y-12330650D02*
X10515420Y-12330650D01*
X10582086Y-12463984D02*
X10582086Y-12330650D01*
X10582086Y-12263984D02*
X10572563Y-12273508D01*
X10572563Y-12273508D02*
X10582086Y-12283031D01*
X10582086Y-12283031D02*
X10591610Y-12273508D01*
X10591610Y-12273508D02*
X10582086Y-12263984D01*
X10582086Y-12263984D02*
X10582086Y-12283031D01*
X10705896Y-12463984D02*
X10686848Y-12454460D01*
X10686848Y-12454460D02*
X10677324Y-12435412D01*
X10677324Y-12435412D02*
X10677324Y-12263984D01*
X10810658Y-12463984D02*
X10791610Y-12454460D01*
X10791610Y-12454460D02*
X10782086Y-12435412D01*
X10782086Y-12435412D02*
X10782086Y-12263984D01*
X11039229Y-12463984D02*
X11039229Y-12263984D01*
X11039229Y-12263984D02*
X11105896Y-12406841D01*
X11105896Y-12406841D02*
X11172563Y-12263984D01*
X11172563Y-12263984D02*
X11172563Y-12463984D01*
X11353515Y-12463984D02*
X11353515Y-12359222D01*
X11353515Y-12359222D02*
X11343991Y-12340174D01*
X11343991Y-12340174D02*
X11324943Y-12330650D01*
X11324943Y-12330650D02*
X11286848Y-12330650D01*
X11286848Y-12330650D02*
X11267801Y-12340174D01*
X11353515Y-12454460D02*
X11334467Y-12463984D01*
X11334467Y-12463984D02*
X11286848Y-12463984D01*
X11286848Y-12463984D02*
X11267801Y-12454460D01*
X11267801Y-12454460D02*
X11258277Y-12435412D01*
X11258277Y-12435412D02*
X11258277Y-12416365D01*
X11258277Y-12416365D02*
X11267801Y-12397317D01*
X11267801Y-12397317D02*
X11286848Y-12387793D01*
X11286848Y-12387793D02*
X11334467Y-12387793D01*
X11334467Y-12387793D02*
X11353515Y-12378269D01*
X11448753Y-12330650D02*
X11448753Y-12530650D01*
X11448753Y-12340174D02*
X11467801Y-12330650D01*
X11467801Y-12330650D02*
X11505896Y-12330650D01*
X11505896Y-12330650D02*
X11524943Y-12340174D01*
X11524943Y-12340174D02*
X11534467Y-12349698D01*
X11534467Y-12349698D02*
X11543991Y-12368746D01*
X11543991Y-12368746D02*
X11543991Y-12425888D01*
X11543991Y-12425888D02*
X11534467Y-12444936D01*
X11534467Y-12444936D02*
X11524943Y-12454460D01*
X11524943Y-12454460D02*
X11505896Y-12463984D01*
X11505896Y-12463984D02*
X11467801Y-12463984D01*
X11467801Y-12463984D02*
X11448753Y-12454460D01*
X11629705Y-12444936D02*
X11639229Y-12454460D01*
X11639229Y-12454460D02*
X11629705Y-12463984D01*
X11629705Y-12463984D02*
X11620182Y-12454460D01*
X11620182Y-12454460D02*
X11629705Y-12444936D01*
X11629705Y-12444936D02*
X11629705Y-12463984D01*
X11629705Y-12340174D02*
X11639229Y-12349698D01*
X11639229Y-12349698D02*
X11629705Y-12359222D01*
X11629705Y-12359222D02*
X11620182Y-12349698D01*
X11620182Y-12349698D02*
X11629705Y-12340174D01*
X11629705Y-12340174D02*
X11629705Y-12359222D01*
D12*
X9932500Y-12760000D02*
X9997500Y-12825000D01*
X9997500Y-12760000D02*
X9932500Y-12825000D01*
D11*
X10296372Y-12683984D02*
X10315420Y-12683984D01*
X10315420Y-12683984D02*
X10334467Y-12693508D01*
X10334467Y-12693508D02*
X10343991Y-12703031D01*
X10343991Y-12703031D02*
X10353515Y-12722079D01*
X10353515Y-12722079D02*
X10363039Y-12760174D01*
X10363039Y-12760174D02*
X10363039Y-12807793D01*
X10363039Y-12807793D02*
X10353515Y-12845888D01*
X10353515Y-12845888D02*
X10343991Y-12864936D01*
X10343991Y-12864936D02*
X10334467Y-12874460D01*
X10334467Y-12874460D02*
X10315420Y-12883984D01*
X10315420Y-12883984D02*
X10296372Y-12883984D01*
X10296372Y-12883984D02*
X10277324Y-12874460D01*
X10277324Y-12874460D02*
X10267801Y-12864936D01*
X10267801Y-12864936D02*
X10258277Y-12845888D01*
X10258277Y-12845888D02*
X10248753Y-12807793D01*
X10248753Y-12807793D02*
X10248753Y-12760174D01*
X10248753Y-12760174D02*
X10258277Y-12722079D01*
X10258277Y-12722079D02*
X10267801Y-12703031D01*
X10267801Y-12703031D02*
X10277324Y-12693508D01*
X10277324Y-12693508D02*
X10296372Y-12683984D01*
X10448753Y-12864936D02*
X10458277Y-12874460D01*
X10458277Y-12874460D02*
X10448753Y-12883984D01*
X10448753Y-12883984D02*
X10439229Y-12874460D01*
X10439229Y-12874460D02*
X10448753Y-12864936D01*
X10448753Y-12864936D02*
X10448753Y-12883984D01*
X10629705Y-12683984D02*
X10591610Y-12683984D01*
X10591610Y-12683984D02*
X10572563Y-12693508D01*
X10572563Y-12693508D02*
X10563039Y-12703031D01*
X10563039Y-12703031D02*
X10543991Y-12731603D01*
X10543991Y-12731603D02*
X10534467Y-12769698D01*
X10534467Y-12769698D02*
X10534467Y-12845888D01*
X10534467Y-12845888D02*
X10543991Y-12864936D01*
X10543991Y-12864936D02*
X10553515Y-12874460D01*
X10553515Y-12874460D02*
X10572563Y-12883984D01*
X10572563Y-12883984D02*
X10610658Y-12883984D01*
X10610658Y-12883984D02*
X10629705Y-12874460D01*
X10629705Y-12874460D02*
X10639229Y-12864936D01*
X10639229Y-12864936D02*
X10648753Y-12845888D01*
X10648753Y-12845888D02*
X10648753Y-12798269D01*
X10648753Y-12798269D02*
X10639229Y-12779222D01*
X10639229Y-12779222D02*
X10629705Y-12769698D01*
X10629705Y-12769698D02*
X10610658Y-12760174D01*
X10610658Y-12760174D02*
X10572563Y-12760174D01*
X10572563Y-12760174D02*
X10553515Y-12769698D01*
X10553515Y-12769698D02*
X10543991Y-12779222D01*
X10543991Y-12779222D02*
X10534467Y-12798269D01*
X10829705Y-12683984D02*
X10734467Y-12683984D01*
X10734467Y-12683984D02*
X10724944Y-12779222D01*
X10724944Y-12779222D02*
X10734467Y-12769698D01*
X10734467Y-12769698D02*
X10753515Y-12760174D01*
X10753515Y-12760174D02*
X10801134Y-12760174D01*
X10801134Y-12760174D02*
X10820182Y-12769698D01*
X10820182Y-12769698D02*
X10829705Y-12779222D01*
X10829705Y-12779222D02*
X10839229Y-12798269D01*
X10839229Y-12798269D02*
X10839229Y-12845888D01*
X10839229Y-12845888D02*
X10829705Y-12864936D01*
X10829705Y-12864936D02*
X10820182Y-12874460D01*
X10820182Y-12874460D02*
X10801134Y-12883984D01*
X10801134Y-12883984D02*
X10753515Y-12883984D01*
X10753515Y-12883984D02*
X10734467Y-12874460D01*
X10734467Y-12874460D02*
X10724944Y-12864936D01*
X10963039Y-12683984D02*
X10982086Y-12683984D01*
X10982086Y-12683984D02*
X11001134Y-12693508D01*
X11001134Y-12693508D02*
X11010658Y-12703031D01*
X11010658Y-12703031D02*
X11020182Y-12722079D01*
X11020182Y-12722079D02*
X11029705Y-12760174D01*
X11029705Y-12760174D02*
X11029705Y-12807793D01*
X11029705Y-12807793D02*
X11020182Y-12845888D01*
X11020182Y-12845888D02*
X11010658Y-12864936D01*
X11010658Y-12864936D02*
X11001134Y-12874460D01*
X11001134Y-12874460D02*
X10982086Y-12883984D01*
X10982086Y-12883984D02*
X10963039Y-12883984D01*
X10963039Y-12883984D02*
X10943991Y-12874460D01*
X10943991Y-12874460D02*
X10934467Y-12864936D01*
X10934467Y-12864936D02*
X10924944Y-12845888D01*
X10924944Y-12845888D02*
X10915420Y-12807793D01*
X10915420Y-12807793D02*
X10915420Y-12760174D01*
X10915420Y-12760174D02*
X10924944Y-12722079D01*
X10924944Y-12722079D02*
X10934467Y-12703031D01*
X10934467Y-12703031D02*
X10943991Y-12693508D01*
X10943991Y-12693508D02*
X10963039Y-12683984D01*
X11115420Y-12883984D02*
X11115420Y-12750650D01*
X11115420Y-12769698D02*
X11124944Y-12760174D01*
X11124944Y-12760174D02*
X11143991Y-12750650D01*
X11143991Y-12750650D02*
X11172563Y-12750650D01*
X11172563Y-12750650D02*
X11191610Y-12760174D01*
X11191610Y-12760174D02*
X11201134Y-12779222D01*
X11201134Y-12779222D02*
X11201134Y-12883984D01*
X11201134Y-12779222D02*
X11210658Y-12760174D01*
X11210658Y-12760174D02*
X11229705Y-12750650D01*
X11229705Y-12750650D02*
X11258277Y-12750650D01*
X11258277Y-12750650D02*
X11277324Y-12760174D01*
X11277324Y-12760174D02*
X11286848Y-12779222D01*
X11286848Y-12779222D02*
X11286848Y-12883984D01*
X11382086Y-12883984D02*
X11382086Y-12750650D01*
X11382086Y-12769698D02*
X11391610Y-12760174D01*
X11391610Y-12760174D02*
X11410658Y-12750650D01*
X11410658Y-12750650D02*
X11439229Y-12750650D01*
X11439229Y-12750650D02*
X11458277Y-12760174D01*
X11458277Y-12760174D02*
X11467801Y-12779222D01*
X11467801Y-12779222D02*
X11467801Y-12883984D01*
X11467801Y-12779222D02*
X11477324Y-12760174D01*
X11477324Y-12760174D02*
X11496372Y-12750650D01*
X11496372Y-12750650D02*
X11524943Y-12750650D01*
X11524943Y-12750650D02*
X11543991Y-12760174D01*
X11543991Y-12760174D02*
X11553515Y-12779222D01*
X11553515Y-12779222D02*
X11553515Y-12883984D01*
X11943991Y-12674460D02*
X11772563Y-12931603D01*
X12201134Y-12683984D02*
X12220182Y-12683984D01*
X12220182Y-12683984D02*
X12239229Y-12693508D01*
X12239229Y-12693508D02*
X12248753Y-12703031D01*
X12248753Y-12703031D02*
X12258277Y-12722079D01*
X12258277Y-12722079D02*
X12267801Y-12760174D01*
X12267801Y-12760174D02*
X12267801Y-12807793D01*
X12267801Y-12807793D02*
X12258277Y-12845888D01*
X12258277Y-12845888D02*
X12248753Y-12864936D01*
X12248753Y-12864936D02*
X12239229Y-12874460D01*
X12239229Y-12874460D02*
X12220182Y-12883984D01*
X12220182Y-12883984D02*
X12201134Y-12883984D01*
X12201134Y-12883984D02*
X12182086Y-12874460D01*
X12182086Y-12874460D02*
X12172563Y-12864936D01*
X12172563Y-12864936D02*
X12163039Y-12845888D01*
X12163039Y-12845888D02*
X12153515Y-12807793D01*
X12153515Y-12807793D02*
X12153515Y-12760174D01*
X12153515Y-12760174D02*
X12163039Y-12722079D01*
X12163039Y-12722079D02*
X12172563Y-12703031D01*
X12172563Y-12703031D02*
X12182086Y-12693508D01*
X12182086Y-12693508D02*
X12201134Y-12683984D01*
X12353515Y-12864936D02*
X12363039Y-12874460D01*
X12363039Y-12874460D02*
X12353515Y-12883984D01*
X12353515Y-12883984D02*
X12343991Y-12874460D01*
X12343991Y-12874460D02*
X12353515Y-12864936D01*
X12353515Y-12864936D02*
X12353515Y-12883984D01*
X12486848Y-12683984D02*
X12505896Y-12683984D01*
X12505896Y-12683984D02*
X12524944Y-12693508D01*
X12524944Y-12693508D02*
X12534467Y-12703031D01*
X12534467Y-12703031D02*
X12543991Y-12722079D01*
X12543991Y-12722079D02*
X12553515Y-12760174D01*
X12553515Y-12760174D02*
X12553515Y-12807793D01*
X12553515Y-12807793D02*
X12543991Y-12845888D01*
X12543991Y-12845888D02*
X12534467Y-12864936D01*
X12534467Y-12864936D02*
X12524944Y-12874460D01*
X12524944Y-12874460D02*
X12505896Y-12883984D01*
X12505896Y-12883984D02*
X12486848Y-12883984D01*
X12486848Y-12883984D02*
X12467801Y-12874460D01*
X12467801Y-12874460D02*
X12458277Y-12864936D01*
X12458277Y-12864936D02*
X12448753Y-12845888D01*
X12448753Y-12845888D02*
X12439229Y-12807793D01*
X12439229Y-12807793D02*
X12439229Y-12760174D01*
X12439229Y-12760174D02*
X12448753Y-12722079D01*
X12448753Y-12722079D02*
X12458277Y-12703031D01*
X12458277Y-12703031D02*
X12467801Y-12693508D01*
X12467801Y-12693508D02*
X12486848Y-12683984D01*
X12629706Y-12703031D02*
X12639229Y-12693508D01*
X12639229Y-12693508D02*
X12658277Y-12683984D01*
X12658277Y-12683984D02*
X12705896Y-12683984D01*
X12705896Y-12683984D02*
X12724944Y-12693508D01*
X12724944Y-12693508D02*
X12734467Y-12703031D01*
X12734467Y-12703031D02*
X12743991Y-12722079D01*
X12743991Y-12722079D02*
X12743991Y-12741127D01*
X12743991Y-12741127D02*
X12734467Y-12769698D01*
X12734467Y-12769698D02*
X12620182Y-12883984D01*
X12620182Y-12883984D02*
X12743991Y-12883984D01*
X12924944Y-12683984D02*
X12829706Y-12683984D01*
X12829706Y-12683984D02*
X12820182Y-12779222D01*
X12820182Y-12779222D02*
X12829706Y-12769698D01*
X12829706Y-12769698D02*
X12848753Y-12760174D01*
X12848753Y-12760174D02*
X12896372Y-12760174D01*
X12896372Y-12760174D02*
X12915420Y-12769698D01*
X12915420Y-12769698D02*
X12924944Y-12779222D01*
X12924944Y-12779222D02*
X12934467Y-12798269D01*
X12934467Y-12798269D02*
X12934467Y-12845888D01*
X12934467Y-12845888D02*
X12924944Y-12864936D01*
X12924944Y-12864936D02*
X12915420Y-12874460D01*
X12915420Y-12874460D02*
X12896372Y-12883984D01*
X12896372Y-12883984D02*
X12848753Y-12883984D01*
X12848753Y-12883984D02*
X12829706Y-12874460D01*
X12829706Y-12874460D02*
X12820182Y-12864936D01*
X13105896Y-12683984D02*
X13067801Y-12683984D01*
X13067801Y-12683984D02*
X13048753Y-12693508D01*
X13048753Y-12693508D02*
X13039229Y-12703031D01*
X13039229Y-12703031D02*
X13020182Y-12731603D01*
X13020182Y-12731603D02*
X13010658Y-12769698D01*
X13010658Y-12769698D02*
X13010658Y-12845888D01*
X13010658Y-12845888D02*
X13020182Y-12864936D01*
X13020182Y-12864936D02*
X13029706Y-12874460D01*
X13029706Y-12874460D02*
X13048753Y-12883984D01*
X13048753Y-12883984D02*
X13086848Y-12883984D01*
X13086848Y-12883984D02*
X13105896Y-12874460D01*
X13105896Y-12874460D02*
X13115420Y-12864936D01*
X13115420Y-12864936D02*
X13124944Y-12845888D01*
X13124944Y-12845888D02*
X13124944Y-12798269D01*
X13124944Y-12798269D02*
X13115420Y-12779222D01*
X13115420Y-12779222D02*
X13105896Y-12769698D01*
X13105896Y-12769698D02*
X13086848Y-12760174D01*
X13086848Y-12760174D02*
X13048753Y-12760174D01*
X13048753Y-12760174D02*
X13029706Y-12769698D01*
X13029706Y-12769698D02*
X13020182Y-12779222D01*
X13020182Y-12779222D02*
X13010658Y-12798269D01*
X13201134Y-12683984D02*
X13201134Y-12722079D01*
X13277325Y-12683984D02*
X13277325Y-12722079D01*
X13572563Y-12960174D02*
X13563039Y-12950650D01*
X13563039Y-12950650D02*
X13543991Y-12922079D01*
X13543991Y-12922079D02*
X13534468Y-12903031D01*
X13534468Y-12903031D02*
X13524944Y-12874460D01*
X13524944Y-12874460D02*
X13515420Y-12826841D01*
X13515420Y-12826841D02*
X13515420Y-12788746D01*
X13515420Y-12788746D02*
X13524944Y-12741127D01*
X13524944Y-12741127D02*
X13534468Y-12712555D01*
X13534468Y-12712555D02*
X13543991Y-12693508D01*
X13543991Y-12693508D02*
X13563039Y-12664936D01*
X13563039Y-12664936D02*
X13572563Y-12655412D01*
X13639229Y-12703031D02*
X13648753Y-12693508D01*
X13648753Y-12693508D02*
X13667801Y-12683984D01*
X13667801Y-12683984D02*
X13715420Y-12683984D01*
X13715420Y-12683984D02*
X13734468Y-12693508D01*
X13734468Y-12693508D02*
X13743991Y-12703031D01*
X13743991Y-12703031D02*
X13753515Y-12722079D01*
X13753515Y-12722079D02*
X13753515Y-12741127D01*
X13753515Y-12741127D02*
X13743991Y-12769698D01*
X13743991Y-12769698D02*
X13629706Y-12883984D01*
X13629706Y-12883984D02*
X13753515Y-12883984D01*
X13991610Y-12883984D02*
X13991610Y-12683984D01*
X14077325Y-12883984D02*
X14077325Y-12779222D01*
X14077325Y-12779222D02*
X14067801Y-12760174D01*
X14067801Y-12760174D02*
X14048753Y-12750650D01*
X14048753Y-12750650D02*
X14020182Y-12750650D01*
X14020182Y-12750650D02*
X14001134Y-12760174D01*
X14001134Y-12760174D02*
X13991610Y-12769698D01*
X14201134Y-12883984D02*
X14182087Y-12874460D01*
X14182087Y-12874460D02*
X14172563Y-12864936D01*
X14172563Y-12864936D02*
X14163039Y-12845888D01*
X14163039Y-12845888D02*
X14163039Y-12788746D01*
X14163039Y-12788746D02*
X14172563Y-12769698D01*
X14172563Y-12769698D02*
X14182087Y-12760174D01*
X14182087Y-12760174D02*
X14201134Y-12750650D01*
X14201134Y-12750650D02*
X14229706Y-12750650D01*
X14229706Y-12750650D02*
X14248753Y-12760174D01*
X14248753Y-12760174D02*
X14258277Y-12769698D01*
X14258277Y-12769698D02*
X14267801Y-12788746D01*
X14267801Y-12788746D02*
X14267801Y-12845888D01*
X14267801Y-12845888D02*
X14258277Y-12864936D01*
X14258277Y-12864936D02*
X14248753Y-12874460D01*
X14248753Y-12874460D02*
X14229706Y-12883984D01*
X14229706Y-12883984D02*
X14201134Y-12883984D01*
X14382087Y-12883984D02*
X14363039Y-12874460D01*
X14363039Y-12874460D02*
X14353515Y-12855412D01*
X14353515Y-12855412D02*
X14353515Y-12683984D01*
X14534468Y-12874460D02*
X14515420Y-12883984D01*
X14515420Y-12883984D02*
X14477325Y-12883984D01*
X14477325Y-12883984D02*
X14458277Y-12874460D01*
X14458277Y-12874460D02*
X14448753Y-12855412D01*
X14448753Y-12855412D02*
X14448753Y-12779222D01*
X14448753Y-12779222D02*
X14458277Y-12760174D01*
X14458277Y-12760174D02*
X14477325Y-12750650D01*
X14477325Y-12750650D02*
X14515420Y-12750650D01*
X14515420Y-12750650D02*
X14534468Y-12760174D01*
X14534468Y-12760174D02*
X14543991Y-12779222D01*
X14543991Y-12779222D02*
X14543991Y-12798269D01*
X14543991Y-12798269D02*
X14448753Y-12817317D01*
X14620182Y-12874460D02*
X14639230Y-12883984D01*
X14639230Y-12883984D02*
X14677325Y-12883984D01*
X14677325Y-12883984D02*
X14696372Y-12874460D01*
X14696372Y-12874460D02*
X14705896Y-12855412D01*
X14705896Y-12855412D02*
X14705896Y-12845888D01*
X14705896Y-12845888D02*
X14696372Y-12826841D01*
X14696372Y-12826841D02*
X14677325Y-12817317D01*
X14677325Y-12817317D02*
X14648753Y-12817317D01*
X14648753Y-12817317D02*
X14629706Y-12807793D01*
X14629706Y-12807793D02*
X14620182Y-12788746D01*
X14620182Y-12788746D02*
X14620182Y-12779222D01*
X14620182Y-12779222D02*
X14629706Y-12760174D01*
X14629706Y-12760174D02*
X14648753Y-12750650D01*
X14648753Y-12750650D02*
X14677325Y-12750650D01*
X14677325Y-12750650D02*
X14696372Y-12760174D01*
X14772563Y-12960174D02*
X14782087Y-12950650D01*
X14782087Y-12950650D02*
X14801134Y-12922079D01*
X14801134Y-12922079D02*
X14810658Y-12903031D01*
X14810658Y-12903031D02*
X14820182Y-12874460D01*
X14820182Y-12874460D02*
X14829706Y-12826841D01*
X14829706Y-12826841D02*
X14829706Y-12788746D01*
X14829706Y-12788746D02*
X14820182Y-12741127D01*
X14820182Y-12741127D02*
X14810658Y-12712555D01*
X14810658Y-12712555D02*
X14801134Y-12693508D01*
X14801134Y-12693508D02*
X14782087Y-12664936D01*
X14782087Y-12664936D02*
X14772563Y-12655412D01*
X15134468Y-12960174D02*
X15124944Y-12950650D01*
X15124944Y-12950650D02*
X15105896Y-12922079D01*
X15105896Y-12922079D02*
X15096372Y-12903031D01*
X15096372Y-12903031D02*
X15086849Y-12874460D01*
X15086849Y-12874460D02*
X15077325Y-12826841D01*
X15077325Y-12826841D02*
X15077325Y-12788746D01*
X15077325Y-12788746D02*
X15086849Y-12741127D01*
X15086849Y-12741127D02*
X15096372Y-12712555D01*
X15096372Y-12712555D02*
X15105896Y-12693508D01*
X15105896Y-12693508D02*
X15124944Y-12664936D01*
X15124944Y-12664936D02*
X15134468Y-12655412D01*
X15210658Y-12750650D02*
X15210658Y-12883984D01*
X15210658Y-12769698D02*
X15220182Y-12760174D01*
X15220182Y-12760174D02*
X15239230Y-12750650D01*
X15239230Y-12750650D02*
X15267801Y-12750650D01*
X15267801Y-12750650D02*
X15286849Y-12760174D01*
X15286849Y-12760174D02*
X15296372Y-12779222D01*
X15296372Y-12779222D02*
X15296372Y-12883984D01*
X15420182Y-12883984D02*
X15401134Y-12874460D01*
X15401134Y-12874460D02*
X15391611Y-12864936D01*
X15391611Y-12864936D02*
X15382087Y-12845888D01*
X15382087Y-12845888D02*
X15382087Y-12788746D01*
X15382087Y-12788746D02*
X15391611Y-12769698D01*
X15391611Y-12769698D02*
X15401134Y-12760174D01*
X15401134Y-12760174D02*
X15420182Y-12750650D01*
X15420182Y-12750650D02*
X15448753Y-12750650D01*
X15448753Y-12750650D02*
X15467801Y-12760174D01*
X15467801Y-12760174D02*
X15477325Y-12769698D01*
X15477325Y-12769698D02*
X15486849Y-12788746D01*
X15486849Y-12788746D02*
X15486849Y-12845888D01*
X15486849Y-12845888D02*
X15477325Y-12864936D01*
X15477325Y-12864936D02*
X15467801Y-12874460D01*
X15467801Y-12874460D02*
X15448753Y-12883984D01*
X15448753Y-12883984D02*
X15420182Y-12883984D01*
X15543992Y-12750650D02*
X15620182Y-12750650D01*
X15572563Y-12683984D02*
X15572563Y-12855412D01*
X15572563Y-12855412D02*
X15582087Y-12874460D01*
X15582087Y-12874460D02*
X15601134Y-12883984D01*
X15601134Y-12883984D02*
X15620182Y-12883984D01*
X15839230Y-12750650D02*
X15839230Y-12950650D01*
X15839230Y-12760174D02*
X15858277Y-12750650D01*
X15858277Y-12750650D02*
X15896373Y-12750650D01*
X15896373Y-12750650D02*
X15915420Y-12760174D01*
X15915420Y-12760174D02*
X15924944Y-12769698D01*
X15924944Y-12769698D02*
X15934468Y-12788746D01*
X15934468Y-12788746D02*
X15934468Y-12845888D01*
X15934468Y-12845888D02*
X15924944Y-12864936D01*
X15924944Y-12864936D02*
X15915420Y-12874460D01*
X15915420Y-12874460D02*
X15896373Y-12883984D01*
X15896373Y-12883984D02*
X15858277Y-12883984D01*
X15858277Y-12883984D02*
X15839230Y-12874460D01*
X16048753Y-12883984D02*
X16029706Y-12874460D01*
X16029706Y-12874460D02*
X16020182Y-12855412D01*
X16020182Y-12855412D02*
X16020182Y-12683984D01*
X16210658Y-12883984D02*
X16210658Y-12779222D01*
X16210658Y-12779222D02*
X16201134Y-12760174D01*
X16201134Y-12760174D02*
X16182087Y-12750650D01*
X16182087Y-12750650D02*
X16143992Y-12750650D01*
X16143992Y-12750650D02*
X16124944Y-12760174D01*
X16210658Y-12874460D02*
X16191611Y-12883984D01*
X16191611Y-12883984D02*
X16143992Y-12883984D01*
X16143992Y-12883984D02*
X16124944Y-12874460D01*
X16124944Y-12874460D02*
X16115420Y-12855412D01*
X16115420Y-12855412D02*
X16115420Y-12836365D01*
X16115420Y-12836365D02*
X16124944Y-12817317D01*
X16124944Y-12817317D02*
X16143992Y-12807793D01*
X16143992Y-12807793D02*
X16191611Y-12807793D01*
X16191611Y-12807793D02*
X16210658Y-12798269D01*
X16277325Y-12750650D02*
X16353515Y-12750650D01*
X16305896Y-12683984D02*
X16305896Y-12855412D01*
X16305896Y-12855412D02*
X16315420Y-12874460D01*
X16315420Y-12874460D02*
X16334468Y-12883984D01*
X16334468Y-12883984D02*
X16353515Y-12883984D01*
X16496373Y-12874460D02*
X16477325Y-12883984D01*
X16477325Y-12883984D02*
X16439230Y-12883984D01*
X16439230Y-12883984D02*
X16420182Y-12874460D01*
X16420182Y-12874460D02*
X16410658Y-12855412D01*
X16410658Y-12855412D02*
X16410658Y-12779222D01*
X16410658Y-12779222D02*
X16420182Y-12760174D01*
X16420182Y-12760174D02*
X16439230Y-12750650D01*
X16439230Y-12750650D02*
X16477325Y-12750650D01*
X16477325Y-12750650D02*
X16496373Y-12760174D01*
X16496373Y-12760174D02*
X16505896Y-12779222D01*
X16505896Y-12779222D02*
X16505896Y-12798269D01*
X16505896Y-12798269D02*
X16410658Y-12817317D01*
X16677325Y-12883984D02*
X16677325Y-12683984D01*
X16677325Y-12874460D02*
X16658277Y-12883984D01*
X16658277Y-12883984D02*
X16620182Y-12883984D01*
X16620182Y-12883984D02*
X16601134Y-12874460D01*
X16601134Y-12874460D02*
X16591611Y-12864936D01*
X16591611Y-12864936D02*
X16582087Y-12845888D01*
X16582087Y-12845888D02*
X16582087Y-12788746D01*
X16582087Y-12788746D02*
X16591611Y-12769698D01*
X16591611Y-12769698D02*
X16601134Y-12760174D01*
X16601134Y-12760174D02*
X16620182Y-12750650D01*
X16620182Y-12750650D02*
X16658277Y-12750650D01*
X16658277Y-12750650D02*
X16677325Y-12760174D01*
X16753515Y-12960174D02*
X16763039Y-12950650D01*
X16763039Y-12950650D02*
X16782087Y-12922079D01*
X16782087Y-12922079D02*
X16791611Y-12903031D01*
X16791611Y-12903031D02*
X16801135Y-12874460D01*
X16801135Y-12874460D02*
X16810658Y-12826841D01*
X16810658Y-12826841D02*
X16810658Y-12788746D01*
X16810658Y-12788746D02*
X16801135Y-12741127D01*
X16801135Y-12741127D02*
X16791611Y-12712555D01*
X16791611Y-12712555D02*
X16782087Y-12693508D01*
X16782087Y-12693508D02*
X16763039Y-12664936D01*
X16763039Y-12664936D02*
X16753515Y-12655412D01*
M02*
