%TF.GenerationSoftware,KiCad,Pcbnew,8.0.5*%
%TF.CreationDate,2024-10-07T09:32:21+08:00*%
%TF.ProjectId,draft-board,64726166-742d-4626-9f61-72642e6b6963,rev?*%
%TF.SameCoordinates,Original*%
%TF.FileFunction,Paste,Top*%
%TF.FilePolarity,Positive*%
%FSLAX46Y46*%
G04 Gerber Fmt 4.6, Leading zero omitted, Abs format (unit mm)*
G04 Created by KiCad (PCBNEW 8.0.5) date 2024-10-07 09:32:21*
%MOMM*%
%LPD*%
G01*
G04 APERTURE LIST*
G04 Aperture macros list*
%AMRoundRect*
0 Rectangle with rounded corners*
0 $1 Rounding radius*
0 $2 $3 $4 $5 $6 $7 $8 $9 X,Y pos of 4 corners*
0 Add a 4 corners polygon primitive as box body*
4,1,4,$2,$3,$4,$5,$6,$7,$8,$9,$2,$3,0*
0 Add four circle primitives for the rounded corners*
1,1,$1+$1,$2,$3*
1,1,$1+$1,$4,$5*
1,1,$1+$1,$6,$7*
1,1,$1+$1,$8,$9*
0 Add four rect primitives between the rounded corners*
20,1,$1+$1,$2,$3,$4,$5,0*
20,1,$1+$1,$4,$5,$6,$7,0*
20,1,$1+$1,$6,$7,$8,$9,0*
20,1,$1+$1,$8,$9,$2,$3,0*%
G04 Aperture macros list end*
%ADD10C,0.010000*%
%ADD11RoundRect,0.218750X0.256250X-0.218750X0.256250X0.218750X-0.256250X0.218750X-0.256250X-0.218750X0*%
%ADD12RoundRect,0.250000X-0.550000X1.500000X-0.550000X-1.500000X0.550000X-1.500000X0.550000X1.500000X0*%
%ADD13RoundRect,0.225000X-0.250000X0.225000X-0.250000X-0.225000X0.250000X-0.225000X0.250000X0.225000X0*%
%ADD14RoundRect,0.200000X-0.200000X-0.275000X0.200000X-0.275000X0.200000X0.275000X-0.200000X0.275000X0*%
%ADD15RoundRect,0.250000X1.000000X0.650000X-1.000000X0.650000X-1.000000X-0.650000X1.000000X-0.650000X0*%
%ADD16RoundRect,0.250000X0.550000X-1.500000X0.550000X1.500000X-0.550000X1.500000X-0.550000X-1.500000X0*%
%ADD17RoundRect,0.225000X0.225000X0.250000X-0.225000X0.250000X-0.225000X-0.250000X0.225000X-0.250000X0*%
%ADD18RoundRect,0.218750X-0.218750X-0.256250X0.218750X-0.256250X0.218750X0.256250X-0.218750X0.256250X0*%
%ADD19O,1.000000X1.800000*%
%ADD20O,1.000000X2.100000*%
%ADD21RoundRect,0.150000X-0.150000X-0.425000X0.150000X-0.425000X0.150000X0.425000X-0.150000X0.425000X0*%
%ADD22RoundRect,0.075000X-0.075000X-0.500000X0.075000X-0.500000X0.075000X0.500000X-0.075000X0.500000X0*%
%ADD23RoundRect,0.250000X-0.325000X-0.650000X0.325000X-0.650000X0.325000X0.650000X-0.325000X0.650000X0*%
%ADD24RoundRect,0.200000X0.275000X-0.200000X0.275000X0.200000X-0.275000X0.200000X-0.275000X-0.200000X0*%
%ADD25R,3.500000X2.350000*%
%ADD26RoundRect,0.200000X-0.275000X0.200000X-0.275000X-0.200000X0.275000X-0.200000X0.275000X0.200000X0*%
G04 APERTURE END LIST*
D10*
%TO.C,U1*%
X141352000Y-96183000D02*
X141354000Y-96183000D01*
X141357000Y-96184000D01*
X141359000Y-96184000D01*
X141362000Y-96185000D01*
X141364000Y-96186000D01*
X141367000Y-96187000D01*
X141369000Y-96189000D01*
X141371000Y-96190000D01*
X141373000Y-96192000D01*
X141375000Y-96193000D01*
X141377000Y-96195000D01*
X141379000Y-96197000D01*
X141381000Y-96199000D01*
X141383000Y-96201000D01*
X141384000Y-96203000D01*
X141386000Y-96205000D01*
X141387000Y-96207000D01*
X141389000Y-96209000D01*
X141390000Y-96212000D01*
X141391000Y-96214000D01*
X141392000Y-96217000D01*
X141392000Y-96219000D01*
X141393000Y-96222000D01*
X141393000Y-96224000D01*
X141394000Y-96227000D01*
X141394000Y-96229000D01*
X141394000Y-96232000D01*
X141394000Y-96382000D01*
X141394000Y-96385000D01*
X141394000Y-96387000D01*
X141393000Y-96390000D01*
X141393000Y-96392000D01*
X141392000Y-96395000D01*
X141392000Y-96397000D01*
X141391000Y-96400000D01*
X141390000Y-96402000D01*
X141389000Y-96405000D01*
X141387000Y-96407000D01*
X141386000Y-96409000D01*
X141384000Y-96411000D01*
X141383000Y-96413000D01*
X141381000Y-96415000D01*
X141379000Y-96417000D01*
X141377000Y-96419000D01*
X141375000Y-96421000D01*
X141373000Y-96422000D01*
X141371000Y-96424000D01*
X141369000Y-96425000D01*
X141367000Y-96427000D01*
X141364000Y-96428000D01*
X141362000Y-96429000D01*
X141359000Y-96430000D01*
X141357000Y-96430000D01*
X141354000Y-96431000D01*
X141352000Y-96431000D01*
X141349000Y-96432000D01*
X141347000Y-96432000D01*
X141344000Y-96432000D01*
X140844000Y-96432000D01*
X140841000Y-96432000D01*
X140839000Y-96432000D01*
X140836000Y-96431000D01*
X140834000Y-96431000D01*
X140831000Y-96430000D01*
X140829000Y-96430000D01*
X140826000Y-96429000D01*
X140824000Y-96428000D01*
X140821000Y-96427000D01*
X140819000Y-96425000D01*
X140817000Y-96424000D01*
X140815000Y-96422000D01*
X140813000Y-96421000D01*
X140811000Y-96419000D01*
X140809000Y-96417000D01*
X140807000Y-96415000D01*
X140805000Y-96413000D01*
X140804000Y-96411000D01*
X140802000Y-96409000D01*
X140801000Y-96407000D01*
X140799000Y-96405000D01*
X140798000Y-96402000D01*
X140797000Y-96400000D01*
X140796000Y-96397000D01*
X140796000Y-96395000D01*
X140795000Y-96392000D01*
X140795000Y-96390000D01*
X140794000Y-96387000D01*
X140794000Y-96385000D01*
X140794000Y-96382000D01*
X140794000Y-96232000D01*
X140794000Y-96229000D01*
X140794000Y-96227000D01*
X140795000Y-96224000D01*
X140795000Y-96222000D01*
X140796000Y-96219000D01*
X140796000Y-96217000D01*
X140797000Y-96214000D01*
X140798000Y-96212000D01*
X140799000Y-96209000D01*
X140801000Y-96207000D01*
X140802000Y-96205000D01*
X140804000Y-96203000D01*
X140805000Y-96201000D01*
X140807000Y-96199000D01*
X140809000Y-96197000D01*
X140811000Y-96195000D01*
X140813000Y-96193000D01*
X140815000Y-96192000D01*
X140817000Y-96190000D01*
X140819000Y-96189000D01*
X140821000Y-96187000D01*
X140824000Y-96186000D01*
X140826000Y-96185000D01*
X140829000Y-96184000D01*
X140831000Y-96184000D01*
X140834000Y-96183000D01*
X140836000Y-96183000D01*
X140839000Y-96182000D01*
X140841000Y-96182000D01*
X140844000Y-96182000D01*
X141344000Y-96182000D01*
X141347000Y-96182000D01*
X141349000Y-96182000D01*
X141352000Y-96183000D01*
G36*
X141352000Y-96183000D02*
G01*
X141354000Y-96183000D01*
X141357000Y-96184000D01*
X141359000Y-96184000D01*
X141362000Y-96185000D01*
X141364000Y-96186000D01*
X141367000Y-96187000D01*
X141369000Y-96189000D01*
X141371000Y-96190000D01*
X141373000Y-96192000D01*
X141375000Y-96193000D01*
X141377000Y-96195000D01*
X141379000Y-96197000D01*
X141381000Y-96199000D01*
X141383000Y-96201000D01*
X141384000Y-96203000D01*
X141386000Y-96205000D01*
X141387000Y-96207000D01*
X141389000Y-96209000D01*
X141390000Y-96212000D01*
X141391000Y-96214000D01*
X141392000Y-96217000D01*
X141392000Y-96219000D01*
X141393000Y-96222000D01*
X141393000Y-96224000D01*
X141394000Y-96227000D01*
X141394000Y-96229000D01*
X141394000Y-96232000D01*
X141394000Y-96382000D01*
X141394000Y-96385000D01*
X141394000Y-96387000D01*
X141393000Y-96390000D01*
X141393000Y-96392000D01*
X141392000Y-96395000D01*
X141392000Y-96397000D01*
X141391000Y-96400000D01*
X141390000Y-96402000D01*
X141389000Y-96405000D01*
X141387000Y-96407000D01*
X141386000Y-96409000D01*
X141384000Y-96411000D01*
X141383000Y-96413000D01*
X141381000Y-96415000D01*
X141379000Y-96417000D01*
X141377000Y-96419000D01*
X141375000Y-96421000D01*
X141373000Y-96422000D01*
X141371000Y-96424000D01*
X141369000Y-96425000D01*
X141367000Y-96427000D01*
X141364000Y-96428000D01*
X141362000Y-96429000D01*
X141359000Y-96430000D01*
X141357000Y-96430000D01*
X141354000Y-96431000D01*
X141352000Y-96431000D01*
X141349000Y-96432000D01*
X141347000Y-96432000D01*
X141344000Y-96432000D01*
X140844000Y-96432000D01*
X140841000Y-96432000D01*
X140839000Y-96432000D01*
X140836000Y-96431000D01*
X140834000Y-96431000D01*
X140831000Y-96430000D01*
X140829000Y-96430000D01*
X140826000Y-96429000D01*
X140824000Y-96428000D01*
X140821000Y-96427000D01*
X140819000Y-96425000D01*
X140817000Y-96424000D01*
X140815000Y-96422000D01*
X140813000Y-96421000D01*
X140811000Y-96419000D01*
X140809000Y-96417000D01*
X140807000Y-96415000D01*
X140805000Y-96413000D01*
X140804000Y-96411000D01*
X140802000Y-96409000D01*
X140801000Y-96407000D01*
X140799000Y-96405000D01*
X140798000Y-96402000D01*
X140797000Y-96400000D01*
X140796000Y-96397000D01*
X140796000Y-96395000D01*
X140795000Y-96392000D01*
X140795000Y-96390000D01*
X140794000Y-96387000D01*
X140794000Y-96385000D01*
X140794000Y-96382000D01*
X140794000Y-96232000D01*
X140794000Y-96229000D01*
X140794000Y-96227000D01*
X140795000Y-96224000D01*
X140795000Y-96222000D01*
X140796000Y-96219000D01*
X140796000Y-96217000D01*
X140797000Y-96214000D01*
X140798000Y-96212000D01*
X140799000Y-96209000D01*
X140801000Y-96207000D01*
X140802000Y-96205000D01*
X140804000Y-96203000D01*
X140805000Y-96201000D01*
X140807000Y-96199000D01*
X140809000Y-96197000D01*
X140811000Y-96195000D01*
X140813000Y-96193000D01*
X140815000Y-96192000D01*
X140817000Y-96190000D01*
X140819000Y-96189000D01*
X140821000Y-96187000D01*
X140824000Y-96186000D01*
X140826000Y-96185000D01*
X140829000Y-96184000D01*
X140831000Y-96184000D01*
X140834000Y-96183000D01*
X140836000Y-96183000D01*
X140839000Y-96182000D01*
X140841000Y-96182000D01*
X140844000Y-96182000D01*
X141344000Y-96182000D01*
X141347000Y-96182000D01*
X141349000Y-96182000D01*
X141352000Y-96183000D01*
G37*
X141352000Y-97183000D02*
X141354000Y-97183000D01*
X141357000Y-97184000D01*
X141359000Y-97184000D01*
X141362000Y-97185000D01*
X141364000Y-97186000D01*
X141367000Y-97187000D01*
X141369000Y-97189000D01*
X141371000Y-97190000D01*
X141373000Y-97192000D01*
X141375000Y-97193000D01*
X141377000Y-97195000D01*
X141379000Y-97197000D01*
X141381000Y-97199000D01*
X141383000Y-97201000D01*
X141384000Y-97203000D01*
X141386000Y-97205000D01*
X141387000Y-97207000D01*
X141389000Y-97209000D01*
X141390000Y-97212000D01*
X141391000Y-97214000D01*
X141392000Y-97217000D01*
X141392000Y-97219000D01*
X141393000Y-97222000D01*
X141393000Y-97224000D01*
X141394000Y-97227000D01*
X141394000Y-97229000D01*
X141394000Y-97232000D01*
X141394000Y-97382000D01*
X141394000Y-97385000D01*
X141394000Y-97387000D01*
X141393000Y-97390000D01*
X141393000Y-97392000D01*
X141392000Y-97395000D01*
X141392000Y-97397000D01*
X141391000Y-97400000D01*
X141390000Y-97402000D01*
X141389000Y-97405000D01*
X141387000Y-97407000D01*
X141386000Y-97409000D01*
X141384000Y-97411000D01*
X141383000Y-97413000D01*
X141381000Y-97415000D01*
X141379000Y-97417000D01*
X141377000Y-97419000D01*
X141375000Y-97421000D01*
X141373000Y-97422000D01*
X141371000Y-97424000D01*
X141369000Y-97425000D01*
X141367000Y-97427000D01*
X141364000Y-97428000D01*
X141362000Y-97429000D01*
X141359000Y-97430000D01*
X141357000Y-97430000D01*
X141354000Y-97431000D01*
X141352000Y-97431000D01*
X141349000Y-97432000D01*
X141347000Y-97432000D01*
X141344000Y-97432000D01*
X140844000Y-97432000D01*
X140841000Y-97432000D01*
X140839000Y-97432000D01*
X140836000Y-97431000D01*
X140834000Y-97431000D01*
X140831000Y-97430000D01*
X140829000Y-97430000D01*
X140826000Y-97429000D01*
X140824000Y-97428000D01*
X140821000Y-97427000D01*
X140819000Y-97425000D01*
X140817000Y-97424000D01*
X140815000Y-97422000D01*
X140813000Y-97421000D01*
X140811000Y-97419000D01*
X140809000Y-97417000D01*
X140807000Y-97415000D01*
X140805000Y-97413000D01*
X140804000Y-97411000D01*
X140802000Y-97409000D01*
X140801000Y-97407000D01*
X140799000Y-97405000D01*
X140798000Y-97402000D01*
X140797000Y-97400000D01*
X140796000Y-97397000D01*
X140796000Y-97395000D01*
X140795000Y-97392000D01*
X140795000Y-97390000D01*
X140794000Y-97387000D01*
X140794000Y-97385000D01*
X140794000Y-97382000D01*
X140794000Y-97232000D01*
X140794000Y-97229000D01*
X140794000Y-97227000D01*
X140795000Y-97224000D01*
X140795000Y-97222000D01*
X140796000Y-97219000D01*
X140796000Y-97217000D01*
X140797000Y-97214000D01*
X140798000Y-97212000D01*
X140799000Y-97209000D01*
X140801000Y-97207000D01*
X140802000Y-97205000D01*
X140804000Y-97203000D01*
X140805000Y-97201000D01*
X140807000Y-97199000D01*
X140809000Y-97197000D01*
X140811000Y-97195000D01*
X140813000Y-97193000D01*
X140815000Y-97192000D01*
X140817000Y-97190000D01*
X140819000Y-97189000D01*
X140821000Y-97187000D01*
X140824000Y-97186000D01*
X140826000Y-97185000D01*
X140829000Y-97184000D01*
X140831000Y-97184000D01*
X140834000Y-97183000D01*
X140836000Y-97183000D01*
X140839000Y-97182000D01*
X140841000Y-97182000D01*
X140844000Y-97182000D01*
X141344000Y-97182000D01*
X141347000Y-97182000D01*
X141349000Y-97182000D01*
X141352000Y-97183000D01*
G36*
X141352000Y-97183000D02*
G01*
X141354000Y-97183000D01*
X141357000Y-97184000D01*
X141359000Y-97184000D01*
X141362000Y-97185000D01*
X141364000Y-97186000D01*
X141367000Y-97187000D01*
X141369000Y-97189000D01*
X141371000Y-97190000D01*
X141373000Y-97192000D01*
X141375000Y-97193000D01*
X141377000Y-97195000D01*
X141379000Y-97197000D01*
X141381000Y-97199000D01*
X141383000Y-97201000D01*
X141384000Y-97203000D01*
X141386000Y-97205000D01*
X141387000Y-97207000D01*
X141389000Y-97209000D01*
X141390000Y-97212000D01*
X141391000Y-97214000D01*
X141392000Y-97217000D01*
X141392000Y-97219000D01*
X141393000Y-97222000D01*
X141393000Y-97224000D01*
X141394000Y-97227000D01*
X141394000Y-97229000D01*
X141394000Y-97232000D01*
X141394000Y-97382000D01*
X141394000Y-97385000D01*
X141394000Y-97387000D01*
X141393000Y-97390000D01*
X141393000Y-97392000D01*
X141392000Y-97395000D01*
X141392000Y-97397000D01*
X141391000Y-97400000D01*
X141390000Y-97402000D01*
X141389000Y-97405000D01*
X141387000Y-97407000D01*
X141386000Y-97409000D01*
X141384000Y-97411000D01*
X141383000Y-97413000D01*
X141381000Y-97415000D01*
X141379000Y-97417000D01*
X141377000Y-97419000D01*
X141375000Y-97421000D01*
X141373000Y-97422000D01*
X141371000Y-97424000D01*
X141369000Y-97425000D01*
X141367000Y-97427000D01*
X141364000Y-97428000D01*
X141362000Y-97429000D01*
X141359000Y-97430000D01*
X141357000Y-97430000D01*
X141354000Y-97431000D01*
X141352000Y-97431000D01*
X141349000Y-97432000D01*
X141347000Y-97432000D01*
X141344000Y-97432000D01*
X140844000Y-97432000D01*
X140841000Y-97432000D01*
X140839000Y-97432000D01*
X140836000Y-97431000D01*
X140834000Y-97431000D01*
X140831000Y-97430000D01*
X140829000Y-97430000D01*
X140826000Y-97429000D01*
X140824000Y-97428000D01*
X140821000Y-97427000D01*
X140819000Y-97425000D01*
X140817000Y-97424000D01*
X140815000Y-97422000D01*
X140813000Y-97421000D01*
X140811000Y-97419000D01*
X140809000Y-97417000D01*
X140807000Y-97415000D01*
X140805000Y-97413000D01*
X140804000Y-97411000D01*
X140802000Y-97409000D01*
X140801000Y-97407000D01*
X140799000Y-97405000D01*
X140798000Y-97402000D01*
X140797000Y-97400000D01*
X140796000Y-97397000D01*
X140796000Y-97395000D01*
X140795000Y-97392000D01*
X140795000Y-97390000D01*
X140794000Y-97387000D01*
X140794000Y-97385000D01*
X140794000Y-97382000D01*
X140794000Y-97232000D01*
X140794000Y-97229000D01*
X140794000Y-97227000D01*
X140795000Y-97224000D01*
X140795000Y-97222000D01*
X140796000Y-97219000D01*
X140796000Y-97217000D01*
X140797000Y-97214000D01*
X140798000Y-97212000D01*
X140799000Y-97209000D01*
X140801000Y-97207000D01*
X140802000Y-97205000D01*
X140804000Y-97203000D01*
X140805000Y-97201000D01*
X140807000Y-97199000D01*
X140809000Y-97197000D01*
X140811000Y-97195000D01*
X140813000Y-97193000D01*
X140815000Y-97192000D01*
X140817000Y-97190000D01*
X140819000Y-97189000D01*
X140821000Y-97187000D01*
X140824000Y-97186000D01*
X140826000Y-97185000D01*
X140829000Y-97184000D01*
X140831000Y-97184000D01*
X140834000Y-97183000D01*
X140836000Y-97183000D01*
X140839000Y-97182000D01*
X140841000Y-97182000D01*
X140844000Y-97182000D01*
X141344000Y-97182000D01*
X141347000Y-97182000D01*
X141349000Y-97182000D01*
X141352000Y-97183000D01*
G37*
X141327000Y-95108000D02*
X141329000Y-95108000D01*
X141332000Y-95109000D01*
X141334000Y-95109000D01*
X141337000Y-95110000D01*
X141339000Y-95111000D01*
X141342000Y-95112000D01*
X141344000Y-95114000D01*
X141346000Y-95115000D01*
X141348000Y-95117000D01*
X141350000Y-95118000D01*
X141352000Y-95120000D01*
X141354000Y-95122000D01*
X141356000Y-95124000D01*
X141358000Y-95126000D01*
X141359000Y-95128000D01*
X141361000Y-95130000D01*
X141362000Y-95132000D01*
X141364000Y-95134000D01*
X141365000Y-95137000D01*
X141366000Y-95139000D01*
X141367000Y-95142000D01*
X141367000Y-95144000D01*
X141368000Y-95147000D01*
X141368000Y-95149000D01*
X141369000Y-95152000D01*
X141369000Y-95154000D01*
X141369000Y-95157000D01*
X141369000Y-95657000D01*
X141369000Y-95660000D01*
X141369000Y-95662000D01*
X141368000Y-95665000D01*
X141368000Y-95667000D01*
X141367000Y-95670000D01*
X141367000Y-95672000D01*
X141366000Y-95675000D01*
X141365000Y-95677000D01*
X141364000Y-95680000D01*
X141362000Y-95682000D01*
X141361000Y-95684000D01*
X141359000Y-95686000D01*
X141358000Y-95688000D01*
X141356000Y-95690000D01*
X141354000Y-95692000D01*
X141352000Y-95694000D01*
X141350000Y-95696000D01*
X141348000Y-95697000D01*
X141346000Y-95699000D01*
X141344000Y-95700000D01*
X141342000Y-95702000D01*
X141339000Y-95703000D01*
X141337000Y-95704000D01*
X141334000Y-95705000D01*
X141332000Y-95705000D01*
X141329000Y-95706000D01*
X141327000Y-95706000D01*
X141324000Y-95707000D01*
X141322000Y-95707000D01*
X141319000Y-95707000D01*
X141169000Y-95707000D01*
X141166000Y-95707000D01*
X141164000Y-95707000D01*
X141161000Y-95706000D01*
X141159000Y-95706000D01*
X141156000Y-95705000D01*
X141154000Y-95705000D01*
X141151000Y-95704000D01*
X141149000Y-95703000D01*
X141146000Y-95702000D01*
X141144000Y-95700000D01*
X141142000Y-95699000D01*
X141140000Y-95697000D01*
X141138000Y-95696000D01*
X141136000Y-95694000D01*
X141134000Y-95692000D01*
X141132000Y-95690000D01*
X141130000Y-95688000D01*
X141129000Y-95686000D01*
X141127000Y-95684000D01*
X141126000Y-95682000D01*
X141124000Y-95680000D01*
X141123000Y-95677000D01*
X141122000Y-95675000D01*
X141121000Y-95672000D01*
X141121000Y-95670000D01*
X141120000Y-95667000D01*
X141120000Y-95665000D01*
X141119000Y-95662000D01*
X141119000Y-95660000D01*
X141119000Y-95657000D01*
X141119000Y-95157000D01*
X141119000Y-95154000D01*
X141119000Y-95152000D01*
X141120000Y-95149000D01*
X141120000Y-95147000D01*
X141121000Y-95144000D01*
X141121000Y-95142000D01*
X141122000Y-95139000D01*
X141123000Y-95137000D01*
X141124000Y-95134000D01*
X141126000Y-95132000D01*
X141127000Y-95130000D01*
X141129000Y-95128000D01*
X141130000Y-95126000D01*
X141132000Y-95124000D01*
X141134000Y-95122000D01*
X141136000Y-95120000D01*
X141138000Y-95118000D01*
X141140000Y-95117000D01*
X141142000Y-95115000D01*
X141144000Y-95114000D01*
X141146000Y-95112000D01*
X141149000Y-95111000D01*
X141151000Y-95110000D01*
X141154000Y-95109000D01*
X141156000Y-95109000D01*
X141159000Y-95108000D01*
X141161000Y-95108000D01*
X141164000Y-95107000D01*
X141166000Y-95107000D01*
X141169000Y-95107000D01*
X141319000Y-95107000D01*
X141322000Y-95107000D01*
X141324000Y-95107000D01*
X141327000Y-95108000D01*
G36*
X141327000Y-95108000D02*
G01*
X141329000Y-95108000D01*
X141332000Y-95109000D01*
X141334000Y-95109000D01*
X141337000Y-95110000D01*
X141339000Y-95111000D01*
X141342000Y-95112000D01*
X141344000Y-95114000D01*
X141346000Y-95115000D01*
X141348000Y-95117000D01*
X141350000Y-95118000D01*
X141352000Y-95120000D01*
X141354000Y-95122000D01*
X141356000Y-95124000D01*
X141358000Y-95126000D01*
X141359000Y-95128000D01*
X141361000Y-95130000D01*
X141362000Y-95132000D01*
X141364000Y-95134000D01*
X141365000Y-95137000D01*
X141366000Y-95139000D01*
X141367000Y-95142000D01*
X141367000Y-95144000D01*
X141368000Y-95147000D01*
X141368000Y-95149000D01*
X141369000Y-95152000D01*
X141369000Y-95154000D01*
X141369000Y-95157000D01*
X141369000Y-95657000D01*
X141369000Y-95660000D01*
X141369000Y-95662000D01*
X141368000Y-95665000D01*
X141368000Y-95667000D01*
X141367000Y-95670000D01*
X141367000Y-95672000D01*
X141366000Y-95675000D01*
X141365000Y-95677000D01*
X141364000Y-95680000D01*
X141362000Y-95682000D01*
X141361000Y-95684000D01*
X141359000Y-95686000D01*
X141358000Y-95688000D01*
X141356000Y-95690000D01*
X141354000Y-95692000D01*
X141352000Y-95694000D01*
X141350000Y-95696000D01*
X141348000Y-95697000D01*
X141346000Y-95699000D01*
X141344000Y-95700000D01*
X141342000Y-95702000D01*
X141339000Y-95703000D01*
X141337000Y-95704000D01*
X141334000Y-95705000D01*
X141332000Y-95705000D01*
X141329000Y-95706000D01*
X141327000Y-95706000D01*
X141324000Y-95707000D01*
X141322000Y-95707000D01*
X141319000Y-95707000D01*
X141169000Y-95707000D01*
X141166000Y-95707000D01*
X141164000Y-95707000D01*
X141161000Y-95706000D01*
X141159000Y-95706000D01*
X141156000Y-95705000D01*
X141154000Y-95705000D01*
X141151000Y-95704000D01*
X141149000Y-95703000D01*
X141146000Y-95702000D01*
X141144000Y-95700000D01*
X141142000Y-95699000D01*
X141140000Y-95697000D01*
X141138000Y-95696000D01*
X141136000Y-95694000D01*
X141134000Y-95692000D01*
X141132000Y-95690000D01*
X141130000Y-95688000D01*
X141129000Y-95686000D01*
X141127000Y-95684000D01*
X141126000Y-95682000D01*
X141124000Y-95680000D01*
X141123000Y-95677000D01*
X141122000Y-95675000D01*
X141121000Y-95672000D01*
X141121000Y-95670000D01*
X141120000Y-95667000D01*
X141120000Y-95665000D01*
X141119000Y-95662000D01*
X141119000Y-95660000D01*
X141119000Y-95657000D01*
X141119000Y-95157000D01*
X141119000Y-95154000D01*
X141119000Y-95152000D01*
X141120000Y-95149000D01*
X141120000Y-95147000D01*
X141121000Y-95144000D01*
X141121000Y-95142000D01*
X141122000Y-95139000D01*
X141123000Y-95137000D01*
X141124000Y-95134000D01*
X141126000Y-95132000D01*
X141127000Y-95130000D01*
X141129000Y-95128000D01*
X141130000Y-95126000D01*
X141132000Y-95124000D01*
X141134000Y-95122000D01*
X141136000Y-95120000D01*
X141138000Y-95118000D01*
X141140000Y-95117000D01*
X141142000Y-95115000D01*
X141144000Y-95114000D01*
X141146000Y-95112000D01*
X141149000Y-95111000D01*
X141151000Y-95110000D01*
X141154000Y-95109000D01*
X141156000Y-95109000D01*
X141159000Y-95108000D01*
X141161000Y-95108000D01*
X141164000Y-95107000D01*
X141166000Y-95107000D01*
X141169000Y-95107000D01*
X141319000Y-95107000D01*
X141322000Y-95107000D01*
X141324000Y-95107000D01*
X141327000Y-95108000D01*
G37*
X141327000Y-97908000D02*
X141329000Y-97908000D01*
X141332000Y-97909000D01*
X141334000Y-97909000D01*
X141337000Y-97910000D01*
X141339000Y-97911000D01*
X141342000Y-97912000D01*
X141344000Y-97914000D01*
X141346000Y-97915000D01*
X141348000Y-97917000D01*
X141350000Y-97918000D01*
X141352000Y-97920000D01*
X141354000Y-97922000D01*
X141356000Y-97924000D01*
X141358000Y-97926000D01*
X141359000Y-97928000D01*
X141361000Y-97930000D01*
X141362000Y-97932000D01*
X141364000Y-97934000D01*
X141365000Y-97937000D01*
X141366000Y-97939000D01*
X141367000Y-97942000D01*
X141367000Y-97944000D01*
X141368000Y-97947000D01*
X141368000Y-97949000D01*
X141369000Y-97952000D01*
X141369000Y-97954000D01*
X141369000Y-97957000D01*
X141369000Y-98457000D01*
X141369000Y-98460000D01*
X141369000Y-98462000D01*
X141368000Y-98465000D01*
X141368000Y-98467000D01*
X141367000Y-98470000D01*
X141367000Y-98472000D01*
X141366000Y-98475000D01*
X141365000Y-98477000D01*
X141364000Y-98480000D01*
X141362000Y-98482000D01*
X141361000Y-98484000D01*
X141359000Y-98486000D01*
X141358000Y-98488000D01*
X141356000Y-98490000D01*
X141354000Y-98492000D01*
X141352000Y-98494000D01*
X141350000Y-98496000D01*
X141348000Y-98497000D01*
X141346000Y-98499000D01*
X141344000Y-98500000D01*
X141342000Y-98502000D01*
X141339000Y-98503000D01*
X141337000Y-98504000D01*
X141334000Y-98505000D01*
X141332000Y-98505000D01*
X141329000Y-98506000D01*
X141327000Y-98506000D01*
X141324000Y-98507000D01*
X141322000Y-98507000D01*
X141319000Y-98507000D01*
X141169000Y-98507000D01*
X141166000Y-98507000D01*
X141164000Y-98507000D01*
X141161000Y-98506000D01*
X141159000Y-98506000D01*
X141156000Y-98505000D01*
X141154000Y-98505000D01*
X141151000Y-98504000D01*
X141149000Y-98503000D01*
X141146000Y-98502000D01*
X141144000Y-98500000D01*
X141142000Y-98499000D01*
X141140000Y-98497000D01*
X141138000Y-98496000D01*
X141136000Y-98494000D01*
X141134000Y-98492000D01*
X141132000Y-98490000D01*
X141130000Y-98488000D01*
X141129000Y-98486000D01*
X141127000Y-98484000D01*
X141126000Y-98482000D01*
X141124000Y-98480000D01*
X141123000Y-98477000D01*
X141122000Y-98475000D01*
X141121000Y-98472000D01*
X141121000Y-98470000D01*
X141120000Y-98467000D01*
X141120000Y-98465000D01*
X141119000Y-98462000D01*
X141119000Y-98460000D01*
X141119000Y-98457000D01*
X141119000Y-97957000D01*
X141119000Y-97954000D01*
X141119000Y-97952000D01*
X141120000Y-97949000D01*
X141120000Y-97947000D01*
X141121000Y-97944000D01*
X141121000Y-97942000D01*
X141122000Y-97939000D01*
X141123000Y-97937000D01*
X141124000Y-97934000D01*
X141126000Y-97932000D01*
X141127000Y-97930000D01*
X141129000Y-97928000D01*
X141130000Y-97926000D01*
X141132000Y-97924000D01*
X141134000Y-97922000D01*
X141136000Y-97920000D01*
X141138000Y-97918000D01*
X141140000Y-97917000D01*
X141142000Y-97915000D01*
X141144000Y-97914000D01*
X141146000Y-97912000D01*
X141149000Y-97911000D01*
X141151000Y-97910000D01*
X141154000Y-97909000D01*
X141156000Y-97909000D01*
X141159000Y-97908000D01*
X141161000Y-97908000D01*
X141164000Y-97907000D01*
X141166000Y-97907000D01*
X141169000Y-97907000D01*
X141319000Y-97907000D01*
X141322000Y-97907000D01*
X141324000Y-97907000D01*
X141327000Y-97908000D01*
G36*
X141327000Y-97908000D02*
G01*
X141329000Y-97908000D01*
X141332000Y-97909000D01*
X141334000Y-97909000D01*
X141337000Y-97910000D01*
X141339000Y-97911000D01*
X141342000Y-97912000D01*
X141344000Y-97914000D01*
X141346000Y-97915000D01*
X141348000Y-97917000D01*
X141350000Y-97918000D01*
X141352000Y-97920000D01*
X141354000Y-97922000D01*
X141356000Y-97924000D01*
X141358000Y-97926000D01*
X141359000Y-97928000D01*
X141361000Y-97930000D01*
X141362000Y-97932000D01*
X141364000Y-97934000D01*
X141365000Y-97937000D01*
X141366000Y-97939000D01*
X141367000Y-97942000D01*
X141367000Y-97944000D01*
X141368000Y-97947000D01*
X141368000Y-97949000D01*
X141369000Y-97952000D01*
X141369000Y-97954000D01*
X141369000Y-97957000D01*
X141369000Y-98457000D01*
X141369000Y-98460000D01*
X141369000Y-98462000D01*
X141368000Y-98465000D01*
X141368000Y-98467000D01*
X141367000Y-98470000D01*
X141367000Y-98472000D01*
X141366000Y-98475000D01*
X141365000Y-98477000D01*
X141364000Y-98480000D01*
X141362000Y-98482000D01*
X141361000Y-98484000D01*
X141359000Y-98486000D01*
X141358000Y-98488000D01*
X141356000Y-98490000D01*
X141354000Y-98492000D01*
X141352000Y-98494000D01*
X141350000Y-98496000D01*
X141348000Y-98497000D01*
X141346000Y-98499000D01*
X141344000Y-98500000D01*
X141342000Y-98502000D01*
X141339000Y-98503000D01*
X141337000Y-98504000D01*
X141334000Y-98505000D01*
X141332000Y-98505000D01*
X141329000Y-98506000D01*
X141327000Y-98506000D01*
X141324000Y-98507000D01*
X141322000Y-98507000D01*
X141319000Y-98507000D01*
X141169000Y-98507000D01*
X141166000Y-98507000D01*
X141164000Y-98507000D01*
X141161000Y-98506000D01*
X141159000Y-98506000D01*
X141156000Y-98505000D01*
X141154000Y-98505000D01*
X141151000Y-98504000D01*
X141149000Y-98503000D01*
X141146000Y-98502000D01*
X141144000Y-98500000D01*
X141142000Y-98499000D01*
X141140000Y-98497000D01*
X141138000Y-98496000D01*
X141136000Y-98494000D01*
X141134000Y-98492000D01*
X141132000Y-98490000D01*
X141130000Y-98488000D01*
X141129000Y-98486000D01*
X141127000Y-98484000D01*
X141126000Y-98482000D01*
X141124000Y-98480000D01*
X141123000Y-98477000D01*
X141122000Y-98475000D01*
X141121000Y-98472000D01*
X141121000Y-98470000D01*
X141120000Y-98467000D01*
X141120000Y-98465000D01*
X141119000Y-98462000D01*
X141119000Y-98460000D01*
X141119000Y-98457000D01*
X141119000Y-97957000D01*
X141119000Y-97954000D01*
X141119000Y-97952000D01*
X141120000Y-97949000D01*
X141120000Y-97947000D01*
X141121000Y-97944000D01*
X141121000Y-97942000D01*
X141122000Y-97939000D01*
X141123000Y-97937000D01*
X141124000Y-97934000D01*
X141126000Y-97932000D01*
X141127000Y-97930000D01*
X141129000Y-97928000D01*
X141130000Y-97926000D01*
X141132000Y-97924000D01*
X141134000Y-97922000D01*
X141136000Y-97920000D01*
X141138000Y-97918000D01*
X141140000Y-97917000D01*
X141142000Y-97915000D01*
X141144000Y-97914000D01*
X141146000Y-97912000D01*
X141149000Y-97911000D01*
X141151000Y-97910000D01*
X141154000Y-97909000D01*
X141156000Y-97909000D01*
X141159000Y-97908000D01*
X141161000Y-97908000D01*
X141164000Y-97907000D01*
X141166000Y-97907000D01*
X141169000Y-97907000D01*
X141319000Y-97907000D01*
X141322000Y-97907000D01*
X141324000Y-97907000D01*
X141327000Y-97908000D01*
G37*
X142152000Y-96183000D02*
X142154000Y-96183000D01*
X142157000Y-96184000D01*
X142159000Y-96184000D01*
X142162000Y-96185000D01*
X142164000Y-96186000D01*
X142167000Y-96187000D01*
X142169000Y-96189000D01*
X142171000Y-96190000D01*
X142173000Y-96192000D01*
X142175000Y-96193000D01*
X142177000Y-96195000D01*
X142179000Y-96197000D01*
X142181000Y-96199000D01*
X142183000Y-96201000D01*
X142184000Y-96203000D01*
X142186000Y-96205000D01*
X142187000Y-96207000D01*
X142189000Y-96209000D01*
X142190000Y-96212000D01*
X142191000Y-96214000D01*
X142192000Y-96217000D01*
X142192000Y-96219000D01*
X142193000Y-96222000D01*
X142193000Y-96224000D01*
X142194000Y-96227000D01*
X142194000Y-96229000D01*
X142194000Y-96232000D01*
X142194000Y-96382000D01*
X142194000Y-96385000D01*
X142194000Y-96387000D01*
X142193000Y-96390000D01*
X142193000Y-96392000D01*
X142192000Y-96395000D01*
X142192000Y-96397000D01*
X142191000Y-96400000D01*
X142190000Y-96402000D01*
X142189000Y-96405000D01*
X142187000Y-96407000D01*
X142186000Y-96409000D01*
X142184000Y-96411000D01*
X142183000Y-96413000D01*
X142181000Y-96415000D01*
X142179000Y-96417000D01*
X142177000Y-96419000D01*
X142175000Y-96421000D01*
X142173000Y-96422000D01*
X142171000Y-96424000D01*
X142169000Y-96425000D01*
X142167000Y-96427000D01*
X142164000Y-96428000D01*
X142162000Y-96429000D01*
X142159000Y-96430000D01*
X142157000Y-96430000D01*
X142154000Y-96431000D01*
X142152000Y-96431000D01*
X142149000Y-96432000D01*
X142147000Y-96432000D01*
X142144000Y-96432000D01*
X141644000Y-96432000D01*
X141641000Y-96432000D01*
X141639000Y-96432000D01*
X141636000Y-96431000D01*
X141634000Y-96431000D01*
X141631000Y-96430000D01*
X141629000Y-96430000D01*
X141626000Y-96429000D01*
X141624000Y-96428000D01*
X141621000Y-96427000D01*
X141619000Y-96425000D01*
X141617000Y-96424000D01*
X141615000Y-96422000D01*
X141613000Y-96421000D01*
X141611000Y-96419000D01*
X141609000Y-96417000D01*
X141607000Y-96415000D01*
X141605000Y-96413000D01*
X141604000Y-96411000D01*
X141602000Y-96409000D01*
X141601000Y-96407000D01*
X141599000Y-96405000D01*
X141598000Y-96402000D01*
X141597000Y-96400000D01*
X141596000Y-96397000D01*
X141596000Y-96395000D01*
X141595000Y-96392000D01*
X141595000Y-96390000D01*
X141594000Y-96387000D01*
X141594000Y-96385000D01*
X141594000Y-96382000D01*
X141594000Y-96232000D01*
X141594000Y-96229000D01*
X141594000Y-96227000D01*
X141595000Y-96224000D01*
X141595000Y-96222000D01*
X141596000Y-96219000D01*
X141596000Y-96217000D01*
X141597000Y-96214000D01*
X141598000Y-96212000D01*
X141599000Y-96209000D01*
X141601000Y-96207000D01*
X141602000Y-96205000D01*
X141604000Y-96203000D01*
X141605000Y-96201000D01*
X141607000Y-96199000D01*
X141609000Y-96197000D01*
X141611000Y-96195000D01*
X141613000Y-96193000D01*
X141615000Y-96192000D01*
X141617000Y-96190000D01*
X141619000Y-96189000D01*
X141621000Y-96187000D01*
X141624000Y-96186000D01*
X141626000Y-96185000D01*
X141629000Y-96184000D01*
X141631000Y-96184000D01*
X141634000Y-96183000D01*
X141636000Y-96183000D01*
X141639000Y-96182000D01*
X141641000Y-96182000D01*
X141644000Y-96182000D01*
X142144000Y-96182000D01*
X142147000Y-96182000D01*
X142149000Y-96182000D01*
X142152000Y-96183000D01*
G36*
X142152000Y-96183000D02*
G01*
X142154000Y-96183000D01*
X142157000Y-96184000D01*
X142159000Y-96184000D01*
X142162000Y-96185000D01*
X142164000Y-96186000D01*
X142167000Y-96187000D01*
X142169000Y-96189000D01*
X142171000Y-96190000D01*
X142173000Y-96192000D01*
X142175000Y-96193000D01*
X142177000Y-96195000D01*
X142179000Y-96197000D01*
X142181000Y-96199000D01*
X142183000Y-96201000D01*
X142184000Y-96203000D01*
X142186000Y-96205000D01*
X142187000Y-96207000D01*
X142189000Y-96209000D01*
X142190000Y-96212000D01*
X142191000Y-96214000D01*
X142192000Y-96217000D01*
X142192000Y-96219000D01*
X142193000Y-96222000D01*
X142193000Y-96224000D01*
X142194000Y-96227000D01*
X142194000Y-96229000D01*
X142194000Y-96232000D01*
X142194000Y-96382000D01*
X142194000Y-96385000D01*
X142194000Y-96387000D01*
X142193000Y-96390000D01*
X142193000Y-96392000D01*
X142192000Y-96395000D01*
X142192000Y-96397000D01*
X142191000Y-96400000D01*
X142190000Y-96402000D01*
X142189000Y-96405000D01*
X142187000Y-96407000D01*
X142186000Y-96409000D01*
X142184000Y-96411000D01*
X142183000Y-96413000D01*
X142181000Y-96415000D01*
X142179000Y-96417000D01*
X142177000Y-96419000D01*
X142175000Y-96421000D01*
X142173000Y-96422000D01*
X142171000Y-96424000D01*
X142169000Y-96425000D01*
X142167000Y-96427000D01*
X142164000Y-96428000D01*
X142162000Y-96429000D01*
X142159000Y-96430000D01*
X142157000Y-96430000D01*
X142154000Y-96431000D01*
X142152000Y-96431000D01*
X142149000Y-96432000D01*
X142147000Y-96432000D01*
X142144000Y-96432000D01*
X141644000Y-96432000D01*
X141641000Y-96432000D01*
X141639000Y-96432000D01*
X141636000Y-96431000D01*
X141634000Y-96431000D01*
X141631000Y-96430000D01*
X141629000Y-96430000D01*
X141626000Y-96429000D01*
X141624000Y-96428000D01*
X141621000Y-96427000D01*
X141619000Y-96425000D01*
X141617000Y-96424000D01*
X141615000Y-96422000D01*
X141613000Y-96421000D01*
X141611000Y-96419000D01*
X141609000Y-96417000D01*
X141607000Y-96415000D01*
X141605000Y-96413000D01*
X141604000Y-96411000D01*
X141602000Y-96409000D01*
X141601000Y-96407000D01*
X141599000Y-96405000D01*
X141598000Y-96402000D01*
X141597000Y-96400000D01*
X141596000Y-96397000D01*
X141596000Y-96395000D01*
X141595000Y-96392000D01*
X141595000Y-96390000D01*
X141594000Y-96387000D01*
X141594000Y-96385000D01*
X141594000Y-96382000D01*
X141594000Y-96232000D01*
X141594000Y-96229000D01*
X141594000Y-96227000D01*
X141595000Y-96224000D01*
X141595000Y-96222000D01*
X141596000Y-96219000D01*
X141596000Y-96217000D01*
X141597000Y-96214000D01*
X141598000Y-96212000D01*
X141599000Y-96209000D01*
X141601000Y-96207000D01*
X141602000Y-96205000D01*
X141604000Y-96203000D01*
X141605000Y-96201000D01*
X141607000Y-96199000D01*
X141609000Y-96197000D01*
X141611000Y-96195000D01*
X141613000Y-96193000D01*
X141615000Y-96192000D01*
X141617000Y-96190000D01*
X141619000Y-96189000D01*
X141621000Y-96187000D01*
X141624000Y-96186000D01*
X141626000Y-96185000D01*
X141629000Y-96184000D01*
X141631000Y-96184000D01*
X141634000Y-96183000D01*
X141636000Y-96183000D01*
X141639000Y-96182000D01*
X141641000Y-96182000D01*
X141644000Y-96182000D01*
X142144000Y-96182000D01*
X142147000Y-96182000D01*
X142149000Y-96182000D01*
X142152000Y-96183000D01*
G37*
X142152000Y-97183000D02*
X142154000Y-97183000D01*
X142157000Y-97184000D01*
X142159000Y-97184000D01*
X142162000Y-97185000D01*
X142164000Y-97186000D01*
X142167000Y-97187000D01*
X142169000Y-97189000D01*
X142171000Y-97190000D01*
X142173000Y-97192000D01*
X142175000Y-97193000D01*
X142177000Y-97195000D01*
X142179000Y-97197000D01*
X142181000Y-97199000D01*
X142183000Y-97201000D01*
X142184000Y-97203000D01*
X142186000Y-97205000D01*
X142187000Y-97207000D01*
X142189000Y-97209000D01*
X142190000Y-97212000D01*
X142191000Y-97214000D01*
X142192000Y-97217000D01*
X142192000Y-97219000D01*
X142193000Y-97222000D01*
X142193000Y-97224000D01*
X142194000Y-97227000D01*
X142194000Y-97229000D01*
X142194000Y-97232000D01*
X142194000Y-97382000D01*
X142194000Y-97385000D01*
X142194000Y-97387000D01*
X142193000Y-97390000D01*
X142193000Y-97392000D01*
X142192000Y-97395000D01*
X142192000Y-97397000D01*
X142191000Y-97400000D01*
X142190000Y-97402000D01*
X142189000Y-97405000D01*
X142187000Y-97407000D01*
X142186000Y-97409000D01*
X142184000Y-97411000D01*
X142183000Y-97413000D01*
X142181000Y-97415000D01*
X142179000Y-97417000D01*
X142177000Y-97419000D01*
X142175000Y-97421000D01*
X142173000Y-97422000D01*
X142171000Y-97424000D01*
X142169000Y-97425000D01*
X142167000Y-97427000D01*
X142164000Y-97428000D01*
X142162000Y-97429000D01*
X142159000Y-97430000D01*
X142157000Y-97430000D01*
X142154000Y-97431000D01*
X142152000Y-97431000D01*
X142149000Y-97432000D01*
X142147000Y-97432000D01*
X142144000Y-97432000D01*
X141644000Y-97432000D01*
X141641000Y-97432000D01*
X141639000Y-97432000D01*
X141636000Y-97431000D01*
X141634000Y-97431000D01*
X141631000Y-97430000D01*
X141629000Y-97430000D01*
X141626000Y-97429000D01*
X141624000Y-97428000D01*
X141621000Y-97427000D01*
X141619000Y-97425000D01*
X141617000Y-97424000D01*
X141615000Y-97422000D01*
X141613000Y-97421000D01*
X141611000Y-97419000D01*
X141609000Y-97417000D01*
X141607000Y-97415000D01*
X141605000Y-97413000D01*
X141604000Y-97411000D01*
X141602000Y-97409000D01*
X141601000Y-97407000D01*
X141599000Y-97405000D01*
X141598000Y-97402000D01*
X141597000Y-97400000D01*
X141596000Y-97397000D01*
X141596000Y-97395000D01*
X141595000Y-97392000D01*
X141595000Y-97390000D01*
X141594000Y-97387000D01*
X141594000Y-97385000D01*
X141594000Y-97382000D01*
X141594000Y-97232000D01*
X141594000Y-97229000D01*
X141594000Y-97227000D01*
X141595000Y-97224000D01*
X141595000Y-97222000D01*
X141596000Y-97219000D01*
X141596000Y-97217000D01*
X141597000Y-97214000D01*
X141598000Y-97212000D01*
X141599000Y-97209000D01*
X141601000Y-97207000D01*
X141602000Y-97205000D01*
X141604000Y-97203000D01*
X141605000Y-97201000D01*
X141607000Y-97199000D01*
X141609000Y-97197000D01*
X141611000Y-97195000D01*
X141613000Y-97193000D01*
X141615000Y-97192000D01*
X141617000Y-97190000D01*
X141619000Y-97189000D01*
X141621000Y-97187000D01*
X141624000Y-97186000D01*
X141626000Y-97185000D01*
X141629000Y-97184000D01*
X141631000Y-97184000D01*
X141634000Y-97183000D01*
X141636000Y-97183000D01*
X141639000Y-97182000D01*
X141641000Y-97182000D01*
X141644000Y-97182000D01*
X142144000Y-97182000D01*
X142147000Y-97182000D01*
X142149000Y-97182000D01*
X142152000Y-97183000D01*
G36*
X142152000Y-97183000D02*
G01*
X142154000Y-97183000D01*
X142157000Y-97184000D01*
X142159000Y-97184000D01*
X142162000Y-97185000D01*
X142164000Y-97186000D01*
X142167000Y-97187000D01*
X142169000Y-97189000D01*
X142171000Y-97190000D01*
X142173000Y-97192000D01*
X142175000Y-97193000D01*
X142177000Y-97195000D01*
X142179000Y-97197000D01*
X142181000Y-97199000D01*
X142183000Y-97201000D01*
X142184000Y-97203000D01*
X142186000Y-97205000D01*
X142187000Y-97207000D01*
X142189000Y-97209000D01*
X142190000Y-97212000D01*
X142191000Y-97214000D01*
X142192000Y-97217000D01*
X142192000Y-97219000D01*
X142193000Y-97222000D01*
X142193000Y-97224000D01*
X142194000Y-97227000D01*
X142194000Y-97229000D01*
X142194000Y-97232000D01*
X142194000Y-97382000D01*
X142194000Y-97385000D01*
X142194000Y-97387000D01*
X142193000Y-97390000D01*
X142193000Y-97392000D01*
X142192000Y-97395000D01*
X142192000Y-97397000D01*
X142191000Y-97400000D01*
X142190000Y-97402000D01*
X142189000Y-97405000D01*
X142187000Y-97407000D01*
X142186000Y-97409000D01*
X142184000Y-97411000D01*
X142183000Y-97413000D01*
X142181000Y-97415000D01*
X142179000Y-97417000D01*
X142177000Y-97419000D01*
X142175000Y-97421000D01*
X142173000Y-97422000D01*
X142171000Y-97424000D01*
X142169000Y-97425000D01*
X142167000Y-97427000D01*
X142164000Y-97428000D01*
X142162000Y-97429000D01*
X142159000Y-97430000D01*
X142157000Y-97430000D01*
X142154000Y-97431000D01*
X142152000Y-97431000D01*
X142149000Y-97432000D01*
X142147000Y-97432000D01*
X142144000Y-97432000D01*
X141644000Y-97432000D01*
X141641000Y-97432000D01*
X141639000Y-97432000D01*
X141636000Y-97431000D01*
X141634000Y-97431000D01*
X141631000Y-97430000D01*
X141629000Y-97430000D01*
X141626000Y-97429000D01*
X141624000Y-97428000D01*
X141621000Y-97427000D01*
X141619000Y-97425000D01*
X141617000Y-97424000D01*
X141615000Y-97422000D01*
X141613000Y-97421000D01*
X141611000Y-97419000D01*
X141609000Y-97417000D01*
X141607000Y-97415000D01*
X141605000Y-97413000D01*
X141604000Y-97411000D01*
X141602000Y-97409000D01*
X141601000Y-97407000D01*
X141599000Y-97405000D01*
X141598000Y-97402000D01*
X141597000Y-97400000D01*
X141596000Y-97397000D01*
X141596000Y-97395000D01*
X141595000Y-97392000D01*
X141595000Y-97390000D01*
X141594000Y-97387000D01*
X141594000Y-97385000D01*
X141594000Y-97382000D01*
X141594000Y-97232000D01*
X141594000Y-97229000D01*
X141594000Y-97227000D01*
X141595000Y-97224000D01*
X141595000Y-97222000D01*
X141596000Y-97219000D01*
X141596000Y-97217000D01*
X141597000Y-97214000D01*
X141598000Y-97212000D01*
X141599000Y-97209000D01*
X141601000Y-97207000D01*
X141602000Y-97205000D01*
X141604000Y-97203000D01*
X141605000Y-97201000D01*
X141607000Y-97199000D01*
X141609000Y-97197000D01*
X141611000Y-97195000D01*
X141613000Y-97193000D01*
X141615000Y-97192000D01*
X141617000Y-97190000D01*
X141619000Y-97189000D01*
X141621000Y-97187000D01*
X141624000Y-97186000D01*
X141626000Y-97185000D01*
X141629000Y-97184000D01*
X141631000Y-97184000D01*
X141634000Y-97183000D01*
X141636000Y-97183000D01*
X141639000Y-97182000D01*
X141641000Y-97182000D01*
X141644000Y-97182000D01*
X142144000Y-97182000D01*
X142147000Y-97182000D01*
X142149000Y-97182000D01*
X142152000Y-97183000D01*
G37*
X141827000Y-95108000D02*
X141829000Y-95108000D01*
X141832000Y-95109000D01*
X141834000Y-95109000D01*
X141837000Y-95110000D01*
X141839000Y-95111000D01*
X141842000Y-95112000D01*
X141844000Y-95114000D01*
X141846000Y-95115000D01*
X141848000Y-95117000D01*
X141850000Y-95118000D01*
X141852000Y-95120000D01*
X141854000Y-95122000D01*
X141856000Y-95124000D01*
X141858000Y-95126000D01*
X141859000Y-95128000D01*
X141861000Y-95130000D01*
X141862000Y-95132000D01*
X141864000Y-95134000D01*
X141865000Y-95137000D01*
X141866000Y-95139000D01*
X141867000Y-95142000D01*
X141867000Y-95144000D01*
X141868000Y-95147000D01*
X141868000Y-95149000D01*
X141869000Y-95152000D01*
X141869000Y-95154000D01*
X141869000Y-95157000D01*
X141869000Y-95657000D01*
X141869000Y-95660000D01*
X141869000Y-95662000D01*
X141868000Y-95665000D01*
X141868000Y-95667000D01*
X141867000Y-95670000D01*
X141867000Y-95672000D01*
X141866000Y-95675000D01*
X141865000Y-95677000D01*
X141864000Y-95680000D01*
X141862000Y-95682000D01*
X141861000Y-95684000D01*
X141859000Y-95686000D01*
X141858000Y-95688000D01*
X141856000Y-95690000D01*
X141854000Y-95692000D01*
X141852000Y-95694000D01*
X141850000Y-95696000D01*
X141848000Y-95697000D01*
X141846000Y-95699000D01*
X141844000Y-95700000D01*
X141842000Y-95702000D01*
X141839000Y-95703000D01*
X141837000Y-95704000D01*
X141834000Y-95705000D01*
X141832000Y-95705000D01*
X141829000Y-95706000D01*
X141827000Y-95706000D01*
X141824000Y-95707000D01*
X141822000Y-95707000D01*
X141819000Y-95707000D01*
X141669000Y-95707000D01*
X141666000Y-95707000D01*
X141664000Y-95707000D01*
X141661000Y-95706000D01*
X141659000Y-95706000D01*
X141656000Y-95705000D01*
X141654000Y-95705000D01*
X141651000Y-95704000D01*
X141649000Y-95703000D01*
X141646000Y-95702000D01*
X141644000Y-95700000D01*
X141642000Y-95699000D01*
X141640000Y-95697000D01*
X141638000Y-95696000D01*
X141636000Y-95694000D01*
X141634000Y-95692000D01*
X141632000Y-95690000D01*
X141630000Y-95688000D01*
X141629000Y-95686000D01*
X141627000Y-95684000D01*
X141626000Y-95682000D01*
X141624000Y-95680000D01*
X141623000Y-95677000D01*
X141622000Y-95675000D01*
X141621000Y-95672000D01*
X141621000Y-95670000D01*
X141620000Y-95667000D01*
X141620000Y-95665000D01*
X141619000Y-95662000D01*
X141619000Y-95660000D01*
X141619000Y-95657000D01*
X141619000Y-95157000D01*
X141619000Y-95154000D01*
X141619000Y-95152000D01*
X141620000Y-95149000D01*
X141620000Y-95147000D01*
X141621000Y-95144000D01*
X141621000Y-95142000D01*
X141622000Y-95139000D01*
X141623000Y-95137000D01*
X141624000Y-95134000D01*
X141626000Y-95132000D01*
X141627000Y-95130000D01*
X141629000Y-95128000D01*
X141630000Y-95126000D01*
X141632000Y-95124000D01*
X141634000Y-95122000D01*
X141636000Y-95120000D01*
X141638000Y-95118000D01*
X141640000Y-95117000D01*
X141642000Y-95115000D01*
X141644000Y-95114000D01*
X141646000Y-95112000D01*
X141649000Y-95111000D01*
X141651000Y-95110000D01*
X141654000Y-95109000D01*
X141656000Y-95109000D01*
X141659000Y-95108000D01*
X141661000Y-95108000D01*
X141664000Y-95107000D01*
X141666000Y-95107000D01*
X141669000Y-95107000D01*
X141819000Y-95107000D01*
X141822000Y-95107000D01*
X141824000Y-95107000D01*
X141827000Y-95108000D01*
G36*
X141827000Y-95108000D02*
G01*
X141829000Y-95108000D01*
X141832000Y-95109000D01*
X141834000Y-95109000D01*
X141837000Y-95110000D01*
X141839000Y-95111000D01*
X141842000Y-95112000D01*
X141844000Y-95114000D01*
X141846000Y-95115000D01*
X141848000Y-95117000D01*
X141850000Y-95118000D01*
X141852000Y-95120000D01*
X141854000Y-95122000D01*
X141856000Y-95124000D01*
X141858000Y-95126000D01*
X141859000Y-95128000D01*
X141861000Y-95130000D01*
X141862000Y-95132000D01*
X141864000Y-95134000D01*
X141865000Y-95137000D01*
X141866000Y-95139000D01*
X141867000Y-95142000D01*
X141867000Y-95144000D01*
X141868000Y-95147000D01*
X141868000Y-95149000D01*
X141869000Y-95152000D01*
X141869000Y-95154000D01*
X141869000Y-95157000D01*
X141869000Y-95657000D01*
X141869000Y-95660000D01*
X141869000Y-95662000D01*
X141868000Y-95665000D01*
X141868000Y-95667000D01*
X141867000Y-95670000D01*
X141867000Y-95672000D01*
X141866000Y-95675000D01*
X141865000Y-95677000D01*
X141864000Y-95680000D01*
X141862000Y-95682000D01*
X141861000Y-95684000D01*
X141859000Y-95686000D01*
X141858000Y-95688000D01*
X141856000Y-95690000D01*
X141854000Y-95692000D01*
X141852000Y-95694000D01*
X141850000Y-95696000D01*
X141848000Y-95697000D01*
X141846000Y-95699000D01*
X141844000Y-95700000D01*
X141842000Y-95702000D01*
X141839000Y-95703000D01*
X141837000Y-95704000D01*
X141834000Y-95705000D01*
X141832000Y-95705000D01*
X141829000Y-95706000D01*
X141827000Y-95706000D01*
X141824000Y-95707000D01*
X141822000Y-95707000D01*
X141819000Y-95707000D01*
X141669000Y-95707000D01*
X141666000Y-95707000D01*
X141664000Y-95707000D01*
X141661000Y-95706000D01*
X141659000Y-95706000D01*
X141656000Y-95705000D01*
X141654000Y-95705000D01*
X141651000Y-95704000D01*
X141649000Y-95703000D01*
X141646000Y-95702000D01*
X141644000Y-95700000D01*
X141642000Y-95699000D01*
X141640000Y-95697000D01*
X141638000Y-95696000D01*
X141636000Y-95694000D01*
X141634000Y-95692000D01*
X141632000Y-95690000D01*
X141630000Y-95688000D01*
X141629000Y-95686000D01*
X141627000Y-95684000D01*
X141626000Y-95682000D01*
X141624000Y-95680000D01*
X141623000Y-95677000D01*
X141622000Y-95675000D01*
X141621000Y-95672000D01*
X141621000Y-95670000D01*
X141620000Y-95667000D01*
X141620000Y-95665000D01*
X141619000Y-95662000D01*
X141619000Y-95660000D01*
X141619000Y-95657000D01*
X141619000Y-95157000D01*
X141619000Y-95154000D01*
X141619000Y-95152000D01*
X141620000Y-95149000D01*
X141620000Y-95147000D01*
X141621000Y-95144000D01*
X141621000Y-95142000D01*
X141622000Y-95139000D01*
X141623000Y-95137000D01*
X141624000Y-95134000D01*
X141626000Y-95132000D01*
X141627000Y-95130000D01*
X141629000Y-95128000D01*
X141630000Y-95126000D01*
X141632000Y-95124000D01*
X141634000Y-95122000D01*
X141636000Y-95120000D01*
X141638000Y-95118000D01*
X141640000Y-95117000D01*
X141642000Y-95115000D01*
X141644000Y-95114000D01*
X141646000Y-95112000D01*
X141649000Y-95111000D01*
X141651000Y-95110000D01*
X141654000Y-95109000D01*
X141656000Y-95109000D01*
X141659000Y-95108000D01*
X141661000Y-95108000D01*
X141664000Y-95107000D01*
X141666000Y-95107000D01*
X141669000Y-95107000D01*
X141819000Y-95107000D01*
X141822000Y-95107000D01*
X141824000Y-95107000D01*
X141827000Y-95108000D01*
G37*
X141827000Y-97908000D02*
X141829000Y-97908000D01*
X141832000Y-97909000D01*
X141834000Y-97909000D01*
X141837000Y-97910000D01*
X141839000Y-97911000D01*
X141842000Y-97912000D01*
X141844000Y-97914000D01*
X141846000Y-97915000D01*
X141848000Y-97917000D01*
X141850000Y-97918000D01*
X141852000Y-97920000D01*
X141854000Y-97922000D01*
X141856000Y-97924000D01*
X141858000Y-97926000D01*
X141859000Y-97928000D01*
X141861000Y-97930000D01*
X141862000Y-97932000D01*
X141864000Y-97934000D01*
X141865000Y-97937000D01*
X141866000Y-97939000D01*
X141867000Y-97942000D01*
X141867000Y-97944000D01*
X141868000Y-97947000D01*
X141868000Y-97949000D01*
X141869000Y-97952000D01*
X141869000Y-97954000D01*
X141869000Y-97957000D01*
X141869000Y-98457000D01*
X141869000Y-98460000D01*
X141869000Y-98462000D01*
X141868000Y-98465000D01*
X141868000Y-98467000D01*
X141867000Y-98470000D01*
X141867000Y-98472000D01*
X141866000Y-98475000D01*
X141865000Y-98477000D01*
X141864000Y-98480000D01*
X141862000Y-98482000D01*
X141861000Y-98484000D01*
X141859000Y-98486000D01*
X141858000Y-98488000D01*
X141856000Y-98490000D01*
X141854000Y-98492000D01*
X141852000Y-98494000D01*
X141850000Y-98496000D01*
X141848000Y-98497000D01*
X141846000Y-98499000D01*
X141844000Y-98500000D01*
X141842000Y-98502000D01*
X141839000Y-98503000D01*
X141837000Y-98504000D01*
X141834000Y-98505000D01*
X141832000Y-98505000D01*
X141829000Y-98506000D01*
X141827000Y-98506000D01*
X141824000Y-98507000D01*
X141822000Y-98507000D01*
X141819000Y-98507000D01*
X141669000Y-98507000D01*
X141666000Y-98507000D01*
X141664000Y-98507000D01*
X141661000Y-98506000D01*
X141659000Y-98506000D01*
X141656000Y-98505000D01*
X141654000Y-98505000D01*
X141651000Y-98504000D01*
X141649000Y-98503000D01*
X141646000Y-98502000D01*
X141644000Y-98500000D01*
X141642000Y-98499000D01*
X141640000Y-98497000D01*
X141638000Y-98496000D01*
X141636000Y-98494000D01*
X141634000Y-98492000D01*
X141632000Y-98490000D01*
X141630000Y-98488000D01*
X141629000Y-98486000D01*
X141627000Y-98484000D01*
X141626000Y-98482000D01*
X141624000Y-98480000D01*
X141623000Y-98477000D01*
X141622000Y-98475000D01*
X141621000Y-98472000D01*
X141621000Y-98470000D01*
X141620000Y-98467000D01*
X141620000Y-98465000D01*
X141619000Y-98462000D01*
X141619000Y-98460000D01*
X141619000Y-98457000D01*
X141619000Y-97957000D01*
X141619000Y-97954000D01*
X141619000Y-97952000D01*
X141620000Y-97949000D01*
X141620000Y-97947000D01*
X141621000Y-97944000D01*
X141621000Y-97942000D01*
X141622000Y-97939000D01*
X141623000Y-97937000D01*
X141624000Y-97934000D01*
X141626000Y-97932000D01*
X141627000Y-97930000D01*
X141629000Y-97928000D01*
X141630000Y-97926000D01*
X141632000Y-97924000D01*
X141634000Y-97922000D01*
X141636000Y-97920000D01*
X141638000Y-97918000D01*
X141640000Y-97917000D01*
X141642000Y-97915000D01*
X141644000Y-97914000D01*
X141646000Y-97912000D01*
X141649000Y-97911000D01*
X141651000Y-97910000D01*
X141654000Y-97909000D01*
X141656000Y-97909000D01*
X141659000Y-97908000D01*
X141661000Y-97908000D01*
X141664000Y-97907000D01*
X141666000Y-97907000D01*
X141669000Y-97907000D01*
X141819000Y-97907000D01*
X141822000Y-97907000D01*
X141824000Y-97907000D01*
X141827000Y-97908000D01*
G36*
X141827000Y-97908000D02*
G01*
X141829000Y-97908000D01*
X141832000Y-97909000D01*
X141834000Y-97909000D01*
X141837000Y-97910000D01*
X141839000Y-97911000D01*
X141842000Y-97912000D01*
X141844000Y-97914000D01*
X141846000Y-97915000D01*
X141848000Y-97917000D01*
X141850000Y-97918000D01*
X141852000Y-97920000D01*
X141854000Y-97922000D01*
X141856000Y-97924000D01*
X141858000Y-97926000D01*
X141859000Y-97928000D01*
X141861000Y-97930000D01*
X141862000Y-97932000D01*
X141864000Y-97934000D01*
X141865000Y-97937000D01*
X141866000Y-97939000D01*
X141867000Y-97942000D01*
X141867000Y-97944000D01*
X141868000Y-97947000D01*
X141868000Y-97949000D01*
X141869000Y-97952000D01*
X141869000Y-97954000D01*
X141869000Y-97957000D01*
X141869000Y-98457000D01*
X141869000Y-98460000D01*
X141869000Y-98462000D01*
X141868000Y-98465000D01*
X141868000Y-98467000D01*
X141867000Y-98470000D01*
X141867000Y-98472000D01*
X141866000Y-98475000D01*
X141865000Y-98477000D01*
X141864000Y-98480000D01*
X141862000Y-98482000D01*
X141861000Y-98484000D01*
X141859000Y-98486000D01*
X141858000Y-98488000D01*
X141856000Y-98490000D01*
X141854000Y-98492000D01*
X141852000Y-98494000D01*
X141850000Y-98496000D01*
X141848000Y-98497000D01*
X141846000Y-98499000D01*
X141844000Y-98500000D01*
X141842000Y-98502000D01*
X141839000Y-98503000D01*
X141837000Y-98504000D01*
X141834000Y-98505000D01*
X141832000Y-98505000D01*
X141829000Y-98506000D01*
X141827000Y-98506000D01*
X141824000Y-98507000D01*
X141822000Y-98507000D01*
X141819000Y-98507000D01*
X141669000Y-98507000D01*
X141666000Y-98507000D01*
X141664000Y-98507000D01*
X141661000Y-98506000D01*
X141659000Y-98506000D01*
X141656000Y-98505000D01*
X141654000Y-98505000D01*
X141651000Y-98504000D01*
X141649000Y-98503000D01*
X141646000Y-98502000D01*
X141644000Y-98500000D01*
X141642000Y-98499000D01*
X141640000Y-98497000D01*
X141638000Y-98496000D01*
X141636000Y-98494000D01*
X141634000Y-98492000D01*
X141632000Y-98490000D01*
X141630000Y-98488000D01*
X141629000Y-98486000D01*
X141627000Y-98484000D01*
X141626000Y-98482000D01*
X141624000Y-98480000D01*
X141623000Y-98477000D01*
X141622000Y-98475000D01*
X141621000Y-98472000D01*
X141621000Y-98470000D01*
X141620000Y-98467000D01*
X141620000Y-98465000D01*
X141619000Y-98462000D01*
X141619000Y-98460000D01*
X141619000Y-98457000D01*
X141619000Y-97957000D01*
X141619000Y-97954000D01*
X141619000Y-97952000D01*
X141620000Y-97949000D01*
X141620000Y-97947000D01*
X141621000Y-97944000D01*
X141621000Y-97942000D01*
X141622000Y-97939000D01*
X141623000Y-97937000D01*
X141624000Y-97934000D01*
X141626000Y-97932000D01*
X141627000Y-97930000D01*
X141629000Y-97928000D01*
X141630000Y-97926000D01*
X141632000Y-97924000D01*
X141634000Y-97922000D01*
X141636000Y-97920000D01*
X141638000Y-97918000D01*
X141640000Y-97917000D01*
X141642000Y-97915000D01*
X141644000Y-97914000D01*
X141646000Y-97912000D01*
X141649000Y-97911000D01*
X141651000Y-97910000D01*
X141654000Y-97909000D01*
X141656000Y-97909000D01*
X141659000Y-97908000D01*
X141661000Y-97908000D01*
X141664000Y-97907000D01*
X141666000Y-97907000D01*
X141669000Y-97907000D01*
X141819000Y-97907000D01*
X141822000Y-97907000D01*
X141824000Y-97907000D01*
X141827000Y-97908000D01*
G37*
X142352000Y-96683000D02*
X142354000Y-96683000D01*
X142357000Y-96684000D01*
X142359000Y-96684000D01*
X142362000Y-96685000D01*
X142364000Y-96686000D01*
X142367000Y-96687000D01*
X142369000Y-96689000D01*
X142371000Y-96690000D01*
X142373000Y-96692000D01*
X142375000Y-96693000D01*
X142377000Y-96695000D01*
X142379000Y-96697000D01*
X142381000Y-96699000D01*
X142383000Y-96701000D01*
X142384000Y-96703000D01*
X142386000Y-96705000D01*
X142387000Y-96707000D01*
X142389000Y-96709000D01*
X142390000Y-96712000D01*
X142391000Y-96714000D01*
X142392000Y-96717000D01*
X142392000Y-96719000D01*
X142393000Y-96722000D01*
X142393000Y-96724000D01*
X142394000Y-96727000D01*
X142394000Y-96729000D01*
X142394000Y-96732000D01*
X142394000Y-96882000D01*
X142394000Y-96885000D01*
X142394000Y-96887000D01*
X142393000Y-96890000D01*
X142393000Y-96892000D01*
X142392000Y-96895000D01*
X142392000Y-96897000D01*
X142391000Y-96900000D01*
X142390000Y-96902000D01*
X142389000Y-96905000D01*
X142387000Y-96907000D01*
X142386000Y-96909000D01*
X142384000Y-96911000D01*
X142383000Y-96913000D01*
X142381000Y-96915000D01*
X142379000Y-96917000D01*
X142377000Y-96919000D01*
X142375000Y-96921000D01*
X142373000Y-96922000D01*
X142371000Y-96924000D01*
X142369000Y-96925000D01*
X142367000Y-96927000D01*
X142364000Y-96928000D01*
X142362000Y-96929000D01*
X142359000Y-96930000D01*
X142357000Y-96930000D01*
X142354000Y-96931000D01*
X142352000Y-96931000D01*
X142349000Y-96932000D01*
X142347000Y-96932000D01*
X142344000Y-96932000D01*
X141844000Y-96932000D01*
X141841000Y-96932000D01*
X141839000Y-96932000D01*
X141836000Y-96931000D01*
X141834000Y-96931000D01*
X141831000Y-96930000D01*
X141829000Y-96930000D01*
X141826000Y-96929000D01*
X141824000Y-96928000D01*
X141821000Y-96927000D01*
X141819000Y-96925000D01*
X141817000Y-96924000D01*
X141815000Y-96922000D01*
X141813000Y-96921000D01*
X141811000Y-96919000D01*
X141809000Y-96917000D01*
X141807000Y-96915000D01*
X141805000Y-96913000D01*
X141804000Y-96911000D01*
X141802000Y-96909000D01*
X141801000Y-96907000D01*
X141799000Y-96905000D01*
X141798000Y-96902000D01*
X141797000Y-96900000D01*
X141796000Y-96897000D01*
X141796000Y-96895000D01*
X141795000Y-96892000D01*
X141795000Y-96890000D01*
X141794000Y-96887000D01*
X141794000Y-96885000D01*
X141794000Y-96882000D01*
X141794000Y-96732000D01*
X141794000Y-96729000D01*
X141794000Y-96727000D01*
X141795000Y-96724000D01*
X141795000Y-96722000D01*
X141796000Y-96719000D01*
X141796000Y-96717000D01*
X141797000Y-96714000D01*
X141798000Y-96712000D01*
X141799000Y-96709000D01*
X141801000Y-96707000D01*
X141802000Y-96705000D01*
X141804000Y-96703000D01*
X141805000Y-96701000D01*
X141807000Y-96699000D01*
X141809000Y-96697000D01*
X141811000Y-96695000D01*
X141813000Y-96693000D01*
X141815000Y-96692000D01*
X141817000Y-96690000D01*
X141819000Y-96689000D01*
X141821000Y-96687000D01*
X141824000Y-96686000D01*
X141826000Y-96685000D01*
X141829000Y-96684000D01*
X141831000Y-96684000D01*
X141834000Y-96683000D01*
X141836000Y-96683000D01*
X141839000Y-96682000D01*
X141841000Y-96682000D01*
X141844000Y-96682000D01*
X142344000Y-96682000D01*
X142347000Y-96682000D01*
X142349000Y-96682000D01*
X142352000Y-96683000D01*
G36*
X142352000Y-96683000D02*
G01*
X142354000Y-96683000D01*
X142357000Y-96684000D01*
X142359000Y-96684000D01*
X142362000Y-96685000D01*
X142364000Y-96686000D01*
X142367000Y-96687000D01*
X142369000Y-96689000D01*
X142371000Y-96690000D01*
X142373000Y-96692000D01*
X142375000Y-96693000D01*
X142377000Y-96695000D01*
X142379000Y-96697000D01*
X142381000Y-96699000D01*
X142383000Y-96701000D01*
X142384000Y-96703000D01*
X142386000Y-96705000D01*
X142387000Y-96707000D01*
X142389000Y-96709000D01*
X142390000Y-96712000D01*
X142391000Y-96714000D01*
X142392000Y-96717000D01*
X142392000Y-96719000D01*
X142393000Y-96722000D01*
X142393000Y-96724000D01*
X142394000Y-96727000D01*
X142394000Y-96729000D01*
X142394000Y-96732000D01*
X142394000Y-96882000D01*
X142394000Y-96885000D01*
X142394000Y-96887000D01*
X142393000Y-96890000D01*
X142393000Y-96892000D01*
X142392000Y-96895000D01*
X142392000Y-96897000D01*
X142391000Y-96900000D01*
X142390000Y-96902000D01*
X142389000Y-96905000D01*
X142387000Y-96907000D01*
X142386000Y-96909000D01*
X142384000Y-96911000D01*
X142383000Y-96913000D01*
X142381000Y-96915000D01*
X142379000Y-96917000D01*
X142377000Y-96919000D01*
X142375000Y-96921000D01*
X142373000Y-96922000D01*
X142371000Y-96924000D01*
X142369000Y-96925000D01*
X142367000Y-96927000D01*
X142364000Y-96928000D01*
X142362000Y-96929000D01*
X142359000Y-96930000D01*
X142357000Y-96930000D01*
X142354000Y-96931000D01*
X142352000Y-96931000D01*
X142349000Y-96932000D01*
X142347000Y-96932000D01*
X142344000Y-96932000D01*
X141844000Y-96932000D01*
X141841000Y-96932000D01*
X141839000Y-96932000D01*
X141836000Y-96931000D01*
X141834000Y-96931000D01*
X141831000Y-96930000D01*
X141829000Y-96930000D01*
X141826000Y-96929000D01*
X141824000Y-96928000D01*
X141821000Y-96927000D01*
X141819000Y-96925000D01*
X141817000Y-96924000D01*
X141815000Y-96922000D01*
X141813000Y-96921000D01*
X141811000Y-96919000D01*
X141809000Y-96917000D01*
X141807000Y-96915000D01*
X141805000Y-96913000D01*
X141804000Y-96911000D01*
X141802000Y-96909000D01*
X141801000Y-96907000D01*
X141799000Y-96905000D01*
X141798000Y-96902000D01*
X141797000Y-96900000D01*
X141796000Y-96897000D01*
X141796000Y-96895000D01*
X141795000Y-96892000D01*
X141795000Y-96890000D01*
X141794000Y-96887000D01*
X141794000Y-96885000D01*
X141794000Y-96882000D01*
X141794000Y-96732000D01*
X141794000Y-96729000D01*
X141794000Y-96727000D01*
X141795000Y-96724000D01*
X141795000Y-96722000D01*
X141796000Y-96719000D01*
X141796000Y-96717000D01*
X141797000Y-96714000D01*
X141798000Y-96712000D01*
X141799000Y-96709000D01*
X141801000Y-96707000D01*
X141802000Y-96705000D01*
X141804000Y-96703000D01*
X141805000Y-96701000D01*
X141807000Y-96699000D01*
X141809000Y-96697000D01*
X141811000Y-96695000D01*
X141813000Y-96693000D01*
X141815000Y-96692000D01*
X141817000Y-96690000D01*
X141819000Y-96689000D01*
X141821000Y-96687000D01*
X141824000Y-96686000D01*
X141826000Y-96685000D01*
X141829000Y-96684000D01*
X141831000Y-96684000D01*
X141834000Y-96683000D01*
X141836000Y-96683000D01*
X141839000Y-96682000D01*
X141841000Y-96682000D01*
X141844000Y-96682000D01*
X142344000Y-96682000D01*
X142347000Y-96682000D01*
X142349000Y-96682000D01*
X142352000Y-96683000D01*
G37*
X142327000Y-95108000D02*
X142329000Y-95108000D01*
X142332000Y-95109000D01*
X142334000Y-95109000D01*
X142337000Y-95110000D01*
X142339000Y-95111000D01*
X142342000Y-95112000D01*
X142344000Y-95114000D01*
X142346000Y-95115000D01*
X142348000Y-95117000D01*
X142350000Y-95118000D01*
X142352000Y-95120000D01*
X142354000Y-95122000D01*
X142356000Y-95124000D01*
X142358000Y-95126000D01*
X142359000Y-95128000D01*
X142361000Y-95130000D01*
X142362000Y-95132000D01*
X142364000Y-95134000D01*
X142365000Y-95137000D01*
X142366000Y-95139000D01*
X142367000Y-95142000D01*
X142367000Y-95144000D01*
X142368000Y-95147000D01*
X142368000Y-95149000D01*
X142369000Y-95152000D01*
X142369000Y-95154000D01*
X142369000Y-95157000D01*
X142369000Y-95657000D01*
X142369000Y-95660000D01*
X142369000Y-95662000D01*
X142368000Y-95665000D01*
X142368000Y-95667000D01*
X142367000Y-95670000D01*
X142367000Y-95672000D01*
X142366000Y-95675000D01*
X142365000Y-95677000D01*
X142364000Y-95680000D01*
X142362000Y-95682000D01*
X142361000Y-95684000D01*
X142359000Y-95686000D01*
X142358000Y-95688000D01*
X142356000Y-95690000D01*
X142354000Y-95692000D01*
X142352000Y-95694000D01*
X142350000Y-95696000D01*
X142348000Y-95697000D01*
X142346000Y-95699000D01*
X142344000Y-95700000D01*
X142342000Y-95702000D01*
X142339000Y-95703000D01*
X142337000Y-95704000D01*
X142334000Y-95705000D01*
X142332000Y-95705000D01*
X142329000Y-95706000D01*
X142327000Y-95706000D01*
X142324000Y-95707000D01*
X142322000Y-95707000D01*
X142319000Y-95707000D01*
X142169000Y-95707000D01*
X142166000Y-95707000D01*
X142164000Y-95707000D01*
X142161000Y-95706000D01*
X142159000Y-95706000D01*
X142156000Y-95705000D01*
X142154000Y-95705000D01*
X142151000Y-95704000D01*
X142149000Y-95703000D01*
X142146000Y-95702000D01*
X142144000Y-95700000D01*
X142142000Y-95699000D01*
X142140000Y-95697000D01*
X142138000Y-95696000D01*
X142136000Y-95694000D01*
X142134000Y-95692000D01*
X142132000Y-95690000D01*
X142130000Y-95688000D01*
X142129000Y-95686000D01*
X142127000Y-95684000D01*
X142126000Y-95682000D01*
X142124000Y-95680000D01*
X142123000Y-95677000D01*
X142122000Y-95675000D01*
X142121000Y-95672000D01*
X142121000Y-95670000D01*
X142120000Y-95667000D01*
X142120000Y-95665000D01*
X142119000Y-95662000D01*
X142119000Y-95660000D01*
X142119000Y-95657000D01*
X142119000Y-95157000D01*
X142119000Y-95154000D01*
X142119000Y-95152000D01*
X142120000Y-95149000D01*
X142120000Y-95147000D01*
X142121000Y-95144000D01*
X142121000Y-95142000D01*
X142122000Y-95139000D01*
X142123000Y-95137000D01*
X142124000Y-95134000D01*
X142126000Y-95132000D01*
X142127000Y-95130000D01*
X142129000Y-95128000D01*
X142130000Y-95126000D01*
X142132000Y-95124000D01*
X142134000Y-95122000D01*
X142136000Y-95120000D01*
X142138000Y-95118000D01*
X142140000Y-95117000D01*
X142142000Y-95115000D01*
X142144000Y-95114000D01*
X142146000Y-95112000D01*
X142149000Y-95111000D01*
X142151000Y-95110000D01*
X142154000Y-95109000D01*
X142156000Y-95109000D01*
X142159000Y-95108000D01*
X142161000Y-95108000D01*
X142164000Y-95107000D01*
X142166000Y-95107000D01*
X142169000Y-95107000D01*
X142319000Y-95107000D01*
X142322000Y-95107000D01*
X142324000Y-95107000D01*
X142327000Y-95108000D01*
G36*
X142327000Y-95108000D02*
G01*
X142329000Y-95108000D01*
X142332000Y-95109000D01*
X142334000Y-95109000D01*
X142337000Y-95110000D01*
X142339000Y-95111000D01*
X142342000Y-95112000D01*
X142344000Y-95114000D01*
X142346000Y-95115000D01*
X142348000Y-95117000D01*
X142350000Y-95118000D01*
X142352000Y-95120000D01*
X142354000Y-95122000D01*
X142356000Y-95124000D01*
X142358000Y-95126000D01*
X142359000Y-95128000D01*
X142361000Y-95130000D01*
X142362000Y-95132000D01*
X142364000Y-95134000D01*
X142365000Y-95137000D01*
X142366000Y-95139000D01*
X142367000Y-95142000D01*
X142367000Y-95144000D01*
X142368000Y-95147000D01*
X142368000Y-95149000D01*
X142369000Y-95152000D01*
X142369000Y-95154000D01*
X142369000Y-95157000D01*
X142369000Y-95657000D01*
X142369000Y-95660000D01*
X142369000Y-95662000D01*
X142368000Y-95665000D01*
X142368000Y-95667000D01*
X142367000Y-95670000D01*
X142367000Y-95672000D01*
X142366000Y-95675000D01*
X142365000Y-95677000D01*
X142364000Y-95680000D01*
X142362000Y-95682000D01*
X142361000Y-95684000D01*
X142359000Y-95686000D01*
X142358000Y-95688000D01*
X142356000Y-95690000D01*
X142354000Y-95692000D01*
X142352000Y-95694000D01*
X142350000Y-95696000D01*
X142348000Y-95697000D01*
X142346000Y-95699000D01*
X142344000Y-95700000D01*
X142342000Y-95702000D01*
X142339000Y-95703000D01*
X142337000Y-95704000D01*
X142334000Y-95705000D01*
X142332000Y-95705000D01*
X142329000Y-95706000D01*
X142327000Y-95706000D01*
X142324000Y-95707000D01*
X142322000Y-95707000D01*
X142319000Y-95707000D01*
X142169000Y-95707000D01*
X142166000Y-95707000D01*
X142164000Y-95707000D01*
X142161000Y-95706000D01*
X142159000Y-95706000D01*
X142156000Y-95705000D01*
X142154000Y-95705000D01*
X142151000Y-95704000D01*
X142149000Y-95703000D01*
X142146000Y-95702000D01*
X142144000Y-95700000D01*
X142142000Y-95699000D01*
X142140000Y-95697000D01*
X142138000Y-95696000D01*
X142136000Y-95694000D01*
X142134000Y-95692000D01*
X142132000Y-95690000D01*
X142130000Y-95688000D01*
X142129000Y-95686000D01*
X142127000Y-95684000D01*
X142126000Y-95682000D01*
X142124000Y-95680000D01*
X142123000Y-95677000D01*
X142122000Y-95675000D01*
X142121000Y-95672000D01*
X142121000Y-95670000D01*
X142120000Y-95667000D01*
X142120000Y-95665000D01*
X142119000Y-95662000D01*
X142119000Y-95660000D01*
X142119000Y-95657000D01*
X142119000Y-95157000D01*
X142119000Y-95154000D01*
X142119000Y-95152000D01*
X142120000Y-95149000D01*
X142120000Y-95147000D01*
X142121000Y-95144000D01*
X142121000Y-95142000D01*
X142122000Y-95139000D01*
X142123000Y-95137000D01*
X142124000Y-95134000D01*
X142126000Y-95132000D01*
X142127000Y-95130000D01*
X142129000Y-95128000D01*
X142130000Y-95126000D01*
X142132000Y-95124000D01*
X142134000Y-95122000D01*
X142136000Y-95120000D01*
X142138000Y-95118000D01*
X142140000Y-95117000D01*
X142142000Y-95115000D01*
X142144000Y-95114000D01*
X142146000Y-95112000D01*
X142149000Y-95111000D01*
X142151000Y-95110000D01*
X142154000Y-95109000D01*
X142156000Y-95109000D01*
X142159000Y-95108000D01*
X142161000Y-95108000D01*
X142164000Y-95107000D01*
X142166000Y-95107000D01*
X142169000Y-95107000D01*
X142319000Y-95107000D01*
X142322000Y-95107000D01*
X142324000Y-95107000D01*
X142327000Y-95108000D01*
G37*
X142327000Y-97908000D02*
X142329000Y-97908000D01*
X142332000Y-97909000D01*
X142334000Y-97909000D01*
X142337000Y-97910000D01*
X142339000Y-97911000D01*
X142342000Y-97912000D01*
X142344000Y-97914000D01*
X142346000Y-97915000D01*
X142348000Y-97917000D01*
X142350000Y-97918000D01*
X142352000Y-97920000D01*
X142354000Y-97922000D01*
X142356000Y-97924000D01*
X142358000Y-97926000D01*
X142359000Y-97928000D01*
X142361000Y-97930000D01*
X142362000Y-97932000D01*
X142364000Y-97934000D01*
X142365000Y-97937000D01*
X142366000Y-97939000D01*
X142367000Y-97942000D01*
X142367000Y-97944000D01*
X142368000Y-97947000D01*
X142368000Y-97949000D01*
X142369000Y-97952000D01*
X142369000Y-97954000D01*
X142369000Y-97957000D01*
X142369000Y-98457000D01*
X142369000Y-98460000D01*
X142369000Y-98462000D01*
X142368000Y-98465000D01*
X142368000Y-98467000D01*
X142367000Y-98470000D01*
X142367000Y-98472000D01*
X142366000Y-98475000D01*
X142365000Y-98477000D01*
X142364000Y-98480000D01*
X142362000Y-98482000D01*
X142361000Y-98484000D01*
X142359000Y-98486000D01*
X142358000Y-98488000D01*
X142356000Y-98490000D01*
X142354000Y-98492000D01*
X142352000Y-98494000D01*
X142350000Y-98496000D01*
X142348000Y-98497000D01*
X142346000Y-98499000D01*
X142344000Y-98500000D01*
X142342000Y-98502000D01*
X142339000Y-98503000D01*
X142337000Y-98504000D01*
X142334000Y-98505000D01*
X142332000Y-98505000D01*
X142329000Y-98506000D01*
X142327000Y-98506000D01*
X142324000Y-98507000D01*
X142322000Y-98507000D01*
X142319000Y-98507000D01*
X142169000Y-98507000D01*
X142166000Y-98507000D01*
X142164000Y-98507000D01*
X142161000Y-98506000D01*
X142159000Y-98506000D01*
X142156000Y-98505000D01*
X142154000Y-98505000D01*
X142151000Y-98504000D01*
X142149000Y-98503000D01*
X142146000Y-98502000D01*
X142144000Y-98500000D01*
X142142000Y-98499000D01*
X142140000Y-98497000D01*
X142138000Y-98496000D01*
X142136000Y-98494000D01*
X142134000Y-98492000D01*
X142132000Y-98490000D01*
X142130000Y-98488000D01*
X142129000Y-98486000D01*
X142127000Y-98484000D01*
X142126000Y-98482000D01*
X142124000Y-98480000D01*
X142123000Y-98477000D01*
X142122000Y-98475000D01*
X142121000Y-98472000D01*
X142121000Y-98470000D01*
X142120000Y-98467000D01*
X142120000Y-98465000D01*
X142119000Y-98462000D01*
X142119000Y-98460000D01*
X142119000Y-98457000D01*
X142119000Y-97957000D01*
X142119000Y-97954000D01*
X142119000Y-97952000D01*
X142120000Y-97949000D01*
X142120000Y-97947000D01*
X142121000Y-97944000D01*
X142121000Y-97942000D01*
X142122000Y-97939000D01*
X142123000Y-97937000D01*
X142124000Y-97934000D01*
X142126000Y-97932000D01*
X142127000Y-97930000D01*
X142129000Y-97928000D01*
X142130000Y-97926000D01*
X142132000Y-97924000D01*
X142134000Y-97922000D01*
X142136000Y-97920000D01*
X142138000Y-97918000D01*
X142140000Y-97917000D01*
X142142000Y-97915000D01*
X142144000Y-97914000D01*
X142146000Y-97912000D01*
X142149000Y-97911000D01*
X142151000Y-97910000D01*
X142154000Y-97909000D01*
X142156000Y-97909000D01*
X142159000Y-97908000D01*
X142161000Y-97908000D01*
X142164000Y-97907000D01*
X142166000Y-97907000D01*
X142169000Y-97907000D01*
X142319000Y-97907000D01*
X142322000Y-97907000D01*
X142324000Y-97907000D01*
X142327000Y-97908000D01*
G36*
X142327000Y-97908000D02*
G01*
X142329000Y-97908000D01*
X142332000Y-97909000D01*
X142334000Y-97909000D01*
X142337000Y-97910000D01*
X142339000Y-97911000D01*
X142342000Y-97912000D01*
X142344000Y-97914000D01*
X142346000Y-97915000D01*
X142348000Y-97917000D01*
X142350000Y-97918000D01*
X142352000Y-97920000D01*
X142354000Y-97922000D01*
X142356000Y-97924000D01*
X142358000Y-97926000D01*
X142359000Y-97928000D01*
X142361000Y-97930000D01*
X142362000Y-97932000D01*
X142364000Y-97934000D01*
X142365000Y-97937000D01*
X142366000Y-97939000D01*
X142367000Y-97942000D01*
X142367000Y-97944000D01*
X142368000Y-97947000D01*
X142368000Y-97949000D01*
X142369000Y-97952000D01*
X142369000Y-97954000D01*
X142369000Y-97957000D01*
X142369000Y-98457000D01*
X142369000Y-98460000D01*
X142369000Y-98462000D01*
X142368000Y-98465000D01*
X142368000Y-98467000D01*
X142367000Y-98470000D01*
X142367000Y-98472000D01*
X142366000Y-98475000D01*
X142365000Y-98477000D01*
X142364000Y-98480000D01*
X142362000Y-98482000D01*
X142361000Y-98484000D01*
X142359000Y-98486000D01*
X142358000Y-98488000D01*
X142356000Y-98490000D01*
X142354000Y-98492000D01*
X142352000Y-98494000D01*
X142350000Y-98496000D01*
X142348000Y-98497000D01*
X142346000Y-98499000D01*
X142344000Y-98500000D01*
X142342000Y-98502000D01*
X142339000Y-98503000D01*
X142337000Y-98504000D01*
X142334000Y-98505000D01*
X142332000Y-98505000D01*
X142329000Y-98506000D01*
X142327000Y-98506000D01*
X142324000Y-98507000D01*
X142322000Y-98507000D01*
X142319000Y-98507000D01*
X142169000Y-98507000D01*
X142166000Y-98507000D01*
X142164000Y-98507000D01*
X142161000Y-98506000D01*
X142159000Y-98506000D01*
X142156000Y-98505000D01*
X142154000Y-98505000D01*
X142151000Y-98504000D01*
X142149000Y-98503000D01*
X142146000Y-98502000D01*
X142144000Y-98500000D01*
X142142000Y-98499000D01*
X142140000Y-98497000D01*
X142138000Y-98496000D01*
X142136000Y-98494000D01*
X142134000Y-98492000D01*
X142132000Y-98490000D01*
X142130000Y-98488000D01*
X142129000Y-98486000D01*
X142127000Y-98484000D01*
X142126000Y-98482000D01*
X142124000Y-98480000D01*
X142123000Y-98477000D01*
X142122000Y-98475000D01*
X142121000Y-98472000D01*
X142121000Y-98470000D01*
X142120000Y-98467000D01*
X142120000Y-98465000D01*
X142119000Y-98462000D01*
X142119000Y-98460000D01*
X142119000Y-98457000D01*
X142119000Y-97957000D01*
X142119000Y-97954000D01*
X142119000Y-97952000D01*
X142120000Y-97949000D01*
X142120000Y-97947000D01*
X142121000Y-97944000D01*
X142121000Y-97942000D01*
X142122000Y-97939000D01*
X142123000Y-97937000D01*
X142124000Y-97934000D01*
X142126000Y-97932000D01*
X142127000Y-97930000D01*
X142129000Y-97928000D01*
X142130000Y-97926000D01*
X142132000Y-97924000D01*
X142134000Y-97922000D01*
X142136000Y-97920000D01*
X142138000Y-97918000D01*
X142140000Y-97917000D01*
X142142000Y-97915000D01*
X142144000Y-97914000D01*
X142146000Y-97912000D01*
X142149000Y-97911000D01*
X142151000Y-97910000D01*
X142154000Y-97909000D01*
X142156000Y-97909000D01*
X142159000Y-97908000D01*
X142161000Y-97908000D01*
X142164000Y-97907000D01*
X142166000Y-97907000D01*
X142169000Y-97907000D01*
X142319000Y-97907000D01*
X142322000Y-97907000D01*
X142324000Y-97907000D01*
X142327000Y-97908000D01*
G37*
X143152000Y-96183000D02*
X143154000Y-96183000D01*
X143157000Y-96184000D01*
X143159000Y-96184000D01*
X143162000Y-96185000D01*
X143164000Y-96186000D01*
X143167000Y-96187000D01*
X143169000Y-96189000D01*
X143171000Y-96190000D01*
X143173000Y-96192000D01*
X143175000Y-96193000D01*
X143177000Y-96195000D01*
X143179000Y-96197000D01*
X143181000Y-96199000D01*
X143183000Y-96201000D01*
X143184000Y-96203000D01*
X143186000Y-96205000D01*
X143187000Y-96207000D01*
X143189000Y-96209000D01*
X143190000Y-96212000D01*
X143191000Y-96214000D01*
X143192000Y-96217000D01*
X143192000Y-96219000D01*
X143193000Y-96222000D01*
X143193000Y-96224000D01*
X143194000Y-96227000D01*
X143194000Y-96229000D01*
X143194000Y-96232000D01*
X143194000Y-96382000D01*
X143194000Y-96385000D01*
X143194000Y-96387000D01*
X143193000Y-96390000D01*
X143193000Y-96392000D01*
X143192000Y-96395000D01*
X143192000Y-96397000D01*
X143191000Y-96400000D01*
X143190000Y-96402000D01*
X143189000Y-96405000D01*
X143187000Y-96407000D01*
X143186000Y-96409000D01*
X143184000Y-96411000D01*
X143183000Y-96413000D01*
X143181000Y-96415000D01*
X143179000Y-96417000D01*
X143177000Y-96419000D01*
X143175000Y-96421000D01*
X143173000Y-96422000D01*
X143171000Y-96424000D01*
X143169000Y-96425000D01*
X143167000Y-96427000D01*
X143164000Y-96428000D01*
X143162000Y-96429000D01*
X143159000Y-96430000D01*
X143157000Y-96430000D01*
X143154000Y-96431000D01*
X143152000Y-96431000D01*
X143149000Y-96432000D01*
X143147000Y-96432000D01*
X143144000Y-96432000D01*
X142644000Y-96432000D01*
X142641000Y-96432000D01*
X142639000Y-96432000D01*
X142636000Y-96431000D01*
X142634000Y-96431000D01*
X142631000Y-96430000D01*
X142629000Y-96430000D01*
X142626000Y-96429000D01*
X142624000Y-96428000D01*
X142621000Y-96427000D01*
X142619000Y-96425000D01*
X142617000Y-96424000D01*
X142615000Y-96422000D01*
X142613000Y-96421000D01*
X142611000Y-96419000D01*
X142609000Y-96417000D01*
X142607000Y-96415000D01*
X142605000Y-96413000D01*
X142604000Y-96411000D01*
X142602000Y-96409000D01*
X142601000Y-96407000D01*
X142599000Y-96405000D01*
X142598000Y-96402000D01*
X142597000Y-96400000D01*
X142596000Y-96397000D01*
X142596000Y-96395000D01*
X142595000Y-96392000D01*
X142595000Y-96390000D01*
X142594000Y-96387000D01*
X142594000Y-96385000D01*
X142594000Y-96382000D01*
X142594000Y-96232000D01*
X142594000Y-96229000D01*
X142594000Y-96227000D01*
X142595000Y-96224000D01*
X142595000Y-96222000D01*
X142596000Y-96219000D01*
X142596000Y-96217000D01*
X142597000Y-96214000D01*
X142598000Y-96212000D01*
X142599000Y-96209000D01*
X142601000Y-96207000D01*
X142602000Y-96205000D01*
X142604000Y-96203000D01*
X142605000Y-96201000D01*
X142607000Y-96199000D01*
X142609000Y-96197000D01*
X142611000Y-96195000D01*
X142613000Y-96193000D01*
X142615000Y-96192000D01*
X142617000Y-96190000D01*
X142619000Y-96189000D01*
X142621000Y-96187000D01*
X142624000Y-96186000D01*
X142626000Y-96185000D01*
X142629000Y-96184000D01*
X142631000Y-96184000D01*
X142634000Y-96183000D01*
X142636000Y-96183000D01*
X142639000Y-96182000D01*
X142641000Y-96182000D01*
X142644000Y-96182000D01*
X143144000Y-96182000D01*
X143147000Y-96182000D01*
X143149000Y-96182000D01*
X143152000Y-96183000D01*
G36*
X143152000Y-96183000D02*
G01*
X143154000Y-96183000D01*
X143157000Y-96184000D01*
X143159000Y-96184000D01*
X143162000Y-96185000D01*
X143164000Y-96186000D01*
X143167000Y-96187000D01*
X143169000Y-96189000D01*
X143171000Y-96190000D01*
X143173000Y-96192000D01*
X143175000Y-96193000D01*
X143177000Y-96195000D01*
X143179000Y-96197000D01*
X143181000Y-96199000D01*
X143183000Y-96201000D01*
X143184000Y-96203000D01*
X143186000Y-96205000D01*
X143187000Y-96207000D01*
X143189000Y-96209000D01*
X143190000Y-96212000D01*
X143191000Y-96214000D01*
X143192000Y-96217000D01*
X143192000Y-96219000D01*
X143193000Y-96222000D01*
X143193000Y-96224000D01*
X143194000Y-96227000D01*
X143194000Y-96229000D01*
X143194000Y-96232000D01*
X143194000Y-96382000D01*
X143194000Y-96385000D01*
X143194000Y-96387000D01*
X143193000Y-96390000D01*
X143193000Y-96392000D01*
X143192000Y-96395000D01*
X143192000Y-96397000D01*
X143191000Y-96400000D01*
X143190000Y-96402000D01*
X143189000Y-96405000D01*
X143187000Y-96407000D01*
X143186000Y-96409000D01*
X143184000Y-96411000D01*
X143183000Y-96413000D01*
X143181000Y-96415000D01*
X143179000Y-96417000D01*
X143177000Y-96419000D01*
X143175000Y-96421000D01*
X143173000Y-96422000D01*
X143171000Y-96424000D01*
X143169000Y-96425000D01*
X143167000Y-96427000D01*
X143164000Y-96428000D01*
X143162000Y-96429000D01*
X143159000Y-96430000D01*
X143157000Y-96430000D01*
X143154000Y-96431000D01*
X143152000Y-96431000D01*
X143149000Y-96432000D01*
X143147000Y-96432000D01*
X143144000Y-96432000D01*
X142644000Y-96432000D01*
X142641000Y-96432000D01*
X142639000Y-96432000D01*
X142636000Y-96431000D01*
X142634000Y-96431000D01*
X142631000Y-96430000D01*
X142629000Y-96430000D01*
X142626000Y-96429000D01*
X142624000Y-96428000D01*
X142621000Y-96427000D01*
X142619000Y-96425000D01*
X142617000Y-96424000D01*
X142615000Y-96422000D01*
X142613000Y-96421000D01*
X142611000Y-96419000D01*
X142609000Y-96417000D01*
X142607000Y-96415000D01*
X142605000Y-96413000D01*
X142604000Y-96411000D01*
X142602000Y-96409000D01*
X142601000Y-96407000D01*
X142599000Y-96405000D01*
X142598000Y-96402000D01*
X142597000Y-96400000D01*
X142596000Y-96397000D01*
X142596000Y-96395000D01*
X142595000Y-96392000D01*
X142595000Y-96390000D01*
X142594000Y-96387000D01*
X142594000Y-96385000D01*
X142594000Y-96382000D01*
X142594000Y-96232000D01*
X142594000Y-96229000D01*
X142594000Y-96227000D01*
X142595000Y-96224000D01*
X142595000Y-96222000D01*
X142596000Y-96219000D01*
X142596000Y-96217000D01*
X142597000Y-96214000D01*
X142598000Y-96212000D01*
X142599000Y-96209000D01*
X142601000Y-96207000D01*
X142602000Y-96205000D01*
X142604000Y-96203000D01*
X142605000Y-96201000D01*
X142607000Y-96199000D01*
X142609000Y-96197000D01*
X142611000Y-96195000D01*
X142613000Y-96193000D01*
X142615000Y-96192000D01*
X142617000Y-96190000D01*
X142619000Y-96189000D01*
X142621000Y-96187000D01*
X142624000Y-96186000D01*
X142626000Y-96185000D01*
X142629000Y-96184000D01*
X142631000Y-96184000D01*
X142634000Y-96183000D01*
X142636000Y-96183000D01*
X142639000Y-96182000D01*
X142641000Y-96182000D01*
X142644000Y-96182000D01*
X143144000Y-96182000D01*
X143147000Y-96182000D01*
X143149000Y-96182000D01*
X143152000Y-96183000D01*
G37*
X143152000Y-96683000D02*
X143154000Y-96683000D01*
X143157000Y-96684000D01*
X143159000Y-96684000D01*
X143162000Y-96685000D01*
X143164000Y-96686000D01*
X143167000Y-96687000D01*
X143169000Y-96689000D01*
X143171000Y-96690000D01*
X143173000Y-96692000D01*
X143175000Y-96693000D01*
X143177000Y-96695000D01*
X143179000Y-96697000D01*
X143181000Y-96699000D01*
X143183000Y-96701000D01*
X143184000Y-96703000D01*
X143186000Y-96705000D01*
X143187000Y-96707000D01*
X143189000Y-96709000D01*
X143190000Y-96712000D01*
X143191000Y-96714000D01*
X143192000Y-96717000D01*
X143192000Y-96719000D01*
X143193000Y-96722000D01*
X143193000Y-96724000D01*
X143194000Y-96727000D01*
X143194000Y-96729000D01*
X143194000Y-96732000D01*
X143194000Y-96882000D01*
X143194000Y-96885000D01*
X143194000Y-96887000D01*
X143193000Y-96890000D01*
X143193000Y-96892000D01*
X143192000Y-96895000D01*
X143192000Y-96897000D01*
X143191000Y-96900000D01*
X143190000Y-96902000D01*
X143189000Y-96905000D01*
X143187000Y-96907000D01*
X143186000Y-96909000D01*
X143184000Y-96911000D01*
X143183000Y-96913000D01*
X143181000Y-96915000D01*
X143179000Y-96917000D01*
X143177000Y-96919000D01*
X143175000Y-96921000D01*
X143173000Y-96922000D01*
X143171000Y-96924000D01*
X143169000Y-96925000D01*
X143167000Y-96927000D01*
X143164000Y-96928000D01*
X143162000Y-96929000D01*
X143159000Y-96930000D01*
X143157000Y-96930000D01*
X143154000Y-96931000D01*
X143152000Y-96931000D01*
X143149000Y-96932000D01*
X143147000Y-96932000D01*
X143144000Y-96932000D01*
X142644000Y-96932000D01*
X142641000Y-96932000D01*
X142639000Y-96932000D01*
X142636000Y-96931000D01*
X142634000Y-96931000D01*
X142631000Y-96930000D01*
X142629000Y-96930000D01*
X142626000Y-96929000D01*
X142624000Y-96928000D01*
X142621000Y-96927000D01*
X142619000Y-96925000D01*
X142617000Y-96924000D01*
X142615000Y-96922000D01*
X142613000Y-96921000D01*
X142611000Y-96919000D01*
X142609000Y-96917000D01*
X142607000Y-96915000D01*
X142605000Y-96913000D01*
X142604000Y-96911000D01*
X142602000Y-96909000D01*
X142601000Y-96907000D01*
X142599000Y-96905000D01*
X142598000Y-96902000D01*
X142597000Y-96900000D01*
X142596000Y-96897000D01*
X142596000Y-96895000D01*
X142595000Y-96892000D01*
X142595000Y-96890000D01*
X142594000Y-96887000D01*
X142594000Y-96885000D01*
X142594000Y-96882000D01*
X142594000Y-96732000D01*
X142594000Y-96729000D01*
X142594000Y-96727000D01*
X142595000Y-96724000D01*
X142595000Y-96722000D01*
X142596000Y-96719000D01*
X142596000Y-96717000D01*
X142597000Y-96714000D01*
X142598000Y-96712000D01*
X142599000Y-96709000D01*
X142601000Y-96707000D01*
X142602000Y-96705000D01*
X142604000Y-96703000D01*
X142605000Y-96701000D01*
X142607000Y-96699000D01*
X142609000Y-96697000D01*
X142611000Y-96695000D01*
X142613000Y-96693000D01*
X142615000Y-96692000D01*
X142617000Y-96690000D01*
X142619000Y-96689000D01*
X142621000Y-96687000D01*
X142624000Y-96686000D01*
X142626000Y-96685000D01*
X142629000Y-96684000D01*
X142631000Y-96684000D01*
X142634000Y-96683000D01*
X142636000Y-96683000D01*
X142639000Y-96682000D01*
X142641000Y-96682000D01*
X142644000Y-96682000D01*
X143144000Y-96682000D01*
X143147000Y-96682000D01*
X143149000Y-96682000D01*
X143152000Y-96683000D01*
G36*
X143152000Y-96683000D02*
G01*
X143154000Y-96683000D01*
X143157000Y-96684000D01*
X143159000Y-96684000D01*
X143162000Y-96685000D01*
X143164000Y-96686000D01*
X143167000Y-96687000D01*
X143169000Y-96689000D01*
X143171000Y-96690000D01*
X143173000Y-96692000D01*
X143175000Y-96693000D01*
X143177000Y-96695000D01*
X143179000Y-96697000D01*
X143181000Y-96699000D01*
X143183000Y-96701000D01*
X143184000Y-96703000D01*
X143186000Y-96705000D01*
X143187000Y-96707000D01*
X143189000Y-96709000D01*
X143190000Y-96712000D01*
X143191000Y-96714000D01*
X143192000Y-96717000D01*
X143192000Y-96719000D01*
X143193000Y-96722000D01*
X143193000Y-96724000D01*
X143194000Y-96727000D01*
X143194000Y-96729000D01*
X143194000Y-96732000D01*
X143194000Y-96882000D01*
X143194000Y-96885000D01*
X143194000Y-96887000D01*
X143193000Y-96890000D01*
X143193000Y-96892000D01*
X143192000Y-96895000D01*
X143192000Y-96897000D01*
X143191000Y-96900000D01*
X143190000Y-96902000D01*
X143189000Y-96905000D01*
X143187000Y-96907000D01*
X143186000Y-96909000D01*
X143184000Y-96911000D01*
X143183000Y-96913000D01*
X143181000Y-96915000D01*
X143179000Y-96917000D01*
X143177000Y-96919000D01*
X143175000Y-96921000D01*
X143173000Y-96922000D01*
X143171000Y-96924000D01*
X143169000Y-96925000D01*
X143167000Y-96927000D01*
X143164000Y-96928000D01*
X143162000Y-96929000D01*
X143159000Y-96930000D01*
X143157000Y-96930000D01*
X143154000Y-96931000D01*
X143152000Y-96931000D01*
X143149000Y-96932000D01*
X143147000Y-96932000D01*
X143144000Y-96932000D01*
X142644000Y-96932000D01*
X142641000Y-96932000D01*
X142639000Y-96932000D01*
X142636000Y-96931000D01*
X142634000Y-96931000D01*
X142631000Y-96930000D01*
X142629000Y-96930000D01*
X142626000Y-96929000D01*
X142624000Y-96928000D01*
X142621000Y-96927000D01*
X142619000Y-96925000D01*
X142617000Y-96924000D01*
X142615000Y-96922000D01*
X142613000Y-96921000D01*
X142611000Y-96919000D01*
X142609000Y-96917000D01*
X142607000Y-96915000D01*
X142605000Y-96913000D01*
X142604000Y-96911000D01*
X142602000Y-96909000D01*
X142601000Y-96907000D01*
X142599000Y-96905000D01*
X142598000Y-96902000D01*
X142597000Y-96900000D01*
X142596000Y-96897000D01*
X142596000Y-96895000D01*
X142595000Y-96892000D01*
X142595000Y-96890000D01*
X142594000Y-96887000D01*
X142594000Y-96885000D01*
X142594000Y-96882000D01*
X142594000Y-96732000D01*
X142594000Y-96729000D01*
X142594000Y-96727000D01*
X142595000Y-96724000D01*
X142595000Y-96722000D01*
X142596000Y-96719000D01*
X142596000Y-96717000D01*
X142597000Y-96714000D01*
X142598000Y-96712000D01*
X142599000Y-96709000D01*
X142601000Y-96707000D01*
X142602000Y-96705000D01*
X142604000Y-96703000D01*
X142605000Y-96701000D01*
X142607000Y-96699000D01*
X142609000Y-96697000D01*
X142611000Y-96695000D01*
X142613000Y-96693000D01*
X142615000Y-96692000D01*
X142617000Y-96690000D01*
X142619000Y-96689000D01*
X142621000Y-96687000D01*
X142624000Y-96686000D01*
X142626000Y-96685000D01*
X142629000Y-96684000D01*
X142631000Y-96684000D01*
X142634000Y-96683000D01*
X142636000Y-96683000D01*
X142639000Y-96682000D01*
X142641000Y-96682000D01*
X142644000Y-96682000D01*
X143144000Y-96682000D01*
X143147000Y-96682000D01*
X143149000Y-96682000D01*
X143152000Y-96683000D01*
G37*
X142827000Y-95108000D02*
X142829000Y-95108000D01*
X142832000Y-95109000D01*
X142834000Y-95109000D01*
X142837000Y-95110000D01*
X142839000Y-95111000D01*
X142842000Y-95112000D01*
X142844000Y-95114000D01*
X142846000Y-95115000D01*
X142848000Y-95117000D01*
X142850000Y-95118000D01*
X142852000Y-95120000D01*
X142854000Y-95122000D01*
X142856000Y-95124000D01*
X142858000Y-95126000D01*
X142859000Y-95128000D01*
X142861000Y-95130000D01*
X142862000Y-95132000D01*
X142864000Y-95134000D01*
X142865000Y-95137000D01*
X142866000Y-95139000D01*
X142867000Y-95142000D01*
X142867000Y-95144000D01*
X142868000Y-95147000D01*
X142868000Y-95149000D01*
X142869000Y-95152000D01*
X142869000Y-95154000D01*
X142869000Y-95157000D01*
X142869000Y-95657000D01*
X142869000Y-95660000D01*
X142869000Y-95662000D01*
X142868000Y-95665000D01*
X142868000Y-95667000D01*
X142867000Y-95670000D01*
X142867000Y-95672000D01*
X142866000Y-95675000D01*
X142865000Y-95677000D01*
X142864000Y-95680000D01*
X142862000Y-95682000D01*
X142861000Y-95684000D01*
X142859000Y-95686000D01*
X142858000Y-95688000D01*
X142856000Y-95690000D01*
X142854000Y-95692000D01*
X142852000Y-95694000D01*
X142850000Y-95696000D01*
X142848000Y-95697000D01*
X142846000Y-95699000D01*
X142844000Y-95700000D01*
X142842000Y-95702000D01*
X142839000Y-95703000D01*
X142837000Y-95704000D01*
X142834000Y-95705000D01*
X142832000Y-95705000D01*
X142829000Y-95706000D01*
X142827000Y-95706000D01*
X142824000Y-95707000D01*
X142822000Y-95707000D01*
X142819000Y-95707000D01*
X142669000Y-95707000D01*
X142666000Y-95707000D01*
X142664000Y-95707000D01*
X142661000Y-95706000D01*
X142659000Y-95706000D01*
X142656000Y-95705000D01*
X142654000Y-95705000D01*
X142651000Y-95704000D01*
X142649000Y-95703000D01*
X142646000Y-95702000D01*
X142644000Y-95700000D01*
X142642000Y-95699000D01*
X142640000Y-95697000D01*
X142638000Y-95696000D01*
X142636000Y-95694000D01*
X142634000Y-95692000D01*
X142632000Y-95690000D01*
X142630000Y-95688000D01*
X142629000Y-95686000D01*
X142627000Y-95684000D01*
X142626000Y-95682000D01*
X142624000Y-95680000D01*
X142623000Y-95677000D01*
X142622000Y-95675000D01*
X142621000Y-95672000D01*
X142621000Y-95670000D01*
X142620000Y-95667000D01*
X142620000Y-95665000D01*
X142619000Y-95662000D01*
X142619000Y-95660000D01*
X142619000Y-95657000D01*
X142619000Y-95157000D01*
X142619000Y-95154000D01*
X142619000Y-95152000D01*
X142620000Y-95149000D01*
X142620000Y-95147000D01*
X142621000Y-95144000D01*
X142621000Y-95142000D01*
X142622000Y-95139000D01*
X142623000Y-95137000D01*
X142624000Y-95134000D01*
X142626000Y-95132000D01*
X142627000Y-95130000D01*
X142629000Y-95128000D01*
X142630000Y-95126000D01*
X142632000Y-95124000D01*
X142634000Y-95122000D01*
X142636000Y-95120000D01*
X142638000Y-95118000D01*
X142640000Y-95117000D01*
X142642000Y-95115000D01*
X142644000Y-95114000D01*
X142646000Y-95112000D01*
X142649000Y-95111000D01*
X142651000Y-95110000D01*
X142654000Y-95109000D01*
X142656000Y-95109000D01*
X142659000Y-95108000D01*
X142661000Y-95108000D01*
X142664000Y-95107000D01*
X142666000Y-95107000D01*
X142669000Y-95107000D01*
X142819000Y-95107000D01*
X142822000Y-95107000D01*
X142824000Y-95107000D01*
X142827000Y-95108000D01*
G36*
X142827000Y-95108000D02*
G01*
X142829000Y-95108000D01*
X142832000Y-95109000D01*
X142834000Y-95109000D01*
X142837000Y-95110000D01*
X142839000Y-95111000D01*
X142842000Y-95112000D01*
X142844000Y-95114000D01*
X142846000Y-95115000D01*
X142848000Y-95117000D01*
X142850000Y-95118000D01*
X142852000Y-95120000D01*
X142854000Y-95122000D01*
X142856000Y-95124000D01*
X142858000Y-95126000D01*
X142859000Y-95128000D01*
X142861000Y-95130000D01*
X142862000Y-95132000D01*
X142864000Y-95134000D01*
X142865000Y-95137000D01*
X142866000Y-95139000D01*
X142867000Y-95142000D01*
X142867000Y-95144000D01*
X142868000Y-95147000D01*
X142868000Y-95149000D01*
X142869000Y-95152000D01*
X142869000Y-95154000D01*
X142869000Y-95157000D01*
X142869000Y-95657000D01*
X142869000Y-95660000D01*
X142869000Y-95662000D01*
X142868000Y-95665000D01*
X142868000Y-95667000D01*
X142867000Y-95670000D01*
X142867000Y-95672000D01*
X142866000Y-95675000D01*
X142865000Y-95677000D01*
X142864000Y-95680000D01*
X142862000Y-95682000D01*
X142861000Y-95684000D01*
X142859000Y-95686000D01*
X142858000Y-95688000D01*
X142856000Y-95690000D01*
X142854000Y-95692000D01*
X142852000Y-95694000D01*
X142850000Y-95696000D01*
X142848000Y-95697000D01*
X142846000Y-95699000D01*
X142844000Y-95700000D01*
X142842000Y-95702000D01*
X142839000Y-95703000D01*
X142837000Y-95704000D01*
X142834000Y-95705000D01*
X142832000Y-95705000D01*
X142829000Y-95706000D01*
X142827000Y-95706000D01*
X142824000Y-95707000D01*
X142822000Y-95707000D01*
X142819000Y-95707000D01*
X142669000Y-95707000D01*
X142666000Y-95707000D01*
X142664000Y-95707000D01*
X142661000Y-95706000D01*
X142659000Y-95706000D01*
X142656000Y-95705000D01*
X142654000Y-95705000D01*
X142651000Y-95704000D01*
X142649000Y-95703000D01*
X142646000Y-95702000D01*
X142644000Y-95700000D01*
X142642000Y-95699000D01*
X142640000Y-95697000D01*
X142638000Y-95696000D01*
X142636000Y-95694000D01*
X142634000Y-95692000D01*
X142632000Y-95690000D01*
X142630000Y-95688000D01*
X142629000Y-95686000D01*
X142627000Y-95684000D01*
X142626000Y-95682000D01*
X142624000Y-95680000D01*
X142623000Y-95677000D01*
X142622000Y-95675000D01*
X142621000Y-95672000D01*
X142621000Y-95670000D01*
X142620000Y-95667000D01*
X142620000Y-95665000D01*
X142619000Y-95662000D01*
X142619000Y-95660000D01*
X142619000Y-95657000D01*
X142619000Y-95157000D01*
X142619000Y-95154000D01*
X142619000Y-95152000D01*
X142620000Y-95149000D01*
X142620000Y-95147000D01*
X142621000Y-95144000D01*
X142621000Y-95142000D01*
X142622000Y-95139000D01*
X142623000Y-95137000D01*
X142624000Y-95134000D01*
X142626000Y-95132000D01*
X142627000Y-95130000D01*
X142629000Y-95128000D01*
X142630000Y-95126000D01*
X142632000Y-95124000D01*
X142634000Y-95122000D01*
X142636000Y-95120000D01*
X142638000Y-95118000D01*
X142640000Y-95117000D01*
X142642000Y-95115000D01*
X142644000Y-95114000D01*
X142646000Y-95112000D01*
X142649000Y-95111000D01*
X142651000Y-95110000D01*
X142654000Y-95109000D01*
X142656000Y-95109000D01*
X142659000Y-95108000D01*
X142661000Y-95108000D01*
X142664000Y-95107000D01*
X142666000Y-95107000D01*
X142669000Y-95107000D01*
X142819000Y-95107000D01*
X142822000Y-95107000D01*
X142824000Y-95107000D01*
X142827000Y-95108000D01*
G37*
X142827000Y-97908000D02*
X142829000Y-97908000D01*
X142832000Y-97909000D01*
X142834000Y-97909000D01*
X142837000Y-97910000D01*
X142839000Y-97911000D01*
X142842000Y-97912000D01*
X142844000Y-97914000D01*
X142846000Y-97915000D01*
X142848000Y-97917000D01*
X142850000Y-97918000D01*
X142852000Y-97920000D01*
X142854000Y-97922000D01*
X142856000Y-97924000D01*
X142858000Y-97926000D01*
X142859000Y-97928000D01*
X142861000Y-97930000D01*
X142862000Y-97932000D01*
X142864000Y-97934000D01*
X142865000Y-97937000D01*
X142866000Y-97939000D01*
X142867000Y-97942000D01*
X142867000Y-97944000D01*
X142868000Y-97947000D01*
X142868000Y-97949000D01*
X142869000Y-97952000D01*
X142869000Y-97954000D01*
X142869000Y-97957000D01*
X142869000Y-98457000D01*
X142869000Y-98460000D01*
X142869000Y-98462000D01*
X142868000Y-98465000D01*
X142868000Y-98467000D01*
X142867000Y-98470000D01*
X142867000Y-98472000D01*
X142866000Y-98475000D01*
X142865000Y-98477000D01*
X142864000Y-98480000D01*
X142862000Y-98482000D01*
X142861000Y-98484000D01*
X142859000Y-98486000D01*
X142858000Y-98488000D01*
X142856000Y-98490000D01*
X142854000Y-98492000D01*
X142852000Y-98494000D01*
X142850000Y-98496000D01*
X142848000Y-98497000D01*
X142846000Y-98499000D01*
X142844000Y-98500000D01*
X142842000Y-98502000D01*
X142839000Y-98503000D01*
X142837000Y-98504000D01*
X142834000Y-98505000D01*
X142832000Y-98505000D01*
X142829000Y-98506000D01*
X142827000Y-98506000D01*
X142824000Y-98507000D01*
X142822000Y-98507000D01*
X142819000Y-98507000D01*
X142669000Y-98507000D01*
X142666000Y-98507000D01*
X142664000Y-98507000D01*
X142661000Y-98506000D01*
X142659000Y-98506000D01*
X142656000Y-98505000D01*
X142654000Y-98505000D01*
X142651000Y-98504000D01*
X142649000Y-98503000D01*
X142646000Y-98502000D01*
X142644000Y-98500000D01*
X142642000Y-98499000D01*
X142640000Y-98497000D01*
X142638000Y-98496000D01*
X142636000Y-98494000D01*
X142634000Y-98492000D01*
X142632000Y-98490000D01*
X142630000Y-98488000D01*
X142629000Y-98486000D01*
X142627000Y-98484000D01*
X142626000Y-98482000D01*
X142624000Y-98480000D01*
X142623000Y-98477000D01*
X142622000Y-98475000D01*
X142621000Y-98472000D01*
X142621000Y-98470000D01*
X142620000Y-98467000D01*
X142620000Y-98465000D01*
X142619000Y-98462000D01*
X142619000Y-98460000D01*
X142619000Y-98457000D01*
X142619000Y-97957000D01*
X142619000Y-97954000D01*
X142619000Y-97952000D01*
X142620000Y-97949000D01*
X142620000Y-97947000D01*
X142621000Y-97944000D01*
X142621000Y-97942000D01*
X142622000Y-97939000D01*
X142623000Y-97937000D01*
X142624000Y-97934000D01*
X142626000Y-97932000D01*
X142627000Y-97930000D01*
X142629000Y-97928000D01*
X142630000Y-97926000D01*
X142632000Y-97924000D01*
X142634000Y-97922000D01*
X142636000Y-97920000D01*
X142638000Y-97918000D01*
X142640000Y-97917000D01*
X142642000Y-97915000D01*
X142644000Y-97914000D01*
X142646000Y-97912000D01*
X142649000Y-97911000D01*
X142651000Y-97910000D01*
X142654000Y-97909000D01*
X142656000Y-97909000D01*
X142659000Y-97908000D01*
X142661000Y-97908000D01*
X142664000Y-97907000D01*
X142666000Y-97907000D01*
X142669000Y-97907000D01*
X142819000Y-97907000D01*
X142822000Y-97907000D01*
X142824000Y-97907000D01*
X142827000Y-97908000D01*
G36*
X142827000Y-97908000D02*
G01*
X142829000Y-97908000D01*
X142832000Y-97909000D01*
X142834000Y-97909000D01*
X142837000Y-97910000D01*
X142839000Y-97911000D01*
X142842000Y-97912000D01*
X142844000Y-97914000D01*
X142846000Y-97915000D01*
X142848000Y-97917000D01*
X142850000Y-97918000D01*
X142852000Y-97920000D01*
X142854000Y-97922000D01*
X142856000Y-97924000D01*
X142858000Y-97926000D01*
X142859000Y-97928000D01*
X142861000Y-97930000D01*
X142862000Y-97932000D01*
X142864000Y-97934000D01*
X142865000Y-97937000D01*
X142866000Y-97939000D01*
X142867000Y-97942000D01*
X142867000Y-97944000D01*
X142868000Y-97947000D01*
X142868000Y-97949000D01*
X142869000Y-97952000D01*
X142869000Y-97954000D01*
X142869000Y-97957000D01*
X142869000Y-98457000D01*
X142869000Y-98460000D01*
X142869000Y-98462000D01*
X142868000Y-98465000D01*
X142868000Y-98467000D01*
X142867000Y-98470000D01*
X142867000Y-98472000D01*
X142866000Y-98475000D01*
X142865000Y-98477000D01*
X142864000Y-98480000D01*
X142862000Y-98482000D01*
X142861000Y-98484000D01*
X142859000Y-98486000D01*
X142858000Y-98488000D01*
X142856000Y-98490000D01*
X142854000Y-98492000D01*
X142852000Y-98494000D01*
X142850000Y-98496000D01*
X142848000Y-98497000D01*
X142846000Y-98499000D01*
X142844000Y-98500000D01*
X142842000Y-98502000D01*
X142839000Y-98503000D01*
X142837000Y-98504000D01*
X142834000Y-98505000D01*
X142832000Y-98505000D01*
X142829000Y-98506000D01*
X142827000Y-98506000D01*
X142824000Y-98507000D01*
X142822000Y-98507000D01*
X142819000Y-98507000D01*
X142669000Y-98507000D01*
X142666000Y-98507000D01*
X142664000Y-98507000D01*
X142661000Y-98506000D01*
X142659000Y-98506000D01*
X142656000Y-98505000D01*
X142654000Y-98505000D01*
X142651000Y-98504000D01*
X142649000Y-98503000D01*
X142646000Y-98502000D01*
X142644000Y-98500000D01*
X142642000Y-98499000D01*
X142640000Y-98497000D01*
X142638000Y-98496000D01*
X142636000Y-98494000D01*
X142634000Y-98492000D01*
X142632000Y-98490000D01*
X142630000Y-98488000D01*
X142629000Y-98486000D01*
X142627000Y-98484000D01*
X142626000Y-98482000D01*
X142624000Y-98480000D01*
X142623000Y-98477000D01*
X142622000Y-98475000D01*
X142621000Y-98472000D01*
X142621000Y-98470000D01*
X142620000Y-98467000D01*
X142620000Y-98465000D01*
X142619000Y-98462000D01*
X142619000Y-98460000D01*
X142619000Y-98457000D01*
X142619000Y-97957000D01*
X142619000Y-97954000D01*
X142619000Y-97952000D01*
X142620000Y-97949000D01*
X142620000Y-97947000D01*
X142621000Y-97944000D01*
X142621000Y-97942000D01*
X142622000Y-97939000D01*
X142623000Y-97937000D01*
X142624000Y-97934000D01*
X142626000Y-97932000D01*
X142627000Y-97930000D01*
X142629000Y-97928000D01*
X142630000Y-97926000D01*
X142632000Y-97924000D01*
X142634000Y-97922000D01*
X142636000Y-97920000D01*
X142638000Y-97918000D01*
X142640000Y-97917000D01*
X142642000Y-97915000D01*
X142644000Y-97914000D01*
X142646000Y-97912000D01*
X142649000Y-97911000D01*
X142651000Y-97910000D01*
X142654000Y-97909000D01*
X142656000Y-97909000D01*
X142659000Y-97908000D01*
X142661000Y-97908000D01*
X142664000Y-97907000D01*
X142666000Y-97907000D01*
X142669000Y-97907000D01*
X142819000Y-97907000D01*
X142822000Y-97907000D01*
X142824000Y-97907000D01*
X142827000Y-97908000D01*
G37*
%TD*%
D11*
%TO.C,D6*%
X103124000Y-118643600D03*
X103124000Y-117068600D03*
%TD*%
%TO.C,D5*%
X151130000Y-118389600D03*
X151130000Y-116814600D03*
%TD*%
D12*
%TO.C,C9*%
X143129000Y-104902000D03*
X143129000Y-110302000D03*
%TD*%
D13*
%TO.C,C3*%
X146608800Y-92519200D03*
X146608800Y-94069200D03*
%TD*%
D14*
%TO.C,R6*%
X128878100Y-59969400D03*
X130528100Y-59969400D03*
%TD*%
D15*
%TO.C,D2*%
X115408000Y-103428800D03*
X111408000Y-103428800D03*
%TD*%
D16*
%TO.C,C10*%
X128397000Y-110429000D03*
X128397000Y-105029000D03*
%TD*%
D17*
%TO.C,C5*%
X143524400Y-94056200D03*
X141974400Y-94056200D03*
%TD*%
D18*
%TO.C,D3*%
X128930400Y-56870600D03*
X130505400Y-56870600D03*
%TD*%
D19*
%TO.C,J6*%
X149252400Y-118880200D03*
D20*
X149252400Y-114700200D03*
D19*
X140612400Y-118880200D03*
D20*
X140612400Y-114700200D03*
D21*
X141732400Y-114125200D03*
X142532400Y-114125200D03*
D22*
X143182400Y-114125200D03*
X144182400Y-114125200D03*
X145682400Y-114125200D03*
X146682400Y-114125200D03*
D21*
X147332400Y-114125200D03*
X148132400Y-114125200D03*
X148132400Y-114125200D03*
X147332400Y-114125200D03*
D22*
X146182400Y-114125200D03*
X145182400Y-114125200D03*
X144682400Y-114125200D03*
X143682400Y-114125200D03*
D21*
X142532400Y-114125200D03*
X141732400Y-114125200D03*
%TD*%
D16*
%TO.C,C11*%
X135763000Y-110335000D03*
X135763000Y-104935000D03*
%TD*%
D12*
%TO.C,C1*%
X135763000Y-95344000D03*
X135763000Y-100744000D03*
%TD*%
D14*
%TO.C,R4*%
X141910800Y-92506800D03*
X143560800Y-92506800D03*
%TD*%
D17*
%TO.C,C2*%
X142761000Y-99618800D03*
X141211000Y-99618800D03*
%TD*%
D23*
%TO.C,C4*%
X113157000Y-98018600D03*
X116107000Y-98018600D03*
%TD*%
D15*
%TO.C,D1*%
X115408000Y-107010200D03*
X111408000Y-107010200D03*
%TD*%
D24*
%TO.C,R1*%
X138836400Y-94131400D03*
X138836400Y-92481400D03*
%TD*%
D25*
%TO.C,L1*%
X148209000Y-96426000D03*
X148209000Y-102476000D03*
%TD*%
D26*
%TO.C,R9*%
X103124600Y-113980000D03*
X103124600Y-115630000D03*
%TD*%
%TO.C,R7*%
X103911400Y-71145400D03*
X103911400Y-72795400D03*
%TD*%
D12*
%TO.C,C6*%
X128397000Y-95344000D03*
X128397000Y-100744000D03*
%TD*%
D23*
%TO.C,C12*%
X113131600Y-100431600D03*
X116081600Y-100431600D03*
%TD*%
D16*
%TO.C,C8*%
X121158000Y-110429000D03*
X121158000Y-105029000D03*
%TD*%
D24*
%TO.C,R3*%
X145059400Y-94119200D03*
X145059400Y-92469200D03*
%TD*%
D26*
%TO.C,R8*%
X151130000Y-113716800D03*
X151130000Y-115366800D03*
%TD*%
D11*
%TO.C,D4*%
X103911400Y-75806000D03*
X103911400Y-74231000D03*
%TD*%
D14*
%TO.C,R5*%
X128880600Y-58420000D03*
X130530600Y-58420000D03*
%TD*%
D12*
%TO.C,C7*%
X121158000Y-95344000D03*
X121158000Y-100744000D03*
%TD*%
D24*
%TO.C,R2*%
X140411200Y-94131400D03*
X140411200Y-92481400D03*
%TD*%
G36*
X149932877Y-100756085D02*
G01*
X149953519Y-100772719D01*
X150280881Y-101100081D01*
X150314366Y-101161404D01*
X150317200Y-101187762D01*
X150317200Y-103790238D01*
X150297515Y-103857277D01*
X150280881Y-103877919D01*
X149953519Y-104205281D01*
X149892196Y-104238766D01*
X149865838Y-104241600D01*
X145230799Y-104241600D01*
X144830800Y-104641599D01*
X144830800Y-107041438D01*
X144811115Y-107108477D01*
X144794481Y-107129119D01*
X144467119Y-107456481D01*
X144405796Y-107489966D01*
X144379438Y-107492800D01*
X141471599Y-107492800D01*
X141071600Y-107892799D01*
X141071600Y-111460958D01*
X141051915Y-111527997D01*
X141035185Y-111548735D01*
X140708016Y-111875187D01*
X140646656Y-111908605D01*
X140620159Y-111911410D01*
X118358080Y-111862589D01*
X118291084Y-111842757D01*
X118270575Y-111826174D01*
X117943023Y-111497902D01*
X117909605Y-111436542D01*
X117906800Y-111410317D01*
X117906800Y-108553672D01*
X117926485Y-108486633D01*
X117943011Y-108466098D01*
X118270587Y-108137717D01*
X118331869Y-108104157D01*
X118358071Y-108101291D01*
X138182401Y-108052582D01*
X138582399Y-107651600D01*
X138582400Y-107651598D01*
X138582400Y-101187762D01*
X138602085Y-101120723D01*
X138618719Y-101100081D01*
X138946081Y-100772719D01*
X139007404Y-100739234D01*
X139033762Y-100736400D01*
X149865838Y-100736400D01*
X149932877Y-100756085D01*
G37*
G36*
X128952477Y-51683285D02*
G01*
X128973119Y-51699919D01*
X129300481Y-52027281D01*
X129333966Y-52088604D01*
X129336800Y-52114962D01*
X129336800Y-61474401D01*
X129736718Y-61882397D01*
X131426253Y-61916189D01*
X131492885Y-61937210D01*
X131512326Y-61953364D01*
X131841353Y-62289037D01*
X131874224Y-62350692D01*
X131876800Y-62375837D01*
X131876800Y-67925438D01*
X131857115Y-67992477D01*
X131840481Y-68013119D01*
X131513119Y-68340481D01*
X131451796Y-68373966D01*
X131425438Y-68376800D01*
X125317762Y-68376800D01*
X125250723Y-68357115D01*
X125230081Y-68340481D01*
X124902719Y-68013119D01*
X124869234Y-67951796D01*
X124866400Y-67925438D01*
X124866400Y-63696800D01*
X124466400Y-63296800D01*
X117697762Y-63296800D01*
X117630723Y-63277115D01*
X117610081Y-63260481D01*
X117282719Y-62933119D01*
X117249234Y-62871796D01*
X117246400Y-62845438D01*
X117246400Y-52114962D01*
X117266085Y-52047923D01*
X117282719Y-52027281D01*
X117610081Y-51699919D01*
X117671404Y-51666434D01*
X117697762Y-51663600D01*
X128885438Y-51663600D01*
X128952477Y-51683285D01*
G37*
G36*
X109574229Y-89230501D02*
G01*
X113641699Y-89255303D01*
X113676259Y-89269866D01*
X113690400Y-89304302D01*
X113690400Y-101144600D01*
X113676048Y-101179248D01*
X113641400Y-101193600D01*
X113030000Y-101193600D01*
X113055227Y-108383428D01*
X113040997Y-108418126D01*
X113006399Y-108432600D01*
X109624471Y-108432600D01*
X109589823Y-108418248D01*
X109575471Y-108383730D01*
X109524930Y-89279630D01*
X109539190Y-89244944D01*
X109573800Y-89230500D01*
X109574229Y-89230501D01*
G37*
G36*
X114931677Y-67075685D02*
G01*
X114952319Y-67092319D01*
X115279681Y-67419681D01*
X115313166Y-67481004D01*
X115316000Y-67507362D01*
X115316000Y-71990000D01*
X115716000Y-72390000D01*
X131882959Y-72390000D01*
X131949998Y-72409685D01*
X131970251Y-72425932D01*
X132301288Y-72754052D01*
X132335044Y-72815226D01*
X132337991Y-72841023D01*
X132457002Y-86289334D01*
X132437912Y-86356545D01*
X132421076Y-86377723D01*
X132097386Y-86704292D01*
X132036211Y-86738048D01*
X132009317Y-86741000D01*
X124224999Y-86741000D01*
X123825000Y-87140999D01*
X123825000Y-91675000D01*
X124225000Y-92075000D01*
X137343638Y-92075000D01*
X137410677Y-92094685D01*
X137431319Y-92111319D01*
X137758681Y-92438681D01*
X137792166Y-92500004D01*
X137795000Y-92526362D01*
X137795000Y-96322638D01*
X137775315Y-96389677D01*
X137758681Y-96410319D01*
X137431319Y-96737681D01*
X137369996Y-96771166D01*
X137343638Y-96774000D01*
X120466727Y-96774000D01*
X120399688Y-96754315D01*
X120378608Y-96737242D01*
X120055392Y-96410777D01*
X120022214Y-96349287D01*
X120019517Y-96322295D01*
X120137999Y-84473981D01*
X119741999Y-84074000D01*
X110179091Y-84074000D01*
X110112052Y-84054315D01*
X110091738Y-84038008D01*
X109761277Y-83710004D01*
X109727563Y-83648806D01*
X109724633Y-83622921D01*
X109604370Y-67507620D01*
X109623554Y-67440436D01*
X109640359Y-67419342D01*
X109964625Y-67092647D01*
X110025823Y-67058933D01*
X110052633Y-67056000D01*
X114864638Y-67056000D01*
X114931677Y-67075685D01*
G37*
M02*
