M48
; DRILL file {KiCad 8.0.5} date 2024-10-07T09:41:35+0800
; FORMAT={-:-/ absolute / inch / decimal}
; #@! TF.CreationDate,2024-10-07T09:41:35+08:00
; #@! TF.GenerationSoftware,Kicad,Pcbnew,8.0.5
; #@! TF.FileFunction,Plated,1,4,PTH
FMAT,2
INCH
; #@! TA.AperFunction,Plated,PTH,ViaDrill
T1C0.0079
; #@! TA.AperFunction,Plated,PTH,ViaDrill
T2C0.0150
; #@! TA.AperFunction,Plated,PTH,ComponentDrill
T3C0.0236
; #@! TA.AperFunction,Plated,PTH,ComponentDrill
T4C0.0315
; #@! TA.AperFunction,Plated,PTH,ComponentDrill
T5C0.0433
; #@! TA.AperFunction,Plated,PTH,ComponentDrill
T6C0.0591
; #@! TA.AperFunction,Plated,PTH,ComponentDrill
T7C0.0630
; #@! TA.AperFunction,Plated,PTH,ComponentDrill
T8C0.1063
; #@! TA.AperFunction,Plated,PTH,ComponentDrill
T9C0.1260
; #@! TA.AperFunction,Plated,PTH,ComponentDrill
T10C0.1772
%
G90
G05
T1
X4.046Y-3.724
X4.046Y-3.78
X4.046Y-3.836
X4.048Y-3.146
X4.048Y-3.202
X4.048Y-3.258
X4.048Y-3.412
X4.048Y-3.468
X4.048Y-3.524
X4.06Y-4.671
X4.06Y-4.4874
X4.062Y-2.456
X4.062Y-2.512
X4.062Y-2.568
X4.064Y-3.752
X4.064Y-3.808
X4.066Y-3.174
X4.066Y-3.23
X4.066Y-3.44
X4.066Y-3.496
X4.08Y-2.484
X4.08Y-2.54
X4.082Y-3.724
X4.082Y-3.78
X4.082Y-3.836
X4.084Y-3.146
X4.084Y-3.202
X4.084Y-3.258
X4.084Y-3.412
X4.084Y-3.468
X4.084Y-3.524
X4.091Y-2.9845
X4.098Y-2.456
X4.098Y-2.512
X4.098Y-2.568
X4.1Y-3.752
X4.102Y-3.174
X4.102Y-3.44
X4.102Y-3.808
X4.104Y-3.23
X4.104Y-3.496
X4.116Y-2.484
X4.118Y-2.54
X4.118Y-3.724
X4.118Y-3.78
X4.12Y-3.146
X4.12Y-3.202
X4.12Y-3.412
X4.12Y-3.468
X4.12Y-3.836
X4.122Y-3.258
X4.122Y-3.524
X4.134Y-2.456
X4.134Y-2.512
X4.136Y-2.568
X4.136Y-3.752
X4.138Y-3.174
X4.138Y-3.44
X4.138Y-3.808
X4.14Y-3.23
X4.14Y-3.496
X4.152Y-2.484
X4.154Y-2.54
X4.3158Y-4.4638
X4.35Y-3.788
X4.35Y-3.86
X4.35Y-3.928
X4.3508Y-4.4288
X4.362Y-2.392
X4.362Y-2.448
X4.362Y-2.504
X4.368Y-2.876
X4.368Y-2.936
X4.37Y-2.998
X4.37Y-3.058
X4.37Y-3.822
X4.37Y-3.894
X4.37Y-3.962
X4.372Y-3.122
X4.372Y-3.182
X4.38Y-2.42
X4.38Y-2.476
X4.386Y-2.906
X4.386Y-2.966
X4.3861Y-4.072
X4.3861Y-4.213
X4.3861Y-4.254
X4.3861Y-4.294
X4.3861Y-4.34
X4.3861Y-4.386
X4.388Y-3.028
X4.388Y-3.088
X4.39Y-3.152
X4.39Y-3.212
X4.39Y-3.788
X4.39Y-3.86
X4.39Y-3.928
X4.398Y-2.392
X4.398Y-2.448
X4.398Y-2.504
X4.404Y-2.876
X4.404Y-2.936
X4.406Y-2.998
X4.406Y-3.058
X4.408Y-3.122
X4.408Y-3.182
X4.416Y-2.42
X4.418Y-2.476
X4.424Y-2.906
X4.424Y-2.966
X4.426Y-3.028
X4.426Y-3.088
X4.428Y-3.152
X4.428Y-3.212
X4.431Y-4.315
X4.434Y-2.392
X4.434Y-2.448
X4.436Y-2.504
X4.442Y-2.876
X4.442Y-2.936
X4.444Y-2.998
X4.444Y-3.058
X4.446Y-3.122
X4.446Y-3.182
X4.452Y-2.42
X4.454Y-2.476
X4.454Y-3.954
X4.455Y-3.859
X4.47Y-4.354
X4.509Y-4.393
X4.532Y-3.444
X4.548Y-4.432
X4.55Y-3.416
X4.556Y-3.736
X4.568Y-3.444
X4.574Y-3.708
X4.586Y-4.47
X4.588Y-3.416
X4.592Y-3.736
X4.606Y-3.444
X4.612Y-3.708
X4.624Y-3.416
X4.63Y-3.736
X4.648Y-3.708
X4.66Y-4.27
X4.66Y-4.33
X4.66Y-4.39
X4.68Y-4.3
X4.68Y-4.36
X4.7Y-4.27
X4.7Y-4.33
X4.7Y-4.39
X4.73Y-2.888
X4.73Y-2.948
X4.73Y-3.014
X4.73Y-3.074
X4.73Y-3.138
X4.73Y-3.198
X4.748Y-2.918
X4.748Y-2.978
X4.748Y-3.044
X4.748Y-3.104
X4.748Y-3.168
X4.748Y-3.228
X4.762Y-3.43
X4.762Y-3.49
X4.762Y-3.55
X4.762Y-3.61
X4.765Y-4.345
X4.766Y-2.888
X4.766Y-2.948
X4.766Y-3.014
X4.766Y-3.074
X4.766Y-3.138
X4.766Y-3.198
X4.77Y-3.7537
X4.778Y-4.516
X4.78Y-3.46
X4.78Y-3.52
X4.78Y-3.58
X4.78Y-3.64
X4.786Y-2.918
X4.786Y-2.978
X4.786Y-3.044
X4.786Y-3.104
X4.786Y-3.168
X4.786Y-3.228
X4.796Y-4.488
X4.798Y-3.43
X4.798Y-3.49
X4.798Y-3.55
X4.798Y-3.61
X4.804Y-2.888
X4.804Y-2.948
X4.804Y-3.014
X4.804Y-3.074
X4.804Y-3.138
X4.804Y-3.198
X4.814Y-4.516
X4.818Y-3.46
X4.818Y-3.52
X4.818Y-3.58
X4.818Y-3.64
X4.834Y-4.488
X4.836Y-3.43
X4.836Y-3.49
X4.836Y-3.55
X4.836Y-3.61
X4.852Y-4.516
X4.87Y-3.984
X4.87Y-4.04
X4.87Y-4.096
X4.87Y-4.3
X4.87Y-4.36
X4.87Y-4.488
X4.878Y-3.732
X4.888Y-4.012
X4.888Y-4.068
X4.89Y-4.27
X4.89Y-4.33
X4.89Y-4.39
X4.896Y-3.702
X4.896Y-3.762
X4.906Y-3.984
X4.906Y-4.04
X4.906Y-4.096
X4.91Y-4.3
X4.91Y-4.36
X4.914Y-3.732
X4.924Y-4.012
X4.926Y-4.068
X4.93Y-4.27
X4.93Y-4.33
X4.93Y-4.39
X4.934Y-3.702
X4.934Y-3.762
X4.942Y-3.984
X4.942Y-4.04
X4.944Y-4.096
X4.95Y-4.3
X4.95Y-4.36
X4.952Y-3.732
X4.96Y-4.012
X4.962Y-4.068
X5.006Y-3.53
X5.024Y-3.502
X5.042Y-3.53
X5.055Y-3.7537
X5.055Y-4.3476
X5.062Y-3.502
X5.076Y-2.239
X5.08Y-3.53
X5.096Y-2.88
X5.096Y-2.94
X5.096Y-3.006
X5.096Y-3.066
X5.098Y-3.502
X5.114Y-2.91
X5.114Y-2.97
X5.114Y-3.036
X5.114Y-3.096
X5.132Y-2.88
X5.132Y-2.94
X5.132Y-3.006
X5.132Y-3.066
X5.152Y-2.91
X5.152Y-2.97
X5.152Y-3.036
X5.152Y-3.096
X5.16Y-3.982
X5.16Y-4.038
X5.16Y-4.094
X5.16Y-4.3
X5.16Y-4.36
X5.166Y-3.73
X5.17Y-2.88
X5.17Y-2.94
X5.17Y-3.006
X5.17Y-3.066
X5.178Y-4.01
X5.178Y-4.066
X5.18Y-4.27
X5.18Y-4.33
X5.18Y-4.39
X5.184Y-3.7
X5.184Y-3.76
X5.196Y-3.982
X5.196Y-4.038
X5.196Y-4.094
X5.2Y-4.3
X5.2Y-4.36
X5.202Y-3.73
X5.214Y-4.01
X5.216Y-4.066
X5.22Y-4.27
X5.22Y-4.33
X5.22Y-4.39
X5.222Y-2.056
X5.222Y-2.112
X5.222Y-2.168
X5.222Y-3.7
X5.222Y-3.76
X5.232Y-3.982
X5.232Y-4.038
X5.234Y-4.094
X5.24Y-2.084
X5.24Y-2.14
X5.24Y-3.73
X5.24Y-4.3
X5.24Y-4.36
X5.25Y-4.01
X5.252Y-4.066
X5.258Y-2.056
X5.258Y-2.112
X5.258Y-2.168
X5.258Y-3.52
X5.276Y-2.084
X5.276Y-3.492
X5.278Y-2.14
X5.294Y-2.056
X5.294Y-2.112
X5.294Y-3.52
X5.296Y-2.168
X5.312Y-2.084
X5.314Y-2.14
X5.314Y-3.492
X5.332Y-3.52
X5.338Y-2.872
X5.338Y-2.928
X5.338Y-2.984
X5.338Y-3.138
X5.338Y-3.194
X5.338Y-3.25
X5.345Y-3.7537
X5.345Y-4.3439
X5.35Y-3.492
X5.356Y-2.9
X5.356Y-2.956
X5.356Y-3.166
X5.356Y-3.222
X5.374Y-2.872
X5.374Y-2.928
X5.374Y-2.984
X5.374Y-3.138
X5.374Y-3.194
X5.374Y-3.25
X5.392Y-2.9
X5.392Y-3.166
X5.394Y-2.956
X5.394Y-3.222
X5.402Y-2.508
X5.402Y-2.564
X5.402Y-2.62
X5.41Y-2.872
X5.41Y-2.928
X5.41Y-3.138
X5.41Y-3.194
X5.412Y-2.984
X5.412Y-3.25
X5.42Y-2.536
X5.42Y-2.592
X5.428Y-2.9
X5.428Y-3.166
X5.43Y-2.956
X5.43Y-3.222
X5.438Y-2.508
X5.438Y-2.564
X5.438Y-2.62
X5.445Y-4.3
X5.445Y-4.36
X5.456Y-2.536
X5.458Y-2.592
X5.465Y-4.27
X5.465Y-4.33
X5.465Y-4.39
X5.466Y-3.706
X5.474Y-2.508
X5.474Y-2.564
X5.476Y-2.62
X5.48Y-4.016
X5.48Y-4.076
X5.485Y-4.3
X5.485Y-4.36
X5.492Y-2.536
X5.494Y-2.592
X5.5Y-3.986
X5.5Y-4.046
X5.5Y-4.106
X5.505Y-4.27
X5.505Y-4.33
X5.505Y-4.39
X5.518Y-3.584
X5.52Y-4.016
X5.52Y-4.076
X5.525Y-4.3
X5.525Y-4.36
X5.528Y-3.641
X5.54Y-3.986
X5.54Y-4.046
X5.54Y-4.106
X5.5432Y-3.884
X5.5595Y-3.922
X5.56Y-4.016
X5.56Y-4.076
X5.5872Y-3.7023
X5.5908Y-3.8935
X5.635Y-4.13
X5.635Y-4.3426
X5.672Y-4.602
X5.672Y-4.662
X5.692Y-4.572
X5.692Y-4.632
X5.692Y-4.692
X5.712Y-4.602
X5.712Y-4.662
X5.724Y-4.304
X5.724Y-4.34
X5.724Y-4.378
X5.732Y-4.572
X5.732Y-4.632
X5.732Y-4.692
X5.752Y-4.322
X5.752Y-4.36
X5.752Y-4.396
X5.752Y-4.602
X5.752Y-4.662
X5.835Y-4.035
X5.856Y-2.58
X5.856Y-2.636
X5.856Y-2.692
X5.856Y-2.872
X5.856Y-2.928
X5.856Y-2.984
X5.856Y-3.138
X5.856Y-3.194
X5.856Y-3.25
X5.858Y-3.39
X5.858Y-3.446
X5.858Y-3.502
X5.874Y-2.608
X5.874Y-2.664
X5.874Y-2.9
X5.874Y-2.956
X5.874Y-3.166
X5.874Y-3.222
X5.876Y-3.418
X5.876Y-3.474
X5.892Y-2.58
X5.892Y-2.636
X5.892Y-2.692
X5.892Y-2.872
X5.892Y-2.928
X5.892Y-2.984
X5.892Y-3.138
X5.892Y-3.194
X5.892Y-3.25
X5.894Y-3.39
X5.894Y-3.446
X5.894Y-3.502
X5.91Y-2.608
X5.91Y-2.9
X5.91Y-3.166
X5.912Y-2.664
X5.912Y-2.956
X5.912Y-3.222
X5.912Y-3.418
X5.914Y-3.474
X5.928Y-2.58
X5.928Y-2.636
X5.928Y-2.872
X5.928Y-2.928
X5.928Y-3.138
X5.928Y-3.194
X5.93Y-2.692
X5.93Y-2.984
X5.93Y-3.25
X5.93Y-3.39
X5.93Y-3.446
X5.932Y-3.502
X5.946Y-2.608
X5.946Y-2.9
X5.946Y-3.166
X5.948Y-2.664
X5.948Y-2.956
X5.948Y-3.222
X5.948Y-3.418
X5.95Y-3.474
X5.95Y-4.477
X5.95Y-4.661
X6.006Y-3.896
X6.006Y-3.932
X6.006Y-3.97
X6.034Y-3.914
X6.034Y-3.952
X6.034Y-3.988
T2
X5.5906Y-4.5866
X5.8268Y-4.5866
T4
X5.3848Y-2.304
X5.6848Y-2.304
T5
X5.6434Y-2.7788
X5.6434Y-3.1804
T6
X4.399Y-2.7572
X4.399Y-3.647
T7
X4.7458Y-2.6292
X5.045Y-2.6292
X5.145Y-3.33
T8
X4.2331Y-4.66
X4.43Y-4.66
X4.6996Y-4.66
X4.8964Y-4.66
X5.1616Y-4.66
X5.3584Y-4.66
T9
X4.1142Y-2.1654
X4.1339Y-4.2913
X5.8858Y-2.1654
X5.9055Y-4.2913
T10
X4.453Y-2.16
X4.7365Y-2.16
T3
G00X5.5359Y-4.4941
M15
G01X5.5359Y-4.5374
M16
G05
G00X5.5359Y-4.6646
M15
G01X5.5359Y-4.6961
M16
G05
G00X5.8761Y-4.4941
M15
G01X5.8761Y-4.5374
M16
G05
G00X5.8761Y-4.6646
M15
G01X5.8761Y-4.6961
M16
G05
M30
