%TF.GenerationSoftware,KiCad,Pcbnew,8.0.5*%
%TF.CreationDate,2024-10-07T09:41:34+08:00*%
%TF.ProjectId,sandersypconverter,73616e64-6572-4737-9970-636f6e766572,rev?*%
%TF.SameCoordinates,Original*%
%TF.FileFunction,Drillmap*%
%TF.FilePolarity,Positive*%
%FSLAX45Y45*%
G04 Gerber Fmt 4.5, Leading zero omitted, Abs format (unit mm)*
G04 Created by KiCad (PCBNEW 8.0.5) date 2024-10-07 09:41:34*
%MOMM*%
%LPD*%
G01*
G04 APERTURE LIST*
%ADD10C,0.050000*%
%ADD11C,0.200000*%
%ADD12C,0.100000*%
%ADD13C,0.110000*%
%ADD14C,0.150000*%
%ADD15C,0.160000*%
%ADD16C,0.270000*%
%ADD17C,0.320000*%
%ADD18C,0.450000*%
G04 APERTURE END LIST*
D10*
X15500000Y-11950000D02*
G75*
G02*
X15300000Y-12150000I-200000J0D01*
G01*
X15300000Y-12150000D02*
X10200000Y-12150000D01*
X10000000Y-5200000D02*
G75*
G02*
X10200000Y-5000000I200000J0D01*
G01*
X15300000Y-5000000D02*
G75*
G02*
X15500000Y-5200000I0J-200000D01*
G01*
X10000000Y-11950000D02*
X10000000Y-5200000D01*
X10200000Y-5000000D02*
X15300000Y-5000000D01*
X10200000Y-12150000D02*
G75*
G02*
X10000000Y-11950000I0J200000D01*
G01*
X15500000Y-5200000D02*
X15500000Y-11950000D01*
D11*
D12*
X10266840Y-9448960D02*
X10286840Y-9468960D01*
X10286840Y-9448960D02*
X10266840Y-9468960D01*
X10266840Y-9591200D02*
X10286840Y-9611200D01*
X10286840Y-9591200D02*
X10266840Y-9611200D01*
X10266840Y-9733440D02*
X10286840Y-9753440D01*
X10286840Y-9733440D02*
X10266840Y-9753440D01*
X10271920Y-7980840D02*
X10291920Y-8000840D01*
X10291920Y-7980840D02*
X10271920Y-8000840D01*
X10271920Y-8123080D02*
X10291920Y-8143080D01*
X10291920Y-8123080D02*
X10271920Y-8143080D01*
X10271920Y-8265320D02*
X10291920Y-8285320D01*
X10291920Y-8265320D02*
X10271920Y-8285320D01*
X10271920Y-8656480D02*
X10291920Y-8676480D01*
X10291920Y-8656480D02*
X10271920Y-8676480D01*
X10271920Y-8798720D02*
X10291920Y-8818720D01*
X10291920Y-8798720D02*
X10271920Y-8818720D01*
X10271920Y-8940960D02*
X10291920Y-8960960D01*
X10291920Y-8940960D02*
X10271920Y-8960960D01*
X10302400Y-11854360D02*
X10322400Y-11874360D01*
X10322400Y-11854360D02*
X10302400Y-11874360D01*
X10302460Y-11388000D02*
X10322460Y-11408000D01*
X10322460Y-11388000D02*
X10302460Y-11408000D01*
X10307480Y-6228240D02*
X10327480Y-6248240D01*
X10327480Y-6228240D02*
X10307480Y-6248240D01*
X10307480Y-6370480D02*
X10327480Y-6390480D01*
X10327480Y-6370480D02*
X10307480Y-6390480D01*
X10307480Y-6512720D02*
X10327480Y-6532720D01*
X10327480Y-6512720D02*
X10307480Y-6532720D01*
X10312560Y-9520080D02*
X10332560Y-9540080D01*
X10332560Y-9520080D02*
X10312560Y-9540080D01*
X10312560Y-9662320D02*
X10332560Y-9682320D01*
X10332560Y-9662320D02*
X10312560Y-9682320D01*
X10317640Y-8051960D02*
X10337640Y-8071960D01*
X10337640Y-8051960D02*
X10317640Y-8071960D01*
X10317640Y-8194200D02*
X10337640Y-8214200D01*
X10337640Y-8194200D02*
X10317640Y-8214200D01*
X10317640Y-8727600D02*
X10337640Y-8747600D01*
X10337640Y-8727600D02*
X10317640Y-8747600D01*
X10317640Y-8869840D02*
X10337640Y-8889840D01*
X10337640Y-8869840D02*
X10317640Y-8889840D01*
X10353200Y-6299360D02*
X10373200Y-6319360D01*
X10373200Y-6299360D02*
X10353200Y-6319360D01*
X10353200Y-6441600D02*
X10373200Y-6461600D01*
X10373200Y-6441600D02*
X10353200Y-6461600D01*
X10358280Y-9448960D02*
X10378280Y-9468960D01*
X10378280Y-9448960D02*
X10358280Y-9468960D01*
X10358280Y-9591200D02*
X10378280Y-9611200D01*
X10378280Y-9591200D02*
X10358280Y-9611200D01*
X10358280Y-9733440D02*
X10378280Y-9753440D01*
X10378280Y-9733440D02*
X10358280Y-9753440D01*
X10363360Y-7980840D02*
X10383360Y-8000840D01*
X10383360Y-7980840D02*
X10363360Y-8000840D01*
X10363360Y-8123080D02*
X10383360Y-8143080D01*
X10383360Y-8123080D02*
X10363360Y-8143080D01*
X10363360Y-8265320D02*
X10383360Y-8285320D01*
X10383360Y-8265320D02*
X10363360Y-8285320D01*
X10363360Y-8656480D02*
X10383360Y-8676480D01*
X10383360Y-8656480D02*
X10363360Y-8676480D01*
X10363360Y-8798720D02*
X10383360Y-8818720D01*
X10383360Y-8798720D02*
X10363360Y-8818720D01*
X10363360Y-8940960D02*
X10383360Y-8960960D01*
X10383360Y-8940960D02*
X10363360Y-8960960D01*
X10381140Y-7570600D02*
X10401140Y-7590600D01*
X10401140Y-7570600D02*
X10381140Y-7590600D01*
X10398920Y-6228240D02*
X10418920Y-6248240D01*
X10418920Y-6228240D02*
X10398920Y-6248240D01*
X10398920Y-6370480D02*
X10418920Y-6390480D01*
X10418920Y-6370480D02*
X10398920Y-6390480D01*
X10398920Y-6512720D02*
X10418920Y-6532720D01*
X10418920Y-6512720D02*
X10398920Y-6532720D01*
X10404000Y-9520080D02*
X10424000Y-9540080D01*
X10424000Y-9520080D02*
X10404000Y-9540080D01*
X10409080Y-8051960D02*
X10429080Y-8071960D01*
X10429080Y-8051960D02*
X10409080Y-8071960D01*
X10409080Y-8727600D02*
X10429080Y-8747600D01*
X10429080Y-8727600D02*
X10409080Y-8747600D01*
X10409080Y-9662320D02*
X10429080Y-9682320D01*
X10429080Y-9662320D02*
X10409080Y-9682320D01*
X10414160Y-8194200D02*
X10434160Y-8214200D01*
X10434160Y-8194200D02*
X10414160Y-8214200D01*
X10414160Y-8869840D02*
X10434160Y-8889840D01*
X10434160Y-8869840D02*
X10414160Y-8889840D01*
X10444640Y-6299360D02*
X10464640Y-6319360D01*
X10464640Y-6299360D02*
X10444640Y-6319360D01*
X10449720Y-6441600D02*
X10469720Y-6461600D01*
X10469720Y-6441600D02*
X10449720Y-6461600D01*
X10449720Y-9448960D02*
X10469720Y-9468960D01*
X10469720Y-9448960D02*
X10449720Y-9468960D01*
X10449720Y-9591200D02*
X10469720Y-9611200D01*
X10469720Y-9591200D02*
X10449720Y-9611200D01*
X10454800Y-7980840D02*
X10474800Y-8000840D01*
X10474800Y-7980840D02*
X10454800Y-8000840D01*
X10454800Y-8123080D02*
X10474800Y-8143080D01*
X10474800Y-8123080D02*
X10454800Y-8143080D01*
X10454800Y-8656480D02*
X10474800Y-8676480D01*
X10474800Y-8656480D02*
X10454800Y-8676480D01*
X10454800Y-8798720D02*
X10474800Y-8818720D01*
X10474800Y-8798720D02*
X10454800Y-8818720D01*
X10454800Y-9733440D02*
X10474800Y-9753440D01*
X10474800Y-9733440D02*
X10454800Y-9753440D01*
X10459880Y-8265320D02*
X10479880Y-8285320D01*
X10479880Y-8265320D02*
X10459880Y-8285320D01*
X10459880Y-8940960D02*
X10479880Y-8960960D01*
X10479880Y-8940960D02*
X10459880Y-8960960D01*
X10490360Y-6228240D02*
X10510360Y-6248240D01*
X10510360Y-6228240D02*
X10490360Y-6248240D01*
X10490360Y-6370480D02*
X10510360Y-6390480D01*
X10510360Y-6370480D02*
X10490360Y-6390480D01*
X10495440Y-6512720D02*
X10515440Y-6532720D01*
X10515440Y-6512720D02*
X10495440Y-6532720D01*
X10495440Y-9520080D02*
X10515440Y-9540080D01*
X10515440Y-9520080D02*
X10495440Y-9540080D01*
X10500520Y-8051960D02*
X10520520Y-8071960D01*
X10520520Y-8051960D02*
X10500520Y-8071960D01*
X10500520Y-8727600D02*
X10520520Y-8747600D01*
X10520520Y-8727600D02*
X10500520Y-8747600D01*
X10500520Y-9662320D02*
X10520520Y-9682320D01*
X10520520Y-9662320D02*
X10500520Y-9682320D01*
X10505600Y-8194200D02*
X10525600Y-8214200D01*
X10525600Y-8194200D02*
X10505600Y-8214200D01*
X10505600Y-8869840D02*
X10525600Y-8889840D01*
X10525600Y-8869840D02*
X10505600Y-8889840D01*
X10536080Y-6299360D02*
X10556080Y-6319360D01*
X10556080Y-6299360D02*
X10536080Y-6319360D01*
X10541160Y-6441600D02*
X10561160Y-6461600D01*
X10561160Y-6441600D02*
X10541160Y-6461600D01*
X10952040Y-11327960D02*
X10972040Y-11347960D01*
X10972040Y-11327960D02*
X10952040Y-11347960D01*
X11039000Y-9611520D02*
X11059000Y-9631520D01*
X11059000Y-9611520D02*
X11039000Y-9631520D01*
X11039000Y-9794400D02*
X11059000Y-9814400D01*
X11059000Y-9794400D02*
X11039000Y-9814400D01*
X11039000Y-9967120D02*
X11059000Y-9987120D01*
X11059000Y-9967120D02*
X11039000Y-9987120D01*
X11040940Y-11239060D02*
X11060940Y-11259060D01*
X11060940Y-11239060D02*
X11040940Y-11259060D01*
X11069480Y-6065680D02*
X11089480Y-6085680D01*
X11089480Y-6065680D02*
X11069480Y-6085680D01*
X11069480Y-6207920D02*
X11089480Y-6227920D01*
X11089480Y-6207920D02*
X11069480Y-6227920D01*
X11069480Y-6350160D02*
X11089480Y-6370160D01*
X11089480Y-6350160D02*
X11069480Y-6370160D01*
X11084720Y-7295040D02*
X11104720Y-7315040D01*
X11104720Y-7295040D02*
X11084720Y-7315040D01*
X11084720Y-7447440D02*
X11104720Y-7467440D01*
X11104720Y-7447440D02*
X11084720Y-7467440D01*
X11089800Y-7604920D02*
X11109800Y-7624920D01*
X11109800Y-7604920D02*
X11089800Y-7624920D01*
X11089800Y-7757320D02*
X11109800Y-7777320D01*
X11109800Y-7757320D02*
X11089800Y-7777320D01*
X11089800Y-9697880D02*
X11109800Y-9717880D01*
X11109800Y-9697880D02*
X11089800Y-9717880D01*
X11089800Y-9880760D02*
X11109800Y-9900760D01*
X11109800Y-9880760D02*
X11089800Y-9900760D01*
X11089800Y-10053480D02*
X11109800Y-10073480D01*
X11109800Y-10053480D02*
X11089800Y-10073480D01*
X11094880Y-7919880D02*
X11114880Y-7939880D01*
X11114880Y-7919880D02*
X11094880Y-7939880D01*
X11094880Y-8072280D02*
X11114880Y-8092280D01*
X11114880Y-8072280D02*
X11094880Y-8092280D01*
X11115200Y-6136800D02*
X11135200Y-6156800D01*
X11135200Y-6136800D02*
X11115200Y-6156800D01*
X11115200Y-6279040D02*
X11135200Y-6299040D01*
X11135200Y-6279040D02*
X11115200Y-6299040D01*
X11130440Y-7371240D02*
X11150440Y-7391240D01*
X11150440Y-7371240D02*
X11130440Y-7391240D01*
X11130440Y-7523640D02*
X11150440Y-7543640D01*
X11150440Y-7523640D02*
X11130440Y-7543640D01*
X11130800Y-10332880D02*
X11150800Y-10352880D01*
X11150800Y-10332880D02*
X11130800Y-10352880D01*
X11130800Y-10691020D02*
X11150800Y-10711020D01*
X11150800Y-10691020D02*
X11130800Y-10711020D01*
X11130800Y-10795160D02*
X11150800Y-10815160D01*
X11150800Y-10795160D02*
X11130800Y-10815160D01*
X11130800Y-10896760D02*
X11150800Y-10916760D01*
X11150800Y-10896760D02*
X11130800Y-10916760D01*
X11130800Y-11013600D02*
X11150800Y-11033600D01*
X11150800Y-11013600D02*
X11130800Y-11033600D01*
X11130800Y-11130440D02*
X11150800Y-11150440D01*
X11150800Y-11130440D02*
X11130800Y-11150440D01*
X11135520Y-7681120D02*
X11155520Y-7701120D01*
X11155520Y-7681120D02*
X11135520Y-7701120D01*
X11135520Y-7833520D02*
X11155520Y-7853520D01*
X11155520Y-7833520D02*
X11135520Y-7853520D01*
X11140600Y-7996080D02*
X11160600Y-8016080D01*
X11160600Y-7996080D02*
X11140600Y-8016080D01*
X11140600Y-8148480D02*
X11160600Y-8168480D01*
X11160600Y-8148480D02*
X11140600Y-8168480D01*
X11140600Y-9611520D02*
X11160600Y-9631520D01*
X11160600Y-9611520D02*
X11140600Y-9631520D01*
X11140600Y-9794400D02*
X11160600Y-9814400D01*
X11160600Y-9794400D02*
X11140600Y-9814400D01*
X11140600Y-9967120D02*
X11160600Y-9987120D01*
X11160600Y-9967120D02*
X11140600Y-9987120D01*
X11160920Y-6065680D02*
X11180920Y-6085680D01*
X11180920Y-6065680D02*
X11160920Y-6085680D01*
X11160920Y-6207920D02*
X11180920Y-6227920D01*
X11180920Y-6207920D02*
X11160920Y-6227920D01*
X11160920Y-6350160D02*
X11180920Y-6370160D01*
X11180920Y-6350160D02*
X11160920Y-6370160D01*
X11176160Y-7295040D02*
X11196160Y-7315040D01*
X11196160Y-7295040D02*
X11176160Y-7315040D01*
X11176160Y-7447440D02*
X11196160Y-7467440D01*
X11196160Y-7447440D02*
X11176160Y-7467440D01*
X11181240Y-7604920D02*
X11201240Y-7624920D01*
X11201240Y-7604920D02*
X11181240Y-7624920D01*
X11181240Y-7757320D02*
X11201240Y-7777320D01*
X11201240Y-7757320D02*
X11181240Y-7777320D01*
X11186320Y-7919880D02*
X11206320Y-7939880D01*
X11206320Y-7919880D02*
X11186320Y-7939880D01*
X11186320Y-8072280D02*
X11206320Y-8092280D01*
X11206320Y-8072280D02*
X11186320Y-8092280D01*
X11206640Y-6136800D02*
X11226640Y-6156800D01*
X11226640Y-6136800D02*
X11206640Y-6156800D01*
X11211720Y-6279040D02*
X11231720Y-6299040D01*
X11231720Y-6279040D02*
X11211720Y-6299040D01*
X11226960Y-7371240D02*
X11246960Y-7391240D01*
X11246960Y-7371240D02*
X11226960Y-7391240D01*
X11226960Y-7523640D02*
X11246960Y-7543640D01*
X11246960Y-7523640D02*
X11226960Y-7543640D01*
X11232040Y-7681120D02*
X11252040Y-7701120D01*
X11252040Y-7681120D02*
X11232040Y-7701120D01*
X11232040Y-7833520D02*
X11252040Y-7853520D01*
X11252040Y-7833520D02*
X11232040Y-7853520D01*
X11237120Y-7996080D02*
X11257120Y-8016080D01*
X11257120Y-7996080D02*
X11237120Y-8016080D01*
X11237120Y-8148480D02*
X11257120Y-8168480D01*
X11257120Y-8148480D02*
X11237120Y-8168480D01*
X11244740Y-10950100D02*
X11264740Y-10970100D01*
X11264740Y-10950100D02*
X11244740Y-10970100D01*
X11252360Y-6065680D02*
X11272360Y-6085680D01*
X11272360Y-6065680D02*
X11252360Y-6085680D01*
X11252360Y-6207920D02*
X11272360Y-6227920D01*
X11272360Y-6207920D02*
X11252360Y-6227920D01*
X11257440Y-6350160D02*
X11277440Y-6370160D01*
X11277440Y-6350160D02*
X11257440Y-6370160D01*
X11272680Y-7295040D02*
X11292680Y-7315040D01*
X11292680Y-7295040D02*
X11272680Y-7315040D01*
X11272680Y-7447440D02*
X11292680Y-7467440D01*
X11292680Y-7447440D02*
X11272680Y-7467440D01*
X11277760Y-7604920D02*
X11297760Y-7624920D01*
X11297760Y-7604920D02*
X11277760Y-7624920D01*
X11277760Y-7757320D02*
X11297760Y-7777320D01*
X11297760Y-7757320D02*
X11277760Y-7777320D01*
X11282840Y-7919880D02*
X11302840Y-7939880D01*
X11302840Y-7919880D02*
X11282840Y-7939880D01*
X11282840Y-8072280D02*
X11302840Y-8092280D01*
X11302840Y-8072280D02*
X11282840Y-8092280D01*
X11298080Y-6136800D02*
X11318080Y-6156800D01*
X11318080Y-6136800D02*
X11298080Y-6156800D01*
X11303160Y-6279040D02*
X11323160Y-6299040D01*
X11323160Y-6279040D02*
X11303160Y-6299040D01*
X11303160Y-10033160D02*
X11323160Y-10053160D01*
X11323160Y-10033160D02*
X11303160Y-10053160D01*
X11305700Y-9791860D02*
X11325700Y-9811860D01*
X11325700Y-9791860D02*
X11305700Y-9811860D01*
X11343800Y-11049160D02*
X11363800Y-11069160D01*
X11363800Y-11049160D02*
X11343800Y-11069160D01*
X11442860Y-11148220D02*
X11462860Y-11168220D01*
X11462860Y-11148220D02*
X11442860Y-11168220D01*
X11501280Y-8737760D02*
X11521280Y-8757760D01*
X11521280Y-8737760D02*
X11501280Y-8757760D01*
X11541920Y-11247280D02*
X11561920Y-11267280D01*
X11561920Y-11247280D02*
X11541920Y-11267280D01*
X11547000Y-8666640D02*
X11567000Y-8686640D01*
X11567000Y-8666640D02*
X11547000Y-8686640D01*
X11562240Y-9479440D02*
X11582240Y-9499440D01*
X11582240Y-9479440D02*
X11562240Y-9499440D01*
X11592720Y-8737760D02*
X11612720Y-8757760D01*
X11612720Y-8737760D02*
X11592720Y-8757760D01*
X11607960Y-9408320D02*
X11627960Y-9428320D01*
X11627960Y-9408320D02*
X11607960Y-9428320D01*
X11638440Y-11343800D02*
X11658440Y-11363800D01*
X11658440Y-11343800D02*
X11638440Y-11363800D01*
X11643520Y-8666640D02*
X11663520Y-8686640D01*
X11663520Y-8666640D02*
X11643520Y-8686640D01*
X11653680Y-9479440D02*
X11673680Y-9499440D01*
X11673680Y-9479440D02*
X11653680Y-9499440D01*
X11689240Y-8737760D02*
X11709240Y-8757760D01*
X11709240Y-8737760D02*
X11689240Y-8757760D01*
X11704480Y-9408320D02*
X11724480Y-9428320D01*
X11724480Y-9408320D02*
X11704480Y-9428320D01*
X11734960Y-8666640D02*
X11754960Y-8686640D01*
X11754960Y-8666640D02*
X11734960Y-8686640D01*
X11750200Y-9479440D02*
X11770200Y-9499440D01*
X11770200Y-9479440D02*
X11750200Y-9499440D01*
X11795920Y-9408320D02*
X11815920Y-9428320D01*
X11815920Y-9408320D02*
X11795920Y-9428320D01*
X11826400Y-10835800D02*
X11846400Y-10855800D01*
X11846400Y-10835800D02*
X11826400Y-10855800D01*
X11826400Y-10988200D02*
X11846400Y-11008200D01*
X11846400Y-10988200D02*
X11826400Y-11008200D01*
X11826400Y-11140600D02*
X11846400Y-11160600D01*
X11846400Y-11140600D02*
X11826400Y-11160600D01*
X11877200Y-10912000D02*
X11897200Y-10932000D01*
X11897200Y-10912000D02*
X11877200Y-10932000D01*
X11877200Y-11064400D02*
X11897200Y-11084400D01*
X11897200Y-11064400D02*
X11877200Y-11084400D01*
X11928000Y-10835800D02*
X11948000Y-10855800D01*
X11948000Y-10835800D02*
X11928000Y-10855800D01*
X11928000Y-10988200D02*
X11948000Y-11008200D01*
X11948000Y-10988200D02*
X11928000Y-11008200D01*
X11928000Y-11140600D02*
X11948000Y-11160600D01*
X11948000Y-11140600D02*
X11928000Y-11160600D01*
X12004200Y-7325520D02*
X12024200Y-7345520D01*
X12024200Y-7325520D02*
X12004200Y-7345520D01*
X12004200Y-7477920D02*
X12024200Y-7497920D01*
X12024200Y-7477920D02*
X12004200Y-7497920D01*
X12004200Y-7645560D02*
X12024200Y-7665560D01*
X12024200Y-7645560D02*
X12004200Y-7665560D01*
X12004200Y-7797960D02*
X12024200Y-7817960D01*
X12024200Y-7797960D02*
X12004200Y-7817960D01*
X12004200Y-7960520D02*
X12024200Y-7980520D01*
X12024200Y-7960520D02*
X12004200Y-7980520D01*
X12004200Y-8112920D02*
X12024200Y-8132920D01*
X12024200Y-8112920D02*
X12004200Y-8132920D01*
X12049920Y-7401720D02*
X12069920Y-7421720D01*
X12069920Y-7401720D02*
X12049920Y-7421720D01*
X12049920Y-7554120D02*
X12069920Y-7574120D01*
X12069920Y-7554120D02*
X12049920Y-7574120D01*
X12049920Y-7721760D02*
X12069920Y-7741760D01*
X12069920Y-7721760D02*
X12049920Y-7741760D01*
X12049920Y-7874160D02*
X12069920Y-7894160D01*
X12069920Y-7874160D02*
X12049920Y-7894160D01*
X12049920Y-8036720D02*
X12069920Y-8056720D01*
X12069920Y-8036720D02*
X12049920Y-8056720D01*
X12049920Y-8189120D02*
X12069920Y-8209120D01*
X12069920Y-8189120D02*
X12049920Y-8209120D01*
X12085480Y-8702200D02*
X12105480Y-8722200D01*
X12105480Y-8702200D02*
X12085480Y-8722200D01*
X12085480Y-8854600D02*
X12105480Y-8874600D01*
X12105480Y-8854600D02*
X12085480Y-8874600D01*
X12085480Y-9007000D02*
X12105480Y-9027000D01*
X12105480Y-9007000D02*
X12085480Y-9027000D01*
X12085480Y-9159400D02*
X12105480Y-9179400D01*
X12105480Y-9159400D02*
X12085480Y-9179400D01*
X12093100Y-11026300D02*
X12113100Y-11046300D01*
X12113100Y-11026300D02*
X12093100Y-11046300D01*
X12095640Y-7325520D02*
X12115640Y-7345520D01*
X12115640Y-7325520D02*
X12095640Y-7345520D01*
X12095640Y-7477920D02*
X12115640Y-7497920D01*
X12115640Y-7477920D02*
X12095640Y-7497920D01*
X12095640Y-7645560D02*
X12115640Y-7665560D01*
X12115640Y-7645560D02*
X12095640Y-7665560D01*
X12095640Y-7797960D02*
X12115640Y-7817960D01*
X12115640Y-7797960D02*
X12095640Y-7817960D01*
X12095640Y-7960520D02*
X12115640Y-7980520D01*
X12115640Y-7960520D02*
X12095640Y-7980520D01*
X12095640Y-8112920D02*
X12115640Y-8132920D01*
X12115640Y-8112920D02*
X12095640Y-8132920D01*
X12105800Y-9524400D02*
X12125800Y-9544400D01*
X12125800Y-9524400D02*
X12105800Y-9544400D01*
X12126120Y-11460640D02*
X12146120Y-11480640D01*
X12146120Y-11460640D02*
X12126120Y-11480640D01*
X12131200Y-8778400D02*
X12151200Y-8798400D01*
X12151200Y-8778400D02*
X12131200Y-8798400D01*
X12131200Y-8930800D02*
X12151200Y-8950800D01*
X12151200Y-8930800D02*
X12131200Y-8950800D01*
X12131200Y-9083200D02*
X12151200Y-9103200D01*
X12151200Y-9083200D02*
X12131200Y-9103200D01*
X12131200Y-9235600D02*
X12151200Y-9255600D01*
X12151200Y-9235600D02*
X12131200Y-9255600D01*
X12146440Y-7401720D02*
X12166440Y-7421720D01*
X12166440Y-7401720D02*
X12146440Y-7421720D01*
X12146440Y-7554120D02*
X12166440Y-7574120D01*
X12166440Y-7554120D02*
X12146440Y-7574120D01*
X12146440Y-7721760D02*
X12166440Y-7741760D01*
X12166440Y-7721760D02*
X12146440Y-7741760D01*
X12146440Y-7874160D02*
X12166440Y-7894160D01*
X12166440Y-7874160D02*
X12146440Y-7894160D01*
X12146440Y-8036720D02*
X12166440Y-8056720D01*
X12166440Y-8036720D02*
X12146440Y-8056720D01*
X12146440Y-8189120D02*
X12166440Y-8209120D01*
X12166440Y-8189120D02*
X12146440Y-8209120D01*
X12171840Y-11389520D02*
X12191840Y-11409520D01*
X12191840Y-11389520D02*
X12171840Y-11409520D01*
X12176920Y-8702200D02*
X12196920Y-8722200D01*
X12196920Y-8702200D02*
X12176920Y-8722200D01*
X12176920Y-8854600D02*
X12196920Y-8874600D01*
X12196920Y-8854600D02*
X12176920Y-8874600D01*
X12176920Y-9007000D02*
X12196920Y-9027000D01*
X12196920Y-9007000D02*
X12176920Y-9027000D01*
X12176920Y-9159400D02*
X12196920Y-9179400D01*
X12196920Y-9159400D02*
X12176920Y-9179400D01*
X12192160Y-7325520D02*
X12212160Y-7345520D01*
X12212160Y-7325520D02*
X12192160Y-7345520D01*
X12192160Y-7477920D02*
X12212160Y-7497920D01*
X12212160Y-7477920D02*
X12192160Y-7497920D01*
X12192160Y-7645560D02*
X12212160Y-7665560D01*
X12212160Y-7645560D02*
X12192160Y-7665560D01*
X12192160Y-7797960D02*
X12212160Y-7817960D01*
X12212160Y-7797960D02*
X12192160Y-7817960D01*
X12192160Y-7960520D02*
X12212160Y-7980520D01*
X12212160Y-7960520D02*
X12192160Y-7980520D01*
X12192160Y-8112920D02*
X12212160Y-8132920D01*
X12212160Y-8112920D02*
X12192160Y-8132920D01*
X12217560Y-11460640D02*
X12237560Y-11480640D01*
X12237560Y-11460640D02*
X12217560Y-11480640D01*
X12227720Y-8778400D02*
X12247720Y-8798400D01*
X12247720Y-8778400D02*
X12227720Y-8798400D01*
X12227720Y-8930800D02*
X12247720Y-8950800D01*
X12247720Y-8930800D02*
X12227720Y-8950800D01*
X12227720Y-9083200D02*
X12247720Y-9103200D01*
X12247720Y-9083200D02*
X12227720Y-9103200D01*
X12227720Y-9235600D02*
X12247720Y-9255600D01*
X12247720Y-9235600D02*
X12227720Y-9255600D01*
X12268360Y-11389520D02*
X12288360Y-11409520D01*
X12288360Y-11389520D02*
X12268360Y-11409520D01*
X12273440Y-8702200D02*
X12293440Y-8722200D01*
X12293440Y-8702200D02*
X12273440Y-8722200D01*
X12273440Y-8854600D02*
X12293440Y-8874600D01*
X12293440Y-8854600D02*
X12273440Y-8874600D01*
X12273440Y-9007000D02*
X12293440Y-9027000D01*
X12293440Y-9007000D02*
X12273440Y-9027000D01*
X12273440Y-9159400D02*
X12293440Y-9179400D01*
X12293440Y-9159400D02*
X12273440Y-9179400D01*
X12314080Y-11460640D02*
X12334080Y-11480640D01*
X12334080Y-11460640D02*
X12314080Y-11480640D01*
X12359800Y-10109360D02*
X12379800Y-10129360D01*
X12379800Y-10109360D02*
X12359800Y-10129360D01*
X12359800Y-10251600D02*
X12379800Y-10271600D01*
X12379800Y-10251600D02*
X12359800Y-10271600D01*
X12359800Y-10393840D02*
X12379800Y-10413840D01*
X12379800Y-10393840D02*
X12359800Y-10413840D01*
X12359800Y-10912000D02*
X12379800Y-10932000D01*
X12379800Y-10912000D02*
X12359800Y-10932000D01*
X12359800Y-11064400D02*
X12379800Y-11084400D01*
X12379800Y-11064400D02*
X12359800Y-11084400D01*
X12359800Y-11389520D02*
X12379800Y-11409520D01*
X12379800Y-11389520D02*
X12359800Y-11409520D01*
X12380120Y-9469280D02*
X12400120Y-9489280D01*
X12400120Y-9469280D02*
X12380120Y-9489280D01*
X12405520Y-10180480D02*
X12425520Y-10200480D01*
X12425520Y-10180480D02*
X12405520Y-10200480D01*
X12405520Y-10322720D02*
X12425520Y-10342720D01*
X12425520Y-10322720D02*
X12405520Y-10342720D01*
X12410600Y-10835800D02*
X12430600Y-10855800D01*
X12430600Y-10835800D02*
X12410600Y-10855800D01*
X12410600Y-10988200D02*
X12430600Y-11008200D01*
X12430600Y-10988200D02*
X12410600Y-11008200D01*
X12410600Y-11140600D02*
X12430600Y-11160600D01*
X12430600Y-11140600D02*
X12410600Y-11160600D01*
X12425840Y-9393080D02*
X12445840Y-9413080D01*
X12445840Y-9393080D02*
X12425840Y-9413080D01*
X12425840Y-9545480D02*
X12445840Y-9565480D01*
X12445840Y-9545480D02*
X12425840Y-9565480D01*
X12451240Y-10109360D02*
X12471240Y-10129360D01*
X12471240Y-10109360D02*
X12451240Y-10129360D01*
X12451240Y-10251600D02*
X12471240Y-10271600D01*
X12471240Y-10251600D02*
X12451240Y-10271600D01*
X12451240Y-10393840D02*
X12471240Y-10413840D01*
X12471240Y-10393840D02*
X12451240Y-10413840D01*
X12461400Y-10912000D02*
X12481400Y-10932000D01*
X12481400Y-10912000D02*
X12461400Y-10932000D01*
X12461400Y-11064400D02*
X12481400Y-11084400D01*
X12481400Y-11064400D02*
X12461400Y-11084400D01*
X12471560Y-9469280D02*
X12491560Y-9489280D01*
X12491560Y-9469280D02*
X12471560Y-9489280D01*
X12496960Y-10180480D02*
X12516960Y-10200480D01*
X12516960Y-10180480D02*
X12496960Y-10200480D01*
X12502040Y-10322720D02*
X12522040Y-10342720D01*
X12522040Y-10322720D02*
X12502040Y-10342720D01*
X12512200Y-10835800D02*
X12532200Y-10855800D01*
X12532200Y-10835800D02*
X12512200Y-10855800D01*
X12512200Y-10988200D02*
X12532200Y-11008200D01*
X12532200Y-10988200D02*
X12512200Y-11008200D01*
X12512200Y-11140600D02*
X12532200Y-11160600D01*
X12532200Y-11140600D02*
X12512200Y-11160600D01*
X12522360Y-9393080D02*
X12542360Y-9413080D01*
X12542360Y-9393080D02*
X12522360Y-9413080D01*
X12522360Y-9545480D02*
X12542360Y-9565480D01*
X12542360Y-9545480D02*
X12522360Y-9565480D01*
X12542680Y-10109360D02*
X12562680Y-10129360D01*
X12562680Y-10109360D02*
X12542680Y-10129360D01*
X12542680Y-10251600D02*
X12562680Y-10271600D01*
X12562680Y-10251600D02*
X12542680Y-10271600D01*
X12547760Y-10393840D02*
X12567760Y-10413840D01*
X12567760Y-10393840D02*
X12547760Y-10413840D01*
X12563000Y-10912000D02*
X12583000Y-10932000D01*
X12583000Y-10912000D02*
X12563000Y-10932000D01*
X12563000Y-11064400D02*
X12583000Y-11084400D01*
X12583000Y-11064400D02*
X12563000Y-11084400D01*
X12568080Y-9469280D02*
X12588080Y-9489280D01*
X12588080Y-9469280D02*
X12568080Y-9489280D01*
X12588400Y-10180480D02*
X12608400Y-10200480D01*
X12608400Y-10180480D02*
X12588400Y-10200480D01*
X12593480Y-10322720D02*
X12613480Y-10342720D01*
X12613480Y-10322720D02*
X12593480Y-10342720D01*
X12705240Y-8956200D02*
X12725240Y-8976200D01*
X12725240Y-8956200D02*
X12705240Y-8976200D01*
X12750960Y-8885080D02*
X12770960Y-8905080D01*
X12770960Y-8885080D02*
X12750960Y-8905080D01*
X12796680Y-8956200D02*
X12816680Y-8976200D01*
X12816680Y-8956200D02*
X12796680Y-8976200D01*
X12829700Y-9524400D02*
X12849700Y-9544400D01*
X12849700Y-9524400D02*
X12829700Y-9544400D01*
X12829700Y-11032900D02*
X12849700Y-11052900D01*
X12849700Y-11032900D02*
X12829700Y-11052900D01*
X12847480Y-8885080D02*
X12867480Y-8905080D01*
X12867480Y-8885080D02*
X12847480Y-8905080D01*
X12883040Y-5677060D02*
X12903040Y-5697060D01*
X12903040Y-5677060D02*
X12883040Y-5697060D01*
X12893200Y-8956200D02*
X12913200Y-8976200D01*
X12913200Y-8956200D02*
X12893200Y-8976200D01*
X12933840Y-7305200D02*
X12953840Y-7325200D01*
X12953840Y-7305200D02*
X12933840Y-7325200D01*
X12933840Y-7457600D02*
X12953840Y-7477600D01*
X12953840Y-7457600D02*
X12933840Y-7477600D01*
X12933840Y-7625240D02*
X12953840Y-7645240D01*
X12953840Y-7625240D02*
X12933840Y-7645240D01*
X12933840Y-7777640D02*
X12953840Y-7797640D01*
X12953840Y-7777640D02*
X12933840Y-7797640D01*
X12938920Y-8885080D02*
X12958920Y-8905080D01*
X12958920Y-8885080D02*
X12938920Y-8905080D01*
X12979560Y-7381400D02*
X12999560Y-7401400D01*
X12999560Y-7381400D02*
X12979560Y-7401400D01*
X12979560Y-7533800D02*
X12999560Y-7553800D01*
X12999560Y-7533800D02*
X12979560Y-7553800D01*
X12979560Y-7701440D02*
X12999560Y-7721440D01*
X12999560Y-7701440D02*
X12979560Y-7721440D01*
X12979560Y-7853840D02*
X12999560Y-7873840D01*
X12999560Y-7853840D02*
X12979560Y-7873840D01*
X13025280Y-7305200D02*
X13045280Y-7325200D01*
X13045280Y-7305200D02*
X13025280Y-7325200D01*
X13025280Y-7457600D02*
X13045280Y-7477600D01*
X13045280Y-7457600D02*
X13025280Y-7477600D01*
X13025280Y-7625240D02*
X13045280Y-7645240D01*
X13045280Y-7625240D02*
X13025280Y-7645240D01*
X13025280Y-7777640D02*
X13045280Y-7797640D01*
X13045280Y-7777640D02*
X13025280Y-7797640D01*
X13076080Y-7381400D02*
X13096080Y-7401400D01*
X13096080Y-7381400D02*
X13076080Y-7401400D01*
X13076080Y-7533800D02*
X13096080Y-7553800D01*
X13096080Y-7533800D02*
X13076080Y-7553800D01*
X13076080Y-7701440D02*
X13096080Y-7721440D01*
X13096080Y-7701440D02*
X13076080Y-7721440D01*
X13076080Y-7853840D02*
X13096080Y-7873840D01*
X13096080Y-7853840D02*
X13076080Y-7873840D01*
X13096400Y-10104280D02*
X13116400Y-10124280D01*
X13116400Y-10104280D02*
X13096400Y-10124280D01*
X13096400Y-10246520D02*
X13116400Y-10266520D01*
X13116400Y-10246520D02*
X13096400Y-10266520D01*
X13096400Y-10388760D02*
X13116400Y-10408760D01*
X13116400Y-10388760D02*
X13096400Y-10408760D01*
X13096400Y-10912000D02*
X13116400Y-10932000D01*
X13116400Y-10912000D02*
X13096400Y-10932000D01*
X13096400Y-11064400D02*
X13116400Y-11084400D01*
X13116400Y-11064400D02*
X13096400Y-11084400D01*
X13111640Y-9464200D02*
X13131640Y-9484200D01*
X13131640Y-9464200D02*
X13111640Y-9484200D01*
X13121800Y-7305200D02*
X13141800Y-7325200D01*
X13141800Y-7305200D02*
X13121800Y-7325200D01*
X13121800Y-7457600D02*
X13141800Y-7477600D01*
X13141800Y-7457600D02*
X13121800Y-7477600D01*
X13121800Y-7625240D02*
X13141800Y-7645240D01*
X13141800Y-7625240D02*
X13121800Y-7645240D01*
X13121800Y-7777640D02*
X13141800Y-7797640D01*
X13141800Y-7777640D02*
X13121800Y-7797640D01*
X13142120Y-10175400D02*
X13162120Y-10195400D01*
X13162120Y-10175400D02*
X13142120Y-10195400D01*
X13142120Y-10317640D02*
X13162120Y-10337640D01*
X13162120Y-10317640D02*
X13142120Y-10337640D01*
X13147200Y-10835800D02*
X13167200Y-10855800D01*
X13167200Y-10835800D02*
X13147200Y-10855800D01*
X13147200Y-10988200D02*
X13167200Y-11008200D01*
X13167200Y-10988200D02*
X13147200Y-11008200D01*
X13147200Y-11140600D02*
X13167200Y-11160600D01*
X13167200Y-11140600D02*
X13147200Y-11160600D01*
X13157360Y-9388000D02*
X13177360Y-9408000D01*
X13177360Y-9388000D02*
X13157360Y-9408000D01*
X13157360Y-9540400D02*
X13177360Y-9560400D01*
X13177360Y-9540400D02*
X13157360Y-9560400D01*
X13187840Y-10104280D02*
X13207840Y-10124280D01*
X13207840Y-10104280D02*
X13187840Y-10124280D01*
X13187840Y-10246520D02*
X13207840Y-10266520D01*
X13207840Y-10246520D02*
X13187840Y-10266520D01*
X13187840Y-10388760D02*
X13207840Y-10408760D01*
X13207840Y-10388760D02*
X13187840Y-10408760D01*
X13198000Y-10912000D02*
X13218000Y-10932000D01*
X13218000Y-10912000D02*
X13198000Y-10932000D01*
X13198000Y-11064400D02*
X13218000Y-11084400D01*
X13218000Y-11064400D02*
X13198000Y-11084400D01*
X13203080Y-9464200D02*
X13223080Y-9484200D01*
X13223080Y-9464200D02*
X13203080Y-9484200D01*
X13233560Y-10175400D02*
X13253560Y-10195400D01*
X13253560Y-10175400D02*
X13233560Y-10195400D01*
X13238640Y-10317640D02*
X13258640Y-10337640D01*
X13258640Y-10317640D02*
X13238640Y-10337640D01*
X13248800Y-10835800D02*
X13268800Y-10855800D01*
X13268800Y-10835800D02*
X13248800Y-10855800D01*
X13248800Y-10988200D02*
X13268800Y-11008200D01*
X13268800Y-10988200D02*
X13248800Y-11008200D01*
X13248800Y-11140600D02*
X13268800Y-11160600D01*
X13268800Y-11140600D02*
X13248800Y-11160600D01*
X13253880Y-5212240D02*
X13273880Y-5232240D01*
X13273880Y-5212240D02*
X13253880Y-5232240D01*
X13253880Y-5354480D02*
X13273880Y-5374480D01*
X13273880Y-5354480D02*
X13253880Y-5374480D01*
X13253880Y-5496720D02*
X13273880Y-5516720D01*
X13273880Y-5496720D02*
X13253880Y-5516720D01*
X13253880Y-9388000D02*
X13273880Y-9408000D01*
X13273880Y-9388000D02*
X13253880Y-9408000D01*
X13253880Y-9540400D02*
X13273880Y-9560400D01*
X13273880Y-9540400D02*
X13253880Y-9560400D01*
X13279280Y-10104280D02*
X13299280Y-10124280D01*
X13299280Y-10104280D02*
X13279280Y-10124280D01*
X13279280Y-10246520D02*
X13299280Y-10266520D01*
X13299280Y-10246520D02*
X13279280Y-10266520D01*
X13284360Y-10388760D02*
X13304360Y-10408760D01*
X13304360Y-10388760D02*
X13284360Y-10408760D01*
X13299600Y-5283360D02*
X13319600Y-5303360D01*
X13319600Y-5283360D02*
X13299600Y-5303360D01*
X13299600Y-5425600D02*
X13319600Y-5445600D01*
X13319600Y-5425600D02*
X13299600Y-5445600D01*
X13299600Y-9464200D02*
X13319600Y-9484200D01*
X13319600Y-9464200D02*
X13299600Y-9484200D01*
X13299600Y-10912000D02*
X13319600Y-10932000D01*
X13319600Y-10912000D02*
X13299600Y-10932000D01*
X13299600Y-11064400D02*
X13319600Y-11084400D01*
X13319600Y-11064400D02*
X13299600Y-11084400D01*
X13325000Y-10175400D02*
X13345000Y-10195400D01*
X13345000Y-10175400D02*
X13325000Y-10195400D01*
X13330080Y-10317640D02*
X13350080Y-10337640D01*
X13350080Y-10317640D02*
X13330080Y-10337640D01*
X13345320Y-5212240D02*
X13365320Y-5232240D01*
X13365320Y-5212240D02*
X13345320Y-5232240D01*
X13345320Y-5354480D02*
X13365320Y-5374480D01*
X13365320Y-5354480D02*
X13345320Y-5374480D01*
X13345320Y-5496720D02*
X13365320Y-5516720D01*
X13365320Y-5496720D02*
X13345320Y-5516720D01*
X13345320Y-8930800D02*
X13365320Y-8950800D01*
X13365320Y-8930800D02*
X13345320Y-8950800D01*
X13391040Y-5283360D02*
X13411040Y-5303360D01*
X13411040Y-5283360D02*
X13391040Y-5303360D01*
X13391040Y-8859680D02*
X13411040Y-8879680D01*
X13411040Y-8859680D02*
X13391040Y-8879680D01*
X13396120Y-5425600D02*
X13416120Y-5445600D01*
X13416120Y-5425600D02*
X13396120Y-5445600D01*
X13436760Y-5212240D02*
X13456760Y-5232240D01*
X13456760Y-5212240D02*
X13436760Y-5232240D01*
X13436760Y-5354480D02*
X13456760Y-5374480D01*
X13456760Y-5354480D02*
X13436760Y-5374480D01*
X13436760Y-8930800D02*
X13456760Y-8950800D01*
X13456760Y-8930800D02*
X13436760Y-8950800D01*
X13441840Y-5496720D02*
X13461840Y-5516720D01*
X13461840Y-5496720D02*
X13441840Y-5516720D01*
X13482480Y-5283360D02*
X13502480Y-5303360D01*
X13502480Y-5283360D02*
X13482480Y-5303360D01*
X13487560Y-5425600D02*
X13507560Y-5445600D01*
X13507560Y-5425600D02*
X13487560Y-5445600D01*
X13487560Y-8859680D02*
X13507560Y-8879680D01*
X13507560Y-8859680D02*
X13487560Y-8879680D01*
X13533280Y-8930800D02*
X13553280Y-8950800D01*
X13553280Y-8930800D02*
X13533280Y-8950800D01*
X13548520Y-7284880D02*
X13568520Y-7304880D01*
X13568520Y-7284880D02*
X13548520Y-7304880D01*
X13548520Y-7427120D02*
X13568520Y-7447120D01*
X13568520Y-7427120D02*
X13548520Y-7447120D01*
X13548520Y-7569360D02*
X13568520Y-7589360D01*
X13568520Y-7569360D02*
X13548520Y-7589360D01*
X13548520Y-7960520D02*
X13568520Y-7980520D01*
X13568520Y-7960520D02*
X13548520Y-7980520D01*
X13548520Y-8102760D02*
X13568520Y-8122760D01*
X13568520Y-8102760D02*
X13548520Y-8122760D01*
X13548520Y-8245000D02*
X13568520Y-8265000D01*
X13568520Y-8245000D02*
X13548520Y-8265000D01*
X13566300Y-9524400D02*
X13586300Y-9544400D01*
X13586300Y-9524400D02*
X13566300Y-9544400D01*
X13566300Y-11023500D02*
X13586300Y-11043500D01*
X13586300Y-11023500D02*
X13566300Y-11043500D01*
X13579000Y-8859680D02*
X13599000Y-8879680D01*
X13599000Y-8859680D02*
X13579000Y-8879680D01*
X13594240Y-7356000D02*
X13614240Y-7376000D01*
X13614240Y-7356000D02*
X13594240Y-7376000D01*
X13594240Y-7498240D02*
X13614240Y-7518240D01*
X13614240Y-7498240D02*
X13594240Y-7518240D01*
X13594240Y-8031640D02*
X13614240Y-8051640D01*
X13614240Y-8031640D02*
X13594240Y-8051640D01*
X13594240Y-8173880D02*
X13614240Y-8193880D01*
X13614240Y-8173880D02*
X13594240Y-8193880D01*
X13639960Y-7284880D02*
X13659960Y-7304880D01*
X13659960Y-7284880D02*
X13639960Y-7304880D01*
X13639960Y-7427120D02*
X13659960Y-7447120D01*
X13659960Y-7427120D02*
X13639960Y-7447120D01*
X13639960Y-7569360D02*
X13659960Y-7589360D01*
X13659960Y-7569360D02*
X13639960Y-7589360D01*
X13639960Y-7960520D02*
X13659960Y-7980520D01*
X13659960Y-7960520D02*
X13639960Y-7980520D01*
X13639960Y-8102760D02*
X13659960Y-8122760D01*
X13659960Y-8102760D02*
X13639960Y-8122760D01*
X13639960Y-8245000D02*
X13659960Y-8265000D01*
X13659960Y-8245000D02*
X13639960Y-8265000D01*
X13685680Y-7356000D02*
X13705680Y-7376000D01*
X13705680Y-7356000D02*
X13685680Y-7376000D01*
X13685680Y-8031640D02*
X13705680Y-8051640D01*
X13705680Y-8031640D02*
X13685680Y-8051640D01*
X13690760Y-7498240D02*
X13710760Y-7518240D01*
X13710760Y-7498240D02*
X13690760Y-7518240D01*
X13690760Y-8173880D02*
X13710760Y-8193880D01*
X13710760Y-8173880D02*
X13690760Y-8193880D01*
X13711080Y-6360320D02*
X13731080Y-6380320D01*
X13731080Y-6360320D02*
X13711080Y-6380320D01*
X13711080Y-6502560D02*
X13731080Y-6522560D01*
X13731080Y-6502560D02*
X13711080Y-6522560D01*
X13711080Y-6644800D02*
X13731080Y-6664800D01*
X13731080Y-6644800D02*
X13711080Y-6664800D01*
X13731400Y-7284880D02*
X13751400Y-7304880D01*
X13751400Y-7284880D02*
X13731400Y-7304880D01*
X13731400Y-7427120D02*
X13751400Y-7447120D01*
X13751400Y-7427120D02*
X13731400Y-7447120D01*
X13731400Y-7960520D02*
X13751400Y-7980520D01*
X13751400Y-7960520D02*
X13731400Y-7980520D01*
X13731400Y-8102760D02*
X13751400Y-8122760D01*
X13751400Y-8102760D02*
X13731400Y-8122760D01*
X13736480Y-7569360D02*
X13756480Y-7589360D01*
X13756480Y-7569360D02*
X13736480Y-7589360D01*
X13736480Y-8245000D02*
X13756480Y-8265000D01*
X13756480Y-8245000D02*
X13736480Y-8265000D01*
X13756800Y-6431440D02*
X13776800Y-6451440D01*
X13776800Y-6431440D02*
X13756800Y-6451440D01*
X13756800Y-6573680D02*
X13776800Y-6593680D01*
X13776800Y-6573680D02*
X13756800Y-6593680D01*
X13777120Y-7356000D02*
X13797120Y-7376000D01*
X13797120Y-7356000D02*
X13777120Y-7376000D01*
X13777120Y-8031640D02*
X13797120Y-8051640D01*
X13797120Y-8031640D02*
X13777120Y-8051640D01*
X13782200Y-7498240D02*
X13802200Y-7518240D01*
X13802200Y-7498240D02*
X13782200Y-7518240D01*
X13782200Y-8173880D02*
X13802200Y-8193880D01*
X13802200Y-8173880D02*
X13782200Y-8193880D01*
X13802520Y-6360320D02*
X13822520Y-6380320D01*
X13822520Y-6360320D02*
X13802520Y-6380320D01*
X13802520Y-6502560D02*
X13822520Y-6522560D01*
X13822520Y-6502560D02*
X13802520Y-6522560D01*
X13802520Y-6644800D02*
X13822520Y-6664800D01*
X13822520Y-6644800D02*
X13802520Y-6664800D01*
X13820300Y-10912000D02*
X13840300Y-10932000D01*
X13840300Y-10912000D02*
X13820300Y-10932000D01*
X13820300Y-11064400D02*
X13840300Y-11084400D01*
X13840300Y-11064400D02*
X13820300Y-11084400D01*
X13848240Y-6431440D02*
X13868240Y-6451440D01*
X13868240Y-6431440D02*
X13848240Y-6451440D01*
X13853320Y-6573680D02*
X13873320Y-6593680D01*
X13873320Y-6573680D02*
X13853320Y-6593680D01*
X13871100Y-10835800D02*
X13891100Y-10855800D01*
X13891100Y-10835800D02*
X13871100Y-10855800D01*
X13871100Y-10988200D02*
X13891100Y-11008200D01*
X13891100Y-10988200D02*
X13871100Y-11008200D01*
X13871100Y-11140600D02*
X13891100Y-11160600D01*
X13891100Y-11140600D02*
X13871100Y-11160600D01*
X13873640Y-9403140D02*
X13893640Y-9423140D01*
X13893640Y-9403140D02*
X13873640Y-9423140D01*
X13893960Y-6360320D02*
X13913960Y-6380320D01*
X13913960Y-6360320D02*
X13893960Y-6380320D01*
X13893960Y-6502560D02*
X13913960Y-6522560D01*
X13913960Y-6502560D02*
X13893960Y-6522560D01*
X13899040Y-6644800D02*
X13919040Y-6664800D01*
X13919040Y-6644800D02*
X13899040Y-6664800D01*
X13909200Y-10190640D02*
X13929200Y-10210640D01*
X13929200Y-10190640D02*
X13909200Y-10210640D01*
X13909200Y-10343040D02*
X13929200Y-10363040D01*
X13929200Y-10343040D02*
X13909200Y-10363040D01*
X13921900Y-10912000D02*
X13941900Y-10932000D01*
X13941900Y-10912000D02*
X13921900Y-10932000D01*
X13921900Y-11064400D02*
X13941900Y-11084400D01*
X13941900Y-11064400D02*
X13921900Y-11084400D01*
X13939680Y-6431440D02*
X13959680Y-6451440D01*
X13959680Y-6431440D02*
X13939680Y-6451440D01*
X13944760Y-6573680D02*
X13964760Y-6593680D01*
X13964760Y-6573680D02*
X13944760Y-6593680D01*
X13960000Y-10114440D02*
X13980000Y-10134440D01*
X13980000Y-10114440D02*
X13960000Y-10134440D01*
X13960000Y-10266840D02*
X13980000Y-10286840D01*
X13980000Y-10266840D02*
X13960000Y-10286840D01*
X13960000Y-10419240D02*
X13980000Y-10439240D01*
X13980000Y-10419240D02*
X13960000Y-10439240D01*
X13972700Y-10835800D02*
X13992700Y-10855800D01*
X13992700Y-10835800D02*
X13972700Y-10855800D01*
X13972700Y-10988200D02*
X13992700Y-11008200D01*
X13992700Y-10988200D02*
X13972700Y-11008200D01*
X13972700Y-11140600D02*
X13992700Y-11160600D01*
X13992700Y-11140600D02*
X13972700Y-11160600D01*
X14005720Y-9093360D02*
X14025720Y-9113360D01*
X14025720Y-9093360D02*
X14005720Y-9113360D01*
X14010800Y-10190640D02*
X14030800Y-10210640D01*
X14030800Y-10190640D02*
X14010800Y-10210640D01*
X14010800Y-10343040D02*
X14030800Y-10363040D01*
X14030800Y-10343040D02*
X14010800Y-10363040D01*
X14023500Y-10912000D02*
X14043500Y-10932000D01*
X14043500Y-10912000D02*
X14023500Y-10932000D01*
X14023500Y-11064400D02*
X14043500Y-11084400D01*
X14043500Y-11064400D02*
X14023500Y-11084400D01*
X14031120Y-9238140D02*
X14051120Y-9258140D01*
X14051120Y-9238140D02*
X14031120Y-9258140D01*
X14061600Y-10114440D02*
X14081600Y-10134440D01*
X14081600Y-10114440D02*
X14061600Y-10134440D01*
X14061600Y-10266840D02*
X14081600Y-10286840D01*
X14081600Y-10266840D02*
X14061600Y-10286840D01*
X14061600Y-10419240D02*
X14081600Y-10439240D01*
X14081600Y-10419240D02*
X14061600Y-10439240D01*
X14069740Y-9855360D02*
X14089740Y-9875360D01*
X14089740Y-9855360D02*
X14069740Y-9875360D01*
X14111100Y-9951880D02*
X14131100Y-9971880D01*
X14131100Y-9951880D02*
X14111100Y-9971880D01*
X14112400Y-10190640D02*
X14132400Y-10210640D01*
X14132400Y-10190640D02*
X14112400Y-10210640D01*
X14112400Y-10343040D02*
X14132400Y-10363040D01*
X14132400Y-10343040D02*
X14112400Y-10363040D01*
X14181560Y-9393720D02*
X14201560Y-9413720D01*
X14201560Y-9393720D02*
X14181560Y-9413720D01*
X14190723Y-9879417D02*
X14210723Y-9899417D01*
X14210723Y-9879417D02*
X14190723Y-9899417D01*
X14302900Y-10480200D02*
X14322900Y-10500200D01*
X14322900Y-10480200D02*
X14302900Y-10500200D01*
X14302900Y-11020200D02*
X14322900Y-11040200D01*
X14322900Y-11020200D02*
X14302900Y-11040200D01*
X14396880Y-11679080D02*
X14416880Y-11699080D01*
X14416880Y-11679080D02*
X14396880Y-11699080D01*
X14396880Y-11831480D02*
X14416880Y-11851480D01*
X14416880Y-11831480D02*
X14396880Y-11851480D01*
X14447680Y-11602880D02*
X14467680Y-11622880D01*
X14467680Y-11602880D02*
X14447680Y-11622880D01*
X14447680Y-11755280D02*
X14467680Y-11775280D01*
X14467680Y-11755280D02*
X14447680Y-11775280D01*
X14447680Y-11907680D02*
X14467680Y-11927680D01*
X14467680Y-11907680D02*
X14447680Y-11927680D01*
X14498480Y-11679080D02*
X14518480Y-11699080D01*
X14518480Y-11679080D02*
X14498480Y-11699080D01*
X14498480Y-11831480D02*
X14518480Y-11851480D01*
X14518480Y-11831480D02*
X14498480Y-11851480D01*
X14528960Y-10922160D02*
X14548960Y-10942160D01*
X14548960Y-10922160D02*
X14528960Y-10942160D01*
X14528960Y-11013600D02*
X14548960Y-11033600D01*
X14548960Y-11013600D02*
X14528960Y-11033600D01*
X14528960Y-11110120D02*
X14548960Y-11130120D01*
X14548960Y-11110120D02*
X14528960Y-11130120D01*
X14549280Y-11602880D02*
X14569280Y-11622880D01*
X14569280Y-11602880D02*
X14549280Y-11622880D01*
X14549280Y-11755280D02*
X14569280Y-11775280D01*
X14569280Y-11755280D02*
X14549280Y-11775280D01*
X14549280Y-11907680D02*
X14569280Y-11927680D01*
X14569280Y-11907680D02*
X14549280Y-11927680D01*
X14600080Y-10967880D02*
X14620080Y-10987880D01*
X14620080Y-10967880D02*
X14600080Y-10987880D01*
X14600080Y-11064400D02*
X14620080Y-11084400D01*
X14620080Y-11064400D02*
X14600080Y-11084400D01*
X14600080Y-11155840D02*
X14620080Y-11175840D01*
X14620080Y-11155840D02*
X14600080Y-11175840D01*
X14600080Y-11679080D02*
X14620080Y-11699080D01*
X14620080Y-11679080D02*
X14600080Y-11699080D01*
X14600080Y-11831480D02*
X14620080Y-11851480D01*
X14620080Y-11831480D02*
X14600080Y-11851480D01*
X14810900Y-10238900D02*
X14830900Y-10258900D01*
X14830900Y-10238900D02*
X14810900Y-10258900D01*
X14864240Y-6543200D02*
X14884240Y-6563200D01*
X14884240Y-6543200D02*
X14864240Y-6563200D01*
X14864240Y-6685440D02*
X14884240Y-6705440D01*
X14884240Y-6685440D02*
X14864240Y-6705440D01*
X14864240Y-6827680D02*
X14884240Y-6847680D01*
X14884240Y-6827680D02*
X14864240Y-6847680D01*
X14864240Y-7284880D02*
X14884240Y-7304880D01*
X14884240Y-7284880D02*
X14864240Y-7304880D01*
X14864240Y-7427120D02*
X14884240Y-7447120D01*
X14884240Y-7427120D02*
X14864240Y-7447120D01*
X14864240Y-7569360D02*
X14884240Y-7589360D01*
X14884240Y-7569360D02*
X14864240Y-7589360D01*
X14864240Y-7960520D02*
X14884240Y-7980520D01*
X14884240Y-7960520D02*
X14864240Y-7980520D01*
X14864240Y-8102760D02*
X14884240Y-8122760D01*
X14884240Y-8102760D02*
X14864240Y-8122760D01*
X14864240Y-8245000D02*
X14884240Y-8265000D01*
X14884240Y-8245000D02*
X14864240Y-8265000D01*
X14869320Y-8600600D02*
X14889320Y-8620600D01*
X14889320Y-8600600D02*
X14869320Y-8620600D01*
X14869320Y-8742840D02*
X14889320Y-8762840D01*
X14889320Y-8742840D02*
X14869320Y-8762840D01*
X14869320Y-8885080D02*
X14889320Y-8905080D01*
X14889320Y-8885080D02*
X14869320Y-8905080D01*
X14909960Y-6614320D02*
X14929960Y-6634320D01*
X14929960Y-6614320D02*
X14909960Y-6634320D01*
X14909960Y-6756560D02*
X14929960Y-6776560D01*
X14929960Y-6756560D02*
X14909960Y-6776560D01*
X14909960Y-7356000D02*
X14929960Y-7376000D01*
X14929960Y-7356000D02*
X14909960Y-7376000D01*
X14909960Y-7498240D02*
X14929960Y-7518240D01*
X14929960Y-7498240D02*
X14909960Y-7518240D01*
X14909960Y-8031640D02*
X14929960Y-8051640D01*
X14929960Y-8031640D02*
X14909960Y-8051640D01*
X14909960Y-8173880D02*
X14929960Y-8193880D01*
X14929960Y-8173880D02*
X14909960Y-8193880D01*
X14915040Y-8671720D02*
X14935040Y-8691720D01*
X14935040Y-8671720D02*
X14915040Y-8691720D01*
X14915040Y-8813960D02*
X14935040Y-8833960D01*
X14935040Y-8813960D02*
X14915040Y-8833960D01*
X14955680Y-6543200D02*
X14975680Y-6563200D01*
X14975680Y-6543200D02*
X14955680Y-6563200D01*
X14955680Y-6685440D02*
X14975680Y-6705440D01*
X14975680Y-6685440D02*
X14955680Y-6705440D01*
X14955680Y-6827680D02*
X14975680Y-6847680D01*
X14975680Y-6827680D02*
X14955680Y-6847680D01*
X14955680Y-7284880D02*
X14975680Y-7304880D01*
X14975680Y-7284880D02*
X14955680Y-7304880D01*
X14955680Y-7427120D02*
X14975680Y-7447120D01*
X14975680Y-7427120D02*
X14955680Y-7447120D01*
X14955680Y-7569360D02*
X14975680Y-7589360D01*
X14975680Y-7569360D02*
X14955680Y-7589360D01*
X14955680Y-7960520D02*
X14975680Y-7980520D01*
X14975680Y-7960520D02*
X14955680Y-7980520D01*
X14955680Y-8102760D02*
X14975680Y-8122760D01*
X14975680Y-8102760D02*
X14955680Y-8122760D01*
X14955680Y-8245000D02*
X14975680Y-8265000D01*
X14975680Y-8245000D02*
X14955680Y-8265000D01*
X14960760Y-8600600D02*
X14980760Y-8620600D01*
X14980760Y-8600600D02*
X14960760Y-8620600D01*
X14960760Y-8742840D02*
X14980760Y-8762840D01*
X14980760Y-8742840D02*
X14960760Y-8762840D01*
X14960760Y-8885080D02*
X14980760Y-8905080D01*
X14980760Y-8885080D02*
X14960760Y-8905080D01*
X15001400Y-6614320D02*
X15021400Y-6634320D01*
X15021400Y-6614320D02*
X15001400Y-6634320D01*
X15001400Y-7356000D02*
X15021400Y-7376000D01*
X15021400Y-7356000D02*
X15001400Y-7376000D01*
X15001400Y-8031640D02*
X15021400Y-8051640D01*
X15021400Y-8031640D02*
X15001400Y-8051640D01*
X15006480Y-6756560D02*
X15026480Y-6776560D01*
X15026480Y-6756560D02*
X15006480Y-6776560D01*
X15006480Y-7498240D02*
X15026480Y-7518240D01*
X15026480Y-7498240D02*
X15006480Y-7518240D01*
X15006480Y-8173880D02*
X15026480Y-8193880D01*
X15026480Y-8173880D02*
X15006480Y-8193880D01*
X15006480Y-8671720D02*
X15026480Y-8691720D01*
X15026480Y-8671720D02*
X15006480Y-8691720D01*
X15011560Y-8813960D02*
X15031560Y-8833960D01*
X15031560Y-8813960D02*
X15011560Y-8833960D01*
X15047120Y-6543200D02*
X15067120Y-6563200D01*
X15067120Y-6543200D02*
X15047120Y-6563200D01*
X15047120Y-6685440D02*
X15067120Y-6705440D01*
X15067120Y-6685440D02*
X15047120Y-6705440D01*
X15047120Y-7284880D02*
X15067120Y-7304880D01*
X15067120Y-7284880D02*
X15047120Y-7304880D01*
X15047120Y-7427120D02*
X15067120Y-7447120D01*
X15067120Y-7427120D02*
X15047120Y-7447120D01*
X15047120Y-7960520D02*
X15067120Y-7980520D01*
X15067120Y-7960520D02*
X15047120Y-7980520D01*
X15047120Y-8102760D02*
X15067120Y-8122760D01*
X15067120Y-8102760D02*
X15047120Y-8122760D01*
X15052200Y-6827680D02*
X15072200Y-6847680D01*
X15072200Y-6827680D02*
X15052200Y-6847680D01*
X15052200Y-7569360D02*
X15072200Y-7589360D01*
X15072200Y-7569360D02*
X15052200Y-7589360D01*
X15052200Y-8245000D02*
X15072200Y-8265000D01*
X15072200Y-8245000D02*
X15052200Y-8265000D01*
X15052200Y-8600600D02*
X15072200Y-8620600D01*
X15072200Y-8600600D02*
X15052200Y-8620600D01*
X15052200Y-8742840D02*
X15072200Y-8762840D01*
X15072200Y-8742840D02*
X15052200Y-8762840D01*
X15057280Y-8885080D02*
X15077280Y-8905080D01*
X15077280Y-8885080D02*
X15057280Y-8905080D01*
X15092840Y-6614320D02*
X15112840Y-6634320D01*
X15112840Y-6614320D02*
X15092840Y-6634320D01*
X15092840Y-7356000D02*
X15112840Y-7376000D01*
X15112840Y-7356000D02*
X15092840Y-7376000D01*
X15092840Y-8031640D02*
X15112840Y-8051640D01*
X15112840Y-8031640D02*
X15092840Y-8051640D01*
X15097920Y-6756560D02*
X15117920Y-6776560D01*
X15117920Y-6756560D02*
X15097920Y-6776560D01*
X15097920Y-7498240D02*
X15117920Y-7518240D01*
X15117920Y-7498240D02*
X15097920Y-7518240D01*
X15097920Y-8173880D02*
X15117920Y-8193880D01*
X15117920Y-8173880D02*
X15097920Y-8193880D01*
X15097920Y-8671720D02*
X15117920Y-8691720D01*
X15117920Y-8671720D02*
X15097920Y-8691720D01*
X15103000Y-8813960D02*
X15123000Y-8833960D01*
X15123000Y-8813960D02*
X15103000Y-8833960D01*
X15103000Y-11361680D02*
X15123000Y-11381680D01*
X15123000Y-11361680D02*
X15103000Y-11381680D01*
X15103000Y-11828960D02*
X15123000Y-11848960D01*
X15123000Y-11828960D02*
X15103000Y-11848960D01*
X15245240Y-9885840D02*
X15265240Y-9905840D01*
X15265240Y-9885840D02*
X15245240Y-9905840D01*
X15245240Y-9977280D02*
X15265240Y-9997280D01*
X15265240Y-9977280D02*
X15245240Y-9997280D01*
X15245240Y-10073800D02*
X15265240Y-10093800D01*
X15265240Y-10073800D02*
X15245240Y-10093800D01*
X15316360Y-9931560D02*
X15336360Y-9951560D01*
X15336360Y-9931560D02*
X15316360Y-9951560D01*
X15316360Y-10028080D02*
X15336360Y-10048080D01*
X15336360Y-10028080D02*
X15316360Y-10048080D01*
X15316360Y-10119520D02*
X15336360Y-10139520D01*
X15336360Y-10119520D02*
X15316360Y-10139520D01*
X14219050Y-11650000D02*
G75*
G02*
X14180950Y-11650000I-19050J0D01*
G01*
X14180950Y-11650000D02*
G75*
G02*
X14219050Y-11650000I19050J0D01*
G01*
X14819050Y-11650000D02*
G75*
G02*
X14780950Y-11650000I-19050J0D01*
G01*
X14780950Y-11650000D02*
G75*
G02*
X14819050Y-11650000I19050J0D01*
G01*
X14061240Y-11440020D02*
X14061240Y-11500020D01*
X14031240Y-11470020D02*
X14091240Y-11470020D01*
X14031240Y-11415020D02*
X14031240Y-11525020D01*
X14091240Y-11525020D02*
G75*
G02*
X14031240Y-11525020I-30000J0D01*
G01*
X14091240Y-11525020D02*
X14091240Y-11415020D01*
X14091240Y-11415020D02*
G75*
G03*
X14031240Y-11415020I-30000J0D01*
G01*
X14061240Y-11858020D02*
X14061240Y-11918020D01*
X14031240Y-11888020D02*
X14091240Y-11888020D01*
X14031240Y-11848020D02*
X14031240Y-11928020D01*
X14091240Y-11928020D02*
G75*
G02*
X14031240Y-11928020I-30000J0D01*
G01*
X14091240Y-11928020D02*
X14091240Y-11848020D01*
X14091240Y-11848020D02*
G75*
G03*
X14031240Y-11848020I-30000J0D01*
G01*
X14925240Y-11440020D02*
X14925240Y-11500020D01*
X14895240Y-11470020D02*
X14955240Y-11470020D01*
X14895240Y-11415020D02*
X14895240Y-11525020D01*
X14955240Y-11525020D02*
G75*
G02*
X14895240Y-11525020I-30000J0D01*
G01*
X14955240Y-11525020D02*
X14955240Y-11415020D01*
X14955240Y-11415020D02*
G75*
G03*
X14895240Y-11415020I-30000J0D01*
G01*
X14925240Y-11858020D02*
X14925240Y-11918020D01*
X14895240Y-11888020D02*
X14955240Y-11888020D01*
X14895240Y-11848020D02*
X14895240Y-11928020D01*
X14955240Y-11928020D02*
G75*
G02*
X14895240Y-11928020I-30000J0D01*
G01*
X14955240Y-11928020D02*
X14955240Y-11848020D01*
X14955240Y-11848020D02*
G75*
G03*
X14895240Y-11848020I-30000J0D01*
G01*
X13705784Y-5880444D02*
X13705784Y-5823875D01*
X13649215Y-5823875D01*
X13649215Y-5880444D01*
X13705784Y-5880444D01*
X14467784Y-5880444D02*
X14467784Y-5823875D01*
X14411215Y-5823875D01*
X14411215Y-5880444D01*
X14467784Y-5880444D01*
D13*
X14334300Y-7113200D02*
X14389300Y-7058200D01*
X14334300Y-7003200D01*
X14279300Y-7058200D01*
X14334300Y-7113200D01*
X14334300Y-8133200D02*
X14389300Y-8078200D01*
X14334300Y-8023200D01*
X14279300Y-8078200D01*
X14334300Y-8133200D01*
D14*
X11098460Y-6928380D02*
X11248460Y-7078380D01*
X11248460Y-6928380D02*
X11098460Y-7078380D01*
X11248460Y-7003380D02*
G75*
G02*
X11098460Y-7003380I-75000J0D01*
G01*
X11098460Y-7003380D02*
G75*
G02*
X11248460Y-7003380I75000J0D01*
G01*
X11098460Y-9188380D02*
X11248460Y-9338380D01*
X11248460Y-9188380D02*
X11098460Y-9338380D01*
X11248460Y-9263380D02*
G75*
G02*
X11098460Y-9263380I-75000J0D01*
G01*
X11098460Y-9263380D02*
G75*
G02*
X11248460Y-9263380I75000J0D01*
G01*
D15*
X11974300Y-6598200D02*
X12134300Y-6758200D01*
X12134300Y-6598200D02*
X11974300Y-6758200D01*
X12054300Y-6598200D02*
X12054300Y-6758200D01*
X11974300Y-6678200D02*
X12134300Y-6678200D01*
X12734300Y-6598200D02*
X12894300Y-6758200D01*
X12894300Y-6598200D02*
X12734300Y-6758200D01*
X12814300Y-6598200D02*
X12814300Y-6758200D01*
X12734300Y-6678200D02*
X12894300Y-6678200D01*
X12988300Y-8378200D02*
X13148300Y-8538200D01*
X13148300Y-8378200D02*
X12988300Y-8538200D01*
X13068300Y-8378200D02*
X13068300Y-8538200D01*
X12988300Y-8458200D02*
X13148300Y-8458200D01*
D16*
X10617200Y-11701400D02*
X10887200Y-11971400D01*
X10887200Y-11701400D02*
X10617200Y-11971400D01*
X10847660Y-11931860D02*
X10847660Y-11740940D01*
X10656740Y-11740940D01*
X10656740Y-11931860D01*
X10847660Y-11931860D01*
X11117200Y-11701400D02*
X11387200Y-11971400D01*
X11387200Y-11701400D02*
X11117200Y-11971400D01*
X11347660Y-11931860D02*
X11347660Y-11740940D01*
X11156740Y-11740940D01*
X11156740Y-11931860D01*
X11347660Y-11931860D01*
X11801920Y-11701400D02*
X12071920Y-11971400D01*
X12071920Y-11701400D02*
X11801920Y-11971400D01*
X12032380Y-11931860D02*
X12032380Y-11740940D01*
X11841460Y-11740940D01*
X11841460Y-11931860D01*
X12032380Y-11931860D01*
X12301920Y-11701400D02*
X12571920Y-11971400D01*
X12571920Y-11701400D02*
X12301920Y-11971400D01*
X12532380Y-11931860D02*
X12532380Y-11740940D01*
X12341460Y-11740940D01*
X12341460Y-11931860D01*
X12532380Y-11931860D01*
X12975400Y-11701400D02*
X13245400Y-11971400D01*
X13245400Y-11701400D02*
X12975400Y-11971400D01*
X13205860Y-11931860D02*
X13205860Y-11740940D01*
X13014940Y-11740940D01*
X13014940Y-11931860D01*
X13205860Y-11931860D01*
X13475400Y-11701400D02*
X13745400Y-11971400D01*
X13745400Y-11701400D02*
X13475400Y-11971400D01*
X13705860Y-11931860D02*
X13705860Y-11740940D01*
X13514940Y-11740940D01*
X13514940Y-11931860D01*
X13705860Y-11931860D01*
D17*
X10290000Y-5340000D02*
X10610000Y-5660000D01*
X10610000Y-5340000D02*
X10290000Y-5660000D01*
X10450000Y-5660000D02*
X10610000Y-5500000D01*
X10450000Y-5340000D01*
X10290000Y-5500000D01*
X10450000Y-5660000D01*
X10340000Y-10740000D02*
X10660000Y-11060000D01*
X10660000Y-10740000D02*
X10340000Y-11060000D01*
X10500000Y-11060000D02*
X10660000Y-10900000D01*
X10500000Y-10740000D01*
X10340000Y-10900000D01*
X10500000Y-11060000D01*
X14790000Y-5340000D02*
X15110000Y-5660000D01*
X15110000Y-5340000D02*
X14790000Y-5660000D01*
X14950000Y-5660000D02*
X15110000Y-5500000D01*
X14950000Y-5340000D01*
X14790000Y-5500000D01*
X14950000Y-5660000D01*
X14840000Y-10740000D02*
X15160000Y-11060000D01*
X15160000Y-10740000D02*
X14840000Y-11060000D01*
X15000000Y-11060000D02*
X15160000Y-10900000D01*
X15000000Y-10740000D01*
X14840000Y-10900000D01*
X15000000Y-11060000D01*
D18*
X11310620Y-5261400D02*
X11310620Y-5711400D01*
X11085620Y-5486400D02*
X11535620Y-5486400D01*
X11535620Y-5486400D02*
G75*
G02*
X11085620Y-5486400I-225000J0D01*
G01*
X11085620Y-5486400D02*
G75*
G02*
X11535620Y-5486400I225000J0D01*
G01*
X12030620Y-5261400D02*
X12030620Y-5711400D01*
X11805620Y-5486400D02*
X12255620Y-5486400D01*
X12255620Y-5486400D02*
G75*
G02*
X11805620Y-5486400I-225000J0D01*
G01*
X11805620Y-5486400D02*
G75*
G02*
X12255620Y-5486400I225000J0D01*
G01*
D11*
X10258277Y-12463984D02*
X10258277Y-12263984D01*
X10258277Y-12263984D02*
X10305896Y-12263984D01*
X10305896Y-12263984D02*
X10334467Y-12273508D01*
X10334467Y-12273508D02*
X10353515Y-12292555D01*
X10353515Y-12292555D02*
X10363039Y-12311603D01*
X10363039Y-12311603D02*
X10372563Y-12349698D01*
X10372563Y-12349698D02*
X10372563Y-12378269D01*
X10372563Y-12378269D02*
X10363039Y-12416365D01*
X10363039Y-12416365D02*
X10353515Y-12435412D01*
X10353515Y-12435412D02*
X10334467Y-12454460D01*
X10334467Y-12454460D02*
X10305896Y-12463984D01*
X10305896Y-12463984D02*
X10258277Y-12463984D01*
X10458277Y-12463984D02*
X10458277Y-12330650D01*
X10458277Y-12368746D02*
X10467801Y-12349698D01*
X10467801Y-12349698D02*
X10477324Y-12340174D01*
X10477324Y-12340174D02*
X10496372Y-12330650D01*
X10496372Y-12330650D02*
X10515420Y-12330650D01*
X10582086Y-12463984D02*
X10582086Y-12330650D01*
X10582086Y-12263984D02*
X10572563Y-12273508D01*
X10572563Y-12273508D02*
X10582086Y-12283031D01*
X10582086Y-12283031D02*
X10591610Y-12273508D01*
X10591610Y-12273508D02*
X10582086Y-12263984D01*
X10582086Y-12263984D02*
X10582086Y-12283031D01*
X10705896Y-12463984D02*
X10686848Y-12454460D01*
X10686848Y-12454460D02*
X10677324Y-12435412D01*
X10677324Y-12435412D02*
X10677324Y-12263984D01*
X10810658Y-12463984D02*
X10791610Y-12454460D01*
X10791610Y-12454460D02*
X10782086Y-12435412D01*
X10782086Y-12435412D02*
X10782086Y-12263984D01*
X11039229Y-12463984D02*
X11039229Y-12263984D01*
X11039229Y-12263984D02*
X11105896Y-12406841D01*
X11105896Y-12406841D02*
X11172563Y-12263984D01*
X11172563Y-12263984D02*
X11172563Y-12463984D01*
X11353515Y-12463984D02*
X11353515Y-12359222D01*
X11353515Y-12359222D02*
X11343991Y-12340174D01*
X11343991Y-12340174D02*
X11324943Y-12330650D01*
X11324943Y-12330650D02*
X11286848Y-12330650D01*
X11286848Y-12330650D02*
X11267801Y-12340174D01*
X11353515Y-12454460D02*
X11334467Y-12463984D01*
X11334467Y-12463984D02*
X11286848Y-12463984D01*
X11286848Y-12463984D02*
X11267801Y-12454460D01*
X11267801Y-12454460D02*
X11258277Y-12435412D01*
X11258277Y-12435412D02*
X11258277Y-12416365D01*
X11258277Y-12416365D02*
X11267801Y-12397317D01*
X11267801Y-12397317D02*
X11286848Y-12387793D01*
X11286848Y-12387793D02*
X11334467Y-12387793D01*
X11334467Y-12387793D02*
X11353515Y-12378269D01*
X11448753Y-12330650D02*
X11448753Y-12530650D01*
X11448753Y-12340174D02*
X11467801Y-12330650D01*
X11467801Y-12330650D02*
X11505896Y-12330650D01*
X11505896Y-12330650D02*
X11524943Y-12340174D01*
X11524943Y-12340174D02*
X11534467Y-12349698D01*
X11534467Y-12349698D02*
X11543991Y-12368746D01*
X11543991Y-12368746D02*
X11543991Y-12425888D01*
X11543991Y-12425888D02*
X11534467Y-12444936D01*
X11534467Y-12444936D02*
X11524943Y-12454460D01*
X11524943Y-12454460D02*
X11505896Y-12463984D01*
X11505896Y-12463984D02*
X11467801Y-12463984D01*
X11467801Y-12463984D02*
X11448753Y-12454460D01*
X11629705Y-12444936D02*
X11639229Y-12454460D01*
X11639229Y-12454460D02*
X11629705Y-12463984D01*
X11629705Y-12463984D02*
X11620182Y-12454460D01*
X11620182Y-12454460D02*
X11629705Y-12444936D01*
X11629705Y-12444936D02*
X11629705Y-12463984D01*
X11629705Y-12340174D02*
X11639229Y-12349698D01*
X11639229Y-12349698D02*
X11629705Y-12359222D01*
X11629705Y-12359222D02*
X11620182Y-12349698D01*
X11620182Y-12349698D02*
X11629705Y-12340174D01*
X11629705Y-12340174D02*
X11629705Y-12359222D01*
D12*
X9977500Y-12782500D02*
X9997500Y-12802500D01*
X9997500Y-12782500D02*
X9977500Y-12802500D01*
D11*
X10296372Y-12683984D02*
X10315420Y-12683984D01*
X10315420Y-12683984D02*
X10334467Y-12693508D01*
X10334467Y-12693508D02*
X10343991Y-12703031D01*
X10343991Y-12703031D02*
X10353515Y-12722079D01*
X10353515Y-12722079D02*
X10363039Y-12760174D01*
X10363039Y-12760174D02*
X10363039Y-12807793D01*
X10363039Y-12807793D02*
X10353515Y-12845888D01*
X10353515Y-12845888D02*
X10343991Y-12864936D01*
X10343991Y-12864936D02*
X10334467Y-12874460D01*
X10334467Y-12874460D02*
X10315420Y-12883984D01*
X10315420Y-12883984D02*
X10296372Y-12883984D01*
X10296372Y-12883984D02*
X10277324Y-12874460D01*
X10277324Y-12874460D02*
X10267801Y-12864936D01*
X10267801Y-12864936D02*
X10258277Y-12845888D01*
X10258277Y-12845888D02*
X10248753Y-12807793D01*
X10248753Y-12807793D02*
X10248753Y-12760174D01*
X10248753Y-12760174D02*
X10258277Y-12722079D01*
X10258277Y-12722079D02*
X10267801Y-12703031D01*
X10267801Y-12703031D02*
X10277324Y-12693508D01*
X10277324Y-12693508D02*
X10296372Y-12683984D01*
X10448753Y-12864936D02*
X10458277Y-12874460D01*
X10458277Y-12874460D02*
X10448753Y-12883984D01*
X10448753Y-12883984D02*
X10439229Y-12874460D01*
X10439229Y-12874460D02*
X10448753Y-12864936D01*
X10448753Y-12864936D02*
X10448753Y-12883984D01*
X10534467Y-12703031D02*
X10543991Y-12693508D01*
X10543991Y-12693508D02*
X10563039Y-12683984D01*
X10563039Y-12683984D02*
X10610658Y-12683984D01*
X10610658Y-12683984D02*
X10629705Y-12693508D01*
X10629705Y-12693508D02*
X10639229Y-12703031D01*
X10639229Y-12703031D02*
X10648753Y-12722079D01*
X10648753Y-12722079D02*
X10648753Y-12741127D01*
X10648753Y-12741127D02*
X10639229Y-12769698D01*
X10639229Y-12769698D02*
X10524944Y-12883984D01*
X10524944Y-12883984D02*
X10648753Y-12883984D01*
X10772563Y-12683984D02*
X10791610Y-12683984D01*
X10791610Y-12683984D02*
X10810658Y-12693508D01*
X10810658Y-12693508D02*
X10820182Y-12703031D01*
X10820182Y-12703031D02*
X10829705Y-12722079D01*
X10829705Y-12722079D02*
X10839229Y-12760174D01*
X10839229Y-12760174D02*
X10839229Y-12807793D01*
X10839229Y-12807793D02*
X10829705Y-12845888D01*
X10829705Y-12845888D02*
X10820182Y-12864936D01*
X10820182Y-12864936D02*
X10810658Y-12874460D01*
X10810658Y-12874460D02*
X10791610Y-12883984D01*
X10791610Y-12883984D02*
X10772563Y-12883984D01*
X10772563Y-12883984D02*
X10753515Y-12874460D01*
X10753515Y-12874460D02*
X10743991Y-12864936D01*
X10743991Y-12864936D02*
X10734467Y-12845888D01*
X10734467Y-12845888D02*
X10724944Y-12807793D01*
X10724944Y-12807793D02*
X10724944Y-12760174D01*
X10724944Y-12760174D02*
X10734467Y-12722079D01*
X10734467Y-12722079D02*
X10743991Y-12703031D01*
X10743991Y-12703031D02*
X10753515Y-12693508D01*
X10753515Y-12693508D02*
X10772563Y-12683984D01*
X10963039Y-12683984D02*
X10982086Y-12683984D01*
X10982086Y-12683984D02*
X11001134Y-12693508D01*
X11001134Y-12693508D02*
X11010658Y-12703031D01*
X11010658Y-12703031D02*
X11020182Y-12722079D01*
X11020182Y-12722079D02*
X11029705Y-12760174D01*
X11029705Y-12760174D02*
X11029705Y-12807793D01*
X11029705Y-12807793D02*
X11020182Y-12845888D01*
X11020182Y-12845888D02*
X11010658Y-12864936D01*
X11010658Y-12864936D02*
X11001134Y-12874460D01*
X11001134Y-12874460D02*
X10982086Y-12883984D01*
X10982086Y-12883984D02*
X10963039Y-12883984D01*
X10963039Y-12883984D02*
X10943991Y-12874460D01*
X10943991Y-12874460D02*
X10934467Y-12864936D01*
X10934467Y-12864936D02*
X10924944Y-12845888D01*
X10924944Y-12845888D02*
X10915420Y-12807793D01*
X10915420Y-12807793D02*
X10915420Y-12760174D01*
X10915420Y-12760174D02*
X10924944Y-12722079D01*
X10924944Y-12722079D02*
X10934467Y-12703031D01*
X10934467Y-12703031D02*
X10943991Y-12693508D01*
X10943991Y-12693508D02*
X10963039Y-12683984D01*
X11115420Y-12883984D02*
X11115420Y-12750650D01*
X11115420Y-12769698D02*
X11124944Y-12760174D01*
X11124944Y-12760174D02*
X11143991Y-12750650D01*
X11143991Y-12750650D02*
X11172563Y-12750650D01*
X11172563Y-12750650D02*
X11191610Y-12760174D01*
X11191610Y-12760174D02*
X11201134Y-12779222D01*
X11201134Y-12779222D02*
X11201134Y-12883984D01*
X11201134Y-12779222D02*
X11210658Y-12760174D01*
X11210658Y-12760174D02*
X11229705Y-12750650D01*
X11229705Y-12750650D02*
X11258277Y-12750650D01*
X11258277Y-12750650D02*
X11277324Y-12760174D01*
X11277324Y-12760174D02*
X11286848Y-12779222D01*
X11286848Y-12779222D02*
X11286848Y-12883984D01*
X11382086Y-12883984D02*
X11382086Y-12750650D01*
X11382086Y-12769698D02*
X11391610Y-12760174D01*
X11391610Y-12760174D02*
X11410658Y-12750650D01*
X11410658Y-12750650D02*
X11439229Y-12750650D01*
X11439229Y-12750650D02*
X11458277Y-12760174D01*
X11458277Y-12760174D02*
X11467801Y-12779222D01*
X11467801Y-12779222D02*
X11467801Y-12883984D01*
X11467801Y-12779222D02*
X11477324Y-12760174D01*
X11477324Y-12760174D02*
X11496372Y-12750650D01*
X11496372Y-12750650D02*
X11524943Y-12750650D01*
X11524943Y-12750650D02*
X11543991Y-12760174D01*
X11543991Y-12760174D02*
X11553515Y-12779222D01*
X11553515Y-12779222D02*
X11553515Y-12883984D01*
X11943991Y-12674460D02*
X11772563Y-12931603D01*
X12201134Y-12683984D02*
X12220182Y-12683984D01*
X12220182Y-12683984D02*
X12239229Y-12693508D01*
X12239229Y-12693508D02*
X12248753Y-12703031D01*
X12248753Y-12703031D02*
X12258277Y-12722079D01*
X12258277Y-12722079D02*
X12267801Y-12760174D01*
X12267801Y-12760174D02*
X12267801Y-12807793D01*
X12267801Y-12807793D02*
X12258277Y-12845888D01*
X12258277Y-12845888D02*
X12248753Y-12864936D01*
X12248753Y-12864936D02*
X12239229Y-12874460D01*
X12239229Y-12874460D02*
X12220182Y-12883984D01*
X12220182Y-12883984D02*
X12201134Y-12883984D01*
X12201134Y-12883984D02*
X12182086Y-12874460D01*
X12182086Y-12874460D02*
X12172563Y-12864936D01*
X12172563Y-12864936D02*
X12163039Y-12845888D01*
X12163039Y-12845888D02*
X12153515Y-12807793D01*
X12153515Y-12807793D02*
X12153515Y-12760174D01*
X12153515Y-12760174D02*
X12163039Y-12722079D01*
X12163039Y-12722079D02*
X12172563Y-12703031D01*
X12172563Y-12703031D02*
X12182086Y-12693508D01*
X12182086Y-12693508D02*
X12201134Y-12683984D01*
X12353515Y-12864936D02*
X12363039Y-12874460D01*
X12363039Y-12874460D02*
X12353515Y-12883984D01*
X12353515Y-12883984D02*
X12343991Y-12874460D01*
X12343991Y-12874460D02*
X12353515Y-12864936D01*
X12353515Y-12864936D02*
X12353515Y-12883984D01*
X12486848Y-12683984D02*
X12505896Y-12683984D01*
X12505896Y-12683984D02*
X12524944Y-12693508D01*
X12524944Y-12693508D02*
X12534467Y-12703031D01*
X12534467Y-12703031D02*
X12543991Y-12722079D01*
X12543991Y-12722079D02*
X12553515Y-12760174D01*
X12553515Y-12760174D02*
X12553515Y-12807793D01*
X12553515Y-12807793D02*
X12543991Y-12845888D01*
X12543991Y-12845888D02*
X12534467Y-12864936D01*
X12534467Y-12864936D02*
X12524944Y-12874460D01*
X12524944Y-12874460D02*
X12505896Y-12883984D01*
X12505896Y-12883984D02*
X12486848Y-12883984D01*
X12486848Y-12883984D02*
X12467801Y-12874460D01*
X12467801Y-12874460D02*
X12458277Y-12864936D01*
X12458277Y-12864936D02*
X12448753Y-12845888D01*
X12448753Y-12845888D02*
X12439229Y-12807793D01*
X12439229Y-12807793D02*
X12439229Y-12760174D01*
X12439229Y-12760174D02*
X12448753Y-12722079D01*
X12448753Y-12722079D02*
X12458277Y-12703031D01*
X12458277Y-12703031D02*
X12467801Y-12693508D01*
X12467801Y-12693508D02*
X12486848Y-12683984D01*
X12677325Y-12683984D02*
X12696372Y-12683984D01*
X12696372Y-12683984D02*
X12715420Y-12693508D01*
X12715420Y-12693508D02*
X12724944Y-12703031D01*
X12724944Y-12703031D02*
X12734467Y-12722079D01*
X12734467Y-12722079D02*
X12743991Y-12760174D01*
X12743991Y-12760174D02*
X12743991Y-12807793D01*
X12743991Y-12807793D02*
X12734467Y-12845888D01*
X12734467Y-12845888D02*
X12724944Y-12864936D01*
X12724944Y-12864936D02*
X12715420Y-12874460D01*
X12715420Y-12874460D02*
X12696372Y-12883984D01*
X12696372Y-12883984D02*
X12677325Y-12883984D01*
X12677325Y-12883984D02*
X12658277Y-12874460D01*
X12658277Y-12874460D02*
X12648753Y-12864936D01*
X12648753Y-12864936D02*
X12639229Y-12845888D01*
X12639229Y-12845888D02*
X12629706Y-12807793D01*
X12629706Y-12807793D02*
X12629706Y-12760174D01*
X12629706Y-12760174D02*
X12639229Y-12722079D01*
X12639229Y-12722079D02*
X12648753Y-12703031D01*
X12648753Y-12703031D02*
X12658277Y-12693508D01*
X12658277Y-12693508D02*
X12677325Y-12683984D01*
X12810658Y-12683984D02*
X12943991Y-12683984D01*
X12943991Y-12683984D02*
X12858277Y-12883984D01*
X13029706Y-12883984D02*
X13067801Y-12883984D01*
X13067801Y-12883984D02*
X13086848Y-12874460D01*
X13086848Y-12874460D02*
X13096372Y-12864936D01*
X13096372Y-12864936D02*
X13115420Y-12836365D01*
X13115420Y-12836365D02*
X13124944Y-12798269D01*
X13124944Y-12798269D02*
X13124944Y-12722079D01*
X13124944Y-12722079D02*
X13115420Y-12703031D01*
X13115420Y-12703031D02*
X13105896Y-12693508D01*
X13105896Y-12693508D02*
X13086848Y-12683984D01*
X13086848Y-12683984D02*
X13048753Y-12683984D01*
X13048753Y-12683984D02*
X13029706Y-12693508D01*
X13029706Y-12693508D02*
X13020182Y-12703031D01*
X13020182Y-12703031D02*
X13010658Y-12722079D01*
X13010658Y-12722079D02*
X13010658Y-12769698D01*
X13010658Y-12769698D02*
X13020182Y-12788746D01*
X13020182Y-12788746D02*
X13029706Y-12798269D01*
X13029706Y-12798269D02*
X13048753Y-12807793D01*
X13048753Y-12807793D02*
X13086848Y-12807793D01*
X13086848Y-12807793D02*
X13105896Y-12798269D01*
X13105896Y-12798269D02*
X13115420Y-12788746D01*
X13115420Y-12788746D02*
X13124944Y-12769698D01*
X13201134Y-12683984D02*
X13201134Y-12722079D01*
X13277325Y-12683984D02*
X13277325Y-12722079D01*
X13572563Y-12960174D02*
X13563039Y-12950650D01*
X13563039Y-12950650D02*
X13543991Y-12922079D01*
X13543991Y-12922079D02*
X13534468Y-12903031D01*
X13534468Y-12903031D02*
X13524944Y-12874460D01*
X13524944Y-12874460D02*
X13515420Y-12826841D01*
X13515420Y-12826841D02*
X13515420Y-12788746D01*
X13515420Y-12788746D02*
X13524944Y-12741127D01*
X13524944Y-12741127D02*
X13534468Y-12712555D01*
X13534468Y-12712555D02*
X13543991Y-12693508D01*
X13543991Y-12693508D02*
X13563039Y-12664936D01*
X13563039Y-12664936D02*
X13572563Y-12655412D01*
X13734468Y-12750650D02*
X13734468Y-12883984D01*
X13686848Y-12674460D02*
X13639229Y-12817317D01*
X13639229Y-12817317D02*
X13763039Y-12817317D01*
X13848753Y-12883984D02*
X13886848Y-12883984D01*
X13886848Y-12883984D02*
X13905896Y-12874460D01*
X13905896Y-12874460D02*
X13915420Y-12864936D01*
X13915420Y-12864936D02*
X13934468Y-12836365D01*
X13934468Y-12836365D02*
X13943991Y-12798269D01*
X13943991Y-12798269D02*
X13943991Y-12722079D01*
X13943991Y-12722079D02*
X13934468Y-12703031D01*
X13934468Y-12703031D02*
X13924944Y-12693508D01*
X13924944Y-12693508D02*
X13905896Y-12683984D01*
X13905896Y-12683984D02*
X13867801Y-12683984D01*
X13867801Y-12683984D02*
X13848753Y-12693508D01*
X13848753Y-12693508D02*
X13839229Y-12703031D01*
X13839229Y-12703031D02*
X13829706Y-12722079D01*
X13829706Y-12722079D02*
X13829706Y-12769698D01*
X13829706Y-12769698D02*
X13839229Y-12788746D01*
X13839229Y-12788746D02*
X13848753Y-12798269D01*
X13848753Y-12798269D02*
X13867801Y-12807793D01*
X13867801Y-12807793D02*
X13905896Y-12807793D01*
X13905896Y-12807793D02*
X13924944Y-12798269D01*
X13924944Y-12798269D02*
X13934468Y-12788746D01*
X13934468Y-12788746D02*
X13943991Y-12769698D01*
X14124944Y-12683984D02*
X14029706Y-12683984D01*
X14029706Y-12683984D02*
X14020182Y-12779222D01*
X14020182Y-12779222D02*
X14029706Y-12769698D01*
X14029706Y-12769698D02*
X14048753Y-12760174D01*
X14048753Y-12760174D02*
X14096372Y-12760174D01*
X14096372Y-12760174D02*
X14115420Y-12769698D01*
X14115420Y-12769698D02*
X14124944Y-12779222D01*
X14124944Y-12779222D02*
X14134468Y-12798269D01*
X14134468Y-12798269D02*
X14134468Y-12845888D01*
X14134468Y-12845888D02*
X14124944Y-12864936D01*
X14124944Y-12864936D02*
X14115420Y-12874460D01*
X14115420Y-12874460D02*
X14096372Y-12883984D01*
X14096372Y-12883984D02*
X14048753Y-12883984D01*
X14048753Y-12883984D02*
X14029706Y-12874460D01*
X14029706Y-12874460D02*
X14020182Y-12864936D01*
X14372563Y-12883984D02*
X14372563Y-12683984D01*
X14458277Y-12883984D02*
X14458277Y-12779222D01*
X14458277Y-12779222D02*
X14448753Y-12760174D01*
X14448753Y-12760174D02*
X14429706Y-12750650D01*
X14429706Y-12750650D02*
X14401134Y-12750650D01*
X14401134Y-12750650D02*
X14382087Y-12760174D01*
X14382087Y-12760174D02*
X14372563Y-12769698D01*
X14582087Y-12883984D02*
X14563039Y-12874460D01*
X14563039Y-12874460D02*
X14553515Y-12864936D01*
X14553515Y-12864936D02*
X14543991Y-12845888D01*
X14543991Y-12845888D02*
X14543991Y-12788746D01*
X14543991Y-12788746D02*
X14553515Y-12769698D01*
X14553515Y-12769698D02*
X14563039Y-12760174D01*
X14563039Y-12760174D02*
X14582087Y-12750650D01*
X14582087Y-12750650D02*
X14610658Y-12750650D01*
X14610658Y-12750650D02*
X14629706Y-12760174D01*
X14629706Y-12760174D02*
X14639230Y-12769698D01*
X14639230Y-12769698D02*
X14648753Y-12788746D01*
X14648753Y-12788746D02*
X14648753Y-12845888D01*
X14648753Y-12845888D02*
X14639230Y-12864936D01*
X14639230Y-12864936D02*
X14629706Y-12874460D01*
X14629706Y-12874460D02*
X14610658Y-12883984D01*
X14610658Y-12883984D02*
X14582087Y-12883984D01*
X14763039Y-12883984D02*
X14743991Y-12874460D01*
X14743991Y-12874460D02*
X14734468Y-12855412D01*
X14734468Y-12855412D02*
X14734468Y-12683984D01*
X14915420Y-12874460D02*
X14896372Y-12883984D01*
X14896372Y-12883984D02*
X14858277Y-12883984D01*
X14858277Y-12883984D02*
X14839230Y-12874460D01*
X14839230Y-12874460D02*
X14829706Y-12855412D01*
X14829706Y-12855412D02*
X14829706Y-12779222D01*
X14829706Y-12779222D02*
X14839230Y-12760174D01*
X14839230Y-12760174D02*
X14858277Y-12750650D01*
X14858277Y-12750650D02*
X14896372Y-12750650D01*
X14896372Y-12750650D02*
X14915420Y-12760174D01*
X14915420Y-12760174D02*
X14924944Y-12779222D01*
X14924944Y-12779222D02*
X14924944Y-12798269D01*
X14924944Y-12798269D02*
X14829706Y-12817317D01*
X15001134Y-12874460D02*
X15020182Y-12883984D01*
X15020182Y-12883984D02*
X15058277Y-12883984D01*
X15058277Y-12883984D02*
X15077325Y-12874460D01*
X15077325Y-12874460D02*
X15086849Y-12855412D01*
X15086849Y-12855412D02*
X15086849Y-12845888D01*
X15086849Y-12845888D02*
X15077325Y-12826841D01*
X15077325Y-12826841D02*
X15058277Y-12817317D01*
X15058277Y-12817317D02*
X15029706Y-12817317D01*
X15029706Y-12817317D02*
X15010658Y-12807793D01*
X15010658Y-12807793D02*
X15001134Y-12788746D01*
X15001134Y-12788746D02*
X15001134Y-12779222D01*
X15001134Y-12779222D02*
X15010658Y-12760174D01*
X15010658Y-12760174D02*
X15029706Y-12750650D01*
X15029706Y-12750650D02*
X15058277Y-12750650D01*
X15058277Y-12750650D02*
X15077325Y-12760174D01*
X15153515Y-12960174D02*
X15163039Y-12950650D01*
X15163039Y-12950650D02*
X15182087Y-12922079D01*
X15182087Y-12922079D02*
X15191611Y-12903031D01*
X15191611Y-12903031D02*
X15201134Y-12874460D01*
X15201134Y-12874460D02*
X15210658Y-12826841D01*
X15210658Y-12826841D02*
X15210658Y-12788746D01*
X15210658Y-12788746D02*
X15201134Y-12741127D01*
X15201134Y-12741127D02*
X15191611Y-12712555D01*
X15191611Y-12712555D02*
X15182087Y-12693508D01*
X15182087Y-12693508D02*
X15163039Y-12664936D01*
X15163039Y-12664936D02*
X15153515Y-12655412D01*
D12*
X9997500Y-13056500D02*
G75*
G02*
X9959400Y-13056500I-19050J0D01*
G01*
X9959400Y-13056500D02*
G75*
G02*
X9997500Y-13056500I19050J0D01*
G01*
D11*
X10296372Y-12947984D02*
X10315420Y-12947984D01*
X10315420Y-12947984D02*
X10334467Y-12957508D01*
X10334467Y-12957508D02*
X10343991Y-12967031D01*
X10343991Y-12967031D02*
X10353515Y-12986079D01*
X10353515Y-12986079D02*
X10363039Y-13024174D01*
X10363039Y-13024174D02*
X10363039Y-13071793D01*
X10363039Y-13071793D02*
X10353515Y-13109888D01*
X10353515Y-13109888D02*
X10343991Y-13128936D01*
X10343991Y-13128936D02*
X10334467Y-13138460D01*
X10334467Y-13138460D02*
X10315420Y-13147984D01*
X10315420Y-13147984D02*
X10296372Y-13147984D01*
X10296372Y-13147984D02*
X10277324Y-13138460D01*
X10277324Y-13138460D02*
X10267801Y-13128936D01*
X10267801Y-13128936D02*
X10258277Y-13109888D01*
X10258277Y-13109888D02*
X10248753Y-13071793D01*
X10248753Y-13071793D02*
X10248753Y-13024174D01*
X10248753Y-13024174D02*
X10258277Y-12986079D01*
X10258277Y-12986079D02*
X10267801Y-12967031D01*
X10267801Y-12967031D02*
X10277324Y-12957508D01*
X10277324Y-12957508D02*
X10296372Y-12947984D01*
X10448753Y-13128936D02*
X10458277Y-13138460D01*
X10458277Y-13138460D02*
X10448753Y-13147984D01*
X10448753Y-13147984D02*
X10439229Y-13138460D01*
X10439229Y-13138460D02*
X10448753Y-13128936D01*
X10448753Y-13128936D02*
X10448753Y-13147984D01*
X10524944Y-12947984D02*
X10648753Y-12947984D01*
X10648753Y-12947984D02*
X10582086Y-13024174D01*
X10582086Y-13024174D02*
X10610658Y-13024174D01*
X10610658Y-13024174D02*
X10629705Y-13033698D01*
X10629705Y-13033698D02*
X10639229Y-13043222D01*
X10639229Y-13043222D02*
X10648753Y-13062269D01*
X10648753Y-13062269D02*
X10648753Y-13109888D01*
X10648753Y-13109888D02*
X10639229Y-13128936D01*
X10639229Y-13128936D02*
X10629705Y-13138460D01*
X10629705Y-13138460D02*
X10610658Y-13147984D01*
X10610658Y-13147984D02*
X10553515Y-13147984D01*
X10553515Y-13147984D02*
X10534467Y-13138460D01*
X10534467Y-13138460D02*
X10524944Y-13128936D01*
X10763039Y-13033698D02*
X10743991Y-13024174D01*
X10743991Y-13024174D02*
X10734467Y-13014650D01*
X10734467Y-13014650D02*
X10724944Y-12995603D01*
X10724944Y-12995603D02*
X10724944Y-12986079D01*
X10724944Y-12986079D02*
X10734467Y-12967031D01*
X10734467Y-12967031D02*
X10743991Y-12957508D01*
X10743991Y-12957508D02*
X10763039Y-12947984D01*
X10763039Y-12947984D02*
X10801134Y-12947984D01*
X10801134Y-12947984D02*
X10820182Y-12957508D01*
X10820182Y-12957508D02*
X10829705Y-12967031D01*
X10829705Y-12967031D02*
X10839229Y-12986079D01*
X10839229Y-12986079D02*
X10839229Y-12995603D01*
X10839229Y-12995603D02*
X10829705Y-13014650D01*
X10829705Y-13014650D02*
X10820182Y-13024174D01*
X10820182Y-13024174D02*
X10801134Y-13033698D01*
X10801134Y-13033698D02*
X10763039Y-13033698D01*
X10763039Y-13033698D02*
X10743991Y-13043222D01*
X10743991Y-13043222D02*
X10734467Y-13052746D01*
X10734467Y-13052746D02*
X10724944Y-13071793D01*
X10724944Y-13071793D02*
X10724944Y-13109888D01*
X10724944Y-13109888D02*
X10734467Y-13128936D01*
X10734467Y-13128936D02*
X10743991Y-13138460D01*
X10743991Y-13138460D02*
X10763039Y-13147984D01*
X10763039Y-13147984D02*
X10801134Y-13147984D01*
X10801134Y-13147984D02*
X10820182Y-13138460D01*
X10820182Y-13138460D02*
X10829705Y-13128936D01*
X10829705Y-13128936D02*
X10839229Y-13109888D01*
X10839229Y-13109888D02*
X10839229Y-13071793D01*
X10839229Y-13071793D02*
X10829705Y-13052746D01*
X10829705Y-13052746D02*
X10820182Y-13043222D01*
X10820182Y-13043222D02*
X10801134Y-13033698D01*
X11029705Y-13147984D02*
X10915420Y-13147984D01*
X10972563Y-13147984D02*
X10972563Y-12947984D01*
X10972563Y-12947984D02*
X10953515Y-12976555D01*
X10953515Y-12976555D02*
X10934467Y-12995603D01*
X10934467Y-12995603D02*
X10915420Y-13005127D01*
X11115420Y-13147984D02*
X11115420Y-13014650D01*
X11115420Y-13033698D02*
X11124944Y-13024174D01*
X11124944Y-13024174D02*
X11143991Y-13014650D01*
X11143991Y-13014650D02*
X11172563Y-13014650D01*
X11172563Y-13014650D02*
X11191610Y-13024174D01*
X11191610Y-13024174D02*
X11201134Y-13043222D01*
X11201134Y-13043222D02*
X11201134Y-13147984D01*
X11201134Y-13043222D02*
X11210658Y-13024174D01*
X11210658Y-13024174D02*
X11229705Y-13014650D01*
X11229705Y-13014650D02*
X11258277Y-13014650D01*
X11258277Y-13014650D02*
X11277324Y-13024174D01*
X11277324Y-13024174D02*
X11286848Y-13043222D01*
X11286848Y-13043222D02*
X11286848Y-13147984D01*
X11382086Y-13147984D02*
X11382086Y-13014650D01*
X11382086Y-13033698D02*
X11391610Y-13024174D01*
X11391610Y-13024174D02*
X11410658Y-13014650D01*
X11410658Y-13014650D02*
X11439229Y-13014650D01*
X11439229Y-13014650D02*
X11458277Y-13024174D01*
X11458277Y-13024174D02*
X11467801Y-13043222D01*
X11467801Y-13043222D02*
X11467801Y-13147984D01*
X11467801Y-13043222D02*
X11477324Y-13024174D01*
X11477324Y-13024174D02*
X11496372Y-13014650D01*
X11496372Y-13014650D02*
X11524943Y-13014650D01*
X11524943Y-13014650D02*
X11543991Y-13024174D01*
X11543991Y-13024174D02*
X11553515Y-13043222D01*
X11553515Y-13043222D02*
X11553515Y-13147984D01*
X11943991Y-12938460D02*
X11772563Y-13195603D01*
X12201134Y-12947984D02*
X12220182Y-12947984D01*
X12220182Y-12947984D02*
X12239229Y-12957508D01*
X12239229Y-12957508D02*
X12248753Y-12967031D01*
X12248753Y-12967031D02*
X12258277Y-12986079D01*
X12258277Y-12986079D02*
X12267801Y-13024174D01*
X12267801Y-13024174D02*
X12267801Y-13071793D01*
X12267801Y-13071793D02*
X12258277Y-13109888D01*
X12258277Y-13109888D02*
X12248753Y-13128936D01*
X12248753Y-13128936D02*
X12239229Y-13138460D01*
X12239229Y-13138460D02*
X12220182Y-13147984D01*
X12220182Y-13147984D02*
X12201134Y-13147984D01*
X12201134Y-13147984D02*
X12182086Y-13138460D01*
X12182086Y-13138460D02*
X12172563Y-13128936D01*
X12172563Y-13128936D02*
X12163039Y-13109888D01*
X12163039Y-13109888D02*
X12153515Y-13071793D01*
X12153515Y-13071793D02*
X12153515Y-13024174D01*
X12153515Y-13024174D02*
X12163039Y-12986079D01*
X12163039Y-12986079D02*
X12172563Y-12967031D01*
X12172563Y-12967031D02*
X12182086Y-12957508D01*
X12182086Y-12957508D02*
X12201134Y-12947984D01*
X12353515Y-13128936D02*
X12363039Y-13138460D01*
X12363039Y-13138460D02*
X12353515Y-13147984D01*
X12353515Y-13147984D02*
X12343991Y-13138460D01*
X12343991Y-13138460D02*
X12353515Y-13128936D01*
X12353515Y-13128936D02*
X12353515Y-13147984D01*
X12486848Y-12947984D02*
X12505896Y-12947984D01*
X12505896Y-12947984D02*
X12524944Y-12957508D01*
X12524944Y-12957508D02*
X12534467Y-12967031D01*
X12534467Y-12967031D02*
X12543991Y-12986079D01*
X12543991Y-12986079D02*
X12553515Y-13024174D01*
X12553515Y-13024174D02*
X12553515Y-13071793D01*
X12553515Y-13071793D02*
X12543991Y-13109888D01*
X12543991Y-13109888D02*
X12534467Y-13128936D01*
X12534467Y-13128936D02*
X12524944Y-13138460D01*
X12524944Y-13138460D02*
X12505896Y-13147984D01*
X12505896Y-13147984D02*
X12486848Y-13147984D01*
X12486848Y-13147984D02*
X12467801Y-13138460D01*
X12467801Y-13138460D02*
X12458277Y-13128936D01*
X12458277Y-13128936D02*
X12448753Y-13109888D01*
X12448753Y-13109888D02*
X12439229Y-13071793D01*
X12439229Y-13071793D02*
X12439229Y-13024174D01*
X12439229Y-13024174D02*
X12448753Y-12986079D01*
X12448753Y-12986079D02*
X12458277Y-12967031D01*
X12458277Y-12967031D02*
X12467801Y-12957508D01*
X12467801Y-12957508D02*
X12486848Y-12947984D01*
X12743991Y-13147984D02*
X12629706Y-13147984D01*
X12686848Y-13147984D02*
X12686848Y-12947984D01*
X12686848Y-12947984D02*
X12667801Y-12976555D01*
X12667801Y-12976555D02*
X12648753Y-12995603D01*
X12648753Y-12995603D02*
X12629706Y-13005127D01*
X12924944Y-12947984D02*
X12829706Y-12947984D01*
X12829706Y-12947984D02*
X12820182Y-13043222D01*
X12820182Y-13043222D02*
X12829706Y-13033698D01*
X12829706Y-13033698D02*
X12848753Y-13024174D01*
X12848753Y-13024174D02*
X12896372Y-13024174D01*
X12896372Y-13024174D02*
X12915420Y-13033698D01*
X12915420Y-13033698D02*
X12924944Y-13043222D01*
X12924944Y-13043222D02*
X12934467Y-13062269D01*
X12934467Y-13062269D02*
X12934467Y-13109888D01*
X12934467Y-13109888D02*
X12924944Y-13128936D01*
X12924944Y-13128936D02*
X12915420Y-13138460D01*
X12915420Y-13138460D02*
X12896372Y-13147984D01*
X12896372Y-13147984D02*
X12848753Y-13147984D01*
X12848753Y-13147984D02*
X12829706Y-13138460D01*
X12829706Y-13138460D02*
X12820182Y-13128936D01*
X13058277Y-12947984D02*
X13077325Y-12947984D01*
X13077325Y-12947984D02*
X13096372Y-12957508D01*
X13096372Y-12957508D02*
X13105896Y-12967031D01*
X13105896Y-12967031D02*
X13115420Y-12986079D01*
X13115420Y-12986079D02*
X13124944Y-13024174D01*
X13124944Y-13024174D02*
X13124944Y-13071793D01*
X13124944Y-13071793D02*
X13115420Y-13109888D01*
X13115420Y-13109888D02*
X13105896Y-13128936D01*
X13105896Y-13128936D02*
X13096372Y-13138460D01*
X13096372Y-13138460D02*
X13077325Y-13147984D01*
X13077325Y-13147984D02*
X13058277Y-13147984D01*
X13058277Y-13147984D02*
X13039229Y-13138460D01*
X13039229Y-13138460D02*
X13029706Y-13128936D01*
X13029706Y-13128936D02*
X13020182Y-13109888D01*
X13020182Y-13109888D02*
X13010658Y-13071793D01*
X13010658Y-13071793D02*
X13010658Y-13024174D01*
X13010658Y-13024174D02*
X13020182Y-12986079D01*
X13020182Y-12986079D02*
X13029706Y-12967031D01*
X13029706Y-12967031D02*
X13039229Y-12957508D01*
X13039229Y-12957508D02*
X13058277Y-12947984D01*
X13201134Y-12947984D02*
X13201134Y-12986079D01*
X13277325Y-12947984D02*
X13277325Y-12986079D01*
X13572563Y-13224174D02*
X13563039Y-13214650D01*
X13563039Y-13214650D02*
X13543991Y-13186079D01*
X13543991Y-13186079D02*
X13534468Y-13167031D01*
X13534468Y-13167031D02*
X13524944Y-13138460D01*
X13524944Y-13138460D02*
X13515420Y-13090841D01*
X13515420Y-13090841D02*
X13515420Y-13052746D01*
X13515420Y-13052746D02*
X13524944Y-13005127D01*
X13524944Y-13005127D02*
X13534468Y-12976555D01*
X13534468Y-12976555D02*
X13543991Y-12957508D01*
X13543991Y-12957508D02*
X13563039Y-12928936D01*
X13563039Y-12928936D02*
X13572563Y-12919412D01*
X13639229Y-12967031D02*
X13648753Y-12957508D01*
X13648753Y-12957508D02*
X13667801Y-12947984D01*
X13667801Y-12947984D02*
X13715420Y-12947984D01*
X13715420Y-12947984D02*
X13734468Y-12957508D01*
X13734468Y-12957508D02*
X13743991Y-12967031D01*
X13743991Y-12967031D02*
X13753515Y-12986079D01*
X13753515Y-12986079D02*
X13753515Y-13005127D01*
X13753515Y-13005127D02*
X13743991Y-13033698D01*
X13743991Y-13033698D02*
X13629706Y-13147984D01*
X13629706Y-13147984D02*
X13753515Y-13147984D01*
X13991610Y-13147984D02*
X13991610Y-12947984D01*
X14077325Y-13147984D02*
X14077325Y-13043222D01*
X14077325Y-13043222D02*
X14067801Y-13024174D01*
X14067801Y-13024174D02*
X14048753Y-13014650D01*
X14048753Y-13014650D02*
X14020182Y-13014650D01*
X14020182Y-13014650D02*
X14001134Y-13024174D01*
X14001134Y-13024174D02*
X13991610Y-13033698D01*
X14201134Y-13147984D02*
X14182087Y-13138460D01*
X14182087Y-13138460D02*
X14172563Y-13128936D01*
X14172563Y-13128936D02*
X14163039Y-13109888D01*
X14163039Y-13109888D02*
X14163039Y-13052746D01*
X14163039Y-13052746D02*
X14172563Y-13033698D01*
X14172563Y-13033698D02*
X14182087Y-13024174D01*
X14182087Y-13024174D02*
X14201134Y-13014650D01*
X14201134Y-13014650D02*
X14229706Y-13014650D01*
X14229706Y-13014650D02*
X14248753Y-13024174D01*
X14248753Y-13024174D02*
X14258277Y-13033698D01*
X14258277Y-13033698D02*
X14267801Y-13052746D01*
X14267801Y-13052746D02*
X14267801Y-13109888D01*
X14267801Y-13109888D02*
X14258277Y-13128936D01*
X14258277Y-13128936D02*
X14248753Y-13138460D01*
X14248753Y-13138460D02*
X14229706Y-13147984D01*
X14229706Y-13147984D02*
X14201134Y-13147984D01*
X14382087Y-13147984D02*
X14363039Y-13138460D01*
X14363039Y-13138460D02*
X14353515Y-13119412D01*
X14353515Y-13119412D02*
X14353515Y-12947984D01*
X14534468Y-13138460D02*
X14515420Y-13147984D01*
X14515420Y-13147984D02*
X14477325Y-13147984D01*
X14477325Y-13147984D02*
X14458277Y-13138460D01*
X14458277Y-13138460D02*
X14448753Y-13119412D01*
X14448753Y-13119412D02*
X14448753Y-13043222D01*
X14448753Y-13043222D02*
X14458277Y-13024174D01*
X14458277Y-13024174D02*
X14477325Y-13014650D01*
X14477325Y-13014650D02*
X14515420Y-13014650D01*
X14515420Y-13014650D02*
X14534468Y-13024174D01*
X14534468Y-13024174D02*
X14543991Y-13043222D01*
X14543991Y-13043222D02*
X14543991Y-13062269D01*
X14543991Y-13062269D02*
X14448753Y-13081317D01*
X14620182Y-13138460D02*
X14639230Y-13147984D01*
X14639230Y-13147984D02*
X14677325Y-13147984D01*
X14677325Y-13147984D02*
X14696372Y-13138460D01*
X14696372Y-13138460D02*
X14705896Y-13119412D01*
X14705896Y-13119412D02*
X14705896Y-13109888D01*
X14705896Y-13109888D02*
X14696372Y-13090841D01*
X14696372Y-13090841D02*
X14677325Y-13081317D01*
X14677325Y-13081317D02*
X14648753Y-13081317D01*
X14648753Y-13081317D02*
X14629706Y-13071793D01*
X14629706Y-13071793D02*
X14620182Y-13052746D01*
X14620182Y-13052746D02*
X14620182Y-13043222D01*
X14620182Y-13043222D02*
X14629706Y-13024174D01*
X14629706Y-13024174D02*
X14648753Y-13014650D01*
X14648753Y-13014650D02*
X14677325Y-13014650D01*
X14677325Y-13014650D02*
X14696372Y-13024174D01*
X14772563Y-13224174D02*
X14782087Y-13214650D01*
X14782087Y-13214650D02*
X14801134Y-13186079D01*
X14801134Y-13186079D02*
X14810658Y-13167031D01*
X14810658Y-13167031D02*
X14820182Y-13138460D01*
X14820182Y-13138460D02*
X14829706Y-13090841D01*
X14829706Y-13090841D02*
X14829706Y-13052746D01*
X14829706Y-13052746D02*
X14820182Y-13005127D01*
X14820182Y-13005127D02*
X14810658Y-12976555D01*
X14810658Y-12976555D02*
X14801134Y-12957508D01*
X14801134Y-12957508D02*
X14782087Y-12928936D01*
X14782087Y-12928936D02*
X14772563Y-12919412D01*
D12*
X9967500Y-13290500D02*
X9967500Y-13350500D01*
X9937500Y-13320500D02*
X9997500Y-13320500D01*
D11*
X10296372Y-13211984D02*
X10315420Y-13211984D01*
X10315420Y-13211984D02*
X10334467Y-13221508D01*
X10334467Y-13221508D02*
X10343991Y-13231031D01*
X10343991Y-13231031D02*
X10353515Y-13250079D01*
X10353515Y-13250079D02*
X10363039Y-13288174D01*
X10363039Y-13288174D02*
X10363039Y-13335793D01*
X10363039Y-13335793D02*
X10353515Y-13373888D01*
X10353515Y-13373888D02*
X10343991Y-13392936D01*
X10343991Y-13392936D02*
X10334467Y-13402460D01*
X10334467Y-13402460D02*
X10315420Y-13411984D01*
X10315420Y-13411984D02*
X10296372Y-13411984D01*
X10296372Y-13411984D02*
X10277324Y-13402460D01*
X10277324Y-13402460D02*
X10267801Y-13392936D01*
X10267801Y-13392936D02*
X10258277Y-13373888D01*
X10258277Y-13373888D02*
X10248753Y-13335793D01*
X10248753Y-13335793D02*
X10248753Y-13288174D01*
X10248753Y-13288174D02*
X10258277Y-13250079D01*
X10258277Y-13250079D02*
X10267801Y-13231031D01*
X10267801Y-13231031D02*
X10277324Y-13221508D01*
X10277324Y-13221508D02*
X10296372Y-13211984D01*
X10448753Y-13392936D02*
X10458277Y-13402460D01*
X10458277Y-13402460D02*
X10448753Y-13411984D01*
X10448753Y-13411984D02*
X10439229Y-13402460D01*
X10439229Y-13402460D02*
X10448753Y-13392936D01*
X10448753Y-13392936D02*
X10448753Y-13411984D01*
X10629705Y-13211984D02*
X10591610Y-13211984D01*
X10591610Y-13211984D02*
X10572563Y-13221508D01*
X10572563Y-13221508D02*
X10563039Y-13231031D01*
X10563039Y-13231031D02*
X10543991Y-13259603D01*
X10543991Y-13259603D02*
X10534467Y-13297698D01*
X10534467Y-13297698D02*
X10534467Y-13373888D01*
X10534467Y-13373888D02*
X10543991Y-13392936D01*
X10543991Y-13392936D02*
X10553515Y-13402460D01*
X10553515Y-13402460D02*
X10572563Y-13411984D01*
X10572563Y-13411984D02*
X10610658Y-13411984D01*
X10610658Y-13411984D02*
X10629705Y-13402460D01*
X10629705Y-13402460D02*
X10639229Y-13392936D01*
X10639229Y-13392936D02*
X10648753Y-13373888D01*
X10648753Y-13373888D02*
X10648753Y-13326269D01*
X10648753Y-13326269D02*
X10639229Y-13307222D01*
X10639229Y-13307222D02*
X10629705Y-13297698D01*
X10629705Y-13297698D02*
X10610658Y-13288174D01*
X10610658Y-13288174D02*
X10572563Y-13288174D01*
X10572563Y-13288174D02*
X10553515Y-13297698D01*
X10553515Y-13297698D02*
X10543991Y-13307222D01*
X10543991Y-13307222D02*
X10534467Y-13326269D01*
X10772563Y-13211984D02*
X10791610Y-13211984D01*
X10791610Y-13211984D02*
X10810658Y-13221508D01*
X10810658Y-13221508D02*
X10820182Y-13231031D01*
X10820182Y-13231031D02*
X10829705Y-13250079D01*
X10829705Y-13250079D02*
X10839229Y-13288174D01*
X10839229Y-13288174D02*
X10839229Y-13335793D01*
X10839229Y-13335793D02*
X10829705Y-13373888D01*
X10829705Y-13373888D02*
X10820182Y-13392936D01*
X10820182Y-13392936D02*
X10810658Y-13402460D01*
X10810658Y-13402460D02*
X10791610Y-13411984D01*
X10791610Y-13411984D02*
X10772563Y-13411984D01*
X10772563Y-13411984D02*
X10753515Y-13402460D01*
X10753515Y-13402460D02*
X10743991Y-13392936D01*
X10743991Y-13392936D02*
X10734467Y-13373888D01*
X10734467Y-13373888D02*
X10724944Y-13335793D01*
X10724944Y-13335793D02*
X10724944Y-13288174D01*
X10724944Y-13288174D02*
X10734467Y-13250079D01*
X10734467Y-13250079D02*
X10743991Y-13231031D01*
X10743991Y-13231031D02*
X10753515Y-13221508D01*
X10753515Y-13221508D02*
X10772563Y-13211984D01*
X10963039Y-13211984D02*
X10982086Y-13211984D01*
X10982086Y-13211984D02*
X11001134Y-13221508D01*
X11001134Y-13221508D02*
X11010658Y-13231031D01*
X11010658Y-13231031D02*
X11020182Y-13250079D01*
X11020182Y-13250079D02*
X11029705Y-13288174D01*
X11029705Y-13288174D02*
X11029705Y-13335793D01*
X11029705Y-13335793D02*
X11020182Y-13373888D01*
X11020182Y-13373888D02*
X11010658Y-13392936D01*
X11010658Y-13392936D02*
X11001134Y-13402460D01*
X11001134Y-13402460D02*
X10982086Y-13411984D01*
X10982086Y-13411984D02*
X10963039Y-13411984D01*
X10963039Y-13411984D02*
X10943991Y-13402460D01*
X10943991Y-13402460D02*
X10934467Y-13392936D01*
X10934467Y-13392936D02*
X10924944Y-13373888D01*
X10924944Y-13373888D02*
X10915420Y-13335793D01*
X10915420Y-13335793D02*
X10915420Y-13288174D01*
X10915420Y-13288174D02*
X10924944Y-13250079D01*
X10924944Y-13250079D02*
X10934467Y-13231031D01*
X10934467Y-13231031D02*
X10943991Y-13221508D01*
X10943991Y-13221508D02*
X10963039Y-13211984D01*
X11115420Y-13411984D02*
X11115420Y-13278650D01*
X11115420Y-13297698D02*
X11124944Y-13288174D01*
X11124944Y-13288174D02*
X11143991Y-13278650D01*
X11143991Y-13278650D02*
X11172563Y-13278650D01*
X11172563Y-13278650D02*
X11191610Y-13288174D01*
X11191610Y-13288174D02*
X11201134Y-13307222D01*
X11201134Y-13307222D02*
X11201134Y-13411984D01*
X11201134Y-13307222D02*
X11210658Y-13288174D01*
X11210658Y-13288174D02*
X11229705Y-13278650D01*
X11229705Y-13278650D02*
X11258277Y-13278650D01*
X11258277Y-13278650D02*
X11277324Y-13288174D01*
X11277324Y-13288174D02*
X11286848Y-13307222D01*
X11286848Y-13307222D02*
X11286848Y-13411984D01*
X11382086Y-13411984D02*
X11382086Y-13278650D01*
X11382086Y-13297698D02*
X11391610Y-13288174D01*
X11391610Y-13288174D02*
X11410658Y-13278650D01*
X11410658Y-13278650D02*
X11439229Y-13278650D01*
X11439229Y-13278650D02*
X11458277Y-13288174D01*
X11458277Y-13288174D02*
X11467801Y-13307222D01*
X11467801Y-13307222D02*
X11467801Y-13411984D01*
X11467801Y-13307222D02*
X11477324Y-13288174D01*
X11477324Y-13288174D02*
X11496372Y-13278650D01*
X11496372Y-13278650D02*
X11524943Y-13278650D01*
X11524943Y-13278650D02*
X11543991Y-13288174D01*
X11543991Y-13288174D02*
X11553515Y-13307222D01*
X11553515Y-13307222D02*
X11553515Y-13411984D01*
X11943991Y-13202460D02*
X11772563Y-13459603D01*
X12201134Y-13211984D02*
X12220182Y-13211984D01*
X12220182Y-13211984D02*
X12239229Y-13221508D01*
X12239229Y-13221508D02*
X12248753Y-13231031D01*
X12248753Y-13231031D02*
X12258277Y-13250079D01*
X12258277Y-13250079D02*
X12267801Y-13288174D01*
X12267801Y-13288174D02*
X12267801Y-13335793D01*
X12267801Y-13335793D02*
X12258277Y-13373888D01*
X12258277Y-13373888D02*
X12248753Y-13392936D01*
X12248753Y-13392936D02*
X12239229Y-13402460D01*
X12239229Y-13402460D02*
X12220182Y-13411984D01*
X12220182Y-13411984D02*
X12201134Y-13411984D01*
X12201134Y-13411984D02*
X12182086Y-13402460D01*
X12182086Y-13402460D02*
X12172563Y-13392936D01*
X12172563Y-13392936D02*
X12163039Y-13373888D01*
X12163039Y-13373888D02*
X12153515Y-13335793D01*
X12153515Y-13335793D02*
X12153515Y-13288174D01*
X12153515Y-13288174D02*
X12163039Y-13250079D01*
X12163039Y-13250079D02*
X12172563Y-13231031D01*
X12172563Y-13231031D02*
X12182086Y-13221508D01*
X12182086Y-13221508D02*
X12201134Y-13211984D01*
X12353515Y-13392936D02*
X12363039Y-13402460D01*
X12363039Y-13402460D02*
X12353515Y-13411984D01*
X12353515Y-13411984D02*
X12343991Y-13402460D01*
X12343991Y-13402460D02*
X12353515Y-13392936D01*
X12353515Y-13392936D02*
X12353515Y-13411984D01*
X12486848Y-13211984D02*
X12505896Y-13211984D01*
X12505896Y-13211984D02*
X12524944Y-13221508D01*
X12524944Y-13221508D02*
X12534467Y-13231031D01*
X12534467Y-13231031D02*
X12543991Y-13250079D01*
X12543991Y-13250079D02*
X12553515Y-13288174D01*
X12553515Y-13288174D02*
X12553515Y-13335793D01*
X12553515Y-13335793D02*
X12543991Y-13373888D01*
X12543991Y-13373888D02*
X12534467Y-13392936D01*
X12534467Y-13392936D02*
X12524944Y-13402460D01*
X12524944Y-13402460D02*
X12505896Y-13411984D01*
X12505896Y-13411984D02*
X12486848Y-13411984D01*
X12486848Y-13411984D02*
X12467801Y-13402460D01*
X12467801Y-13402460D02*
X12458277Y-13392936D01*
X12458277Y-13392936D02*
X12448753Y-13373888D01*
X12448753Y-13373888D02*
X12439229Y-13335793D01*
X12439229Y-13335793D02*
X12439229Y-13288174D01*
X12439229Y-13288174D02*
X12448753Y-13250079D01*
X12448753Y-13250079D02*
X12458277Y-13231031D01*
X12458277Y-13231031D02*
X12467801Y-13221508D01*
X12467801Y-13221508D02*
X12486848Y-13211984D01*
X12629706Y-13231031D02*
X12639229Y-13221508D01*
X12639229Y-13221508D02*
X12658277Y-13211984D01*
X12658277Y-13211984D02*
X12705896Y-13211984D01*
X12705896Y-13211984D02*
X12724944Y-13221508D01*
X12724944Y-13221508D02*
X12734467Y-13231031D01*
X12734467Y-13231031D02*
X12743991Y-13250079D01*
X12743991Y-13250079D02*
X12743991Y-13269127D01*
X12743991Y-13269127D02*
X12734467Y-13297698D01*
X12734467Y-13297698D02*
X12620182Y-13411984D01*
X12620182Y-13411984D02*
X12743991Y-13411984D01*
X12810658Y-13211984D02*
X12934467Y-13211984D01*
X12934467Y-13211984D02*
X12867801Y-13288174D01*
X12867801Y-13288174D02*
X12896372Y-13288174D01*
X12896372Y-13288174D02*
X12915420Y-13297698D01*
X12915420Y-13297698D02*
X12924944Y-13307222D01*
X12924944Y-13307222D02*
X12934467Y-13326269D01*
X12934467Y-13326269D02*
X12934467Y-13373888D01*
X12934467Y-13373888D02*
X12924944Y-13392936D01*
X12924944Y-13392936D02*
X12915420Y-13402460D01*
X12915420Y-13402460D02*
X12896372Y-13411984D01*
X12896372Y-13411984D02*
X12839229Y-13411984D01*
X12839229Y-13411984D02*
X12820182Y-13402460D01*
X12820182Y-13402460D02*
X12810658Y-13392936D01*
X13105896Y-13211984D02*
X13067801Y-13211984D01*
X13067801Y-13211984D02*
X13048753Y-13221508D01*
X13048753Y-13221508D02*
X13039229Y-13231031D01*
X13039229Y-13231031D02*
X13020182Y-13259603D01*
X13020182Y-13259603D02*
X13010658Y-13297698D01*
X13010658Y-13297698D02*
X13010658Y-13373888D01*
X13010658Y-13373888D02*
X13020182Y-13392936D01*
X13020182Y-13392936D02*
X13029706Y-13402460D01*
X13029706Y-13402460D02*
X13048753Y-13411984D01*
X13048753Y-13411984D02*
X13086848Y-13411984D01*
X13086848Y-13411984D02*
X13105896Y-13402460D01*
X13105896Y-13402460D02*
X13115420Y-13392936D01*
X13115420Y-13392936D02*
X13124944Y-13373888D01*
X13124944Y-13373888D02*
X13124944Y-13326269D01*
X13124944Y-13326269D02*
X13115420Y-13307222D01*
X13115420Y-13307222D02*
X13105896Y-13297698D01*
X13105896Y-13297698D02*
X13086848Y-13288174D01*
X13086848Y-13288174D02*
X13048753Y-13288174D01*
X13048753Y-13288174D02*
X13029706Y-13297698D01*
X13029706Y-13297698D02*
X13020182Y-13307222D01*
X13020182Y-13307222D02*
X13010658Y-13326269D01*
X13201134Y-13211984D02*
X13201134Y-13250079D01*
X13277325Y-13211984D02*
X13277325Y-13250079D01*
X13572563Y-13488174D02*
X13563039Y-13478650D01*
X13563039Y-13478650D02*
X13543991Y-13450079D01*
X13543991Y-13450079D02*
X13534468Y-13431031D01*
X13534468Y-13431031D02*
X13524944Y-13402460D01*
X13524944Y-13402460D02*
X13515420Y-13354841D01*
X13515420Y-13354841D02*
X13515420Y-13316746D01*
X13515420Y-13316746D02*
X13524944Y-13269127D01*
X13524944Y-13269127D02*
X13534468Y-13240555D01*
X13534468Y-13240555D02*
X13543991Y-13221508D01*
X13543991Y-13221508D02*
X13563039Y-13192936D01*
X13563039Y-13192936D02*
X13572563Y-13183412D01*
X13686848Y-13211984D02*
X13705896Y-13211984D01*
X13705896Y-13211984D02*
X13724944Y-13221508D01*
X13724944Y-13221508D02*
X13734468Y-13231031D01*
X13734468Y-13231031D02*
X13743991Y-13250079D01*
X13743991Y-13250079D02*
X13753515Y-13288174D01*
X13753515Y-13288174D02*
X13753515Y-13335793D01*
X13753515Y-13335793D02*
X13743991Y-13373888D01*
X13743991Y-13373888D02*
X13734468Y-13392936D01*
X13734468Y-13392936D02*
X13724944Y-13402460D01*
X13724944Y-13402460D02*
X13705896Y-13411984D01*
X13705896Y-13411984D02*
X13686848Y-13411984D01*
X13686848Y-13411984D02*
X13667801Y-13402460D01*
X13667801Y-13402460D02*
X13658277Y-13392936D01*
X13658277Y-13392936D02*
X13648753Y-13373888D01*
X13648753Y-13373888D02*
X13639229Y-13335793D01*
X13639229Y-13335793D02*
X13639229Y-13288174D01*
X13639229Y-13288174D02*
X13648753Y-13250079D01*
X13648753Y-13250079D02*
X13658277Y-13231031D01*
X13658277Y-13231031D02*
X13667801Y-13221508D01*
X13667801Y-13221508D02*
X13686848Y-13211984D01*
X13991610Y-13411984D02*
X13991610Y-13211984D01*
X14077325Y-13411984D02*
X14077325Y-13307222D01*
X14077325Y-13307222D02*
X14067801Y-13288174D01*
X14067801Y-13288174D02*
X14048753Y-13278650D01*
X14048753Y-13278650D02*
X14020182Y-13278650D01*
X14020182Y-13278650D02*
X14001134Y-13288174D01*
X14001134Y-13288174D02*
X13991610Y-13297698D01*
X14201134Y-13411984D02*
X14182087Y-13402460D01*
X14182087Y-13402460D02*
X14172563Y-13392936D01*
X14172563Y-13392936D02*
X14163039Y-13373888D01*
X14163039Y-13373888D02*
X14163039Y-13316746D01*
X14163039Y-13316746D02*
X14172563Y-13297698D01*
X14172563Y-13297698D02*
X14182087Y-13288174D01*
X14182087Y-13288174D02*
X14201134Y-13278650D01*
X14201134Y-13278650D02*
X14229706Y-13278650D01*
X14229706Y-13278650D02*
X14248753Y-13288174D01*
X14248753Y-13288174D02*
X14258277Y-13297698D01*
X14258277Y-13297698D02*
X14267801Y-13316746D01*
X14267801Y-13316746D02*
X14267801Y-13373888D01*
X14267801Y-13373888D02*
X14258277Y-13392936D01*
X14258277Y-13392936D02*
X14248753Y-13402460D01*
X14248753Y-13402460D02*
X14229706Y-13411984D01*
X14229706Y-13411984D02*
X14201134Y-13411984D01*
X14382087Y-13411984D02*
X14363039Y-13402460D01*
X14363039Y-13402460D02*
X14353515Y-13383412D01*
X14353515Y-13383412D02*
X14353515Y-13211984D01*
X14534468Y-13402460D02*
X14515420Y-13411984D01*
X14515420Y-13411984D02*
X14477325Y-13411984D01*
X14477325Y-13411984D02*
X14458277Y-13402460D01*
X14458277Y-13402460D02*
X14448753Y-13383412D01*
X14448753Y-13383412D02*
X14448753Y-13307222D01*
X14448753Y-13307222D02*
X14458277Y-13288174D01*
X14458277Y-13288174D02*
X14477325Y-13278650D01*
X14477325Y-13278650D02*
X14515420Y-13278650D01*
X14515420Y-13278650D02*
X14534468Y-13288174D01*
X14534468Y-13288174D02*
X14543991Y-13307222D01*
X14543991Y-13307222D02*
X14543991Y-13326269D01*
X14543991Y-13326269D02*
X14448753Y-13345317D01*
X14620182Y-13402460D02*
X14639230Y-13411984D01*
X14639230Y-13411984D02*
X14677325Y-13411984D01*
X14677325Y-13411984D02*
X14696372Y-13402460D01*
X14696372Y-13402460D02*
X14705896Y-13383412D01*
X14705896Y-13383412D02*
X14705896Y-13373888D01*
X14705896Y-13373888D02*
X14696372Y-13354841D01*
X14696372Y-13354841D02*
X14677325Y-13345317D01*
X14677325Y-13345317D02*
X14648753Y-13345317D01*
X14648753Y-13345317D02*
X14629706Y-13335793D01*
X14629706Y-13335793D02*
X14620182Y-13316746D01*
X14620182Y-13316746D02*
X14620182Y-13307222D01*
X14620182Y-13307222D02*
X14629706Y-13288174D01*
X14629706Y-13288174D02*
X14648753Y-13278650D01*
X14648753Y-13278650D02*
X14677325Y-13278650D01*
X14677325Y-13278650D02*
X14696372Y-13288174D01*
X14943992Y-13335793D02*
X15096373Y-13335793D01*
X15020182Y-13411984D02*
X15020182Y-13259603D01*
X15429706Y-13278650D02*
X15429706Y-13411984D01*
X15382087Y-13202460D02*
X15334468Y-13345317D01*
X15334468Y-13345317D02*
X15458277Y-13345317D01*
X15677325Y-13402460D02*
X15696373Y-13411984D01*
X15696373Y-13411984D02*
X15734468Y-13411984D01*
X15734468Y-13411984D02*
X15753515Y-13402460D01*
X15753515Y-13402460D02*
X15763039Y-13383412D01*
X15763039Y-13383412D02*
X15763039Y-13373888D01*
X15763039Y-13373888D02*
X15753515Y-13354841D01*
X15753515Y-13354841D02*
X15734468Y-13345317D01*
X15734468Y-13345317D02*
X15705896Y-13345317D01*
X15705896Y-13345317D02*
X15686849Y-13335793D01*
X15686849Y-13335793D02*
X15677325Y-13316746D01*
X15677325Y-13316746D02*
X15677325Y-13307222D01*
X15677325Y-13307222D02*
X15686849Y-13288174D01*
X15686849Y-13288174D02*
X15705896Y-13278650D01*
X15705896Y-13278650D02*
X15734468Y-13278650D01*
X15734468Y-13278650D02*
X15753515Y-13288174D01*
X15877325Y-13411984D02*
X15858277Y-13402460D01*
X15858277Y-13402460D02*
X15848754Y-13383412D01*
X15848754Y-13383412D02*
X15848754Y-13211984D01*
X15982087Y-13411984D02*
X15963039Y-13402460D01*
X15963039Y-13402460D02*
X15953515Y-13392936D01*
X15953515Y-13392936D02*
X15943992Y-13373888D01*
X15943992Y-13373888D02*
X15943992Y-13316746D01*
X15943992Y-13316746D02*
X15953515Y-13297698D01*
X15953515Y-13297698D02*
X15963039Y-13288174D01*
X15963039Y-13288174D02*
X15982087Y-13278650D01*
X15982087Y-13278650D02*
X16010658Y-13278650D01*
X16010658Y-13278650D02*
X16029706Y-13288174D01*
X16029706Y-13288174D02*
X16039230Y-13297698D01*
X16039230Y-13297698D02*
X16048754Y-13316746D01*
X16048754Y-13316746D02*
X16048754Y-13373888D01*
X16048754Y-13373888D02*
X16039230Y-13392936D01*
X16039230Y-13392936D02*
X16029706Y-13402460D01*
X16029706Y-13402460D02*
X16010658Y-13411984D01*
X16010658Y-13411984D02*
X15982087Y-13411984D01*
X16105896Y-13278650D02*
X16182087Y-13278650D01*
X16134468Y-13211984D02*
X16134468Y-13383412D01*
X16134468Y-13383412D02*
X16143992Y-13402460D01*
X16143992Y-13402460D02*
X16163039Y-13411984D01*
X16163039Y-13411984D02*
X16182087Y-13411984D01*
X16239230Y-13402460D02*
X16258277Y-13411984D01*
X16258277Y-13411984D02*
X16296373Y-13411984D01*
X16296373Y-13411984D02*
X16315420Y-13402460D01*
X16315420Y-13402460D02*
X16324944Y-13383412D01*
X16324944Y-13383412D02*
X16324944Y-13373888D01*
X16324944Y-13373888D02*
X16315420Y-13354841D01*
X16315420Y-13354841D02*
X16296373Y-13345317D01*
X16296373Y-13345317D02*
X16267801Y-13345317D01*
X16267801Y-13345317D02*
X16248754Y-13335793D01*
X16248754Y-13335793D02*
X16239230Y-13316746D01*
X16239230Y-13316746D02*
X16239230Y-13307222D01*
X16239230Y-13307222D02*
X16248754Y-13288174D01*
X16248754Y-13288174D02*
X16267801Y-13278650D01*
X16267801Y-13278650D02*
X16296373Y-13278650D01*
X16296373Y-13278650D02*
X16315420Y-13288174D01*
X16391611Y-13488174D02*
X16401135Y-13478650D01*
X16401135Y-13478650D02*
X16420182Y-13450079D01*
X16420182Y-13450079D02*
X16429706Y-13431031D01*
X16429706Y-13431031D02*
X16439230Y-13402460D01*
X16439230Y-13402460D02*
X16448754Y-13354841D01*
X16448754Y-13354841D02*
X16448754Y-13316746D01*
X16448754Y-13316746D02*
X16439230Y-13269127D01*
X16439230Y-13269127D02*
X16429706Y-13240555D01*
X16429706Y-13240555D02*
X16420182Y-13221508D01*
X16420182Y-13221508D02*
X16401135Y-13192936D01*
X16401135Y-13192936D02*
X16391611Y-13183412D01*
D12*
X9985785Y-13612784D02*
X9985785Y-13556215D01*
X9929216Y-13556215D01*
X9929216Y-13612784D01*
X9985785Y-13612784D01*
D11*
X10296372Y-13475984D02*
X10315420Y-13475984D01*
X10315420Y-13475984D02*
X10334467Y-13485508D01*
X10334467Y-13485508D02*
X10343991Y-13495031D01*
X10343991Y-13495031D02*
X10353515Y-13514079D01*
X10353515Y-13514079D02*
X10363039Y-13552174D01*
X10363039Y-13552174D02*
X10363039Y-13599793D01*
X10363039Y-13599793D02*
X10353515Y-13637888D01*
X10353515Y-13637888D02*
X10343991Y-13656936D01*
X10343991Y-13656936D02*
X10334467Y-13666460D01*
X10334467Y-13666460D02*
X10315420Y-13675984D01*
X10315420Y-13675984D02*
X10296372Y-13675984D01*
X10296372Y-13675984D02*
X10277324Y-13666460D01*
X10277324Y-13666460D02*
X10267801Y-13656936D01*
X10267801Y-13656936D02*
X10258277Y-13637888D01*
X10258277Y-13637888D02*
X10248753Y-13599793D01*
X10248753Y-13599793D02*
X10248753Y-13552174D01*
X10248753Y-13552174D02*
X10258277Y-13514079D01*
X10258277Y-13514079D02*
X10267801Y-13495031D01*
X10267801Y-13495031D02*
X10277324Y-13485508D01*
X10277324Y-13485508D02*
X10296372Y-13475984D01*
X10448753Y-13656936D02*
X10458277Y-13666460D01*
X10458277Y-13666460D02*
X10448753Y-13675984D01*
X10448753Y-13675984D02*
X10439229Y-13666460D01*
X10439229Y-13666460D02*
X10448753Y-13656936D01*
X10448753Y-13656936D02*
X10448753Y-13675984D01*
X10572563Y-13561698D02*
X10553515Y-13552174D01*
X10553515Y-13552174D02*
X10543991Y-13542650D01*
X10543991Y-13542650D02*
X10534467Y-13523603D01*
X10534467Y-13523603D02*
X10534467Y-13514079D01*
X10534467Y-13514079D02*
X10543991Y-13495031D01*
X10543991Y-13495031D02*
X10553515Y-13485508D01*
X10553515Y-13485508D02*
X10572563Y-13475984D01*
X10572563Y-13475984D02*
X10610658Y-13475984D01*
X10610658Y-13475984D02*
X10629705Y-13485508D01*
X10629705Y-13485508D02*
X10639229Y-13495031D01*
X10639229Y-13495031D02*
X10648753Y-13514079D01*
X10648753Y-13514079D02*
X10648753Y-13523603D01*
X10648753Y-13523603D02*
X10639229Y-13542650D01*
X10639229Y-13542650D02*
X10629705Y-13552174D01*
X10629705Y-13552174D02*
X10610658Y-13561698D01*
X10610658Y-13561698D02*
X10572563Y-13561698D01*
X10572563Y-13561698D02*
X10553515Y-13571222D01*
X10553515Y-13571222D02*
X10543991Y-13580746D01*
X10543991Y-13580746D02*
X10534467Y-13599793D01*
X10534467Y-13599793D02*
X10534467Y-13637888D01*
X10534467Y-13637888D02*
X10543991Y-13656936D01*
X10543991Y-13656936D02*
X10553515Y-13666460D01*
X10553515Y-13666460D02*
X10572563Y-13675984D01*
X10572563Y-13675984D02*
X10610658Y-13675984D01*
X10610658Y-13675984D02*
X10629705Y-13666460D01*
X10629705Y-13666460D02*
X10639229Y-13656936D01*
X10639229Y-13656936D02*
X10648753Y-13637888D01*
X10648753Y-13637888D02*
X10648753Y-13599793D01*
X10648753Y-13599793D02*
X10639229Y-13580746D01*
X10639229Y-13580746D02*
X10629705Y-13571222D01*
X10629705Y-13571222D02*
X10610658Y-13561698D01*
X10772563Y-13475984D02*
X10791610Y-13475984D01*
X10791610Y-13475984D02*
X10810658Y-13485508D01*
X10810658Y-13485508D02*
X10820182Y-13495031D01*
X10820182Y-13495031D02*
X10829705Y-13514079D01*
X10829705Y-13514079D02*
X10839229Y-13552174D01*
X10839229Y-13552174D02*
X10839229Y-13599793D01*
X10839229Y-13599793D02*
X10829705Y-13637888D01*
X10829705Y-13637888D02*
X10820182Y-13656936D01*
X10820182Y-13656936D02*
X10810658Y-13666460D01*
X10810658Y-13666460D02*
X10791610Y-13675984D01*
X10791610Y-13675984D02*
X10772563Y-13675984D01*
X10772563Y-13675984D02*
X10753515Y-13666460D01*
X10753515Y-13666460D02*
X10743991Y-13656936D01*
X10743991Y-13656936D02*
X10734467Y-13637888D01*
X10734467Y-13637888D02*
X10724944Y-13599793D01*
X10724944Y-13599793D02*
X10724944Y-13552174D01*
X10724944Y-13552174D02*
X10734467Y-13514079D01*
X10734467Y-13514079D02*
X10743991Y-13495031D01*
X10743991Y-13495031D02*
X10753515Y-13485508D01*
X10753515Y-13485508D02*
X10772563Y-13475984D01*
X10963039Y-13475984D02*
X10982086Y-13475984D01*
X10982086Y-13475984D02*
X11001134Y-13485508D01*
X11001134Y-13485508D02*
X11010658Y-13495031D01*
X11010658Y-13495031D02*
X11020182Y-13514079D01*
X11020182Y-13514079D02*
X11029705Y-13552174D01*
X11029705Y-13552174D02*
X11029705Y-13599793D01*
X11029705Y-13599793D02*
X11020182Y-13637888D01*
X11020182Y-13637888D02*
X11010658Y-13656936D01*
X11010658Y-13656936D02*
X11001134Y-13666460D01*
X11001134Y-13666460D02*
X10982086Y-13675984D01*
X10982086Y-13675984D02*
X10963039Y-13675984D01*
X10963039Y-13675984D02*
X10943991Y-13666460D01*
X10943991Y-13666460D02*
X10934467Y-13656936D01*
X10934467Y-13656936D02*
X10924944Y-13637888D01*
X10924944Y-13637888D02*
X10915420Y-13599793D01*
X10915420Y-13599793D02*
X10915420Y-13552174D01*
X10915420Y-13552174D02*
X10924944Y-13514079D01*
X10924944Y-13514079D02*
X10934467Y-13495031D01*
X10934467Y-13495031D02*
X10943991Y-13485508D01*
X10943991Y-13485508D02*
X10963039Y-13475984D01*
X11115420Y-13675984D02*
X11115420Y-13542650D01*
X11115420Y-13561698D02*
X11124944Y-13552174D01*
X11124944Y-13552174D02*
X11143991Y-13542650D01*
X11143991Y-13542650D02*
X11172563Y-13542650D01*
X11172563Y-13542650D02*
X11191610Y-13552174D01*
X11191610Y-13552174D02*
X11201134Y-13571222D01*
X11201134Y-13571222D02*
X11201134Y-13675984D01*
X11201134Y-13571222D02*
X11210658Y-13552174D01*
X11210658Y-13552174D02*
X11229705Y-13542650D01*
X11229705Y-13542650D02*
X11258277Y-13542650D01*
X11258277Y-13542650D02*
X11277324Y-13552174D01*
X11277324Y-13552174D02*
X11286848Y-13571222D01*
X11286848Y-13571222D02*
X11286848Y-13675984D01*
X11382086Y-13675984D02*
X11382086Y-13542650D01*
X11382086Y-13561698D02*
X11391610Y-13552174D01*
X11391610Y-13552174D02*
X11410658Y-13542650D01*
X11410658Y-13542650D02*
X11439229Y-13542650D01*
X11439229Y-13542650D02*
X11458277Y-13552174D01*
X11458277Y-13552174D02*
X11467801Y-13571222D01*
X11467801Y-13571222D02*
X11467801Y-13675984D01*
X11467801Y-13571222D02*
X11477324Y-13552174D01*
X11477324Y-13552174D02*
X11496372Y-13542650D01*
X11496372Y-13542650D02*
X11524943Y-13542650D01*
X11524943Y-13542650D02*
X11543991Y-13552174D01*
X11543991Y-13552174D02*
X11553515Y-13571222D01*
X11553515Y-13571222D02*
X11553515Y-13675984D01*
X11943991Y-13466460D02*
X11772563Y-13723603D01*
X12201134Y-13475984D02*
X12220182Y-13475984D01*
X12220182Y-13475984D02*
X12239229Y-13485508D01*
X12239229Y-13485508D02*
X12248753Y-13495031D01*
X12248753Y-13495031D02*
X12258277Y-13514079D01*
X12258277Y-13514079D02*
X12267801Y-13552174D01*
X12267801Y-13552174D02*
X12267801Y-13599793D01*
X12267801Y-13599793D02*
X12258277Y-13637888D01*
X12258277Y-13637888D02*
X12248753Y-13656936D01*
X12248753Y-13656936D02*
X12239229Y-13666460D01*
X12239229Y-13666460D02*
X12220182Y-13675984D01*
X12220182Y-13675984D02*
X12201134Y-13675984D01*
X12201134Y-13675984D02*
X12182086Y-13666460D01*
X12182086Y-13666460D02*
X12172563Y-13656936D01*
X12172563Y-13656936D02*
X12163039Y-13637888D01*
X12163039Y-13637888D02*
X12153515Y-13599793D01*
X12153515Y-13599793D02*
X12153515Y-13552174D01*
X12153515Y-13552174D02*
X12163039Y-13514079D01*
X12163039Y-13514079D02*
X12172563Y-13495031D01*
X12172563Y-13495031D02*
X12182086Y-13485508D01*
X12182086Y-13485508D02*
X12201134Y-13475984D01*
X12353515Y-13656936D02*
X12363039Y-13666460D01*
X12363039Y-13666460D02*
X12353515Y-13675984D01*
X12353515Y-13675984D02*
X12343991Y-13666460D01*
X12343991Y-13666460D02*
X12353515Y-13656936D01*
X12353515Y-13656936D02*
X12353515Y-13675984D01*
X12486848Y-13475984D02*
X12505896Y-13475984D01*
X12505896Y-13475984D02*
X12524944Y-13485508D01*
X12524944Y-13485508D02*
X12534467Y-13495031D01*
X12534467Y-13495031D02*
X12543991Y-13514079D01*
X12543991Y-13514079D02*
X12553515Y-13552174D01*
X12553515Y-13552174D02*
X12553515Y-13599793D01*
X12553515Y-13599793D02*
X12543991Y-13637888D01*
X12543991Y-13637888D02*
X12534467Y-13656936D01*
X12534467Y-13656936D02*
X12524944Y-13666460D01*
X12524944Y-13666460D02*
X12505896Y-13675984D01*
X12505896Y-13675984D02*
X12486848Y-13675984D01*
X12486848Y-13675984D02*
X12467801Y-13666460D01*
X12467801Y-13666460D02*
X12458277Y-13656936D01*
X12458277Y-13656936D02*
X12448753Y-13637888D01*
X12448753Y-13637888D02*
X12439229Y-13599793D01*
X12439229Y-13599793D02*
X12439229Y-13552174D01*
X12439229Y-13552174D02*
X12448753Y-13514079D01*
X12448753Y-13514079D02*
X12458277Y-13495031D01*
X12458277Y-13495031D02*
X12467801Y-13485508D01*
X12467801Y-13485508D02*
X12486848Y-13475984D01*
X12620182Y-13475984D02*
X12743991Y-13475984D01*
X12743991Y-13475984D02*
X12677325Y-13552174D01*
X12677325Y-13552174D02*
X12705896Y-13552174D01*
X12705896Y-13552174D02*
X12724944Y-13561698D01*
X12724944Y-13561698D02*
X12734467Y-13571222D01*
X12734467Y-13571222D02*
X12743991Y-13590269D01*
X12743991Y-13590269D02*
X12743991Y-13637888D01*
X12743991Y-13637888D02*
X12734467Y-13656936D01*
X12734467Y-13656936D02*
X12724944Y-13666460D01*
X12724944Y-13666460D02*
X12705896Y-13675984D01*
X12705896Y-13675984D02*
X12648753Y-13675984D01*
X12648753Y-13675984D02*
X12629706Y-13666460D01*
X12629706Y-13666460D02*
X12620182Y-13656936D01*
X12934467Y-13675984D02*
X12820182Y-13675984D01*
X12877325Y-13675984D02*
X12877325Y-13475984D01*
X12877325Y-13475984D02*
X12858277Y-13504555D01*
X12858277Y-13504555D02*
X12839229Y-13523603D01*
X12839229Y-13523603D02*
X12820182Y-13533127D01*
X13115420Y-13475984D02*
X13020182Y-13475984D01*
X13020182Y-13475984D02*
X13010658Y-13571222D01*
X13010658Y-13571222D02*
X13020182Y-13561698D01*
X13020182Y-13561698D02*
X13039229Y-13552174D01*
X13039229Y-13552174D02*
X13086848Y-13552174D01*
X13086848Y-13552174D02*
X13105896Y-13561698D01*
X13105896Y-13561698D02*
X13115420Y-13571222D01*
X13115420Y-13571222D02*
X13124944Y-13590269D01*
X13124944Y-13590269D02*
X13124944Y-13637888D01*
X13124944Y-13637888D02*
X13115420Y-13656936D01*
X13115420Y-13656936D02*
X13105896Y-13666460D01*
X13105896Y-13666460D02*
X13086848Y-13675984D01*
X13086848Y-13675984D02*
X13039229Y-13675984D01*
X13039229Y-13675984D02*
X13020182Y-13666460D01*
X13020182Y-13666460D02*
X13010658Y-13656936D01*
X13201134Y-13475984D02*
X13201134Y-13514079D01*
X13277325Y-13475984D02*
X13277325Y-13514079D01*
X13572563Y-13752174D02*
X13563039Y-13742650D01*
X13563039Y-13742650D02*
X13543991Y-13714079D01*
X13543991Y-13714079D02*
X13534468Y-13695031D01*
X13534468Y-13695031D02*
X13524944Y-13666460D01*
X13524944Y-13666460D02*
X13515420Y-13618841D01*
X13515420Y-13618841D02*
X13515420Y-13580746D01*
X13515420Y-13580746D02*
X13524944Y-13533127D01*
X13524944Y-13533127D02*
X13534468Y-13504555D01*
X13534468Y-13504555D02*
X13543991Y-13485508D01*
X13543991Y-13485508D02*
X13563039Y-13456936D01*
X13563039Y-13456936D02*
X13572563Y-13447412D01*
X13639229Y-13495031D02*
X13648753Y-13485508D01*
X13648753Y-13485508D02*
X13667801Y-13475984D01*
X13667801Y-13475984D02*
X13715420Y-13475984D01*
X13715420Y-13475984D02*
X13734468Y-13485508D01*
X13734468Y-13485508D02*
X13743991Y-13495031D01*
X13743991Y-13495031D02*
X13753515Y-13514079D01*
X13753515Y-13514079D02*
X13753515Y-13533127D01*
X13753515Y-13533127D02*
X13743991Y-13561698D01*
X13743991Y-13561698D02*
X13629706Y-13675984D01*
X13629706Y-13675984D02*
X13753515Y-13675984D01*
X13991610Y-13675984D02*
X13991610Y-13475984D01*
X14077325Y-13675984D02*
X14077325Y-13571222D01*
X14077325Y-13571222D02*
X14067801Y-13552174D01*
X14067801Y-13552174D02*
X14048753Y-13542650D01*
X14048753Y-13542650D02*
X14020182Y-13542650D01*
X14020182Y-13542650D02*
X14001134Y-13552174D01*
X14001134Y-13552174D02*
X13991610Y-13561698D01*
X14201134Y-13675984D02*
X14182087Y-13666460D01*
X14182087Y-13666460D02*
X14172563Y-13656936D01*
X14172563Y-13656936D02*
X14163039Y-13637888D01*
X14163039Y-13637888D02*
X14163039Y-13580746D01*
X14163039Y-13580746D02*
X14172563Y-13561698D01*
X14172563Y-13561698D02*
X14182087Y-13552174D01*
X14182087Y-13552174D02*
X14201134Y-13542650D01*
X14201134Y-13542650D02*
X14229706Y-13542650D01*
X14229706Y-13542650D02*
X14248753Y-13552174D01*
X14248753Y-13552174D02*
X14258277Y-13561698D01*
X14258277Y-13561698D02*
X14267801Y-13580746D01*
X14267801Y-13580746D02*
X14267801Y-13637888D01*
X14267801Y-13637888D02*
X14258277Y-13656936D01*
X14258277Y-13656936D02*
X14248753Y-13666460D01*
X14248753Y-13666460D02*
X14229706Y-13675984D01*
X14229706Y-13675984D02*
X14201134Y-13675984D01*
X14382087Y-13675984D02*
X14363039Y-13666460D01*
X14363039Y-13666460D02*
X14353515Y-13647412D01*
X14353515Y-13647412D02*
X14353515Y-13475984D01*
X14534468Y-13666460D02*
X14515420Y-13675984D01*
X14515420Y-13675984D02*
X14477325Y-13675984D01*
X14477325Y-13675984D02*
X14458277Y-13666460D01*
X14458277Y-13666460D02*
X14448753Y-13647412D01*
X14448753Y-13647412D02*
X14448753Y-13571222D01*
X14448753Y-13571222D02*
X14458277Y-13552174D01*
X14458277Y-13552174D02*
X14477325Y-13542650D01*
X14477325Y-13542650D02*
X14515420Y-13542650D01*
X14515420Y-13542650D02*
X14534468Y-13552174D01*
X14534468Y-13552174D02*
X14543991Y-13571222D01*
X14543991Y-13571222D02*
X14543991Y-13590269D01*
X14543991Y-13590269D02*
X14448753Y-13609317D01*
X14620182Y-13666460D02*
X14639230Y-13675984D01*
X14639230Y-13675984D02*
X14677325Y-13675984D01*
X14677325Y-13675984D02*
X14696372Y-13666460D01*
X14696372Y-13666460D02*
X14705896Y-13647412D01*
X14705896Y-13647412D02*
X14705896Y-13637888D01*
X14705896Y-13637888D02*
X14696372Y-13618841D01*
X14696372Y-13618841D02*
X14677325Y-13609317D01*
X14677325Y-13609317D02*
X14648753Y-13609317D01*
X14648753Y-13609317D02*
X14629706Y-13599793D01*
X14629706Y-13599793D02*
X14620182Y-13580746D01*
X14620182Y-13580746D02*
X14620182Y-13571222D01*
X14620182Y-13571222D02*
X14629706Y-13552174D01*
X14629706Y-13552174D02*
X14648753Y-13542650D01*
X14648753Y-13542650D02*
X14677325Y-13542650D01*
X14677325Y-13542650D02*
X14696372Y-13552174D01*
X14772563Y-13752174D02*
X14782087Y-13742650D01*
X14782087Y-13742650D02*
X14801134Y-13714079D01*
X14801134Y-13714079D02*
X14810658Y-13695031D01*
X14810658Y-13695031D02*
X14820182Y-13666460D01*
X14820182Y-13666460D02*
X14829706Y-13618841D01*
X14829706Y-13618841D02*
X14829706Y-13580746D01*
X14829706Y-13580746D02*
X14820182Y-13533127D01*
X14820182Y-13533127D02*
X14810658Y-13504555D01*
X14810658Y-13504555D02*
X14801134Y-13485508D01*
X14801134Y-13485508D02*
X14782087Y-13456936D01*
X14782087Y-13456936D02*
X14772563Y-13447412D01*
D13*
X9942500Y-13903500D02*
X9997500Y-13848500D01*
X9942500Y-13793500D01*
X9887500Y-13848500D01*
X9942500Y-13903500D01*
D11*
X10363039Y-13939984D02*
X10248753Y-13939984D01*
X10305896Y-13939984D02*
X10305896Y-13739984D01*
X10305896Y-13739984D02*
X10286848Y-13768555D01*
X10286848Y-13768555D02*
X10267801Y-13787603D01*
X10267801Y-13787603D02*
X10248753Y-13797127D01*
X10448753Y-13920936D02*
X10458277Y-13930460D01*
X10458277Y-13930460D02*
X10448753Y-13939984D01*
X10448753Y-13939984D02*
X10439229Y-13930460D01*
X10439229Y-13930460D02*
X10448753Y-13920936D01*
X10448753Y-13920936D02*
X10448753Y-13939984D01*
X10648753Y-13939984D02*
X10534467Y-13939984D01*
X10591610Y-13939984D02*
X10591610Y-13739984D01*
X10591610Y-13739984D02*
X10572563Y-13768555D01*
X10572563Y-13768555D02*
X10553515Y-13787603D01*
X10553515Y-13787603D02*
X10534467Y-13797127D01*
X10772563Y-13739984D02*
X10791610Y-13739984D01*
X10791610Y-13739984D02*
X10810658Y-13749508D01*
X10810658Y-13749508D02*
X10820182Y-13759031D01*
X10820182Y-13759031D02*
X10829705Y-13778079D01*
X10829705Y-13778079D02*
X10839229Y-13816174D01*
X10839229Y-13816174D02*
X10839229Y-13863793D01*
X10839229Y-13863793D02*
X10829705Y-13901888D01*
X10829705Y-13901888D02*
X10820182Y-13920936D01*
X10820182Y-13920936D02*
X10810658Y-13930460D01*
X10810658Y-13930460D02*
X10791610Y-13939984D01*
X10791610Y-13939984D02*
X10772563Y-13939984D01*
X10772563Y-13939984D02*
X10753515Y-13930460D01*
X10753515Y-13930460D02*
X10743991Y-13920936D01*
X10743991Y-13920936D02*
X10734467Y-13901888D01*
X10734467Y-13901888D02*
X10724944Y-13863793D01*
X10724944Y-13863793D02*
X10724944Y-13816174D01*
X10724944Y-13816174D02*
X10734467Y-13778079D01*
X10734467Y-13778079D02*
X10743991Y-13759031D01*
X10743991Y-13759031D02*
X10753515Y-13749508D01*
X10753515Y-13749508D02*
X10772563Y-13739984D01*
X10963039Y-13739984D02*
X10982086Y-13739984D01*
X10982086Y-13739984D02*
X11001134Y-13749508D01*
X11001134Y-13749508D02*
X11010658Y-13759031D01*
X11010658Y-13759031D02*
X11020182Y-13778079D01*
X11020182Y-13778079D02*
X11029705Y-13816174D01*
X11029705Y-13816174D02*
X11029705Y-13863793D01*
X11029705Y-13863793D02*
X11020182Y-13901888D01*
X11020182Y-13901888D02*
X11010658Y-13920936D01*
X11010658Y-13920936D02*
X11001134Y-13930460D01*
X11001134Y-13930460D02*
X10982086Y-13939984D01*
X10982086Y-13939984D02*
X10963039Y-13939984D01*
X10963039Y-13939984D02*
X10943991Y-13930460D01*
X10943991Y-13930460D02*
X10934467Y-13920936D01*
X10934467Y-13920936D02*
X10924944Y-13901888D01*
X10924944Y-13901888D02*
X10915420Y-13863793D01*
X10915420Y-13863793D02*
X10915420Y-13816174D01*
X10915420Y-13816174D02*
X10924944Y-13778079D01*
X10924944Y-13778079D02*
X10934467Y-13759031D01*
X10934467Y-13759031D02*
X10943991Y-13749508D01*
X10943991Y-13749508D02*
X10963039Y-13739984D01*
X11115420Y-13939984D02*
X11115420Y-13806650D01*
X11115420Y-13825698D02*
X11124944Y-13816174D01*
X11124944Y-13816174D02*
X11143991Y-13806650D01*
X11143991Y-13806650D02*
X11172563Y-13806650D01*
X11172563Y-13806650D02*
X11191610Y-13816174D01*
X11191610Y-13816174D02*
X11201134Y-13835222D01*
X11201134Y-13835222D02*
X11201134Y-13939984D01*
X11201134Y-13835222D02*
X11210658Y-13816174D01*
X11210658Y-13816174D02*
X11229705Y-13806650D01*
X11229705Y-13806650D02*
X11258277Y-13806650D01*
X11258277Y-13806650D02*
X11277324Y-13816174D01*
X11277324Y-13816174D02*
X11286848Y-13835222D01*
X11286848Y-13835222D02*
X11286848Y-13939984D01*
X11382086Y-13939984D02*
X11382086Y-13806650D01*
X11382086Y-13825698D02*
X11391610Y-13816174D01*
X11391610Y-13816174D02*
X11410658Y-13806650D01*
X11410658Y-13806650D02*
X11439229Y-13806650D01*
X11439229Y-13806650D02*
X11458277Y-13816174D01*
X11458277Y-13816174D02*
X11467801Y-13835222D01*
X11467801Y-13835222D02*
X11467801Y-13939984D01*
X11467801Y-13835222D02*
X11477324Y-13816174D01*
X11477324Y-13816174D02*
X11496372Y-13806650D01*
X11496372Y-13806650D02*
X11524943Y-13806650D01*
X11524943Y-13806650D02*
X11543991Y-13816174D01*
X11543991Y-13816174D02*
X11553515Y-13835222D01*
X11553515Y-13835222D02*
X11553515Y-13939984D01*
X11943991Y-13730460D02*
X11772563Y-13987603D01*
X12201134Y-13739984D02*
X12220182Y-13739984D01*
X12220182Y-13739984D02*
X12239229Y-13749508D01*
X12239229Y-13749508D02*
X12248753Y-13759031D01*
X12248753Y-13759031D02*
X12258277Y-13778079D01*
X12258277Y-13778079D02*
X12267801Y-13816174D01*
X12267801Y-13816174D02*
X12267801Y-13863793D01*
X12267801Y-13863793D02*
X12258277Y-13901888D01*
X12258277Y-13901888D02*
X12248753Y-13920936D01*
X12248753Y-13920936D02*
X12239229Y-13930460D01*
X12239229Y-13930460D02*
X12220182Y-13939984D01*
X12220182Y-13939984D02*
X12201134Y-13939984D01*
X12201134Y-13939984D02*
X12182086Y-13930460D01*
X12182086Y-13930460D02*
X12172563Y-13920936D01*
X12172563Y-13920936D02*
X12163039Y-13901888D01*
X12163039Y-13901888D02*
X12153515Y-13863793D01*
X12153515Y-13863793D02*
X12153515Y-13816174D01*
X12153515Y-13816174D02*
X12163039Y-13778079D01*
X12163039Y-13778079D02*
X12172563Y-13759031D01*
X12172563Y-13759031D02*
X12182086Y-13749508D01*
X12182086Y-13749508D02*
X12201134Y-13739984D01*
X12353515Y-13920936D02*
X12363039Y-13930460D01*
X12363039Y-13930460D02*
X12353515Y-13939984D01*
X12353515Y-13939984D02*
X12343991Y-13930460D01*
X12343991Y-13930460D02*
X12353515Y-13920936D01*
X12353515Y-13920936D02*
X12353515Y-13939984D01*
X12486848Y-13739984D02*
X12505896Y-13739984D01*
X12505896Y-13739984D02*
X12524944Y-13749508D01*
X12524944Y-13749508D02*
X12534467Y-13759031D01*
X12534467Y-13759031D02*
X12543991Y-13778079D01*
X12543991Y-13778079D02*
X12553515Y-13816174D01*
X12553515Y-13816174D02*
X12553515Y-13863793D01*
X12553515Y-13863793D02*
X12543991Y-13901888D01*
X12543991Y-13901888D02*
X12534467Y-13920936D01*
X12534467Y-13920936D02*
X12524944Y-13930460D01*
X12524944Y-13930460D02*
X12505896Y-13939984D01*
X12505896Y-13939984D02*
X12486848Y-13939984D01*
X12486848Y-13939984D02*
X12467801Y-13930460D01*
X12467801Y-13930460D02*
X12458277Y-13920936D01*
X12458277Y-13920936D02*
X12448753Y-13901888D01*
X12448753Y-13901888D02*
X12439229Y-13863793D01*
X12439229Y-13863793D02*
X12439229Y-13816174D01*
X12439229Y-13816174D02*
X12448753Y-13778079D01*
X12448753Y-13778079D02*
X12458277Y-13759031D01*
X12458277Y-13759031D02*
X12467801Y-13749508D01*
X12467801Y-13749508D02*
X12486848Y-13739984D01*
X12724944Y-13806650D02*
X12724944Y-13939984D01*
X12677325Y-13730460D02*
X12629706Y-13873317D01*
X12629706Y-13873317D02*
X12753515Y-13873317D01*
X12810658Y-13739984D02*
X12934467Y-13739984D01*
X12934467Y-13739984D02*
X12867801Y-13816174D01*
X12867801Y-13816174D02*
X12896372Y-13816174D01*
X12896372Y-13816174D02*
X12915420Y-13825698D01*
X12915420Y-13825698D02*
X12924944Y-13835222D01*
X12924944Y-13835222D02*
X12934467Y-13854269D01*
X12934467Y-13854269D02*
X12934467Y-13901888D01*
X12934467Y-13901888D02*
X12924944Y-13920936D01*
X12924944Y-13920936D02*
X12915420Y-13930460D01*
X12915420Y-13930460D02*
X12896372Y-13939984D01*
X12896372Y-13939984D02*
X12839229Y-13939984D01*
X12839229Y-13939984D02*
X12820182Y-13930460D01*
X12820182Y-13930460D02*
X12810658Y-13920936D01*
X13001134Y-13739984D02*
X13124944Y-13739984D01*
X13124944Y-13739984D02*
X13058277Y-13816174D01*
X13058277Y-13816174D02*
X13086848Y-13816174D01*
X13086848Y-13816174D02*
X13105896Y-13825698D01*
X13105896Y-13825698D02*
X13115420Y-13835222D01*
X13115420Y-13835222D02*
X13124944Y-13854269D01*
X13124944Y-13854269D02*
X13124944Y-13901888D01*
X13124944Y-13901888D02*
X13115420Y-13920936D01*
X13115420Y-13920936D02*
X13105896Y-13930460D01*
X13105896Y-13930460D02*
X13086848Y-13939984D01*
X13086848Y-13939984D02*
X13029706Y-13939984D01*
X13029706Y-13939984D02*
X13010658Y-13930460D01*
X13010658Y-13930460D02*
X13001134Y-13920936D01*
X13201134Y-13739984D02*
X13201134Y-13778079D01*
X13277325Y-13739984D02*
X13277325Y-13778079D01*
X13572563Y-14016174D02*
X13563039Y-14006650D01*
X13563039Y-14006650D02*
X13543991Y-13978079D01*
X13543991Y-13978079D02*
X13534468Y-13959031D01*
X13534468Y-13959031D02*
X13524944Y-13930460D01*
X13524944Y-13930460D02*
X13515420Y-13882841D01*
X13515420Y-13882841D02*
X13515420Y-13844746D01*
X13515420Y-13844746D02*
X13524944Y-13797127D01*
X13524944Y-13797127D02*
X13534468Y-13768555D01*
X13534468Y-13768555D02*
X13543991Y-13749508D01*
X13543991Y-13749508D02*
X13563039Y-13720936D01*
X13563039Y-13720936D02*
X13572563Y-13711412D01*
X13639229Y-13759031D02*
X13648753Y-13749508D01*
X13648753Y-13749508D02*
X13667801Y-13739984D01*
X13667801Y-13739984D02*
X13715420Y-13739984D01*
X13715420Y-13739984D02*
X13734468Y-13749508D01*
X13734468Y-13749508D02*
X13743991Y-13759031D01*
X13743991Y-13759031D02*
X13753515Y-13778079D01*
X13753515Y-13778079D02*
X13753515Y-13797127D01*
X13753515Y-13797127D02*
X13743991Y-13825698D01*
X13743991Y-13825698D02*
X13629706Y-13939984D01*
X13629706Y-13939984D02*
X13753515Y-13939984D01*
X13991610Y-13939984D02*
X13991610Y-13739984D01*
X14077325Y-13939984D02*
X14077325Y-13835222D01*
X14077325Y-13835222D02*
X14067801Y-13816174D01*
X14067801Y-13816174D02*
X14048753Y-13806650D01*
X14048753Y-13806650D02*
X14020182Y-13806650D01*
X14020182Y-13806650D02*
X14001134Y-13816174D01*
X14001134Y-13816174D02*
X13991610Y-13825698D01*
X14201134Y-13939984D02*
X14182087Y-13930460D01*
X14182087Y-13930460D02*
X14172563Y-13920936D01*
X14172563Y-13920936D02*
X14163039Y-13901888D01*
X14163039Y-13901888D02*
X14163039Y-13844746D01*
X14163039Y-13844746D02*
X14172563Y-13825698D01*
X14172563Y-13825698D02*
X14182087Y-13816174D01*
X14182087Y-13816174D02*
X14201134Y-13806650D01*
X14201134Y-13806650D02*
X14229706Y-13806650D01*
X14229706Y-13806650D02*
X14248753Y-13816174D01*
X14248753Y-13816174D02*
X14258277Y-13825698D01*
X14258277Y-13825698D02*
X14267801Y-13844746D01*
X14267801Y-13844746D02*
X14267801Y-13901888D01*
X14267801Y-13901888D02*
X14258277Y-13920936D01*
X14258277Y-13920936D02*
X14248753Y-13930460D01*
X14248753Y-13930460D02*
X14229706Y-13939984D01*
X14229706Y-13939984D02*
X14201134Y-13939984D01*
X14382087Y-13939984D02*
X14363039Y-13930460D01*
X14363039Y-13930460D02*
X14353515Y-13911412D01*
X14353515Y-13911412D02*
X14353515Y-13739984D01*
X14534468Y-13930460D02*
X14515420Y-13939984D01*
X14515420Y-13939984D02*
X14477325Y-13939984D01*
X14477325Y-13939984D02*
X14458277Y-13930460D01*
X14458277Y-13930460D02*
X14448753Y-13911412D01*
X14448753Y-13911412D02*
X14448753Y-13835222D01*
X14448753Y-13835222D02*
X14458277Y-13816174D01*
X14458277Y-13816174D02*
X14477325Y-13806650D01*
X14477325Y-13806650D02*
X14515420Y-13806650D01*
X14515420Y-13806650D02*
X14534468Y-13816174D01*
X14534468Y-13816174D02*
X14543991Y-13835222D01*
X14543991Y-13835222D02*
X14543991Y-13854269D01*
X14543991Y-13854269D02*
X14448753Y-13873317D01*
X14620182Y-13930460D02*
X14639230Y-13939984D01*
X14639230Y-13939984D02*
X14677325Y-13939984D01*
X14677325Y-13939984D02*
X14696372Y-13930460D01*
X14696372Y-13930460D02*
X14705896Y-13911412D01*
X14705896Y-13911412D02*
X14705896Y-13901888D01*
X14705896Y-13901888D02*
X14696372Y-13882841D01*
X14696372Y-13882841D02*
X14677325Y-13873317D01*
X14677325Y-13873317D02*
X14648753Y-13873317D01*
X14648753Y-13873317D02*
X14629706Y-13863793D01*
X14629706Y-13863793D02*
X14620182Y-13844746D01*
X14620182Y-13844746D02*
X14620182Y-13835222D01*
X14620182Y-13835222D02*
X14629706Y-13816174D01*
X14629706Y-13816174D02*
X14648753Y-13806650D01*
X14648753Y-13806650D02*
X14677325Y-13806650D01*
X14677325Y-13806650D02*
X14696372Y-13816174D01*
X14772563Y-14016174D02*
X14782087Y-14006650D01*
X14782087Y-14006650D02*
X14801134Y-13978079D01*
X14801134Y-13978079D02*
X14810658Y-13959031D01*
X14810658Y-13959031D02*
X14820182Y-13930460D01*
X14820182Y-13930460D02*
X14829706Y-13882841D01*
X14829706Y-13882841D02*
X14829706Y-13844746D01*
X14829706Y-13844746D02*
X14820182Y-13797127D01*
X14820182Y-13797127D02*
X14810658Y-13768555D01*
X14810658Y-13768555D02*
X14801134Y-13749508D01*
X14801134Y-13749508D02*
X14782087Y-13720936D01*
X14782087Y-13720936D02*
X14772563Y-13711412D01*
D14*
X9847500Y-14037500D02*
X9997500Y-14187500D01*
X9997500Y-14037500D02*
X9847500Y-14187500D01*
X9997500Y-14112500D02*
G75*
G02*
X9847500Y-14112500I-75000J0D01*
G01*
X9847500Y-14112500D02*
G75*
G02*
X9997500Y-14112500I75000J0D01*
G01*
D11*
X10363039Y-14203984D02*
X10248753Y-14203984D01*
X10305896Y-14203984D02*
X10305896Y-14003984D01*
X10305896Y-14003984D02*
X10286848Y-14032555D01*
X10286848Y-14032555D02*
X10267801Y-14051603D01*
X10267801Y-14051603D02*
X10248753Y-14061127D01*
X10448753Y-14184936D02*
X10458277Y-14194460D01*
X10458277Y-14194460D02*
X10448753Y-14203984D01*
X10448753Y-14203984D02*
X10439229Y-14194460D01*
X10439229Y-14194460D02*
X10448753Y-14184936D01*
X10448753Y-14184936D02*
X10448753Y-14203984D01*
X10639229Y-14003984D02*
X10543991Y-14003984D01*
X10543991Y-14003984D02*
X10534467Y-14099222D01*
X10534467Y-14099222D02*
X10543991Y-14089698D01*
X10543991Y-14089698D02*
X10563039Y-14080174D01*
X10563039Y-14080174D02*
X10610658Y-14080174D01*
X10610658Y-14080174D02*
X10629705Y-14089698D01*
X10629705Y-14089698D02*
X10639229Y-14099222D01*
X10639229Y-14099222D02*
X10648753Y-14118269D01*
X10648753Y-14118269D02*
X10648753Y-14165888D01*
X10648753Y-14165888D02*
X10639229Y-14184936D01*
X10639229Y-14184936D02*
X10629705Y-14194460D01*
X10629705Y-14194460D02*
X10610658Y-14203984D01*
X10610658Y-14203984D02*
X10563039Y-14203984D01*
X10563039Y-14203984D02*
X10543991Y-14194460D01*
X10543991Y-14194460D02*
X10534467Y-14184936D01*
X10772563Y-14003984D02*
X10791610Y-14003984D01*
X10791610Y-14003984D02*
X10810658Y-14013508D01*
X10810658Y-14013508D02*
X10820182Y-14023031D01*
X10820182Y-14023031D02*
X10829705Y-14042079D01*
X10829705Y-14042079D02*
X10839229Y-14080174D01*
X10839229Y-14080174D02*
X10839229Y-14127793D01*
X10839229Y-14127793D02*
X10829705Y-14165888D01*
X10829705Y-14165888D02*
X10820182Y-14184936D01*
X10820182Y-14184936D02*
X10810658Y-14194460D01*
X10810658Y-14194460D02*
X10791610Y-14203984D01*
X10791610Y-14203984D02*
X10772563Y-14203984D01*
X10772563Y-14203984D02*
X10753515Y-14194460D01*
X10753515Y-14194460D02*
X10743991Y-14184936D01*
X10743991Y-14184936D02*
X10734467Y-14165888D01*
X10734467Y-14165888D02*
X10724944Y-14127793D01*
X10724944Y-14127793D02*
X10724944Y-14080174D01*
X10724944Y-14080174D02*
X10734467Y-14042079D01*
X10734467Y-14042079D02*
X10743991Y-14023031D01*
X10743991Y-14023031D02*
X10753515Y-14013508D01*
X10753515Y-14013508D02*
X10772563Y-14003984D01*
X10963039Y-14003984D02*
X10982086Y-14003984D01*
X10982086Y-14003984D02*
X11001134Y-14013508D01*
X11001134Y-14013508D02*
X11010658Y-14023031D01*
X11010658Y-14023031D02*
X11020182Y-14042079D01*
X11020182Y-14042079D02*
X11029705Y-14080174D01*
X11029705Y-14080174D02*
X11029705Y-14127793D01*
X11029705Y-14127793D02*
X11020182Y-14165888D01*
X11020182Y-14165888D02*
X11010658Y-14184936D01*
X11010658Y-14184936D02*
X11001134Y-14194460D01*
X11001134Y-14194460D02*
X10982086Y-14203984D01*
X10982086Y-14203984D02*
X10963039Y-14203984D01*
X10963039Y-14203984D02*
X10943991Y-14194460D01*
X10943991Y-14194460D02*
X10934467Y-14184936D01*
X10934467Y-14184936D02*
X10924944Y-14165888D01*
X10924944Y-14165888D02*
X10915420Y-14127793D01*
X10915420Y-14127793D02*
X10915420Y-14080174D01*
X10915420Y-14080174D02*
X10924944Y-14042079D01*
X10924944Y-14042079D02*
X10934467Y-14023031D01*
X10934467Y-14023031D02*
X10943991Y-14013508D01*
X10943991Y-14013508D02*
X10963039Y-14003984D01*
X11115420Y-14203984D02*
X11115420Y-14070650D01*
X11115420Y-14089698D02*
X11124944Y-14080174D01*
X11124944Y-14080174D02*
X11143991Y-14070650D01*
X11143991Y-14070650D02*
X11172563Y-14070650D01*
X11172563Y-14070650D02*
X11191610Y-14080174D01*
X11191610Y-14080174D02*
X11201134Y-14099222D01*
X11201134Y-14099222D02*
X11201134Y-14203984D01*
X11201134Y-14099222D02*
X11210658Y-14080174D01*
X11210658Y-14080174D02*
X11229705Y-14070650D01*
X11229705Y-14070650D02*
X11258277Y-14070650D01*
X11258277Y-14070650D02*
X11277324Y-14080174D01*
X11277324Y-14080174D02*
X11286848Y-14099222D01*
X11286848Y-14099222D02*
X11286848Y-14203984D01*
X11382086Y-14203984D02*
X11382086Y-14070650D01*
X11382086Y-14089698D02*
X11391610Y-14080174D01*
X11391610Y-14080174D02*
X11410658Y-14070650D01*
X11410658Y-14070650D02*
X11439229Y-14070650D01*
X11439229Y-14070650D02*
X11458277Y-14080174D01*
X11458277Y-14080174D02*
X11467801Y-14099222D01*
X11467801Y-14099222D02*
X11467801Y-14203984D01*
X11467801Y-14099222D02*
X11477324Y-14080174D01*
X11477324Y-14080174D02*
X11496372Y-14070650D01*
X11496372Y-14070650D02*
X11524943Y-14070650D01*
X11524943Y-14070650D02*
X11543991Y-14080174D01*
X11543991Y-14080174D02*
X11553515Y-14099222D01*
X11553515Y-14099222D02*
X11553515Y-14203984D01*
X11943991Y-13994460D02*
X11772563Y-14251603D01*
X12201134Y-14003984D02*
X12220182Y-14003984D01*
X12220182Y-14003984D02*
X12239229Y-14013508D01*
X12239229Y-14013508D02*
X12248753Y-14023031D01*
X12248753Y-14023031D02*
X12258277Y-14042079D01*
X12258277Y-14042079D02*
X12267801Y-14080174D01*
X12267801Y-14080174D02*
X12267801Y-14127793D01*
X12267801Y-14127793D02*
X12258277Y-14165888D01*
X12258277Y-14165888D02*
X12248753Y-14184936D01*
X12248753Y-14184936D02*
X12239229Y-14194460D01*
X12239229Y-14194460D02*
X12220182Y-14203984D01*
X12220182Y-14203984D02*
X12201134Y-14203984D01*
X12201134Y-14203984D02*
X12182086Y-14194460D01*
X12182086Y-14194460D02*
X12172563Y-14184936D01*
X12172563Y-14184936D02*
X12163039Y-14165888D01*
X12163039Y-14165888D02*
X12153515Y-14127793D01*
X12153515Y-14127793D02*
X12153515Y-14080174D01*
X12153515Y-14080174D02*
X12163039Y-14042079D01*
X12163039Y-14042079D02*
X12172563Y-14023031D01*
X12172563Y-14023031D02*
X12182086Y-14013508D01*
X12182086Y-14013508D02*
X12201134Y-14003984D01*
X12353515Y-14184936D02*
X12363039Y-14194460D01*
X12363039Y-14194460D02*
X12353515Y-14203984D01*
X12353515Y-14203984D02*
X12343991Y-14194460D01*
X12343991Y-14194460D02*
X12353515Y-14184936D01*
X12353515Y-14184936D02*
X12353515Y-14203984D01*
X12486848Y-14003984D02*
X12505896Y-14003984D01*
X12505896Y-14003984D02*
X12524944Y-14013508D01*
X12524944Y-14013508D02*
X12534467Y-14023031D01*
X12534467Y-14023031D02*
X12543991Y-14042079D01*
X12543991Y-14042079D02*
X12553515Y-14080174D01*
X12553515Y-14080174D02*
X12553515Y-14127793D01*
X12553515Y-14127793D02*
X12543991Y-14165888D01*
X12543991Y-14165888D02*
X12534467Y-14184936D01*
X12534467Y-14184936D02*
X12524944Y-14194460D01*
X12524944Y-14194460D02*
X12505896Y-14203984D01*
X12505896Y-14203984D02*
X12486848Y-14203984D01*
X12486848Y-14203984D02*
X12467801Y-14194460D01*
X12467801Y-14194460D02*
X12458277Y-14184936D01*
X12458277Y-14184936D02*
X12448753Y-14165888D01*
X12448753Y-14165888D02*
X12439229Y-14127793D01*
X12439229Y-14127793D02*
X12439229Y-14080174D01*
X12439229Y-14080174D02*
X12448753Y-14042079D01*
X12448753Y-14042079D02*
X12458277Y-14023031D01*
X12458277Y-14023031D02*
X12467801Y-14013508D01*
X12467801Y-14013508D02*
X12486848Y-14003984D01*
X12734467Y-14003984D02*
X12639229Y-14003984D01*
X12639229Y-14003984D02*
X12629706Y-14099222D01*
X12629706Y-14099222D02*
X12639229Y-14089698D01*
X12639229Y-14089698D02*
X12658277Y-14080174D01*
X12658277Y-14080174D02*
X12705896Y-14080174D01*
X12705896Y-14080174D02*
X12724944Y-14089698D01*
X12724944Y-14089698D02*
X12734467Y-14099222D01*
X12734467Y-14099222D02*
X12743991Y-14118269D01*
X12743991Y-14118269D02*
X12743991Y-14165888D01*
X12743991Y-14165888D02*
X12734467Y-14184936D01*
X12734467Y-14184936D02*
X12724944Y-14194460D01*
X12724944Y-14194460D02*
X12705896Y-14203984D01*
X12705896Y-14203984D02*
X12658277Y-14203984D01*
X12658277Y-14203984D02*
X12639229Y-14194460D01*
X12639229Y-14194460D02*
X12629706Y-14184936D01*
X12839229Y-14203984D02*
X12877325Y-14203984D01*
X12877325Y-14203984D02*
X12896372Y-14194460D01*
X12896372Y-14194460D02*
X12905896Y-14184936D01*
X12905896Y-14184936D02*
X12924944Y-14156365D01*
X12924944Y-14156365D02*
X12934467Y-14118269D01*
X12934467Y-14118269D02*
X12934467Y-14042079D01*
X12934467Y-14042079D02*
X12924944Y-14023031D01*
X12924944Y-14023031D02*
X12915420Y-14013508D01*
X12915420Y-14013508D02*
X12896372Y-14003984D01*
X12896372Y-14003984D02*
X12858277Y-14003984D01*
X12858277Y-14003984D02*
X12839229Y-14013508D01*
X12839229Y-14013508D02*
X12829706Y-14023031D01*
X12829706Y-14023031D02*
X12820182Y-14042079D01*
X12820182Y-14042079D02*
X12820182Y-14089698D01*
X12820182Y-14089698D02*
X12829706Y-14108746D01*
X12829706Y-14108746D02*
X12839229Y-14118269D01*
X12839229Y-14118269D02*
X12858277Y-14127793D01*
X12858277Y-14127793D02*
X12896372Y-14127793D01*
X12896372Y-14127793D02*
X12915420Y-14118269D01*
X12915420Y-14118269D02*
X12924944Y-14108746D01*
X12924944Y-14108746D02*
X12934467Y-14089698D01*
X13124944Y-14203984D02*
X13010658Y-14203984D01*
X13067801Y-14203984D02*
X13067801Y-14003984D01*
X13067801Y-14003984D02*
X13048753Y-14032555D01*
X13048753Y-14032555D02*
X13029706Y-14051603D01*
X13029706Y-14051603D02*
X13010658Y-14061127D01*
X13201134Y-14003984D02*
X13201134Y-14042079D01*
X13277325Y-14003984D02*
X13277325Y-14042079D01*
X13572563Y-14280174D02*
X13563039Y-14270650D01*
X13563039Y-14270650D02*
X13543991Y-14242079D01*
X13543991Y-14242079D02*
X13534468Y-14223031D01*
X13534468Y-14223031D02*
X13524944Y-14194460D01*
X13524944Y-14194460D02*
X13515420Y-14146841D01*
X13515420Y-14146841D02*
X13515420Y-14108746D01*
X13515420Y-14108746D02*
X13524944Y-14061127D01*
X13524944Y-14061127D02*
X13534468Y-14032555D01*
X13534468Y-14032555D02*
X13543991Y-14013508D01*
X13543991Y-14013508D02*
X13563039Y-13984936D01*
X13563039Y-13984936D02*
X13572563Y-13975412D01*
X13639229Y-14023031D02*
X13648753Y-14013508D01*
X13648753Y-14013508D02*
X13667801Y-14003984D01*
X13667801Y-14003984D02*
X13715420Y-14003984D01*
X13715420Y-14003984D02*
X13734468Y-14013508D01*
X13734468Y-14013508D02*
X13743991Y-14023031D01*
X13743991Y-14023031D02*
X13753515Y-14042079D01*
X13753515Y-14042079D02*
X13753515Y-14061127D01*
X13753515Y-14061127D02*
X13743991Y-14089698D01*
X13743991Y-14089698D02*
X13629706Y-14203984D01*
X13629706Y-14203984D02*
X13753515Y-14203984D01*
X13991610Y-14203984D02*
X13991610Y-14003984D01*
X14077325Y-14203984D02*
X14077325Y-14099222D01*
X14077325Y-14099222D02*
X14067801Y-14080174D01*
X14067801Y-14080174D02*
X14048753Y-14070650D01*
X14048753Y-14070650D02*
X14020182Y-14070650D01*
X14020182Y-14070650D02*
X14001134Y-14080174D01*
X14001134Y-14080174D02*
X13991610Y-14089698D01*
X14201134Y-14203984D02*
X14182087Y-14194460D01*
X14182087Y-14194460D02*
X14172563Y-14184936D01*
X14172563Y-14184936D02*
X14163039Y-14165888D01*
X14163039Y-14165888D02*
X14163039Y-14108746D01*
X14163039Y-14108746D02*
X14172563Y-14089698D01*
X14172563Y-14089698D02*
X14182087Y-14080174D01*
X14182087Y-14080174D02*
X14201134Y-14070650D01*
X14201134Y-14070650D02*
X14229706Y-14070650D01*
X14229706Y-14070650D02*
X14248753Y-14080174D01*
X14248753Y-14080174D02*
X14258277Y-14089698D01*
X14258277Y-14089698D02*
X14267801Y-14108746D01*
X14267801Y-14108746D02*
X14267801Y-14165888D01*
X14267801Y-14165888D02*
X14258277Y-14184936D01*
X14258277Y-14184936D02*
X14248753Y-14194460D01*
X14248753Y-14194460D02*
X14229706Y-14203984D01*
X14229706Y-14203984D02*
X14201134Y-14203984D01*
X14382087Y-14203984D02*
X14363039Y-14194460D01*
X14363039Y-14194460D02*
X14353515Y-14175412D01*
X14353515Y-14175412D02*
X14353515Y-14003984D01*
X14534468Y-14194460D02*
X14515420Y-14203984D01*
X14515420Y-14203984D02*
X14477325Y-14203984D01*
X14477325Y-14203984D02*
X14458277Y-14194460D01*
X14458277Y-14194460D02*
X14448753Y-14175412D01*
X14448753Y-14175412D02*
X14448753Y-14099222D01*
X14448753Y-14099222D02*
X14458277Y-14080174D01*
X14458277Y-14080174D02*
X14477325Y-14070650D01*
X14477325Y-14070650D02*
X14515420Y-14070650D01*
X14515420Y-14070650D02*
X14534468Y-14080174D01*
X14534468Y-14080174D02*
X14543991Y-14099222D01*
X14543991Y-14099222D02*
X14543991Y-14118269D01*
X14543991Y-14118269D02*
X14448753Y-14137317D01*
X14620182Y-14194460D02*
X14639230Y-14203984D01*
X14639230Y-14203984D02*
X14677325Y-14203984D01*
X14677325Y-14203984D02*
X14696372Y-14194460D01*
X14696372Y-14194460D02*
X14705896Y-14175412D01*
X14705896Y-14175412D02*
X14705896Y-14165888D01*
X14705896Y-14165888D02*
X14696372Y-14146841D01*
X14696372Y-14146841D02*
X14677325Y-14137317D01*
X14677325Y-14137317D02*
X14648753Y-14137317D01*
X14648753Y-14137317D02*
X14629706Y-14127793D01*
X14629706Y-14127793D02*
X14620182Y-14108746D01*
X14620182Y-14108746D02*
X14620182Y-14099222D01*
X14620182Y-14099222D02*
X14629706Y-14080174D01*
X14629706Y-14080174D02*
X14648753Y-14070650D01*
X14648753Y-14070650D02*
X14677325Y-14070650D01*
X14677325Y-14070650D02*
X14696372Y-14080174D01*
X14772563Y-14280174D02*
X14782087Y-14270650D01*
X14782087Y-14270650D02*
X14801134Y-14242079D01*
X14801134Y-14242079D02*
X14810658Y-14223031D01*
X14810658Y-14223031D02*
X14820182Y-14194460D01*
X14820182Y-14194460D02*
X14829706Y-14146841D01*
X14829706Y-14146841D02*
X14829706Y-14108746D01*
X14829706Y-14108746D02*
X14820182Y-14061127D01*
X14820182Y-14061127D02*
X14810658Y-14032555D01*
X14810658Y-14032555D02*
X14801134Y-14013508D01*
X14801134Y-14013508D02*
X14782087Y-13984936D01*
X14782087Y-13984936D02*
X14772563Y-13975412D01*
D15*
X9837500Y-14302500D02*
X9997500Y-14462500D01*
X9997500Y-14302500D02*
X9837500Y-14462500D01*
X9917500Y-14302500D02*
X9917500Y-14462500D01*
X9837500Y-14382500D02*
X9997500Y-14382500D01*
D11*
X10363039Y-14473984D02*
X10248753Y-14473984D01*
X10305896Y-14473984D02*
X10305896Y-14273984D01*
X10305896Y-14273984D02*
X10286848Y-14302555D01*
X10286848Y-14302555D02*
X10267801Y-14321603D01*
X10267801Y-14321603D02*
X10248753Y-14331127D01*
X10448753Y-14454936D02*
X10458277Y-14464460D01*
X10458277Y-14464460D02*
X10448753Y-14473984D01*
X10448753Y-14473984D02*
X10439229Y-14464460D01*
X10439229Y-14464460D02*
X10448753Y-14454936D01*
X10448753Y-14454936D02*
X10448753Y-14473984D01*
X10629705Y-14273984D02*
X10591610Y-14273984D01*
X10591610Y-14273984D02*
X10572563Y-14283508D01*
X10572563Y-14283508D02*
X10563039Y-14293031D01*
X10563039Y-14293031D02*
X10543991Y-14321603D01*
X10543991Y-14321603D02*
X10534467Y-14359698D01*
X10534467Y-14359698D02*
X10534467Y-14435888D01*
X10534467Y-14435888D02*
X10543991Y-14454936D01*
X10543991Y-14454936D02*
X10553515Y-14464460D01*
X10553515Y-14464460D02*
X10572563Y-14473984D01*
X10572563Y-14473984D02*
X10610658Y-14473984D01*
X10610658Y-14473984D02*
X10629705Y-14464460D01*
X10629705Y-14464460D02*
X10639229Y-14454936D01*
X10639229Y-14454936D02*
X10648753Y-14435888D01*
X10648753Y-14435888D02*
X10648753Y-14388269D01*
X10648753Y-14388269D02*
X10639229Y-14369222D01*
X10639229Y-14369222D02*
X10629705Y-14359698D01*
X10629705Y-14359698D02*
X10610658Y-14350174D01*
X10610658Y-14350174D02*
X10572563Y-14350174D01*
X10572563Y-14350174D02*
X10553515Y-14359698D01*
X10553515Y-14359698D02*
X10543991Y-14369222D01*
X10543991Y-14369222D02*
X10534467Y-14388269D01*
X10772563Y-14273984D02*
X10791610Y-14273984D01*
X10791610Y-14273984D02*
X10810658Y-14283508D01*
X10810658Y-14283508D02*
X10820182Y-14293031D01*
X10820182Y-14293031D02*
X10829705Y-14312079D01*
X10829705Y-14312079D02*
X10839229Y-14350174D01*
X10839229Y-14350174D02*
X10839229Y-14397793D01*
X10839229Y-14397793D02*
X10829705Y-14435888D01*
X10829705Y-14435888D02*
X10820182Y-14454936D01*
X10820182Y-14454936D02*
X10810658Y-14464460D01*
X10810658Y-14464460D02*
X10791610Y-14473984D01*
X10791610Y-14473984D02*
X10772563Y-14473984D01*
X10772563Y-14473984D02*
X10753515Y-14464460D01*
X10753515Y-14464460D02*
X10743991Y-14454936D01*
X10743991Y-14454936D02*
X10734467Y-14435888D01*
X10734467Y-14435888D02*
X10724944Y-14397793D01*
X10724944Y-14397793D02*
X10724944Y-14350174D01*
X10724944Y-14350174D02*
X10734467Y-14312079D01*
X10734467Y-14312079D02*
X10743991Y-14293031D01*
X10743991Y-14293031D02*
X10753515Y-14283508D01*
X10753515Y-14283508D02*
X10772563Y-14273984D01*
X10963039Y-14273984D02*
X10982086Y-14273984D01*
X10982086Y-14273984D02*
X11001134Y-14283508D01*
X11001134Y-14283508D02*
X11010658Y-14293031D01*
X11010658Y-14293031D02*
X11020182Y-14312079D01*
X11020182Y-14312079D02*
X11029705Y-14350174D01*
X11029705Y-14350174D02*
X11029705Y-14397793D01*
X11029705Y-14397793D02*
X11020182Y-14435888D01*
X11020182Y-14435888D02*
X11010658Y-14454936D01*
X11010658Y-14454936D02*
X11001134Y-14464460D01*
X11001134Y-14464460D02*
X10982086Y-14473984D01*
X10982086Y-14473984D02*
X10963039Y-14473984D01*
X10963039Y-14473984D02*
X10943991Y-14464460D01*
X10943991Y-14464460D02*
X10934467Y-14454936D01*
X10934467Y-14454936D02*
X10924944Y-14435888D01*
X10924944Y-14435888D02*
X10915420Y-14397793D01*
X10915420Y-14397793D02*
X10915420Y-14350174D01*
X10915420Y-14350174D02*
X10924944Y-14312079D01*
X10924944Y-14312079D02*
X10934467Y-14293031D01*
X10934467Y-14293031D02*
X10943991Y-14283508D01*
X10943991Y-14283508D02*
X10963039Y-14273984D01*
X11115420Y-14473984D02*
X11115420Y-14340650D01*
X11115420Y-14359698D02*
X11124944Y-14350174D01*
X11124944Y-14350174D02*
X11143991Y-14340650D01*
X11143991Y-14340650D02*
X11172563Y-14340650D01*
X11172563Y-14340650D02*
X11191610Y-14350174D01*
X11191610Y-14350174D02*
X11201134Y-14369222D01*
X11201134Y-14369222D02*
X11201134Y-14473984D01*
X11201134Y-14369222D02*
X11210658Y-14350174D01*
X11210658Y-14350174D02*
X11229705Y-14340650D01*
X11229705Y-14340650D02*
X11258277Y-14340650D01*
X11258277Y-14340650D02*
X11277324Y-14350174D01*
X11277324Y-14350174D02*
X11286848Y-14369222D01*
X11286848Y-14369222D02*
X11286848Y-14473984D01*
X11382086Y-14473984D02*
X11382086Y-14340650D01*
X11382086Y-14359698D02*
X11391610Y-14350174D01*
X11391610Y-14350174D02*
X11410658Y-14340650D01*
X11410658Y-14340650D02*
X11439229Y-14340650D01*
X11439229Y-14340650D02*
X11458277Y-14350174D01*
X11458277Y-14350174D02*
X11467801Y-14369222D01*
X11467801Y-14369222D02*
X11467801Y-14473984D01*
X11467801Y-14369222D02*
X11477324Y-14350174D01*
X11477324Y-14350174D02*
X11496372Y-14340650D01*
X11496372Y-14340650D02*
X11524943Y-14340650D01*
X11524943Y-14340650D02*
X11543991Y-14350174D01*
X11543991Y-14350174D02*
X11553515Y-14369222D01*
X11553515Y-14369222D02*
X11553515Y-14473984D01*
X11943991Y-14264460D02*
X11772563Y-14521603D01*
X12201134Y-14273984D02*
X12220182Y-14273984D01*
X12220182Y-14273984D02*
X12239229Y-14283508D01*
X12239229Y-14283508D02*
X12248753Y-14293031D01*
X12248753Y-14293031D02*
X12258277Y-14312079D01*
X12258277Y-14312079D02*
X12267801Y-14350174D01*
X12267801Y-14350174D02*
X12267801Y-14397793D01*
X12267801Y-14397793D02*
X12258277Y-14435888D01*
X12258277Y-14435888D02*
X12248753Y-14454936D01*
X12248753Y-14454936D02*
X12239229Y-14464460D01*
X12239229Y-14464460D02*
X12220182Y-14473984D01*
X12220182Y-14473984D02*
X12201134Y-14473984D01*
X12201134Y-14473984D02*
X12182086Y-14464460D01*
X12182086Y-14464460D02*
X12172563Y-14454936D01*
X12172563Y-14454936D02*
X12163039Y-14435888D01*
X12163039Y-14435888D02*
X12153515Y-14397793D01*
X12153515Y-14397793D02*
X12153515Y-14350174D01*
X12153515Y-14350174D02*
X12163039Y-14312079D01*
X12163039Y-14312079D02*
X12172563Y-14293031D01*
X12172563Y-14293031D02*
X12182086Y-14283508D01*
X12182086Y-14283508D02*
X12201134Y-14273984D01*
X12353515Y-14454936D02*
X12363039Y-14464460D01*
X12363039Y-14464460D02*
X12353515Y-14473984D01*
X12353515Y-14473984D02*
X12343991Y-14464460D01*
X12343991Y-14464460D02*
X12353515Y-14454936D01*
X12353515Y-14454936D02*
X12353515Y-14473984D01*
X12486848Y-14273984D02*
X12505896Y-14273984D01*
X12505896Y-14273984D02*
X12524944Y-14283508D01*
X12524944Y-14283508D02*
X12534467Y-14293031D01*
X12534467Y-14293031D02*
X12543991Y-14312079D01*
X12543991Y-14312079D02*
X12553515Y-14350174D01*
X12553515Y-14350174D02*
X12553515Y-14397793D01*
X12553515Y-14397793D02*
X12543991Y-14435888D01*
X12543991Y-14435888D02*
X12534467Y-14454936D01*
X12534467Y-14454936D02*
X12524944Y-14464460D01*
X12524944Y-14464460D02*
X12505896Y-14473984D01*
X12505896Y-14473984D02*
X12486848Y-14473984D01*
X12486848Y-14473984D02*
X12467801Y-14464460D01*
X12467801Y-14464460D02*
X12458277Y-14454936D01*
X12458277Y-14454936D02*
X12448753Y-14435888D01*
X12448753Y-14435888D02*
X12439229Y-14397793D01*
X12439229Y-14397793D02*
X12439229Y-14350174D01*
X12439229Y-14350174D02*
X12448753Y-14312079D01*
X12448753Y-14312079D02*
X12458277Y-14293031D01*
X12458277Y-14293031D02*
X12467801Y-14283508D01*
X12467801Y-14283508D02*
X12486848Y-14273984D01*
X12724944Y-14273984D02*
X12686848Y-14273984D01*
X12686848Y-14273984D02*
X12667801Y-14283508D01*
X12667801Y-14283508D02*
X12658277Y-14293031D01*
X12658277Y-14293031D02*
X12639229Y-14321603D01*
X12639229Y-14321603D02*
X12629706Y-14359698D01*
X12629706Y-14359698D02*
X12629706Y-14435888D01*
X12629706Y-14435888D02*
X12639229Y-14454936D01*
X12639229Y-14454936D02*
X12648753Y-14464460D01*
X12648753Y-14464460D02*
X12667801Y-14473984D01*
X12667801Y-14473984D02*
X12705896Y-14473984D01*
X12705896Y-14473984D02*
X12724944Y-14464460D01*
X12724944Y-14464460D02*
X12734467Y-14454936D01*
X12734467Y-14454936D02*
X12743991Y-14435888D01*
X12743991Y-14435888D02*
X12743991Y-14388269D01*
X12743991Y-14388269D02*
X12734467Y-14369222D01*
X12734467Y-14369222D02*
X12724944Y-14359698D01*
X12724944Y-14359698D02*
X12705896Y-14350174D01*
X12705896Y-14350174D02*
X12667801Y-14350174D01*
X12667801Y-14350174D02*
X12648753Y-14359698D01*
X12648753Y-14359698D02*
X12639229Y-14369222D01*
X12639229Y-14369222D02*
X12629706Y-14388269D01*
X12810658Y-14273984D02*
X12934467Y-14273984D01*
X12934467Y-14273984D02*
X12867801Y-14350174D01*
X12867801Y-14350174D02*
X12896372Y-14350174D01*
X12896372Y-14350174D02*
X12915420Y-14359698D01*
X12915420Y-14359698D02*
X12924944Y-14369222D01*
X12924944Y-14369222D02*
X12934467Y-14388269D01*
X12934467Y-14388269D02*
X12934467Y-14435888D01*
X12934467Y-14435888D02*
X12924944Y-14454936D01*
X12924944Y-14454936D02*
X12915420Y-14464460D01*
X12915420Y-14464460D02*
X12896372Y-14473984D01*
X12896372Y-14473984D02*
X12839229Y-14473984D01*
X12839229Y-14473984D02*
X12820182Y-14464460D01*
X12820182Y-14464460D02*
X12810658Y-14454936D01*
X13058277Y-14273984D02*
X13077325Y-14273984D01*
X13077325Y-14273984D02*
X13096372Y-14283508D01*
X13096372Y-14283508D02*
X13105896Y-14293031D01*
X13105896Y-14293031D02*
X13115420Y-14312079D01*
X13115420Y-14312079D02*
X13124944Y-14350174D01*
X13124944Y-14350174D02*
X13124944Y-14397793D01*
X13124944Y-14397793D02*
X13115420Y-14435888D01*
X13115420Y-14435888D02*
X13105896Y-14454936D01*
X13105896Y-14454936D02*
X13096372Y-14464460D01*
X13096372Y-14464460D02*
X13077325Y-14473984D01*
X13077325Y-14473984D02*
X13058277Y-14473984D01*
X13058277Y-14473984D02*
X13039229Y-14464460D01*
X13039229Y-14464460D02*
X13029706Y-14454936D01*
X13029706Y-14454936D02*
X13020182Y-14435888D01*
X13020182Y-14435888D02*
X13010658Y-14397793D01*
X13010658Y-14397793D02*
X13010658Y-14350174D01*
X13010658Y-14350174D02*
X13020182Y-14312079D01*
X13020182Y-14312079D02*
X13029706Y-14293031D01*
X13029706Y-14293031D02*
X13039229Y-14283508D01*
X13039229Y-14283508D02*
X13058277Y-14273984D01*
X13201134Y-14273984D02*
X13201134Y-14312079D01*
X13277325Y-14273984D02*
X13277325Y-14312079D01*
X13572563Y-14550174D02*
X13563039Y-14540650D01*
X13563039Y-14540650D02*
X13543991Y-14512079D01*
X13543991Y-14512079D02*
X13534468Y-14493031D01*
X13534468Y-14493031D02*
X13524944Y-14464460D01*
X13524944Y-14464460D02*
X13515420Y-14416841D01*
X13515420Y-14416841D02*
X13515420Y-14378746D01*
X13515420Y-14378746D02*
X13524944Y-14331127D01*
X13524944Y-14331127D02*
X13534468Y-14302555D01*
X13534468Y-14302555D02*
X13543991Y-14283508D01*
X13543991Y-14283508D02*
X13563039Y-14254936D01*
X13563039Y-14254936D02*
X13572563Y-14245412D01*
X13629706Y-14273984D02*
X13753515Y-14273984D01*
X13753515Y-14273984D02*
X13686848Y-14350174D01*
X13686848Y-14350174D02*
X13715420Y-14350174D01*
X13715420Y-14350174D02*
X13734468Y-14359698D01*
X13734468Y-14359698D02*
X13743991Y-14369222D01*
X13743991Y-14369222D02*
X13753515Y-14388269D01*
X13753515Y-14388269D02*
X13753515Y-14435888D01*
X13753515Y-14435888D02*
X13743991Y-14454936D01*
X13743991Y-14454936D02*
X13734468Y-14464460D01*
X13734468Y-14464460D02*
X13715420Y-14473984D01*
X13715420Y-14473984D02*
X13658277Y-14473984D01*
X13658277Y-14473984D02*
X13639229Y-14464460D01*
X13639229Y-14464460D02*
X13629706Y-14454936D01*
X13991610Y-14473984D02*
X13991610Y-14273984D01*
X14077325Y-14473984D02*
X14077325Y-14369222D01*
X14077325Y-14369222D02*
X14067801Y-14350174D01*
X14067801Y-14350174D02*
X14048753Y-14340650D01*
X14048753Y-14340650D02*
X14020182Y-14340650D01*
X14020182Y-14340650D02*
X14001134Y-14350174D01*
X14001134Y-14350174D02*
X13991610Y-14359698D01*
X14201134Y-14473984D02*
X14182087Y-14464460D01*
X14182087Y-14464460D02*
X14172563Y-14454936D01*
X14172563Y-14454936D02*
X14163039Y-14435888D01*
X14163039Y-14435888D02*
X14163039Y-14378746D01*
X14163039Y-14378746D02*
X14172563Y-14359698D01*
X14172563Y-14359698D02*
X14182087Y-14350174D01*
X14182087Y-14350174D02*
X14201134Y-14340650D01*
X14201134Y-14340650D02*
X14229706Y-14340650D01*
X14229706Y-14340650D02*
X14248753Y-14350174D01*
X14248753Y-14350174D02*
X14258277Y-14359698D01*
X14258277Y-14359698D02*
X14267801Y-14378746D01*
X14267801Y-14378746D02*
X14267801Y-14435888D01*
X14267801Y-14435888D02*
X14258277Y-14454936D01*
X14258277Y-14454936D02*
X14248753Y-14464460D01*
X14248753Y-14464460D02*
X14229706Y-14473984D01*
X14229706Y-14473984D02*
X14201134Y-14473984D01*
X14382087Y-14473984D02*
X14363039Y-14464460D01*
X14363039Y-14464460D02*
X14353515Y-14445412D01*
X14353515Y-14445412D02*
X14353515Y-14273984D01*
X14534468Y-14464460D02*
X14515420Y-14473984D01*
X14515420Y-14473984D02*
X14477325Y-14473984D01*
X14477325Y-14473984D02*
X14458277Y-14464460D01*
X14458277Y-14464460D02*
X14448753Y-14445412D01*
X14448753Y-14445412D02*
X14448753Y-14369222D01*
X14448753Y-14369222D02*
X14458277Y-14350174D01*
X14458277Y-14350174D02*
X14477325Y-14340650D01*
X14477325Y-14340650D02*
X14515420Y-14340650D01*
X14515420Y-14340650D02*
X14534468Y-14350174D01*
X14534468Y-14350174D02*
X14543991Y-14369222D01*
X14543991Y-14369222D02*
X14543991Y-14388269D01*
X14543991Y-14388269D02*
X14448753Y-14407317D01*
X14620182Y-14464460D02*
X14639230Y-14473984D01*
X14639230Y-14473984D02*
X14677325Y-14473984D01*
X14677325Y-14473984D02*
X14696372Y-14464460D01*
X14696372Y-14464460D02*
X14705896Y-14445412D01*
X14705896Y-14445412D02*
X14705896Y-14435888D01*
X14705896Y-14435888D02*
X14696372Y-14416841D01*
X14696372Y-14416841D02*
X14677325Y-14407317D01*
X14677325Y-14407317D02*
X14648753Y-14407317D01*
X14648753Y-14407317D02*
X14629706Y-14397793D01*
X14629706Y-14397793D02*
X14620182Y-14378746D01*
X14620182Y-14378746D02*
X14620182Y-14369222D01*
X14620182Y-14369222D02*
X14629706Y-14350174D01*
X14629706Y-14350174D02*
X14648753Y-14340650D01*
X14648753Y-14340650D02*
X14677325Y-14340650D01*
X14677325Y-14340650D02*
X14696372Y-14350174D01*
X14772563Y-14550174D02*
X14782087Y-14540650D01*
X14782087Y-14540650D02*
X14801134Y-14512079D01*
X14801134Y-14512079D02*
X14810658Y-14493031D01*
X14810658Y-14493031D02*
X14820182Y-14464460D01*
X14820182Y-14464460D02*
X14829706Y-14416841D01*
X14829706Y-14416841D02*
X14829706Y-14378746D01*
X14829706Y-14378746D02*
X14820182Y-14331127D01*
X14820182Y-14331127D02*
X14810658Y-14302555D01*
X14810658Y-14302555D02*
X14801134Y-14283508D01*
X14801134Y-14283508D02*
X14782087Y-14254936D01*
X14782087Y-14254936D02*
X14772563Y-14245412D01*
X9797500Y-14562500D02*
X9997500Y-14762500D01*
X9997500Y-14562500D02*
X9797500Y-14762500D01*
X9968211Y-14733211D02*
X9968211Y-14591789D01*
X9826789Y-14591789D01*
X9826789Y-14733211D01*
X9968211Y-14733211D01*
X10248753Y-14573031D02*
X10258277Y-14563508D01*
X10258277Y-14563508D02*
X10277324Y-14553984D01*
X10277324Y-14553984D02*
X10324944Y-14553984D01*
X10324944Y-14553984D02*
X10343991Y-14563508D01*
X10343991Y-14563508D02*
X10353515Y-14573031D01*
X10353515Y-14573031D02*
X10363039Y-14592079D01*
X10363039Y-14592079D02*
X10363039Y-14611127D01*
X10363039Y-14611127D02*
X10353515Y-14639698D01*
X10353515Y-14639698D02*
X10239229Y-14753984D01*
X10239229Y-14753984D02*
X10363039Y-14753984D01*
X10448753Y-14734936D02*
X10458277Y-14744460D01*
X10458277Y-14744460D02*
X10448753Y-14753984D01*
X10448753Y-14753984D02*
X10439229Y-14744460D01*
X10439229Y-14744460D02*
X10448753Y-14734936D01*
X10448753Y-14734936D02*
X10448753Y-14753984D01*
X10524944Y-14553984D02*
X10658277Y-14553984D01*
X10658277Y-14553984D02*
X10572563Y-14753984D01*
X10772563Y-14553984D02*
X10791610Y-14553984D01*
X10791610Y-14553984D02*
X10810658Y-14563508D01*
X10810658Y-14563508D02*
X10820182Y-14573031D01*
X10820182Y-14573031D02*
X10829705Y-14592079D01*
X10829705Y-14592079D02*
X10839229Y-14630174D01*
X10839229Y-14630174D02*
X10839229Y-14677793D01*
X10839229Y-14677793D02*
X10829705Y-14715888D01*
X10829705Y-14715888D02*
X10820182Y-14734936D01*
X10820182Y-14734936D02*
X10810658Y-14744460D01*
X10810658Y-14744460D02*
X10791610Y-14753984D01*
X10791610Y-14753984D02*
X10772563Y-14753984D01*
X10772563Y-14753984D02*
X10753515Y-14744460D01*
X10753515Y-14744460D02*
X10743991Y-14734936D01*
X10743991Y-14734936D02*
X10734467Y-14715888D01*
X10734467Y-14715888D02*
X10724944Y-14677793D01*
X10724944Y-14677793D02*
X10724944Y-14630174D01*
X10724944Y-14630174D02*
X10734467Y-14592079D01*
X10734467Y-14592079D02*
X10743991Y-14573031D01*
X10743991Y-14573031D02*
X10753515Y-14563508D01*
X10753515Y-14563508D02*
X10772563Y-14553984D01*
X10963039Y-14553984D02*
X10982086Y-14553984D01*
X10982086Y-14553984D02*
X11001134Y-14563508D01*
X11001134Y-14563508D02*
X11010658Y-14573031D01*
X11010658Y-14573031D02*
X11020182Y-14592079D01*
X11020182Y-14592079D02*
X11029705Y-14630174D01*
X11029705Y-14630174D02*
X11029705Y-14677793D01*
X11029705Y-14677793D02*
X11020182Y-14715888D01*
X11020182Y-14715888D02*
X11010658Y-14734936D01*
X11010658Y-14734936D02*
X11001134Y-14744460D01*
X11001134Y-14744460D02*
X10982086Y-14753984D01*
X10982086Y-14753984D02*
X10963039Y-14753984D01*
X10963039Y-14753984D02*
X10943991Y-14744460D01*
X10943991Y-14744460D02*
X10934467Y-14734936D01*
X10934467Y-14734936D02*
X10924944Y-14715888D01*
X10924944Y-14715888D02*
X10915420Y-14677793D01*
X10915420Y-14677793D02*
X10915420Y-14630174D01*
X10915420Y-14630174D02*
X10924944Y-14592079D01*
X10924944Y-14592079D02*
X10934467Y-14573031D01*
X10934467Y-14573031D02*
X10943991Y-14563508D01*
X10943991Y-14563508D02*
X10963039Y-14553984D01*
X11115420Y-14753984D02*
X11115420Y-14620650D01*
X11115420Y-14639698D02*
X11124944Y-14630174D01*
X11124944Y-14630174D02*
X11143991Y-14620650D01*
X11143991Y-14620650D02*
X11172563Y-14620650D01*
X11172563Y-14620650D02*
X11191610Y-14630174D01*
X11191610Y-14630174D02*
X11201134Y-14649222D01*
X11201134Y-14649222D02*
X11201134Y-14753984D01*
X11201134Y-14649222D02*
X11210658Y-14630174D01*
X11210658Y-14630174D02*
X11229705Y-14620650D01*
X11229705Y-14620650D02*
X11258277Y-14620650D01*
X11258277Y-14620650D02*
X11277324Y-14630174D01*
X11277324Y-14630174D02*
X11286848Y-14649222D01*
X11286848Y-14649222D02*
X11286848Y-14753984D01*
X11382086Y-14753984D02*
X11382086Y-14620650D01*
X11382086Y-14639698D02*
X11391610Y-14630174D01*
X11391610Y-14630174D02*
X11410658Y-14620650D01*
X11410658Y-14620650D02*
X11439229Y-14620650D01*
X11439229Y-14620650D02*
X11458277Y-14630174D01*
X11458277Y-14630174D02*
X11467801Y-14649222D01*
X11467801Y-14649222D02*
X11467801Y-14753984D01*
X11467801Y-14649222D02*
X11477324Y-14630174D01*
X11477324Y-14630174D02*
X11496372Y-14620650D01*
X11496372Y-14620650D02*
X11524943Y-14620650D01*
X11524943Y-14620650D02*
X11543991Y-14630174D01*
X11543991Y-14630174D02*
X11553515Y-14649222D01*
X11553515Y-14649222D02*
X11553515Y-14753984D01*
X11943991Y-14544460D02*
X11772563Y-14801603D01*
X12201134Y-14553984D02*
X12220182Y-14553984D01*
X12220182Y-14553984D02*
X12239229Y-14563508D01*
X12239229Y-14563508D02*
X12248753Y-14573031D01*
X12248753Y-14573031D02*
X12258277Y-14592079D01*
X12258277Y-14592079D02*
X12267801Y-14630174D01*
X12267801Y-14630174D02*
X12267801Y-14677793D01*
X12267801Y-14677793D02*
X12258277Y-14715888D01*
X12258277Y-14715888D02*
X12248753Y-14734936D01*
X12248753Y-14734936D02*
X12239229Y-14744460D01*
X12239229Y-14744460D02*
X12220182Y-14753984D01*
X12220182Y-14753984D02*
X12201134Y-14753984D01*
X12201134Y-14753984D02*
X12182086Y-14744460D01*
X12182086Y-14744460D02*
X12172563Y-14734936D01*
X12172563Y-14734936D02*
X12163039Y-14715888D01*
X12163039Y-14715888D02*
X12153515Y-14677793D01*
X12153515Y-14677793D02*
X12153515Y-14630174D01*
X12153515Y-14630174D02*
X12163039Y-14592079D01*
X12163039Y-14592079D02*
X12172563Y-14573031D01*
X12172563Y-14573031D02*
X12182086Y-14563508D01*
X12182086Y-14563508D02*
X12201134Y-14553984D01*
X12353515Y-14734936D02*
X12363039Y-14744460D01*
X12363039Y-14744460D02*
X12353515Y-14753984D01*
X12353515Y-14753984D02*
X12343991Y-14744460D01*
X12343991Y-14744460D02*
X12353515Y-14734936D01*
X12353515Y-14734936D02*
X12353515Y-14753984D01*
X12553515Y-14753984D02*
X12439229Y-14753984D01*
X12496372Y-14753984D02*
X12496372Y-14553984D01*
X12496372Y-14553984D02*
X12477325Y-14582555D01*
X12477325Y-14582555D02*
X12458277Y-14601603D01*
X12458277Y-14601603D02*
X12439229Y-14611127D01*
X12677325Y-14553984D02*
X12696372Y-14553984D01*
X12696372Y-14553984D02*
X12715420Y-14563508D01*
X12715420Y-14563508D02*
X12724944Y-14573031D01*
X12724944Y-14573031D02*
X12734467Y-14592079D01*
X12734467Y-14592079D02*
X12743991Y-14630174D01*
X12743991Y-14630174D02*
X12743991Y-14677793D01*
X12743991Y-14677793D02*
X12734467Y-14715888D01*
X12734467Y-14715888D02*
X12724944Y-14734936D01*
X12724944Y-14734936D02*
X12715420Y-14744460D01*
X12715420Y-14744460D02*
X12696372Y-14753984D01*
X12696372Y-14753984D02*
X12677325Y-14753984D01*
X12677325Y-14753984D02*
X12658277Y-14744460D01*
X12658277Y-14744460D02*
X12648753Y-14734936D01*
X12648753Y-14734936D02*
X12639229Y-14715888D01*
X12639229Y-14715888D02*
X12629706Y-14677793D01*
X12629706Y-14677793D02*
X12629706Y-14630174D01*
X12629706Y-14630174D02*
X12639229Y-14592079D01*
X12639229Y-14592079D02*
X12648753Y-14573031D01*
X12648753Y-14573031D02*
X12658277Y-14563508D01*
X12658277Y-14563508D02*
X12677325Y-14553984D01*
X12915420Y-14553984D02*
X12877325Y-14553984D01*
X12877325Y-14553984D02*
X12858277Y-14563508D01*
X12858277Y-14563508D02*
X12848753Y-14573031D01*
X12848753Y-14573031D02*
X12829706Y-14601603D01*
X12829706Y-14601603D02*
X12820182Y-14639698D01*
X12820182Y-14639698D02*
X12820182Y-14715888D01*
X12820182Y-14715888D02*
X12829706Y-14734936D01*
X12829706Y-14734936D02*
X12839229Y-14744460D01*
X12839229Y-14744460D02*
X12858277Y-14753984D01*
X12858277Y-14753984D02*
X12896372Y-14753984D01*
X12896372Y-14753984D02*
X12915420Y-14744460D01*
X12915420Y-14744460D02*
X12924944Y-14734936D01*
X12924944Y-14734936D02*
X12934467Y-14715888D01*
X12934467Y-14715888D02*
X12934467Y-14668269D01*
X12934467Y-14668269D02*
X12924944Y-14649222D01*
X12924944Y-14649222D02*
X12915420Y-14639698D01*
X12915420Y-14639698D02*
X12896372Y-14630174D01*
X12896372Y-14630174D02*
X12858277Y-14630174D01*
X12858277Y-14630174D02*
X12839229Y-14639698D01*
X12839229Y-14639698D02*
X12829706Y-14649222D01*
X12829706Y-14649222D02*
X12820182Y-14668269D01*
X13001134Y-14553984D02*
X13124944Y-14553984D01*
X13124944Y-14553984D02*
X13058277Y-14630174D01*
X13058277Y-14630174D02*
X13086848Y-14630174D01*
X13086848Y-14630174D02*
X13105896Y-14639698D01*
X13105896Y-14639698D02*
X13115420Y-14649222D01*
X13115420Y-14649222D02*
X13124944Y-14668269D01*
X13124944Y-14668269D02*
X13124944Y-14715888D01*
X13124944Y-14715888D02*
X13115420Y-14734936D01*
X13115420Y-14734936D02*
X13105896Y-14744460D01*
X13105896Y-14744460D02*
X13086848Y-14753984D01*
X13086848Y-14753984D02*
X13029706Y-14753984D01*
X13029706Y-14753984D02*
X13010658Y-14744460D01*
X13010658Y-14744460D02*
X13001134Y-14734936D01*
X13201134Y-14553984D02*
X13201134Y-14592079D01*
X13277325Y-14553984D02*
X13277325Y-14592079D01*
X13572563Y-14830174D02*
X13563039Y-14820650D01*
X13563039Y-14820650D02*
X13543991Y-14792079D01*
X13543991Y-14792079D02*
X13534468Y-14773031D01*
X13534468Y-14773031D02*
X13524944Y-14744460D01*
X13524944Y-14744460D02*
X13515420Y-14696841D01*
X13515420Y-14696841D02*
X13515420Y-14658746D01*
X13515420Y-14658746D02*
X13524944Y-14611127D01*
X13524944Y-14611127D02*
X13534468Y-14582555D01*
X13534468Y-14582555D02*
X13543991Y-14563508D01*
X13543991Y-14563508D02*
X13563039Y-14534936D01*
X13563039Y-14534936D02*
X13572563Y-14525412D01*
X13734468Y-14553984D02*
X13696372Y-14553984D01*
X13696372Y-14553984D02*
X13677325Y-14563508D01*
X13677325Y-14563508D02*
X13667801Y-14573031D01*
X13667801Y-14573031D02*
X13648753Y-14601603D01*
X13648753Y-14601603D02*
X13639229Y-14639698D01*
X13639229Y-14639698D02*
X13639229Y-14715888D01*
X13639229Y-14715888D02*
X13648753Y-14734936D01*
X13648753Y-14734936D02*
X13658277Y-14744460D01*
X13658277Y-14744460D02*
X13677325Y-14753984D01*
X13677325Y-14753984D02*
X13715420Y-14753984D01*
X13715420Y-14753984D02*
X13734468Y-14744460D01*
X13734468Y-14744460D02*
X13743991Y-14734936D01*
X13743991Y-14734936D02*
X13753515Y-14715888D01*
X13753515Y-14715888D02*
X13753515Y-14668269D01*
X13753515Y-14668269D02*
X13743991Y-14649222D01*
X13743991Y-14649222D02*
X13734468Y-14639698D01*
X13734468Y-14639698D02*
X13715420Y-14630174D01*
X13715420Y-14630174D02*
X13677325Y-14630174D01*
X13677325Y-14630174D02*
X13658277Y-14639698D01*
X13658277Y-14639698D02*
X13648753Y-14649222D01*
X13648753Y-14649222D02*
X13639229Y-14668269D01*
X13991610Y-14753984D02*
X13991610Y-14553984D01*
X14077325Y-14753984D02*
X14077325Y-14649222D01*
X14077325Y-14649222D02*
X14067801Y-14630174D01*
X14067801Y-14630174D02*
X14048753Y-14620650D01*
X14048753Y-14620650D02*
X14020182Y-14620650D01*
X14020182Y-14620650D02*
X14001134Y-14630174D01*
X14001134Y-14630174D02*
X13991610Y-14639698D01*
X14201134Y-14753984D02*
X14182087Y-14744460D01*
X14182087Y-14744460D02*
X14172563Y-14734936D01*
X14172563Y-14734936D02*
X14163039Y-14715888D01*
X14163039Y-14715888D02*
X14163039Y-14658746D01*
X14163039Y-14658746D02*
X14172563Y-14639698D01*
X14172563Y-14639698D02*
X14182087Y-14630174D01*
X14182087Y-14630174D02*
X14201134Y-14620650D01*
X14201134Y-14620650D02*
X14229706Y-14620650D01*
X14229706Y-14620650D02*
X14248753Y-14630174D01*
X14248753Y-14630174D02*
X14258277Y-14639698D01*
X14258277Y-14639698D02*
X14267801Y-14658746D01*
X14267801Y-14658746D02*
X14267801Y-14715888D01*
X14267801Y-14715888D02*
X14258277Y-14734936D01*
X14258277Y-14734936D02*
X14248753Y-14744460D01*
X14248753Y-14744460D02*
X14229706Y-14753984D01*
X14229706Y-14753984D02*
X14201134Y-14753984D01*
X14382087Y-14753984D02*
X14363039Y-14744460D01*
X14363039Y-14744460D02*
X14353515Y-14725412D01*
X14353515Y-14725412D02*
X14353515Y-14553984D01*
X14534468Y-14744460D02*
X14515420Y-14753984D01*
X14515420Y-14753984D02*
X14477325Y-14753984D01*
X14477325Y-14753984D02*
X14458277Y-14744460D01*
X14458277Y-14744460D02*
X14448753Y-14725412D01*
X14448753Y-14725412D02*
X14448753Y-14649222D01*
X14448753Y-14649222D02*
X14458277Y-14630174D01*
X14458277Y-14630174D02*
X14477325Y-14620650D01*
X14477325Y-14620650D02*
X14515420Y-14620650D01*
X14515420Y-14620650D02*
X14534468Y-14630174D01*
X14534468Y-14630174D02*
X14543991Y-14649222D01*
X14543991Y-14649222D02*
X14543991Y-14668269D01*
X14543991Y-14668269D02*
X14448753Y-14687317D01*
X14620182Y-14744460D02*
X14639230Y-14753984D01*
X14639230Y-14753984D02*
X14677325Y-14753984D01*
X14677325Y-14753984D02*
X14696372Y-14744460D01*
X14696372Y-14744460D02*
X14705896Y-14725412D01*
X14705896Y-14725412D02*
X14705896Y-14715888D01*
X14705896Y-14715888D02*
X14696372Y-14696841D01*
X14696372Y-14696841D02*
X14677325Y-14687317D01*
X14677325Y-14687317D02*
X14648753Y-14687317D01*
X14648753Y-14687317D02*
X14629706Y-14677793D01*
X14629706Y-14677793D02*
X14620182Y-14658746D01*
X14620182Y-14658746D02*
X14620182Y-14649222D01*
X14620182Y-14649222D02*
X14629706Y-14630174D01*
X14629706Y-14630174D02*
X14648753Y-14620650D01*
X14648753Y-14620650D02*
X14677325Y-14620650D01*
X14677325Y-14620650D02*
X14696372Y-14630174D01*
X14772563Y-14830174D02*
X14782087Y-14820650D01*
X14782087Y-14820650D02*
X14801134Y-14792079D01*
X14801134Y-14792079D02*
X14810658Y-14773031D01*
X14810658Y-14773031D02*
X14820182Y-14744460D01*
X14820182Y-14744460D02*
X14829706Y-14696841D01*
X14829706Y-14696841D02*
X14829706Y-14658746D01*
X14829706Y-14658746D02*
X14820182Y-14611127D01*
X14820182Y-14611127D02*
X14810658Y-14582555D01*
X14810658Y-14582555D02*
X14801134Y-14563508D01*
X14801134Y-14563508D02*
X14782087Y-14534936D01*
X14782087Y-14534936D02*
X14772563Y-14525412D01*
X9797500Y-14882500D02*
X9997500Y-15082500D01*
X9997500Y-14882500D02*
X9797500Y-15082500D01*
X9897500Y-15082500D02*
X9997500Y-14982500D01*
X9897500Y-14882500D01*
X9797500Y-14982500D01*
X9897500Y-15082500D01*
X10239229Y-14873984D02*
X10363039Y-14873984D01*
X10363039Y-14873984D02*
X10296372Y-14950174D01*
X10296372Y-14950174D02*
X10324944Y-14950174D01*
X10324944Y-14950174D02*
X10343991Y-14959698D01*
X10343991Y-14959698D02*
X10353515Y-14969222D01*
X10353515Y-14969222D02*
X10363039Y-14988269D01*
X10363039Y-14988269D02*
X10363039Y-15035888D01*
X10363039Y-15035888D02*
X10353515Y-15054936D01*
X10353515Y-15054936D02*
X10343991Y-15064460D01*
X10343991Y-15064460D02*
X10324944Y-15073984D01*
X10324944Y-15073984D02*
X10267801Y-15073984D01*
X10267801Y-15073984D02*
X10248753Y-15064460D01*
X10248753Y-15064460D02*
X10239229Y-15054936D01*
X10448753Y-15054936D02*
X10458277Y-15064460D01*
X10458277Y-15064460D02*
X10448753Y-15073984D01*
X10448753Y-15073984D02*
X10439229Y-15064460D01*
X10439229Y-15064460D02*
X10448753Y-15054936D01*
X10448753Y-15054936D02*
X10448753Y-15073984D01*
X10534467Y-14893031D02*
X10543991Y-14883508D01*
X10543991Y-14883508D02*
X10563039Y-14873984D01*
X10563039Y-14873984D02*
X10610658Y-14873984D01*
X10610658Y-14873984D02*
X10629705Y-14883508D01*
X10629705Y-14883508D02*
X10639229Y-14893031D01*
X10639229Y-14893031D02*
X10648753Y-14912079D01*
X10648753Y-14912079D02*
X10648753Y-14931127D01*
X10648753Y-14931127D02*
X10639229Y-14959698D01*
X10639229Y-14959698D02*
X10524944Y-15073984D01*
X10524944Y-15073984D02*
X10648753Y-15073984D01*
X10772563Y-14873984D02*
X10791610Y-14873984D01*
X10791610Y-14873984D02*
X10810658Y-14883508D01*
X10810658Y-14883508D02*
X10820182Y-14893031D01*
X10820182Y-14893031D02*
X10829705Y-14912079D01*
X10829705Y-14912079D02*
X10839229Y-14950174D01*
X10839229Y-14950174D02*
X10839229Y-14997793D01*
X10839229Y-14997793D02*
X10829705Y-15035888D01*
X10829705Y-15035888D02*
X10820182Y-15054936D01*
X10820182Y-15054936D02*
X10810658Y-15064460D01*
X10810658Y-15064460D02*
X10791610Y-15073984D01*
X10791610Y-15073984D02*
X10772563Y-15073984D01*
X10772563Y-15073984D02*
X10753515Y-15064460D01*
X10753515Y-15064460D02*
X10743991Y-15054936D01*
X10743991Y-15054936D02*
X10734467Y-15035888D01*
X10734467Y-15035888D02*
X10724944Y-14997793D01*
X10724944Y-14997793D02*
X10724944Y-14950174D01*
X10724944Y-14950174D02*
X10734467Y-14912079D01*
X10734467Y-14912079D02*
X10743991Y-14893031D01*
X10743991Y-14893031D02*
X10753515Y-14883508D01*
X10753515Y-14883508D02*
X10772563Y-14873984D01*
X10963039Y-14873984D02*
X10982086Y-14873984D01*
X10982086Y-14873984D02*
X11001134Y-14883508D01*
X11001134Y-14883508D02*
X11010658Y-14893031D01*
X11010658Y-14893031D02*
X11020182Y-14912079D01*
X11020182Y-14912079D02*
X11029705Y-14950174D01*
X11029705Y-14950174D02*
X11029705Y-14997793D01*
X11029705Y-14997793D02*
X11020182Y-15035888D01*
X11020182Y-15035888D02*
X11010658Y-15054936D01*
X11010658Y-15054936D02*
X11001134Y-15064460D01*
X11001134Y-15064460D02*
X10982086Y-15073984D01*
X10982086Y-15073984D02*
X10963039Y-15073984D01*
X10963039Y-15073984D02*
X10943991Y-15064460D01*
X10943991Y-15064460D02*
X10934467Y-15054936D01*
X10934467Y-15054936D02*
X10924944Y-15035888D01*
X10924944Y-15035888D02*
X10915420Y-14997793D01*
X10915420Y-14997793D02*
X10915420Y-14950174D01*
X10915420Y-14950174D02*
X10924944Y-14912079D01*
X10924944Y-14912079D02*
X10934467Y-14893031D01*
X10934467Y-14893031D02*
X10943991Y-14883508D01*
X10943991Y-14883508D02*
X10963039Y-14873984D01*
X11115420Y-15073984D02*
X11115420Y-14940650D01*
X11115420Y-14959698D02*
X11124944Y-14950174D01*
X11124944Y-14950174D02*
X11143991Y-14940650D01*
X11143991Y-14940650D02*
X11172563Y-14940650D01*
X11172563Y-14940650D02*
X11191610Y-14950174D01*
X11191610Y-14950174D02*
X11201134Y-14969222D01*
X11201134Y-14969222D02*
X11201134Y-15073984D01*
X11201134Y-14969222D02*
X11210658Y-14950174D01*
X11210658Y-14950174D02*
X11229705Y-14940650D01*
X11229705Y-14940650D02*
X11258277Y-14940650D01*
X11258277Y-14940650D02*
X11277324Y-14950174D01*
X11277324Y-14950174D02*
X11286848Y-14969222D01*
X11286848Y-14969222D02*
X11286848Y-15073984D01*
X11382086Y-15073984D02*
X11382086Y-14940650D01*
X11382086Y-14959698D02*
X11391610Y-14950174D01*
X11391610Y-14950174D02*
X11410658Y-14940650D01*
X11410658Y-14940650D02*
X11439229Y-14940650D01*
X11439229Y-14940650D02*
X11458277Y-14950174D01*
X11458277Y-14950174D02*
X11467801Y-14969222D01*
X11467801Y-14969222D02*
X11467801Y-15073984D01*
X11467801Y-14969222D02*
X11477324Y-14950174D01*
X11477324Y-14950174D02*
X11496372Y-14940650D01*
X11496372Y-14940650D02*
X11524943Y-14940650D01*
X11524943Y-14940650D02*
X11543991Y-14950174D01*
X11543991Y-14950174D02*
X11553515Y-14969222D01*
X11553515Y-14969222D02*
X11553515Y-15073984D01*
X11943991Y-14864460D02*
X11772563Y-15121603D01*
X12201134Y-14873984D02*
X12220182Y-14873984D01*
X12220182Y-14873984D02*
X12239229Y-14883508D01*
X12239229Y-14883508D02*
X12248753Y-14893031D01*
X12248753Y-14893031D02*
X12258277Y-14912079D01*
X12258277Y-14912079D02*
X12267801Y-14950174D01*
X12267801Y-14950174D02*
X12267801Y-14997793D01*
X12267801Y-14997793D02*
X12258277Y-15035888D01*
X12258277Y-15035888D02*
X12248753Y-15054936D01*
X12248753Y-15054936D02*
X12239229Y-15064460D01*
X12239229Y-15064460D02*
X12220182Y-15073984D01*
X12220182Y-15073984D02*
X12201134Y-15073984D01*
X12201134Y-15073984D02*
X12182086Y-15064460D01*
X12182086Y-15064460D02*
X12172563Y-15054936D01*
X12172563Y-15054936D02*
X12163039Y-15035888D01*
X12163039Y-15035888D02*
X12153515Y-14997793D01*
X12153515Y-14997793D02*
X12153515Y-14950174D01*
X12153515Y-14950174D02*
X12163039Y-14912079D01*
X12163039Y-14912079D02*
X12172563Y-14893031D01*
X12172563Y-14893031D02*
X12182086Y-14883508D01*
X12182086Y-14883508D02*
X12201134Y-14873984D01*
X12353515Y-15054936D02*
X12363039Y-15064460D01*
X12363039Y-15064460D02*
X12353515Y-15073984D01*
X12353515Y-15073984D02*
X12343991Y-15064460D01*
X12343991Y-15064460D02*
X12353515Y-15054936D01*
X12353515Y-15054936D02*
X12353515Y-15073984D01*
X12553515Y-15073984D02*
X12439229Y-15073984D01*
X12496372Y-15073984D02*
X12496372Y-14873984D01*
X12496372Y-14873984D02*
X12477325Y-14902555D01*
X12477325Y-14902555D02*
X12458277Y-14921603D01*
X12458277Y-14921603D02*
X12439229Y-14931127D01*
X12629706Y-14893031D02*
X12639229Y-14883508D01*
X12639229Y-14883508D02*
X12658277Y-14873984D01*
X12658277Y-14873984D02*
X12705896Y-14873984D01*
X12705896Y-14873984D02*
X12724944Y-14883508D01*
X12724944Y-14883508D02*
X12734467Y-14893031D01*
X12734467Y-14893031D02*
X12743991Y-14912079D01*
X12743991Y-14912079D02*
X12743991Y-14931127D01*
X12743991Y-14931127D02*
X12734467Y-14959698D01*
X12734467Y-14959698D02*
X12620182Y-15073984D01*
X12620182Y-15073984D02*
X12743991Y-15073984D01*
X12915420Y-14873984D02*
X12877325Y-14873984D01*
X12877325Y-14873984D02*
X12858277Y-14883508D01*
X12858277Y-14883508D02*
X12848753Y-14893031D01*
X12848753Y-14893031D02*
X12829706Y-14921603D01*
X12829706Y-14921603D02*
X12820182Y-14959698D01*
X12820182Y-14959698D02*
X12820182Y-15035888D01*
X12820182Y-15035888D02*
X12829706Y-15054936D01*
X12829706Y-15054936D02*
X12839229Y-15064460D01*
X12839229Y-15064460D02*
X12858277Y-15073984D01*
X12858277Y-15073984D02*
X12896372Y-15073984D01*
X12896372Y-15073984D02*
X12915420Y-15064460D01*
X12915420Y-15064460D02*
X12924944Y-15054936D01*
X12924944Y-15054936D02*
X12934467Y-15035888D01*
X12934467Y-15035888D02*
X12934467Y-14988269D01*
X12934467Y-14988269D02*
X12924944Y-14969222D01*
X12924944Y-14969222D02*
X12915420Y-14959698D01*
X12915420Y-14959698D02*
X12896372Y-14950174D01*
X12896372Y-14950174D02*
X12858277Y-14950174D01*
X12858277Y-14950174D02*
X12839229Y-14959698D01*
X12839229Y-14959698D02*
X12829706Y-14969222D01*
X12829706Y-14969222D02*
X12820182Y-14988269D01*
X13058277Y-14873984D02*
X13077325Y-14873984D01*
X13077325Y-14873984D02*
X13096372Y-14883508D01*
X13096372Y-14883508D02*
X13105896Y-14893031D01*
X13105896Y-14893031D02*
X13115420Y-14912079D01*
X13115420Y-14912079D02*
X13124944Y-14950174D01*
X13124944Y-14950174D02*
X13124944Y-14997793D01*
X13124944Y-14997793D02*
X13115420Y-15035888D01*
X13115420Y-15035888D02*
X13105896Y-15054936D01*
X13105896Y-15054936D02*
X13096372Y-15064460D01*
X13096372Y-15064460D02*
X13077325Y-15073984D01*
X13077325Y-15073984D02*
X13058277Y-15073984D01*
X13058277Y-15073984D02*
X13039229Y-15064460D01*
X13039229Y-15064460D02*
X13029706Y-15054936D01*
X13029706Y-15054936D02*
X13020182Y-15035888D01*
X13020182Y-15035888D02*
X13010658Y-14997793D01*
X13010658Y-14997793D02*
X13010658Y-14950174D01*
X13010658Y-14950174D02*
X13020182Y-14912079D01*
X13020182Y-14912079D02*
X13029706Y-14893031D01*
X13029706Y-14893031D02*
X13039229Y-14883508D01*
X13039229Y-14883508D02*
X13058277Y-14873984D01*
X13201134Y-14873984D02*
X13201134Y-14912079D01*
X13277325Y-14873984D02*
X13277325Y-14912079D01*
X13572563Y-15150174D02*
X13563039Y-15140650D01*
X13563039Y-15140650D02*
X13543991Y-15112079D01*
X13543991Y-15112079D02*
X13534468Y-15093031D01*
X13534468Y-15093031D02*
X13524944Y-15064460D01*
X13524944Y-15064460D02*
X13515420Y-15016841D01*
X13515420Y-15016841D02*
X13515420Y-14978746D01*
X13515420Y-14978746D02*
X13524944Y-14931127D01*
X13524944Y-14931127D02*
X13534468Y-14902555D01*
X13534468Y-14902555D02*
X13543991Y-14883508D01*
X13543991Y-14883508D02*
X13563039Y-14854936D01*
X13563039Y-14854936D02*
X13572563Y-14845412D01*
X13734468Y-14940650D02*
X13734468Y-15073984D01*
X13686848Y-14864460D02*
X13639229Y-15007317D01*
X13639229Y-15007317D02*
X13763039Y-15007317D01*
X13991610Y-15073984D02*
X13991610Y-14873984D01*
X14077325Y-15073984D02*
X14077325Y-14969222D01*
X14077325Y-14969222D02*
X14067801Y-14950174D01*
X14067801Y-14950174D02*
X14048753Y-14940650D01*
X14048753Y-14940650D02*
X14020182Y-14940650D01*
X14020182Y-14940650D02*
X14001134Y-14950174D01*
X14001134Y-14950174D02*
X13991610Y-14959698D01*
X14201134Y-15073984D02*
X14182087Y-15064460D01*
X14182087Y-15064460D02*
X14172563Y-15054936D01*
X14172563Y-15054936D02*
X14163039Y-15035888D01*
X14163039Y-15035888D02*
X14163039Y-14978746D01*
X14163039Y-14978746D02*
X14172563Y-14959698D01*
X14172563Y-14959698D02*
X14182087Y-14950174D01*
X14182087Y-14950174D02*
X14201134Y-14940650D01*
X14201134Y-14940650D02*
X14229706Y-14940650D01*
X14229706Y-14940650D02*
X14248753Y-14950174D01*
X14248753Y-14950174D02*
X14258277Y-14959698D01*
X14258277Y-14959698D02*
X14267801Y-14978746D01*
X14267801Y-14978746D02*
X14267801Y-15035888D01*
X14267801Y-15035888D02*
X14258277Y-15054936D01*
X14258277Y-15054936D02*
X14248753Y-15064460D01*
X14248753Y-15064460D02*
X14229706Y-15073984D01*
X14229706Y-15073984D02*
X14201134Y-15073984D01*
X14382087Y-15073984D02*
X14363039Y-15064460D01*
X14363039Y-15064460D02*
X14353515Y-15045412D01*
X14353515Y-15045412D02*
X14353515Y-14873984D01*
X14534468Y-15064460D02*
X14515420Y-15073984D01*
X14515420Y-15073984D02*
X14477325Y-15073984D01*
X14477325Y-15073984D02*
X14458277Y-15064460D01*
X14458277Y-15064460D02*
X14448753Y-15045412D01*
X14448753Y-15045412D02*
X14448753Y-14969222D01*
X14448753Y-14969222D02*
X14458277Y-14950174D01*
X14458277Y-14950174D02*
X14477325Y-14940650D01*
X14477325Y-14940650D02*
X14515420Y-14940650D01*
X14515420Y-14940650D02*
X14534468Y-14950174D01*
X14534468Y-14950174D02*
X14543991Y-14969222D01*
X14543991Y-14969222D02*
X14543991Y-14988269D01*
X14543991Y-14988269D02*
X14448753Y-15007317D01*
X14620182Y-15064460D02*
X14639230Y-15073984D01*
X14639230Y-15073984D02*
X14677325Y-15073984D01*
X14677325Y-15073984D02*
X14696372Y-15064460D01*
X14696372Y-15064460D02*
X14705896Y-15045412D01*
X14705896Y-15045412D02*
X14705896Y-15035888D01*
X14705896Y-15035888D02*
X14696372Y-15016841D01*
X14696372Y-15016841D02*
X14677325Y-15007317D01*
X14677325Y-15007317D02*
X14648753Y-15007317D01*
X14648753Y-15007317D02*
X14629706Y-14997793D01*
X14629706Y-14997793D02*
X14620182Y-14978746D01*
X14620182Y-14978746D02*
X14620182Y-14969222D01*
X14620182Y-14969222D02*
X14629706Y-14950174D01*
X14629706Y-14950174D02*
X14648753Y-14940650D01*
X14648753Y-14940650D02*
X14677325Y-14940650D01*
X14677325Y-14940650D02*
X14696372Y-14950174D01*
X14772563Y-15150174D02*
X14782087Y-15140650D01*
X14782087Y-15140650D02*
X14801134Y-15112079D01*
X14801134Y-15112079D02*
X14810658Y-15093031D01*
X14810658Y-15093031D02*
X14820182Y-15064460D01*
X14820182Y-15064460D02*
X14829706Y-15016841D01*
X14829706Y-15016841D02*
X14829706Y-14978746D01*
X14829706Y-14978746D02*
X14820182Y-14931127D01*
X14820182Y-14931127D02*
X14810658Y-14902555D01*
X14810658Y-14902555D02*
X14801134Y-14883508D01*
X14801134Y-14883508D02*
X14782087Y-14854936D01*
X14782087Y-14854936D02*
X14772563Y-14845412D01*
X9897500Y-15202500D02*
X9897500Y-15402500D01*
X9797500Y-15302500D02*
X9997500Y-15302500D01*
X9997500Y-15302500D02*
G75*
G02*
X9797500Y-15302500I-100000J0D01*
G01*
X9797500Y-15302500D02*
G75*
G02*
X9997500Y-15302500I100000J0D01*
G01*
X10343991Y-15260650D02*
X10343991Y-15393984D01*
X10296372Y-15184460D02*
X10248753Y-15327317D01*
X10248753Y-15327317D02*
X10372563Y-15327317D01*
X10448753Y-15374936D02*
X10458277Y-15384460D01*
X10458277Y-15384460D02*
X10448753Y-15393984D01*
X10448753Y-15393984D02*
X10439229Y-15384460D01*
X10439229Y-15384460D02*
X10448753Y-15374936D01*
X10448753Y-15374936D02*
X10448753Y-15393984D01*
X10639229Y-15193984D02*
X10543991Y-15193984D01*
X10543991Y-15193984D02*
X10534467Y-15289222D01*
X10534467Y-15289222D02*
X10543991Y-15279698D01*
X10543991Y-15279698D02*
X10563039Y-15270174D01*
X10563039Y-15270174D02*
X10610658Y-15270174D01*
X10610658Y-15270174D02*
X10629705Y-15279698D01*
X10629705Y-15279698D02*
X10639229Y-15289222D01*
X10639229Y-15289222D02*
X10648753Y-15308269D01*
X10648753Y-15308269D02*
X10648753Y-15355888D01*
X10648753Y-15355888D02*
X10639229Y-15374936D01*
X10639229Y-15374936D02*
X10629705Y-15384460D01*
X10629705Y-15384460D02*
X10610658Y-15393984D01*
X10610658Y-15393984D02*
X10563039Y-15393984D01*
X10563039Y-15393984D02*
X10543991Y-15384460D01*
X10543991Y-15384460D02*
X10534467Y-15374936D01*
X10772563Y-15193984D02*
X10791610Y-15193984D01*
X10791610Y-15193984D02*
X10810658Y-15203508D01*
X10810658Y-15203508D02*
X10820182Y-15213031D01*
X10820182Y-15213031D02*
X10829705Y-15232079D01*
X10829705Y-15232079D02*
X10839229Y-15270174D01*
X10839229Y-15270174D02*
X10839229Y-15317793D01*
X10839229Y-15317793D02*
X10829705Y-15355888D01*
X10829705Y-15355888D02*
X10820182Y-15374936D01*
X10820182Y-15374936D02*
X10810658Y-15384460D01*
X10810658Y-15384460D02*
X10791610Y-15393984D01*
X10791610Y-15393984D02*
X10772563Y-15393984D01*
X10772563Y-15393984D02*
X10753515Y-15384460D01*
X10753515Y-15384460D02*
X10743991Y-15374936D01*
X10743991Y-15374936D02*
X10734467Y-15355888D01*
X10734467Y-15355888D02*
X10724944Y-15317793D01*
X10724944Y-15317793D02*
X10724944Y-15270174D01*
X10724944Y-15270174D02*
X10734467Y-15232079D01*
X10734467Y-15232079D02*
X10743991Y-15213031D01*
X10743991Y-15213031D02*
X10753515Y-15203508D01*
X10753515Y-15203508D02*
X10772563Y-15193984D01*
X10963039Y-15193984D02*
X10982086Y-15193984D01*
X10982086Y-15193984D02*
X11001134Y-15203508D01*
X11001134Y-15203508D02*
X11010658Y-15213031D01*
X11010658Y-15213031D02*
X11020182Y-15232079D01*
X11020182Y-15232079D02*
X11029705Y-15270174D01*
X11029705Y-15270174D02*
X11029705Y-15317793D01*
X11029705Y-15317793D02*
X11020182Y-15355888D01*
X11020182Y-15355888D02*
X11010658Y-15374936D01*
X11010658Y-15374936D02*
X11001134Y-15384460D01*
X11001134Y-15384460D02*
X10982086Y-15393984D01*
X10982086Y-15393984D02*
X10963039Y-15393984D01*
X10963039Y-15393984D02*
X10943991Y-15384460D01*
X10943991Y-15384460D02*
X10934467Y-15374936D01*
X10934467Y-15374936D02*
X10924944Y-15355888D01*
X10924944Y-15355888D02*
X10915420Y-15317793D01*
X10915420Y-15317793D02*
X10915420Y-15270174D01*
X10915420Y-15270174D02*
X10924944Y-15232079D01*
X10924944Y-15232079D02*
X10934467Y-15213031D01*
X10934467Y-15213031D02*
X10943991Y-15203508D01*
X10943991Y-15203508D02*
X10963039Y-15193984D01*
X11115420Y-15393984D02*
X11115420Y-15260650D01*
X11115420Y-15279698D02*
X11124944Y-15270174D01*
X11124944Y-15270174D02*
X11143991Y-15260650D01*
X11143991Y-15260650D02*
X11172563Y-15260650D01*
X11172563Y-15260650D02*
X11191610Y-15270174D01*
X11191610Y-15270174D02*
X11201134Y-15289222D01*
X11201134Y-15289222D02*
X11201134Y-15393984D01*
X11201134Y-15289222D02*
X11210658Y-15270174D01*
X11210658Y-15270174D02*
X11229705Y-15260650D01*
X11229705Y-15260650D02*
X11258277Y-15260650D01*
X11258277Y-15260650D02*
X11277324Y-15270174D01*
X11277324Y-15270174D02*
X11286848Y-15289222D01*
X11286848Y-15289222D02*
X11286848Y-15393984D01*
X11382086Y-15393984D02*
X11382086Y-15260650D01*
X11382086Y-15279698D02*
X11391610Y-15270174D01*
X11391610Y-15270174D02*
X11410658Y-15260650D01*
X11410658Y-15260650D02*
X11439229Y-15260650D01*
X11439229Y-15260650D02*
X11458277Y-15270174D01*
X11458277Y-15270174D02*
X11467801Y-15289222D01*
X11467801Y-15289222D02*
X11467801Y-15393984D01*
X11467801Y-15289222D02*
X11477324Y-15270174D01*
X11477324Y-15270174D02*
X11496372Y-15260650D01*
X11496372Y-15260650D02*
X11524943Y-15260650D01*
X11524943Y-15260650D02*
X11543991Y-15270174D01*
X11543991Y-15270174D02*
X11553515Y-15289222D01*
X11553515Y-15289222D02*
X11553515Y-15393984D01*
X11943991Y-15184460D02*
X11772563Y-15441603D01*
X12201134Y-15193984D02*
X12220182Y-15193984D01*
X12220182Y-15193984D02*
X12239229Y-15203508D01*
X12239229Y-15203508D02*
X12248753Y-15213031D01*
X12248753Y-15213031D02*
X12258277Y-15232079D01*
X12258277Y-15232079D02*
X12267801Y-15270174D01*
X12267801Y-15270174D02*
X12267801Y-15317793D01*
X12267801Y-15317793D02*
X12258277Y-15355888D01*
X12258277Y-15355888D02*
X12248753Y-15374936D01*
X12248753Y-15374936D02*
X12239229Y-15384460D01*
X12239229Y-15384460D02*
X12220182Y-15393984D01*
X12220182Y-15393984D02*
X12201134Y-15393984D01*
X12201134Y-15393984D02*
X12182086Y-15384460D01*
X12182086Y-15384460D02*
X12172563Y-15374936D01*
X12172563Y-15374936D02*
X12163039Y-15355888D01*
X12163039Y-15355888D02*
X12153515Y-15317793D01*
X12153515Y-15317793D02*
X12153515Y-15270174D01*
X12153515Y-15270174D02*
X12163039Y-15232079D01*
X12163039Y-15232079D02*
X12172563Y-15213031D01*
X12172563Y-15213031D02*
X12182086Y-15203508D01*
X12182086Y-15203508D02*
X12201134Y-15193984D01*
X12353515Y-15374936D02*
X12363039Y-15384460D01*
X12363039Y-15384460D02*
X12353515Y-15393984D01*
X12353515Y-15393984D02*
X12343991Y-15384460D01*
X12343991Y-15384460D02*
X12353515Y-15374936D01*
X12353515Y-15374936D02*
X12353515Y-15393984D01*
X12553515Y-15393984D02*
X12439229Y-15393984D01*
X12496372Y-15393984D02*
X12496372Y-15193984D01*
X12496372Y-15193984D02*
X12477325Y-15222555D01*
X12477325Y-15222555D02*
X12458277Y-15241603D01*
X12458277Y-15241603D02*
X12439229Y-15251127D01*
X12620182Y-15193984D02*
X12753515Y-15193984D01*
X12753515Y-15193984D02*
X12667801Y-15393984D01*
X12810658Y-15193984D02*
X12943991Y-15193984D01*
X12943991Y-15193984D02*
X12858277Y-15393984D01*
X13010658Y-15213031D02*
X13020182Y-15203508D01*
X13020182Y-15203508D02*
X13039229Y-15193984D01*
X13039229Y-15193984D02*
X13086848Y-15193984D01*
X13086848Y-15193984D02*
X13105896Y-15203508D01*
X13105896Y-15203508D02*
X13115420Y-15213031D01*
X13115420Y-15213031D02*
X13124944Y-15232079D01*
X13124944Y-15232079D02*
X13124944Y-15251127D01*
X13124944Y-15251127D02*
X13115420Y-15279698D01*
X13115420Y-15279698D02*
X13001134Y-15393984D01*
X13001134Y-15393984D02*
X13124944Y-15393984D01*
X13201134Y-15193984D02*
X13201134Y-15232079D01*
X13277325Y-15193984D02*
X13277325Y-15232079D01*
X13572563Y-15470174D02*
X13563039Y-15460650D01*
X13563039Y-15460650D02*
X13543991Y-15432079D01*
X13543991Y-15432079D02*
X13534468Y-15413031D01*
X13534468Y-15413031D02*
X13524944Y-15384460D01*
X13524944Y-15384460D02*
X13515420Y-15336841D01*
X13515420Y-15336841D02*
X13515420Y-15298746D01*
X13515420Y-15298746D02*
X13524944Y-15251127D01*
X13524944Y-15251127D02*
X13534468Y-15222555D01*
X13534468Y-15222555D02*
X13543991Y-15203508D01*
X13543991Y-15203508D02*
X13563039Y-15174936D01*
X13563039Y-15174936D02*
X13572563Y-15165412D01*
X13639229Y-15213031D02*
X13648753Y-15203508D01*
X13648753Y-15203508D02*
X13667801Y-15193984D01*
X13667801Y-15193984D02*
X13715420Y-15193984D01*
X13715420Y-15193984D02*
X13734468Y-15203508D01*
X13734468Y-15203508D02*
X13743991Y-15213031D01*
X13743991Y-15213031D02*
X13753515Y-15232079D01*
X13753515Y-15232079D02*
X13753515Y-15251127D01*
X13753515Y-15251127D02*
X13743991Y-15279698D01*
X13743991Y-15279698D02*
X13629706Y-15393984D01*
X13629706Y-15393984D02*
X13753515Y-15393984D01*
X13991610Y-15393984D02*
X13991610Y-15193984D01*
X14077325Y-15393984D02*
X14077325Y-15289222D01*
X14077325Y-15289222D02*
X14067801Y-15270174D01*
X14067801Y-15270174D02*
X14048753Y-15260650D01*
X14048753Y-15260650D02*
X14020182Y-15260650D01*
X14020182Y-15260650D02*
X14001134Y-15270174D01*
X14001134Y-15270174D02*
X13991610Y-15279698D01*
X14201134Y-15393984D02*
X14182087Y-15384460D01*
X14182087Y-15384460D02*
X14172563Y-15374936D01*
X14172563Y-15374936D02*
X14163039Y-15355888D01*
X14163039Y-15355888D02*
X14163039Y-15298746D01*
X14163039Y-15298746D02*
X14172563Y-15279698D01*
X14172563Y-15279698D02*
X14182087Y-15270174D01*
X14182087Y-15270174D02*
X14201134Y-15260650D01*
X14201134Y-15260650D02*
X14229706Y-15260650D01*
X14229706Y-15260650D02*
X14248753Y-15270174D01*
X14248753Y-15270174D02*
X14258277Y-15279698D01*
X14258277Y-15279698D02*
X14267801Y-15298746D01*
X14267801Y-15298746D02*
X14267801Y-15355888D01*
X14267801Y-15355888D02*
X14258277Y-15374936D01*
X14258277Y-15374936D02*
X14248753Y-15384460D01*
X14248753Y-15384460D02*
X14229706Y-15393984D01*
X14229706Y-15393984D02*
X14201134Y-15393984D01*
X14382087Y-15393984D02*
X14363039Y-15384460D01*
X14363039Y-15384460D02*
X14353515Y-15365412D01*
X14353515Y-15365412D02*
X14353515Y-15193984D01*
X14534468Y-15384460D02*
X14515420Y-15393984D01*
X14515420Y-15393984D02*
X14477325Y-15393984D01*
X14477325Y-15393984D02*
X14458277Y-15384460D01*
X14458277Y-15384460D02*
X14448753Y-15365412D01*
X14448753Y-15365412D02*
X14448753Y-15289222D01*
X14448753Y-15289222D02*
X14458277Y-15270174D01*
X14458277Y-15270174D02*
X14477325Y-15260650D01*
X14477325Y-15260650D02*
X14515420Y-15260650D01*
X14515420Y-15260650D02*
X14534468Y-15270174D01*
X14534468Y-15270174D02*
X14543991Y-15289222D01*
X14543991Y-15289222D02*
X14543991Y-15308269D01*
X14543991Y-15308269D02*
X14448753Y-15327317D01*
X14620182Y-15384460D02*
X14639230Y-15393984D01*
X14639230Y-15393984D02*
X14677325Y-15393984D01*
X14677325Y-15393984D02*
X14696372Y-15384460D01*
X14696372Y-15384460D02*
X14705896Y-15365412D01*
X14705896Y-15365412D02*
X14705896Y-15355888D01*
X14705896Y-15355888D02*
X14696372Y-15336841D01*
X14696372Y-15336841D02*
X14677325Y-15327317D01*
X14677325Y-15327317D02*
X14648753Y-15327317D01*
X14648753Y-15327317D02*
X14629706Y-15317793D01*
X14629706Y-15317793D02*
X14620182Y-15298746D01*
X14620182Y-15298746D02*
X14620182Y-15289222D01*
X14620182Y-15289222D02*
X14629706Y-15270174D01*
X14629706Y-15270174D02*
X14648753Y-15260650D01*
X14648753Y-15260650D02*
X14677325Y-15260650D01*
X14677325Y-15260650D02*
X14696372Y-15270174D01*
X14772563Y-15470174D02*
X14782087Y-15460650D01*
X14782087Y-15460650D02*
X14801134Y-15432079D01*
X14801134Y-15432079D02*
X14810658Y-15413031D01*
X14810658Y-15413031D02*
X14820182Y-15384460D01*
X14820182Y-15384460D02*
X14829706Y-15336841D01*
X14829706Y-15336841D02*
X14829706Y-15298746D01*
X14829706Y-15298746D02*
X14820182Y-15251127D01*
X14820182Y-15251127D02*
X14810658Y-15222555D01*
X14810658Y-15222555D02*
X14801134Y-15203508D01*
X14801134Y-15203508D02*
X14782087Y-15174936D01*
X14782087Y-15174936D02*
X14772563Y-15165412D01*
M02*
