%TF.GenerationSoftware,KiCad,Pcbnew,8.0.5*%
%TF.CreationDate,2024-10-07T09:41:30+08:00*%
%TF.ProjectId,sandersypconverter,73616e64-6572-4737-9970-636f6e766572,rev?*%
%TF.SameCoordinates,Original*%
%TF.FileFunction,Copper,L2,Inr*%
%TF.FilePolarity,Positive*%
%FSLAX46Y46*%
G04 Gerber Fmt 4.6, Leading zero omitted, Abs format (unit mm)*
G04 Created by KiCad (PCBNEW 8.0.5) date 2024-10-07 09:41:30*
%MOMM*%
%LPD*%
G01*
G04 APERTURE LIST*
G04 Aperture macros list*
%AMRoundRect*
0 Rectangle with rounded corners*
0 $1 Rounding radius*
0 $2 $3 $4 $5 $6 $7 $8 $9 X,Y pos of 4 corners*
0 Add a 4 corners polygon primitive as box body*
4,1,4,$2,$3,$4,$5,$6,$7,$8,$9,$2,$3,0*
0 Add four circle primitives for the rounded corners*
1,1,$1+$1,$2,$3*
1,1,$1+$1,$4,$5*
1,1,$1+$1,$6,$7*
1,1,$1+$1,$8,$9*
0 Add four rect primitives between the rounded corners*
20,1,$1+$1,$2,$3,$4,$5,0*
20,1,$1+$1,$4,$5,$6,$7,0*
20,1,$1+$1,$6,$7,$8,$9,0*
20,1,$1+$1,$8,$9,$2,$3,0*%
G04 Aperture macros list end*
%TA.AperFunction,ComponentPad*%
%ADD10C,5.600000*%
%TD*%
%TA.AperFunction,ComponentPad*%
%ADD11R,3.800000X3.800000*%
%TD*%
%TA.AperFunction,ComponentPad*%
%ADD12C,4.000000*%
%TD*%
%TA.AperFunction,ComponentPad*%
%ADD13C,3.000000*%
%TD*%
%TA.AperFunction,ComponentPad*%
%ADD14O,1.000000X2.100000*%
%TD*%
%TA.AperFunction,ComponentPad*%
%ADD15O,1.000000X1.800000*%
%TD*%
%TA.AperFunction,ComponentPad*%
%ADD16RoundRect,0.500000X-0.500000X-0.500000X0.500000X-0.500000X0.500000X0.500000X-0.500000X0.500000X0*%
%TD*%
%TA.AperFunction,ComponentPad*%
%ADD17C,2.000000*%
%TD*%
%TA.AperFunction,ComponentPad*%
%ADD18RoundRect,1.500000X-1.500000X-1.500000X1.500000X-1.500000X1.500000X1.500000X-1.500000X1.500000X0*%
%TD*%
%TA.AperFunction,ComponentPad*%
%ADD19C,6.000000*%
%TD*%
%TA.AperFunction,ComponentPad*%
%ADD20R,1.600000X1.600000*%
%TD*%
%TA.AperFunction,ComponentPad*%
%ADD21O,1.600000X1.600000*%
%TD*%
%TA.AperFunction,ViaPad*%
%ADD22C,0.450000*%
%TD*%
%TA.AperFunction,ViaPad*%
%ADD23C,0.762000*%
%TD*%
G04 APERTURE END LIST*
D10*
%TO.N,N/C*%
%TO.C,H1*%
X150000000Y-109000000D03*
%TD*%
D11*
%TO.N,GND*%
%TO.C,J2*%
X124369200Y-118364000D03*
D12*
%TO.N,24VOUT*%
X119369200Y-118364000D03*
%TD*%
D13*
%TO.N,24VOUT*%
%TO.C,F1*%
X111734600Y-92633800D03*
%TO.N,+24V*%
X111734600Y-70033800D03*
%TD*%
D10*
%TO.N,N/C*%
%TO.C,H2*%
X149500000Y-55000000D03*
%TD*%
D14*
%TO.N,GND*%
%TO.C,J6*%
X140612400Y-114700200D03*
D15*
X140612400Y-118880200D03*
D14*
X149252400Y-114700200D03*
D15*
X149252400Y-118880200D03*
%TD*%
D13*
%TO.N,+24V*%
%TO.C,K1*%
X130683000Y-84582000D03*
%TO.N,unconnected-(K1-Pad12)*%
X120543000Y-66782000D03*
%TO.N,24VDC*%
X128143000Y-66782000D03*
D16*
%TO.N,GND*%
X143343000Y-80782000D03*
D17*
%TO.N,Net-(SW1-B)*%
X143343000Y-70582000D03*
%TD*%
D10*
%TO.N,N/C*%
%TO.C,H4*%
X104500000Y-55000000D03*
%TD*%
D11*
%TO.N,GND*%
%TO.C,J3*%
X112522000Y-118364000D03*
D12*
%TO.N,24VOUT*%
X107522000Y-118364000D03*
%TD*%
D18*
%TO.N,GND*%
%TO.C,J1*%
X113106200Y-54864000D03*
D19*
%TO.N,24VDC*%
X120306200Y-54864000D03*
%TD*%
D10*
%TO.N,N/C*%
%TO.C,H3*%
X105000000Y-109000000D03*
%TD*%
D11*
%TO.N,GND*%
%TO.C,J5*%
X136104000Y-118364000D03*
D12*
%TO.N,+5V*%
X131104000Y-118364000D03*
%TD*%
D20*
%TO.N,Net-(SW1-A)*%
%TO.C,SW1*%
X136775000Y-58521600D03*
D21*
%TO.N,Net-(SW1-B)*%
X144395000Y-58521600D03*
%TD*%
D22*
%TO.N,+24V*%
X131318000Y-74676000D03*
X111963200Y-80822800D03*
X129895600Y-78638400D03*
X111455200Y-78435200D03*
X121056400Y-78079600D03*
X121564400Y-78841600D03*
X129438400Y-73152000D03*
X120599200Y-81991200D03*
X112420400Y-78435200D03*
X111506000Y-81584800D03*
X112877600Y-76149200D03*
X111861600Y-74574400D03*
X120142000Y-73355200D03*
X121564400Y-77317600D03*
X121564400Y-80467200D03*
X121564400Y-75641200D03*
X125323600Y-94030800D03*
X121056400Y-74879200D03*
X120954800Y-91694000D03*
X121869200Y-91694000D03*
X131673600Y-93980000D03*
X121869200Y-90170000D03*
X131318000Y-76352400D03*
X122834400Y-88646000D03*
X129895600Y-73914000D03*
X110947200Y-73050400D03*
X111963200Y-79298800D03*
X120142000Y-78079600D03*
X120954800Y-88646000D03*
X125780800Y-94792800D03*
X111404400Y-75336400D03*
X128397000Y-95344000D03*
X120142000Y-79705200D03*
X122021600Y-73355200D03*
X110998000Y-76149200D03*
X110998000Y-77673200D03*
X122377200Y-92456000D03*
X135763000Y-95344000D03*
X122834400Y-91694000D03*
X111048800Y-80822800D03*
X120954800Y-90170000D03*
X121056400Y-81229200D03*
X122834400Y-90170000D03*
X124815600Y-94792800D03*
X129438400Y-74676000D03*
X130352800Y-73152000D03*
X130860800Y-75438000D03*
X120599200Y-74117200D03*
X121056400Y-79705200D03*
X122834400Y-87122000D03*
X112369600Y-75336400D03*
X112826800Y-74574400D03*
X129895600Y-77114400D03*
X121412000Y-87884000D03*
X120142000Y-74879200D03*
X124358400Y-95554800D03*
X130860800Y-78638400D03*
X122377200Y-90932000D03*
X129438400Y-76352400D03*
X120954800Y-87122000D03*
X121564400Y-81991200D03*
X131318000Y-73152000D03*
X121869200Y-88646000D03*
X112826800Y-73050400D03*
X110947200Y-74574400D03*
X111455200Y-76911200D03*
X122021600Y-81229200D03*
X130352800Y-77876400D03*
X138836400Y-94131400D03*
X111861600Y-73050400D03*
X122021600Y-74879200D03*
X111048800Y-79298800D03*
X124358400Y-94030800D03*
X111912400Y-77673200D03*
X112928400Y-79298800D03*
X121412000Y-92456000D03*
X125323600Y-95554800D03*
X121412000Y-90932000D03*
X123901200Y-94792800D03*
X131216400Y-94742000D03*
X121564400Y-74117200D03*
X112420400Y-76911200D03*
X120599200Y-78841600D03*
X129895600Y-75438000D03*
X122377200Y-89408000D03*
X133096000Y-94742000D03*
X122021600Y-76555600D03*
X120599200Y-77317600D03*
X121158000Y-95344000D03*
X112928400Y-80822800D03*
X130860800Y-73914000D03*
X112471200Y-81584800D03*
X120599200Y-80467200D03*
X120142000Y-76555600D03*
X121869200Y-87122000D03*
X122021600Y-79705200D03*
X112877600Y-77673200D03*
X130352800Y-76352400D03*
X111912400Y-76149200D03*
X132638800Y-93980000D03*
X131673600Y-95504000D03*
X122021600Y-78079600D03*
X130860800Y-77114400D03*
X112369600Y-73812400D03*
X132638800Y-95504000D03*
X111506000Y-80060800D03*
X132130800Y-94742000D03*
X120599200Y-75641200D03*
X122377200Y-87884000D03*
X121056400Y-76555600D03*
X129438400Y-77876400D03*
X112471200Y-80060800D03*
X131318000Y-77876400D03*
X111404400Y-73812400D03*
X121412000Y-89408000D03*
X120142000Y-81229200D03*
X130352800Y-74676000D03*
X121056400Y-73355200D03*
%TO.N,GND*%
X148742400Y-72948800D03*
X105105200Y-96723200D03*
X145389600Y-109321600D03*
X104241600Y-88798400D03*
X135585200Y-75793600D03*
X139039600Y-65125600D03*
X112166400Y-61468000D03*
X110794800Y-62179200D03*
X125069600Y-101904800D03*
X151130000Y-118389600D03*
X136499600Y-79705200D03*
X146100800Y-111658400D03*
D23*
X142000000Y-116500000D03*
D22*
X116992400Y-87477600D03*
X149707600Y-86106000D03*
X104597200Y-64516000D03*
X104648000Y-81330800D03*
X103733600Y-82753200D03*
X103225600Y-96723200D03*
X151028400Y-80416400D03*
X150571200Y-66954400D03*
X103225600Y-95300800D03*
X133553200Y-89408000D03*
X116636800Y-94894400D03*
X129489200Y-88950800D03*
X137922000Y-75082400D03*
X131978400Y-103987600D03*
X131521200Y-101854000D03*
X131521200Y-103276400D03*
X102819200Y-82753200D03*
X103276400Y-80619600D03*
X125526800Y-101193600D03*
X139039600Y-63703200D03*
X150164800Y-75082400D03*
X133553200Y-53644800D03*
X153263600Y-99415600D03*
X136499600Y-72948800D03*
X149656800Y-81127600D03*
X104089200Y-65227200D03*
X149199600Y-66243200D03*
X148793200Y-87528400D03*
X148793200Y-88950800D03*
X151028400Y-66243200D03*
X137464800Y-82550000D03*
X117144800Y-94183200D03*
X146100800Y-109778800D03*
X149656800Y-75793600D03*
X149656800Y-68376800D03*
X149199600Y-67665600D03*
X137007600Y-81838800D03*
X134010400Y-52933600D03*
X153263600Y-100380800D03*
X123698000Y-101193600D03*
X117602000Y-94894400D03*
X125526800Y-102616000D03*
X126034800Y-103327200D03*
X102819200Y-81330800D03*
X123698000Y-102616000D03*
X104597200Y-96012000D03*
X103733600Y-88087200D03*
X103911400Y-75806000D03*
X134010400Y-88696800D03*
X141211000Y-99618800D03*
X149250400Y-88239600D03*
X139547600Y-65836800D03*
X111252000Y-62890400D03*
X139496800Y-64414400D03*
X134924800Y-52933600D03*
X137464800Y-75793600D03*
X103733600Y-81330800D03*
X103124000Y-118643600D03*
X104648000Y-97434400D03*
X105054400Y-65227200D03*
X133350000Y-101854000D03*
X121818400Y-113995200D03*
X132943600Y-103987600D03*
X105003600Y-62382400D03*
X137414000Y-72948800D03*
X102819200Y-88087200D03*
X136042400Y-81838800D03*
X103276400Y-82042000D03*
X136956800Y-73660000D03*
X102819200Y-79908400D03*
X103174800Y-63804800D03*
X103632000Y-63093600D03*
X105156000Y-82042000D03*
X148793200Y-86106000D03*
X134518400Y-55067200D03*
X116179600Y-94183200D03*
X148742400Y-79705200D03*
X150571200Y-79705200D03*
X148742400Y-68376800D03*
X104140000Y-95300800D03*
X112623600Y-62179200D03*
X104648000Y-88087200D03*
X149656800Y-72948800D03*
X137414000Y-74371200D03*
X102768400Y-94589600D03*
X103174800Y-62382400D03*
X149656800Y-65532000D03*
X104648000Y-79908400D03*
X136499600Y-74371200D03*
X116535200Y-86766400D03*
X103276400Y-88798400D03*
X115112800Y-87477600D03*
X127609600Y-88950800D03*
X104190800Y-96723200D03*
X111709200Y-63601600D03*
X149656800Y-79705200D03*
X137210800Y-65125600D03*
X150164800Y-81838800D03*
X131064000Y-102565200D03*
X137007600Y-75082400D03*
X150215600Y-88239600D03*
X116027200Y-87477600D03*
X132892800Y-102565200D03*
X151079200Y-81838800D03*
X102819200Y-86664800D03*
X133096000Y-54356000D03*
X125984000Y-101904800D03*
X105511600Y-64516000D03*
X104089200Y-62382400D03*
X103682800Y-94589600D03*
X135585200Y-82550000D03*
X123240800Y-114706400D03*
X124612400Y-102616000D03*
X135432800Y-89408000D03*
X150622000Y-82550000D03*
X150622000Y-68376800D03*
X148742400Y-82550000D03*
X103632000Y-64516000D03*
X135585200Y-79705200D03*
X136042400Y-73660000D03*
X132638800Y-55067200D03*
X133553200Y-52222400D03*
X127152400Y-89662000D03*
X148742400Y-75793600D03*
X149250400Y-86817200D03*
X103733600Y-89509600D03*
X115570000Y-86766400D03*
X125577600Y-104038400D03*
X151130000Y-88239600D03*
X151079200Y-67665600D03*
X132638800Y-52222400D03*
X149199600Y-73660000D03*
X150114000Y-66243200D03*
X111252000Y-61468000D03*
X150114000Y-73660000D03*
X128066800Y-89662000D03*
X137414000Y-79705200D03*
X150164800Y-86817200D03*
X111709200Y-60756800D03*
X141915600Y-94037200D03*
X134467600Y-52222400D03*
X103276400Y-87376000D03*
X150571200Y-81127600D03*
X104089200Y-63804800D03*
X149707600Y-87528400D03*
X138633200Y-65836800D03*
X137871200Y-73660000D03*
X136042400Y-75082400D03*
X134975600Y-88696800D03*
X131978400Y-101142800D03*
X129032000Y-89662000D03*
X103733600Y-79908400D03*
X104698800Y-89509600D03*
X102768400Y-97434400D03*
X136499600Y-82550000D03*
X136499600Y-75793600D03*
X135585200Y-81127600D03*
X131978400Y-102565200D03*
X102819200Y-89509600D03*
X143129000Y-110302000D03*
X115722400Y-94894400D03*
X111709200Y-62179200D03*
X151079200Y-75082400D03*
X104190800Y-80619600D03*
X149656800Y-66954400D03*
X151028400Y-73660000D03*
X135890000Y-88696800D03*
X137871200Y-80416400D03*
X121361200Y-114706400D03*
D23*
X148000000Y-116500000D03*
D22*
X149199600Y-80416400D03*
X133553200Y-55067200D03*
X137210800Y-66548000D03*
X134467600Y-53644800D03*
X105156000Y-88798400D03*
X133096000Y-52933600D03*
X150672800Y-88950800D03*
X123698000Y-104038400D03*
X112623600Y-60756800D03*
X150622000Y-86106000D03*
X131064000Y-103987600D03*
X151079200Y-86817200D03*
X124612400Y-101193600D03*
X148742400Y-65532000D03*
X149707600Y-88950800D03*
X149199600Y-81838800D03*
X125120400Y-103327200D03*
X139090400Y-66548000D03*
X128930400Y-56870600D03*
X110794800Y-63601600D03*
X104190800Y-87376000D03*
X122275600Y-114706400D03*
X103174800Y-65227200D03*
X124612400Y-104038400D03*
X104698800Y-82753200D03*
X137210800Y-63703200D03*
X136042400Y-80416400D03*
X105460800Y-63093600D03*
X102768400Y-96012000D03*
X104241600Y-82042000D03*
X150114000Y-80416400D03*
X148742400Y-74371200D03*
X132892800Y-101142800D03*
X149656800Y-74371200D03*
X105105200Y-80619600D03*
X103682800Y-97434400D03*
X134467600Y-89408000D03*
X149199600Y-75082400D03*
X138125200Y-66548000D03*
X132486400Y-103276400D03*
X135585200Y-74371200D03*
X103733600Y-86664800D03*
X134975600Y-54356000D03*
X124155200Y-103327200D03*
X148742400Y-66954400D03*
X134061200Y-54356000D03*
X140411200Y-92481400D03*
X123698000Y-113995200D03*
X138125200Y-65125600D03*
X105003600Y-63804800D03*
X149656800Y-82550000D03*
X150164800Y-67665600D03*
X112674400Y-63601600D03*
X137668000Y-65836800D03*
X104546400Y-63093600D03*
X137414000Y-81127600D03*
X132638800Y-53644800D03*
X137922000Y-81838800D03*
X122783600Y-113995200D03*
X133400800Y-103276400D03*
X138125200Y-63703200D03*
X110794800Y-60756800D03*
X118059200Y-94183200D03*
X138582400Y-64414400D03*
X152552400Y-100838000D03*
X128574800Y-88950800D03*
X104597200Y-94589600D03*
X103682800Y-96012000D03*
X136956800Y-80416400D03*
X153263600Y-101295200D03*
X124155200Y-101904800D03*
X150571200Y-65532000D03*
X136499600Y-81127600D03*
X135585200Y-72948800D03*
X113080800Y-61468000D03*
X131064000Y-101142800D03*
X150622000Y-87528400D03*
X145389600Y-110236000D03*
X146100800Y-110744000D03*
X137668000Y-64414400D03*
X132435600Y-101854000D03*
X150622000Y-75793600D03*
X150571200Y-74371200D03*
X152552400Y-98958400D03*
X113131600Y-62890400D03*
X105105200Y-87376000D03*
X150571200Y-72948800D03*
X148742400Y-81127600D03*
X145389600Y-111201200D03*
X117449600Y-86766400D03*
X105054400Y-95300800D03*
X112217200Y-62890400D03*
X104648000Y-86664800D03*
X152552400Y-99872800D03*
%TO.N,+5V*%
X123698000Y-109220000D03*
X140208000Y-102006400D03*
X119380000Y-111506000D03*
X144576800Y-116128800D03*
X119380000Y-108458000D03*
X139319000Y-110744000D03*
X139827000Y-109982000D03*
X118364000Y-109982000D03*
X140716000Y-102768400D03*
X140716000Y-104292400D03*
X141224000Y-102006400D03*
X145592800Y-119176800D03*
X131064000Y-109220000D03*
X140335000Y-109220000D03*
X118364000Y-111506000D03*
X140208000Y-103530400D03*
X138811000Y-108458000D03*
X132588000Y-108458000D03*
X144068800Y-118414800D03*
X118364000Y-108458000D03*
X145084800Y-118414800D03*
X125222000Y-111506000D03*
X140335000Y-110744000D03*
X131572000Y-109982000D03*
X143129000Y-104902000D03*
X125222000Y-109982000D03*
X124206000Y-109982000D03*
X144576800Y-117652800D03*
X131572000Y-111506000D03*
X144068800Y-116890800D03*
X151130000Y-113716800D03*
X124206000Y-111506000D03*
X131572000Y-108458000D03*
X118872000Y-109220000D03*
X144576800Y-119176800D03*
X139192000Y-103530400D03*
X138303000Y-109220000D03*
X146100800Y-118414800D03*
X139700000Y-102768400D03*
X132080000Y-109220000D03*
X133096000Y-110744000D03*
X138811000Y-111506000D03*
X139827000Y-111506000D03*
X138303000Y-110744000D03*
X125222000Y-108458000D03*
X145592800Y-117652800D03*
X123698000Y-110744000D03*
X142007233Y-98894173D03*
X132588000Y-111506000D03*
X139700000Y-101244400D03*
X131064000Y-110744000D03*
X141224000Y-103530400D03*
X118872000Y-110744000D03*
X125730000Y-110744000D03*
X140716000Y-101244400D03*
X133096000Y-109220000D03*
X124206000Y-108458000D03*
X135763000Y-110335000D03*
X139700000Y-104292400D03*
X139192000Y-102006400D03*
X128397000Y-110429000D03*
X139319000Y-109220000D03*
X132080000Y-110744000D03*
X125730000Y-109220000D03*
X139827000Y-108458000D03*
X138811000Y-109982000D03*
X124714000Y-109220000D03*
X132588000Y-109982000D03*
X145592800Y-116128800D03*
X145084800Y-116890800D03*
X148209000Y-102489000D03*
X124714000Y-110744000D03*
X146100800Y-116890800D03*
X119380000Y-109982000D03*
X121031000Y-110363000D03*
%TO.N,24VOUT*%
X113157000Y-98018600D03*
X111408000Y-103428800D03*
X112547400Y-109601000D03*
X110490000Y-99771200D03*
X110998000Y-100634800D03*
X113538000Y-110591600D03*
X111408000Y-107010200D03*
X111408000Y-108051600D03*
X111408000Y-111404400D03*
X111408000Y-110236000D03*
X110998000Y-97078800D03*
X114528600Y-111582200D03*
X110998000Y-98907600D03*
X109620400Y-113379600D03*
X115519200Y-112572800D03*
X110509400Y-112490600D03*
X103124600Y-113980000D03*
X111506000Y-96215200D03*
X110490000Y-96215200D03*
X116484400Y-113538000D03*
X111506000Y-99771200D03*
X111408000Y-109067600D03*
X110490000Y-98044000D03*
X113131600Y-100431600D03*
X111506000Y-98044000D03*
%TO.N,Net-(U1-PG)*%
X140797400Y-98653600D03*
X140157200Y-91033600D03*
%TD*%
%TA.AperFunction,Conductor*%
%TO.N,+5V*%
G36*
X141538409Y-100071088D02*
G01*
X141548784Y-100077824D01*
X141607292Y-100115811D01*
X141641964Y-100130106D01*
X141648520Y-100132721D01*
X141648523Y-100132722D01*
X141708975Y-100143919D01*
X141758913Y-100153169D01*
X141758913Y-100153168D01*
X141758914Y-100153169D01*
X143463344Y-100150363D01*
X151985501Y-100136335D01*
X152051144Y-100125413D01*
X152087676Y-100133884D01*
X152098056Y-100143917D01*
X152177609Y-100247591D01*
X152267446Y-100316526D01*
X152286197Y-100349005D01*
X152276490Y-100385230D01*
X152267446Y-100394274D01*
X152177607Y-100463210D01*
X152093376Y-100572982D01*
X152093373Y-100572987D01*
X152040425Y-100700817D01*
X152022365Y-100838000D01*
X152040425Y-100975182D01*
X152093374Y-101103014D01*
X152093376Y-101103018D01*
X152177609Y-101212791D01*
X152287382Y-101297024D01*
X152415217Y-101349974D01*
X152552400Y-101368035D01*
X152689583Y-101349974D01*
X152689583Y-101349973D01*
X152691322Y-101349745D01*
X152727547Y-101359452D01*
X152746299Y-101391929D01*
X152751625Y-101432382D01*
X152804574Y-101560214D01*
X152804576Y-101560218D01*
X152888809Y-101669991D01*
X152998582Y-101754224D01*
X153126417Y-101807174D01*
X153263600Y-101825235D01*
X153400783Y-101807174D01*
X153528618Y-101754224D01*
X153638391Y-101669991D01*
X153722624Y-101560218D01*
X153775574Y-101432383D01*
X153793635Y-101295200D01*
X153775574Y-101158017D01*
X153752791Y-101103014D01*
X153722626Y-101030187D01*
X153722623Y-101030182D01*
X153638392Y-100920410D01*
X153638391Y-100920409D01*
X153581654Y-100876872D01*
X153562904Y-100844395D01*
X153572611Y-100808170D01*
X153581652Y-100799128D01*
X153638391Y-100755591D01*
X153722624Y-100645818D01*
X153775574Y-100517983D01*
X153793635Y-100380800D01*
X153775574Y-100243617D01*
X153757960Y-100201092D01*
X153757960Y-100163591D01*
X153784479Y-100137072D01*
X153803146Y-100133342D01*
X154450421Y-100132277D01*
X154485091Y-100146571D01*
X154499500Y-100181195D01*
X154499500Y-111705830D01*
X154485148Y-111740478D01*
X154450500Y-111754830D01*
X154450246Y-111754829D01*
X151641260Y-111740274D01*
X151606687Y-111725743D01*
X151592515Y-111691021D01*
X151607046Y-111656448D01*
X151617802Y-111648395D01*
X151652164Y-111629405D01*
X151936176Y-111427888D01*
X152195839Y-111195839D01*
X152427888Y-110936176D01*
X152629405Y-110652164D01*
X152797855Y-110347376D01*
X152931121Y-110025644D01*
X153027527Y-109691013D01*
X153085859Y-109347693D01*
X153105385Y-109000000D01*
X153085859Y-108652307D01*
X153027527Y-108308987D01*
X152931121Y-107974356D01*
X152797855Y-107652624D01*
X152629405Y-107347836D01*
X152502689Y-107169246D01*
X152427893Y-107063830D01*
X152427877Y-107063811D01*
X152284491Y-106903363D01*
X152195839Y-106804161D01*
X152052384Y-106675962D01*
X151936188Y-106572122D01*
X151936169Y-106572106D01*
X151652172Y-106370600D01*
X151652165Y-106370595D01*
X151347380Y-106202147D01*
X151347365Y-106202140D01*
X151025646Y-106068880D01*
X151025647Y-106068880D01*
X151025644Y-106068879D01*
X150916956Y-106037566D01*
X150691023Y-105972475D01*
X150691015Y-105972473D01*
X150691013Y-105972473D01*
X150347693Y-105914141D01*
X150347691Y-105914140D01*
X150347685Y-105914140D01*
X150000000Y-105894615D01*
X149652314Y-105914140D01*
X149652307Y-105914141D01*
X149308987Y-105972473D01*
X149308985Y-105972473D01*
X149308976Y-105972475D01*
X148974353Y-106068880D01*
X148652634Y-106202140D01*
X148652619Y-106202147D01*
X148347834Y-106370595D01*
X148347827Y-106370600D01*
X148063830Y-106572106D01*
X148063811Y-106572122D01*
X147804161Y-106804161D01*
X147572122Y-107063811D01*
X147572106Y-107063830D01*
X147370600Y-107347827D01*
X147370595Y-107347834D01*
X147202147Y-107652619D01*
X147202140Y-107652634D01*
X147068880Y-107974353D01*
X146972475Y-108308976D01*
X146972473Y-108308985D01*
X146972473Y-108308987D01*
X146914141Y-108652307D01*
X146914140Y-108652314D01*
X146894615Y-109000000D01*
X146914140Y-109347685D01*
X146914140Y-109347691D01*
X146914141Y-109347693D01*
X146964080Y-109641617D01*
X146972475Y-109691023D01*
X147013354Y-109832913D01*
X147068879Y-110025644D01*
X147076405Y-110043814D01*
X147202140Y-110347365D01*
X147202147Y-110347380D01*
X147370595Y-110652165D01*
X147370600Y-110652172D01*
X147572106Y-110936169D01*
X147572122Y-110936188D01*
X147675962Y-111052384D01*
X147804161Y-111195839D01*
X147902376Y-111283609D01*
X148063811Y-111427877D01*
X148063830Y-111427893D01*
X148347827Y-111629399D01*
X148347829Y-111629400D01*
X148347836Y-111629405D01*
X148351114Y-111631217D01*
X148351120Y-111631220D01*
X148374501Y-111660542D01*
X148370301Y-111697809D01*
X148340979Y-111721190D01*
X148327162Y-111723104D01*
X146679060Y-111714564D01*
X146644487Y-111700033D01*
X146630315Y-111665311D01*
X146630733Y-111659172D01*
X146630835Y-111658400D01*
X146612774Y-111521217D01*
X146589991Y-111466214D01*
X146559826Y-111393387D01*
X146559823Y-111393382D01*
X146475592Y-111283610D01*
X146475591Y-111283609D01*
X146418854Y-111240072D01*
X146400104Y-111207595D01*
X146409811Y-111171370D01*
X146418852Y-111162328D01*
X146475591Y-111118791D01*
X146559824Y-111009018D01*
X146612774Y-110881183D01*
X146630835Y-110744000D01*
X146612774Y-110606817D01*
X146568951Y-110501018D01*
X146559826Y-110478987D01*
X146559823Y-110478982D01*
X146475591Y-110369209D01*
X146475590Y-110369208D01*
X146439630Y-110341615D01*
X146385753Y-110300273D01*
X146367002Y-110267796D01*
X146376709Y-110231571D01*
X146385754Y-110222526D01*
X146396055Y-110214622D01*
X146475591Y-110153591D01*
X146559824Y-110043818D01*
X146612774Y-109915983D01*
X146630835Y-109778800D01*
X146612774Y-109641617D01*
X146559824Y-109513783D01*
X146475591Y-109404009D01*
X146365818Y-109319776D01*
X146365814Y-109319774D01*
X146237982Y-109266825D01*
X146118860Y-109251142D01*
X146100800Y-109248765D01*
X146100799Y-109248765D01*
X145961875Y-109267054D01*
X145925650Y-109257347D01*
X145906899Y-109224869D01*
X145901574Y-109184417D01*
X145848624Y-109056583D01*
X145764391Y-108946809D01*
X145654618Y-108862576D01*
X145654614Y-108862574D01*
X145526782Y-108809625D01*
X145389600Y-108791565D01*
X145252417Y-108809625D01*
X145124587Y-108862573D01*
X145124582Y-108862576D01*
X145014809Y-108946808D01*
X145014808Y-108946809D01*
X144930576Y-109056582D01*
X144930573Y-109056587D01*
X144877625Y-109184417D01*
X144859565Y-109321600D01*
X144877625Y-109458782D01*
X144930574Y-109586614D01*
X144930576Y-109586618D01*
X145014809Y-109696391D01*
X145066603Y-109736134D01*
X145071544Y-109739926D01*
X145090295Y-109772405D01*
X145080588Y-109808630D01*
X145071544Y-109817674D01*
X145014807Y-109861210D01*
X144930576Y-109970982D01*
X144930573Y-109970987D01*
X144877625Y-110098817D01*
X144859565Y-110236000D01*
X144877625Y-110373182D01*
X144925752Y-110489372D01*
X144930576Y-110501018D01*
X145014809Y-110610791D01*
X145100821Y-110676791D01*
X145104646Y-110679726D01*
X145123397Y-110712205D01*
X145113690Y-110748430D01*
X145104646Y-110757474D01*
X145014807Y-110826410D01*
X144930576Y-110936182D01*
X144930573Y-110936187D01*
X144877625Y-111064017D01*
X144859565Y-111201200D01*
X144877625Y-111338382D01*
X144930574Y-111466214D01*
X144930576Y-111466218D01*
X145014809Y-111575991D01*
X145069813Y-111618198D01*
X145088564Y-111650676D01*
X145078857Y-111686901D01*
X145046378Y-111705652D01*
X145039729Y-111706070D01*
X131336995Y-111635071D01*
X131336994Y-111635072D01*
X130937000Y-111633000D01*
X130937000Y-113030000D01*
X154450500Y-113030000D01*
X154485148Y-113044352D01*
X154499500Y-113079000D01*
X154499500Y-119498251D01*
X154499375Y-119501747D01*
X154484486Y-119709905D01*
X154483491Y-119716825D01*
X154439505Y-119919029D01*
X154437536Y-119925737D01*
X154365215Y-120119637D01*
X154362310Y-120125996D01*
X154263140Y-120307614D01*
X154259360Y-120313496D01*
X154135345Y-120479159D01*
X154130767Y-120484442D01*
X153984442Y-120630767D01*
X153979159Y-120635345D01*
X153813496Y-120759360D01*
X153807614Y-120763140D01*
X153625996Y-120862310D01*
X153619637Y-120865215D01*
X153425737Y-120937536D01*
X153419029Y-120939505D01*
X153216825Y-120983491D01*
X153209905Y-120984486D01*
X153001748Y-120999375D01*
X152998252Y-120999500D01*
X123577024Y-120999500D01*
X123542376Y-120985148D01*
X123528024Y-120950500D01*
X123528026Y-120950102D01*
X123529919Y-120717149D01*
X123529926Y-120715920D01*
X123529928Y-120715535D01*
X123529839Y-120713133D01*
X123528683Y-120681681D01*
X123515060Y-120624938D01*
X123520927Y-120587897D01*
X123551267Y-120565853D01*
X123562706Y-120564499D01*
X126314058Y-120564499D01*
X126314064Y-120564499D01*
X126339191Y-120561585D01*
X126441965Y-120516206D01*
X126521406Y-120436765D01*
X126566785Y-120333991D01*
X126569700Y-120308865D01*
X126569699Y-116419136D01*
X126569699Y-116419134D01*
X133903500Y-116419134D01*
X133903500Y-120308858D01*
X133903501Y-120308868D01*
X133906415Y-120333992D01*
X133951794Y-120436766D01*
X134031233Y-120516205D01*
X134134006Y-120561584D01*
X134134009Y-120561585D01*
X134159135Y-120564500D01*
X138048864Y-120564499D01*
X138073991Y-120561585D01*
X138176765Y-120516206D01*
X138256206Y-120436765D01*
X138301585Y-120333991D01*
X138304500Y-120308865D01*
X138304500Y-118401352D01*
X139811900Y-118401352D01*
X139811900Y-119359047D01*
X139842660Y-119513687D01*
X139842663Y-119513698D01*
X139903004Y-119659375D01*
X139903006Y-119659379D01*
X139990611Y-119790489D01*
X140102111Y-119901989D01*
X140233221Y-119989594D01*
X140378903Y-120049937D01*
X140378909Y-120049938D01*
X140378912Y-120049939D01*
X140533552Y-120080699D01*
X140533558Y-120080700D01*
X140691242Y-120080700D01*
X140845897Y-120049937D01*
X140991579Y-119989594D01*
X141122689Y-119901989D01*
X141234189Y-119790489D01*
X141321794Y-119659379D01*
X141382137Y-119513697D01*
X141412900Y-119359042D01*
X141412900Y-118401358D01*
X141412899Y-118401352D01*
X148451900Y-118401352D01*
X148451900Y-119359047D01*
X148482660Y-119513687D01*
X148482663Y-119513698D01*
X148543004Y-119659375D01*
X148543006Y-119659379D01*
X148630611Y-119790489D01*
X148742111Y-119901989D01*
X148873221Y-119989594D01*
X149018903Y-120049937D01*
X149018909Y-120049938D01*
X149018912Y-120049939D01*
X149173552Y-120080699D01*
X149173558Y-120080700D01*
X149331242Y-120080700D01*
X149485897Y-120049937D01*
X149631579Y-119989594D01*
X149762689Y-119901989D01*
X149874189Y-119790489D01*
X149961794Y-119659379D01*
X150022137Y-119513697D01*
X150052900Y-119359042D01*
X150052900Y-118401358D01*
X150050561Y-118389600D01*
X150599965Y-118389600D01*
X150618025Y-118526782D01*
X150644442Y-118590559D01*
X150670976Y-118654618D01*
X150755209Y-118764391D01*
X150864982Y-118848624D01*
X150992817Y-118901574D01*
X151130000Y-118919635D01*
X151267183Y-118901574D01*
X151395018Y-118848624D01*
X151504791Y-118764391D01*
X151589024Y-118654618D01*
X151641974Y-118526783D01*
X151660035Y-118389600D01*
X151641974Y-118252417D01*
X151589024Y-118124583D01*
X151504791Y-118014809D01*
X151395018Y-117930576D01*
X151395014Y-117930574D01*
X151267182Y-117877625D01*
X151130000Y-117859565D01*
X150992817Y-117877625D01*
X150864987Y-117930573D01*
X150864982Y-117930576D01*
X150755209Y-118014808D01*
X150755208Y-118014809D01*
X150670976Y-118124582D01*
X150670973Y-118124587D01*
X150618025Y-118252417D01*
X150599965Y-118389600D01*
X150050561Y-118389600D01*
X150022137Y-118246703D01*
X149961794Y-118101021D01*
X149874189Y-117969911D01*
X149762689Y-117858411D01*
X149631579Y-117770806D01*
X149631576Y-117770804D01*
X149631575Y-117770804D01*
X149485898Y-117710463D01*
X149485887Y-117710460D01*
X149331247Y-117679700D01*
X149331242Y-117679700D01*
X149173558Y-117679700D01*
X149173552Y-117679700D01*
X149018912Y-117710460D01*
X149018901Y-117710463D01*
X148873224Y-117770804D01*
X148742111Y-117858410D01*
X148630610Y-117969911D01*
X148543004Y-118101024D01*
X148482663Y-118246701D01*
X148482660Y-118246712D01*
X148451900Y-118401352D01*
X141412899Y-118401352D01*
X141382137Y-118246703D01*
X141321794Y-118101021D01*
X141234189Y-117969911D01*
X141122689Y-117858411D01*
X140991579Y-117770806D01*
X140991576Y-117770804D01*
X140991575Y-117770804D01*
X140845898Y-117710463D01*
X140845887Y-117710460D01*
X140691247Y-117679700D01*
X140691242Y-117679700D01*
X140533558Y-117679700D01*
X140533552Y-117679700D01*
X140378912Y-117710460D01*
X140378901Y-117710463D01*
X140233224Y-117770804D01*
X140102111Y-117858410D01*
X139990610Y-117969911D01*
X139903004Y-118101024D01*
X139842663Y-118246701D01*
X139842660Y-118246712D01*
X139811900Y-118401352D01*
X138304500Y-118401352D01*
X138304499Y-116419136D01*
X138301585Y-116394009D01*
X138256206Y-116291235D01*
X138256205Y-116291234D01*
X138256205Y-116291233D01*
X138176766Y-116211794D01*
X138176767Y-116211794D01*
X138073993Y-116166415D01*
X138061428Y-116164957D01*
X138048865Y-116163500D01*
X138048863Y-116163500D01*
X134159141Y-116163500D01*
X134159131Y-116163501D01*
X134134007Y-116166415D01*
X134031233Y-116211794D01*
X133951794Y-116291233D01*
X133906415Y-116394006D01*
X133903500Y-116419134D01*
X126569699Y-116419134D01*
X126566785Y-116394009D01*
X126521406Y-116291235D01*
X126521405Y-116291234D01*
X126521405Y-116291233D01*
X126441966Y-116211794D01*
X126441967Y-116211794D01*
X126339193Y-116166415D01*
X126314065Y-116163500D01*
X123601740Y-116163500D01*
X123567092Y-116149148D01*
X123552740Y-116114500D01*
X123553406Y-116106447D01*
X123568121Y-116018195D01*
X123573353Y-115374727D01*
X123558912Y-115264131D01*
X123551847Y-115238383D01*
X123547202Y-115222702D01*
X123533106Y-115194621D01*
X123530390Y-115157218D01*
X123547067Y-115133771D01*
X123615591Y-115081191D01*
X123699824Y-114971418D01*
X123752774Y-114843583D01*
X123770835Y-114706400D01*
X123752774Y-114569217D01*
X123752545Y-114567476D01*
X123762252Y-114531251D01*
X123794728Y-114512500D01*
X123835183Y-114507174D01*
X123963018Y-114454224D01*
X124072791Y-114369991D01*
X124157024Y-114260218D01*
X124209974Y-114132383D01*
X124218009Y-114071352D01*
X139811900Y-114071352D01*
X139811900Y-115329047D01*
X139842660Y-115483687D01*
X139842663Y-115483697D01*
X139903006Y-115629379D01*
X139961671Y-115717178D01*
X139989365Y-115758625D01*
X139990611Y-115760489D01*
X140102111Y-115871989D01*
X140233221Y-115959594D01*
X140378903Y-116019937D01*
X140378909Y-116019938D01*
X140378912Y-116019939D01*
X140533552Y-116050699D01*
X140533558Y-116050700D01*
X140691242Y-116050700D01*
X140845897Y-116019937D01*
X140991579Y-115959594D01*
X141122689Y-115871989D01*
X141234189Y-115760489D01*
X141321794Y-115629379D01*
X141382137Y-115483697D01*
X141400968Y-115389023D01*
X141421803Y-115357843D01*
X141458585Y-115350526D01*
X141489768Y-115371362D01*
X141496356Y-115385902D01*
X141506119Y-115422335D01*
X141506119Y-115422337D01*
X141581885Y-115553565D01*
X141689035Y-115660715D01*
X141764796Y-115704456D01*
X141820261Y-115736479D01*
X141820265Y-115736481D01*
X141842141Y-115742342D01*
X141871893Y-115765171D01*
X141876789Y-115802353D01*
X141853959Y-115832107D01*
X141841185Y-115837248D01*
X141756559Y-115858107D01*
X141610025Y-115935013D01*
X141610020Y-115935017D01*
X141486144Y-116044761D01*
X141392130Y-116180963D01*
X141392129Y-116180965D01*
X141333445Y-116335705D01*
X141333444Y-116335707D01*
X141333444Y-116335709D01*
X141313495Y-116500000D01*
X141333444Y-116664291D01*
X141333444Y-116664293D01*
X141333445Y-116664294D01*
X141392129Y-116819034D01*
X141392130Y-116819036D01*
X141486144Y-116955238D01*
X141610020Y-117064982D01*
X141610025Y-117064986D01*
X141756560Y-117141892D01*
X141756561Y-117141892D01*
X141756562Y-117141893D01*
X141917251Y-117181500D01*
X141917252Y-117181500D01*
X142082748Y-117181500D01*
X142082749Y-117181500D01*
X142243438Y-117141893D01*
X142243440Y-117141892D01*
X142389974Y-117064986D01*
X142389975Y-117064984D01*
X142389979Y-117064983D01*
X142513856Y-116955237D01*
X142607870Y-116819035D01*
X142666556Y-116664291D01*
X142686505Y-116500000D01*
X142666556Y-116335709D01*
X142607870Y-116180965D01*
X142595816Y-116163501D01*
X142513855Y-116044761D01*
X142389979Y-115935017D01*
X142389974Y-115935013D01*
X142243439Y-115858107D01*
X142243441Y-115858107D01*
X142202983Y-115848135D01*
X142172776Y-115825908D01*
X142167134Y-115788832D01*
X142189361Y-115758625D01*
X142202018Y-115753232D01*
X142264535Y-115736481D01*
X142395765Y-115660715D01*
X142502915Y-115553565D01*
X142578681Y-115422335D01*
X142617899Y-115275969D01*
X142617900Y-115275969D01*
X142617900Y-115124431D01*
X142617899Y-115124430D01*
X147246900Y-115124430D01*
X147246900Y-115275969D01*
X147286118Y-115422333D01*
X147286119Y-115422337D01*
X147361885Y-115553565D01*
X147469035Y-115660715D01*
X147517066Y-115688446D01*
X147600262Y-115736480D01*
X147600264Y-115736480D01*
X147600265Y-115736481D01*
X147622135Y-115742341D01*
X147736043Y-115772863D01*
X147765796Y-115795693D01*
X147770691Y-115832875D01*
X147747861Y-115862628D01*
X147746132Y-115863580D01*
X147610025Y-115935013D01*
X147610020Y-115935017D01*
X147486144Y-116044761D01*
X147392130Y-116180963D01*
X147392129Y-116180965D01*
X147333445Y-116335705D01*
X147333444Y-116335707D01*
X147333444Y-116335709D01*
X147313495Y-116500000D01*
X147333444Y-116664291D01*
X147333444Y-116664293D01*
X147333445Y-116664294D01*
X147392129Y-116819034D01*
X147392130Y-116819036D01*
X147486144Y-116955238D01*
X147610020Y-117064982D01*
X147610025Y-117064986D01*
X147756560Y-117141892D01*
X147756561Y-117141892D01*
X147756562Y-117141893D01*
X147917251Y-117181500D01*
X147917252Y-117181500D01*
X148082748Y-117181500D01*
X148082749Y-117181500D01*
X148243438Y-117141893D01*
X148243440Y-117141892D01*
X148389974Y-117064986D01*
X148389975Y-117064984D01*
X148389979Y-117064983D01*
X148513856Y-116955237D01*
X148607870Y-116819035D01*
X148666556Y-116664291D01*
X148686505Y-116500000D01*
X148666556Y-116335709D01*
X148607870Y-116180965D01*
X148595816Y-116163501D01*
X148513855Y-116044761D01*
X148389979Y-115935017D01*
X148389974Y-115935013D01*
X148243439Y-115858107D01*
X148243441Y-115858107D01*
X148082745Y-115818499D01*
X148079803Y-115818142D01*
X148080027Y-115816297D01*
X148050696Y-115804148D01*
X148036344Y-115769500D01*
X148050696Y-115734852D01*
X148060844Y-115727065D01*
X148065879Y-115724157D01*
X148175765Y-115660715D01*
X148282915Y-115553565D01*
X148358681Y-115422335D01*
X148368443Y-115385903D01*
X148391273Y-115356150D01*
X148428455Y-115351255D01*
X148458208Y-115374085D01*
X148463831Y-115389026D01*
X148482660Y-115483687D01*
X148482663Y-115483697D01*
X148543006Y-115629379D01*
X148601671Y-115717178D01*
X148629365Y-115758625D01*
X148630611Y-115760489D01*
X148742111Y-115871989D01*
X148873221Y-115959594D01*
X149018903Y-116019937D01*
X149018909Y-116019938D01*
X149018912Y-116019939D01*
X149173552Y-116050699D01*
X149173558Y-116050700D01*
X149331242Y-116050700D01*
X149485897Y-116019937D01*
X149631579Y-115959594D01*
X149762689Y-115871989D01*
X149874189Y-115760489D01*
X149961794Y-115629379D01*
X150022137Y-115483697D01*
X150052900Y-115329042D01*
X150052900Y-114071358D01*
X150022137Y-113916703D01*
X149961794Y-113771021D01*
X149874189Y-113639911D01*
X149762689Y-113528411D01*
X149631579Y-113440806D01*
X149631576Y-113440804D01*
X149631575Y-113440804D01*
X149485898Y-113380463D01*
X149485887Y-113380460D01*
X149331247Y-113349700D01*
X149331242Y-113349700D01*
X149173558Y-113349700D01*
X149173552Y-113349700D01*
X149018912Y-113380460D01*
X149018901Y-113380463D01*
X148873224Y-113440804D01*
X148742111Y-113528410D01*
X148630610Y-113639911D01*
X148543004Y-113771024D01*
X148482663Y-113916701D01*
X148482660Y-113916712D01*
X148451900Y-114071352D01*
X148451900Y-114956775D01*
X148437548Y-114991423D01*
X148402900Y-115005775D01*
X148368252Y-114991423D01*
X148360930Y-114980474D01*
X148360287Y-114980846D01*
X148282914Y-114846834D01*
X148175765Y-114739685D01*
X148044537Y-114663919D01*
X148044533Y-114663918D01*
X147898169Y-114624700D01*
X147898166Y-114624700D01*
X147746634Y-114624700D01*
X147746631Y-114624700D01*
X147600266Y-114663918D01*
X147600262Y-114663919D01*
X147469034Y-114739685D01*
X147469034Y-114739686D01*
X147361886Y-114846834D01*
X147361885Y-114846834D01*
X147286119Y-114978062D01*
X147286118Y-114978066D01*
X147246900Y-115124430D01*
X142617899Y-115124430D01*
X142578681Y-114978066D01*
X142578680Y-114978062D01*
X142502914Y-114846834D01*
X142395765Y-114739685D01*
X142264537Y-114663919D01*
X142264533Y-114663918D01*
X142118169Y-114624700D01*
X142118166Y-114624700D01*
X141966634Y-114624700D01*
X141966631Y-114624700D01*
X141820266Y-114663918D01*
X141820262Y-114663919D01*
X141689034Y-114739685D01*
X141689034Y-114739686D01*
X141581886Y-114846834D01*
X141581885Y-114846834D01*
X141504513Y-114980846D01*
X141502832Y-114979875D01*
X141480624Y-115002056D01*
X141443121Y-115002034D01*
X141416619Y-114975499D01*
X141412900Y-114956775D01*
X141412900Y-114071358D01*
X141412899Y-114071352D01*
X141382139Y-113916712D01*
X141382136Y-113916701D01*
X141321794Y-113771021D01*
X141234189Y-113639911D01*
X141122689Y-113528411D01*
X140991579Y-113440806D01*
X140991576Y-113440804D01*
X140991575Y-113440804D01*
X140845898Y-113380463D01*
X140845887Y-113380460D01*
X140691247Y-113349700D01*
X140691242Y-113349700D01*
X140533558Y-113349700D01*
X140533552Y-113349700D01*
X140378912Y-113380460D01*
X140378901Y-113380463D01*
X140233224Y-113440804D01*
X140102111Y-113528410D01*
X139990610Y-113639911D01*
X139903004Y-113771024D01*
X139842663Y-113916701D01*
X139842660Y-113916712D01*
X139811900Y-114071352D01*
X124218009Y-114071352D01*
X124228035Y-113995200D01*
X124209974Y-113858017D01*
X124173941Y-113771024D01*
X124157026Y-113730187D01*
X124157023Y-113730182D01*
X124072792Y-113620410D01*
X123963018Y-113536176D01*
X123963014Y-113536174D01*
X123835182Y-113483225D01*
X123716060Y-113467542D01*
X123698000Y-113465165D01*
X123697999Y-113465165D01*
X123644612Y-113472193D01*
X123608387Y-113462486D01*
X123589636Y-113430007D01*
X123589219Y-113423213D01*
X123592206Y-113055832D01*
X123591442Y-113054004D01*
X123590959Y-113039021D01*
X123561842Y-112915539D01*
X123547631Y-112880834D01*
X123534422Y-112851872D01*
X123534421Y-112851870D01*
X123534417Y-112851863D01*
X123460268Y-112748931D01*
X123092193Y-112377851D01*
X123092193Y-112377850D01*
X123091078Y-112376731D01*
X123091063Y-112376716D01*
X123090967Y-112376620D01*
X123090965Y-112376618D01*
X123090950Y-112376603D01*
X123067589Y-112355010D01*
X122959418Y-112288721D01*
X122959407Y-112288716D01*
X122945676Y-112283028D01*
X122924768Y-112274368D01*
X122913184Y-112270094D01*
X122894900Y-112263349D01*
X122894896Y-112263347D01*
X122819709Y-112251438D01*
X122769587Y-112243500D01*
X122769585Y-112243500D01*
X117677434Y-112243500D01*
X117642786Y-112229148D01*
X117628434Y-112194500D01*
X117628434Y-112194292D01*
X117628812Y-112105385D01*
X117636469Y-110302000D01*
X142598965Y-110302000D01*
X142617025Y-110439182D01*
X142642638Y-110501018D01*
X142669976Y-110567018D01*
X142754209Y-110676791D01*
X142863982Y-110761024D01*
X142991817Y-110813974D01*
X143129000Y-110832035D01*
X143266183Y-110813974D01*
X143394018Y-110761024D01*
X143503791Y-110676791D01*
X143588024Y-110567018D01*
X143640974Y-110439183D01*
X143659035Y-110302000D01*
X143640974Y-110164817D01*
X143590855Y-110043818D01*
X143588026Y-110036987D01*
X143588023Y-110036982D01*
X143503792Y-109927210D01*
X143503789Y-109927208D01*
X143394018Y-109842976D01*
X143394014Y-109842974D01*
X143266182Y-109790025D01*
X143129000Y-109771965D01*
X142991817Y-109790025D01*
X142863987Y-109842973D01*
X142863982Y-109842976D01*
X142754209Y-109927208D01*
X142754208Y-109927209D01*
X142669976Y-110036982D01*
X142669973Y-110036987D01*
X142617025Y-110164817D01*
X142598965Y-110302000D01*
X117636469Y-110302000D01*
X117675144Y-101193600D01*
X123167965Y-101193600D01*
X123186025Y-101330782D01*
X123238974Y-101458614D01*
X123238976Y-101458618D01*
X123323209Y-101568391D01*
X123432982Y-101652624D01*
X123560817Y-101705574D01*
X123601269Y-101710899D01*
X123633747Y-101729650D01*
X123643454Y-101765875D01*
X123625165Y-101904799D01*
X123643454Y-102043723D01*
X123633747Y-102079949D01*
X123601270Y-102098699D01*
X123560817Y-102104026D01*
X123560814Y-102104026D01*
X123560814Y-102104027D01*
X123560813Y-102104027D01*
X123432987Y-102156973D01*
X123432982Y-102156976D01*
X123323209Y-102241208D01*
X123323208Y-102241209D01*
X123238976Y-102350982D01*
X123238973Y-102350987D01*
X123186025Y-102478817D01*
X123167965Y-102616000D01*
X123186025Y-102753182D01*
X123238974Y-102881014D01*
X123238976Y-102881018D01*
X123323209Y-102990791D01*
X123432982Y-103075024D01*
X123560817Y-103127974D01*
X123601269Y-103133299D01*
X123633747Y-103152050D01*
X123643454Y-103188275D01*
X123625165Y-103327199D01*
X123643454Y-103466123D01*
X123633747Y-103502349D01*
X123601270Y-103521099D01*
X123560817Y-103526426D01*
X123560814Y-103526426D01*
X123560814Y-103526427D01*
X123560813Y-103526427D01*
X123432987Y-103579373D01*
X123432982Y-103579376D01*
X123323209Y-103663608D01*
X123323208Y-103663609D01*
X123238976Y-103773382D01*
X123238973Y-103773387D01*
X123186025Y-103901217D01*
X123167965Y-104038400D01*
X123186025Y-104175582D01*
X123238974Y-104303414D01*
X123238976Y-104303418D01*
X123323209Y-104413191D01*
X123432982Y-104497424D01*
X123560817Y-104550374D01*
X123698000Y-104568435D01*
X123835183Y-104550374D01*
X123963018Y-104497424D01*
X124072791Y-104413191D01*
X124116327Y-104356454D01*
X124148805Y-104337704D01*
X124185030Y-104347411D01*
X124194071Y-104356452D01*
X124237609Y-104413191D01*
X124347382Y-104497424D01*
X124475217Y-104550374D01*
X124612400Y-104568435D01*
X124749583Y-104550374D01*
X124877418Y-104497424D01*
X124987191Y-104413191D01*
X125056126Y-104323353D01*
X125088604Y-104304602D01*
X125124829Y-104314309D01*
X125133872Y-104323352D01*
X125202809Y-104413191D01*
X125312582Y-104497424D01*
X125440417Y-104550374D01*
X125577600Y-104568435D01*
X125714783Y-104550374D01*
X125842618Y-104497424D01*
X125952391Y-104413191D01*
X126036624Y-104303418D01*
X126089574Y-104175583D01*
X126107635Y-104038400D01*
X126089574Y-103901217D01*
X126089345Y-103899476D01*
X126099052Y-103863251D01*
X126131528Y-103844500D01*
X126171983Y-103839174D01*
X126299818Y-103786224D01*
X126409591Y-103701991D01*
X126493824Y-103592218D01*
X126546774Y-103464383D01*
X126564835Y-103327200D01*
X126546774Y-103190017D01*
X126502239Y-103082499D01*
X126493826Y-103062187D01*
X126493823Y-103062182D01*
X126409592Y-102952410D01*
X126299818Y-102868176D01*
X126299814Y-102868174D01*
X126171982Y-102815225D01*
X126081595Y-102803325D01*
X126049116Y-102784573D01*
X126039410Y-102748349D01*
X126056835Y-102616000D01*
X126038774Y-102478817D01*
X126038545Y-102477076D01*
X126048252Y-102440851D01*
X126080728Y-102422100D01*
X126121183Y-102416774D01*
X126249018Y-102363824D01*
X126358791Y-102279591D01*
X126443024Y-102169818D01*
X126495974Y-102041983D01*
X126514035Y-101904800D01*
X126495974Y-101767617D01*
X126490427Y-101754225D01*
X126443026Y-101639787D01*
X126443023Y-101639782D01*
X126358792Y-101530010D01*
X126249018Y-101445776D01*
X126249014Y-101445774D01*
X126121182Y-101392825D01*
X126121183Y-101392825D01*
X126080729Y-101387499D01*
X126048251Y-101368746D01*
X126038545Y-101332522D01*
X126043218Y-101297025D01*
X126056835Y-101193600D01*
X126050147Y-101142800D01*
X130533965Y-101142800D01*
X130552025Y-101279982D01*
X130604974Y-101407814D01*
X130604976Y-101407818D01*
X130689209Y-101517591D01*
X130798982Y-101601824D01*
X130926817Y-101654774D01*
X130967269Y-101660099D01*
X130999747Y-101678850D01*
X131009454Y-101715075D01*
X130991165Y-101853999D01*
X131009454Y-101992923D01*
X130999747Y-102029149D01*
X130967270Y-102047899D01*
X130926817Y-102053226D01*
X130926814Y-102053226D01*
X130926814Y-102053227D01*
X130926813Y-102053227D01*
X130798987Y-102106173D01*
X130798982Y-102106176D01*
X130689209Y-102190408D01*
X130689208Y-102190409D01*
X130604976Y-102300182D01*
X130604973Y-102300187D01*
X130552025Y-102428017D01*
X130533965Y-102565200D01*
X130552025Y-102702382D01*
X130604974Y-102830214D01*
X130604976Y-102830218D01*
X130689209Y-102939991D01*
X130798982Y-103024224D01*
X130926817Y-103077174D01*
X130967269Y-103082499D01*
X130999747Y-103101250D01*
X131009454Y-103137475D01*
X130991165Y-103276399D01*
X131009454Y-103415323D01*
X130999747Y-103451549D01*
X130967270Y-103470299D01*
X130926817Y-103475626D01*
X130926814Y-103475626D01*
X130926814Y-103475627D01*
X130926813Y-103475627D01*
X130798987Y-103528573D01*
X130798982Y-103528576D01*
X130689209Y-103612808D01*
X130689208Y-103612809D01*
X130604976Y-103722582D01*
X130604973Y-103722587D01*
X130552025Y-103850417D01*
X130533965Y-103987600D01*
X130552025Y-104124782D01*
X130602441Y-104246499D01*
X130604976Y-104252618D01*
X130689209Y-104362391D01*
X130798982Y-104446624D01*
X130926817Y-104499574D01*
X131064000Y-104517635D01*
X131201183Y-104499574D01*
X131329018Y-104446624D01*
X131438791Y-104362391D01*
X131482327Y-104305654D01*
X131514805Y-104286904D01*
X131551030Y-104296611D01*
X131560071Y-104305652D01*
X131603609Y-104362391D01*
X131713382Y-104446624D01*
X131841217Y-104499574D01*
X131978400Y-104517635D01*
X132115583Y-104499574D01*
X132243418Y-104446624D01*
X132353191Y-104362391D01*
X132422126Y-104272553D01*
X132454604Y-104253802D01*
X132490829Y-104263509D01*
X132499874Y-104272554D01*
X132549865Y-104337704D01*
X132568809Y-104362391D01*
X132678582Y-104446624D01*
X132806417Y-104499574D01*
X132943600Y-104517635D01*
X133080783Y-104499574D01*
X133208618Y-104446624D01*
X133318391Y-104362391D01*
X133402624Y-104252618D01*
X133455574Y-104124783D01*
X133473635Y-103987600D01*
X133455574Y-103850417D01*
X133455345Y-103848676D01*
X133465052Y-103812451D01*
X133497528Y-103793700D01*
X133537983Y-103788374D01*
X133665818Y-103735424D01*
X133775591Y-103651191D01*
X133859824Y-103541418D01*
X133912774Y-103413583D01*
X133930835Y-103276400D01*
X133912774Y-103139217D01*
X133886184Y-103075023D01*
X133859826Y-103011387D01*
X133859823Y-103011382D01*
X133775592Y-102901610D01*
X133748756Y-102881018D01*
X133665818Y-102817376D01*
X133665814Y-102817374D01*
X133537982Y-102764425D01*
X133447595Y-102752525D01*
X133415116Y-102733773D01*
X133405410Y-102697549D01*
X133422835Y-102565200D01*
X133404774Y-102428017D01*
X133404545Y-102426276D01*
X133414252Y-102390051D01*
X133446728Y-102371300D01*
X133487183Y-102365974D01*
X133615018Y-102313024D01*
X133724791Y-102228791D01*
X133809024Y-102119018D01*
X133861974Y-101991183D01*
X133880035Y-101854000D01*
X133861974Y-101716817D01*
X133835384Y-101652623D01*
X133809026Y-101588987D01*
X133809023Y-101588982D01*
X133724792Y-101479210D01*
X133697956Y-101458618D01*
X133615018Y-101394976D01*
X133615014Y-101394974D01*
X133487182Y-101342025D01*
X133487183Y-101342025D01*
X133446729Y-101336699D01*
X133414251Y-101317946D01*
X133404545Y-101281722D01*
X133413620Y-101212790D01*
X133422835Y-101142800D01*
X133404774Y-101005617D01*
X133392168Y-100975182D01*
X133351826Y-100877787D01*
X133351823Y-100877782D01*
X133267592Y-100768010D01*
X133267589Y-100768008D01*
X133157818Y-100683776D01*
X133157814Y-100683774D01*
X133029982Y-100630825D01*
X132892800Y-100612765D01*
X132755617Y-100630825D01*
X132627787Y-100683773D01*
X132627782Y-100683776D01*
X132518010Y-100768007D01*
X132474474Y-100824744D01*
X132441995Y-100843495D01*
X132405770Y-100833788D01*
X132396726Y-100824744D01*
X132377068Y-100799126D01*
X132353191Y-100768009D01*
X132243418Y-100683776D01*
X132243414Y-100683774D01*
X132115582Y-100630825D01*
X131978400Y-100612765D01*
X131841217Y-100630825D01*
X131713387Y-100683773D01*
X131713382Y-100683776D01*
X131603610Y-100768007D01*
X131560074Y-100824744D01*
X131527595Y-100843495D01*
X131491370Y-100833788D01*
X131482326Y-100824744D01*
X131462668Y-100799126D01*
X131438791Y-100768009D01*
X131329018Y-100683776D01*
X131329014Y-100683774D01*
X131201182Y-100630825D01*
X131064000Y-100612765D01*
X130926817Y-100630825D01*
X130798987Y-100683773D01*
X130798982Y-100683776D01*
X130689209Y-100768008D01*
X130689208Y-100768009D01*
X130604976Y-100877782D01*
X130604973Y-100877787D01*
X130552025Y-101005617D01*
X130533965Y-101142800D01*
X126050147Y-101142800D01*
X126038774Y-101056417D01*
X125985824Y-100928583D01*
X125901591Y-100818809D01*
X125791818Y-100734576D01*
X125791814Y-100734574D01*
X125663982Y-100681625D01*
X125526800Y-100663565D01*
X125389617Y-100681625D01*
X125261787Y-100734573D01*
X125261782Y-100734576D01*
X125152010Y-100818807D01*
X125108474Y-100875544D01*
X125075995Y-100894295D01*
X125039770Y-100884588D01*
X125030726Y-100875544D01*
X125006133Y-100843495D01*
X124987191Y-100818809D01*
X124877418Y-100734576D01*
X124877414Y-100734574D01*
X124749582Y-100681625D01*
X124612400Y-100663565D01*
X124475217Y-100681625D01*
X124347387Y-100734573D01*
X124347382Y-100734576D01*
X124237610Y-100818807D01*
X124194074Y-100875544D01*
X124161595Y-100894295D01*
X124125370Y-100884588D01*
X124116326Y-100875544D01*
X124091733Y-100843495D01*
X124072791Y-100818809D01*
X123963018Y-100734576D01*
X123963014Y-100734574D01*
X123835182Y-100681625D01*
X123698000Y-100663565D01*
X123560817Y-100681625D01*
X123432987Y-100734573D01*
X123432982Y-100734576D01*
X123323209Y-100818808D01*
X123323208Y-100818809D01*
X123238976Y-100928582D01*
X123238973Y-100928587D01*
X123186025Y-101056417D01*
X123167965Y-101193600D01*
X117675144Y-101193600D01*
X117679187Y-100241504D01*
X117693686Y-100206919D01*
X117728219Y-100192785D01*
X117728219Y-100192725D01*
X117728368Y-100192724D01*
X117728395Y-100192714D01*
X117728598Y-100192724D01*
X117730484Y-100192720D01*
X117730485Y-100192721D01*
X140665000Y-100154970D01*
X140724349Y-100149050D01*
X140733711Y-100147179D01*
X140743015Y-100145321D01*
X140743016Y-100145320D01*
X140743019Y-100145320D01*
X140806560Y-100125212D01*
X140883530Y-100072487D01*
X140920224Y-100064747D01*
X140941048Y-100074038D01*
X140945982Y-100077824D01*
X141073817Y-100130774D01*
X141211000Y-100148835D01*
X141348183Y-100130774D01*
X141476018Y-100077824D01*
X141481894Y-100073314D01*
X141518116Y-100063604D01*
X141538409Y-100071088D01*
G37*
%TD.AperFunction*%
%TA.AperFunction,Conductor*%
G36*
X142035949Y-98676054D02*
G01*
X142058271Y-98678993D01*
X142070627Y-98682304D01*
X142112217Y-98699531D01*
X142123295Y-98705927D01*
X142159020Y-98733340D01*
X142168065Y-98742385D01*
X142195476Y-98778108D01*
X142201872Y-98789185D01*
X142208768Y-98805833D01*
X142208772Y-98805845D01*
X142219101Y-98830783D01*
X142222412Y-98843138D01*
X142228289Y-98887776D01*
X142228289Y-98900569D01*
X142222411Y-98945210D01*
X142219101Y-98957563D01*
X142201872Y-98999161D01*
X142195475Y-99010241D01*
X142168065Y-99045961D01*
X142159021Y-99055005D01*
X142123301Y-99082415D01*
X142112221Y-99088812D01*
X142070623Y-99106041D01*
X142058269Y-99109351D01*
X142013628Y-99115228D01*
X142000836Y-99115228D01*
X141956195Y-99109351D01*
X141943841Y-99106041D01*
X141880977Y-99080003D01*
X141874428Y-99077379D01*
X141853197Y-99073409D01*
X141821777Y-99052933D01*
X141814259Y-99035358D01*
X141800427Y-98969788D01*
X141795364Y-98957567D01*
X141792053Y-98945210D01*
X141786176Y-98900567D01*
X141786176Y-98887777D01*
X141792053Y-98843132D01*
X141795363Y-98830779D01*
X141812594Y-98789178D01*
X141818981Y-98778115D01*
X141846408Y-98742371D01*
X141855431Y-98733348D01*
X141891175Y-98705921D01*
X141902238Y-98699534D01*
X141943839Y-98682303D01*
X141956190Y-98678993D01*
X141986465Y-98675007D01*
X142000837Y-98673116D01*
X142013627Y-98673116D01*
X142035949Y-98676054D01*
G37*
%TD.AperFunction*%
%TD*%
%TA.AperFunction,Conductor*%
%TO.N,24VOUT*%
G36*
X102634897Y-88736552D02*
G01*
X102649249Y-88771200D01*
X102648892Y-88777095D01*
X102646306Y-88798400D01*
X102646306Y-88798401D01*
X102653993Y-88861717D01*
X102643921Y-88897842D01*
X102617078Y-88915198D01*
X102595763Y-88920452D01*
X102461267Y-88991041D01*
X102347567Y-89091770D01*
X102261279Y-89216779D01*
X102207415Y-89358807D01*
X102189106Y-89509600D01*
X102207415Y-89660392D01*
X102261279Y-89802420D01*
X102347567Y-89927429D01*
X102461267Y-90028158D01*
X102461277Y-90028163D01*
X102595766Y-90098748D01*
X102743251Y-90135100D01*
X102895149Y-90135100D01*
X103042634Y-90098748D01*
X103177134Y-90028157D01*
X103243907Y-89969000D01*
X103279359Y-89956767D01*
X103308892Y-89969000D01*
X103375666Y-90028157D01*
X103510166Y-90098748D01*
X103657651Y-90135100D01*
X103809549Y-90135100D01*
X103957034Y-90098748D01*
X104091534Y-90028157D01*
X104158308Y-89969001D01*
X104183707Y-89946500D01*
X104219159Y-89934266D01*
X104248693Y-89946500D01*
X104340867Y-90028158D01*
X104340877Y-90028163D01*
X104475366Y-90098748D01*
X104622851Y-90135100D01*
X104774749Y-90135100D01*
X104922234Y-90098748D01*
X105056734Y-90028157D01*
X105170432Y-89927430D01*
X105256721Y-89802419D01*
X105310585Y-89660391D01*
X105328894Y-89509600D01*
X105321205Y-89446281D01*
X105331276Y-89410157D01*
X105358121Y-89392800D01*
X105379434Y-89387548D01*
X105434196Y-89358807D01*
X105513932Y-89316958D01*
X105513931Y-89316958D01*
X105513934Y-89316957D01*
X105627632Y-89216230D01*
X105713921Y-89091219D01*
X105767785Y-88949191D01*
X105786094Y-88798400D01*
X105783508Y-88777105D01*
X105793579Y-88740981D01*
X105826244Y-88722557D01*
X105832151Y-88722200D01*
X116902242Y-88722200D01*
X116936890Y-88736552D01*
X116936958Y-88736619D01*
X116998477Y-88798400D01*
X117306537Y-89107770D01*
X117320814Y-89142448D01*
X117316600Y-90135100D01*
X117302246Y-93515451D01*
X117287747Y-93550038D01*
X117253038Y-93564243D01*
X117241521Y-93562819D01*
X117220750Y-93557700D01*
X117220749Y-93557700D01*
X117068851Y-93557700D01*
X116921364Y-93594052D01*
X116786867Y-93664641D01*
X116694693Y-93746300D01*
X116659241Y-93758534D01*
X116629707Y-93746300D01*
X116537532Y-93664641D01*
X116403035Y-93594052D01*
X116255549Y-93557700D01*
X116103651Y-93557700D01*
X115956164Y-93594052D01*
X115821667Y-93664641D01*
X115707967Y-93765370D01*
X115621679Y-93890379D01*
X115567815Y-94032407D01*
X115549506Y-94183200D01*
X115557193Y-94246517D01*
X115547121Y-94282642D01*
X115520278Y-94299998D01*
X115498963Y-94305252D01*
X115364467Y-94375841D01*
X115250767Y-94476570D01*
X115164479Y-94601579D01*
X115110615Y-94743607D01*
X115092306Y-94894400D01*
X115110615Y-95045192D01*
X115164479Y-95187220D01*
X115250767Y-95312229D01*
X115364467Y-95412958D01*
X115471186Y-95468968D01*
X115498966Y-95483548D01*
X115646451Y-95519900D01*
X115798349Y-95519900D01*
X115945834Y-95483548D01*
X116080334Y-95412957D01*
X116147107Y-95353800D01*
X116182559Y-95341567D01*
X116212092Y-95353800D01*
X116278866Y-95412957D01*
X116278875Y-95412962D01*
X116278877Y-95412963D01*
X116385586Y-95468968D01*
X116413366Y-95483548D01*
X116560851Y-95519900D01*
X116712749Y-95519900D01*
X116860234Y-95483548D01*
X116994734Y-95412957D01*
X117072571Y-95344000D01*
X117086907Y-95331300D01*
X117122359Y-95319066D01*
X117151893Y-95331300D01*
X117244066Y-95412957D01*
X117267722Y-95425373D01*
X117291731Y-95454183D01*
X117293950Y-95468968D01*
X117222883Y-112205542D01*
X117221000Y-112649000D01*
X122769587Y-112649000D01*
X122804235Y-112663352D01*
X122804331Y-112663448D01*
X123172373Y-113034495D01*
X123186584Y-113069200D01*
X123186582Y-113069399D01*
X123183746Y-113418140D01*
X123169113Y-113452671D01*
X123134350Y-113466740D01*
X123111977Y-113461129D01*
X123007035Y-113406052D01*
X122859549Y-113369700D01*
X122707651Y-113369700D01*
X122560164Y-113406052D01*
X122425667Y-113476641D01*
X122333493Y-113558300D01*
X122298041Y-113570534D01*
X122268507Y-113558300D01*
X122176332Y-113476641D01*
X122041835Y-113406052D01*
X121894349Y-113369700D01*
X121742451Y-113369700D01*
X121594964Y-113406052D01*
X121460467Y-113476641D01*
X121346767Y-113577370D01*
X121260479Y-113702379D01*
X121206615Y-113844407D01*
X121188306Y-113995200D01*
X121195993Y-114058517D01*
X121185921Y-114094642D01*
X121159078Y-114111998D01*
X121137763Y-114117252D01*
X121003267Y-114187841D01*
X120889567Y-114288570D01*
X120803279Y-114413579D01*
X120749415Y-114555607D01*
X120731106Y-114706400D01*
X120749415Y-114857192D01*
X120803279Y-114999220D01*
X120889567Y-115124229D01*
X121003267Y-115224958D01*
X121003277Y-115224963D01*
X121137766Y-115295548D01*
X121285251Y-115331900D01*
X121437149Y-115331900D01*
X121584634Y-115295548D01*
X121719134Y-115224957D01*
X121785907Y-115165800D01*
X121821359Y-115153567D01*
X121850892Y-115165800D01*
X121917666Y-115224957D01*
X122052166Y-115295548D01*
X122199651Y-115331900D01*
X122351549Y-115331900D01*
X122499034Y-115295548D01*
X122633534Y-115224957D01*
X122700308Y-115165801D01*
X122725707Y-115143300D01*
X122761159Y-115131066D01*
X122790693Y-115143300D01*
X122882867Y-115224958D01*
X122882877Y-115224963D01*
X123017366Y-115295548D01*
X123130594Y-115323456D01*
X123160801Y-115345682D01*
X123167866Y-115371430D01*
X123162634Y-116014898D01*
X123148001Y-116049429D01*
X123113636Y-116063500D01*
X122437682Y-116063500D01*
X122343896Y-116078353D01*
X122230864Y-116135945D01*
X122230857Y-116135950D01*
X122141150Y-116225657D01*
X122141145Y-116225664D01*
X122083555Y-116338690D01*
X122083555Y-116338692D01*
X122068700Y-116432482D01*
X122068700Y-120295517D01*
X122083553Y-120389303D01*
X122141145Y-120502335D01*
X122141150Y-120502342D01*
X122230857Y-120592049D01*
X122230864Y-120592054D01*
X122343891Y-120649644D01*
X122343892Y-120649644D01*
X122343896Y-120649646D01*
X122437681Y-120664500D01*
X123075435Y-120664499D01*
X123110081Y-120678851D01*
X123124433Y-120713499D01*
X123124431Y-120713897D01*
X123122505Y-120950898D01*
X123107873Y-120985429D01*
X123073507Y-120999500D01*
X102001748Y-120999500D01*
X101998252Y-120999375D01*
X101790094Y-120984486D01*
X101783174Y-120983491D01*
X101580970Y-120939505D01*
X101574262Y-120937536D01*
X101380362Y-120865215D01*
X101374003Y-120862310D01*
X101252504Y-120795967D01*
X101192381Y-120763137D01*
X101186508Y-120759363D01*
X101020840Y-120635345D01*
X101015557Y-120630767D01*
X100869232Y-120484442D01*
X100864654Y-120479159D01*
X100740634Y-120313488D01*
X100736864Y-120307622D01*
X100637687Y-120125992D01*
X100634784Y-120119637D01*
X100562463Y-119925737D01*
X100560494Y-119919029D01*
X100516508Y-119716825D01*
X100515513Y-119709905D01*
X100500625Y-119501747D01*
X100500500Y-119498251D01*
X100500500Y-118643600D01*
X102493906Y-118643600D01*
X102512215Y-118794392D01*
X102566079Y-118936420D01*
X102652367Y-119061429D01*
X102766067Y-119162158D01*
X102900564Y-119232747D01*
X102900566Y-119232748D01*
X103048051Y-119269100D01*
X103199949Y-119269100D01*
X103347434Y-119232748D01*
X103481934Y-119162157D01*
X103595632Y-119061430D01*
X103681921Y-118936419D01*
X103735785Y-118794391D01*
X103754094Y-118643600D01*
X103735785Y-118492809D01*
X103681921Y-118350781D01*
X103595632Y-118225770D01*
X103481934Y-118125043D01*
X103481932Y-118125041D01*
X103347435Y-118054452D01*
X103199949Y-118018100D01*
X103048051Y-118018100D01*
X102900564Y-118054452D01*
X102766067Y-118125041D01*
X102652367Y-118225770D01*
X102566079Y-118350779D01*
X102512215Y-118492807D01*
X102493906Y-118643600D01*
X100500500Y-118643600D01*
X100500500Y-116432482D01*
X110221500Y-116432482D01*
X110221500Y-120295517D01*
X110236353Y-120389303D01*
X110293945Y-120502335D01*
X110293950Y-120502342D01*
X110383657Y-120592049D01*
X110383664Y-120592054D01*
X110496691Y-120649644D01*
X110496692Y-120649644D01*
X110496696Y-120649646D01*
X110590481Y-120664500D01*
X114453518Y-120664499D01*
X114547304Y-120649646D01*
X114608387Y-120618522D01*
X114660335Y-120592054D01*
X114660337Y-120592052D01*
X114660342Y-120592050D01*
X114750050Y-120502342D01*
X114759171Y-120484442D01*
X114807644Y-120389309D01*
X114807644Y-120389307D01*
X114807646Y-120389304D01*
X114822500Y-120295519D01*
X114822499Y-116432482D01*
X114807646Y-116338696D01*
X114807643Y-116338690D01*
X114750054Y-116225664D01*
X114750049Y-116225657D01*
X114660342Y-116135950D01*
X114660335Y-116135945D01*
X114547308Y-116078355D01*
X114547305Y-116078354D01*
X114547304Y-116078354D01*
X114453519Y-116063500D01*
X114453517Y-116063500D01*
X110590482Y-116063500D01*
X110496696Y-116078353D01*
X110383664Y-116135945D01*
X110383657Y-116135950D01*
X110293950Y-116225657D01*
X110293945Y-116225664D01*
X110236355Y-116338690D01*
X110236355Y-116338692D01*
X110221500Y-116432482D01*
X100500500Y-116432482D01*
X100500500Y-109000000D01*
X101794457Y-109000000D01*
X101814612Y-109358899D01*
X101814612Y-109358903D01*
X101814613Y-109358907D01*
X101840764Y-109512819D01*
X101874829Y-109713310D01*
X101941627Y-109945170D01*
X101974341Y-110058724D01*
X102005021Y-110132791D01*
X102111904Y-110390828D01*
X102111908Y-110390837D01*
X102285789Y-110705453D01*
X102285794Y-110705459D01*
X102493800Y-110998616D01*
X102493816Y-110998635D01*
X102573830Y-111088170D01*
X102733339Y-111266661D01*
X102848416Y-111369500D01*
X103001364Y-111506183D01*
X103001383Y-111506199D01*
X103294540Y-111714205D01*
X103294546Y-111714210D01*
X103294548Y-111714211D01*
X103609167Y-111888094D01*
X103941276Y-112025659D01*
X104236749Y-112110782D01*
X104286689Y-112125170D01*
X104286690Y-112125170D01*
X104286700Y-112125173D01*
X104641093Y-112185387D01*
X105000000Y-112205543D01*
X105358907Y-112185387D01*
X105713300Y-112125173D01*
X106058724Y-112025659D01*
X106390833Y-111888094D01*
X106705452Y-111714211D01*
X106998623Y-111506194D01*
X107266661Y-111266661D01*
X107506194Y-110998623D01*
X107714211Y-110705452D01*
X107888094Y-110390833D01*
X108025659Y-110058724D01*
X108125173Y-109713300D01*
X108185387Y-109358907D01*
X108205543Y-109000000D01*
X108185387Y-108641093D01*
X108125173Y-108286700D01*
X108025659Y-107941276D01*
X107888094Y-107609167D01*
X107714211Y-107294548D01*
X107651073Y-107205564D01*
X107506199Y-107001383D01*
X107506183Y-107001364D01*
X107414743Y-106899043D01*
X107266661Y-106733339D01*
X107118577Y-106601004D01*
X106998635Y-106493816D01*
X106998616Y-106493800D01*
X106705459Y-106285794D01*
X106705453Y-106285789D01*
X106390837Y-106111908D01*
X106390828Y-106111904D01*
X106058724Y-105974341D01*
X105973599Y-105949817D01*
X105713310Y-105874829D01*
X105713302Y-105874827D01*
X105713300Y-105874827D01*
X105358907Y-105814613D01*
X105358903Y-105814612D01*
X105358899Y-105814612D01*
X105000000Y-105794457D01*
X104641100Y-105814612D01*
X104641094Y-105814612D01*
X104641093Y-105814613D01*
X104286700Y-105874827D01*
X104286698Y-105874827D01*
X104286689Y-105874829D01*
X103941276Y-105974341D01*
X103609171Y-106111904D01*
X103609162Y-106111908D01*
X103294546Y-106285789D01*
X103294540Y-106285794D01*
X103001383Y-106493800D01*
X103001364Y-106493816D01*
X102733339Y-106733339D01*
X102493816Y-107001364D01*
X102493800Y-107001383D01*
X102285794Y-107294540D01*
X102285789Y-107294546D01*
X102111908Y-107609162D01*
X102111904Y-107609171D01*
X101974341Y-107941276D01*
X101874829Y-108286689D01*
X101874827Y-108286698D01*
X101874827Y-108286700D01*
X101820102Y-108608791D01*
X101814613Y-108641094D01*
X101814612Y-108641100D01*
X101794457Y-109000000D01*
X100500500Y-109000000D01*
X100500500Y-94589600D01*
X102138306Y-94589600D01*
X102156615Y-94740392D01*
X102210479Y-94882420D01*
X102296767Y-95007429D01*
X102410467Y-95108158D01*
X102544961Y-95178746D01*
X102544963Y-95178746D01*
X102544966Y-95178748D01*
X102566277Y-95184000D01*
X102596482Y-95206225D01*
X102603193Y-95237481D01*
X102595506Y-95300799D01*
X102603193Y-95364117D01*
X102593121Y-95400242D01*
X102566278Y-95417598D01*
X102544963Y-95422852D01*
X102410467Y-95493441D01*
X102296767Y-95594170D01*
X102210479Y-95719179D01*
X102156615Y-95861207D01*
X102138306Y-96012000D01*
X102156615Y-96162792D01*
X102210479Y-96304820D01*
X102296767Y-96429829D01*
X102410467Y-96530558D01*
X102544961Y-96601146D01*
X102544963Y-96601146D01*
X102544966Y-96601148D01*
X102566277Y-96606400D01*
X102596482Y-96628625D01*
X102603193Y-96659881D01*
X102595506Y-96723199D01*
X102603193Y-96786517D01*
X102593121Y-96822642D01*
X102566278Y-96839998D01*
X102544963Y-96845252D01*
X102410467Y-96915841D01*
X102296767Y-97016570D01*
X102210479Y-97141579D01*
X102156615Y-97283607D01*
X102138306Y-97434400D01*
X102156615Y-97585192D01*
X102210479Y-97727220D01*
X102296767Y-97852229D01*
X102410467Y-97952958D01*
X102410477Y-97952963D01*
X102544966Y-98023548D01*
X102692451Y-98059900D01*
X102844349Y-98059900D01*
X102991834Y-98023548D01*
X103126334Y-97952957D01*
X103193107Y-97893800D01*
X103228559Y-97881567D01*
X103258092Y-97893800D01*
X103324866Y-97952957D01*
X103459366Y-98023548D01*
X103606851Y-98059900D01*
X103758749Y-98059900D01*
X103906234Y-98023548D01*
X104040734Y-97952957D01*
X104107508Y-97893801D01*
X104132907Y-97871300D01*
X104168359Y-97859066D01*
X104197893Y-97871300D01*
X104290067Y-97952958D01*
X104290077Y-97952963D01*
X104424566Y-98023548D01*
X104572051Y-98059900D01*
X104723949Y-98059900D01*
X104871434Y-98023548D01*
X105005934Y-97952957D01*
X105119632Y-97852230D01*
X105205921Y-97727219D01*
X105259785Y-97585191D01*
X105278094Y-97434400D01*
X105270405Y-97371081D01*
X105280476Y-97334957D01*
X105307321Y-97317600D01*
X105328634Y-97312348D01*
X105383396Y-97283607D01*
X105463132Y-97241758D01*
X105463131Y-97241758D01*
X105463134Y-97241757D01*
X105576832Y-97141030D01*
X105663121Y-97016019D01*
X105716985Y-96873991D01*
X105735294Y-96723200D01*
X105716985Y-96572409D01*
X105663121Y-96430381D01*
X105576832Y-96305370D01*
X105463134Y-96204643D01*
X105463132Y-96204641D01*
X105328635Y-96134052D01*
X105328637Y-96134052D01*
X105257997Y-96116641D01*
X105227791Y-96094414D01*
X105221081Y-96063160D01*
X105227294Y-96012000D01*
X105219605Y-95948681D01*
X105229676Y-95912557D01*
X105256521Y-95895200D01*
X105277834Y-95889948D01*
X105332596Y-95861207D01*
X105412332Y-95819358D01*
X105412331Y-95819358D01*
X105412334Y-95819357D01*
X105526032Y-95718630D01*
X105612321Y-95593619D01*
X105666185Y-95451591D01*
X105684494Y-95300800D01*
X105666185Y-95150009D01*
X105612321Y-95007981D01*
X105526032Y-94882970D01*
X105461097Y-94825443D01*
X105412332Y-94782241D01*
X105277837Y-94711652D01*
X105256520Y-94706398D01*
X105226314Y-94684170D01*
X105219605Y-94652917D01*
X105227294Y-94589600D01*
X105208985Y-94438809D01*
X105155121Y-94296781D01*
X105150171Y-94289610D01*
X105068832Y-94171770D01*
X104955132Y-94071041D01*
X104820635Y-94000452D01*
X104673149Y-93964100D01*
X104521251Y-93964100D01*
X104373764Y-94000452D01*
X104239267Y-94071041D01*
X104172493Y-94130197D01*
X104137041Y-94142431D01*
X104107507Y-94130197D01*
X104040732Y-94071041D01*
X103906235Y-94000452D01*
X103758749Y-93964100D01*
X103606851Y-93964100D01*
X103459364Y-94000452D01*
X103324867Y-94071041D01*
X103258093Y-94130197D01*
X103222641Y-94142431D01*
X103193107Y-94130197D01*
X103126332Y-94071041D01*
X102991835Y-94000452D01*
X102844349Y-93964100D01*
X102692451Y-93964100D01*
X102544964Y-94000452D01*
X102410467Y-94071041D01*
X102296767Y-94171770D01*
X102210479Y-94296779D01*
X102156615Y-94438807D01*
X102138306Y-94589600D01*
X100500500Y-94589600D01*
X100500500Y-88771200D01*
X100514852Y-88736552D01*
X100549500Y-88722200D01*
X102600249Y-88722200D01*
X102634897Y-88736552D01*
G37*
%TD.AperFunction*%
%TD*%
%TA.AperFunction,Conductor*%
%TO.N,+24V*%
G36*
X103174800Y-65757235D02*
G01*
X103208175Y-65752840D01*
X103244399Y-65762546D01*
X103259927Y-65782879D01*
X103262872Y-65790084D01*
X103268525Y-65803056D01*
X103333668Y-65894493D01*
X103333669Y-65894494D01*
X103427445Y-65956226D01*
X103462026Y-65970740D01*
X103468560Y-65973394D01*
X103578821Y-65994542D01*
X103597668Y-65994630D01*
X103682473Y-65995029D01*
X103682474Y-65995028D01*
X103682482Y-65995029D01*
X103703157Y-65994426D01*
X103709781Y-65994008D01*
X103737390Y-65991000D01*
X103843280Y-65953691D01*
X103875759Y-65934941D01*
X103887816Y-65927604D01*
X103969613Y-65850703D01*
X103998633Y-65790108D01*
X104003463Y-65780023D01*
X104031372Y-65754973D01*
X104054050Y-65752607D01*
X104089200Y-65757235D01*
X104115645Y-65753752D01*
X104151868Y-65763457D01*
X104167397Y-65783793D01*
X104171724Y-65794380D01*
X104177365Y-65807319D01*
X104239469Y-65894494D01*
X104242508Y-65898759D01*
X104336283Y-65960491D01*
X104370863Y-65975005D01*
X104377401Y-65977661D01*
X104487662Y-65998809D01*
X104565761Y-65999175D01*
X104653615Y-65999588D01*
X104653616Y-65999587D01*
X104653624Y-65999588D01*
X104674298Y-65998985D01*
X104680922Y-65998567D01*
X104708531Y-65995559D01*
X104814421Y-65958250D01*
X104846900Y-65939500D01*
X104858957Y-65932163D01*
X104940754Y-65855262D01*
X104976305Y-65781028D01*
X105004214Y-65755979D01*
X105026892Y-65753613D01*
X105054400Y-65757235D01*
X105073529Y-65754716D01*
X105109754Y-65764422D01*
X105125282Y-65784757D01*
X105131053Y-65798878D01*
X105132874Y-65803055D01*
X105136696Y-65811826D01*
X105198629Y-65898757D01*
X105201840Y-65903264D01*
X105295616Y-65964996D01*
X105330197Y-65979510D01*
X105336731Y-65982164D01*
X105446993Y-66003312D01*
X118706771Y-66065564D01*
X118735082Y-66074735D01*
X118763726Y-66095263D01*
X118776127Y-66103698D01*
X118776146Y-66103710D01*
X118780157Y-66106297D01*
X118780164Y-66106301D01*
X118780170Y-66106305D01*
X118799131Y-66117583D01*
X118799135Y-66117584D01*
X118799135Y-66117585D01*
X118812177Y-66121844D01*
X118840658Y-66146243D01*
X118843545Y-66183634D01*
X118842579Y-66186324D01*
X118817667Y-66249800D01*
X118817666Y-66249802D01*
X118757618Y-66512893D01*
X118757616Y-66512902D01*
X118737451Y-66782000D01*
X118757616Y-67051097D01*
X118757618Y-67051106D01*
X118817666Y-67314196D01*
X118916256Y-67565396D01*
X118916259Y-67565401D01*
X119051181Y-67799097D01*
X119051184Y-67799101D01*
X119219434Y-68010080D01*
X119219439Y-68010085D01*
X119417259Y-68193635D01*
X119640226Y-68345651D01*
X119640227Y-68345651D01*
X119640228Y-68345652D01*
X119883352Y-68462735D01*
X119883355Y-68462736D01*
X119883359Y-68462738D01*
X120141228Y-68542280D01*
X120408071Y-68582500D01*
X120408073Y-68582500D01*
X120677927Y-68582500D01*
X120677929Y-68582500D01*
X120944772Y-68542280D01*
X121202641Y-68462738D01*
X121445775Y-68345651D01*
X121662136Y-68198137D01*
X121698849Y-68190478D01*
X121725115Y-68204719D01*
X121764517Y-68245831D01*
X122067174Y-68462735D01*
X124726367Y-70368491D01*
X124726373Y-70368494D01*
X124726378Y-70368498D01*
X124811292Y-70411168D01*
X124839976Y-70420340D01*
X124933902Y-70434853D01*
X142001094Y-70385667D01*
X142035782Y-70399919D01*
X142050234Y-70434526D01*
X142050048Y-70438937D01*
X142037532Y-70581999D01*
X142057365Y-70808694D01*
X142057366Y-70808700D01*
X142116258Y-71028488D01*
X142116259Y-71028493D01*
X142212430Y-71234732D01*
X142212438Y-71234744D01*
X142342948Y-71421133D01*
X142342954Y-71421140D01*
X142503859Y-71582045D01*
X142503866Y-71582051D01*
X142690255Y-71712561D01*
X142690267Y-71712569D01*
X142896506Y-71808740D01*
X142896511Y-71808741D01*
X143116299Y-71867633D01*
X143116303Y-71867633D01*
X143116308Y-71867635D01*
X143343000Y-71887468D01*
X143569692Y-71867635D01*
X143569698Y-71867633D01*
X143569700Y-71867633D01*
X143679594Y-71838187D01*
X143789490Y-71808740D01*
X143789493Y-71808740D01*
X143789493Y-71808739D01*
X143789496Y-71808739D01*
X143995734Y-71712568D01*
X144182139Y-71582047D01*
X144343047Y-71421139D01*
X144473568Y-71234734D01*
X144569739Y-71028496D01*
X144628635Y-70808692D01*
X144648468Y-70582000D01*
X144635275Y-70431205D01*
X144646553Y-70395438D01*
X144679818Y-70378121D01*
X144683939Y-70377935D01*
X154450359Y-70349790D01*
X154485048Y-70364042D01*
X154499500Y-70398649D01*
X154499500Y-99777776D01*
X154485148Y-99812424D01*
X154450581Y-99826776D01*
X153708977Y-99827997D01*
X153674305Y-99813702D01*
X153659896Y-99779078D01*
X153670020Y-99749171D01*
X153722624Y-99680618D01*
X153775574Y-99552783D01*
X153793635Y-99415600D01*
X153775574Y-99278417D01*
X153722626Y-99150587D01*
X153722623Y-99150582D01*
X153702382Y-99124204D01*
X153638391Y-99040809D01*
X153528618Y-98956576D01*
X153528614Y-98956574D01*
X153400782Y-98903625D01*
X153281660Y-98887942D01*
X153263600Y-98885565D01*
X153263599Y-98885565D01*
X153124675Y-98903854D01*
X153088450Y-98894147D01*
X153069699Y-98861669D01*
X153064374Y-98821217D01*
X153011424Y-98693383D01*
X152927191Y-98583609D01*
X152817418Y-98499376D01*
X152817414Y-98499374D01*
X152689582Y-98446425D01*
X152552400Y-98428365D01*
X152415217Y-98446425D01*
X152287387Y-98499373D01*
X152287382Y-98499376D01*
X152177609Y-98583608D01*
X152177608Y-98583609D01*
X152093376Y-98693382D01*
X152093373Y-98693387D01*
X152040425Y-98821217D01*
X152022365Y-98958400D01*
X152040425Y-99095582D01*
X152084292Y-99201487D01*
X152093376Y-99223418D01*
X152177609Y-99333191D01*
X152204445Y-99353783D01*
X152234344Y-99376726D01*
X152253095Y-99409205D01*
X152243388Y-99445430D01*
X152234344Y-99454474D01*
X152177607Y-99498010D01*
X152093376Y-99607782D01*
X152093373Y-99607787D01*
X152040425Y-99735617D01*
X152033498Y-99788232D01*
X152014746Y-99820710D01*
X151984998Y-99830835D01*
X141758410Y-99847669D01*
X141723738Y-99833374D01*
X141709329Y-99798750D01*
X141713057Y-99779924D01*
X141722974Y-99755983D01*
X141741035Y-99618800D01*
X141722974Y-99481617D01*
X141700049Y-99426270D01*
X141700049Y-99388767D01*
X141726568Y-99362249D01*
X141764069Y-99362249D01*
X141870050Y-99406147D01*
X142007233Y-99424208D01*
X142144416Y-99406147D01*
X142272251Y-99353197D01*
X142382024Y-99268964D01*
X142466257Y-99159191D01*
X142519207Y-99031356D01*
X142537268Y-98894173D01*
X142519207Y-98756990D01*
X142492862Y-98693387D01*
X142466259Y-98629160D01*
X142466256Y-98629155D01*
X142382025Y-98519383D01*
X142382022Y-98519381D01*
X142272251Y-98435149D01*
X142272247Y-98435147D01*
X142144415Y-98382198D01*
X142007233Y-98364138D01*
X141870050Y-98382198D01*
X141742220Y-98435146D01*
X141742215Y-98435149D01*
X141632442Y-98519381D01*
X141632441Y-98519382D01*
X141548209Y-98629155D01*
X141548206Y-98629160D01*
X141495258Y-98756990D01*
X141477198Y-98894173D01*
X141495258Y-99031355D01*
X141518183Y-99086701D01*
X141518183Y-99124204D01*
X141491664Y-99150722D01*
X141454162Y-99150722D01*
X141348182Y-99106825D01*
X141245677Y-99093330D01*
X141217818Y-99089662D01*
X141185341Y-99070911D01*
X141175634Y-99034686D01*
X141185339Y-99011255D01*
X141256424Y-98918618D01*
X141309374Y-98790783D01*
X141327435Y-98653600D01*
X141309374Y-98516417D01*
X141256426Y-98388587D01*
X141256423Y-98388582D01*
X141251524Y-98382198D01*
X141172191Y-98278809D01*
X141062418Y-98194576D01*
X141062414Y-98194574D01*
X140934582Y-98141625D01*
X140797400Y-98123565D01*
X140660217Y-98141625D01*
X140532387Y-98194573D01*
X140532382Y-98194576D01*
X140422609Y-98278808D01*
X140422608Y-98278809D01*
X140338376Y-98388582D01*
X140338373Y-98388587D01*
X140285425Y-98516417D01*
X140267365Y-98653600D01*
X140285425Y-98790782D01*
X140338374Y-98918614D01*
X140338376Y-98918618D01*
X140422609Y-99028391D01*
X140532382Y-99112624D01*
X140660217Y-99165574D01*
X140790581Y-99182737D01*
X140823058Y-99201487D01*
X140832765Y-99237712D01*
X140823059Y-99261146D01*
X140751973Y-99353787D01*
X140699025Y-99481617D01*
X140680965Y-99618800D01*
X140699025Y-99755982D01*
X140709686Y-99781719D01*
X140709686Y-99819222D01*
X140683167Y-99845740D01*
X140664497Y-99849470D01*
X117729982Y-99887221D01*
X117695310Y-99872926D01*
X117680901Y-99838302D01*
X117680901Y-99838013D01*
X117680932Y-99830835D01*
X117699446Y-95470690D01*
X117698544Y-95458255D01*
X117710352Y-95422663D01*
X117736449Y-95408600D01*
X117736076Y-95407207D01*
X117739181Y-95406374D01*
X117739183Y-95406374D01*
X117867018Y-95353424D01*
X117976791Y-95269191D01*
X118061024Y-95159418D01*
X118113974Y-95031583D01*
X118132035Y-94894400D01*
X118113974Y-94757217D01*
X118113745Y-94755476D01*
X118123452Y-94719251D01*
X118155928Y-94700500D01*
X118196383Y-94695174D01*
X118324218Y-94642224D01*
X118433991Y-94557991D01*
X118518224Y-94448218D01*
X118571174Y-94320383D01*
X118589235Y-94183200D01*
X118571174Y-94046017D01*
X118567522Y-94037200D01*
X141385565Y-94037200D01*
X141403625Y-94174382D01*
X141456574Y-94302214D01*
X141456576Y-94302218D01*
X141540809Y-94411991D01*
X141650582Y-94496224D01*
X141778417Y-94549174D01*
X141915600Y-94567235D01*
X142052783Y-94549174D01*
X142180618Y-94496224D01*
X142290391Y-94411991D01*
X142374624Y-94302218D01*
X142427574Y-94174383D01*
X142445635Y-94037200D01*
X142427574Y-93900017D01*
X142374624Y-93772183D01*
X142290391Y-93662409D01*
X142180618Y-93578176D01*
X142180614Y-93578174D01*
X142052782Y-93525225D01*
X141915600Y-93507165D01*
X141778417Y-93525225D01*
X141650587Y-93578173D01*
X141650582Y-93578176D01*
X141540809Y-93662408D01*
X141540808Y-93662409D01*
X141456576Y-93772182D01*
X141456573Y-93772187D01*
X141403625Y-93900017D01*
X141385565Y-94037200D01*
X118567522Y-94037200D01*
X118518224Y-93918183D01*
X118433991Y-93808409D01*
X118324218Y-93724176D01*
X118324214Y-93724174D01*
X118196382Y-93671225D01*
X118059200Y-93653165D01*
X117922017Y-93671225D01*
X117794187Y-93724173D01*
X117733810Y-93770502D01*
X117697585Y-93780208D01*
X117665106Y-93761456D01*
X117655400Y-93725231D01*
X117661283Y-93708750D01*
X117660836Y-93708520D01*
X117661717Y-93706808D01*
X117676212Y-93672230D01*
X117676216Y-93672221D01*
X117687364Y-93642394D01*
X117707742Y-93517173D01*
X117712140Y-92481400D01*
X139881165Y-92481400D01*
X139899225Y-92618582D01*
X139952174Y-92746414D01*
X139952176Y-92746418D01*
X140036409Y-92856191D01*
X140146182Y-92940424D01*
X140274017Y-92993374D01*
X140411200Y-93011435D01*
X140548383Y-92993374D01*
X140676218Y-92940424D01*
X140785991Y-92856191D01*
X140870224Y-92746418D01*
X140923174Y-92618583D01*
X140941235Y-92481400D01*
X140923174Y-92344217D01*
X140870224Y-92216383D01*
X140785991Y-92106609D01*
X140676218Y-92022376D01*
X140676214Y-92022374D01*
X140548382Y-91969425D01*
X140411200Y-91951365D01*
X140274017Y-91969425D01*
X140146187Y-92022373D01*
X140146182Y-92022376D01*
X140036409Y-92106608D01*
X140036408Y-92106609D01*
X139952176Y-92216382D01*
X139952173Y-92216387D01*
X139899225Y-92344217D01*
X139881165Y-92481400D01*
X117712140Y-92481400D01*
X117718288Y-91033600D01*
X139627165Y-91033600D01*
X139645225Y-91170782D01*
X139698174Y-91298614D01*
X139698176Y-91298618D01*
X139782409Y-91408391D01*
X139892182Y-91492624D01*
X140020017Y-91545574D01*
X140157200Y-91563635D01*
X140294383Y-91545574D01*
X140422218Y-91492624D01*
X140531991Y-91408391D01*
X140616224Y-91298618D01*
X140669174Y-91170783D01*
X140687235Y-91033600D01*
X140669174Y-90896417D01*
X140616224Y-90768583D01*
X140531991Y-90658809D01*
X140422218Y-90574576D01*
X140422214Y-90574574D01*
X140294382Y-90521625D01*
X140157200Y-90503565D01*
X140020017Y-90521625D01*
X139892187Y-90574573D01*
X139892182Y-90574576D01*
X139782409Y-90658808D01*
X139782408Y-90658809D01*
X139698176Y-90768582D01*
X139698173Y-90768587D01*
X139645225Y-90896417D01*
X139627165Y-91033600D01*
X117718288Y-91033600D01*
X117722096Y-90136822D01*
X117722096Y-90136821D01*
X117724112Y-89662000D01*
X126622365Y-89662000D01*
X126640425Y-89799182D01*
X126690458Y-89919974D01*
X126693376Y-89927018D01*
X126777609Y-90036791D01*
X126887382Y-90121024D01*
X127015217Y-90173974D01*
X127152400Y-90192035D01*
X127289583Y-90173974D01*
X127417418Y-90121024D01*
X127527191Y-90036791D01*
X127570727Y-89980054D01*
X127603205Y-89961304D01*
X127639430Y-89971011D01*
X127648471Y-89980052D01*
X127692009Y-90036791D01*
X127801782Y-90121024D01*
X127929617Y-90173974D01*
X128066800Y-90192035D01*
X128203983Y-90173974D01*
X128331818Y-90121024D01*
X128441591Y-90036791D01*
X128510526Y-89946953D01*
X128543004Y-89928202D01*
X128579229Y-89937909D01*
X128588272Y-89946952D01*
X128657209Y-90036791D01*
X128766982Y-90121024D01*
X128894817Y-90173974D01*
X129032000Y-90192035D01*
X129169183Y-90173974D01*
X129297018Y-90121024D01*
X129406791Y-90036791D01*
X129491024Y-89927018D01*
X129543974Y-89799183D01*
X129562035Y-89662000D01*
X129543974Y-89524817D01*
X129543745Y-89523076D01*
X129553452Y-89486851D01*
X129585928Y-89468100D01*
X129626383Y-89462774D01*
X129754218Y-89409824D01*
X129756595Y-89408000D01*
X133023165Y-89408000D01*
X133041225Y-89545182D01*
X133089612Y-89661999D01*
X133094176Y-89673018D01*
X133178409Y-89782791D01*
X133288182Y-89867024D01*
X133416017Y-89919974D01*
X133553200Y-89938035D01*
X133690383Y-89919974D01*
X133818218Y-89867024D01*
X133927991Y-89782791D01*
X133971527Y-89726054D01*
X134004005Y-89707304D01*
X134040230Y-89717011D01*
X134049271Y-89726052D01*
X134092809Y-89782791D01*
X134202582Y-89867024D01*
X134330417Y-89919974D01*
X134467600Y-89938035D01*
X134604783Y-89919974D01*
X134732618Y-89867024D01*
X134842391Y-89782791D01*
X134911326Y-89692953D01*
X134943804Y-89674202D01*
X134980029Y-89683909D01*
X134989072Y-89692952D01*
X135058009Y-89782791D01*
X135167782Y-89867024D01*
X135295617Y-89919974D01*
X135432800Y-89938035D01*
X135569983Y-89919974D01*
X135697818Y-89867024D01*
X135807591Y-89782791D01*
X135891824Y-89673018D01*
X135944774Y-89545183D01*
X135962835Y-89408000D01*
X135944774Y-89270817D01*
X135944545Y-89269076D01*
X135954252Y-89232851D01*
X135986728Y-89214100D01*
X136027183Y-89208774D01*
X136155018Y-89155824D01*
X136264791Y-89071591D01*
X136349024Y-88961818D01*
X136401974Y-88833983D01*
X136420035Y-88696800D01*
X136401974Y-88559617D01*
X136373873Y-88491774D01*
X136349026Y-88431787D01*
X136349023Y-88431782D01*
X136348114Y-88430598D01*
X136275948Y-88336549D01*
X136264792Y-88322010D01*
X136264789Y-88322008D01*
X136155018Y-88237776D01*
X136155014Y-88237774D01*
X136027182Y-88184825D01*
X135890000Y-88166765D01*
X135752817Y-88184825D01*
X135624987Y-88237773D01*
X135624982Y-88237776D01*
X135515210Y-88322007D01*
X135471674Y-88378744D01*
X135439195Y-88397495D01*
X135402970Y-88387788D01*
X135393926Y-88378744D01*
X135370003Y-88347568D01*
X135350391Y-88322009D01*
X135240618Y-88237776D01*
X135240614Y-88237774D01*
X135112782Y-88184825D01*
X134975600Y-88166765D01*
X134838417Y-88184825D01*
X134710587Y-88237773D01*
X134710582Y-88237776D01*
X134600809Y-88322008D01*
X134600808Y-88322009D01*
X134531874Y-88411846D01*
X134499396Y-88430598D01*
X134463171Y-88420891D01*
X134454126Y-88411846D01*
X134385192Y-88322010D01*
X134385189Y-88322008D01*
X134275418Y-88237776D01*
X134275414Y-88237774D01*
X134147582Y-88184825D01*
X134010400Y-88166765D01*
X133873217Y-88184825D01*
X133745387Y-88237773D01*
X133745382Y-88237776D01*
X133635609Y-88322008D01*
X133635608Y-88322009D01*
X133551376Y-88431782D01*
X133551373Y-88431787D01*
X133498425Y-88559617D01*
X133480365Y-88696800D01*
X133498654Y-88835723D01*
X133488947Y-88871949D01*
X133456470Y-88890699D01*
X133416017Y-88896026D01*
X133416014Y-88896026D01*
X133416014Y-88896027D01*
X133416013Y-88896027D01*
X133288187Y-88948973D01*
X133288182Y-88948976D01*
X133178409Y-89033208D01*
X133178408Y-89033209D01*
X133094176Y-89142982D01*
X133094173Y-89142987D01*
X133041225Y-89270817D01*
X133023165Y-89408000D01*
X129756595Y-89408000D01*
X129863991Y-89325591D01*
X129948224Y-89215818D01*
X130001174Y-89087983D01*
X130019235Y-88950800D01*
X130001174Y-88813617D01*
X129971800Y-88742701D01*
X129948226Y-88685787D01*
X129948223Y-88685782D01*
X129947314Y-88684598D01*
X129863991Y-88576009D01*
X129754218Y-88491776D01*
X129754214Y-88491774D01*
X129626382Y-88438825D01*
X129489200Y-88420765D01*
X129352017Y-88438825D01*
X129224187Y-88491773D01*
X129224182Y-88491776D01*
X129114410Y-88576007D01*
X129070874Y-88632744D01*
X129038395Y-88651495D01*
X129002170Y-88641788D01*
X128993126Y-88632744D01*
X128979042Y-88614390D01*
X128949591Y-88576009D01*
X128839818Y-88491776D01*
X128839814Y-88491774D01*
X128711982Y-88438825D01*
X128574800Y-88420765D01*
X128437617Y-88438825D01*
X128309787Y-88491773D01*
X128309782Y-88491776D01*
X128200009Y-88576008D01*
X128200008Y-88576009D01*
X128131074Y-88665846D01*
X128098596Y-88684598D01*
X128062371Y-88674891D01*
X128053326Y-88665846D01*
X127984392Y-88576010D01*
X127984389Y-88576008D01*
X127874618Y-88491776D01*
X127874614Y-88491774D01*
X127746782Y-88438825D01*
X127609600Y-88420765D01*
X127472417Y-88438825D01*
X127344587Y-88491773D01*
X127344582Y-88491776D01*
X127234809Y-88576008D01*
X127234808Y-88576009D01*
X127150576Y-88685782D01*
X127150573Y-88685787D01*
X127097625Y-88813617D01*
X127079565Y-88950800D01*
X127097854Y-89089723D01*
X127088147Y-89125949D01*
X127055670Y-89144699D01*
X127015217Y-89150026D01*
X127015214Y-89150026D01*
X127015214Y-89150027D01*
X127015213Y-89150027D01*
X126887387Y-89202973D01*
X126887382Y-89202976D01*
X126777609Y-89287208D01*
X126777608Y-89287209D01*
X126693376Y-89396982D01*
X126693373Y-89396987D01*
X126640425Y-89524817D01*
X126622365Y-89662000D01*
X117724112Y-89662000D01*
X117726310Y-89144169D01*
X117725131Y-89111500D01*
X117695779Y-88988074D01*
X117681502Y-88953396D01*
X117668230Y-88924444D01*
X117647676Y-88896027D01*
X117593881Y-88821652D01*
X117593879Y-88821650D01*
X117593877Y-88821647D01*
X117285817Y-88512277D01*
X117285816Y-88512277D01*
X117224298Y-88450497D01*
X117224217Y-88450416D01*
X117224217Y-88450415D01*
X117221634Y-88447846D01*
X117221474Y-88447688D01*
X117200246Y-88428212D01*
X117200244Y-88428210D01*
X117104218Y-88369364D01*
X117092073Y-88361921D01*
X117092062Y-88361916D01*
X117078331Y-88356228D01*
X117057423Y-88347568D01*
X117045839Y-88343294D01*
X117027555Y-88336549D01*
X117027551Y-88336547D01*
X116952364Y-88324638D01*
X116902242Y-88316700D01*
X105832151Y-88316700D01*
X105812581Y-88317291D01*
X105807686Y-88317439D01*
X105801764Y-88317797D01*
X105745931Y-88325090D01*
X105745925Y-88325091D01*
X105627038Y-88369361D01*
X105594365Y-88387789D01*
X105594346Y-88387801D01*
X105564838Y-88407647D01*
X105528078Y-88415074D01*
X105507664Y-88405861D01*
X105421022Y-88339379D01*
X105421021Y-88339378D01*
X105421018Y-88339376D01*
X105421015Y-88339375D01*
X105421014Y-88339374D01*
X105293182Y-88286425D01*
X105202795Y-88274525D01*
X105170316Y-88255773D01*
X105160610Y-88219549D01*
X105178035Y-88087200D01*
X105159974Y-87950017D01*
X105159745Y-87948276D01*
X105169452Y-87912051D01*
X105201928Y-87893300D01*
X105242383Y-87887974D01*
X105370218Y-87835024D01*
X105479991Y-87750791D01*
X105564224Y-87641018D01*
X105617174Y-87513183D01*
X105621859Y-87477600D01*
X114582765Y-87477600D01*
X114600825Y-87614782D01*
X114647566Y-87727626D01*
X114653776Y-87742618D01*
X114738009Y-87852391D01*
X114847782Y-87936624D01*
X114975617Y-87989574D01*
X115112800Y-88007635D01*
X115249983Y-87989574D01*
X115377818Y-87936624D01*
X115487591Y-87852391D01*
X115531127Y-87795654D01*
X115563605Y-87776904D01*
X115599830Y-87786611D01*
X115608871Y-87795652D01*
X115652409Y-87852391D01*
X115762182Y-87936624D01*
X115890017Y-87989574D01*
X116027200Y-88007635D01*
X116164383Y-87989574D01*
X116292218Y-87936624D01*
X116401991Y-87852391D01*
X116470926Y-87762553D01*
X116503404Y-87743802D01*
X116539629Y-87753509D01*
X116548674Y-87762554D01*
X116604282Y-87835024D01*
X116617609Y-87852391D01*
X116727382Y-87936624D01*
X116855217Y-87989574D01*
X116992400Y-88007635D01*
X117129583Y-87989574D01*
X117257418Y-87936624D01*
X117367191Y-87852391D01*
X117451424Y-87742618D01*
X117504374Y-87614783D01*
X117522435Y-87477600D01*
X117504374Y-87340417D01*
X117504145Y-87338676D01*
X117513852Y-87302451D01*
X117546328Y-87283700D01*
X117586783Y-87278374D01*
X117714618Y-87225424D01*
X117824391Y-87141191D01*
X117908624Y-87031418D01*
X117961574Y-86903583D01*
X117979635Y-86766400D01*
X117961574Y-86629217D01*
X117932200Y-86558301D01*
X117908626Y-86501387D01*
X117908623Y-86501382D01*
X117907714Y-86500198D01*
X117830663Y-86399783D01*
X117824392Y-86391610D01*
X117824389Y-86391608D01*
X117714618Y-86307376D01*
X117714614Y-86307374D01*
X117586782Y-86254425D01*
X117449600Y-86236365D01*
X117312417Y-86254425D01*
X117184587Y-86307373D01*
X117184582Y-86307376D01*
X117074810Y-86391607D01*
X117031274Y-86448344D01*
X116998795Y-86467095D01*
X116962570Y-86457388D01*
X116953526Y-86448344D01*
X116948972Y-86442409D01*
X116909991Y-86391609D01*
X116800218Y-86307376D01*
X116800214Y-86307374D01*
X116672382Y-86254425D01*
X116535200Y-86236365D01*
X116398017Y-86254425D01*
X116270187Y-86307373D01*
X116270182Y-86307376D01*
X116160409Y-86391608D01*
X116160408Y-86391609D01*
X116091474Y-86481446D01*
X116058996Y-86500198D01*
X116022771Y-86490491D01*
X116013726Y-86481446D01*
X115944792Y-86391610D01*
X115944789Y-86391608D01*
X115835018Y-86307376D01*
X115835014Y-86307374D01*
X115707182Y-86254425D01*
X115570000Y-86236365D01*
X115432817Y-86254425D01*
X115304987Y-86307373D01*
X115304982Y-86307376D01*
X115195209Y-86391608D01*
X115195208Y-86391609D01*
X115110976Y-86501382D01*
X115110973Y-86501387D01*
X115058025Y-86629217D01*
X115039965Y-86766400D01*
X115058254Y-86905323D01*
X115048547Y-86941549D01*
X115016070Y-86960299D01*
X114975617Y-86965626D01*
X114975614Y-86965626D01*
X114975614Y-86965627D01*
X114975613Y-86965627D01*
X114847787Y-87018573D01*
X114847782Y-87018576D01*
X114738009Y-87102808D01*
X114738008Y-87102809D01*
X114653776Y-87212582D01*
X114653773Y-87212587D01*
X114600825Y-87340417D01*
X114582765Y-87477600D01*
X105621859Y-87477600D01*
X105635235Y-87376000D01*
X105617174Y-87238817D01*
X105611627Y-87225425D01*
X105564226Y-87110987D01*
X105564223Y-87110982D01*
X105479992Y-87001210D01*
X105468444Y-86992349D01*
X105370218Y-86916976D01*
X105370214Y-86916974D01*
X105242382Y-86864025D01*
X105242383Y-86864025D01*
X105201929Y-86858699D01*
X105169451Y-86839946D01*
X105159745Y-86803722D01*
X105159974Y-86801982D01*
X105178035Y-86664800D01*
X105159974Y-86527617D01*
X105130885Y-86457388D01*
X105107026Y-86399787D01*
X105107023Y-86399782D01*
X105100752Y-86391610D01*
X105036115Y-86307373D01*
X105022792Y-86290010D01*
X105022789Y-86290008D01*
X104913018Y-86205776D01*
X104913014Y-86205774D01*
X104785182Y-86152825D01*
X104648000Y-86134765D01*
X104510817Y-86152825D01*
X104382987Y-86205773D01*
X104382982Y-86205776D01*
X104273210Y-86290007D01*
X104229674Y-86346744D01*
X104197195Y-86365495D01*
X104160970Y-86355788D01*
X104151926Y-86346744D01*
X104121717Y-86307376D01*
X104108391Y-86290009D01*
X103998618Y-86205776D01*
X103998614Y-86205774D01*
X103870782Y-86152825D01*
X103733600Y-86134765D01*
X103596417Y-86152825D01*
X103468587Y-86205773D01*
X103468582Y-86205776D01*
X103358810Y-86290007D01*
X103315274Y-86346744D01*
X103282795Y-86365495D01*
X103246570Y-86355788D01*
X103237526Y-86346744D01*
X103207317Y-86307376D01*
X103193991Y-86290009D01*
X103084218Y-86205776D01*
X103084214Y-86205774D01*
X102956382Y-86152825D01*
X102819200Y-86134765D01*
X102682017Y-86152825D01*
X102554187Y-86205773D01*
X102554182Y-86205776D01*
X102444409Y-86290008D01*
X102444408Y-86290009D01*
X102360176Y-86399782D01*
X102360173Y-86399787D01*
X102307225Y-86527617D01*
X102289165Y-86664800D01*
X102307225Y-86801982D01*
X102360174Y-86929814D01*
X102360176Y-86929818D01*
X102444409Y-87039591D01*
X102554182Y-87123824D01*
X102682017Y-87176774D01*
X102722469Y-87182099D01*
X102754947Y-87200850D01*
X102764654Y-87237075D01*
X102746365Y-87375999D01*
X102764654Y-87514923D01*
X102754947Y-87551149D01*
X102722470Y-87569899D01*
X102682017Y-87575226D01*
X102682014Y-87575226D01*
X102682014Y-87575227D01*
X102682013Y-87575227D01*
X102554187Y-87628173D01*
X102554182Y-87628176D01*
X102444409Y-87712408D01*
X102444408Y-87712409D01*
X102360176Y-87822182D01*
X102360173Y-87822187D01*
X102307225Y-87950017D01*
X102289165Y-88087200D01*
X102307225Y-88224382D01*
X102317401Y-88248949D01*
X102317401Y-88286452D01*
X102290882Y-88312970D01*
X102272131Y-88316700D01*
X100549500Y-88316700D01*
X100514852Y-88302348D01*
X100500500Y-88267700D01*
X100500500Y-86106000D01*
X148263165Y-86106000D01*
X148281225Y-86243182D01*
X148331888Y-86365495D01*
X148334176Y-86371018D01*
X148418409Y-86480791D01*
X148528182Y-86565024D01*
X148656017Y-86617974D01*
X148696469Y-86623299D01*
X148728947Y-86642050D01*
X148738654Y-86678275D01*
X148720365Y-86817199D01*
X148738654Y-86956123D01*
X148728947Y-86992349D01*
X148696470Y-87011099D01*
X148656017Y-87016426D01*
X148656014Y-87016426D01*
X148656014Y-87016427D01*
X148656013Y-87016427D01*
X148528187Y-87069373D01*
X148528182Y-87069376D01*
X148418409Y-87153608D01*
X148418408Y-87153609D01*
X148334176Y-87263382D01*
X148334173Y-87263387D01*
X148281225Y-87391217D01*
X148263165Y-87528400D01*
X148281225Y-87665582D01*
X148334174Y-87793414D01*
X148334176Y-87793418D01*
X148418409Y-87903191D01*
X148528182Y-87987424D01*
X148656017Y-88040374D01*
X148696469Y-88045699D01*
X148728947Y-88064450D01*
X148738654Y-88100675D01*
X148720365Y-88239599D01*
X148738654Y-88378523D01*
X148728947Y-88414749D01*
X148696470Y-88433499D01*
X148656017Y-88438826D01*
X148656014Y-88438826D01*
X148656014Y-88438827D01*
X148656013Y-88438827D01*
X148528187Y-88491773D01*
X148528182Y-88491776D01*
X148418409Y-88576008D01*
X148418408Y-88576009D01*
X148334176Y-88685782D01*
X148334173Y-88685787D01*
X148281225Y-88813617D01*
X148263165Y-88950800D01*
X148281225Y-89087982D01*
X148331258Y-89208774D01*
X148334176Y-89215818D01*
X148418409Y-89325591D01*
X148528182Y-89409824D01*
X148656017Y-89462774D01*
X148793200Y-89480835D01*
X148930383Y-89462774D01*
X149058218Y-89409824D01*
X149167991Y-89325591D01*
X149211527Y-89268854D01*
X149244005Y-89250104D01*
X149280230Y-89259811D01*
X149289271Y-89268852D01*
X149332809Y-89325591D01*
X149442582Y-89409824D01*
X149570417Y-89462774D01*
X149707600Y-89480835D01*
X149844783Y-89462774D01*
X149972618Y-89409824D01*
X150082391Y-89325591D01*
X150151326Y-89235753D01*
X150183804Y-89217002D01*
X150220029Y-89226709D01*
X150229072Y-89235752D01*
X150298009Y-89325591D01*
X150407782Y-89409824D01*
X150535617Y-89462774D01*
X150672800Y-89480835D01*
X150809983Y-89462774D01*
X150937818Y-89409824D01*
X151047591Y-89325591D01*
X151131824Y-89215818D01*
X151184774Y-89087983D01*
X151202835Y-88950800D01*
X151184774Y-88813617D01*
X151184545Y-88811876D01*
X151194252Y-88775651D01*
X151226728Y-88756900D01*
X151267183Y-88751574D01*
X151395018Y-88698624D01*
X151504791Y-88614391D01*
X151589024Y-88504618D01*
X151641974Y-88376783D01*
X151660035Y-88239600D01*
X151641974Y-88102417D01*
X151616275Y-88040374D01*
X151589026Y-87974587D01*
X151589023Y-87974582D01*
X151504792Y-87864810D01*
X151465973Y-87835023D01*
X151395018Y-87780576D01*
X151395014Y-87780574D01*
X151267182Y-87727625D01*
X151176795Y-87715725D01*
X151144316Y-87696973D01*
X151134610Y-87660749D01*
X151152035Y-87528400D01*
X151133974Y-87391217D01*
X151133745Y-87389476D01*
X151143452Y-87353251D01*
X151175928Y-87334500D01*
X151216383Y-87329174D01*
X151344218Y-87276224D01*
X151453991Y-87191991D01*
X151538224Y-87082218D01*
X151591174Y-86954383D01*
X151609235Y-86817200D01*
X151591174Y-86680017D01*
X151565475Y-86617974D01*
X151538226Y-86552187D01*
X151538223Y-86552182D01*
X151453992Y-86442410D01*
X151398440Y-86399783D01*
X151344218Y-86358176D01*
X151344214Y-86358174D01*
X151216382Y-86305225D01*
X151216383Y-86305225D01*
X151175929Y-86299899D01*
X151143451Y-86281146D01*
X151133745Y-86244922D01*
X151138899Y-86205773D01*
X151152035Y-86106000D01*
X151133974Y-85968817D01*
X151081024Y-85840983D01*
X150996791Y-85731209D01*
X150887018Y-85646976D01*
X150887014Y-85646974D01*
X150759182Y-85594025D01*
X150622000Y-85575965D01*
X150484817Y-85594025D01*
X150356987Y-85646973D01*
X150356982Y-85646976D01*
X150247210Y-85731207D01*
X150203674Y-85787944D01*
X150171195Y-85806695D01*
X150134970Y-85796988D01*
X150125926Y-85787944D01*
X150122134Y-85783003D01*
X150082391Y-85731209D01*
X149972618Y-85646976D01*
X149972614Y-85646974D01*
X149844782Y-85594025D01*
X149707600Y-85575965D01*
X149570417Y-85594025D01*
X149442587Y-85646973D01*
X149442582Y-85646976D01*
X149332810Y-85731207D01*
X149289274Y-85787944D01*
X149256795Y-85806695D01*
X149220570Y-85796988D01*
X149211526Y-85787944D01*
X149207734Y-85783003D01*
X149167991Y-85731209D01*
X149058218Y-85646976D01*
X149058214Y-85646974D01*
X148930382Y-85594025D01*
X148793200Y-85575965D01*
X148656017Y-85594025D01*
X148528187Y-85646973D01*
X148528182Y-85646976D01*
X148418409Y-85731208D01*
X148418408Y-85731209D01*
X148334176Y-85840982D01*
X148334173Y-85840987D01*
X148281225Y-85968817D01*
X148263165Y-86106000D01*
X100500500Y-86106000D01*
X100500500Y-79908400D01*
X102289165Y-79908400D01*
X102307225Y-80045582D01*
X102356368Y-80164225D01*
X102360176Y-80173418D01*
X102444409Y-80283191D01*
X102554182Y-80367424D01*
X102682017Y-80420374D01*
X102722469Y-80425699D01*
X102754947Y-80444450D01*
X102764654Y-80480675D01*
X102746365Y-80619599D01*
X102764654Y-80758523D01*
X102754947Y-80794749D01*
X102722470Y-80813499D01*
X102682017Y-80818826D01*
X102682014Y-80818826D01*
X102682014Y-80818827D01*
X102682013Y-80818827D01*
X102554187Y-80871773D01*
X102554182Y-80871776D01*
X102444409Y-80956008D01*
X102444408Y-80956009D01*
X102360176Y-81065782D01*
X102360173Y-81065787D01*
X102307225Y-81193617D01*
X102289165Y-81330800D01*
X102307225Y-81467982D01*
X102356368Y-81586625D01*
X102360176Y-81595818D01*
X102444409Y-81705591D01*
X102554182Y-81789824D01*
X102682017Y-81842774D01*
X102722469Y-81848099D01*
X102754947Y-81866850D01*
X102764654Y-81903075D01*
X102746365Y-82041999D01*
X102764654Y-82180923D01*
X102754947Y-82217149D01*
X102722470Y-82235899D01*
X102682017Y-82241226D01*
X102682014Y-82241226D01*
X102682014Y-82241227D01*
X102682013Y-82241227D01*
X102554187Y-82294173D01*
X102554182Y-82294176D01*
X102444409Y-82378408D01*
X102444408Y-82378409D01*
X102360176Y-82488182D01*
X102360173Y-82488187D01*
X102307225Y-82616017D01*
X102289165Y-82753200D01*
X102307225Y-82890382D01*
X102356368Y-83009025D01*
X102360176Y-83018218D01*
X102444409Y-83127991D01*
X102554182Y-83212224D01*
X102682017Y-83265174D01*
X102819200Y-83283235D01*
X102956383Y-83265174D01*
X103084218Y-83212224D01*
X103193991Y-83127991D01*
X103237527Y-83071254D01*
X103270005Y-83052504D01*
X103306230Y-83062211D01*
X103315271Y-83071252D01*
X103358809Y-83127991D01*
X103468582Y-83212224D01*
X103596417Y-83265174D01*
X103733600Y-83283235D01*
X103870783Y-83265174D01*
X103998618Y-83212224D01*
X104108391Y-83127991D01*
X104177326Y-83038153D01*
X104209804Y-83019402D01*
X104246029Y-83029109D01*
X104255072Y-83038152D01*
X104324009Y-83127991D01*
X104433782Y-83212224D01*
X104561617Y-83265174D01*
X104698800Y-83283235D01*
X104835983Y-83265174D01*
X104963818Y-83212224D01*
X105073591Y-83127991D01*
X105157824Y-83018218D01*
X105210774Y-82890383D01*
X105228835Y-82753200D01*
X105210774Y-82616017D01*
X105210545Y-82614276D01*
X105220252Y-82578051D01*
X105252728Y-82559300D01*
X105293183Y-82553974D01*
X105421018Y-82501024D01*
X105530791Y-82416791D01*
X105615024Y-82307018D01*
X105667974Y-82179183D01*
X105686035Y-82042000D01*
X105667974Y-81904817D01*
X105640629Y-81838799D01*
X105615026Y-81776987D01*
X105615023Y-81776982D01*
X105530792Y-81667210D01*
X105421018Y-81582976D01*
X105421014Y-81582974D01*
X105293182Y-81530025D01*
X105202795Y-81518125D01*
X105170316Y-81499373D01*
X105160610Y-81463149D01*
X105178035Y-81330800D01*
X105159974Y-81193617D01*
X105159745Y-81191876D01*
X105169452Y-81155651D01*
X105201928Y-81136900D01*
X105242383Y-81131574D01*
X105370218Y-81078624D01*
X105479991Y-80994391D01*
X105564224Y-80884618D01*
X105617174Y-80756783D01*
X105635235Y-80619600D01*
X105617174Y-80482417D01*
X105589829Y-80416399D01*
X105564226Y-80354587D01*
X105564223Y-80354582D01*
X105479992Y-80244810D01*
X105370218Y-80160576D01*
X105370214Y-80160574D01*
X105242382Y-80107625D01*
X105242383Y-80107625D01*
X105201929Y-80102299D01*
X105169451Y-80083546D01*
X105159745Y-80047322D01*
X105169896Y-79970218D01*
X105178035Y-79908400D01*
X105159974Y-79771217D01*
X105132629Y-79705200D01*
X135055165Y-79705200D01*
X135073225Y-79842382D01*
X135126174Y-79970214D01*
X135126176Y-79970218D01*
X135210409Y-80079991D01*
X135320182Y-80164224D01*
X135448017Y-80217174D01*
X135488469Y-80222499D01*
X135520947Y-80241250D01*
X135530654Y-80277475D01*
X135512365Y-80416399D01*
X135530654Y-80555323D01*
X135520947Y-80591549D01*
X135488470Y-80610299D01*
X135448017Y-80615626D01*
X135448014Y-80615626D01*
X135448014Y-80615627D01*
X135448013Y-80615627D01*
X135320187Y-80668573D01*
X135320182Y-80668576D01*
X135210409Y-80752808D01*
X135210408Y-80752809D01*
X135126176Y-80862582D01*
X135126173Y-80862587D01*
X135073225Y-80990417D01*
X135055165Y-81127600D01*
X135073225Y-81264782D01*
X135126174Y-81392614D01*
X135126176Y-81392618D01*
X135210409Y-81502391D01*
X135320182Y-81586624D01*
X135448017Y-81639574D01*
X135488469Y-81644899D01*
X135520947Y-81663650D01*
X135530654Y-81699875D01*
X135512365Y-81838799D01*
X135530654Y-81977723D01*
X135520947Y-82013949D01*
X135488470Y-82032699D01*
X135448017Y-82038026D01*
X135448014Y-82038026D01*
X135448014Y-82038027D01*
X135448013Y-82038027D01*
X135320187Y-82090973D01*
X135320182Y-82090976D01*
X135210409Y-82175208D01*
X135210408Y-82175209D01*
X135126176Y-82284982D01*
X135126173Y-82284987D01*
X135073225Y-82412817D01*
X135055165Y-82550000D01*
X135073225Y-82687182D01*
X135126174Y-82815014D01*
X135126176Y-82815018D01*
X135210409Y-82924791D01*
X135320182Y-83009024D01*
X135448017Y-83061974D01*
X135585200Y-83080035D01*
X135722383Y-83061974D01*
X135850218Y-83009024D01*
X135959991Y-82924791D01*
X136003527Y-82868054D01*
X136036005Y-82849304D01*
X136072230Y-82859011D01*
X136081271Y-82868052D01*
X136124809Y-82924791D01*
X136234582Y-83009024D01*
X136362417Y-83061974D01*
X136499600Y-83080035D01*
X136636783Y-83061974D01*
X136764618Y-83009024D01*
X136874391Y-82924791D01*
X136943326Y-82834953D01*
X136975804Y-82816202D01*
X137012029Y-82825909D01*
X137021072Y-82834952D01*
X137090009Y-82924791D01*
X137199782Y-83009024D01*
X137327617Y-83061974D01*
X137464800Y-83080035D01*
X137601983Y-83061974D01*
X137729818Y-83009024D01*
X137839591Y-82924791D01*
X137923824Y-82815018D01*
X137976774Y-82687183D01*
X137994835Y-82550000D01*
X137976774Y-82412817D01*
X137976545Y-82411076D01*
X137986252Y-82374851D01*
X138018728Y-82356100D01*
X138059183Y-82350774D01*
X138187018Y-82297824D01*
X138296791Y-82213591D01*
X138381024Y-82103818D01*
X138433974Y-81975983D01*
X138452035Y-81838800D01*
X138433974Y-81701617D01*
X138390151Y-81595818D01*
X138381026Y-81573787D01*
X138381023Y-81573782D01*
X138296792Y-81464010D01*
X138187018Y-81379776D01*
X138187014Y-81379774D01*
X138059182Y-81326825D01*
X137968795Y-81314925D01*
X137936316Y-81296173D01*
X137926610Y-81259949D01*
X137944035Y-81127600D01*
X137925974Y-80990417D01*
X137925745Y-80988676D01*
X137935452Y-80952451D01*
X137967928Y-80933700D01*
X138008383Y-80928374D01*
X138136218Y-80875424D01*
X138245991Y-80791191D01*
X138330224Y-80681418D01*
X138383174Y-80553583D01*
X138401235Y-80416400D01*
X138383174Y-80279217D01*
X138367448Y-80241250D01*
X138365706Y-80237045D01*
X142042500Y-80237045D01*
X142042500Y-81326954D01*
X142057631Y-81461249D01*
X142057633Y-81461258D01*
X142117212Y-81631526D01*
X142208610Y-81776983D01*
X142213184Y-81784262D01*
X142340738Y-81911816D01*
X142340740Y-81911817D01*
X142493473Y-82007787D01*
X142493477Y-82007788D01*
X142493478Y-82007789D01*
X142663745Y-82067368D01*
X142775662Y-82079978D01*
X142798045Y-82082500D01*
X142798046Y-82082500D01*
X143887955Y-82082500D01*
X143907139Y-82080338D01*
X144022255Y-82067368D01*
X144192522Y-82007789D01*
X144192524Y-82007787D01*
X144192526Y-82007787D01*
X144248596Y-81972555D01*
X144345262Y-81911816D01*
X144472816Y-81784262D01*
X144546365Y-81667210D01*
X144568787Y-81631526D01*
X144568787Y-81631524D01*
X144568789Y-81631522D01*
X144628368Y-81461255D01*
X144643500Y-81326954D01*
X144643500Y-80237046D01*
X144628368Y-80102745D01*
X144568789Y-79932478D01*
X144568788Y-79932477D01*
X144568787Y-79932473D01*
X144472817Y-79779740D01*
X144472816Y-79779738D01*
X144398278Y-79705200D01*
X148212365Y-79705200D01*
X148230425Y-79842382D01*
X148283374Y-79970214D01*
X148283376Y-79970218D01*
X148367609Y-80079991D01*
X148477382Y-80164224D01*
X148605217Y-80217174D01*
X148645669Y-80222499D01*
X148678147Y-80241250D01*
X148687854Y-80277475D01*
X148669565Y-80416399D01*
X148687854Y-80555323D01*
X148678147Y-80591549D01*
X148645670Y-80610299D01*
X148605217Y-80615626D01*
X148605214Y-80615626D01*
X148605214Y-80615627D01*
X148605213Y-80615627D01*
X148477387Y-80668573D01*
X148477382Y-80668576D01*
X148367609Y-80752808D01*
X148367608Y-80752809D01*
X148283376Y-80862582D01*
X148283373Y-80862587D01*
X148230425Y-80990417D01*
X148212365Y-81127600D01*
X148230425Y-81264782D01*
X148283374Y-81392614D01*
X148283376Y-81392618D01*
X148367609Y-81502391D01*
X148477382Y-81586624D01*
X148605217Y-81639574D01*
X148645669Y-81644899D01*
X148678147Y-81663650D01*
X148687854Y-81699875D01*
X148669565Y-81838799D01*
X148687854Y-81977723D01*
X148678147Y-82013949D01*
X148645670Y-82032699D01*
X148605217Y-82038026D01*
X148605214Y-82038026D01*
X148605214Y-82038027D01*
X148605213Y-82038027D01*
X148477387Y-82090973D01*
X148477382Y-82090976D01*
X148367609Y-82175208D01*
X148367608Y-82175209D01*
X148283376Y-82284982D01*
X148283373Y-82284987D01*
X148230425Y-82412817D01*
X148212365Y-82550000D01*
X148230425Y-82687182D01*
X148283374Y-82815014D01*
X148283376Y-82815018D01*
X148367609Y-82924791D01*
X148477382Y-83009024D01*
X148605217Y-83061974D01*
X148742400Y-83080035D01*
X148879583Y-83061974D01*
X149007418Y-83009024D01*
X149117191Y-82924791D01*
X149160727Y-82868054D01*
X149193205Y-82849304D01*
X149229430Y-82859011D01*
X149238471Y-82868052D01*
X149282009Y-82924791D01*
X149391782Y-83009024D01*
X149519617Y-83061974D01*
X149656800Y-83080035D01*
X149793983Y-83061974D01*
X149921818Y-83009024D01*
X150031591Y-82924791D01*
X150100526Y-82834953D01*
X150133004Y-82816202D01*
X150169229Y-82825909D01*
X150178272Y-82834952D01*
X150247209Y-82924791D01*
X150356982Y-83009024D01*
X150484817Y-83061974D01*
X150622000Y-83080035D01*
X150759183Y-83061974D01*
X150887018Y-83009024D01*
X150996791Y-82924791D01*
X151081024Y-82815018D01*
X151133974Y-82687183D01*
X151152035Y-82550000D01*
X151133974Y-82412817D01*
X151133745Y-82411076D01*
X151143452Y-82374851D01*
X151175928Y-82356100D01*
X151216383Y-82350774D01*
X151344218Y-82297824D01*
X151453991Y-82213591D01*
X151538224Y-82103818D01*
X151591174Y-81975983D01*
X151609235Y-81838800D01*
X151591174Y-81701617D01*
X151547351Y-81595818D01*
X151538226Y-81573787D01*
X151538223Y-81573782D01*
X151453992Y-81464010D01*
X151344218Y-81379776D01*
X151344214Y-81379774D01*
X151216382Y-81326825D01*
X151125995Y-81314925D01*
X151093516Y-81296173D01*
X151083810Y-81259949D01*
X151101235Y-81127600D01*
X151083174Y-80990417D01*
X151082945Y-80988676D01*
X151092652Y-80952451D01*
X151125128Y-80933700D01*
X151165583Y-80928374D01*
X151293418Y-80875424D01*
X151403191Y-80791191D01*
X151487424Y-80681418D01*
X151540374Y-80553583D01*
X151558435Y-80416400D01*
X151540374Y-80279217D01*
X151524648Y-80241250D01*
X151487426Y-80151387D01*
X151487423Y-80151382D01*
X151403192Y-80041610D01*
X151293418Y-79957376D01*
X151293414Y-79957374D01*
X151165582Y-79904425D01*
X151165583Y-79904425D01*
X151125129Y-79899099D01*
X151092651Y-79880346D01*
X151082945Y-79844122D01*
X151091421Y-79779740D01*
X151101235Y-79705200D01*
X151083174Y-79568017D01*
X151068922Y-79533609D01*
X151030226Y-79440187D01*
X151030223Y-79440182D01*
X150945992Y-79330410D01*
X150945989Y-79330408D01*
X150836218Y-79246176D01*
X150836214Y-79246174D01*
X150708382Y-79193225D01*
X150571200Y-79175165D01*
X150434017Y-79193225D01*
X150306187Y-79246173D01*
X150306182Y-79246176D01*
X150196410Y-79330407D01*
X150152874Y-79387144D01*
X150120395Y-79405895D01*
X150084170Y-79396188D01*
X150075126Y-79387144D01*
X150068389Y-79378365D01*
X150031591Y-79330409D01*
X149921818Y-79246176D01*
X149921814Y-79246174D01*
X149793982Y-79193225D01*
X149656800Y-79175165D01*
X149519617Y-79193225D01*
X149391787Y-79246173D01*
X149391782Y-79246176D01*
X149282010Y-79330407D01*
X149238474Y-79387144D01*
X149205995Y-79405895D01*
X149169770Y-79396188D01*
X149160726Y-79387144D01*
X149153989Y-79378365D01*
X149117191Y-79330409D01*
X149007418Y-79246176D01*
X149007414Y-79246174D01*
X148879582Y-79193225D01*
X148742400Y-79175165D01*
X148605217Y-79193225D01*
X148477387Y-79246173D01*
X148477382Y-79246176D01*
X148367609Y-79330408D01*
X148367608Y-79330409D01*
X148283376Y-79440182D01*
X148283373Y-79440187D01*
X148230425Y-79568017D01*
X148212365Y-79705200D01*
X144398278Y-79705200D01*
X144345262Y-79652184D01*
X144331262Y-79643387D01*
X144192526Y-79556212D01*
X144022258Y-79496633D01*
X144022257Y-79496632D01*
X144022255Y-79496632D01*
X144022251Y-79496631D01*
X144022249Y-79496631D01*
X143887955Y-79481500D01*
X143887954Y-79481500D01*
X142798046Y-79481500D01*
X142798045Y-79481500D01*
X142663750Y-79496631D01*
X142663741Y-79496633D01*
X142493473Y-79556212D01*
X142340740Y-79652182D01*
X142340736Y-79652185D01*
X142213185Y-79779736D01*
X142213182Y-79779740D01*
X142117212Y-79932473D01*
X142057633Y-80102741D01*
X142057631Y-80102750D01*
X142042500Y-80237045D01*
X138365706Y-80237045D01*
X138330226Y-80151387D01*
X138330223Y-80151382D01*
X138245992Y-80041610D01*
X138136218Y-79957376D01*
X138136214Y-79957374D01*
X138008382Y-79904425D01*
X138008383Y-79904425D01*
X137967929Y-79899099D01*
X137935451Y-79880346D01*
X137925745Y-79844122D01*
X137934221Y-79779740D01*
X137944035Y-79705200D01*
X137925974Y-79568017D01*
X137911722Y-79533609D01*
X137873026Y-79440187D01*
X137873023Y-79440182D01*
X137788792Y-79330410D01*
X137788789Y-79330408D01*
X137679018Y-79246176D01*
X137679014Y-79246174D01*
X137551182Y-79193225D01*
X137414000Y-79175165D01*
X137276817Y-79193225D01*
X137148987Y-79246173D01*
X137148982Y-79246176D01*
X137039210Y-79330407D01*
X136995674Y-79387144D01*
X136963195Y-79405895D01*
X136926970Y-79396188D01*
X136917926Y-79387144D01*
X136911189Y-79378365D01*
X136874391Y-79330409D01*
X136764618Y-79246176D01*
X136764614Y-79246174D01*
X136636782Y-79193225D01*
X136499600Y-79175165D01*
X136362417Y-79193225D01*
X136234587Y-79246173D01*
X136234582Y-79246176D01*
X136124810Y-79330407D01*
X136081274Y-79387144D01*
X136048795Y-79405895D01*
X136012570Y-79396188D01*
X136003526Y-79387144D01*
X135996789Y-79378365D01*
X135959991Y-79330409D01*
X135850218Y-79246176D01*
X135850214Y-79246174D01*
X135722382Y-79193225D01*
X135585200Y-79175165D01*
X135448017Y-79193225D01*
X135320187Y-79246173D01*
X135320182Y-79246176D01*
X135210409Y-79330408D01*
X135210408Y-79330409D01*
X135126176Y-79440182D01*
X135126173Y-79440187D01*
X135073225Y-79568017D01*
X135055165Y-79705200D01*
X105132629Y-79705200D01*
X105110670Y-79652185D01*
X105107026Y-79643387D01*
X105107023Y-79643382D01*
X105022792Y-79533610D01*
X105022789Y-79533608D01*
X104913018Y-79449376D01*
X104913014Y-79449374D01*
X104785182Y-79396425D01*
X104648000Y-79378365D01*
X104510817Y-79396425D01*
X104382987Y-79449373D01*
X104382982Y-79449376D01*
X104273210Y-79533607D01*
X104229674Y-79590344D01*
X104197195Y-79609095D01*
X104160970Y-79599388D01*
X104151926Y-79590344D01*
X104148134Y-79585403D01*
X104108391Y-79533609D01*
X103998618Y-79449376D01*
X103998614Y-79449374D01*
X103870782Y-79396425D01*
X103733600Y-79378365D01*
X103596417Y-79396425D01*
X103468587Y-79449373D01*
X103468582Y-79449376D01*
X103358810Y-79533607D01*
X103315274Y-79590344D01*
X103282795Y-79609095D01*
X103246570Y-79599388D01*
X103237526Y-79590344D01*
X103233734Y-79585403D01*
X103193991Y-79533609D01*
X103084218Y-79449376D01*
X103084214Y-79449374D01*
X102956382Y-79396425D01*
X102819200Y-79378365D01*
X102682017Y-79396425D01*
X102554187Y-79449373D01*
X102554182Y-79449376D01*
X102444409Y-79533608D01*
X102444408Y-79533609D01*
X102360176Y-79643382D01*
X102360173Y-79643387D01*
X102307225Y-79771217D01*
X102289165Y-79908400D01*
X100500500Y-79908400D01*
X100500500Y-75806000D01*
X103381365Y-75806000D01*
X103399425Y-75943182D01*
X103447730Y-76059802D01*
X103452376Y-76071018D01*
X103536609Y-76180791D01*
X103646382Y-76265024D01*
X103774217Y-76317974D01*
X103911400Y-76336035D01*
X104048583Y-76317974D01*
X104176418Y-76265024D01*
X104286191Y-76180791D01*
X104370424Y-76071018D01*
X104423374Y-75943183D01*
X104441435Y-75806000D01*
X104423374Y-75668817D01*
X104370607Y-75541424D01*
X104370426Y-75540987D01*
X104370423Y-75540982D01*
X104286192Y-75431210D01*
X104286189Y-75431208D01*
X104176418Y-75346976D01*
X104176414Y-75346974D01*
X104048582Y-75294025D01*
X103911400Y-75275965D01*
X103774217Y-75294025D01*
X103646387Y-75346973D01*
X103646382Y-75346976D01*
X103536609Y-75431208D01*
X103536608Y-75431209D01*
X103452376Y-75540982D01*
X103452373Y-75540987D01*
X103399425Y-75668817D01*
X103381365Y-75806000D01*
X100500500Y-75806000D01*
X100500500Y-72948800D01*
X135055165Y-72948800D01*
X135073225Y-73085982D01*
X135126174Y-73213814D01*
X135126176Y-73213818D01*
X135210409Y-73323591D01*
X135320182Y-73407824D01*
X135448017Y-73460774D01*
X135488469Y-73466099D01*
X135520947Y-73484850D01*
X135530654Y-73521075D01*
X135512365Y-73659999D01*
X135530654Y-73798923D01*
X135520947Y-73835149D01*
X135488470Y-73853899D01*
X135448017Y-73859226D01*
X135448014Y-73859226D01*
X135448014Y-73859227D01*
X135448013Y-73859227D01*
X135320187Y-73912173D01*
X135320182Y-73912176D01*
X135210409Y-73996408D01*
X135210408Y-73996409D01*
X135126176Y-74106182D01*
X135126173Y-74106187D01*
X135073225Y-74234017D01*
X135055165Y-74371200D01*
X135073225Y-74508382D01*
X135126174Y-74636214D01*
X135126176Y-74636218D01*
X135210409Y-74745991D01*
X135320182Y-74830224D01*
X135448017Y-74883174D01*
X135488469Y-74888499D01*
X135520947Y-74907250D01*
X135530654Y-74943475D01*
X135512365Y-75082399D01*
X135530654Y-75221323D01*
X135520947Y-75257549D01*
X135488470Y-75276299D01*
X135448017Y-75281626D01*
X135448014Y-75281626D01*
X135448014Y-75281627D01*
X135448013Y-75281627D01*
X135320187Y-75334573D01*
X135320182Y-75334576D01*
X135210409Y-75418808D01*
X135210408Y-75418809D01*
X135126176Y-75528582D01*
X135126173Y-75528587D01*
X135073225Y-75656417D01*
X135055165Y-75793600D01*
X135073225Y-75930782D01*
X135126174Y-76058614D01*
X135126176Y-76058618D01*
X135210409Y-76168391D01*
X135320182Y-76252624D01*
X135448017Y-76305574D01*
X135585200Y-76323635D01*
X135722383Y-76305574D01*
X135850218Y-76252624D01*
X135959991Y-76168391D01*
X136003527Y-76111654D01*
X136036005Y-76092904D01*
X136072230Y-76102611D01*
X136081271Y-76111652D01*
X136124809Y-76168391D01*
X136234582Y-76252624D01*
X136362417Y-76305574D01*
X136499600Y-76323635D01*
X136636783Y-76305574D01*
X136764618Y-76252624D01*
X136874391Y-76168391D01*
X136943326Y-76078553D01*
X136975804Y-76059802D01*
X137012029Y-76069509D01*
X137021072Y-76078552D01*
X137090009Y-76168391D01*
X137199782Y-76252624D01*
X137327617Y-76305574D01*
X137464800Y-76323635D01*
X137601983Y-76305574D01*
X137729818Y-76252624D01*
X137839591Y-76168391D01*
X137923824Y-76058618D01*
X137976774Y-75930783D01*
X137994835Y-75793600D01*
X137976774Y-75656417D01*
X137976545Y-75654676D01*
X137986252Y-75618451D01*
X138018728Y-75599700D01*
X138059183Y-75594374D01*
X138187018Y-75541424D01*
X138296791Y-75457191D01*
X138381024Y-75347418D01*
X138433974Y-75219583D01*
X138452035Y-75082400D01*
X138433974Y-74945217D01*
X138408275Y-74883174D01*
X138381026Y-74817387D01*
X138381023Y-74817382D01*
X138296792Y-74707610D01*
X138187018Y-74623376D01*
X138187014Y-74623374D01*
X138059182Y-74570425D01*
X137968795Y-74558525D01*
X137936316Y-74539773D01*
X137926610Y-74503549D01*
X137944035Y-74371200D01*
X137925974Y-74234017D01*
X137925745Y-74232276D01*
X137935452Y-74196051D01*
X137967928Y-74177300D01*
X138008383Y-74171974D01*
X138136218Y-74119024D01*
X138245991Y-74034791D01*
X138330224Y-73925018D01*
X138383174Y-73797183D01*
X138401235Y-73660000D01*
X138383174Y-73522817D01*
X138357475Y-73460774D01*
X138330226Y-73394987D01*
X138330223Y-73394982D01*
X138245992Y-73285210D01*
X138136218Y-73200976D01*
X138136214Y-73200974D01*
X138008382Y-73148025D01*
X138008383Y-73148025D01*
X137967929Y-73142699D01*
X137935451Y-73123946D01*
X137925745Y-73087722D01*
X137925974Y-73085982D01*
X137944035Y-72948800D01*
X148212365Y-72948800D01*
X148230425Y-73085982D01*
X148283374Y-73213814D01*
X148283376Y-73213818D01*
X148367609Y-73323591D01*
X148477382Y-73407824D01*
X148605217Y-73460774D01*
X148645669Y-73466099D01*
X148678147Y-73484850D01*
X148687854Y-73521075D01*
X148669565Y-73659999D01*
X148687854Y-73798923D01*
X148678147Y-73835149D01*
X148645670Y-73853899D01*
X148605217Y-73859226D01*
X148605214Y-73859226D01*
X148605214Y-73859227D01*
X148605213Y-73859227D01*
X148477387Y-73912173D01*
X148477382Y-73912176D01*
X148367609Y-73996408D01*
X148367608Y-73996409D01*
X148283376Y-74106182D01*
X148283373Y-74106187D01*
X148230425Y-74234017D01*
X148212365Y-74371200D01*
X148230425Y-74508382D01*
X148283374Y-74636214D01*
X148283376Y-74636218D01*
X148367609Y-74745991D01*
X148477382Y-74830224D01*
X148605217Y-74883174D01*
X148645669Y-74888499D01*
X148678147Y-74907250D01*
X148687854Y-74943475D01*
X148669565Y-75082399D01*
X148687854Y-75221323D01*
X148678147Y-75257549D01*
X148645670Y-75276299D01*
X148605217Y-75281626D01*
X148605214Y-75281626D01*
X148605214Y-75281627D01*
X148605213Y-75281627D01*
X148477387Y-75334573D01*
X148477382Y-75334576D01*
X148367609Y-75418808D01*
X148367608Y-75418809D01*
X148283376Y-75528582D01*
X148283373Y-75528587D01*
X148230425Y-75656417D01*
X148212365Y-75793600D01*
X148230425Y-75930782D01*
X148283374Y-76058614D01*
X148283376Y-76058618D01*
X148367609Y-76168391D01*
X148477382Y-76252624D01*
X148605217Y-76305574D01*
X148742400Y-76323635D01*
X148879583Y-76305574D01*
X149007418Y-76252624D01*
X149117191Y-76168391D01*
X149160727Y-76111654D01*
X149193205Y-76092904D01*
X149229430Y-76102611D01*
X149238471Y-76111652D01*
X149282009Y-76168391D01*
X149391782Y-76252624D01*
X149519617Y-76305574D01*
X149656800Y-76323635D01*
X149793983Y-76305574D01*
X149921818Y-76252624D01*
X150031591Y-76168391D01*
X150100526Y-76078553D01*
X150133004Y-76059802D01*
X150169229Y-76069509D01*
X150178272Y-76078552D01*
X150247209Y-76168391D01*
X150356982Y-76252624D01*
X150484817Y-76305574D01*
X150622000Y-76323635D01*
X150759183Y-76305574D01*
X150887018Y-76252624D01*
X150996791Y-76168391D01*
X151081024Y-76058618D01*
X151133974Y-75930783D01*
X151152035Y-75793600D01*
X151133974Y-75656417D01*
X151133745Y-75654676D01*
X151143452Y-75618451D01*
X151175928Y-75599700D01*
X151216383Y-75594374D01*
X151344218Y-75541424D01*
X151453991Y-75457191D01*
X151538224Y-75347418D01*
X151591174Y-75219583D01*
X151609235Y-75082400D01*
X151591174Y-74945217D01*
X151565475Y-74883174D01*
X151538226Y-74817387D01*
X151538223Y-74817382D01*
X151453992Y-74707610D01*
X151344218Y-74623376D01*
X151344214Y-74623374D01*
X151216382Y-74570425D01*
X151125995Y-74558525D01*
X151093516Y-74539773D01*
X151083810Y-74503549D01*
X151101235Y-74371200D01*
X151083174Y-74234017D01*
X151082945Y-74232276D01*
X151092652Y-74196051D01*
X151125128Y-74177300D01*
X151165583Y-74171974D01*
X151293418Y-74119024D01*
X151403191Y-74034791D01*
X151487424Y-73925018D01*
X151540374Y-73797183D01*
X151558435Y-73660000D01*
X151540374Y-73522817D01*
X151514675Y-73460774D01*
X151487426Y-73394987D01*
X151487423Y-73394982D01*
X151403192Y-73285210D01*
X151293418Y-73200976D01*
X151293414Y-73200974D01*
X151165582Y-73148025D01*
X151165583Y-73148025D01*
X151125129Y-73142699D01*
X151092651Y-73123946D01*
X151082945Y-73087722D01*
X151083174Y-73085982D01*
X151101235Y-72948800D01*
X151083174Y-72811617D01*
X151030224Y-72683783D01*
X150945991Y-72574009D01*
X150836218Y-72489776D01*
X150836214Y-72489774D01*
X150708382Y-72436825D01*
X150571200Y-72418765D01*
X150434017Y-72436825D01*
X150306187Y-72489773D01*
X150306182Y-72489776D01*
X150196410Y-72574007D01*
X150152874Y-72630744D01*
X150120395Y-72649495D01*
X150084170Y-72639788D01*
X150075126Y-72630744D01*
X150071334Y-72625803D01*
X150031591Y-72574009D01*
X149921818Y-72489776D01*
X149921814Y-72489774D01*
X149793982Y-72436825D01*
X149656800Y-72418765D01*
X149519617Y-72436825D01*
X149391787Y-72489773D01*
X149391782Y-72489776D01*
X149282010Y-72574007D01*
X149238474Y-72630744D01*
X149205995Y-72649495D01*
X149169770Y-72639788D01*
X149160726Y-72630744D01*
X149156934Y-72625803D01*
X149117191Y-72574009D01*
X149007418Y-72489776D01*
X149007414Y-72489774D01*
X148879582Y-72436825D01*
X148742400Y-72418765D01*
X148605217Y-72436825D01*
X148477387Y-72489773D01*
X148477382Y-72489776D01*
X148367609Y-72574008D01*
X148367608Y-72574009D01*
X148283376Y-72683782D01*
X148283373Y-72683787D01*
X148230425Y-72811617D01*
X148212365Y-72948800D01*
X137944035Y-72948800D01*
X137925974Y-72811617D01*
X137873024Y-72683783D01*
X137788791Y-72574009D01*
X137679018Y-72489776D01*
X137679014Y-72489774D01*
X137551182Y-72436825D01*
X137414000Y-72418765D01*
X137276817Y-72436825D01*
X137148987Y-72489773D01*
X137148982Y-72489776D01*
X137039210Y-72574007D01*
X136995674Y-72630744D01*
X136963195Y-72649495D01*
X136926970Y-72639788D01*
X136917926Y-72630744D01*
X136914134Y-72625803D01*
X136874391Y-72574009D01*
X136764618Y-72489776D01*
X136764614Y-72489774D01*
X136636782Y-72436825D01*
X136499600Y-72418765D01*
X136362417Y-72436825D01*
X136234587Y-72489773D01*
X136234582Y-72489776D01*
X136124810Y-72574007D01*
X136081274Y-72630744D01*
X136048795Y-72649495D01*
X136012570Y-72639788D01*
X136003526Y-72630744D01*
X135999734Y-72625803D01*
X135959991Y-72574009D01*
X135850218Y-72489776D01*
X135850214Y-72489774D01*
X135722382Y-72436825D01*
X135585200Y-72418765D01*
X135448017Y-72436825D01*
X135320187Y-72489773D01*
X135320182Y-72489776D01*
X135210409Y-72574008D01*
X135210408Y-72574009D01*
X135126176Y-72683782D01*
X135126173Y-72683787D01*
X135073225Y-72811617D01*
X135055165Y-72948800D01*
X100500500Y-72948800D01*
X100500500Y-66029319D01*
X100514852Y-65994671D01*
X100549500Y-65980319D01*
X100549730Y-65980320D01*
X102763177Y-65990713D01*
X102763275Y-65990713D01*
X102763381Y-65990713D01*
X102763611Y-65990714D01*
X102771998Y-65990635D01*
X102881851Y-65967461D01*
X102916499Y-65953109D01*
X102929405Y-65947411D01*
X103020538Y-65881841D01*
X103081831Y-65787777D01*
X103084246Y-65781945D01*
X103110763Y-65755426D01*
X103135909Y-65752114D01*
X103174800Y-65757235D01*
G37*
%TD.AperFunction*%
%TD*%
%TA.AperFunction,Conductor*%
%TO.N,24VDC*%
G36*
X153001748Y-50500625D02*
G01*
X153209905Y-50515513D01*
X153216825Y-50516508D01*
X153419029Y-50560494D01*
X153425736Y-50562462D01*
X153619641Y-50634785D01*
X153625992Y-50637687D01*
X153807622Y-50736864D01*
X153813488Y-50740634D01*
X153979159Y-50864654D01*
X153984442Y-50869232D01*
X154130767Y-51015557D01*
X154135345Y-51020840D01*
X154259363Y-51186508D01*
X154263140Y-51192385D01*
X154362310Y-51374003D01*
X154365215Y-51380362D01*
X154437536Y-51574262D01*
X154439505Y-51580970D01*
X154483491Y-51783174D01*
X154484486Y-51790094D01*
X154499375Y-51998252D01*
X154499500Y-52001748D01*
X154499500Y-69995288D01*
X154485148Y-70029936D01*
X154450641Y-70044288D01*
X144571837Y-70072757D01*
X144537148Y-70058505D01*
X144527287Y-70044465D01*
X144473569Y-69929267D01*
X144473561Y-69929255D01*
X144343051Y-69742866D01*
X144343045Y-69742859D01*
X144182140Y-69581954D01*
X144182133Y-69581948D01*
X143995744Y-69451438D01*
X143995732Y-69451430D01*
X143789493Y-69355259D01*
X143789488Y-69355258D01*
X143569700Y-69296366D01*
X143569694Y-69296365D01*
X143343000Y-69276532D01*
X143116305Y-69296365D01*
X143116299Y-69296366D01*
X142896511Y-69355258D01*
X142896506Y-69355259D01*
X142690267Y-69451430D01*
X142690255Y-69451438D01*
X142503866Y-69581948D01*
X142503859Y-69581954D01*
X142342954Y-69742859D01*
X142342948Y-69742866D01*
X142212438Y-69929255D01*
X142212430Y-69929267D01*
X142155406Y-70051557D01*
X142127756Y-70076894D01*
X142111138Y-70079849D01*
X124933022Y-70129354D01*
X124904338Y-70120182D01*
X121942477Y-67997515D01*
X121922674Y-67965666D01*
X121931192Y-67929144D01*
X121932693Y-67927157D01*
X122034815Y-67799102D01*
X122169743Y-67565398D01*
X122268334Y-67314195D01*
X122328383Y-67051103D01*
X122348549Y-66782000D01*
X122328383Y-66512897D01*
X122268334Y-66249805D01*
X122169743Y-65998602D01*
X122082186Y-65846947D01*
X122034818Y-65764902D01*
X122034815Y-65764898D01*
X121866565Y-65553919D01*
X121866560Y-65553914D01*
X121695094Y-65394817D01*
X121668741Y-65370365D01*
X121601946Y-65324825D01*
X121445772Y-65218347D01*
X121202647Y-65101264D01*
X121202634Y-65101259D01*
X120982310Y-65033299D01*
X120944772Y-65021720D01*
X120677929Y-64981500D01*
X120408071Y-64981500D01*
X120141228Y-65021720D01*
X120141225Y-65021721D01*
X119883365Y-65101259D01*
X119883352Y-65101264D01*
X119640228Y-65218347D01*
X119417259Y-65370364D01*
X119417257Y-65370366D01*
X119219439Y-65553914D01*
X119219434Y-65553919D01*
X119051186Y-65764895D01*
X119051185Y-65764897D01*
X119012663Y-65831619D01*
X118982910Y-65854449D01*
X118945728Y-65849554D01*
X118941685Y-65846947D01*
X118821199Y-65760599D01*
X105448427Y-65697815D01*
X105413846Y-65683301D01*
X105399658Y-65648586D01*
X105414172Y-65614005D01*
X105418816Y-65609951D01*
X105429191Y-65601991D01*
X105513424Y-65492218D01*
X105566374Y-65364383D01*
X105584435Y-65227200D01*
X105567855Y-65101264D01*
X105566145Y-65088276D01*
X105575852Y-65052051D01*
X105608328Y-65033300D01*
X105648783Y-65027974D01*
X105776618Y-64975024D01*
X105886391Y-64890791D01*
X105970624Y-64781018D01*
X106023574Y-64653183D01*
X106041635Y-64516000D01*
X106023574Y-64378817D01*
X105997875Y-64316774D01*
X105970626Y-64250987D01*
X105970623Y-64250982D01*
X105886392Y-64141210D01*
X105776618Y-64056976D01*
X105776614Y-64056974D01*
X105648782Y-64004025D01*
X105558395Y-63992125D01*
X105525916Y-63973373D01*
X105516210Y-63937149D01*
X105533635Y-63804800D01*
X105515574Y-63667617D01*
X105515345Y-63665876D01*
X105525052Y-63629651D01*
X105557528Y-63610900D01*
X105597983Y-63605574D01*
X105725818Y-63552624D01*
X105835591Y-63468391D01*
X105919824Y-63358618D01*
X105972774Y-63230783D01*
X105990835Y-63093600D01*
X105972774Y-62956417D01*
X105945429Y-62890399D01*
X105919826Y-62828587D01*
X105919823Y-62828582D01*
X105835592Y-62718810D01*
X105725818Y-62634576D01*
X105725814Y-62634574D01*
X105597982Y-62581625D01*
X105597983Y-62581625D01*
X105557529Y-62576299D01*
X105525051Y-62557546D01*
X105515345Y-62521322D01*
X105525496Y-62444218D01*
X105533635Y-62382400D01*
X105515574Y-62245217D01*
X105462624Y-62117383D01*
X105378391Y-62007609D01*
X105268618Y-61923376D01*
X105268614Y-61923374D01*
X105140782Y-61870425D01*
X105003600Y-61852365D01*
X104866417Y-61870425D01*
X104738587Y-61923373D01*
X104738582Y-61923376D01*
X104628810Y-62007607D01*
X104585274Y-62064344D01*
X104552795Y-62083095D01*
X104516570Y-62073388D01*
X104507526Y-62064344D01*
X104503734Y-62059403D01*
X104463991Y-62007609D01*
X104354218Y-61923376D01*
X104354214Y-61923374D01*
X104226382Y-61870425D01*
X104089200Y-61852365D01*
X103952017Y-61870425D01*
X103824187Y-61923373D01*
X103824182Y-61923376D01*
X103714410Y-62007607D01*
X103670874Y-62064344D01*
X103638395Y-62083095D01*
X103602170Y-62073388D01*
X103593126Y-62064344D01*
X103589334Y-62059403D01*
X103549591Y-62007609D01*
X103439818Y-61923376D01*
X103439814Y-61923374D01*
X103311982Y-61870425D01*
X103174800Y-61852365D01*
X103037617Y-61870425D01*
X102909787Y-61923373D01*
X102909782Y-61923376D01*
X102800009Y-62007608D01*
X102800008Y-62007609D01*
X102715776Y-62117382D01*
X102715773Y-62117387D01*
X102662825Y-62245217D01*
X102644765Y-62382400D01*
X102662825Y-62519582D01*
X102711968Y-62638225D01*
X102715776Y-62647418D01*
X102800009Y-62757191D01*
X102909782Y-62841424D01*
X103037617Y-62894374D01*
X103078069Y-62899699D01*
X103110547Y-62918450D01*
X103120254Y-62954675D01*
X103101965Y-63093599D01*
X103120254Y-63232523D01*
X103110547Y-63268749D01*
X103078070Y-63287499D01*
X103037617Y-63292826D01*
X103037614Y-63292826D01*
X103037614Y-63292827D01*
X103037613Y-63292827D01*
X102909787Y-63345773D01*
X102909782Y-63345776D01*
X102800009Y-63430008D01*
X102800008Y-63430009D01*
X102715776Y-63539782D01*
X102715773Y-63539787D01*
X102662825Y-63667617D01*
X102644765Y-63804800D01*
X102662825Y-63941982D01*
X102711968Y-64060625D01*
X102715776Y-64069818D01*
X102800009Y-64179591D01*
X102909782Y-64263824D01*
X103037617Y-64316774D01*
X103078069Y-64322099D01*
X103110547Y-64340850D01*
X103120254Y-64377075D01*
X103101965Y-64515999D01*
X103120254Y-64654923D01*
X103110547Y-64691149D01*
X103078070Y-64709899D01*
X103037617Y-64715226D01*
X103037614Y-64715226D01*
X103037614Y-64715227D01*
X103037613Y-64715227D01*
X102909787Y-64768173D01*
X102909782Y-64768176D01*
X102800009Y-64852408D01*
X102800008Y-64852409D01*
X102715776Y-64962182D01*
X102715773Y-64962187D01*
X102662825Y-65090017D01*
X102644765Y-65227200D01*
X102662825Y-65364382D01*
X102715774Y-65492214D01*
X102715776Y-65492218D01*
X102800009Y-65601991D01*
X102800010Y-65601992D01*
X102801964Y-65604538D01*
X102801093Y-65605205D01*
X102813939Y-65636217D01*
X102799587Y-65670865D01*
X102764939Y-65685217D01*
X102764709Y-65685216D01*
X100549270Y-65674814D01*
X100514689Y-65660300D01*
X100500500Y-65625815D01*
X100500500Y-60756800D01*
X110264765Y-60756800D01*
X110282825Y-60893982D01*
X110335774Y-61021814D01*
X110335776Y-61021818D01*
X110420009Y-61131591D01*
X110529782Y-61215824D01*
X110657617Y-61268774D01*
X110698069Y-61274099D01*
X110730547Y-61292850D01*
X110740254Y-61329075D01*
X110721965Y-61467999D01*
X110740254Y-61606923D01*
X110730547Y-61643149D01*
X110698070Y-61661899D01*
X110657617Y-61667226D01*
X110657614Y-61667226D01*
X110657614Y-61667227D01*
X110657613Y-61667227D01*
X110529787Y-61720173D01*
X110529782Y-61720176D01*
X110420009Y-61804408D01*
X110420008Y-61804409D01*
X110335776Y-61914182D01*
X110335773Y-61914187D01*
X110282825Y-62042017D01*
X110264765Y-62179200D01*
X110282825Y-62316382D01*
X110335774Y-62444214D01*
X110335776Y-62444218D01*
X110420009Y-62553991D01*
X110529782Y-62638224D01*
X110657617Y-62691174D01*
X110698069Y-62696499D01*
X110730547Y-62715250D01*
X110740254Y-62751475D01*
X110721965Y-62890399D01*
X110740254Y-63029323D01*
X110730547Y-63065549D01*
X110698070Y-63084299D01*
X110657617Y-63089626D01*
X110657614Y-63089626D01*
X110657614Y-63089627D01*
X110657613Y-63089627D01*
X110529787Y-63142573D01*
X110529782Y-63142576D01*
X110420009Y-63226808D01*
X110420008Y-63226809D01*
X110335776Y-63336582D01*
X110335773Y-63336587D01*
X110282825Y-63464417D01*
X110264765Y-63601600D01*
X110282825Y-63738782D01*
X110335774Y-63866614D01*
X110335776Y-63866618D01*
X110420009Y-63976391D01*
X110529782Y-64060624D01*
X110657617Y-64113574D01*
X110794800Y-64131635D01*
X110931983Y-64113574D01*
X111059818Y-64060624D01*
X111169591Y-63976391D01*
X111213127Y-63919654D01*
X111245605Y-63900904D01*
X111281830Y-63910611D01*
X111290871Y-63919652D01*
X111334409Y-63976391D01*
X111444182Y-64060624D01*
X111572017Y-64113574D01*
X111709200Y-64131635D01*
X111846383Y-64113574D01*
X111974218Y-64060624D01*
X112083991Y-63976391D01*
X112152926Y-63886553D01*
X112185404Y-63867802D01*
X112221629Y-63877509D01*
X112230672Y-63886552D01*
X112238765Y-63897099D01*
X112293337Y-63968218D01*
X112299609Y-63976391D01*
X112409382Y-64060624D01*
X112537217Y-64113574D01*
X112674400Y-64131635D01*
X112811583Y-64113574D01*
X112939418Y-64060624D01*
X113049191Y-63976391D01*
X113133424Y-63866618D01*
X113186374Y-63738783D01*
X113191059Y-63703200D01*
X136680765Y-63703200D01*
X136698825Y-63840382D01*
X136751774Y-63968214D01*
X136751776Y-63968218D01*
X136836009Y-64077991D01*
X136945782Y-64162224D01*
X137073617Y-64215174D01*
X137114069Y-64220499D01*
X137146547Y-64239250D01*
X137156254Y-64275475D01*
X137137965Y-64414399D01*
X137156254Y-64553323D01*
X137146547Y-64589549D01*
X137114070Y-64608299D01*
X137073617Y-64613626D01*
X137073614Y-64613626D01*
X137073614Y-64613627D01*
X137073613Y-64613627D01*
X136945787Y-64666573D01*
X136945782Y-64666576D01*
X136836009Y-64750808D01*
X136836008Y-64750809D01*
X136751776Y-64860582D01*
X136751773Y-64860587D01*
X136698825Y-64988417D01*
X136680765Y-65125600D01*
X136698825Y-65262782D01*
X136751774Y-65390614D01*
X136751776Y-65390618D01*
X136836009Y-65500391D01*
X136945782Y-65584624D01*
X137073617Y-65637574D01*
X137114069Y-65642899D01*
X137146547Y-65661650D01*
X137156254Y-65697875D01*
X137137965Y-65836799D01*
X137156254Y-65975723D01*
X137146547Y-66011949D01*
X137114070Y-66030699D01*
X137073617Y-66036026D01*
X137073614Y-66036026D01*
X137073614Y-66036027D01*
X137073613Y-66036027D01*
X136945787Y-66088973D01*
X136945782Y-66088976D01*
X136836009Y-66173208D01*
X136836008Y-66173209D01*
X136751776Y-66282982D01*
X136751773Y-66282987D01*
X136698825Y-66410817D01*
X136680765Y-66548000D01*
X136698825Y-66685182D01*
X136738928Y-66782000D01*
X136751776Y-66813018D01*
X136836009Y-66922791D01*
X136945782Y-67007024D01*
X137073617Y-67059974D01*
X137210800Y-67078035D01*
X137347983Y-67059974D01*
X137475818Y-67007024D01*
X137585591Y-66922791D01*
X137629127Y-66866054D01*
X137661605Y-66847304D01*
X137697830Y-66857011D01*
X137706871Y-66866052D01*
X137750409Y-66922791D01*
X137860182Y-67007024D01*
X137988017Y-67059974D01*
X138125200Y-67078035D01*
X138262383Y-67059974D01*
X138390218Y-67007024D01*
X138499991Y-66922791D01*
X138568926Y-66832953D01*
X138601404Y-66814202D01*
X138637629Y-66823909D01*
X138646672Y-66832952D01*
X138715609Y-66922791D01*
X138825382Y-67007024D01*
X138953217Y-67059974D01*
X139090400Y-67078035D01*
X139227583Y-67059974D01*
X139355418Y-67007024D01*
X139465191Y-66922791D01*
X139549424Y-66813018D01*
X139602374Y-66685183D01*
X139620435Y-66548000D01*
X139602374Y-66410817D01*
X139602145Y-66409076D01*
X139611852Y-66372851D01*
X139644328Y-66354100D01*
X139684783Y-66348774D01*
X139812618Y-66295824D01*
X139922391Y-66211591D01*
X140006624Y-66101818D01*
X140059574Y-65973983D01*
X140077635Y-65836800D01*
X140059574Y-65699617D01*
X140055195Y-65689045D01*
X140006626Y-65571787D01*
X140006623Y-65571782D01*
X139992912Y-65553914D01*
X139976097Y-65532000D01*
X148212365Y-65532000D01*
X148230425Y-65669182D01*
X148283374Y-65797014D01*
X148283376Y-65797018D01*
X148367609Y-65906791D01*
X148477382Y-65991024D01*
X148605217Y-66043974D01*
X148645669Y-66049299D01*
X148678147Y-66068050D01*
X148687854Y-66104275D01*
X148669565Y-66243199D01*
X148687854Y-66382123D01*
X148678147Y-66418349D01*
X148645670Y-66437099D01*
X148605217Y-66442426D01*
X148605214Y-66442426D01*
X148605214Y-66442427D01*
X148605213Y-66442427D01*
X148477387Y-66495373D01*
X148477382Y-66495376D01*
X148367609Y-66579608D01*
X148367608Y-66579609D01*
X148283376Y-66689382D01*
X148283373Y-66689387D01*
X148230425Y-66817217D01*
X148212365Y-66954400D01*
X148230425Y-67091582D01*
X148283374Y-67219414D01*
X148283376Y-67219418D01*
X148367609Y-67329191D01*
X148477382Y-67413424D01*
X148605217Y-67466374D01*
X148645669Y-67471699D01*
X148678147Y-67490450D01*
X148687854Y-67526675D01*
X148669565Y-67665599D01*
X148687854Y-67804523D01*
X148678147Y-67840749D01*
X148645670Y-67859499D01*
X148605217Y-67864826D01*
X148605214Y-67864826D01*
X148605214Y-67864827D01*
X148605213Y-67864827D01*
X148477387Y-67917773D01*
X148477382Y-67917776D01*
X148367609Y-68002008D01*
X148367608Y-68002009D01*
X148283376Y-68111782D01*
X148283373Y-68111787D01*
X148230425Y-68239617D01*
X148212365Y-68376800D01*
X148230425Y-68513982D01*
X148283374Y-68641814D01*
X148283376Y-68641818D01*
X148367609Y-68751591D01*
X148477382Y-68835824D01*
X148605217Y-68888774D01*
X148742400Y-68906835D01*
X148879583Y-68888774D01*
X149007418Y-68835824D01*
X149117191Y-68751591D01*
X149160727Y-68694854D01*
X149193205Y-68676104D01*
X149229430Y-68685811D01*
X149238471Y-68694852D01*
X149282009Y-68751591D01*
X149391782Y-68835824D01*
X149519617Y-68888774D01*
X149656800Y-68906835D01*
X149793983Y-68888774D01*
X149921818Y-68835824D01*
X150031591Y-68751591D01*
X150100526Y-68661753D01*
X150133004Y-68643002D01*
X150169229Y-68652709D01*
X150178272Y-68661752D01*
X150247209Y-68751591D01*
X150356982Y-68835824D01*
X150484817Y-68888774D01*
X150622000Y-68906835D01*
X150759183Y-68888774D01*
X150887018Y-68835824D01*
X150996791Y-68751591D01*
X151081024Y-68641818D01*
X151133974Y-68513983D01*
X151152035Y-68376800D01*
X151133974Y-68239617D01*
X151133745Y-68237876D01*
X151143452Y-68201651D01*
X151175928Y-68182900D01*
X151216383Y-68177574D01*
X151344218Y-68124624D01*
X151453991Y-68040391D01*
X151538224Y-67930618D01*
X151591174Y-67802783D01*
X151609235Y-67665600D01*
X151591174Y-67528417D01*
X151565475Y-67466374D01*
X151538226Y-67400587D01*
X151538223Y-67400582D01*
X151453992Y-67290810D01*
X151344218Y-67206576D01*
X151344214Y-67206574D01*
X151216382Y-67153625D01*
X151125995Y-67141725D01*
X151093516Y-67122973D01*
X151083810Y-67086749D01*
X151101235Y-66954400D01*
X151083174Y-66817217D01*
X151082945Y-66815476D01*
X151092652Y-66779251D01*
X151125128Y-66760500D01*
X151165583Y-66755174D01*
X151293418Y-66702224D01*
X151403191Y-66617991D01*
X151487424Y-66508218D01*
X151540374Y-66380383D01*
X151558435Y-66243200D01*
X151540374Y-66106017D01*
X151538633Y-66101814D01*
X151487426Y-65978187D01*
X151487423Y-65978182D01*
X151403192Y-65868410D01*
X151375221Y-65846947D01*
X151293418Y-65784176D01*
X151293414Y-65784174D01*
X151165582Y-65731225D01*
X151165583Y-65731225D01*
X151125129Y-65725899D01*
X151092651Y-65707146D01*
X151082945Y-65670922D01*
X151084166Y-65661650D01*
X151101235Y-65532000D01*
X151083174Y-65394817D01*
X151081433Y-65390614D01*
X151030226Y-65266987D01*
X151030223Y-65266982D01*
X150999696Y-65227199D01*
X150945991Y-65157209D01*
X150836218Y-65072976D01*
X150836214Y-65072974D01*
X150708382Y-65020025D01*
X150571200Y-65001965D01*
X150434017Y-65020025D01*
X150306187Y-65072973D01*
X150306182Y-65072976D01*
X150196410Y-65157207D01*
X150152874Y-65213944D01*
X150120395Y-65232695D01*
X150084170Y-65222988D01*
X150075126Y-65213944D01*
X150071334Y-65209003D01*
X150031591Y-65157209D01*
X149921818Y-65072976D01*
X149921814Y-65072974D01*
X149793982Y-65020025D01*
X149656800Y-65001965D01*
X149519617Y-65020025D01*
X149391787Y-65072973D01*
X149391782Y-65072976D01*
X149282010Y-65157207D01*
X149238474Y-65213944D01*
X149205995Y-65232695D01*
X149169770Y-65222988D01*
X149160726Y-65213944D01*
X149156934Y-65209003D01*
X149117191Y-65157209D01*
X149007418Y-65072976D01*
X149007414Y-65072974D01*
X148879582Y-65020025D01*
X148742400Y-65001965D01*
X148605217Y-65020025D01*
X148477387Y-65072973D01*
X148477382Y-65072976D01*
X148367609Y-65157208D01*
X148367608Y-65157209D01*
X148283376Y-65266982D01*
X148283373Y-65266987D01*
X148230425Y-65394817D01*
X148212365Y-65532000D01*
X139976097Y-65532000D01*
X139922391Y-65462009D01*
X139812618Y-65377776D01*
X139812614Y-65377774D01*
X139684782Y-65324825D01*
X139594395Y-65312925D01*
X139561916Y-65294173D01*
X139552210Y-65257949D01*
X139569635Y-65125600D01*
X139551574Y-64988417D01*
X139551345Y-64986676D01*
X139561052Y-64950451D01*
X139593528Y-64931700D01*
X139633983Y-64926374D01*
X139761818Y-64873424D01*
X139871591Y-64789191D01*
X139955824Y-64679418D01*
X140008774Y-64551583D01*
X140026835Y-64414400D01*
X140008774Y-64277217D01*
X140003227Y-64263825D01*
X139955826Y-64149387D01*
X139955823Y-64149382D01*
X139949552Y-64141210D01*
X139887717Y-64060625D01*
X139871592Y-64039610D01*
X139809709Y-63992125D01*
X139761818Y-63955376D01*
X139761814Y-63955374D01*
X139633982Y-63902425D01*
X139633983Y-63902425D01*
X139593529Y-63897099D01*
X139561051Y-63878346D01*
X139551345Y-63842122D01*
X139551574Y-63840382D01*
X139569635Y-63703200D01*
X139551574Y-63566017D01*
X139546027Y-63552625D01*
X139498626Y-63438187D01*
X139498623Y-63438182D01*
X139489621Y-63426451D01*
X139430517Y-63349425D01*
X139414392Y-63328410D01*
X139414389Y-63328408D01*
X139304618Y-63244176D01*
X139304614Y-63244174D01*
X139176782Y-63191225D01*
X139039600Y-63173165D01*
X138902417Y-63191225D01*
X138774587Y-63244173D01*
X138774582Y-63244176D01*
X138664810Y-63328407D01*
X138621274Y-63385144D01*
X138588795Y-63403895D01*
X138552570Y-63394188D01*
X138543526Y-63385144D01*
X138539734Y-63380203D01*
X138499991Y-63328409D01*
X138390218Y-63244176D01*
X138390214Y-63244174D01*
X138262382Y-63191225D01*
X138125200Y-63173165D01*
X137988017Y-63191225D01*
X137860187Y-63244173D01*
X137860182Y-63244176D01*
X137750410Y-63328407D01*
X137706874Y-63385144D01*
X137674395Y-63403895D01*
X137638170Y-63394188D01*
X137629126Y-63385144D01*
X137625334Y-63380203D01*
X137585591Y-63328409D01*
X137475818Y-63244176D01*
X137475814Y-63244174D01*
X137347982Y-63191225D01*
X137210800Y-63173165D01*
X137073617Y-63191225D01*
X136945787Y-63244173D01*
X136945782Y-63244176D01*
X136836009Y-63328408D01*
X136836008Y-63328409D01*
X136751776Y-63438182D01*
X136751773Y-63438187D01*
X136698825Y-63566017D01*
X136680765Y-63703200D01*
X113191059Y-63703200D01*
X113204435Y-63601600D01*
X113186374Y-63464417D01*
X113186145Y-63462676D01*
X113195852Y-63426451D01*
X113228328Y-63407700D01*
X113268783Y-63402374D01*
X113396618Y-63349424D01*
X113506391Y-63265191D01*
X113590624Y-63155418D01*
X113643574Y-63027583D01*
X113661635Y-62890400D01*
X113643574Y-62753217D01*
X113599751Y-62647418D01*
X113590626Y-62625387D01*
X113590623Y-62625382D01*
X113506392Y-62515610D01*
X113396618Y-62431376D01*
X113396614Y-62431374D01*
X113268782Y-62378425D01*
X113178395Y-62366525D01*
X113145916Y-62347773D01*
X113136210Y-62311549D01*
X113153635Y-62179200D01*
X113138954Y-62067696D01*
X113135345Y-62040276D01*
X113145052Y-62004051D01*
X113177528Y-61985300D01*
X113217983Y-61979974D01*
X113345818Y-61927024D01*
X113455591Y-61842791D01*
X113539824Y-61733018D01*
X113592774Y-61605183D01*
X113610835Y-61468000D01*
X113592774Y-61330817D01*
X113567075Y-61268774D01*
X113539826Y-61202987D01*
X113539823Y-61202982D01*
X113455592Y-61093210D01*
X113345818Y-61008976D01*
X113345814Y-61008974D01*
X113217982Y-60956025D01*
X113217983Y-60956025D01*
X113177529Y-60950699D01*
X113145051Y-60931946D01*
X113135345Y-60895722D01*
X113135574Y-60893982D01*
X113153635Y-60756800D01*
X113135574Y-60619617D01*
X113082624Y-60491783D01*
X112998391Y-60382009D01*
X112888618Y-60297776D01*
X112888614Y-60297774D01*
X112760782Y-60244825D01*
X112623600Y-60226765D01*
X112486417Y-60244825D01*
X112358587Y-60297773D01*
X112358582Y-60297776D01*
X112248810Y-60382007D01*
X112205274Y-60438744D01*
X112172795Y-60457495D01*
X112136570Y-60447788D01*
X112127526Y-60438744D01*
X112123734Y-60433803D01*
X112083991Y-60382009D01*
X111974218Y-60297776D01*
X111974214Y-60297774D01*
X111846382Y-60244825D01*
X111709200Y-60226765D01*
X111572017Y-60244825D01*
X111444187Y-60297773D01*
X111444182Y-60297776D01*
X111334410Y-60382007D01*
X111290874Y-60438744D01*
X111258395Y-60457495D01*
X111222170Y-60447788D01*
X111213126Y-60438744D01*
X111209334Y-60433803D01*
X111169591Y-60382009D01*
X111059818Y-60297776D01*
X111059814Y-60297774D01*
X110931982Y-60244825D01*
X110794800Y-60226765D01*
X110657617Y-60244825D01*
X110529787Y-60297773D01*
X110529782Y-60297776D01*
X110420009Y-60382008D01*
X110420008Y-60382009D01*
X110335776Y-60491782D01*
X110335773Y-60491787D01*
X110282825Y-60619617D01*
X110264765Y-60756800D01*
X100500500Y-60756800D01*
X100500500Y-55000000D01*
X101394615Y-55000000D01*
X101414140Y-55347685D01*
X101414140Y-55347691D01*
X101414141Y-55347693D01*
X101456539Y-55597234D01*
X101472475Y-55691023D01*
X101568880Y-56025646D01*
X101702140Y-56347365D01*
X101702147Y-56347380D01*
X101870595Y-56652165D01*
X101870600Y-56652172D01*
X102072106Y-56936169D01*
X102072122Y-56936188D01*
X102136103Y-57007782D01*
X102304161Y-57195839D01*
X102359609Y-57245390D01*
X102563811Y-57427877D01*
X102563830Y-57427893D01*
X102847827Y-57629399D01*
X102847834Y-57629404D01*
X102888011Y-57651609D01*
X103152624Y-57797855D01*
X103474356Y-57931121D01*
X103765618Y-58015032D01*
X103808976Y-58027524D01*
X103808977Y-58027524D01*
X103808987Y-58027527D01*
X104152307Y-58085859D01*
X104500000Y-58105385D01*
X104847693Y-58085859D01*
X105191013Y-58027527D01*
X105525644Y-57931121D01*
X105847376Y-57797855D01*
X106152164Y-57629405D01*
X106436176Y-57427888D01*
X106695839Y-57195839D01*
X106927888Y-56936176D01*
X107129405Y-56652164D01*
X107297855Y-56347376D01*
X107431121Y-56025644D01*
X107527527Y-55691013D01*
X107585859Y-55347693D01*
X107605385Y-55000000D01*
X107585859Y-54652307D01*
X107527527Y-54308987D01*
X107431121Y-53974356D01*
X107297855Y-53652624D01*
X107147064Y-53379787D01*
X107129404Y-53347834D01*
X107129399Y-53347827D01*
X107077084Y-53274095D01*
X109805700Y-53274095D01*
X109805700Y-53274096D01*
X109805700Y-53274104D01*
X109805700Y-56453894D01*
X109812003Y-56566154D01*
X109862174Y-56831309D01*
X109862175Y-56831316D01*
X109951297Y-57086012D01*
X109951302Y-57086025D01*
X110030831Y-57236501D01*
X110077399Y-57324613D01*
X110237644Y-57541736D01*
X110237647Y-57541740D01*
X110428460Y-57732553D01*
X110428463Y-57732555D01*
X110645586Y-57892800D01*
X110645590Y-57892802D01*
X110884175Y-58018898D01*
X110962343Y-58046250D01*
X111138883Y-58108024D01*
X111138885Y-58108024D01*
X111138890Y-58108026D01*
X111404043Y-58158196D01*
X111516295Y-58164500D01*
X114696104Y-58164499D01*
X114808357Y-58158196D01*
X115073510Y-58108026D01*
X115081061Y-58105384D01*
X115136863Y-58085858D01*
X115328225Y-58018898D01*
X115566810Y-57892802D01*
X115783937Y-57732555D01*
X115783938Y-57732554D01*
X115783940Y-57732553D01*
X115839759Y-57676734D01*
X135674500Y-57676734D01*
X135674500Y-59366458D01*
X135674501Y-59366468D01*
X135677415Y-59391592D01*
X135722794Y-59494366D01*
X135802233Y-59573805D01*
X135905006Y-59619184D01*
X135905009Y-59619185D01*
X135930135Y-59622100D01*
X137619864Y-59622099D01*
X137644991Y-59619185D01*
X137747765Y-59573806D01*
X137827206Y-59494365D01*
X137872585Y-59391591D01*
X137875500Y-59366465D01*
X137875499Y-58521600D01*
X143289785Y-58521600D01*
X143308602Y-58724679D01*
X143308603Y-58724685D01*
X143364417Y-58920848D01*
X143364420Y-58920855D01*
X143455325Y-59103418D01*
X143455328Y-59103422D01*
X143578233Y-59266176D01*
X143578236Y-59266179D01*
X143728954Y-59403577D01*
X143728955Y-59403578D01*
X143728959Y-59403581D01*
X143902363Y-59510948D01*
X144092544Y-59584624D01*
X144293024Y-59622100D01*
X144293026Y-59622100D01*
X144496974Y-59622100D01*
X144496976Y-59622100D01*
X144697456Y-59584624D01*
X144887637Y-59510948D01*
X145061041Y-59403581D01*
X145211764Y-59266179D01*
X145334673Y-59103421D01*
X145425582Y-58920850D01*
X145481397Y-58724683D01*
X145500215Y-58521600D01*
X145481397Y-58318517D01*
X145425582Y-58122350D01*
X145334673Y-57939779D01*
X145211764Y-57777021D01*
X145101762Y-57676741D01*
X145061045Y-57639622D01*
X145061042Y-57639620D01*
X145061041Y-57639619D01*
X144887637Y-57532252D01*
X144887634Y-57532251D01*
X144887633Y-57532250D01*
X144697462Y-57458578D01*
X144697460Y-57458577D01*
X144697456Y-57458576D01*
X144496976Y-57421100D01*
X144293024Y-57421100D01*
X144092544Y-57458576D01*
X144092540Y-57458577D01*
X144092537Y-57458578D01*
X143902366Y-57532250D01*
X143728954Y-57639622D01*
X143578236Y-57777020D01*
X143578233Y-57777023D01*
X143455328Y-57939777D01*
X143455325Y-57939781D01*
X143364420Y-58122344D01*
X143364417Y-58122351D01*
X143308603Y-58318514D01*
X143308602Y-58318520D01*
X143289785Y-58521600D01*
X137875499Y-58521600D01*
X137875499Y-57676736D01*
X137872585Y-57651609D01*
X137827206Y-57548835D01*
X137827205Y-57548834D01*
X137827205Y-57548833D01*
X137747766Y-57469394D01*
X137747767Y-57469394D01*
X137644993Y-57424015D01*
X137632428Y-57422557D01*
X137619865Y-57421100D01*
X137619863Y-57421100D01*
X135930141Y-57421100D01*
X135930131Y-57421101D01*
X135905007Y-57424015D01*
X135802233Y-57469394D01*
X135722794Y-57548833D01*
X135677415Y-57651606D01*
X135674500Y-57676734D01*
X115839759Y-57676734D01*
X115974753Y-57541740D01*
X115974755Y-57541737D01*
X116135002Y-57324610D01*
X116261098Y-57086025D01*
X116336478Y-56870600D01*
X128400365Y-56870600D01*
X128418425Y-57007782D01*
X128450834Y-57086025D01*
X128471376Y-57135618D01*
X128555609Y-57245391D01*
X128665382Y-57329624D01*
X128793217Y-57382574D01*
X128930400Y-57400635D01*
X129067583Y-57382574D01*
X129195418Y-57329624D01*
X129305191Y-57245391D01*
X129389424Y-57135618D01*
X129442374Y-57007783D01*
X129460435Y-56870600D01*
X129442374Y-56733417D01*
X129389424Y-56605583D01*
X129305191Y-56495809D01*
X129195418Y-56411576D01*
X129195414Y-56411574D01*
X129067582Y-56358625D01*
X128930400Y-56340565D01*
X128793217Y-56358625D01*
X128665387Y-56411573D01*
X128665382Y-56411576D01*
X128555609Y-56495808D01*
X128555608Y-56495809D01*
X128471376Y-56605582D01*
X128471373Y-56605587D01*
X128418425Y-56733417D01*
X128400365Y-56870600D01*
X116336478Y-56870600D01*
X116350226Y-56831310D01*
X116400396Y-56566157D01*
X116406700Y-56453905D01*
X116406699Y-53274096D01*
X116400396Y-53161843D01*
X116350226Y-52896690D01*
X116261098Y-52641975D01*
X116135002Y-52403390D01*
X116135000Y-52403386D01*
X116001425Y-52222400D01*
X132108765Y-52222400D01*
X132126825Y-52359582D01*
X132179774Y-52487414D01*
X132179776Y-52487418D01*
X132264009Y-52597191D01*
X132373782Y-52681424D01*
X132501617Y-52734374D01*
X132542069Y-52739699D01*
X132574547Y-52758450D01*
X132584254Y-52794675D01*
X132565965Y-52933599D01*
X132584254Y-53072523D01*
X132574547Y-53108749D01*
X132542070Y-53127499D01*
X132501617Y-53132826D01*
X132501614Y-53132826D01*
X132501614Y-53132827D01*
X132501613Y-53132827D01*
X132373787Y-53185773D01*
X132373782Y-53185776D01*
X132264009Y-53270008D01*
X132264008Y-53270009D01*
X132179776Y-53379782D01*
X132179773Y-53379787D01*
X132126825Y-53507617D01*
X132108765Y-53644800D01*
X132126825Y-53781982D01*
X132179774Y-53909814D01*
X132179776Y-53909818D01*
X132264009Y-54019591D01*
X132373782Y-54103824D01*
X132501617Y-54156774D01*
X132542069Y-54162099D01*
X132574547Y-54180850D01*
X132584254Y-54217075D01*
X132565965Y-54355999D01*
X132584254Y-54494923D01*
X132574547Y-54531149D01*
X132542070Y-54549899D01*
X132501617Y-54555226D01*
X132501614Y-54555226D01*
X132501614Y-54555227D01*
X132501613Y-54555227D01*
X132373787Y-54608173D01*
X132373782Y-54608176D01*
X132264009Y-54692408D01*
X132264008Y-54692409D01*
X132179776Y-54802182D01*
X132179773Y-54802187D01*
X132126825Y-54930017D01*
X132108765Y-55067200D01*
X132126825Y-55204382D01*
X132179774Y-55332214D01*
X132179776Y-55332218D01*
X132264009Y-55441991D01*
X132373782Y-55526224D01*
X132501617Y-55579174D01*
X132638800Y-55597235D01*
X132775983Y-55579174D01*
X132903818Y-55526224D01*
X133013591Y-55441991D01*
X133057127Y-55385254D01*
X133089605Y-55366504D01*
X133125830Y-55376211D01*
X133134871Y-55385252D01*
X133178409Y-55441991D01*
X133288182Y-55526224D01*
X133416017Y-55579174D01*
X133553200Y-55597235D01*
X133690383Y-55579174D01*
X133818218Y-55526224D01*
X133927991Y-55441991D01*
X133996926Y-55352153D01*
X134029404Y-55333402D01*
X134065629Y-55343109D01*
X134074672Y-55352152D01*
X134143609Y-55441991D01*
X134253382Y-55526224D01*
X134381217Y-55579174D01*
X134518400Y-55597235D01*
X134655583Y-55579174D01*
X134783418Y-55526224D01*
X134893191Y-55441991D01*
X134977424Y-55332218D01*
X135030374Y-55204383D01*
X135048435Y-55067200D01*
X135039588Y-55000000D01*
X146394615Y-55000000D01*
X146414140Y-55347685D01*
X146414140Y-55347691D01*
X146414141Y-55347693D01*
X146456539Y-55597234D01*
X146472475Y-55691023D01*
X146568880Y-56025646D01*
X146702140Y-56347365D01*
X146702147Y-56347380D01*
X146870595Y-56652165D01*
X146870600Y-56652172D01*
X147072106Y-56936169D01*
X147072122Y-56936188D01*
X147136103Y-57007782D01*
X147304161Y-57195839D01*
X147359609Y-57245390D01*
X147563811Y-57427877D01*
X147563830Y-57427893D01*
X147847827Y-57629399D01*
X147847834Y-57629404D01*
X147888011Y-57651609D01*
X148152624Y-57797855D01*
X148474356Y-57931121D01*
X148765618Y-58015032D01*
X148808976Y-58027524D01*
X148808977Y-58027524D01*
X148808987Y-58027527D01*
X149152307Y-58085859D01*
X149500000Y-58105385D01*
X149847693Y-58085859D01*
X150191013Y-58027527D01*
X150525644Y-57931121D01*
X150847376Y-57797855D01*
X151152164Y-57629405D01*
X151436176Y-57427888D01*
X151695839Y-57195839D01*
X151927888Y-56936176D01*
X152129405Y-56652164D01*
X152297855Y-56347376D01*
X152431121Y-56025644D01*
X152527527Y-55691013D01*
X152585859Y-55347693D01*
X152605385Y-55000000D01*
X152585859Y-54652307D01*
X152527527Y-54308987D01*
X152431121Y-53974356D01*
X152297855Y-53652624D01*
X152147064Y-53379787D01*
X152129404Y-53347834D01*
X152129399Y-53347827D01*
X151927893Y-53063830D01*
X151927877Y-53063811D01*
X151778528Y-52896690D01*
X151695839Y-52804161D01*
X151514352Y-52641974D01*
X151436188Y-52572122D01*
X151436169Y-52572106D01*
X151152172Y-52370600D01*
X151152165Y-52370595D01*
X150847380Y-52202147D01*
X150847365Y-52202140D01*
X150525646Y-52068880D01*
X150525647Y-52068880D01*
X150525644Y-52068879D01*
X150416956Y-52037566D01*
X150191023Y-51972475D01*
X150191015Y-51972473D01*
X150191013Y-51972473D01*
X149847693Y-51914141D01*
X149847691Y-51914140D01*
X149847685Y-51914140D01*
X149500000Y-51894615D01*
X149152314Y-51914140D01*
X149152307Y-51914141D01*
X148808987Y-51972473D01*
X148808985Y-51972473D01*
X148808976Y-51972475D01*
X148474353Y-52068880D01*
X148152634Y-52202140D01*
X148152619Y-52202147D01*
X147847834Y-52370595D01*
X147847827Y-52370600D01*
X147563830Y-52572106D01*
X147563811Y-52572122D01*
X147304161Y-52804161D01*
X147072122Y-53063811D01*
X147072106Y-53063830D01*
X146870600Y-53347827D01*
X146870595Y-53347834D01*
X146702147Y-53652619D01*
X146702140Y-53652634D01*
X146568880Y-53974353D01*
X146472475Y-54308976D01*
X146472473Y-54308985D01*
X146472473Y-54308987D01*
X146464485Y-54356000D01*
X146414141Y-54652307D01*
X146414140Y-54652314D01*
X146394615Y-55000000D01*
X135039588Y-55000000D01*
X135030374Y-54930017D01*
X135030145Y-54928276D01*
X135039852Y-54892051D01*
X135072328Y-54873300D01*
X135112783Y-54867974D01*
X135240618Y-54815024D01*
X135350391Y-54730791D01*
X135434624Y-54621018D01*
X135487574Y-54493183D01*
X135505635Y-54356000D01*
X135487574Y-54218817D01*
X135461875Y-54156774D01*
X135434626Y-54090987D01*
X135434623Y-54090982D01*
X135350392Y-53981210D01*
X135240618Y-53896976D01*
X135240614Y-53896974D01*
X135112782Y-53844025D01*
X135022395Y-53832125D01*
X134989916Y-53813373D01*
X134980210Y-53777149D01*
X134997635Y-53644800D01*
X134979574Y-53507617D01*
X134979345Y-53505876D01*
X134989052Y-53469651D01*
X135021528Y-53450900D01*
X135061983Y-53445574D01*
X135189818Y-53392624D01*
X135299591Y-53308391D01*
X135383824Y-53198618D01*
X135436774Y-53070783D01*
X135454835Y-52933600D01*
X135436774Y-52796417D01*
X135411075Y-52734374D01*
X135383826Y-52668587D01*
X135383823Y-52668582D01*
X135299592Y-52558810D01*
X135189818Y-52474576D01*
X135189814Y-52474574D01*
X135061982Y-52421625D01*
X135061983Y-52421625D01*
X135021529Y-52416299D01*
X134989051Y-52397546D01*
X134979345Y-52361322D01*
X134979574Y-52359582D01*
X134997635Y-52222400D01*
X134979574Y-52085217D01*
X134972807Y-52068879D01*
X134926626Y-51957387D01*
X134926623Y-51957382D01*
X134842392Y-51847610D01*
X134842389Y-51847608D01*
X134732618Y-51763376D01*
X134732614Y-51763374D01*
X134604782Y-51710425D01*
X134467600Y-51692365D01*
X134330417Y-51710425D01*
X134202587Y-51763373D01*
X134202582Y-51763376D01*
X134092810Y-51847607D01*
X134049274Y-51904344D01*
X134016795Y-51923095D01*
X133980570Y-51913388D01*
X133971526Y-51904344D01*
X133964060Y-51894615D01*
X133927991Y-51847609D01*
X133818218Y-51763376D01*
X133818214Y-51763374D01*
X133690382Y-51710425D01*
X133553200Y-51692365D01*
X133416017Y-51710425D01*
X133288187Y-51763373D01*
X133288182Y-51763376D01*
X133178410Y-51847607D01*
X133134874Y-51904344D01*
X133102395Y-51923095D01*
X133066170Y-51913388D01*
X133057126Y-51904344D01*
X133049660Y-51894615D01*
X133013591Y-51847609D01*
X132903818Y-51763376D01*
X132903814Y-51763374D01*
X132775982Y-51710425D01*
X132638800Y-51692365D01*
X132501617Y-51710425D01*
X132373787Y-51763373D01*
X132373782Y-51763376D01*
X132264009Y-51847608D01*
X132264008Y-51847609D01*
X132179776Y-51957382D01*
X132179773Y-51957387D01*
X132126825Y-52085217D01*
X132108765Y-52222400D01*
X116001425Y-52222400D01*
X115974755Y-52186263D01*
X115974753Y-52186260D01*
X115783940Y-51995447D01*
X115783936Y-51995444D01*
X115566813Y-51835199D01*
X115430916Y-51763376D01*
X115328225Y-51709102D01*
X115328216Y-51709098D01*
X115328212Y-51709097D01*
X115073516Y-51619975D01*
X115073510Y-51619974D01*
X114940933Y-51594889D01*
X114808358Y-51569804D01*
X114808352Y-51569803D01*
X114745316Y-51566263D01*
X114696105Y-51563500D01*
X114696095Y-51563500D01*
X111516305Y-51563500D01*
X111404045Y-51569803D01*
X111138890Y-51619974D01*
X111138883Y-51619975D01*
X110884187Y-51709097D01*
X110884179Y-51709100D01*
X110884175Y-51709102D01*
X110813226Y-51746599D01*
X110645586Y-51835199D01*
X110428463Y-51995444D01*
X110237644Y-52186263D01*
X110077399Y-52403386D01*
X109995256Y-52558810D01*
X109951302Y-52641975D01*
X109951300Y-52641979D01*
X109951297Y-52641987D01*
X109862175Y-52896683D01*
X109862174Y-52896690D01*
X109812004Y-53161841D01*
X109812003Y-53161847D01*
X109808187Y-53229804D01*
X109805700Y-53274095D01*
X107077084Y-53274095D01*
X106927893Y-53063830D01*
X106927877Y-53063811D01*
X106778528Y-52896690D01*
X106695839Y-52804161D01*
X106514352Y-52641974D01*
X106436188Y-52572122D01*
X106436169Y-52572106D01*
X106152172Y-52370600D01*
X106152165Y-52370595D01*
X105847380Y-52202147D01*
X105847365Y-52202140D01*
X105525646Y-52068880D01*
X105525647Y-52068880D01*
X105525644Y-52068879D01*
X105416956Y-52037566D01*
X105191023Y-51972475D01*
X105191015Y-51972473D01*
X105191013Y-51972473D01*
X104847693Y-51914141D01*
X104847691Y-51914140D01*
X104847685Y-51914140D01*
X104500000Y-51894615D01*
X104152314Y-51914140D01*
X104152307Y-51914141D01*
X103808987Y-51972473D01*
X103808985Y-51972473D01*
X103808976Y-51972475D01*
X103474353Y-52068880D01*
X103152634Y-52202140D01*
X103152619Y-52202147D01*
X102847834Y-52370595D01*
X102847827Y-52370600D01*
X102563830Y-52572106D01*
X102563811Y-52572122D01*
X102304161Y-52804161D01*
X102072122Y-53063811D01*
X102072106Y-53063830D01*
X101870600Y-53347827D01*
X101870595Y-53347834D01*
X101702147Y-53652619D01*
X101702140Y-53652634D01*
X101568880Y-53974353D01*
X101472475Y-54308976D01*
X101472473Y-54308985D01*
X101472473Y-54308987D01*
X101464485Y-54356000D01*
X101414141Y-54652307D01*
X101414140Y-54652314D01*
X101394615Y-55000000D01*
X100500500Y-55000000D01*
X100500500Y-52001748D01*
X100500625Y-51998252D01*
X100515513Y-51790094D01*
X100516508Y-51783174D01*
X100552009Y-51619975D01*
X100560495Y-51580966D01*
X100562463Y-51574262D01*
X100564126Y-51569804D01*
X100634788Y-51380353D01*
X100637684Y-51374012D01*
X100736868Y-51192370D01*
X100740629Y-51186517D01*
X100864660Y-51020832D01*
X100869225Y-51015564D01*
X101015564Y-50869225D01*
X101020832Y-50864660D01*
X101186517Y-50740629D01*
X101192370Y-50736868D01*
X101374012Y-50637684D01*
X101380353Y-50634788D01*
X101574266Y-50562461D01*
X101580966Y-50560495D01*
X101783174Y-50516507D01*
X101790094Y-50515513D01*
X101998252Y-50500625D01*
X102001748Y-50500500D01*
X102065892Y-50500500D01*
X152934108Y-50500500D01*
X152998252Y-50500500D01*
X153001748Y-50500625D01*
G37*
%TD.AperFunction*%
%TD*%
M02*
